<?xml version="1.0" encoding="utf-8"?>
<!-- Generator: Adobe Illustrator 26.5.0, SVG Export Plug-In . SVG Version: 6.00 Build 0)  -->
<svg version="1.1" id="Layer_1" xmlns="http://www.w3.org/2000/svg" xmlns:xlink="http://www.w3.org/1999/xlink" x="0px" y="0px"
	 width="38px" height="40.2px" viewBox="0 0 38 40.2" style="enable-background:new 0 0 38 40.2;" xml:space="preserve">
<style type="text/css">
	.st0{fill:#FFFFFF;}
</style>
<path class="st0" d="M37.3,22.4l0,0.1c0,0.1-0.1,0.1-0.2,0.1l-0.3,0c-0.1,0-0.1-0.1-0.1-0.2l0-0.1c0-0.1,0.1-0.1,0.2-0.1l0.3,0
	C37.3,22.3,37.3,22.4,37.3,22.4z M37.3,20.7l-0.3,0c-0.1,0-0.1,0.1-0.2,0.1l0,0.1c0,0.1,0.1,0.1,0.1,0.2l0.3,0
	c0.1,0,0.1-0.1,0.2-0.1l0-0.1C37.5,20.8,37.4,20.7,37.3,20.7z M37,19.1c-0.1,0-0.1,0.1-0.1,0.2l0,0.1c0,0.1,0.1,0.1,0.2,0.1l0.3,0
	c0.1,0,0.1-0.1,0.1-0.2l0-0.1c0-0.1-0.1-0.1-0.2-0.1L37,19.1z M36.8,17.7l0,0.1c0,0.1,0.1,0.1,0.2,0.1l0.3,0c0.1,0,0.1-0.1,0.1-0.2
	l0-0.1c0-0.1-0.1-0.1-0.2-0.1l-0.3,0C36.8,17.5,36.8,17.6,36.8,17.7z M36.5,16.2l0,0.1c0,0.1,0.1,0.1,0.2,0.1l0.2-0.1
	c0.1,0,0.1-0.1,0.1-0.2l0-0.1c0-0.1-0.1-0.1-0.2-0.1L36.6,16C36.5,16,36.5,16.1,36.5,16.2z M36.1,14.6l0,0.1c0,0.1,0.1,0.1,0.2,0.1
	l0.2-0.1c0.1,0,0.1-0.1,0.1-0.2l0-0.1c0-0.1-0.1-0.1-0.2-0.1l-0.2,0.1C36.1,14.5,36.1,14.6,36.1,14.6z M35.6,13.3
	c0,0.1,0.1,0.1,0.2,0.1l0.2-0.1c0.1,0,0.1-0.1,0.1-0.2l0-0.1c0-0.1-0.1-0.1-0.2-0.1L35.6,13c-0.1,0-0.1,0.1-0.1,0.2L35.6,13.3z
	 M34.9,11.9c0,0.1,0.1,0.1,0.2,0.1l0.2-0.1c0.1,0,0.1-0.1,0.1-0.2l-0.1-0.1c0-0.1-0.1-0.1-0.2-0.1l-0.2,0.1c-0.1,0-0.1,0.1-0.1,0.2
	L34.9,11.9z M34.2,10.5c0,0.1,0.1,0.1,0.2,0l0.2-0.1c0.1,0,0.1-0.1,0-0.2l-0.1-0.1c0-0.1-0.1-0.1-0.2,0l-0.2,0.1
	c-0.1,0-0.1,0.1,0,0.2L34.2,10.5z M33.3,9.2c0,0.1,0.1,0.1,0.2,0l0.2-0.2c0.1,0,0.1-0.1,0-0.2l-0.1-0.1c0-0.1-0.1-0.1-0.2,0
	l-0.2,0.2c-0.1,0-0.1,0.1,0,0.2L33.3,9.2z M32.2,7.9L32.2,7.9c0.1,0.2,0.2,0.2,0.3,0.1l0.2-0.2c0.1-0.1,0.1-0.1,0-0.2l-0.1-0.1
	c-0.1-0.1-0.1-0.1-0.2,0l-0.2,0.2C32.1,7.8,32.1,7.9,32.2,7.9z M31.2,6.9c0.1,0.1,0.2,0.1,0.2,0l0.2-0.2c0.1-0.1,0.1-0.2,0-0.2
	l-0.1-0.1c-0.1-0.1-0.2-0.1-0.2,0l-0.2,0.2C31,6.7,31,6.8,31.2,6.9L31.2,6.9z M29.9,5.8L30,5.9c0.1,0,0.2,0,0.2,0l0.2-0.2
	c0-0.1,0-0.2,0-0.2l-0.1-0.1c-0.1,0-0.2,0-0.2,0l-0.2,0.2C29.8,5.7,29.8,5.8,29.9,5.8z M28.6,5L28.7,5c0.1,0,0.2,0,0.2,0L29,4.8
	c0-0.1,0-0.2,0-0.2l-0.1-0.1c-0.1,0-0.2,0-0.2,0l-0.1,0.2C28.5,4.8,28.5,4.9,28.6,5z M27.2,4.2l0.1,0.1c0.1,0,0.2,0,0.2-0.1l0.1-0.2
	c0-0.1,0-0.2-0.1-0.2l-0.1-0.1c-0.1,0-0.2,0-0.2,0.1L27.2,4C27.1,4.1,27.2,4.1,27.2,4.2z M25.8,3.5l0.1,0c0.1,0,0.2,0,0.2-0.1
	l0.1-0.2c0-0.1,0-0.2-0.1-0.2L26,3c-0.1,0-0.2,0-0.2,0.1l-0.1,0.2C25.7,3.4,25.7,3.5,25.8,3.5z M24.3,3l0.1,0c0.1,0,0.2,0,0.2-0.1
	l0.1-0.2c0-0.1,0-0.2-0.1-0.2l-0.1,0c-0.1,0-0.2,0-0.2,0.1l-0.1,0.2C24.2,2.9,24.3,3,24.3,3z M22.8,2.6l0.1,0c0.1,0,0.2,0,0.2-0.1
	l0.1-0.2c0-0.1,0-0.2-0.1-0.2l-0.1,0c-0.1,0-0.2,0-0.2,0.1l-0.1,0.2C22.7,2.5,22.7,2.6,22.8,2.6z M21.3,2.3l0.1,0
	c0.1,0,0.2,0,0.2-0.1l0-0.3c0-0.1,0-0.2-0.1-0.2l-0.1,0c-0.1,0-0.2,0-0.2,0.1l0,0.3C21.2,2.2,21.2,2.3,21.3,2.3z M19.7,2.2l0.1,0
	c0.1,0,0.1-0.1,0.2-0.1l0-0.3c0-0.1-0.1-0.1-0.1-0.2l-0.1,0c-0.1,0-0.1,0.1-0.2,0.1l0,0.3C19.6,2.1,19.7,2.2,19.7,2.2z M18.2,2.2
	l0.1,0c0.1,0,0.1-0.1,0.1-0.2l0-0.3c0-0.1-0.1-0.1-0.2-0.1l-0.1,0c-0.1,0-0.1,0.1-0.1,0.2l0,0.3C18,2.1,18.1,2.2,18.2,2.2z
	 M16.4,2.2c0,0.1,0.1,0.1,0.2,0.1l0.1,0c0.1,0,0.1-0.1,0.1-0.2l0-0.3c0-0.1-0.1-0.1-0.2-0.1l-0.1,0c-0.1,0-0.1,0.1-0.1,0.2L16.4,2.2
	z M14.9,2.5c0,0.1,0.1,0.1,0.2,0.1l0.1,0c0.1,0,0.1-0.1,0.1-0.2l-0.1-0.2c0-0.1-0.1-0.1-0.2-0.1l-0.1,0c-0.1,0-0.1,0.1-0.1,0.2
	L14.9,2.5z M13.4,2.9C13.4,3,13.5,3,13.6,3l0.1,0c0.1,0,0.1-0.1,0.1-0.2l-0.1-0.2c0-0.1-0.1-0.1-0.2-0.1l-0.1,0
	c-0.1,0-0.1,0.1-0.1,0.2L13.4,2.9z M11.9,3.5c0,0.1,0.1,0.1,0.2,0.1l0.1,0c0.1,0,0.1-0.1,0.1-0.2l-0.1-0.2C12.2,3,12.1,3,12,3
	l-0.1,0c-0.1,0-0.1,0.1-0.1,0.2L11.9,3.5z M10.5,4.2c0,0.1,0.1,0.1,0.2,0.1l0.1-0.1c0.1,0,0.1-0.1,0.1-0.2l-0.1-0.2
	c0-0.1-0.1-0.1-0.2-0.1l-0.1,0.1c-0.1,0-0.1,0.1-0.1,0.2L10.5,4.2z M9.1,5c0,0.1,0.1,0.1,0.2,0l0.1-0.1c0.1,0,0.1-0.1,0-0.2L9.4,4.5
	c0-0.1-0.1-0.1-0.2,0L9,4.6C9,4.6,9,4.7,9,4.8L9.1,5z M7.9,5.9C7.9,6,8,6,8.1,5.9l0.1-0.1c0.1,0,0.1-0.1,0-0.2L8,5.4
	c0-0.1-0.1-0.1-0.2,0L7.7,5.5c-0.1,0-0.1,0.1,0,0.2L7.9,5.9z M6.7,6.9C6.7,7,6.8,7,6.9,6.9L7,6.8C7,6.8,7,6.7,7,6.6L6.8,6.4
	c-0.1-0.1-0.1-0.1-0.2,0L6.5,6.5c-0.1,0.1-0.1,0.1,0,0.2L6.7,6.9z M5.6,8c0.1,0.1,0.2,0.1,0.2,0l0.1-0.1c0.1-0.1,0.1-0.2,0-0.2
	L5.7,7.6c-0.1-0.1-0.2-0.1-0.2,0L5.4,7.7c-0.1,0.1-0.1,0.2,0,0.2L5.6,8z M4.4,9.1l0.2,0.2c0.1,0,0.2,0,0.2,0l0.1-0.1
	c0-0.1,0-0.2,0-0.2L4.6,8.8c-0.1,0-0.2,0-0.2,0L4.3,8.9C4.3,9,4.3,9.1,4.4,9.1z M3.5,10.4l0.2,0.1c0.1,0,0.2,0,0.2,0l0.1-0.1
	c0-0.1,0-0.2,0-0.2l-0.2-0.1c-0.1,0-0.2,0-0.2,0l-0.1,0.1C3.4,10.3,3.4,10.4,3.5,10.4z M2.7,11.8l0.2,0.1c0.1,0,0.2,0,0.2-0.1
	l0.1-0.1c0-0.1,0-0.2-0.1-0.2l-0.2-0.1c-0.1,0-0.2,0-0.2,0.1l-0.1,0.1C2.6,11.7,2.6,11.8,2.7,11.8z M2,13.3l0.2,0.1
	c0.1,0,0.2,0,0.2-0.1l0-0.1c0-0.1,0-0.2-0.1-0.2l-0.2-0.1c-0.1,0-0.2,0-0.2,0.1l0,0.1C1.9,13.2,1.9,13.2,2,13.3z M1.5,14.8l0.2,0.1
	c0.1,0,0.2,0,0.2-0.1l0-0.1c0-0.1,0-0.2-0.1-0.2l-0.2-0.1c-0.1,0-0.2,0-0.2,0.1l0,0.1C1.4,14.7,1.4,14.8,1.5,14.8z M1.1,16.3
	l0.2,0.1c0.1,0,0.2,0,0.2-0.1l0-0.1c0-0.1,0-0.2-0.1-0.2l-0.2-0.1C1.1,15.9,1,16,1,16l0,0.1C1,16.2,1,16.3,1.1,16.3z M0.8,17.9
	l0.3,0c0.1,0,0.2,0,0.2-0.1l0-0.1c0-0.1,0-0.2-0.1-0.2l-0.3,0c-0.1,0-0.2,0-0.2,0.1l0,0.1C0.7,17.8,0.7,17.9,0.8,17.9z M0.7,19.5
	l0.3,0c0.1,0,0.1-0.1,0.2-0.1l0-0.1c0-0.1-0.1-0.1-0.1-0.2l-0.3,0c-0.1,0-0.1,0.1-0.2,0.1l0,0.1C0.6,19.4,0.6,19.5,0.7,19.5z
	 M1,21.1c0.1,0,0.1-0.1,0.1-0.2l0-0.1c0-0.1-0.1-0.1-0.2-0.1l-0.3,0c-0.1,0-0.1,0.1-0.1,0.2l0,0.1c0,0.1,0.1,0.1,0.2,0.1L1,21.1z
	 M1.3,22.5l0-0.1c0-0.1-0.1-0.1-0.2-0.1l-0.3,0c-0.1,0-0.1,0.1-0.1,0.2l0,0.1c0,0.1,0.1,0.1,0.2,0.1l0.3,0
	C1.2,22.6,1.3,22.6,1.3,22.5z M1.5,24l0-0.1c0-0.1-0.1-0.1-0.2-0.1l-0.2,0.1C1,23.9,1,23.9,1,24l0,0.1c0,0.1,0.1,0.1,0.2,0.1
	l0.2-0.1C1.5,24.2,1.5,24.1,1.5,24z M1.9,25.5l0-0.1c0-0.1-0.1-0.1-0.2-0.1l-0.2,0.1c-0.1,0-0.1,0.1-0.1,0.2l0,0.1
	c0,0.1,0.1,0.1,0.2,0.1l0.2-0.1C1.9,25.7,2,25.6,1.9,25.5z M2.4,26.9c0-0.1-0.1-0.1-0.2-0.1L2,26.9c-0.1,0-0.1,0.1-0.1,0.2l0,0.1
	c0,0.1,0.1,0.1,0.2,0.1l0.2-0.1c0.1,0,0.1-0.1,0.1-0.2L2.4,26.9z M3.1,28.3c0-0.1-0.1-0.1-0.2-0.1l-0.2,0.1c-0.1,0-0.1,0.1-0.1,0.2
	l0.1,0.1c0,0.1,0.1,0.1,0.2,0.1l0.2-0.1c0.1,0,0.1-0.1,0.1-0.2L3.1,28.3z M3.9,29.7c0-0.1-0.1-0.1-0.2,0l-0.2,0.1
	c-0.1,0-0.1,0.1,0,0.2l0.1,0.1c0,0.1,0.1,0.1,0.2,0L3.9,30c0.1,0,0.1-0.1,0-0.2L3.9,29.7z M4.8,30.9c0-0.1-0.1-0.1-0.2,0l-0.2,0.2
	c-0.1,0-0.1,0.1,0,0.2l0.1,0.1c0,0.1,0.1,0.1,0.2,0l0.2-0.2c0.1,0,0.1-0.1,0-0.2L4.8,30.9z M5.8,32.1c-0.1-0.1-0.1-0.1-0.2,0
	l-0.2,0.2c-0.1,0.1-0.1,0.1,0,0.2l0.1,0.1c0.1,0.1,0.1,0.1,0.2,0l0.2-0.2C5.9,32.4,5.9,32.3,5.8,32.1L5.8,32.1z M6.9,33.3
	c-0.1-0.1-0.2-0.1-0.2,0l-0.2,0.2c-0.1,0.1-0.1,0.2,0,0.2l0.1,0.1c0.1,0.1,0.2,0.1,0.2,0L7,33.5C7,33.5,7,33.4,6.9,33.3L6.9,33.3z
	 M8.1,34.3L8,34.3c-0.1,0-0.2,0-0.2,0l-0.2,0.2c0,0.1,0,0.2,0,0.2l0.1,0.1c0.1,0,0.2,0,0.2,0l0.2-0.2C8.2,34.5,8.2,34.4,8.1,34.3z
	 M9.4,35.2l-0.1-0.1c-0.1,0-0.2,0-0.2,0L9,35.4c0,0.1,0,0.2,0,0.2l0.1,0.1c0.1,0,0.2,0,0.2,0l0.1-0.2C9.5,35.4,9.5,35.3,9.4,35.2
	L9.4,35.2z M10.8,36L10.7,36c-0.1,0-0.2,0-0.2,0.1l-0.1,0.2c0,0.1,0,0.2,0.1,0.2l0.1,0.1c0.1,0,0.2,0,0.2-0.1l0.1-0.2
	C10.9,36.1,10.9,36,10.8,36z M12.2,36.7l-0.1,0c-0.1,0-0.2,0-0.2,0.1l-0.1,0.2c0,0.1,0,0.2,0.1,0.2l0.1,0c0.1,0,0.2,0,0.2-0.1
	l0.1-0.2C12.3,36.8,12.3,36.7,12.2,36.7z M13.7,37.2l-0.1,0c-0.1,0-0.2,0-0.2,0.1l-0.1,0.2c0,0.1,0,0.2,0.1,0.2l0.1,0
	c0.1,0,0.2,0,0.2-0.1l0.1-0.2C13.8,37.3,13.8,37.2,13.7,37.2z M15.2,37.6l-0.1,0c-0.1,0-0.2,0-0.2,0.1l-0.1,0.2c0,0.1,0,0.2,0.1,0.2
	l0.1,0c0.1,0,0.2,0,0.2-0.1l0.1-0.2C15.3,37.7,15.3,37.6,15.2,37.6z M16.7,37.9l-0.1,0c-0.1,0-0.2,0-0.2,0.1l0,0.3
	c0,0.1,0,0.2,0.1,0.2l0.1,0c0.1,0,0.2,0,0.2-0.1l0-0.3C16.9,37.9,16.8,37.9,16.7,37.9z M18.3,38l-0.1,0C18.1,38,18,38,18,38.1l0,0.3
	c0,0.1,0.1,0.1,0.1,0.2l0.1,0c0.1,0,0.1-0.1,0.2-0.1l0-0.3C18.4,38.1,18.4,38,18.3,38z M19.8,38l-0.1,0c-0.1,0-0.1,0.1-0.1,0.2
	l0,0.3c0,0.1,0.1,0.1,0.2,0.1l0.1,0c0.1,0,0.1-0.1,0.1-0.2l0-0.3C20,38,19.9,38,19.8,38z M21.6,38c0-0.1-0.1-0.1-0.2-0.1l-0.1,0
	c-0.1,0-0.1,0.1-0.1,0.2l0,0.3c0,0.1,0.1,0.1,0.2,0.1l0.1,0c0.1,0,0.1-0.1,0.1-0.2L21.6,38z M23.1,37.7c0-0.1-0.1-0.1-0.2-0.1
	l-0.1,0c-0.1,0-0.1,0.1-0.1,0.2l0.1,0.2c0,0.1,0.1,0.1,0.2,0.1l0.1,0c0.1,0,0.1-0.1,0.1-0.2L23.1,37.7z M24.6,37.3
	c0-0.1-0.1-0.1-0.2-0.1l-0.1,0c-0.1,0-0.1,0.1-0.1,0.2l0.1,0.2c0,0.1,0.1,0.1,0.2,0.1l0.1,0c0.1,0,0.1-0.1,0.1-0.2L24.6,37.3z
	 M26.1,36.7c0-0.1-0.1-0.1-0.2-0.1l-0.1,0c-0.1,0-0.1,0.1-0.1,0.2l0.1,0.2c0,0.1,0.1,0.1,0.2,0.1l0.1,0c0.1,0,0.1-0.1,0.1-0.2
	L26.1,36.7z M27.5,36c0-0.1-0.1-0.1-0.2-0.1L27.2,36c-0.1,0-0.1,0.1-0.1,0.2l0.1,0.2c0,0.1,0.1,0.1,0.2,0.1l0.1-0.1
	c0.1,0,0.1-0.1,0.1-0.2L27.5,36z M28.9,35.2c0-0.1-0.1-0.1-0.2,0l-0.1,0.1c-0.1,0-0.1,0.1,0,0.2l0.1,0.2c0,0.1,0.1,0.1,0.2,0
	l0.1-0.1c0.1,0,0.1-0.1,0-0.2L28.9,35.2z M30.2,34.3c0-0.1-0.1-0.1-0.2,0l-0.1,0.1c-0.1,0-0.1,0.1,0,0.2l0.2,0.2
	c0,0.1,0.1,0.1,0.2,0l0.1-0.1c0.1,0,0.1-0.1,0-0.2L30.2,34.3z M31.4,33.3c-0.1-0.1-0.1-0.1-0.2,0l-0.1,0.1c-0.1,0.1-0.1,0.1,0,0.2
	l0.2,0.2c0.1,0.1,0.1,0.1,0.2,0l0.1-0.1c0.1-0.1,0.1-0.1,0-0.2L31.4,33.3z M32.5,32.1c-0.1-0.1-0.2-0.1-0.2,0l-0.1,0.1
	c-0.1,0.1-0.1,0.2,0,0.2l0.2,0.2c0.1,0.1,0.2,0.1,0.2,0l0.1-0.1c0.1-0.1,0.1-0.2,0-0.2L32.5,32.1z M33.7,31.1l-0.2-0.2
	c-0.1,0-0.2,0-0.2,0l-0.1,0.1c0,0.1,0,0.2,0,0.2l0.2,0.2c0.1,0,0.2,0,0.2,0l0.1-0.1C33.7,31.2,33.7,31.1,33.7,31.1z M34.6,29.8
	l-0.2-0.1c-0.1,0-0.2,0-0.2,0l-0.1,0.1c0,0.1,0,0.2,0,0.2l0.2,0.1c0.1,0,0.2,0,0.2,0l0.1-0.1C34.6,29.9,34.6,29.8,34.6,29.8z
	 M35.3,28.4l-0.2-0.1c-0.1,0-0.2,0-0.2,0.1l-0.1,0.1c0,0.1,0,0.2,0.1,0.2l0.2,0.1c0.1,0,0.2,0,0.2-0.1l0.1-0.1
	C35.4,28.5,35.4,28.4,35.3,28.4z M36,26.9l-0.2-0.1c-0.1,0-0.2,0-0.2,0.1l0,0.1c0,0.1,0,0.2,0.1,0.2l0.2,0.1c0.1,0,0.2,0,0.2-0.1
	l0-0.1C36.1,27,36.1,26.9,36,26.9z M36.5,25.4l-0.2-0.1c-0.1,0-0.2,0-0.2,0.1l0,0.1c0,0.1,0,0.2,0.1,0.2l0.2,0.1
	c0.1,0,0.2,0,0.2-0.1l0-0.1C36.7,25.5,36.6,25.4,36.5,25.4z M36.9,23.9l-0.2-0.1c-0.1,0-0.2,0-0.2,0.1l0,0.1c0,0.1,0,0.2,0.1,0.2
	l0.2,0.1c0.1,0,0.2,0,0.2-0.1l0-0.1C37.1,24,37,23.9,36.9,23.9z M5.7,18.3C5.5,18.2,5.2,18.1,5,18l-1.6-0.4c-0.1,0-0.2-0.1-0.4-0.1
	c-0.2,0-0.3,0.1-0.3,0.1c0,0,0-0.1,0.1-0.3l0.5-1.9c0.2-0.8,0.6-1,1.2-0.8c0.2,0.1,0.3,0.2,0.5,0.3C5,15.1,5.1,15.1,5.2,15
	c0.2-0.2,0.4-0.2,0.7-0.1c0.6,0.2,0.8,0.7,0.6,1.3l-0.5,2C6,18.3,6,18.5,6,18.5C5.9,18.5,5.9,18.4,5.7,18.3L5.7,18.3z M3.8,15.6
	l-0.3,1.1c0,0.2,0.1,0.3,0.2,0.4l1.6,0.4c0.2,0,0.3-0.1,0.4-0.2L6,16.2c0.1-0.5,0-0.7-0.3-0.7c-0.3-0.1-0.5,0.1-0.6,0.5l-0.2,0.7
	c0,0.1,0,0.1,0,0.2c0,0.1,0,0.2,0,0.2c0,0-0.1-0.1-0.2-0.2l-0.1-0.1c-0.1-0.1-0.2-0.2-0.2-0.2c0,0,0.1-0.1,0.1-0.1c0,0,0-0.1,0-0.2
	l0.1-0.5c0.1-0.3-0.1-0.5-0.3-0.5C4,15.1,3.9,15.2,3.8,15.6L3.8,15.6z M5.8,11.6c-0.1-0.1-0.1-0.2-0.2-0.3c-0.1-0.1-0.3-0.1-0.3-0.1
	c0,0,0.1-0.1,0.2-0.3l0.2-0.3c0.1-0.1,0.2-0.2,0.2-0.2c0,0,0.1,0.1,0.2,0.1c0.1,0,0.1,0,0.2,0.1l2,0.4c0.1,0,0.5,0.1,0.8,0.1
	c0.2,0,0.3,0,0.3,0c0,0-0.1,0.1-0.2,0.3l-0.2,0.3c-0.1,0.1-0.2,0.2-0.2,0.2c0,0-0.1-0.1-0.2-0.2c-0.1,0-0.2-0.1-0.3-0.1l-0.1,0
	c-0.1,0-0.2,0.1-0.3,0.2l-0.6,0.8c-0.1,0.1-0.1,0.3-0.1,0.4L7.3,13c0.1,0.1,0.1,0.2,0.2,0.3c0.1,0.1,0.3,0.2,0.3,0.2
	c0,0-0.1,0.1-0.2,0.3L7.4,14c-0.1,0.1-0.2,0.2-0.2,0.2s0-0.1-0.1-0.3c-0.1-0.3-0.3-0.6-0.4-0.7L5.8,11.6L5.8,11.6z M7.2,11.4
	l-0.7-0.1c-0.2,0-0.2,0.1-0.1,0.2l0.4,0.6c0.1,0.1,0.2,0.1,0.3,0l0.3-0.4C7.4,11.5,7.3,11.4,7.2,11.4z M9.7,9.5
	c0.1,0.1,0.3,0.4,0.4,0.6c0.1,0.2,0.1,0.3,0.1,0.3c0,0,0.1-0.1,0.3-0.2l0.3-0.2C10.9,9.9,11,9.8,11,9.8c0,0-0.1-0.1-0.3-0.2
	c-0.2-0.2-0.4-0.5-0.4-0.6L9.4,7.8C9.3,7.7,9.4,7.5,9.5,7.4l0.9-0.6c0.3-0.2,0.6-0.2,0.7,0c0.2,0.2,0.1,0.5-0.2,0.7l-0.4,0.3
	c0,0-0.1,0.1-0.1,0.1c-0.1,0-0.2,0.1-0.2,0.1c0,0,0,0.1,0,0.3l0,0.1c0,0.2,0.1,0.2,0.3,0.1l0.1-0.1c0.1-0.1,0.4-0.1,0.5-0.1l0.8,0.3
	c0.2,0.1,0.6,0.2,1-0.1c0.1,0,0.1-0.1,0.2-0.1c0.1-0.1,0.1-0.1,0.1-0.2c0,0-0.1,0-0.3-0.1c-0.4-0.1-0.8-0.2-0.9-0.3l-0.2-0.1
	c-0.1,0-0.1-0.2,0-0.3c0.2-0.3,0.2-0.7,0-1.1c-0.4-0.5-1-0.5-1.6-0.1L8.5,7.5C8.4,7.6,8.3,7.6,8.3,7.6c0,0,0.2,0,0.3,0.1
	C8.6,7.9,8.7,8,8.8,8.1L9.7,9.5L9.7,9.5z M18.1,6.6c-0.4,0-0.8,0-1.1-0.2c-0.1-0.1-0.2-0.2-0.2-0.2c0,0-0.1,0.1-0.1,0.3l0,0.1
	c-0.1,0.2,0,0.4,0.2,0.4c0.3,0.1,0.7,0.2,1.4,0.2c1.2-0.1,1.7-0.6,1.7-1.2c-0.1-1.7-2.7-0.4-2.8-1.2c0-0.3,0.3-0.5,1-0.6
	c0.4,0,0.8,0.1,1,0.2c0.1,0.1,0.2,0.2,0.2,0.2c0,0,0.1-0.1,0.1-0.3l0,0c0.1-0.2,0-0.3-0.2-0.4c-0.3-0.1-0.7-0.2-1.3-0.2
	c-0.9,0.1-1.7,0.4-1.6,1.2c0.1,1.5,2.7,0.3,2.7,1.2C19.2,6.3,18.9,6.6,18.1,6.6L18.1,6.6z M24.3,7.3c0,0-0.2,0-0.3,0
	c-0.4,0-1-0.2-1.3-0.3l-0.4-0.1c-0.2,0-0.3-0.2-0.2-0.4l0.1-0.3c0-0.2,0.2-0.3,0.4-0.2l0.4,0.1c0.1,0,0.3,0.1,0.4,0.1
	c0.1,0.1,0.3,0.2,0.3,0.2c0,0,0.1-0.1,0.2-0.2l0.1-0.1C24,6,24,5.9,23.8,5.9l-1.2-0.3c-0.2,0-0.3-0.2-0.2-0.4l0.1-0.2
	c0-0.2,0.2-0.3,0.4-0.2l0.6,0.2c0.3,0.1,0.6,0.2,0.8,0.3c0.1,0.1,0.2,0.2,0.2,0.2c0,0,0-0.1,0-0.3V5c0-0.2-0.1-0.3-0.3-0.4L22.2,4
	c-0.2,0-0.3-0.1-0.3-0.1c0,0,0.1,0.1,0.1,0.3c0,0.1,0,0.3-0.1,0.4l-0.5,1.6c0,0.1-0.1,0.4-0.2,0.7C21.1,7,21,7.1,21,7.1
	c0,0,0.1,0.1,0.3,0.1l2.1,0.6c0.2,0,0.4,0,0.5-0.1l0.2-0.2C24.2,7.4,24.3,7.3,24.3,7.3L24.3,7.3z M25.9,8.7c0.1-0.2,0.3-0.5,0.4-0.6
	l0.9-1.2c0.1-0.1,0.3-0.2,0.4-0.1l0.9,0.6c0.3,0.2,0.4,0.5,0.2,0.7c-0.2,0.2-0.5,0.2-0.7,0l-0.4-0.3c0,0-0.1-0.1-0.1-0.1
	c-0.1-0.1-0.1-0.1-0.1-0.1c0,0-0.1,0-0.3,0.1l-0.1,0c-0.2,0.1-0.2,0.2,0,0.3L27,8.1c0.1,0.1,0.2,0.3,0.2,0.5l0,0.8
	c0,0.2,0,0.6,0.4,0.9c0.1,0,0.1,0.1,0.2,0.1c0.1,0.1,0.2,0.1,0.2,0.1c0,0,0-0.1-0.1-0.3c-0.1-0.4,0-0.8,0-1L28,9
	c0-0.1,0.1-0.2,0.3-0.1c0.4,0.1,0.7-0.1,1-0.4C29.6,8,29.4,7.4,28.8,7l-1.6-1.1C27.1,5.8,27,5.7,27,5.7c0,0,0,0.2,0,0.3
	c0,0.1-0.1,0.2-0.2,0.3l-1,1.4c-0.1,0.1-0.3,0.4-0.4,0.5c-0.1,0.1-0.3,0.2-0.3,0.2c0,0,0.1,0.1,0.2,0.2l0.3,0.2
	C25.7,8.9,25.9,9,25.9,9C25.9,9,25.9,8.8,25.9,8.7L25.9,8.7z M28.9,11.4c0,0,0.1,0.1,0.2,0.3l0.2,0.3c0.1,0.1,0.2,0.2,0.2,0.2
	c0,0,0.1-0.1,0.2-0.3c0.2-0.2,0.5-0.4,0.6-0.4l1.2-0.8c0.1-0.1,0.3-0.1,0.4,0.1l0.6,0.9c0.2,0.3,0.2,0.6,0,0.7
	c-0.2,0.2-0.5,0-0.7-0.2l-0.3-0.4c0,0-0.1-0.1-0.1-0.1c0-0.1-0.1-0.2-0.1-0.2c0,0-0.1,0-0.3,0l-0.1,0c-0.2,0-0.2,0.1-0.1,0.3
	l0.1,0.1c0.1,0.1,0.1,0.4,0.1,0.5l-0.3,0.8c-0.1,0.2-0.2,0.6,0.1,1c0,0.1,0.1,0.1,0.1,0.2c0.1,0.1,0.1,0.1,0.1,0.1
	c0,0,0-0.1,0.1-0.3c0.1-0.4,0.2-0.8,0.3-0.9l0.1-0.2c0-0.1,0.2-0.1,0.3,0c0.3,0.2,0.7,0.2,1.1,0c0.5-0.4,0.5-1,0.1-1.6l-1.1-1.6
	c-0.1-0.1-0.2-0.2-0.2-0.2c0,0,0,0.1-0.2,0.3c-0.1,0.1-0.2,0.2-0.3,0.2L29.8,11c-0.1,0.1-0.4,0.3-0.6,0.4
	C29,11.4,28.9,11.4,28.9,11.4L28.9,11.4z M34.9,16.2l0.1,0.4c0,0.2,0.1,0.3,0.1,0.3c0,0-0.1,0-0.2,0.1c-0.1,0-0.1,0.1-0.2,0.1
	L33,18.4c-0.1,0.1-0.4,0.3-0.6,0.5c-0.1,0.1-0.2,0.2-0.2,0.2c0,0,0-0.1-0.1-0.3L32,18.5c0-0.2-0.1-0.3-0.1-0.3c0,0,0.2,0,0.3,0
	c0.1-0.1,0.2-0.1,0.3-0.2l0.1-0.1c0.1,0,0.1-0.2,0-0.4l-0.2-0.9c0-0.2-0.1-0.3-0.2-0.3l-0.1,0c-0.1,0-0.2,0-0.3-0.1
	c-0.2,0-0.3,0.1-0.3,0.1c0,0,0-0.1-0.1-0.3l-0.1-0.3c0-0.2-0.1-0.3-0.1-0.3c0,0,0.1,0.1,0.3,0.1c0.3,0.1,0.7,0.2,0.8,0.2l1.8,0.4
	c0.1,0,0.2,0,0.4,0c0.2,0,0.3-0.1,0.3-0.1C34.8,15.9,34.9,16.1,34.9,16.2L34.9,16.2z M33.4,17.2l0.6-0.4c0.1-0.1,0.1-0.2-0.1-0.2
	l-0.7-0.1c-0.2,0-0.3,0.1-0.2,0.2l0.1,0.5C33.2,17.3,33.3,17.3,33.4,17.2L33.4,17.2z M5.8,24.7c0.1,0,0.2,0,0.2,0c0,0,0-0.1,0-0.2
	c0-0.1-0.2-0.2-0.3-0.2c-0.1-0.1-0.2-0.2-0.2-0.2c0,0,0,0.1,0,0.1c0,0.1-0.1,0.2-0.2,0.2l-0.5,0.2c0,0-0.2,0-0.3,0.1
	c-0.2,0-0.3,0-0.3,0c0,0,0,0.1,0.1,0.3c0,0.1,0.1,0.3,0.1,0.3c0,0,0.1-0.1,0.2-0.2C4.6,25,4.7,25,4.8,25l0.9-0.3
	C5.7,24.7,5.7,24.7,5.8,24.7L5.8,24.7z M6,27.1c0,0.1-0.1,0.2-0.2,0.2c-0.4,0.2-0.7-0.2-0.9-0.6c-0.2-0.4-0.3-0.9,0.1-1.1
	c0.1,0,0.2-0.1,0.3,0c0.2,0,0.2,0.2,0.2,0.2c0,0,0-0.1,0-0.2c0-0.1,0.1-0.1,0.2-0.2c0.3-0.2,0.6,0.2,0.8,0.5
	c0.1,0.3,0.2,0.8-0.1,0.9c-0.1,0-0.2,0-0.2,0c-0.1,0-0.2-0.1-0.2-0.1C6.1,26.8,6.1,27,6,27.1L6,27.1z M5.7,26.4
	C5.6,26.1,5.4,26,5.2,26c-0.2,0.1-0.2,0.3,0,0.6c0.1,0.3,0.3,0.5,0.5,0.4C5.8,26.9,5.8,26.7,5.7,26.4L5.7,26.4z M5.9,26.3
	c0.1,0.3,0.2,0.4,0.4,0.3c0.1-0.1,0.1-0.2,0-0.5c-0.1-0.3-0.2-0.4-0.4-0.3C5.8,25.9,5.8,26,5.9,26.3z M8.1,28.6c0,0-0.1-0.1-0.2-0.3
	l-0.3-0.5c-0.1-0.1-0.2-0.3-0.2-0.4c0-0.1-0.1-0.1-0.1-0.1c0,0-0.1,0-0.2,0c-0.1,0-0.2,0-0.2,0c0,0,0.1,0.1,0.2,0.2
	c0.1,0.1,0.1,0.2,0.2,0.2l0.1,0.2c0.1,0.1,0,0.2-0.2,0.2l-1.1,0.1c-0.2,0-0.3,0-0.3,0c0,0,0.1,0.1,0.1,0.2c0.1,0.1,0.1,0.2,0.2,0.2
	c0,0,0.1-0.1,0.2-0.1c0.1,0,0.2-0.1,0.3-0.1l1-0.2c0.1,0,0.1,0,0.2,0C8,28.5,8.1,28.6,8.1,28.6L8.1,28.6z M7.7,29.6
	c0.4-0.4,1-0.4,1.3,0c0.1,0.1,0.2,0.2,0.2,0.3c0.1,0.2,0,0.3-0.1,0.3c-0.1,0-0.2,0.1-0.2,0.1c0,0,0.1-0.1,0-0.3
	c0-0.1-0.1-0.1-0.1-0.2c-0.2-0.2-0.4-0.3-0.6-0.2c-0.2,0-0.1,0.1,0,0.2c0.1,0.1,0.2,0.1,0.3,0.2c0.3,0.3,0.4,0.7,0.1,1
	c-0.3,0.3-0.8,0.1-1-0.2C7.3,30.4,7.3,30,7.7,29.6L7.7,29.6z M7.8,30.1c-0.2,0.2-0.1,0.3,0.1,0.6c0.2,0.2,0.4,0.3,0.6,0.1
	c0.2-0.2,0.1-0.3-0.1-0.6C8.2,30,7.9,30,7.8,30.1L7.8,30.1z M12.1,32.3c0,0.1-0.1,0.1-0.1,0.2L11.7,33c-0.2,0.2-0.4,0.4-0.8,0.1
	c-0.4-0.2-0.4-0.5-0.2-0.7l0.3-0.6c0,0,0.1-0.1,0.1-0.2c0.1-0.1,0.2-0.1,0.2-0.1c0,0-0.1-0.1-0.2-0.2c-0.1-0.1-0.2-0.1-0.2-0.1
	c0,0,0,0.1,0,0.2c0,0.1-0.1,0.1-0.1,0.2l-0.4,0.6c-0.3,0.4-0.1,0.8,0.4,1.1c0.5,0.3,0.9,0.2,1.2-0.2l0.4-0.6c0,0,0.1-0.1,0.1-0.1
	c0.1-0.1,0.2-0.1,0.2-0.1c0,0-0.1-0.1-0.2-0.2c-0.1-0.1-0.2-0.1-0.2-0.1C12.2,32.1,12.2,32.2,12.1,32.3L12.1,32.3z M14.7,33.2
	c-0.1,0-0.2-0.1-0.4-0.1l-0.6-0.2c-0.2-0.1-0.3-0.1-0.4-0.2c-0.1,0-0.1-0.1-0.1-0.1c0,0-0.1,0.1-0.2,0.2c-0.1,0.1-0.2,0.2-0.2,0.2
	c0,0,0.1,0,0.2,0c0.1,0,0.1,0,0.2,0.1l0.1,0.1c0.1,0,0.1,0.2,0,0.3L13.2,34c0,0-0.1,0.2-0.1,0.3c-0.1,0.1-0.2,0.2-0.2,0.2
	c0,0,0.1,0.1,0.3,0.1c0.1,0.1,0.3,0.1,0.3,0.1c0,0,0-0.1,0-0.3c0-0.1,0.1-0.2,0.1-0.3l0.2-0.6c0.1-0.2,0.2-0.3,0.3-0.2l0.1,0.1
	c0,0,0.1,0,0.1,0.1c0.1,0,0.1,0.1,0.1,0.1c0,0,0.1-0.1,0.2-0.2c0.1-0.1,0.2-0.2,0.2-0.2C14.8,33.2,14.7,33.2,14.7,33.2L14.7,33.2z
	 M15.2,33.5c0,0.1,0,0.1,0,0.2L15,34.6c0,0,0,0.2-0.1,0.3c-0.1,0.1-0.2,0.2-0.2,0.2c0,0,0.1,0,0.3,0.1c0.2,0,0.3,0.1,0.3,0.1
	c0,0,0-0.1,0-0.3c0-0.1,0-0.2,0.1-0.3l0.2-0.9c0-0.1,0-0.1,0.1-0.2c0.1-0.1,0.1-0.1,0.1-0.1c0,0-0.1,0-0.3-0.1
	c-0.2,0-0.3-0.1-0.3-0.1C15.2,33.4,15.2,33.4,15.2,33.5L15.2,33.5z M17.8,34.2c0.1,0.1,0.2,0.2,0.2,0.2c0,0,0-0.1,0.1-0.2
	c0-0.1,0-0.3-0.2-0.3c-0.1-0.1-0.3-0.1-0.5-0.1c-0.6-0.1-1.2,0.2-1.2,0.8c-0.1,0.6,0.4,1,1,1c0.1,0,0.2,0,0.4,0
	c0.2,0,0.3-0.2,0.4-0.3c0.1-0.1,0.1-0.2,0.1-0.2c0,0-0.1,0.1-0.3,0.2c-0.2,0.1-0.4,0.1-0.6,0.1c-0.4,0-0.7-0.3-0.7-0.7
	c0.1-0.4,0.4-0.6,0.8-0.5C17.5,34.1,17.7,34.1,17.8,34.2L17.8,34.2z M20.3,35.1c0,0,0.1,0.2,0.2,0.3c0.1,0.1,0.2,0.2,0.2,0.3
	c0,0-0.1,0-0.3,0c-0.1,0-0.3,0-0.3,0c0,0,0-0.1,0-0.2c0-0.1-0.1-0.1-0.1-0.2l0-0.1c0,0-0.2-0.1-0.3,0l-0.2,0c-0.2,0-0.3,0-0.3,0.1
	l0,0.1c0,0,0,0.1-0.1,0.2c0,0.1,0,0.2,0,0.2c0,0-0.1,0-0.2,0c-0.1,0-0.2,0-0.2,0c0,0,0.1-0.1,0.2-0.3c0.1-0.1,0.1-0.2,0.1-0.3
	l0.3-0.9c0,0,0-0.1,0.1-0.2c0-0.1,0-0.2,0-0.2c0,0,0.1,0,0.3,0s0.3,0,0.3,0c0,0,0,0.1,0,0.1c0,0,0,0.1,0.1,0.1L20.3,35.1L20.3,35.1z
	 M19.5,35c0.2,0,0.2-0.1,0.2-0.3l-0.1-0.1c-0.1-0.1-0.2-0.1-0.2,0l0,0.1C19.2,34.9,19.3,35,19.5,35L19.5,35z M23.4,33.4
	c0.1,0,0.3-0.1,0.4-0.1c0.2,0,0.3,0.1,0.3,0.1c0,0,0-0.1,0-0.2c0-0.1-0.1-0.2-0.3-0.2c-0.2,0-0.3,0-0.6,0.1
	c-0.5,0.2-0.8,0.5-0.7,0.9c0.3,0.8,1.4-0.2,1.6,0.2c0,0.1-0.1,0.3-0.5,0.4c-0.2,0.1-0.3,0.1-0.5,0.1c-0.2,0-0.3-0.1-0.3-0.1
	c0,0,0,0.1,0,0.2c0,0.1,0.1,0.2,0.3,0.2c0.1,0,0.3,0,0.6-0.1c0.6-0.2,0.8-0.5,0.7-0.9c-0.3-0.9-1.5,0.2-1.6-0.2
	C22.9,33.7,23.1,33.6,23.4,33.4L23.4,33.4z M27.2,33.3c0.1,0,0.2,0,0.2,0c0,0,0,0-0.1,0.1c0,0-0.1,0-0.1,0.1c-0.1,0-0.1,0.1-0.2,0.1
	c-0.1,0-0.3,0.1-0.4,0.2c-0.1,0.1-0.1,0.1-0.2,0.2c-0.5,0.3-1.1,0.2-1.4-0.3c-0.3-0.5,0-1,0.5-1.3c0.5-0.3,1.1-0.2,1.4,0.3
	c0.1,0.1,0.1,0.3,0.1,0.4C27,33.1,27.1,33.2,27.2,33.3L27.2,33.3z M26.7,32.9c0-0.1,0-0.2-0.1-0.2c-0.2-0.4-0.6-0.4-0.9-0.2
	c-0.3,0.2-0.5,0.5-0.3,0.9c0.2,0.4,0.6,0.4,0.9,0.2c0,0,0.1,0,0.1-0.1c0.1,0,0-0.1-0.1-0.1c-0.1,0-0.2,0-0.2,0c0,0,0-0.1,0.1-0.1
	c0,0,0.1,0,0.1-0.1c0.1,0,0.1-0.1,0.2-0.1C26.5,33.2,26.7,33.1,26.7,32.9L26.7,32.9z M28.5,30.4c0-0.1,0-0.2,0-0.2
	c0,0-0.1,0.1-0.2,0.2c-0.1,0.1-0.2,0.2-0.2,0.2c0,0,0.1,0,0.2,0.1c0.1,0,0.1,0.1,0.1,0.1l0.4,0.5c0.2,0.2,0.2,0.5-0.1,0.8
	c-0.3,0.3-0.6,0.2-0.8-0.1l-0.4-0.5c0,0-0.1-0.1-0.1-0.2c0-0.1,0-0.2,0-0.2s-0.1,0.1-0.2,0.2c-0.1,0.1-0.2,0.2-0.2,0.2
	c0,0,0.1,0,0.2,0.1c0.1,0,0.1,0.1,0.1,0.1l0.4,0.6c0.3,0.4,0.7,0.4,1.2,0c0.4-0.4,0.5-0.8,0.2-1.2l-0.5-0.6
	C28.6,30.5,28.5,30.4,28.5,30.4L28.5,30.4z M30.9,29.4c0.1,0,0.2,0,0.3,0.1c0.2,0,0.3,0,0.3,0c0,0-0.1,0.1-0.2,0.2
	c-0.1,0.1-0.2,0.2-0.2,0.2c0,0,0-0.1-0.1-0.1c-0.1,0-0.1,0-0.2-0.1l-0.1,0c0,0-0.2,0.1-0.3,0.2l-0.2,0.2c-0.1,0.1-0.2,0.3-0.2,0.3
	l0,0.1c0,0,0,0.1,0.1,0.2c0.1,0.1,0.1,0.1,0.1,0.1c0,0-0.1,0.1-0.2,0.2c-0.1,0.1-0.2,0.2-0.2,0.2c0,0,0-0.1-0.1-0.3
	c0-0.1-0.1-0.2-0.1-0.3l-0.4-0.9c0,0-0.1-0.1-0.1-0.2c-0.1-0.1-0.1-0.1-0.2-0.1c0,0,0.1-0.1,0.2-0.2c0.1-0.1,0.2-0.2,0.2-0.2
	c0,0,0,0.1,0.1,0.1c0,0,0.1,0,0.1,0L30.9,29.4L30.9,29.4z M30.2,29.8c0.1-0.1,0.1-0.3-0.1-0.3l-0.1,0c-0.2,0-0.2,0-0.2,0.2l0,0.1
	C30,29.9,30.1,30,30.2,29.8L30.2,29.8z M32.1,27.3c-0.1,0-0.1-0.1-0.1-0.3c0-0.2-0.1-0.3-0.3-0.4c-0.3-0.2-0.6,0-0.8,0.3l-0.5,0.8
	c-0.1,0.1-0.2,0.3-0.1,0.3c0,0,0.1,0,0.2,0c0.1,0,0.1,0.1,0.2,0.1l0.8,0.5c0,0,0.1,0.1,0.2,0.1c0.1,0.1,0.2,0.2,0.2,0.2
	c0,0,0.1-0.1,0.1-0.2c0.1-0.1,0.1-0.2,0.1-0.2s-0.1,0-0.3-0.1c-0.1,0-0.2-0.1-0.2-0.1l-0.6-0.3c-0.1-0.1-0.2-0.3-0.1-0.4l0.2-0.4
	c0.1-0.2,0.2-0.2,0.4-0.2c0.1,0.1,0.1,0.2,0,0.4l-0.1,0.2c0,0,0,0,0,0.1c0,0-0.1,0.1-0.1,0.1c0,0,0,0.1,0.1,0.2
	c0.1,0.1,0.1,0.1,0.2,0c0.1-0.1,0.2-0.2,0.4-0.2l0.3,0c0.1,0,0.3,0,0.5-0.3c0,0,0-0.1,0-0.1c0-0.1,0-0.1,0-0.1c0,0-0.1,0-0.3,0.1
	c-0.2,0-0.3,0-0.4,0L32.1,27.3L32.1,27.3z M33.5,25.1c0,0.2-0.1,0.4-0.2,0.6l-0.1,0.2c0,0.1-0.2,0.1-0.3,0.1c-0.1,0-0.2-0.2-0.2-0.3
	l0.1-0.2c0-0.1,0.1-0.1,0.1-0.2c0.1-0.1,0.1-0.2,0.1-0.2c0,0-0.1-0.1-0.1-0.2c-0.1-0.1-0.2,0-0.2,0.1l-0.1,0.4
	c-0.1,0.2-0.2,0.2-0.3,0.2c-0.1,0-0.2-0.2-0.1-0.3l0.1-0.2c0-0.1,0.1-0.2,0.1-0.3c0.1-0.1,0.2-0.2,0.2-0.2c0,0-0.1,0-0.2,0
	c-0.1,0-0.3,0.1-0.3,0.3l-0.3,0.8c-0.1,0.2-0.1,0.3-0.1,0.3c0,0,0.1,0,0.2,0c0.1,0,0.1,0,0.2,0.1l0.8,0.3c0,0,0.2,0.1,0.3,0.1
	c0.1,0.1,0.2,0.2,0.2,0.2c0,0,0.1-0.1,0.1-0.3l0.3-0.8c0.1-0.2,0-0.4,0-0.5c-0.1-0.1-0.1-0.2-0.1-0.2C33.5,24.7,33.5,24.9,33.5,25.1
	L33.5,25.1z M27.6,12.3c-0.1-0.1-0.3-0.2-0.5-0.2c-0.2,0-0.4,0.1-0.5,0.2l0,0c-0.2,0.2-0.2,0.4-0.1,0.7c0.1,0.2,0.4,0.4,0.6,0.3l0,0
	c0.1,0,0.2-0.1,0.2-0.2c0-0.1-0.1-0.2-0.2-0.2l0,0c-0.1,0-0.2,0-0.2-0.1c0,0-0.1-0.1,0-0.2c0.1-0.1,0.2-0.1,0.2-0.1
	c0.1,0,0.2,0.1,0.3,0.1c1.9,2.1,3,4.9,2.9,7.8c-0.1,2.9-1.2,5.6-3.3,7.7c-2.1,2.1-4.9,3.3-7.9,3.3c-2,0-3.8-0.5-5.5-1.4
	c-0.2-0.1-0.2-0.4-0.1-0.5c0.1-0.1,0.2-0.2,0.4-0.3c0.9-0.6,2-0.8,2.9-0.9c0.4,0,0.8-0.1,1.2-0.1c0.3,0,0.6-0.1,0.9-0.1
	c0,0,0,0,0.1,0c0-0.3-0.2-0.5-0.5-0.6c-1.3-0.3-2.3-1-2.8-1.8c0,0,0-0.1,0-0.1c0,0,0,0,0.1,0c0.1,0,0.1,0,0.2,0c0.1,0,0.1,0,0.2,0
	c0.1,0,0.2,0,0.3,0c0.5-0.1,0.9-0.2,1.4-0.5c0.1-0.1,0.3-0.2,0.4-0.3c0.1-0.1,0.2-0.1,0.3-0.2c0.1-0.1,0.2-0.1,0.3-0.1
	c0.2,0,0.3,0.1,0.4,0.2c0.1,0.2,0.2,0.4,0.2,0.6l0,3.3c0,0,0,0.1,0,0.1c0,0,0,0-0.1,0c0,0,0,0,0,0c-0.1,0-0.2,0-0.4,0
	c-0.3,0-0.5,0.1-0.6,0.2c0.3,0.1,0.5,0.3,0.7,0.6c0.2,0.4,0.4,0.8,0.4,1.3c0,0,0,0.1,0.1,0.1c0,0,0,0,0,0c0,0,0,0,0,0l0-2.5
	c0-0.1,0-0.3,0.2-0.3c1.5-0.2,2.8-0.9,3.9-2c1.4-1.5,1.9-3.2,1.7-5.2c-0.2-1.5-0.8-2.8-1.9-3.9c0,0,0,0-0.1-0.1c0,0,0,0,0,0
	c0,0,0,0,0-0.1c0,0,0,0,0-0.1c0.3-0.2,0.5-0.5,0.4-0.8c0-0.1-0.1-0.1-0.1-0.1c0,0,0,0-0.1,0c-0.2,0.1-0.4,0.1-0.7,0.1
	c0,0-0.1,0-0.1,0c-0.5,0-1.1-0.2-1.5-0.4c-1.3-0.5-2.1-1.3-2.5-2.4c-0.3-0.9-0.3-1.6,0.2-2.3c0,0,0-0.1,0-0.1c0-0.4,0-0.7,0-1.1V9.5
	c0,0-0.1,0-0.1,0.1c-0.2,0.1-0.3,0.2-0.5,0.2c-0.7,0.4-1.4,0.6-2.1,0.6c-0.1,0-0.1,0-0.2,0c-0.4,0-0.9-0.2-1.1-0.5
	c0,0-0.1-0.1-0.1-0.1c-0.1,0-0.1,0-0.2,0c-0.1,0-0.1,0.1-0.1,0.2c0,0.1,0,0.1,0.1,0.2c0.4,0.3,0.8,0.4,1.4,0.4c0.1,0,0.2,0,0.3,0
	c0.1,0,0.3,0,0.4,0c0,0,0,0,0,0c0.1,0,0.3,0.1,0.4,0.2c0.1,0.1,0.1,0.2,0.1,0.4c-0.4,1.1-0.2,2.3,0.6,3.4c0.1,0.2,0.1,0.5-0.1,0.6
	c0,0-0.1,0.1-0.1,0.1c0,0.1,0,0.2,0,0.3c0,0.1,0,0.1,0,0.2c0,0,0,0.1-0.1,0.1c-0.5,0.1-0.8,0.3-1,0.6c-0.2,0.2-0.2,0.6-0.1,0.9
	c0,0,0,0,0.1,0c0,0,0,0,0,0c0.2-0.2,0.4-0.4,0.7-0.6c0.6-0.3,1.3-0.5,2-0.5h0c0.1,0,0.2,0.1,0.2,0.2v2.4c0,0,0,0.1,0.1,0.1
	c0,0,0.1,0,0.1-0.1v-2.5c0,0,0,0,0-0.1c0,0,0,0,0.1,0c0,0,0,0,0,0c0.7,0.1,1.4,0.3,1.9,0.8c1.1,0.9,1.8,2.1,2,3.6
	c0.2,1.8-0.2,3.5-1.3,5.1c-0.6,0.8-1.2,1.3-2,1.6c-0.1,0-0.2,0.1-0.4,0.1c0,0-0.1,0-0.1,0c-0.1,0-0.1,0-0.2-0.1
	c-0.1-0.1-0.1-0.1-0.1-0.2v-0.7c0-1.1,0-2.1,0-3.2c0,0,0-0.1,0-0.1l0,0c-0.1,0-0.1,0-0.1,0.1c-0.1,0.1-0.2,0.3-0.3,0.4
	c-0.1,0.1-0.2,0.2-0.2,0.3c-0.3,0.3-0.6,0.7-1.1,1c-0.3,0.2-0.6,0.3-1,0.3c-0.1,0-0.3,0-0.4,0c-0.7-0.2-1.1-0.6-1-1.2
	c0-0.3,0.2-0.5,0.4-0.7c-0.1,0-0.1,0-0.2,0c-0.3,0-0.5,0.2-0.8,0.5c0,0,0,0-0.1,0c0,0,0,0,0,0c0,0,0,0-0.1,0c0,0,0,0-0.1-0.1
	c-0.2-0.7-0.5-1.6-0.3-2.5c0.2-1.1,1-1.9,2.1-2.1c0.1,0,0.2,0,0.4,0c0.5,0,1,0.2,1.4,0.6c0.2,0.2,0.3,0.5,0.3,0.9
	c0,0.3-0.2,0.6-0.4,0.8c-0.2,0.2-0.5,0.3-0.8,0.3c-0.3,0-0.7-0.1-0.9-0.3c0,0.6,0.5,1.3,1.2,1.5c0.2,0.1,0.5,0.1,0.7,0.1
	c0.5,0,1-0.2,1.4-0.6c0.9-0.9,0.9-2.2,0.2-3c-0.1,0.1-0.2,0.1-0.3,0.1c-0.1,0-0.1,0-0.2,0c-0.2-0.1-0.3-0.2-0.3-0.5c0,0,0-0.1,0-0.1
	c0,0,0-0.1,0-0.1c0-0.1,0-0.1-0.1-0.1c-0.1,0-0.2-0.1-0.3-0.1c-0.2-0.1-0.3-0.1-0.5-0.2c-0.3-0.1-0.7-0.1-1-0.1
	c-0.5,0-0.9,0.1-1.3,0.3c0,0.3-0.1,0.5-0.3,0.5c0,0-0.1,0-0.1,0c-0.2,0-0.4-0.1-0.4-0.3c0-0.1-0.1-0.2,0-0.3
	c0.1-0.1,0.2-0.2,0.3-0.2c0,0,0,0,0.1-0.1c-0.1-0.4-0.6-0.6-1-0.6c-0.1,0-0.2,0-0.2,0c0,0,0,0,0,0c0,0,0,0,0,0l0,0
	c0.3,0.4,0.4,0.9,0.4,1.4c0,1.1-0.5,2-1.5,2.6c-0.1,0.1-0.1,0.1-0.1,0.2c0,0.1,0,0.2,0,0.3c0,0.2,0,0.4,0.1,0.5
	c0.1,1,0.5,1.9,1.1,2.8c0.3,0.4,0.4,0.9,0.4,1.5c0,0.1,0,0.1,0.1,0.2c0.3,0.1,0.5,0.4,0.4,0.7c-0.1,0.2-0.3,0.4-0.6,0.4
	c0,0-0.1,0-0.1,0c0,0,0,0,0,0c-0.1,0-0.1,0-0.2,0.1c-0.2,0.4-0.5,0.8-0.8,1.2c0,0,0,0-0.1,0.1c-0.1,0.1-0.3,0.2-0.4,0.1
	c-0.6-0.4-1.2-0.9-1.7-1.4C9,26,7.8,23.3,7.7,20.4c-0.1-2.9,1-5.7,2.9-7.8c0.1-0.1,0.1-0.1,0.2-0.1c0.1,0,0.2,0,0.3,0.1
	c0.1,0.1,0.1,0.2,0,0.2c0,0.1-0.1,0.1-0.2,0.1l0,0c-0.1,0-0.2,0-0.2,0.1c0,0.1,0,0.2,0.2,0.2l0,0c0.3,0,0.5-0.1,0.6-0.3
	c0.1-0.2,0.1-0.5-0.1-0.7c0,0,0,0,0,0c-0.1-0.1-0.3-0.2-0.5-0.2c-0.2,0-0.4,0.1-0.5,0.2c-2,2.2-3.1,5.1-3,8.1c0.1,3,1.3,5.8,3.4,7.9
	c0.1,0.1,0.3,0.3,0.4,0.4c2.1,1.9,4.9,3,7.8,3s5.7-1.1,7.8-3c0.1-0.1,0.3-0.3,0.4-0.4c2.1-2.1,3.3-4.9,3.4-7.9
	C30.6,17.4,29.6,14.5,27.6,12.3L27.6,12.3z M19.2,13c0.1,0,0.1,0,0.2-0.1c0.1,0,0.1-0.1,0.1-0.2c0-0.1,0-0.1-0.1-0.2
	c-0.1-0.1-0.1-0.2-0.1-0.3c0-0.7,0-1.3,0-1.9c0-0.1,0.1-0.2,0.2-0.3c0.2-0.1,0.4-0.2,0.7-0.2c0.3,0,0.6,0.1,0.9,0.3
	c0.5,0.4,0.7,0.9,0.7,1.5c0,0.2,0,0.3-0.1,0.6c-0.1,0.2-0.2,0.3-0.5,0.4c0,0,0,0-0.1,0c-0.2,0-0.4-0.1-0.5-0.3
	c-0.1-0.1-0.1-0.3-0.2-0.4c0,0,0-0.1,0-0.1c-0.2,0.1-0.4,0.4-0.4,0.6c0,0.3,0.1,0.6,0.3,0.7c0.1,0.1,0.1,0.2,0.1,0.3
	c0,0.5,0.2,0.8,0.5,1.1c0,0,0,0,0,0h0l0-0.1c0.4-1.2,0.9-2.2,1.6-3.1c0.3-0.4,0.8-0.9,1.5-1.2c0,0,0-0.1,0-0.1c0,0,0,0-0.1-0.1
	c-0.1,0-0.2,0-0.3,0c-0.3,0-0.7,0.1-1,0.4c0,0,0,0-0.1,0c0,0,0,0-0.1,0l0,0c0,0,0-0.1,0-0.1l0.1-0.3c0,0,0,0,0,0c0,0,0,0,0,0
	c0,0-0.1,0-0.1,0c-0.4,0-0.7-0.1-0.9-0.2c-0.4-0.2-0.9-0.3-1.4-0.4c-0.2,0-0.3,0-0.5,0c-0.2,0-0.5,0-0.7,0.1v0.7c0,0.7,0,1.5,0,2.2
	c0,0.1,0,0.2-0.1,0.3c-0.1,0.1-0.1,0.1-0.1,0.2c0,0.1,0,0.1,0.1,0.2C19.1,13,19.1,13,19.2,13L19.2,13z M4.3,21.1
	c-0.3,0-0.5,0.2-0.5,0.5C3.8,21.8,4,22,4.3,22c0.3,0,0.5-0.2,0.5-0.5C4.8,21.3,4.6,21.1,4.3,21.1z M33.6,21.1
	c-0.3,0-0.5,0.2-0.5,0.5c0,0.3,0.2,0.5,0.5,0.5c0.3,0,0.5-0.2,0.5-0.5C34,21.3,33.8,21.1,33.6,21.1z"/>
</svg>
