<?xml version="1.0" encoding="UTF-8"?>
<svg id="Layer_1" xmlns="http://www.w3.org/2000/svg" version="1.1" viewBox="0 0 438 196">
  <!-- Generator: Adobe Illustrator 29.5.0, SVG Export Plug-In . SVG Version: 2.1.0 Build 137)  -->
  <defs>
    <style>
      .st0 {
        fill: #4f2c1d;
      }
    </style>
  </defs>
  <path class="st0" d="M312.06,73.809c-20.535-.032-36.534-16.221-36.487-36.933.039-20.256,16.243-36.329,36.595-36.308,20.13.022,36.337,16.494,36.301,36.897-.036,19.986-16.455,36.376-36.412,36.344h.003ZM286.886,37.121c.123,1.25.205,2.504.367,3.751,2.443,18.711,21.049,26.651,35.697,19.659,9.833-4.692,15.305-15.391,13.929-26.733-1.915-15.815-16.304-25.591-31.688-21.535-10.868,2.867-18.218,12.887-18.308,24.858h.003ZM383.304,48.405l-12.136,2.738s-.176,9.733.266,14.152c.211,2.127,1.512,4.146,2.324,6.223h-17.216c-.004-.018-.083-.154-.043-.201,2.5-3.154,3.215-6.776,3.197-10.735-.079-16.43-.039-32.859-.029-49.288,0-3.546-.959-6.801-2.841-9.801-.133-.212-.238-.442-.439-.826.586-.036,1.031-.09,1.477-.09,8.838-.004,17.68-.004,26.518,0,5.856,0,11.367,1.261,16.145,4.796,6.435,4.76,9.151,11.18,8.515,19.138-1.347,13.077-11.313,21.032-25.731,23.899l-.007-.004ZM371.089,39.495s11.23-2.842,16.803-4.25c8.335-2.105,10.997-10.379,9.373-16.016-1.38-4.786-5.346-7.663-10.81-7.728-4.786-.058-15.366.122-15.366.122v27.872ZM124.949,61.533c.021-17.044.018-34.088,0-51.131,0-3.334.812-6.395,2.723-9.151.133-.19.201-.428.32-.683h-17.817c2.638,3.277,3.338,6.862,3.32,10.757-.065,16.311-.075,32.618.007,48.929.022,4.002-.632,7.692-3.104,10.933-.032.043.051.176.076.248h17.708c-2.285-3.108-3.248-6.334-3.241-9.898l.008-.004ZM72.114.568c2.411,0,4.818.144,7.193.589,2.544.478,5.012,1.196,7.318,2.389,3.165,1.638,5.86,3.815,7.599,7.006,1.009,1.847,1.606,3.83,1.832,5.924.061.56.147,1.117.173,1.681.255,5.748-3.78,12.47-7.157,14.809,2.468.514,7.2,4.211,9.043,7.9.984,1.969,1.707,4.045,1.897,6.24.341,3.873.154,7.703-1.445,11.335-1.681,3.823-4.347,6.794-7.872,9.003-3.259,2.041-6.837,3.169-10.616,3.751-2.015.313-4.035.32-6.068.316h-30.29c-.004-.018-.083-.155-.043-.201,2.5-3.154,3.215-6.776,3.197-10.735-.079-16.43-.04-32.859-.029-49.288,0-3.546-.959-6.801-2.842-9.801-.133-.212-.237-.442-.438-.826.586-.036,1.031-.09,1.477-.09,8.838-.004,18.24-.004,27.082,0M58.322,33.417s13.056-3.169,17.96-4.678c6.611-2.034,9.657-7.088,8.349-11.622-1.11-3.848-4.3-6.161-8.694-6.215-3.848-.047-17.619.097-17.619.097v22.418h.004ZM58.322,60.646s13.767.144,17.619.097c6.855,0,11.191-3.506,12.301-7.354,1.308-4.534-.668-11.403-7.279-13.44-4.908-1.509-22.641,4.25-22.641,4.25v16.447ZM261.328,61.533c.025-17.04.018-34.084.007-51.131-.007-3.334.808-6.395,2.72-9.151.125-.19.194-.431.312-.683h-17.82c2.641,3.277,3.342,6.862,3.32,10.753-.032,8.292-.05,16.58-.05,24.865h-30.653c0-8.594-.007-17.188-.015-25.785-.007-3.334.809-6.395,2.72-9.151.14-.19.209-.431.327-.683h-17.813c2.634,3.277,3.334,6.862,3.32,10.753-.068,16.311-.075,32.618.007,48.929.018,4.002-.639,7.696-3.107,10.936-.033.043.05.176.075.248h17.712c-2.285-3.108-3.244-6.334-3.244-9.902.007-4.933.014-9.855.014-14.788h30.675c.007,4.502.025,9.003.043,13.505.018,4.002-.632,7.696-3.101,10.936-.032.043.051.176.076.248h17.705c-2.278-3.108-3.245-6.334-3.241-9.902h.011ZM142.883,66.469c1.441,0,2.681-.194,3.78.223,6.988,2.648,14.942,4.825,19.455,4.825,14.942,0,24.595-8.217,24.595-20.935,0-5.551-1.778-9.873-5.436-13.203-3.682-3.345-8.924-5.357-13.081-6.733-1.307-.431-2.662-.848-4.264-1.311l-1.046-.309c-4.304-1.236-12.333-3.546-12.333-10.157,0-2.332,1.167-7.8,11.981-8.22,5.54-.215,11.263,1.613,21.226,6.894V3.504c-.176-.065-.349,0-.553,0-1.858,0-3.898-.151-6.711-.927-3.859-1.063-8.645-2.008-13.8-2.008-14.407,0-23.712,7.947-23.712,20.245,0,11.083,7.128,15.711,17.831,19.243,1.444.463,2.813.873,4.426,1.34,6.952,2.03,12.438,3.629,12.438,10.171,0,5.791-4.25,9.266-11.364,9.291-1.279,0-11.741-1.822-23.439-9.406v15.017h.007ZM73.368,132.112c.039-20.407-16.164-36.879-36.301-36.901-20.367-.022-36.57,16.049-36.613,36.304-.043,19.419,14.015,34.864,32.69,36.743,5.066,18.229,29.083,28.099,62.596,26.687,13.929-.586,24.312-4.89,38.934-12.083,1.495-.736,2.831-1.031,4.628-1.031v-16.49c-7.312,10.12-27.316,18.014-47.78,18.617-17.708.525-35.762-4.57-46.245-16.472,16.002-3.776,28.052-18.262,28.081-35.374h.011ZM47.846,155.177c-14.647,6.991-33.258-.952-35.701-19.663-.158-1.243-.248-2.5-.366-3.751.09-11.971,7.437-21.991,18.312-24.858,15.38-4.052,29.769,5.72,31.684,21.539,1.376,11.338-4.099,22.041-13.929,26.733ZM240.957,138.417c.025-4.918,3.923-7.944,2.415-7.918h-16.074c-1.516-.026,2.414,3.018,2.414,7.965l.007-.008c-.007,1.136-.129,11.321-.082,15.413.01.873-.259,1.294-1.1,1.588-4.918,1.735-9.966,2.152-15.007.959-11.841-2.802-19.494-12.7-19.706-24.84-.24-13.943,11.141-26.632,26.019-25.72,5.518.338,14.601,5.037,18.369,9.093,2.778,2.896,2.745,2.461,2.745,1.312,0-5.407-.036-14.932.033-19.049.017-1.081-2.156,1.725-5.691,1.725s-13.588-5.238-23.536-3.302c-17.371,3.269-29.41,18.531-29.317,35.5.058,10.753,3.819,19.838,11.68,27.146,7.43,6.905,16.739,9.822,25.9,9.643,1.671.039,3.438-.144,5.184-.438,2.041-.299,4.053-.748,6.018-1.337,2.307-.589,4.2-1.096,5.22-1.096,2.821,0,4.552,2.239,4.538,1.376-.058-3.636-.032-24.61-.032-28.019l.003.007ZM332.086,105.964h24.334c5.098,0,7.663,1.354,9.326,1.94-.937-4.106-1.911-8.374-2.895-12.693h-46.382c3.133,3.765,3.535,7.796,3.517,12.043-.079,16.584-.047,33.164-.018,49.748,0,4.444-2.95,8.773-3.266,9.266h46.149c.984-4.319,1.958-8.587,2.895-12.693-1.663.589-4.228,1.94-9.326,1.94h-24.334v-19.43h14.148s9.133-.122,13.415,2.177v-15.434c-4.282,2.3-13.415,2.177-13.415,2.177h-14.148v-19.045.004ZM167.813,156.176c.022-17.044.018-34.088,0-51.132,0-3.334.812-6.395,2.724-9.15.132-.194.204-.428.323-.683h-17.816c2.637,3.277,3.337,6.862,3.319,10.757-.064,16.311-.075,32.618.007,48.929.022,4.002-.632,7.692-3.104,10.932-.032.043.051.176.076.248h17.708c-2.285-3.107-3.248-6.334-3.24-9.898l.003-.003ZM255.479,95.211c3.133,3.765,3.535,7.796,3.517,12.043-.079,16.584-.047,33.164-.018,49.748,0,4.444-2.949,8.773-3.266,9.266h46.149c.984-4.319,1.958-8.587,2.896-12.693-1.664.589-4.229,1.94-9.327,1.94h-24.341c.029-16.584.079-31.681,0-48.265-.021-4.246.385-8.277,3.518-12.043h-19.132l.004.004ZM138.684,95.211h-17.888c2.992,3.593,3.466,7.595,3.434,11.845-.1,11.493-.025,14.773-.05,26.267-.007,1.781-.076,3.574-.334,5.324-.625,4.175-3.564,10.275-13.886,10.275s-13.261-6.104-13.886-10.275c-.259-1.75-.327-3.543-.334-5.324-.025-11.494.05-14.774-.043-26.267-.036-4.25.442-8.252,3.427-11.845h-17.888c.234.402,3.133,5.569,3.133,9.535,0,12.488-.126,16.771.068,29.259.057,3.618.568,7.369,1.685,10.796,2.669,8.17,9.564,14.939,23.834,14.939s21.165-6.769,23.834-14.939c1.118-3.427,1.628-7.178,1.685-10.796.194-12.488.069-16.771.069-29.259,0-4.537,2.899-9.129,3.132-9.535h.008ZM418.25,95.211c.751,3.33-.291,7.516-1.839,10.207l-10.089,21.959-10.088-21.959c-1.548-2.695-2.587-6.88-1.839-10.207h-19.444c.567.446,7.059,6.327,9.061,9.567l16.217,33.678c-.029,7.049-.004,5.616.022,18.323,0,4.444-2.95,8.77-3.266,9.269h18.664c-.316-.499-3.266-4.825-3.266-9.269h-.014v-18.251l16.253-33.75c2.001-3.237,8.493-9.118,9.061-9.567h-19.444.011Z"/>
</svg>