<svg width="264" height="196" viewBox="0 0 264 196" fill="none" xmlns="http://www.w3.org/2000/svg">
<g clip-path="url(#clip0_2024_669)">
<mask id="mask0_2024_669" style="mask-type:luminance" maskUnits="userSpaceOnUse" x="0" y="0" width="264" height="196">
<path d="M264 0.015625H0V195.985H264V0.015625Z" fill="white"/>
</mask>
<g mask="url(#mask0_2024_669)">
<path d="M179.111 169.965C176.169 165.459 172.722 160.171 169.321 154.911C168.138 153.08 166.945 151.214 165.79 149.408C163.872 146.407 161.888 143.303 159.896 140.276C159.511 139.689 159.425 139.172 159.407 138.479C159.388 137.753 159.334 137.022 159.246 136.31C159.129 135.408 159.666 134.86 160.235 134.281C160.364 134.15 160.496 134.015 160.619 133.877C160.803 133.671 160.996 133.466 161.181 133.268C161.971 132.427 162.787 131.557 163.166 130.368C163.231 130.156 163.271 129.937 163.31 129.725C163.367 129.417 163.421 129.126 163.543 128.873C163.921 128.094 164.371 127.327 164.806 126.586L165.056 126.158C165.958 124.6 166.798 122.72 166.179 120.571C165.65 118.736 164.185 117.622 162.258 117.59C161.997 117.586 161.738 117.585 161.474 117.585C161.211 117.585 160.958 117.585 160.693 117.588C160.504 117.588 160.313 117.589 160.117 117.59C160.27 116.976 160.422 116.369 160.572 115.768C160.896 114.48 161.202 113.264 161.496 112.022C161.884 110.369 162.283 108.661 162.589 106.925C162.732 106.115 163.263 105.732 163.879 105.288L164.026 105.181C165.753 103.932 167.816 102.135 168.444 99.2974C168.648 98.3815 168.641 97.4181 168.632 96.4868V96.2261C168.611 94.765 168.539 93.4405 168.412 92.1746C168.345 91.5291 168.287 90.8697 168.23 90.2311C168.055 88.2681 167.875 86.2382 167.436 84.2933C166.344 79.4514 164.321 75.3999 161.423 72.2505C161.355 72.1766 161.287 72.1027 161.218 72.0288C170.994 77.2486 179.251 84.9653 185.155 94.4123C191.455 104.496 194.786 116.15 194.786 128.115C194.786 143.528 189.22 158.378 179.108 169.961" fill="#A77819"/>
<path d="M162.186 72.7956C171.467 77.9819 179.315 85.4533 184.984 94.5266C191.263 104.577 194.583 116.192 194.583 128.118C194.583 135.975 193.164 143.646 190.365 150.915C187.728 157.765 183.952 164.055 179.137 169.618C176.228 165.161 172.839 159.964 169.498 154.794C168.315 152.963 167.122 151.097 165.967 149.29C164.049 146.288 162.065 143.186 160.073 140.156C159.714 139.611 159.635 139.125 159.618 138.471C159.6 137.738 159.546 137 159.456 136.278C159.352 135.478 159.832 134.99 160.387 134.424C160.517 134.291 160.652 134.155 160.778 134.011C160.96 133.807 161.152 133.602 161.336 133.406C162.141 132.548 162.974 131.66 163.369 130.422C163.437 130.201 163.479 129.976 163.519 129.759C163.573 129.465 163.625 129.187 163.734 128.961C164.109 128.189 164.556 127.426 164.989 126.687C165.072 126.545 165.155 126.403 165.24 126.259C166.164 124.664 167.023 122.735 166.382 120.51C165.827 118.582 164.288 117.412 162.265 117.378C162.026 117.374 161.776 117.373 161.478 117.373C161.22 117.373 160.96 117.373 160.695 117.376C160.594 117.376 160.491 117.376 160.387 117.377C160.517 116.853 160.648 116.334 160.777 115.82C161.102 114.53 161.407 113.312 161.703 112.067C162.09 110.412 162.491 108.7 162.798 106.958C162.927 106.232 163.426 105.871 164.004 105.454C164.053 105.418 164.102 105.383 164.151 105.348C167.496 102.929 168.312 100.866 168.651 99.3406C168.861 98.401 168.854 97.4251 168.845 96.4812V96.2177C168.825 94.7524 168.752 93.421 168.623 92.1481C168.557 91.504 168.498 90.8459 168.442 90.2088C168.265 88.2388 168.085 86.2034 167.644 84.2445C166.621 79.7093 164.785 75.8614 162.184 72.7914M160.177 71.248C160.555 71.6273 160.914 71.9995 161.274 72.3913C164.385 75.7707 166.235 79.8975 167.237 84.3379C167.814 86.9018 167.938 89.5717 168.21 92.1941C168.346 93.5325 168.41 94.8821 168.428 96.2261C168.433 97.2327 168.464 98.2741 168.244 99.2514C167.678 101.808 165.946 103.537 163.908 105.012C163.242 105.497 162.559 105.924 162.388 106.889C162.087 108.594 161.693 110.286 161.299 111.975C160.845 113.886 160.35 115.799 159.856 117.8C160.422 117.8 160.956 117.794 161.479 117.794C161.741 117.794 162.001 117.794 162.259 117.8C164.062 117.829 165.476 118.87 165.984 120.63C166.556 122.612 165.86 124.365 164.882 126.052C164.357 126.951 163.816 127.846 163.362 128.781C163.139 129.243 163.126 129.806 162.974 130.302C162.52 131.723 161.418 132.67 160.469 133.736C159.808 134.477 158.884 135.11 159.042 136.335C159.131 137.045 159.184 137.767 159.202 138.483C159.22 139.171 159.302 139.744 159.726 140.389C162.914 145.238 166.002 150.151 169.149 155.023C172.449 160.125 175.766 165.217 179.09 170.308C188.983 159.073 195 144.297 195 128.118C195 103.272 180.841 81.7476 160.182 71.2522" fill="#A77819"/>
<path d="M131.621 71.8754C131.524 71.761 131.426 71.6481 131.324 71.5338C131.001 71.1629 130.678 70.7865 130.354 70.4101C130.132 70.1522 129.91 69.8928 129.688 69.6363C129.688 69.6363 129.687 69.6349 129.686 69.6335C130.196 69.0577 130.71 68.4666 131.208 67.895L131.62 67.4224C132.24 68.1501 132.894 68.9086 133.556 69.6726C133.22 70.0532 132.89 70.4296 132.56 70.806C132.247 71.1629 131.935 71.5184 131.621 71.8754Z" fill="#A77819"/>
<path d="M131.619 67.7418C132.158 68.3734 132.715 69.0203 133.28 69.6713C132.987 70.0032 132.697 70.335 132.405 70.6668C132.146 70.9637 131.885 71.2607 131.624 71.5577C131.577 71.5033 131.53 71.4503 131.483 71.3973C131.158 71.0251 130.829 70.6417 130.511 70.2708C130.329 70.0589 130.146 69.8456 129.964 69.6337C130.432 69.1053 130.901 68.5658 131.356 68.0429L131.62 67.7404L131.619 67.7418ZM131.621 67.1562C131.592 67.1562 131.562 67.1758 131.523 67.2162C130.857 67.9802 130.191 68.7498 129.519 69.5068C129.425 69.6142 129.443 69.6783 129.531 69.7731C130.08 70.4061 130.622 71.046 131.169 71.6734C131.316 71.8393 131.458 72.0052 131.599 72.1711C131.641 72.1474 131.67 72.1418 131.681 72.1237C132.376 71.336 133.061 70.5497 133.756 69.762C133.821 69.6909 133.797 69.6379 133.745 69.5724C133.067 68.7916 132.389 68.0039 131.717 67.2162C131.681 67.1772 131.652 67.1562 131.62 67.1562" fill="#A77819"/>
<path d="M156.62 112.05C156.261 111.817 155.91 111.58 155.567 111.35C154.64 110.727 153.764 110.138 152.812 109.652C146.587 106.472 139.369 104.79 131.939 104.79C124.509 104.79 116.83 106.516 110.693 109.652C109.742 110.137 108.867 110.727 107.938 111.35C107.595 111.58 107.243 111.817 106.885 112.05C106.838 111.85 106.789 111.648 106.739 111.446C106.535 110.598 106.324 109.722 106.129 108.84C105.983 108.192 105.847 107.531 105.715 106.891C105.542 106.053 105.363 105.186 105.161 104.337C105.042 103.845 105.152 103.614 105.651 103.303C110.261 100.449 115.385 98.4859 121.316 97.3036C125.252 96.5187 128.72 96.1367 131.92 96.1367C135.804 96.1367 139.151 96.6972 142.189 97.3036C148.119 98.4859 153.244 100.449 157.854 103.303C158.354 103.614 158.465 103.845 158.344 104.336C158.13 105.235 157.942 106.152 157.757 107.041C157.635 107.63 157.509 108.241 157.377 108.839C157.181 109.722 156.969 110.601 156.765 111.452C156.716 111.652 156.669 111.852 156.622 112.048" fill="#A77819"/>
<path d="M131.92 96.3475C135.786 96.3475 139.121 96.9065 142.148 97.5102C148.053 98.6883 153.155 100.642 157.743 103.483C158.164 103.744 158.237 103.894 158.14 104.291C157.926 105.192 157.736 106.112 157.552 107.002C157.43 107.591 157.303 108.201 157.172 108.797C156.976 109.677 156.765 110.555 156.561 111.403C156.536 111.508 156.511 111.612 156.486 111.715C156.213 111.536 155.943 111.356 155.681 111.179C154.749 110.553 153.867 109.96 152.906 109.468C146.651 106.273 139.4 104.584 131.938 104.583C124.342 104.583 116.763 106.317 110.597 109.468C109.636 109.96 108.754 110.551 107.822 111.179C107.558 111.356 107.29 111.536 107.017 111.715C106.992 111.611 106.967 111.508 106.942 111.402C106.738 110.554 106.527 109.677 106.331 108.796C106.187 108.151 106.05 107.491 105.918 106.853C105.744 106.013 105.565 105.143 105.363 104.29C105.267 103.896 105.34 103.745 105.76 103.484C110.349 100.643 115.45 98.6897 121.355 97.5116C125.277 96.7295 128.732 96.3488 131.919 96.3488L131.92 96.3475ZM131.92 95.9292C128.85 95.9292 125.45 96.2666 121.276 97.1003C115.696 98.2129 110.41 100.113 105.543 103.127C105.019 103.454 104.806 103.76 104.96 104.388C105.314 105.879 105.59 107.389 105.926 108.887C106.191 110.083 106.485 111.272 106.752 112.385C108.155 111.491 109.409 110.543 110.789 109.839C116.627 106.857 124.096 105 131.941 105C138.863 105 146.078 106.445 152.72 109.839C154.099 110.543 155.354 111.491 156.757 112.385C157.022 111.272 157.316 110.081 157.581 108.887C157.911 107.389 158.194 105.879 158.547 104.388C158.699 103.76 158.489 103.452 157.964 103.127C153.097 100.115 147.811 98.2142 142.231 97.1003C138.76 96.4088 135.575 95.9292 131.921 95.9292" fill="#A77819"/>
<path d="M175.858 173.707C164.468 184.872 148.911 191.763 131.753 191.811C114.588 191.763 99.0313 184.873 87.6406 173.707C87.6698 173.642 87.6823 173.601 87.6823 173.601C94.0465 163.715 100.427 153.811 106.81 143.901C106.928 143.931 107.04 143.949 107.158 143.972C107.158 145.269 107.1 146.571 107.169 147.862C107.258 149.472 107.935 150.888 108.772 152.243C108.937 152.515 109.126 152.87 109.102 153.173C108.425 161.632 112.538 167.705 119.026 172.259C121.931 174.301 124.023 176.835 125.973 179.641C127.694 182.116 131.17 187.763 131.754 187.763C132.339 187.763 135.815 182.116 137.534 179.641C139.484 176.835 141.571 174.301 144.476 172.259C150.969 167.707 155.082 161.632 154.405 153.173C154.382 152.87 154.57 152.516 154.741 152.243C155.572 150.888 156.244 149.472 156.338 147.862C156.409 146.571 156.35 145.269 156.35 143.972C156.467 143.949 156.58 143.931 156.698 143.901C163.08 153.811 169.455 163.715 175.825 173.601C175.825 173.601 175.836 173.643 175.861 173.707" fill="#0E2300"/>
<path d="M84.3932 169.966C74.2821 158.381 68.7158 143.532 68.7158 128.119C68.7158 116.155 72.0464 104.499 78.3468 94.4167C84.2489 84.9698 92.506 77.2545 102.281 72.0347C102.213 72.1086 102.145 72.1811 102.077 72.2549C99.1742 75.403 97.1508 79.4545 96.0656 84.2964C95.6298 86.2483 95.448 88.2852 95.2704 90.2537C95.2135 90.8853 95.1552 91.5378 95.0886 92.1763C94.9582 93.4087 94.8888 94.7346 94.8749 96.2278V96.2905C94.8555 97.2887 94.8374 98.3204 95.0567 99.3005C95.6853 102.143 97.7448 103.938 99.4697 105.184L99.6113 105.286C100.233 105.73 100.769 106.114 100.913 106.928C101.218 108.661 101.618 110.372 102.005 112.024C102.33 113.391 102.669 114.735 103.028 116.157C103.147 116.631 103.268 117.11 103.39 117.592C103.193 117.592 103 117.591 102.81 117.589C102.545 117.589 102.285 117.587 102.029 117.587C101.772 117.587 101.506 117.588 101.245 117.592C99.3213 117.624 97.853 118.738 97.3173 120.571C96.704 122.723 97.5436 124.602 98.4456 126.158L98.6954 126.585C99.1311 127.326 99.5808 128.093 99.9596 128.874C100.079 129.119 100.132 129.405 100.187 129.706C100.227 129.925 100.269 130.149 100.338 130.367C100.719 131.556 101.535 132.426 102.323 133.267C102.509 133.465 102.702 133.671 102.885 133.876C103.009 134.014 103.142 134.149 103.269 134.28C103.838 134.859 104.377 135.407 104.259 136.309C104.177 136.966 104.124 137.675 104.098 138.478C104.074 139.175 103.985 139.694 103.602 140.277C101.647 143.255 99.6973 146.308 97.81 149.259C96.6249 151.114 95.3995 153.032 94.1852 154.911C90.7838 160.172 87.3367 165.46 84.3946 169.966" fill="#A77819"/>
<path d="M101.318 72.7972C98.7118 75.8685 96.8772 79.7165 95.8599 84.2503C95.4214 86.2147 95.2382 88.2586 95.0606 90.2355C95.0037 90.8657 94.9454 91.5181 94.8802 92.1539C94.7484 93.3947 94.679 94.7261 94.6665 96.2221V96.2862C94.6471 97.297 94.629 98.3412 94.8524 99.345C95.1911 100.874 96.0071 102.939 99.3474 105.354C99.3945 105.387 99.4417 105.422 99.4889 105.456C100.097 105.891 100.577 106.235 100.707 106.964C101.014 108.704 101.415 110.416 101.802 112.074C102.127 113.443 102.467 114.786 102.826 116.209C102.925 116.598 103.024 116.988 103.122 117.383C103.017 117.383 102.914 117.383 102.81 117.381C102.545 117.381 102.284 117.379 102.027 117.379C101.729 117.379 101.479 117.38 101.24 117.384C99.2211 117.418 97.6793 118.587 97.1173 120.517C96.483 122.742 97.3421 124.672 98.2663 126.267C98.3496 126.409 98.4328 126.551 98.5161 126.693C98.9491 127.431 99.3973 128.195 99.772 128.967C99.8789 129.187 99.9288 129.459 99.9816 129.746C100.023 129.971 100.065 130.204 100.138 130.434C100.533 131.668 101.365 132.554 102.17 133.413C102.356 133.611 102.548 133.815 102.729 134.02C102.856 134.162 102.99 134.298 103.121 134.431C103.676 134.995 104.156 135.485 104.052 136.286C103.97 136.95 103.916 137.665 103.889 138.473C103.866 139.149 103.785 139.619 103.427 140.162C101.472 143.142 99.5222 146.193 97.6349 149.145C96.4497 151.001 95.223 152.919 94.0087 154.798C90.6656 159.968 87.2781 165.165 84.3694 169.623C79.5539 164.058 75.7764 157.769 73.1411 150.92C70.3434 143.65 68.9237 135.98 68.9237 128.122C68.9237 116.196 72.2432 104.58 78.5228 94.531C84.1917 85.4591 92.0381 77.9877 101.319 72.8014M103.327 71.2566C82.668 81.752 68.5088 103.277 68.5088 128.122C68.5088 144.302 74.5247 159.077 84.4179 170.313C87.7416 165.221 91.0583 160.131 94.3584 155.027C97.5044 150.156 100.592 145.241 103.774 140.394C104.199 139.748 104.281 139.174 104.304 138.488C104.328 137.771 104.375 137.049 104.464 136.339C104.624 135.114 103.698 134.481 103.037 133.741C102.088 132.676 100.986 131.728 100.533 130.307C100.373 129.809 100.367 129.247 100.144 128.786C99.6901 127.85 99.1475 126.957 98.623 126.056C97.6446 124.369 96.9493 122.617 97.5155 120.634C98.0276 118.876 99.4417 117.835 101.246 117.804C101.505 117.8 101.765 117.798 102.026 117.798C102.55 117.798 103.086 117.804 103.655 117.804C103.154 115.803 102.659 113.89 102.205 111.979C101.811 110.292 101.415 108.598 101.115 106.893C100.945 105.928 100.261 105.502 99.5888 105.017C97.5502 103.543 95.8239 101.814 95.2577 99.2558C95.0398 98.2785 95.0634 97.237 95.0814 96.2305C95.0939 94.8865 95.1522 93.5369 95.2937 92.1985C95.5644 89.5761 95.6948 86.9062 96.2666 84.3423C97.263 79.9019 99.1128 75.7765 102.23 72.3957C102.584 72.0053 102.954 71.6317 103.326 71.2524" fill="#A77819"/>
<path d="M163.925 98.5612C160.048 96.2762 156.105 94.5237 151.928 93.4585C148.528 92.5886 141.204 91.1791 135.865 90.0428C135.883 89.9843 135.883 89.9132 135.87 89.8184C135.829 89.5465 135.771 89.2802 135.711 89.0069C135.622 88.5692 135.535 88.1244 135.446 87.6867C135.357 87.2433 135.257 86.8041 135.168 86.3608C135.074 85.8938 134.985 85.4142 134.892 84.9401C134.798 84.4787 134.709 84.0172 134.621 83.5543C134.527 83.0455 134.433 82.5366 134.338 82.0333C134.268 81.6136 134.191 81.2051 134.12 80.7897C134.044 80.3282 133.968 79.8667 133.897 79.4039C133.832 79.0247 133.785 78.6468 133.721 78.2676C133.697 78.1491 133.744 78.1017 133.85 78.078C134.669 77.8535 135.435 77.5092 136.148 77.0477C137.863 75.9463 139.053 74.4253 139.742 72.5013C139.819 72.2769 139.819 72.2824 140.036 72.3173C140.472 72.394 140.908 72.4776 141.345 72.5487C142.158 72.6784 142.972 72.8206 143.779 72.9391C144.01 72.9739 144.239 72.9628 144.469 72.9572C144.605 72.9516 144.716 72.875 144.752 72.7383C144.787 72.585 144.805 72.4302 144.81 72.2713L144.845 66.5705C144.845 66.4283 144.827 66.2861 144.798 66.1509C144.745 65.8372 144.622 65.7479 144.309 65.7898C143.554 65.879 142.819 66.0616 142.088 66.2694C141.369 66.4701 140.65 66.689 139.937 66.9093C139.837 66.9455 139.795 66.9204 139.76 66.8201C139.454 65.8846 138.989 65.0258 138.388 64.2506C137.575 63.1966 136.585 62.374 135.407 61.7815C135.106 61.6337 134.794 61.5152 134.494 61.3786C134.441 61.3549 134.358 61.3493 134.388 61.2489C134.459 61.0119 134.524 60.7805 134.588 60.5505C134.748 59.9886 134.906 59.4309 135.071 58.8691C135.242 58.2598 135.425 57.6436 135.596 57.0344C135.619 56.9451 135.643 56.8559 135.666 56.7681C139.008 59.3543 149.52 67.4823 151.936 69.5136C154.169 71.3846 156.451 73.1956 158.265 75.5169C161.746 79.9922 163.456 85.1074 163.786 90.7315C163.839 91.5834 163.875 97.563 163.928 98.564" fill="#E6E6DE"/>
<path d="M129.324 78.2384C129.253 78.7291 129.188 79.2213 129.112 79.712C129.03 80.2739 128.929 80.8302 128.836 81.3878C128.747 81.9204 128.652 82.4474 128.558 82.98C128.453 83.5418 128.34 84.0995 128.24 84.6614C128.151 85.1465 128.064 85.6261 127.97 86.1113C127.864 86.6857 127.752 87.2601 127.645 87.8275C127.545 88.3657 127.451 88.9052 127.356 89.4434C127.333 89.5911 127.309 89.7389 127.304 89.8937C127.304 89.9467 127.309 89.9941 127.322 90.0359C122.012 91.1721 114.989 92.5872 111.576 93.4572C107.392 94.5223 103.456 96.2748 99.5791 98.5599C99.6263 97.5589 99.6679 91.5806 99.7207 90.7274C100.051 85.1033 101.759 79.9881 105.243 75.5128C107.058 73.1929 109.332 71.3804 111.571 69.5095C113.903 67.5507 123.78 59.9008 127.469 57.0483C127.652 57.7942 127.846 58.5345 128.028 59.2748C128.193 59.9259 128.353 60.577 128.511 61.2281C128.534 61.3103 128.523 61.3522 128.435 61.3884C127.533 61.7258 126.703 62.1998 125.953 62.8146C124.668 63.8742 123.755 65.1889 123.207 66.7629C123.165 66.9052 123.136 66.9289 122.977 66.8759C122.417 66.7155 121.857 66.5496 121.297 66.3963C120.702 66.2304 120.101 66.0645 119.5 65.9111C119.277 65.8525 119.046 65.7926 118.816 65.7689C118.486 65.7215 118.273 65.8581 118.186 66.1774C118.139 66.3377 118.121 66.5092 118.121 66.6751C118.115 68.6702 118.115 70.6708 118.11 72.6715C118.11 72.9433 118.157 72.9977 118.433 73.0144H118.593C119.448 73.02 120.29 72.8666 121.127 72.73C121.78 72.6241 122.428 72.4986 123.076 72.3801C123.153 72.3675 123.176 72.3982 123.2 72.4693C123.465 73.2333 123.819 73.9555 124.289 74.6247C125.52 76.3827 127.17 77.5427 129.233 78.1171C129.309 78.1352 129.332 78.1645 129.321 78.2356" fill="#E6E6DE"/>
<path d="M108.271 125.036C106.374 127.125 105.913 129.595 105.944 132.264C105.949 132.501 105.914 132.744 105.896 132.975C105.808 133.017 105.726 133.058 105.642 133.094C104.782 132.153 103.874 131.247 103.079 130.258C102.201 129.175 102.208 127.889 102.596 126.6C100.864 125.701 100.269 124.067 99.7556 122.433C99.4322 121.402 100.168 120.42 101.235 120.385C102.956 120.326 104.677 120.361 106.39 120.355C106.485 120.355 106.585 120.35 106.674 120.379C108.1 120.877 109.249 123.955 108.271 125.038" fill="#E6E6DE"/>
<path d="M163.755 122.43C163.236 124.064 162.641 125.698 160.909 126.597C161.297 127.888 161.303 129.172 160.426 130.255C159.625 131.244 158.723 132.15 157.863 133.091C157.781 133.055 157.698 133.014 157.609 132.972C157.591 132.741 157.556 132.498 157.562 132.261C157.585 129.591 157.131 127.122 155.234 125.033C154.256 123.949 155.405 120.871 156.832 120.373C156.92 120.344 157.02 120.35 157.109 120.35C158.83 120.355 160.551 120.32 162.272 120.379C163.332 120.415 164.074 121.397 163.756 122.427" fill="#E6E6DE"/>
<path d="M153.932 115.717C153.979 115.297 153.13 114.675 152.588 114.309C149.353 112.106 145.694 110.922 141.923 110.165C138.676 109.52 131.841 109.195 131.841 109.195H131.665C131.665 109.195 124.829 109.521 121.583 110.165C117.811 110.922 114.146 112.107 110.917 114.309C110.369 114.675 109.521 115.297 109.574 115.717C109.697 116.765 109.521 117.931 110.458 118.855C112.656 121.027 113.121 124.242 111.825 127.03C111.677 127.357 111.589 127.842 111.712 128.156C112.443 129.95 113.273 131.701 114.01 133.49C114.275 134.135 114.517 134.845 114.529 135.532C114.588 138.771 114.553 142.008 114.571 145.252C114.571 145.721 114.513 146.277 114.736 146.631C115.095 147.2 115.602 147.875 116.179 148.034C116.644 148.163 117.363 147.691 117.847 147.317C118.183 147.056 118.33 146.529 118.525 146.104C119.278 144.459 120.198 142.925 121.678 141.842C122.503 141.244 123.422 140.788 124.294 140.268C122.455 136.752 123.869 134.272 128.229 133.455C128.247 133.165 128.282 132.862 128.282 132.556C128.287 129.158 128.294 125.759 128.287 122.361C128.287 120.709 127.398 119.81 125.742 119.798C124.022 119.779 122.301 119.839 120.58 119.774C118.423 119.703 116.314 119.703 114.64 121.39C114.604 121.426 114.522 121.413 114.464 121.426C114.063 120.609 114.199 119.555 114.758 118.928C115.755 117.821 117.044 117.423 118.459 117.407C120.934 117.37 123.41 117.377 125.878 117.388C128.754 117.407 130.698 119.371 130.705 122.248C130.716 126.972 130.71 131.691 130.705 136.409C130.705 136.705 130.669 137.002 130.634 137.487C129.22 136.214 127.864 134.906 126.103 136.522C125.366 137.191 125.497 137.972 126.279 138.973C126.403 138.914 126.544 138.86 126.668 138.783C127.51 138.227 128.318 138.286 128.772 139.174C129.407 140.405 130.463 141.406 131.753 141.406C133.042 141.406 134.098 140.405 134.735 139.174C135.189 138.286 135.989 138.227 136.839 138.783C136.962 138.86 137.104 138.913 137.227 138.973C138.017 137.972 138.135 137.191 137.404 136.522C135.636 134.906 134.287 136.214 132.873 137.487C132.836 137.002 132.802 136.705 132.802 136.409C132.796 131.691 132.789 126.973 132.796 122.248C132.809 119.371 134.753 117.407 137.623 117.388C140.097 117.376 142.573 117.37 145.047 117.407C146.461 117.425 147.752 117.821 148.741 118.928C149.308 119.555 149.442 120.609 149.043 121.426C148.984 121.413 148.901 121.426 148.866 121.39C147.193 119.703 145.083 119.703 142.927 119.774C141.206 119.839 139.48 119.779 137.759 119.798C136.109 119.809 135.219 120.709 135.214 122.361C135.214 125.759 135.219 129.158 135.226 132.556C135.226 132.864 135.262 133.165 135.279 133.455C139.645 134.272 141.053 136.752 139.209 140.268C140.087 140.79 141.006 141.245 141.825 141.842C143.31 142.925 144.229 144.459 144.983 146.104C145.178 146.531 145.325 147.058 145.661 147.317C146.144 147.691 146.868 148.163 147.329 148.034C147.906 147.873 148.413 147.199 148.772 146.631C148.995 146.276 148.932 145.719 148.932 145.252C148.95 142.008 148.921 138.771 148.979 135.532C148.99 134.845 149.233 134.135 149.498 133.49C150.235 131.702 151.059 129.95 151.79 128.156C151.919 127.842 151.838 127.357 151.685 127.03C150.389 124.242 150.854 121.027 153.052 118.855C153.983 117.932 153.812 116.765 153.936 115.717M116.618 123.022C118.527 121.981 120.572 121.483 122.746 122.069C124.001 122.406 125.239 122.82 126.482 123.199C126.529 123.329 126.571 123.453 126.611 123.584C126.234 123.839 125.881 124.193 125.462 124.324C124.973 124.478 124.407 124.525 123.895 124.454C123.017 124.33 122.387 124.359 121.815 125.265C121.22 126.207 119.606 125.935 119.028 124.939C118.892 124.702 118.805 124.43 118.698 124.182C118.627 124.153 118.551 124.1 118.515 124.117C117.925 124.401 117.348 124.702 116.765 124.999C117.26 125.461 117.684 126.101 118.273 126.349C119.876 127.036 121.561 126.911 123.24 126.491C122.026 127.846 120.459 128.125 118.791 127.846C118.013 127.716 117.223 127.378 116.546 126.964C114.896 125.957 114.919 123.945 116.616 123.021M146.964 126.964C146.287 127.378 145.497 127.715 144.718 127.846C143.05 128.125 141.484 127.846 140.269 126.491C141.948 126.911 143.633 127.036 145.236 126.349C145.826 126.101 146.249 125.461 146.745 124.999C146.162 124.704 145.584 124.401 144.995 124.117C144.958 124.099 144.882 124.153 144.811 124.182C144.706 124.43 144.617 124.704 144.476 124.939C143.898 125.933 142.29 126.207 141.694 125.265C141.123 124.359 140.493 124.33 139.614 124.454C139.102 124.525 138.536 124.478 138.041 124.324C137.628 124.195 137.275 123.839 136.897 123.584C136.939 123.454 136.979 123.329 137.021 123.199C138.27 122.82 139.507 122.406 140.762 122.069C142.937 121.483 144.981 121.979 146.89 123.022C148.582 123.945 148.611 125.958 146.961 126.965" fill="#E6E6DE"/>
<path d="M153.661 145.677C153.656 146.394 153.591 147.127 153.449 147.826C152.725 151.36 149.613 153.727 146.384 153.669C144.115 153.621 142.354 152.675 140.916 151.023C140.321 150.337 139.78 149.596 139.266 148.85C137.534 146.317 135.3 144.973 132.372 144.701C132.372 144.701 131.971 144.648 131.753 144.654C131.535 144.648 131.129 144.701 131.129 144.701C128.206 144.973 125.973 146.317 124.24 148.85C123.728 149.596 123.191 150.337 122.59 151.023C121.146 152.675 119.39 153.621 117.122 153.669C113.893 153.727 110.776 151.36 110.057 147.826C109.91 147.127 109.845 146.393 109.845 145.677C109.827 140.959 109.834 136.235 109.839 131.517C109.839 131.221 109.863 130.919 109.881 130.623C110.694 132.547 111.89 134.323 111.914 136.484C111.943 139.787 111.885 143.091 111.961 146.394C112.003 148.259 112.898 149.715 114.618 150.508C116.256 151.26 117.901 151.141 119.28 149.952C119.963 149.366 120.582 148.549 120.924 147.709C122.321 144.246 124.996 142.695 128.508 142.327C128.886 142.285 129.356 142.487 129.681 142.718C130.553 143.505 132.698 143.587 133.829 142.718C134.154 142.486 134.619 142.285 135.002 142.327C138.514 142.694 141.188 144.246 142.586 147.709C142.927 148.549 143.541 149.366 144.23 149.952C145.61 151.142 147.253 151.26 148.892 150.508C150.613 149.715 151.502 148.258 151.549 146.394C151.62 143.091 151.567 139.787 151.596 136.484C151.62 134.323 152.811 132.547 153.63 130.623C153.641 130.919 153.671 131.221 153.671 131.517C153.677 136.235 153.682 140.959 153.666 145.677" fill="#E6E6DE"/>
<path d="M139.832 170.689C139.696 167.339 139.401 163.573 139.401 162.189C139.401 160.804 137.327 159.163 137.162 162.106C137.062 163.883 137.267 169.47 137.439 173.621C135.613 175.93 133.155 179.114 131.752 181.328C130.344 179.114 127.893 175.93 126.06 173.621C126.078 168.305 125.918 164.398 125.818 162.622C125.653 159.681 124.664 160.385 124.41 162.765C124.262 164.132 123.814 167.34 123.667 170.692C119.378 170.017 112.082 160.22 112.342 155.389C112.937 155.608 113.496 155.863 114.074 156.035C118.31 157.271 122.335 155.927 125.263 152.305C126.053 151.328 126.837 150.347 127.608 149.364C127.821 149.092 129.636 147.292 131.751 147.292C133.866 147.292 135.681 149.092 135.893 149.364C136.665 150.347 137.449 151.33 138.239 152.305C141.161 155.929 145.186 157.271 149.422 156.035C150.005 155.863 150.566 155.608 151.154 155.389C151.419 160.22 144.124 170.017 139.829 170.692" fill="#E6E6DE"/>
<path d="M129.602 66.1972C129.578 66.4106 129.566 66.6476 129.513 66.872C129.424 67.2275 129.148 67.4339 128.847 67.5886C128.405 67.8201 127.928 67.926 127.438 67.8912C127.108 67.873 126.79 67.7908 126.465 67.7253C126.177 67.6723 125.883 67.6068 125.587 67.5482C125.434 67.5189 125.422 67.5008 125.481 67.353C126.064 65.832 127.079 64.6943 128.504 63.9192C128.669 63.8299 128.845 63.7588 129.016 63.6822C129.081 63.6529 129.116 63.6585 129.134 63.7407C129.258 64.2566 129.394 64.7654 129.499 65.2855C129.557 65.5754 129.57 65.878 129.599 66.1972" fill="#E6E6DE"/>
<path d="M129.679 73.7339C129.643 74.4212 129.613 75.0361 129.584 75.6523C129.579 75.7597 129.543 75.7708 129.448 75.7359C128.441 75.3986 127.568 74.8367 126.832 74.0601C126.255 73.4565 125.819 72.758 125.507 71.9759C125.478 71.9048 125.496 71.8699 125.583 71.8518C126.297 71.7277 127.01 71.5799 127.729 71.4795C128.253 71.4084 128.772 71.4977 129.226 71.8113C129.527 72.0247 129.698 72.3091 129.686 72.6939C129.673 73.0661 129.68 73.4342 129.68 73.7353" fill="#E6E6DE"/>
<path d="M137.428 72.0233C136.85 73.4328 135.901 74.5216 134.563 75.2619C134.233 75.446 133.868 75.5756 133.52 75.729C133.425 75.7708 133.402 75.7346 133.391 75.6523C133.373 75.4446 133.349 75.2382 133.332 75.0305C133.291 74.5272 133.262 74.0295 133.232 73.5276H133.214C133.214 73.2432 133.209 72.9657 133.214 72.6813C133.22 72.6102 133.25 72.5391 133.28 72.4861C133.479 72.1069 133.745 71.7877 134.151 71.6343C134.499 71.4977 134.864 71.474 135.229 71.5339C135.925 71.6343 136.62 71.7528 137.321 71.8713C137.397 71.8825 137.486 71.8769 137.426 72.0247" fill="#E6E6DE"/>
<path d="M137.374 67.6008C136.878 67.6775 136.384 67.7848 135.883 67.8197C135.382 67.856 134.87 67.8378 134.369 67.8072C133.833 67.7709 133.514 67.4279 133.273 66.9665C133.066 66.5636 133.042 66.1606 133.149 65.741C133.32 65.0662 133.503 64.3914 133.679 63.7111C133.692 63.6748 133.714 63.64 133.732 63.5981C134.257 63.7933 134.729 64.0485 135.17 64.3622C136.248 65.1373 137.027 66.1495 137.497 67.3987C137.55 67.552 137.539 67.5701 137.374 67.5994" fill="#E6E6DE"/>
<path d="M85.5831 26.9161C79.5824 27.9771 74.0065 24.1111 72.8269 17.7941C71.6737 11.6248 75.8522 5.56019 82.3038 4.41418C88.6847 3.27653 94.387 7.69606 95.0448 13.9991C95.6901 20.1809 91.4116 25.8761 85.5831 26.9161ZM76.2713 17.1304C76.374 17.5055 76.4642 17.8833 76.5794 18.2541C78.3293 23.8043 84.1745 25.1344 88.2281 22.2777C90.9551 20.3496 92.2137 16.8154 91.3658 13.3773C90.2015 8.58415 85.2805 6.25309 80.6607 8.4043C77.4037 9.91977 75.6634 13.4693 76.2727 17.1304" fill="#0E2300"/>
<path d="M105.978 16.1434C104.773 16.5449 103.573 16.9548 102.375 17.3731C102.375 17.3731 102.597 20.3929 102.854 21.7452C102.977 22.3963 103.42 22.979 103.718 23.5967C102.083 23.7723 100.354 23.9759 98.6169 24.1976C98.6155 24.192 98.5877 24.1529 98.5975 24.1362C99.2358 23.0669 99.3357 21.9209 99.2053 20.6982C98.6641 15.6206 98.1562 10.5388 97.6399 5.45847C97.5289 4.36125 97.1237 3.3923 96.4312 2.54186C96.3812 2.48191 96.3424 2.41499 96.2646 2.30485C96.4492 2.26999 96.588 2.23514 96.7282 2.21701C99.5259 1.86289 102.326 1.55199 105.131 1.28431C106.989 1.10725 108.768 1.34984 110.349 2.32994C112.478 3.65162 113.433 5.5951 113.373 8.07951C113.172 12.1728 110.268 14.8343 105.975 16.1448M102.02 13.7719C102.02 13.7719 105.377 12.52 107.06 11.933C109.568 11.0491 110.231 8.42527 109.609 6.71462C109.081 5.26468 107.773 4.47279 106.052 4.6122C104.548 4.72792 101.231 5.13781 101.231 5.14338C101.494 8.01956 101.757 10.8971 102.02 13.7733" fill="#0E2300"/>
<path d="M32.1873 41.5747C30.4651 42.2718 28.8206 42.955 27.1775 43.6576C27.1637 43.6395 27.1262 43.6116 27.1317 43.5949C27.4981 42.3569 27.3122 41.2053 26.9028 40.0453C25.2305 35.3177 23.5819 30.5789 21.9513 25.8331C21.5627 24.701 20.991 23.746 19.8613 23.1354C21.6807 22.3574 23.4417 21.6241 25.2486 20.8936C25.2389 20.9828 25.2389 21.0609 25.218 21.1334C24.9072 22.172 24.9627 23.1661 25.2902 24.1392C26.9652 29.1108 28.6361 34.0838 30.3 39.0596C30.6483 40.1011 31.2381 40.9292 32.1887 41.5747" fill="#0E2300"/>
<path d="M8.45155 28.3063C9.17041 27.9634 9.90314 27.6622 10.6622 27.4573C11.4741 27.2384 12.2901 27.1018 13.1088 27.1283C14.2315 27.1645 15.2682 27.4294 16.1258 28.1153C16.6212 28.5127 17.0098 29.0062 17.2985 29.5792C17.3748 29.7326 17.4608 29.8832 17.5274 30.0421C18.2088 31.6677 17.7384 34.1326 17.0126 35.2535C17.7869 35.0723 19.5563 35.5198 20.4778 36.3493C20.9691 36.7913 21.3965 37.2988 21.6824 37.9094C22.1875 38.9843 22.533 40.115 22.4595 41.3656C22.3832 42.6817 21.9433 43.8737 21.1883 44.9597C20.4903 45.9636 19.6104 46.7485 18.6182 47.4093C18.0895 47.762 17.526 48.0311 16.9598 48.3002C15.4181 49.0126 10.171 51.6197 8.5598 52.4785C8.55702 52.4743 8.51816 52.4465 8.52371 52.4283C8.83457 51.1819 8.6042 50.0596 8.12543 48.9457C6.14372 44.324 4.19532 39.6842 2.23859 35.05C1.81533 34.0489 1.14644 33.2766 0.231908 32.7189C0.168072 32.6799 0.109786 32.6311 0.00292969 32.553C0.172235 32.4526 0.295745 32.3704 0.427581 32.302C3.03378 30.9525 5.82176 29.5653 8.45571 28.305M8.16984 39.6229C8.16984 39.6229 11.5657 36.8666 12.8299 35.768C14.523 34.279 14.8713 32.4206 13.9928 31.2955C13.2476 30.3418 12.0486 30.1146 10.7427 30.7155C9.59645 31.2285 5.56226 33.2557 5.56503 33.2654C6.43376 35.3846 7.30111 37.5037 8.16984 39.6229ZM11.3339 47.3438C11.3311 47.3354 15.2127 45.4812 16.2965 44.9653C18.2269 44.0507 19.0748 42.4865 18.9776 41.2331C18.8624 39.7609 17.5566 38.0349 15.4264 38.3402C13.8319 38.5521 9.41049 42.6705 9.42298 42.6803C10.06 44.2348 10.6969 45.7893 11.3339 47.3438Z" fill="#0E2300"/>
<path d="M71.528 29.0703C69.8016 29.476 68.0766 29.8999 66.3558 30.3404C66.3447 30.3209 66.3114 30.2874 66.3183 30.2721C66.8318 29.1066 66.7916 27.9382 66.5334 26.7253C66.2448 25.3618 65.9548 23.9969 65.6689 22.632C62.6131 23.4044 59.5669 24.2297 56.5292 25.1095C56.883 26.5943 57.2341 28.0763 57.5852 29.5611C57.842 30.6346 58.3541 31.5241 59.2367 32.2699C57.5228 32.7593 55.8117 33.2668 54.1048 33.791C54.0923 33.7729 54.059 33.7394 54.0645 33.7241C54.5336 32.5334 54.4489 31.3679 54.1436 30.1689C52.8974 25.2837 51.6762 20.3902 50.4758 15.4911C50.1885 14.3228 49.7056 13.3106 48.6426 12.5786C50.4786 12.014 52.3173 11.4675 54.1589 10.9419C54.1395 11.0283 54.1353 11.1064 54.1075 11.1761C53.7106 12.1757 53.6801 13.1698 53.9202 14.1722C54.5391 16.7598 55.1581 19.346 55.7728 21.9321C58.8384 21.0441 61.915 20.2103 64.9986 19.4324C64.4768 16.9201 63.9606 14.4036 63.4471 11.8871C63.207 10.7063 62.7657 9.67179 61.7332 8.88966C63.5845 8.41424 65.4399 7.95835 67.2967 7.52197C67.2731 7.60702 67.2662 7.68509 67.2356 7.75341C66.7999 8.73212 66.7305 9.72477 66.9317 10.7369C67.9545 15.9205 68.9745 21.1026 69.9848 26.2875C70.1971 27.3736 70.6745 28.2854 71.5238 29.0745" fill="#0E2300"/>
<path d="M35.9011 38.4684C36.3133 38.3094 36.6519 38.1171 37.003 38.1198C39.2498 38.1352 41.7158 37.9511 43.0078 37.4939C47.2779 35.9784 49.4095 32.6463 48.4089 28.8402C47.9676 27.1826 47.0975 26.0616 45.7389 25.4287C44.372 24.7943 42.64 24.726 41.2828 24.7497C40.8568 24.7581 40.4155 24.7762 39.8992 24.8069C39.7854 24.8125 39.673 24.8194 39.5592 24.825C38.1687 24.9087 35.5681 25.1066 34.9727 23.1604C34.7646 22.4772 34.6188 20.7178 37.8662 19.4198C39.5273 18.7631 41.4341 18.6892 44.8813 19.2692C44.5038 17.8737 44.1277 16.4781 43.7502 15.0825C43.692 15.0825 43.6434 15.1174 43.5796 15.1383C43.0092 15.3265 42.3708 15.4882 41.4438 15.5482C40.1754 15.6304 38.6253 15.8549 37.046 16.4153C32.6219 17.988 30.5319 21.4372 31.6865 25.0411C32.7218 28.2979 35.2572 28.8333 38.7224 28.7343C39.1887 28.7175 39.63 28.6924 40.1449 28.6618C42.3708 28.5307 44.1222 28.4596 44.6662 30.4045C45.1463 32.1277 44.2013 33.5762 42.146 34.3137C41.7699 34.4462 38.6017 34.9732 34.5051 34.0544C34.9713 35.5253 35.4362 36.9947 35.9025 38.4656" fill="#0E2300"/>
<path d="M150.713 12.039C151.125 5.70946 146.269 0.203866 139.823 0.0212292C133.308 -0.168378 128.206 4.93709 128.302 11.2332C128.387 17.2797 132.635 21.9976 138.14 22.7142C139.571 28.4331 146.398 31.6132 156.067 32.0816C160.101 32.2866 163.201 31.2981 167.709 29.6614C168.169 29.4955 168.569 29.4578 169.092 29.5331C169.293 27.8364 169.496 26.1411 169.697 24.4444C167.147 27.2439 161.071 28.8946 155.1 28.56C149.926 28.2505 144.757 26.392 141.748 22.5804C146.518 21.5821 150.38 17.3536 150.711 12.0376M142.635 18.7826C138.18 20.7623 132.679 18.2626 131.895 12.4517C131.846 12.0641 131.82 11.6737 131.783 11.2848C131.799 7.56231 134.096 4.42961 137.542 3.60565C142.427 2.43454 146.865 5.72758 147.203 10.6769C147.459 14.2279 145.631 17.4456 142.635 18.784" fill="#0E2300"/>
<path d="M201.347 22.3823C201.677 20.8947 203.051 20.2924 202.595 20.1795C200.979 19.7487 199.363 19.3332 197.743 18.9317C197.286 18.8104 198.286 20.0289 197.975 21.5304C197.975 21.5304 197.975 21.5304 197.976 21.529C197.903 21.8734 197.23 24.9545 196.988 26.1995C196.937 26.4658 196.831 26.5732 196.565 26.601C195.005 26.7655 193.497 26.5355 192.075 25.8287C188.746 24.1696 186.98 20.6828 187.542 16.952C188.176 12.6718 192.385 9.50707 196.96 10.8901C198.653 11.3976 201.162 13.5293 202.049 15.0615C202.71 16.1601 202.726 16.0276 202.803 15.6791C203.158 14.0437 203.773 11.1578 204.064 9.91696C204.141 9.59072 203.28 10.2613 202.184 9.9783C201.093 9.69529 198.279 7.31264 195.044 7.18996C189.394 6.93901 184.887 10.918 184.107 16.121C183.599 19.4224 184.292 22.4199 186.234 25.1358C188.072 27.7038 190.621 29.1928 193.306 29.7784C193.791 29.9066 194.319 29.9763 194.847 30.0112C195.462 30.0669 196.075 30.0767 196.686 30.0432C197.396 30.0349 197.98 30.0237 198.279 30.1004C199.102 30.3137 199.461 31.1251 199.512 30.863C199.734 29.7588 201.119 23.4126 201.344 22.3809" fill="#0E2300"/>
<path d="M231.313 21.4622C233.763 22.3865 236.205 23.3443 238.638 24.3397C240.167 24.9657 240.8 25.6837 241.236 26.0629C241.369 24.751 241.505 23.3875 241.637 22.0059C236.989 20.068 232.267 18.2402 227.518 16.5449C228.149 18.0018 227.915 19.2385 227.536 20.4918C226.054 25.3868 224.605 30.2929 223.156 35.199C222.763 36.5123 221.539 37.4882 221.406 37.6025C225.847 39.1905 230.198 40.8746 234.545 42.6871C235.255 41.5466 235.96 40.4201 236.641 39.3397C236.105 39.3104 235.238 39.3954 233.779 38.7987C231.458 37.8493 229.126 36.9347 226.788 36.0522C227.379 34.145 227.97 32.2377 228.561 30.3319C229.946 30.8547 231.33 31.3887 232.709 31.9338C232.709 31.9296 235.395 32.9613 236.411 34.1505C236.92 32.6504 237.428 31.1517 237.937 29.6529C236.448 29.7965 233.766 28.6854 233.764 28.6882C232.369 28.1375 230.973 27.5979 229.573 27.0695C230.153 25.2 230.732 23.3318 231.312 21.4622" fill="#0E2300"/>
<path d="M179.041 26.1981C177.251 25.8733 175.537 25.5819 173.818 25.3058C173.813 25.2835 173.794 25.2389 173.805 25.2264C174.667 24.3466 175.017 23.2425 175.176 22.01C175.83 16.9868 176.51 11.9678 177.209 6.95154C177.376 5.75394 177.308 4.61351 176.608 3.47168C178.514 3.777 180.35 4.09069 182.226 4.43087C182.177 4.50337 182.144 4.57168 182.093 4.62327C181.366 5.36078 180.973 6.25724 180.824 7.28056C180.064 12.5171 179.302 17.7536 178.53 22.9887C178.369 24.0831 178.511 25.1246 179.041 26.2009" fill="#0E2300"/>
<path d="M208.704 10.5405C209.413 11.95 209.25 13.2005 208.943 14.4776C207.744 19.466 206.58 24.4627 205.414 29.4608C205.097 30.7992 203.936 31.8588 203.81 31.9828C208.311 33.2529 212.73 34.6234 217.149 36.1194C217.79 34.9315 218.428 33.7576 219.043 32.6311C218.51 32.6409 217.652 32.7873 216.17 32.2951C213.81 31.5144 211.442 30.7671 209.068 30.0533C210.307 25.0775 211.444 20.5492 212.651 15.5637C212.96 14.288 213.381 13.1127 214.633 12.2776C212.661 11.6767 210.683 11.0967 208.703 10.5391" fill="#0E2300"/>
<path d="M170.741 5.58243C170.297 9.43732 170.183 10.7646 169.678 14.6111C169.532 15.725 169.243 16.8613 168.784 17.8735C167.686 20.2896 165.406 22.0783 161.156 21.6015C156.905 21.1372 154.998 18.8842 154.357 16.2757C154.092 15.1841 154.013 14.0074 154.071 12.8837C154.271 9.00373 154.399 7.67787 154.659 3.80206C154.744 2.57101 153.931 0.895212 153.864 0.76416C155.759 0.911943 157.65 1.07924 159.542 1.26467C158.505 2.2852 158.259 3.51347 158.168 4.83236C157.921 8.39726 157.818 9.41361 157.549 12.9771C157.508 13.5292 157.485 14.0869 157.522 14.6376C157.614 15.9537 158.354 17.9153 161.462 18.2541C164.569 18.604 165.65 16.8432 165.977 15.5745C166.111 15.0433 166.192 14.4926 166.25 13.9419C166.63 10.3909 166.711 9.37318 167.114 5.82501C167.262 4.51309 167.245 3.25555 166.41 2.02728C168.297 2.26011 170.184 2.51106 172.07 2.78292C171.98 2.89585 170.9 4.18407 170.741 5.58521" fill="#0E2300"/>
<path d="M258.245 29.5413C258.084 30.5967 257.294 31.634 256.531 32.1763C254.703 33.774 252.894 35.3885 251.102 37.0169C250.947 34.4628 250.769 31.9045 250.569 29.3434C250.404 28.3591 250.546 27.0137 251.131 26.1605C249.205 25.2766 247.294 24.4233 245.292 23.5562C245.421 23.7583 246.757 26.3124 247.007 27.5128C247.431 31.4681 247.802 35.4178 248.118 39.3591C247.334 41.3751 247.499 40.968 246.109 44.6124C245.618 45.8852 244.317 46.7413 244.176 46.8444C245.917 47.6503 247.653 48.4742 249.383 49.3191C249.353 49.1351 249.023 47.5039 249.526 46.2366C249.526 46.2366 249.523 46.2366 249.521 46.2352C250.211 44.5008 250.901 42.7679 251.591 41.0335C254.415 38.577 257.283 36.1595 260.197 33.7824C261.163 33.1592 263.778 32.4844 264 32.4496C262.04 31.4332 260.156 30.4824 258.246 29.5427" fill="#0E2300"/>
<path d="M126.609 123.584C126.231 123.839 125.877 124.193 125.46 124.324C124.971 124.478 124.405 124.525 123.893 124.454C123.014 124.33 122.384 124.359 121.813 125.265C121.217 126.206 119.603 125.935 119.026 124.941C118.89 124.704 118.803 124.432 118.696 124.182C118.625 124.153 118.549 124.1 118.513 124.117C117.923 124.401 117.345 124.702 116.763 124.999C117.258 125.461 117.681 126.101 118.271 126.349C119.874 127.036 121.559 126.911 123.238 126.491C122.024 127.846 120.457 128.125 118.789 127.846C118.01 127.716 117.221 127.379 116.543 126.963C114.893 125.957 114.917 123.945 116.614 123.021C118.524 121.979 120.568 121.482 122.742 122.067C123.997 122.405 125.235 122.819 126.478 123.198C126.525 123.327 126.567 123.453 126.607 123.583" fill="#0E2300"/>
<path d="M146.961 126.965C146.284 127.379 145.494 127.716 144.716 127.847C143.048 128.126 141.481 127.847 140.267 126.492C141.946 126.912 143.631 127.037 145.234 126.35C145.823 126.102 146.247 125.462 146.742 125C146.159 124.705 145.582 124.402 144.992 124.118C144.956 124.1 144.88 124.154 144.809 124.183C144.703 124.432 144.615 124.705 144.473 124.94C143.896 125.934 142.287 126.208 141.692 125.267C141.12 124.36 140.49 124.331 139.612 124.455C139.1 124.526 138.533 124.479 138.038 124.326C137.626 124.196 137.272 123.84 136.895 123.585C136.936 123.456 136.976 123.33 137.018 123.201C138.267 122.821 139.505 122.407 140.759 122.07C142.934 121.484 144.978 121.981 146.888 123.023C148.579 123.946 148.609 125.96 146.958 126.966" fill="#0E2300"/>
<path d="M134.387 61.2492C134.458 61.0122 134.523 60.7821 134.587 60.5507C134.747 59.9888 134.905 59.4326 135.07 58.8693C135.241 58.2601 135.424 57.6438 135.595 57.0346C135.618 56.9454 135.642 56.8575 135.666 56.7683C139.007 59.3559 149.519 67.4839 151.936 69.5138C154.168 71.3848 156.45 73.1958 158.264 75.5171C161.746 79.9924 163.455 85.1077 163.786 90.7318C163.838 91.5836 163.874 97.5632 163.927 98.5642C160.05 96.2792 156.107 94.5267 151.93 93.4616C148.53 92.5916 141.205 91.1821 135.867 90.0458C135.885 89.9873 135.885 89.9162 135.872 89.8214C135.831 89.5495 135.772 89.2832 135.713 89.01C135.624 88.5722 135.536 88.1274 135.448 87.6897C135.359 87.2463 135.259 86.8072 135.17 86.3638C135.076 85.8968 134.987 85.4172 134.893 84.9432C134.798 84.4817 134.709 84.0202 134.622 83.5573C134.528 83.0485 134.433 82.5396 134.339 82.0363C134.268 81.6153 134.192 81.2082 134.121 80.7927C134.045 80.3312 133.968 79.8698 133.898 79.4069C133.832 79.0277 133.785 78.6499 133.721 78.2706C133.698 78.1521 133.745 78.1047 133.85 78.081C134.669 77.8566 135.435 77.5122 136.148 77.0507C137.864 75.9493 139.053 74.4283 139.743 72.5043C139.819 72.2799 139.819 72.2855 140.037 72.3203C140.473 72.397 140.908 72.4806 141.346 72.5517C142.159 72.6814 142.972 72.8236 143.78 72.9421C144.01 72.977 144.239 72.9658 144.469 72.9602C144.605 72.9547 144.716 72.878 144.753 72.7414C144.789 72.588 144.805 72.4332 144.811 72.2729C144.823 70.3727 144.834 68.4724 144.847 66.5721C144.847 66.4299 144.829 66.2877 144.8 66.1511C144.747 65.8374 144.623 65.7482 144.311 65.79C143.556 65.8792 142.821 66.0619 142.089 66.2696C141.371 66.4704 140.652 66.6892 139.938 66.9095C139.839 66.9458 139.797 66.9221 139.762 66.8203C139.456 65.8848 138.991 65.0274 138.39 64.2508C137.576 63.1968 136.587 62.3743 135.409 61.7817C135.108 61.634 134.795 61.5155 134.496 61.3788C134.443 61.3551 134.36 61.3496 134.39 61.2492M160.43 130.257C159.629 131.245 158.727 132.151 157.867 133.092C157.784 133.056 157.702 133.016 157.613 132.974C157.595 132.742 157.56 132.5 157.566 132.263C157.589 129.593 157.135 127.124 155.238 125.035C154.26 123.952 155.409 120.874 156.836 120.376C156.924 120.347 157.024 120.352 157.113 120.352C158.834 120.358 160.555 120.323 162.276 120.382C163.336 120.417 164.078 121.399 163.761 122.43C163.242 124.064 162.646 125.698 160.914 126.597C161.303 127.888 161.31 129.172 160.431 130.255M137.445 173.618C135.618 175.927 133.161 179.111 131.758 181.325C130.349 179.111 127.898 175.927 126.065 173.618C126.083 168.302 125.924 164.394 125.824 162.62C125.658 159.678 124.669 160.382 124.415 162.762C124.268 164.129 123.82 167.337 123.673 170.689C119.383 170.014 112.088 160.217 112.347 155.387C112.943 155.605 113.502 155.861 114.079 156.032C118.316 157.269 122.34 155.925 125.269 152.303C126.058 151.325 126.842 150.344 127.614 149.361C127.826 149.089 129.641 147.289 131.756 147.289C133.871 147.289 135.686 149.089 135.899 149.361C136.67 150.344 137.454 151.327 138.244 152.303C141.167 155.926 145.191 157.269 149.428 156.032C150.011 155.861 150.571 155.605 151.16 155.387C151.425 160.217 144.129 170.014 139.834 170.689C139.698 167.339 139.404 163.573 139.404 162.187C139.404 160.802 137.329 159.162 137.164 162.105C137.064 163.881 137.27 169.469 137.442 173.62M146.387 153.669C144.118 153.622 142.357 152.675 140.92 151.023C140.324 150.337 139.782 149.597 139.27 148.851C137.538 146.317 135.303 144.973 132.375 144.7C132.375 144.7 131.974 144.647 131.756 144.653C131.538 144.647 131.132 144.7 131.132 144.7C128.209 144.972 125.976 146.316 124.243 148.851C123.731 149.597 123.194 150.337 122.593 151.023C121.15 152.675 119.393 153.622 117.125 153.669C113.896 153.728 110.779 151.36 110.06 147.826C109.913 147.127 109.848 146.393 109.848 145.678C109.83 140.96 109.837 136.235 109.842 131.517C109.842 131.221 109.866 130.919 109.884 130.623C110.697 132.547 111.893 134.323 111.917 136.484C111.946 139.787 111.888 143.091 111.964 146.394C112.006 148.26 112.901 149.715 114.622 150.508C116.259 151.26 117.904 151.141 119.283 149.952C119.967 149.367 120.586 148.55 120.928 147.709C122.324 144.246 124.999 142.694 128.512 142.327C128.889 142.286 129.36 142.488 129.684 142.718C130.556 143.505 132.701 143.588 133.832 142.718C134.156 142.486 134.622 142.286 135.005 142.327C138.517 142.694 141.192 144.246 142.589 147.709C142.93 148.55 143.544 149.367 144.234 149.952C145.613 151.141 147.256 151.26 148.895 150.508C150.616 149.715 151.505 148.258 151.553 146.394C151.623 143.091 151.571 139.787 151.6 136.484C151.623 134.323 152.814 132.547 153.633 130.623C153.644 130.919 153.674 131.221 153.674 131.517C153.68 136.235 153.685 140.96 153.669 145.678C153.663 146.394 153.598 147.127 153.457 147.826C152.732 151.36 149.621 153.728 146.391 153.669M153.055 118.854C150.857 121.026 150.392 124.241 151.689 127.029C151.841 127.355 151.924 127.84 151.794 128.154C151.063 129.948 150.238 131.7 149.501 133.488C149.236 134.134 148.995 134.843 148.982 135.531C148.924 138.769 148.953 142.007 148.935 145.251C148.935 145.718 149 146.276 148.776 146.63C148.416 147.199 147.91 147.873 147.332 148.032C146.873 148.162 146.147 147.689 145.664 147.316C145.328 147.055 145.181 146.528 144.987 146.103C144.232 144.458 143.313 142.924 141.829 141.841C141.01 141.243 140.09 140.787 139.213 140.265C141.057 136.749 139.648 134.269 135.283 133.452C135.264 133.162 135.23 132.86 135.23 132.553C135.224 129.155 135.217 125.756 135.217 122.359C135.223 120.707 136.112 119.807 137.762 119.795C139.483 119.777 141.21 119.837 142.93 119.771C145.087 119.7 147.196 119.7 148.87 121.387C148.906 121.423 148.988 121.411 149.046 121.423C149.447 120.606 149.311 119.552 148.745 118.925C147.756 117.818 146.465 117.42 145.051 117.404C142.577 117.367 140.101 117.374 137.626 117.386C134.757 117.404 132.812 119.368 132.8 122.246C132.794 126.969 132.8 131.688 132.805 136.406C132.805 136.702 132.841 136.999 132.876 137.484C134.29 136.211 135.639 134.903 137.407 136.519C138.139 137.188 138.021 137.969 137.231 138.97C137.107 138.91 136.966 138.857 136.842 138.781C135.993 138.224 135.192 138.283 134.739 139.171C134.102 140.402 133.047 141.403 131.756 141.403C130.466 141.403 129.411 140.402 128.775 139.171C128.322 138.283 127.514 138.224 126.672 138.781C126.548 138.857 126.406 138.91 126.283 138.97C125.499 137.969 125.37 137.188 126.107 136.519C127.869 134.903 129.224 136.211 130.638 137.484C130.672 136.999 130.709 136.703 130.709 136.406C130.714 131.688 130.72 126.971 130.709 122.246C130.703 119.368 128.757 117.404 125.882 117.386C123.413 117.374 120.939 117.367 118.463 117.404C117.049 117.422 115.758 117.818 114.762 118.925C114.203 119.552 114.067 120.606 114.468 121.423C114.526 121.411 114.609 121.423 114.644 121.387C116.318 119.7 118.427 119.7 120.583 119.771C122.304 119.837 124.025 119.777 125.746 119.795C127.402 119.807 128.291 120.707 128.291 122.359C128.297 125.756 128.291 129.155 128.285 132.553C128.285 132.861 128.251 133.162 128.233 133.452C123.872 134.269 122.458 136.749 124.297 140.265C123.426 140.787 122.506 141.243 121.681 141.841C120.202 142.924 119.283 144.458 118.528 146.103C118.334 146.529 118.187 147.056 117.851 147.316C117.368 147.688 116.649 148.162 116.183 148.032C115.606 147.872 115.099 147.197 114.74 146.63C114.516 146.274 114.575 145.718 114.575 145.251C114.556 142.007 114.593 138.769 114.533 135.531C114.52 134.843 114.279 134.134 114.014 133.488C113.277 131.701 112.447 129.948 111.716 128.154C111.592 127.84 111.68 127.355 111.828 127.029C113.124 124.241 112.659 121.026 110.461 118.854C109.525 117.931 109.701 116.764 109.577 115.715C109.525 115.296 110.372 114.674 110.921 114.307C114.15 112.104 117.815 110.921 121.585 110.164C127.299 109.016 136.942 109.163 141.927 110.164C145.698 110.921 149.357 112.106 152.592 114.307C153.135 114.674 153.982 115.296 153.935 115.715C153.812 116.764 153.982 117.929 153.051 118.854M152.721 109.838C138.551 102.599 121.778 104.223 110.79 109.838C109.411 110.542 108.156 111.49 106.753 112.383C106.488 111.271 106.194 110.08 105.927 108.885C105.592 107.388 105.314 105.878 104.962 104.386C104.809 103.759 105.02 103.451 105.544 103.126C110.411 100.113 115.697 98.2129 121.277 97.1003C130.42 95.2768 135.845 95.8261 142.231 97.1003C147.811 98.2129 153.097 100.113 157.964 103.126C158.488 103.452 158.701 103.759 158.547 104.386C158.193 105.878 157.91 107.388 157.581 108.885C157.316 110.082 157.022 111.271 156.757 112.383C155.354 111.49 154.099 110.542 152.72 109.838M99.7575 122.43C99.4328 121.399 100.17 120.417 101.237 120.382C102.958 120.322 104.678 120.358 106.392 120.352C106.487 120.352 106.587 120.347 106.675 120.376C108.102 120.874 109.25 123.952 108.273 125.035C106.376 127.125 105.916 129.593 105.946 132.263C105.951 132.5 105.916 132.742 105.898 132.974C105.81 133.016 105.728 133.057 105.644 133.092C104.784 132.151 103.876 131.245 103.081 130.257C102.203 129.173 102.21 127.888 102.598 126.598C100.866 125.699 100.271 124.065 99.7575 122.431M129.68 73.734C129.644 74.4213 129.615 75.0362 129.586 75.6524C129.58 75.7583 129.544 75.7709 129.45 75.7346C128.442 75.3972 127.569 74.8354 126.834 74.0588C126.257 73.4552 125.821 72.7567 125.509 71.9746C125.479 71.9035 125.498 71.8686 125.585 71.8505C126.298 71.7264 127.012 71.5786 127.73 71.4768C128.255 71.4057 128.774 71.495 129.226 71.8086C129.528 72.022 129.698 72.3064 129.686 72.6912C129.673 73.0634 129.68 73.4315 129.68 73.7326M133.216 73.5249C133.216 73.2405 133.211 72.963 133.216 72.6786C133.222 72.6075 133.252 72.5364 133.281 72.4834C133.481 72.1042 133.746 71.7849 134.153 71.6316C134.501 71.495 134.866 71.4713 135.231 71.5312C135.926 71.6316 136.622 71.7501 137.323 71.8686C137.399 71.8811 137.488 71.8742 137.428 72.022C136.851 73.4315 135.901 74.5203 134.564 75.2606C134.233 75.4447 133.868 75.5743 133.521 75.7277C133.427 75.7695 133.404 75.7332 133.392 75.651C133.374 75.4433 133.351 75.2369 133.334 75.0292C133.293 74.5259 133.263 74.0282 133.234 73.5249H133.216ZM133.151 65.7398C133.322 65.065 133.505 64.3902 133.681 63.7099C133.692 63.6736 133.717 63.6388 133.734 63.597C134.258 63.7921 134.73 64.0473 135.172 64.361C136.25 65.1361 137.028 66.1483 137.499 67.3975C137.551 67.5508 137.54 67.569 137.375 67.5982C136.88 67.6749 136.386 67.7823 135.885 67.8171C135.384 67.8534 134.872 67.8353 134.371 67.8046C133.835 67.7697 133.516 67.4254 133.274 66.9639C133.068 66.561 133.044 66.1595 133.151 65.7384M131.719 67.2121C132.39 67.9998 133.068 68.7861 133.746 69.5682C133.799 69.6337 133.823 69.6867 133.759 69.7578C133.064 70.5455 132.379 71.3332 131.684 72.1195C131.673 72.1377 131.642 72.1432 131.602 72.167C131.461 72.001 131.319 71.8351 131.172 71.6692C130.624 71.0419 130.081 70.4019 129.534 69.769C129.446 69.6742 129.429 69.6086 129.522 69.5027C130.194 68.7456 130.86 67.9747 131.526 67.2121C131.602 67.1298 131.649 67.1354 131.72 67.2121M129.139 63.7378C129.262 64.2536 129.398 64.7625 129.504 65.2825C129.564 65.5725 129.575 65.875 129.604 66.1943C129.58 66.4076 129.568 66.6446 129.515 66.8691C129.426 67.2246 129.15 67.4309 128.849 67.5857C128.408 67.8171 127.93 67.9231 127.44 67.8882C127.11 67.8701 126.792 67.7879 126.468 67.7223C126.179 67.6693 125.885 67.6038 125.589 67.5453C125.436 67.516 125.424 67.4979 125.482 67.3501C126.065 65.829 127.08 64.6914 128.505 63.9162C128.67 63.827 128.846 63.7559 129.017 63.6792C129.082 63.6499 129.117 63.6555 129.135 63.7378M111.569 69.5097C113.903 67.5508 123.778 59.9024 127.467 57.0485C127.65 57.7944 127.844 58.5347 128.026 59.275C128.191 59.9261 128.351 60.5772 128.509 61.2283C128.533 61.3105 128.52 61.3523 128.433 61.3886C127.531 61.726 126.701 62.2 125.951 62.8148C124.666 63.8744 123.753 65.1891 123.205 66.7631C123.163 66.9053 123.134 66.929 122.975 66.8761C122.415 66.7157 121.855 66.5498 121.295 66.3965C120.7 66.2306 120.099 66.0646 119.498 65.9113C119.275 65.8527 119.044 65.7928 118.815 65.7691C118.485 65.7217 118.273 65.8583 118.185 66.1776C118.138 66.3379 118.12 66.5094 118.12 66.6753C118.115 68.6704 118.115 70.671 118.108 72.6716C118.108 72.9435 118.155 72.9979 118.432 73.0146H118.592C119.447 73.0202 120.289 72.8668 121.126 72.7302C121.78 72.6242 122.428 72.4988 123.076 72.3803C123.152 72.3691 123.176 72.3984 123.199 72.4695C123.464 73.2335 123.818 73.9557 124.29 74.6249C125.522 76.3829 127.171 77.5429 129.233 78.1173C129.31 78.1354 129.333 78.1647 129.322 78.2358C129.251 78.7279 129.186 79.2187 129.11 79.7094C129.028 80.2713 128.927 80.829 128.832 81.3852C128.743 81.9178 128.649 82.4448 128.555 82.9774C128.449 83.5392 128.337 84.0955 128.237 84.6587C128.148 85.1439 128.061 85.6235 127.966 86.1087C127.861 86.6831 127.748 87.2575 127.642 87.8249C127.542 88.3631 127.447 88.9026 127.353 89.4408C127.329 89.5885 127.306 89.7363 127.3 89.8911C127.3 89.9441 127.306 89.9915 127.318 90.0333C122.009 91.1695 114.985 92.5846 111.573 93.4546C107.389 94.5197 103.453 96.2722 99.5757 98.5573C99.6229 97.5562 99.6646 91.578 99.7173 90.7248C100.048 85.1007 101.756 79.9869 105.239 75.5102C107.054 73.1889 109.329 71.3778 111.567 69.5069M68.504 128.114C68.504 103.268 82.6632 81.7435 103.323 71.2482C102.952 71.6274 102.58 71.9996 102.226 72.3914C99.1095 75.7723 97.2596 79.8976 96.2632 84.3381C95.6914 86.902 95.5624 89.5718 95.2904 92.1943C95.1488 93.5327 95.0905 94.8822 95.078 96.2262C95.06 97.2328 95.0364 98.2742 95.2543 99.2516C95.8205 101.808 97.5468 103.537 99.5854 105.012C100.257 105.497 100.941 105.924 101.112 106.889C101.412 108.594 101.807 110.286 102.201 111.973C102.655 113.886 103.151 115.798 103.652 117.798C102.797 117.798 102.02 117.786 101.241 117.798C99.4384 117.828 98.0242 118.869 97.5108 120.628C96.9446 122.611 97.6398 124.363 98.6182 126.05C99.1428 126.95 99.6854 127.845 100.139 128.78C100.363 129.242 100.37 129.805 100.528 130.301C100.982 131.722 102.083 132.67 103.033 133.735C103.693 134.475 104.617 135.108 104.459 136.334C104.37 137.045 104.323 137.767 104.3 138.482C104.276 139.17 104.194 139.743 103.77 140.388C100.587 145.237 97.4997 150.15 94.3536 155.021C91.0536 160.124 87.7368 165.215 84.4132 170.307C74.5199 159.071 68.5026 144.295 68.5026 128.117M131.748 191.808C114.583 191.761 99.0262 184.871 87.6355 173.705C87.6647 173.639 87.6772 173.599 87.6772 173.599C94.0414 163.713 100.424 153.808 106.805 143.899C106.922 143.928 107.035 143.946 107.153 143.97C107.153 145.266 107.095 146.568 107.164 147.859C107.253 149.47 107.93 150.885 108.767 152.24C108.932 152.512 109.121 152.867 109.097 153.17C108.42 161.63 112.533 167.703 119.021 172.255C121.925 174.297 124.018 176.83 125.968 179.637C127.689 182.111 131.165 187.759 131.748 187.759C132.331 187.759 135.809 182.111 137.528 179.637C139.479 176.83 141.565 174.297 144.469 172.255C150.963 167.703 155.076 161.628 154.399 153.17C154.375 152.867 154.564 152.513 154.735 152.24C155.566 150.885 156.238 149.47 156.332 147.859C156.403 146.568 156.343 145.266 156.343 143.97C156.461 143.946 156.573 143.928 156.691 143.899C163.074 153.808 169.449 163.713 175.819 173.599C175.819 173.599 175.83 173.64 175.853 173.705C164.463 184.869 148.906 191.761 131.748 191.808ZM179.083 170.307C175.759 165.215 172.442 160.125 169.142 155.021C165.996 150.149 162.908 145.236 159.719 140.388C159.295 139.743 159.213 139.168 159.195 138.482C159.177 137.766 159.124 137.043 159.035 136.334C158.876 135.108 159.801 134.475 160.462 133.735C161.411 132.67 162.513 131.722 162.967 130.301C163.119 129.803 163.132 129.242 163.355 128.78C163.809 127.845 164.352 126.951 164.875 126.05C165.853 124.363 166.549 122.611 165.977 120.628C165.47 118.87 164.056 117.828 162.252 117.798C161.475 117.786 160.696 117.798 159.848 117.798C160.344 115.798 160.838 113.885 161.292 111.973C161.687 110.286 162.081 108.593 162.383 106.889C162.553 105.924 163.237 105.497 163.902 105.012C165.941 103.539 167.674 101.81 168.239 99.2516C168.457 98.2742 168.428 97.2328 168.422 96.2262C168.404 94.8822 168.34 93.5327 168.204 92.1943C167.934 89.5718 167.81 86.902 167.231 84.3381C166.229 79.8976 164.379 75.7723 161.268 72.3914C160.909 72.001 160.549 71.6274 160.172 71.2482C180.831 81.7435 194.99 103.268 194.99 128.114C194.99 144.293 188.975 159.069 179.08 170.304M112.356 63.116C84.4493 71.4462 64.0938 97.4015 64.0938 128.142C64.0938 165.606 94.3245 195.978 131.617 195.978C168.91 195.978 199.141 165.606 199.141 128.142C199.141 97.4865 178.909 71.5549 151.124 63.1508C150.369 62.5109 149.624 61.8515 148.869 61.2129C146.612 59.3071 144.354 57.3999 142.081 55.5177C138.663 52.6876 135.21 49.8881 131.805 47.0342H131.687C128.281 49.8881 124.829 52.6876 121.411 55.5177C119.136 57.3999 116.873 59.3057 114.622 61.2129C113.867 61.8529 113.11 62.476 112.357 63.116" fill="#0E2300"/>
</g>
</g>
<defs>
<clipPath id="clip0_2024_669">
<rect width="264" height="195.969" fill="white" transform="translate(0 0.015625)"/>
</clipPath>
</defs>
</svg>
