<svg width="160" height="20" viewBox="0 0 160 20" fill="none" xmlns="http://www.w3.org/2000/svg">
<path d="M51.0558 14.0221C47.1514 14.0221 44.1036 10.9344 44.1235 6.99022C44.1235 3.1456 47.2112 0.0778729 51.0757 0.0778729C54.9004 0.0778729 57.988 3.20536 57.988 7.08983C57.988 10.9145 54.8606 14.0221 51.0558 14.0221ZM46.2749 7.04998C46.2948 7.28903 46.3147 7.52807 46.3546 7.76712C46.8127 11.3329 50.3586 12.8269 53.1474 11.5121C55 10.5958 56.0558 8.56393 55.7769 6.41253C55.4183 3.40457 52.6693 1.55198 49.741 2.30895C47.6892 2.86672 46.2948 4.75915 46.2749 7.04998ZM64.6215 9.18146L62.3108 9.69939C62.3108 9.69939 62.2709 11.552 62.3705 12.3886C62.4104 12.787 62.6494 13.1854 62.8088 13.5639H59.5418C59.5418 13.5639 59.5219 13.544 59.5418 13.5241C60.0199 12.9265 60.1594 12.2293 60.1594 11.4922C60.1394 8.36473 60.1594 5.23724 60.1594 2.10975C60.1594 1.43245 59.9801 0.814925 59.6215 0.237235C59.6016 0.197395 59.5817 0.157554 59.5418 0.0778729C59.6614 0.0778729 59.741 0.0579526 59.8207 0.0579526C61.494 0.0579526 63.1872 0.0579526 64.8606 0.0579526C65.9761 0.0579526 67.0319 0.296996 67.9283 0.974287C69.1434 1.8707 69.6614 3.10576 69.5418 4.61971C69.243 7.12967 67.3506 8.64361 64.6215 9.18146ZM62.2908 7.48823C62.2908 7.48823 64.4223 6.95038 65.4781 6.6715C67.0717 6.27309 67.5697 4.69939 67.251 3.62369C66.992 2.70735 66.2351 2.16951 65.1992 2.14959C64.2829 2.12967 62.2709 2.16951 62.2709 2.16951V7.48823H62.2908ZM16.0956 13.5639C15.6574 12.9663 15.4781 12.3687 15.4781 11.6715C15.4781 8.42449 15.4781 5.19739 15.4781 1.95038C15.4781 1.31293 15.6375 0.735243 15.996 0.217315C16.0159 0.177475 16.0359 0.137634 16.0558 0.0778729H12.6693C13.1673 0.695403 13.3068 1.39261 13.3068 2.12967C13.2869 5.23724 13.2869 8.32488 13.3068 11.4325C13.3068 12.1894 13.1873 12.8866 12.7092 13.5042C12.7092 13.5042 12.7092 13.544 12.7291 13.544H16.0956M5.43825 0.0977932C5.89641 0.0977932 6.35458 0.117714 6.81275 0.217315C7.29084 0.316917 7.76892 0.436439 8.20717 0.675482C8.80478 0.994208 9.32271 1.39261 9.66135 2.01014C9.86056 2.36871 9.96016 2.7472 10 3.1456C10.0199 3.2452 10.0199 3.36473 10.0398 3.46433C10.0797 4.55994 9.32271 5.83484 8.68526 6.27309C9.16335 6.37269 10.0598 7.0699 10.3984 7.76712C10.5777 8.1456 10.7171 8.54401 10.757 8.96233C10.8167 9.69939 10.7769 10.4364 10.4781 11.1137C10.1594 11.8508 9.64143 12.4085 8.98406 12.8269C8.36653 13.2054 7.68924 13.4245 6.97211 13.544C6.55378 13.5838 6.1753 13.5838 5.79681 13.5838H0.0398406C0.0398406 13.5838 0.0199203 13.5639 0.0398406 13.544C0.517928 12.9464 0.657371 12.2492 0.657371 11.5121C0.63745 8.38465 0.657371 5.25716 0.657371 2.12967C0.657371 1.45237 0.478088 0.834845 0.119522 0.257156C0.059761 0.217315 0.0398406 0.177475 0 0.117714C0.119522 0.117714 0.199203 0.0977932 0.278884 0.0977932C1.95219 0.0977932 3.74502 0.0977932 5.43825 0.0977932ZM2.80876 6.33285C2.80876 6.33285 5.2988 5.73524 6.21514 5.43644C7.47012 5.05795 8.04781 4.08186 7.80876 3.22528C7.58964 2.48823 6.99203 2.04998 6.15538 2.04998C5.41833 2.04998 2.80876 2.0699 2.80876 2.0699V6.33285ZM2.80876 11.5121C2.80876 11.5121 5.41833 11.5321 6.15538 11.5321C7.4502 11.5321 8.28685 10.8747 8.48606 10.1376C8.7251 9.28106 8.36653 7.96632 7.11155 7.58783C6.1753 7.30895 2.80876 8.40457 2.80876 8.40457V11.5121ZM42.0319 13.5639C41.5936 12.9663 41.4143 12.3687 41.4143 11.6715C41.4143 8.42449 41.4143 5.19739 41.4143 1.95038C41.4143 1.31293 41.5737 0.735243 41.9323 0.217315C41.9522 0.177475 41.9721 0.137634 41.992 0.0778729H38.6056C39.1036 0.695403 39.243 1.39261 39.243 2.12967C39.243 3.70337 39.243 5.27708 39.243 6.85078H33.4064C33.4064 5.21732 33.4064 3.58385 33.4064 1.95038C33.4064 1.31293 33.5657 0.735243 33.9243 0.217315C33.9442 0.177475 33.9641 0.137634 33.9841 0.0778729H30.5976C31.0956 0.695403 31.2351 1.39261 31.2351 2.12967C31.2151 5.23724 31.2151 8.32488 31.2351 11.4325C31.2351 12.1894 31.1155 12.8866 30.6374 13.5042C30.6374 13.5042 30.6374 13.544 30.6574 13.544H34.0239C33.5857 12.9464 33.4064 12.3488 33.4064 11.6516C33.4064 10.7153 33.4064 9.77907 33.4064 8.84281H39.243C39.243 9.69939 39.243 10.556 39.243 11.4125C39.243 12.1695 39.1235 12.8667 38.6454 13.4842C38.6454 13.4842 38.6454 13.5241 38.6653 13.5241H42.0319M18.8845 12.6277C19.1633 12.6277 19.4024 12.5878 19.6016 12.6675C20.9363 13.1655 22.4502 13.5838 23.3068 13.5838C26.1554 13.5838 27.988 12.0301 27.988 9.59978C27.988 8.54401 27.6494 7.72728 26.9522 7.08983C26.255 6.45237 25.259 6.07389 24.4622 5.81492C24.2231 5.73524 23.9641 5.65556 23.6454 5.55596L23.4462 5.4962C22.6295 5.25716 21.0956 4.81891 21.0956 3.56393C21.0956 3.12568 21.3147 2.08982 23.3665 2.01014C24.4223 1.9703 25.5179 2.30895 27.4104 3.32488V0.655562C27.3705 0.635642 27.3506 0.655562 27.3108 0.655562C26.9522 0.655562 26.5737 0.635642 26.0359 0.476279C25.2988 0.277076 24.4024 0.0977932 23.4064 0.0977932C20.6574 0.0977932 18.9044 1.61174 18.9044 3.94241C18.9044 6.05397 20.259 6.93046 22.2908 7.60775C22.5697 7.68743 22.8287 7.76712 23.1275 7.86672C24.4422 8.2452 25.498 8.56393 25.498 9.79899C25.498 10.8946 24.6813 11.552 23.3466 11.5719C23.1076 11.5719 21.1155 11.2333 18.8845 9.77907V12.6277ZM90.6972 7.04998C90.6972 3.16552 87.6295 0.0380323 83.7849 0.0380323C79.9203 0.0380323 76.8327 3.08584 76.8327 6.95038C76.8327 10.6356 79.502 13.5838 83.0478 13.9424C84.004 17.4086 88.5857 19.2811 94.9602 19.0221C97.6096 18.9026 99.5817 18.0858 102.371 16.7313C102.649 16.5918 102.908 16.5321 103.247 16.5321V13.3846C101.853 15.3169 98.0478 16.8109 94.1633 16.9305C90.7968 17.0301 87.3705 16.054 85.3586 13.803C88.4064 13.0659 90.6972 10.3169 90.6972 7.04998ZM85.8366 11.4325C83.0478 12.7671 79.502 11.2532 79.0438 7.68743C79.004 7.44839 79.004 7.20935 78.9841 6.9703C79.004 4.69939 80.3984 2.78704 82.4701 2.24919C85.3984 1.4723 88.1275 3.34481 88.4861 6.35277C88.7649 8.52409 87.7092 10.556 85.8366 11.4325ZM122.57 8.2452C122.57 7.30895 123.307 6.73126 123.028 6.73126H119.98C119.701 6.73126 120.438 7.30895 120.438 8.2452C120.438 8.46433 120.418 10.3966 120.418 11.1735C120.418 11.3329 120.378 11.4125 120.219 11.4723C119.283 11.8109 118.327 11.8906 117.371 11.6516C115.12 11.1137 113.665 9.24122 113.625 6.93046C113.586 4.28106 115.737 1.8707 118.566 2.03006C119.622 2.08982 121.335 2.98624 122.052 3.76313C122.59 4.3209 122.57 4.24122 122.57 4.0221C122.57 2.98624 122.57 1.17349 122.57 0.396598C122.57 0.197395 122.151 0.715323 121.494 0.715323C120.817 0.715323 118.904 -0.280693 117.012 0.0778729C113.705 0.695403 111.414 3.60377 111.434 6.83086C111.454 8.88265 112.151 10.5958 113.665 11.9902C115.08 13.305 116.853 13.8627 118.586 13.8229C118.904 13.8229 119.243 13.803 119.582 13.7432C119.96 13.6835 120.359 13.6038 120.717 13.4842C121.155 13.3647 121.514 13.285 121.713 13.285C122.251 13.285 122.57 13.7034 122.57 13.544C122.57 12.8866 122.57 8.90257 122.57 8.2452ZM139.9 2.08982H144.522C145.498 2.08982 145.976 2.34879 146.295 2.46831C146.116 1.69142 145.936 0.874686 145.737 0.0579526H136.912C137.51 0.775084 137.59 1.53206 137.59 2.34879C137.57 5.4962 137.59 8.66353 137.59 11.8109C137.59 12.6476 137.032 13.4842 136.972 13.5639H145.757C145.936 12.7472 146.135 11.9305 146.315 11.1536C145.996 11.2731 145.518 11.5321 144.542 11.5321H139.92V7.80696H142.61C142.61 7.80696 144.343 7.78704 145.159 8.22528V5.297C144.343 5.73524 142.61 5.71532 142.61 5.71532H139.92V2.08982H139.9ZM109.283 13.5241C108.845 12.9265 108.665 12.3289 108.665 11.6317C108.665 8.38465 108.665 5.15755 108.665 1.91054C108.665 1.27309 108.825 0.695403 109.183 0.177475C109.203 0.137634 109.223 0.0977933 109.243 0.0380323H105.857C106.355 0.655562 106.494 1.35277 106.494 2.08982C106.474 5.19739 106.474 8.28504 106.494 11.3926C106.494 12.1496 106.374 12.8468 105.896 13.4643C105.896 13.4643 105.896 13.5042 105.916 13.5042H109.283M125.339 0.0380323C125.936 0.755164 126.016 1.51214 126.016 2.32887C125.996 5.47628 126.016 8.64361 126.016 11.791C126.016 12.6277 125.458 13.4643 125.398 13.544H134.183C134.363 12.7273 134.562 11.9105 134.741 11.1336C134.422 11.2532 133.944 11.5121 132.968 11.5121H128.347C128.347 8.36473 128.367 5.4962 128.347 2.32887C128.347 1.51214 128.426 0.755164 129.024 0.0380323H125.339ZM102.53 1.85078C102.53 0.994208 103.088 0.117714 103.127 0.0380323H99.7211C100.299 0.715323 100.378 1.49222 100.378 2.28903C100.359 4.48026 100.378 5.09779 100.378 7.28903C100.378 7.62767 100.359 7.96632 100.319 8.30496C100.199 9.10178 99.6414 10.2572 97.6693 10.2572C95.6972 10.2572 95.1394 9.10178 95.0199 8.30496C94.9801 7.96632 94.9602 7.62767 94.9602 7.28903C94.9602 5.09779 94.9602 4.48026 94.9602 2.28903C94.9602 1.4723 95.0398 0.715323 95.6175 0.0380323H92.2112C92.251 0.117714 92.8088 1.09381 92.8088 1.85078C92.8088 4.2213 92.7888 5.03803 92.8287 7.40855C92.8486 8.10576 92.9283 8.80297 93.1474 9.46034C93.6653 11.0141 94.9602 12.3089 97.6892 12.3089C100.418 12.3089 101.713 11.0141 102.231 9.46034C102.45 8.80297 102.55 8.08584 102.55 7.40855C102.55 5.03803 102.53 4.2213 102.53 1.85078ZM156.295 0.0380323C156.434 0.675482 156.235 1.4723 155.936 1.9703L154.024 6.15357L152.112 1.9703C151.813 1.45237 151.614 0.655562 151.753 0.0380323H148.048C148.147 0.117714 149.382 1.23325 149.781 1.85078L152.869 8.26512C152.869 9.59978 152.869 9.34082 152.869 11.7512C152.869 12.5878 152.311 13.4245 152.251 13.5042H155.797C155.737 13.4046 155.179 12.5878 155.179 11.7512V8.28504L158.267 1.8707C158.645 1.25317 159.88 0.137634 160 0.0579526H156.295V0.0380323Z" fill="#0E2300"/>
</svg>
