<svg width="281" height="126" viewBox="0 0 281 126" fill="none" xmlns="http://www.w3.org/2000/svg">
<path d="M200.052 47.8591C186.901 47.8384 176.655 37.4712 176.685 24.2073C176.711 11.2356 187.087 0.94202 200.121 0.955824C213.012 0.969629 223.391 11.5186 223.368 24.5846C223.345 37.3837 212.83 47.8798 200.049 47.8591H200.052ZM183.93 24.3637C184.009 25.1644 184.061 25.9674 184.165 26.7657C185.73 38.7481 197.645 43.8327 207.025 39.3555C213.322 36.3507 216.827 29.499 215.945 22.2355C214.719 12.1076 205.505 5.84724 195.653 8.44479C188.693 10.2808 183.986 16.6976 183.928 24.3637H183.93ZM245.676 31.5904L237.904 33.3436C237.904 33.3436 237.791 39.5764 238.074 42.4063C238.21 43.7683 239.043 45.0614 239.563 46.3912H228.537C228.535 46.3797 228.484 46.2923 228.51 46.2623C230.111 44.2423 230.569 41.9231 230.557 39.3877C230.507 28.8663 230.532 18.345 230.539 7.82359C230.539 5.55274 229.925 3.46825 228.719 1.54712C228.634 1.41137 228.567 1.26413 228.438 1.01794C228.814 0.994937 229.099 0.960426 229.384 0.960426C235.044 0.958125 240.706 0.958125 246.366 0.960426C250.116 0.960426 253.646 1.76799 256.706 4.03194C260.826 7.08044 262.566 11.1919 262.158 16.2881C261.296 24.6628 254.913 29.7567 245.68 31.5927L245.676 31.5904ZM237.853 25.8845C237.853 25.8845 245.045 24.0646 248.614 23.1627C253.952 21.8145 255.656 16.5159 254.616 12.906C253.733 9.84135 251.193 7.99845 247.694 7.95703C244.629 7.92022 237.853 8.03526 237.853 8.03526V25.8845ZM80.2259 39.9974C80.2397 29.0826 80.2374 18.1678 80.2259 7.253C80.2259 5.1179 80.7459 3.15765 81.9699 1.39297C82.055 1.27103 82.0987 1.11918 82.1747 0.955824H70.7652C72.454 3.05412 72.9026 5.35027 72.8911 7.84429C72.8497 18.2897 72.8428 28.7329 72.8957 39.1783C72.9095 41.7414 72.4908 44.1042 70.9079 46.1795C70.8872 46.2071 70.9401 46.2923 70.9562 46.3383H82.2966C80.8333 44.3481 80.2167 42.282 80.2213 39.9997L80.2259 39.9974ZM46.391 0.955824C47.9348 0.955824 49.4763 1.04785 50.9971 1.33315C52.626 1.63915 54.2067 2.0993 55.6837 2.86315C57.7107 3.9123 59.4363 5.30656 60.5499 7.34963C61.1964 8.53222 61.5783 9.80224 61.7232 11.1436C61.7624 11.5025 61.8176 11.8591 61.8337 12.2203C61.997 15.9015 59.4133 20.2063 57.2506 21.7041C58.8312 22.0331 61.8613 24.4005 63.0416 26.7634C63.672 28.0242 64.1344 29.3541 64.2564 30.7598C64.4749 33.2401 64.3553 35.6927 63.3315 38.0187C62.2547 40.4667 60.5475 42.3695 58.2905 43.7844C56.2037 45.0913 53.9122 45.8137 51.4918 46.1864C50.201 46.3866 48.908 46.3912 47.6058 46.3889H28.2081C28.2058 46.3774 28.1552 46.29 28.1805 46.2601C29.7818 44.24 30.2397 41.9208 30.2282 39.3854C30.1775 28.864 30.2029 18.3427 30.2098 7.82129C30.2098 5.55044 29.5955 3.46595 28.3899 1.54482C28.3047 1.40907 28.238 1.26183 28.1092 1.01564C28.4842 0.992637 28.7695 0.958125 29.0548 0.958125C34.7146 0.955824 40.7357 0.955824 46.3979 0.958125M37.5584 21.9917C37.5584 21.9917 45.9193 19.9624 49.0599 18.9961C53.2933 17.6938 55.2443 14.4567 54.4068 11.5531C53.6959 9.089 51.6528 7.60732 48.839 7.5728C46.3749 7.54289 37.5561 7.63492 37.5561 7.63492V21.9917H37.5584ZM37.5584 39.4291C37.5584 39.4291 46.3749 39.5211 48.8413 39.4912C53.2311 39.4912 56.0082 37.2457 56.7191 34.7816C57.5566 31.878 56.2911 27.479 52.0578 26.1744C48.9149 25.2081 37.5584 28.8962 37.5584 28.8962V39.4268V39.4291ZM167.563 39.9974C167.579 29.0849 167.574 18.1701 167.567 7.253C167.563 5.1179 168.085 3.15765 169.309 1.39297C169.39 1.27103 169.433 1.11688 169.509 0.955824H158.097C159.788 3.05412 160.237 5.35027 160.223 7.84199C160.203 13.1521 160.191 18.46 160.191 23.7655H140.561C140.561 18.2621 140.556 12.7587 140.552 7.253C140.547 5.1179 141.069 3.15765 142.293 1.39297C142.383 1.27103 142.427 1.11688 142.503 0.955824H131.096C132.782 3.05412 133.231 5.35027 133.222 7.84199C133.178 18.2874 133.173 28.7306 133.226 39.176C133.238 41.7391 132.817 44.1042 131.236 46.1795C131.215 46.2071 131.268 46.2923 131.284 46.3383H142.627C141.164 44.3481 140.55 42.282 140.55 39.9974C140.554 36.8384 140.559 33.6864 140.559 30.5275H160.203C160.207 33.4103 160.219 36.2932 160.23 39.176C160.242 41.7391 159.825 44.1042 158.245 46.1795C158.224 46.2071 158.277 46.2923 158.293 46.3383H169.631C168.172 44.3481 167.554 42.282 167.556 39.9974H167.563ZM91.7113 43.1586C92.6339 43.1586 93.4277 43.0344 94.1317 43.3013C98.6067 44.9969 103.701 46.3912 106.59 46.3912C116.159 46.3912 122.341 41.1294 122.341 32.9847C122.341 29.43 121.202 26.6622 118.86 24.5294C116.502 22.3874 113.145 21.099 110.483 20.2178C109.646 19.9417 108.778 19.6748 107.752 19.378L107.083 19.1801C104.326 18.3887 99.1842 16.9093 99.1842 12.6759C99.1842 11.1827 99.9319 7.68094 106.857 7.41175C110.405 7.27371 114.07 8.44479 120.45 11.8269V2.83554C120.337 2.79413 120.227 2.83554 120.096 2.83554C118.906 2.83554 117.599 2.73891 115.798 2.24195C113.327 1.56092 110.262 0.955824 106.961 0.955824C97.7347 0.955824 91.7757 6.0451 91.7757 13.9206C91.7757 21.0184 96.3404 23.9818 103.194 26.2435C104.119 26.5403 104.996 26.8025 106.029 27.1016C110.481 28.4016 113.994 29.4254 113.994 33.6151C113.994 37.3239 111.272 39.5487 106.717 39.5648C105.898 39.5648 99.198 38.3984 91.7067 33.5415V43.1586H91.7113ZM47.194 85.1958C47.2193 72.1275 36.8428 61.5785 23.9471 61.5647C10.9041 61.5509 0.527672 71.8422 0.500063 84.8139C0.472454 97.2495 9.47532 107.14 21.4347 108.344C24.6787 120.018 40.0593 126.338 61.5208 125.434C70.4408 125.059 77.09 122.302 86.4541 117.696C87.4112 117.225 88.2671 117.036 89.4175 117.036V106.475C84.7354 112.957 71.9248 118.011 58.8197 118.398C47.4792 118.734 35.9179 115.471 29.2043 107.849C39.4519 105.431 47.1686 96.1543 47.187 85.1958H47.194ZM30.8494 99.9666C21.4692 104.444 9.55125 99.3569 7.98673 87.3746C7.8855 86.5785 7.82798 85.7733 7.75205 84.9726C7.80957 77.3065 12.5146 70.8897 19.479 69.0537C29.3286 66.4584 38.5431 72.7165 39.7694 82.8467C40.6506 90.1079 37.1442 96.9618 30.8494 99.9666ZM154.517 89.2336C154.534 86.0839 157.03 84.1466 156.064 84.1627H145.77C144.799 84.1466 147.316 86.0954 147.316 89.2635L147.321 89.2589C147.316 89.9859 147.238 96.5086 147.268 99.1292C147.275 99.6882 147.102 99.9574 146.564 100.146C143.414 101.257 140.181 101.524 136.953 100.76C129.37 98.9658 124.47 92.6272 124.334 84.853C124.18 75.9237 131.468 67.7974 140.996 68.3818C144.53 68.5981 150.346 71.6075 152.76 74.2051C154.538 76.0595 154.517 75.7811 154.517 75.0448C154.517 71.5822 154.494 65.4829 154.538 62.8462C154.55 62.1537 153.158 63.9506 150.894 63.9506C148.63 63.9506 142.192 60.5961 135.821 61.8362C124.697 63.9299 116.987 73.7035 117.047 84.57C117.084 91.4561 119.493 97.2748 124.527 101.954C129.285 106.377 135.246 108.245 141.113 108.13C142.183 108.155 143.315 108.038 144.433 107.849C145.74 107.658 147.028 107.37 148.287 106.993C149.764 106.616 150.977 106.291 151.63 106.291C153.436 106.291 154.545 107.725 154.536 107.173C154.499 104.844 154.515 91.4124 154.515 89.229L154.517 89.2336ZM212.876 68.4509H228.459C231.724 68.4509 233.367 69.3183 234.432 69.6933C233.831 67.0635 233.208 64.3302 232.578 61.5647H202.875C204.881 63.9759 205.139 66.5573 205.127 69.2768C205.077 79.8971 205.097 90.5151 205.116 101.135C205.116 103.981 203.227 106.754 203.024 107.069H232.578C233.208 104.304 233.831 101.57 234.432 98.9405C233.367 99.3178 231.724 100.183 228.459 100.183H212.876V87.7404H221.937C221.937 87.7404 227.785 87.6622 230.528 89.1347V79.2506C227.785 80.7231 221.937 80.6449 221.937 80.6449H212.876V68.4486V68.4509ZM107.676 100.606C107.69 89.6915 107.688 78.7767 107.676 67.8619C107.676 65.7268 108.196 63.7665 109.42 62.0018C109.505 61.8776 109.551 61.728 109.627 61.5647H98.2179C99.9066 63.663 100.355 65.9591 100.344 68.4532C100.302 78.8986 100.295 89.3417 100.348 99.7872C100.362 102.35 99.9434 104.713 98.3605 106.788C98.3398 106.816 98.3927 106.901 98.4088 106.947H109.749C108.286 104.957 107.669 102.891 107.674 100.609L107.676 100.606ZM163.817 61.5647C165.823 63.9759 166.081 66.5573 166.07 69.2768C166.019 79.8971 166.04 90.5151 166.058 101.135C166.058 103.981 164.169 106.754 163.967 107.069H193.52C194.15 104.304 194.774 101.57 195.374 98.9405C194.309 99.3178 192.666 100.183 189.402 100.183H173.814C173.832 89.5626 173.865 79.8948 173.814 69.2745C173.8 66.555 174.06 63.9736 176.066 61.5624H163.815L163.817 61.5647ZM89.0217 61.5647H77.5663C79.4828 63.8654 79.7865 66.4285 79.7658 69.1503C79.7014 76.5104 79.7497 78.611 79.7336 85.9711C79.729 87.1123 79.6853 88.2604 79.5196 89.3809C79.1193 92.0543 77.2372 95.961 70.6272 95.961C64.0171 95.961 62.1351 92.052 61.7347 89.3809C61.5691 88.2604 61.5254 87.1123 61.5208 85.9711C61.5047 78.611 61.553 76.5104 61.4932 69.1503C61.4702 66.4285 61.7762 63.8654 63.6881 61.5647H52.2326C52.3822 61.8224 54.2389 65.1309 54.2389 67.6709C54.2389 75.6683 54.1583 78.4108 54.2826 86.4083C54.3194 88.7251 54.6461 91.1271 55.3616 93.3221C57.0711 98.554 61.4863 102.889 70.6249 102.889C79.7635 102.889 84.1786 98.554 85.8881 93.3221C86.6036 91.1271 86.9303 88.7251 86.9672 86.4083C87.0914 78.4108 87.0109 75.6683 87.0109 67.6709C87.0109 64.765 88.8676 61.8247 89.0171 61.5647H89.0217ZM268.055 61.5647C268.536 63.6975 267.869 66.3779 266.877 68.1012L260.417 82.1634L253.956 68.1012C252.965 66.3756 252.3 63.6952 252.778 61.5647H240.326C240.69 61.85 244.847 65.6163 246.129 67.6916L256.515 89.2589C256.496 93.773 256.512 92.855 256.528 100.993C256.528 103.839 254.639 106.609 254.437 106.929H266.389C266.187 106.609 264.298 103.839 264.298 100.993H264.289V89.3049L274.698 67.6916C275.979 65.6186 280.137 61.8523 280.5 61.5647H268.048H268.055Z" fill="#C6D8C5"/>
</svg>
