<?xml version="1.0" encoding="UTF-8"?>
<svg id="Layer_1" xmlns="http://www.w3.org/2000/svg" version="1.1" viewBox="0 0 78 42">
  <!-- Generator: Adobe Illustrator 29.5.0, SVG Export Plug-In . SVG Version: 2.1.0 Build 137)  -->
  <defs>
    <style>
      .st0 {
        fill: #4f2c1d;
        fill-rule: evenodd;
      }
    </style>
  </defs>
  <path class="st0" d="M61.8,34.8c0,.1,0,.2-.1.3h0c-.2.2-.2.4-.2.6s0,.4.1.6v.4c0,.2,0,.4-.1.6v.5c0,.1,0,.2-.1.2,0,.1-.1.1-.1.2-.1,0-.1.1-.2.1-.4.1-.7,0-1.1,0-.2,0-.2-.1-.2-.3-.1,0-.3,0-.4-.1-.3-.1-.4-.2-.3-.4.1-.3.2-.6.3-.9.1-.2.2-.3.2-.5,0-.1.1-.1,0-.2q0-.1-.1-.2c-.3-.3-.4-.7-.5-1-.1-.2-.2-.4-.3-.6-.1-.2-.2-.3-.3-.4-.1,0-.1-.1-.2-.1-.4-.3-.8-.6-1.3-.7-.1,0-.2-.1-.2-.1-.4-.3-.8-.4-1.3-.5-.3-.1-.6-.1-.9-.2-.2,0-.3-.1-.5-.2-.4-.1-.8-.3-1.1-.5s-.6-.4-.9-.6c-.4-.3-.7-.6-1.1-.8-.1-.1-.3-.2-.4-.3-.3-.2-.5-.4-.8-.5l-.1-.1v.3c0,.1,0,.2.1.3,0,.1.1.2.2.3.2.3.2.6.1,1,0,.2-.1.3-.3.4-.3.2-.7.4-1,.6-.4.3-.8.5-1.2.8-.3.2-.5.4-.7.6l-.6.6q-.1.1-.1.2c0,.1-.1.2-.1.3-.1.1-.2.1-.3,0l-.1-.1c-.2-.2-.5-.1-.6.1-.1.2-.1.3-.2.5-.1.2-.1.4-.2.5,0,.1-.1.2-.2.3-.1.1-.2.1-.3.1-.3.1-.6.1-.9,0-.2,0-.3-.1-.5-.3q-.1-.1-.1-.2v-.3c0-.2.1-.4.3-.5.1-.1.2-.3.3-.4l.3-.3c.2-.1.4-.3.5-.5s.2-.4.3-.5c.2-.2.5-.3.7-.4.5-.2.9-.4,1.2-.8.3-.3.5-.6.6-.9.1-.4.1-.8,0-1.2-.1-.3-.3-.5-.5-.7s-.4-.4-.7-.6c0,0-.1,0-.1.1-.4.2-.7.5-1.1.7-.3.2-.5.3-.8.5-.2.2-.5.3-.8.5h-.1c-.3.1-.4,0-.4-.3v-.2c0-.2-.1-.3-.3-.4-.1,0-.2,0-.3-.1-.4-.1-.8-.1-1.2-.2s-.7-.1-1.1-.2c-.5-.1-1-.2-1.4-.3-.3-.1-.6-.1-.9-.1h-.2c0,.3.1.5.2.8.2.6.5,1.1,1,1.5.2.2.4.6.5.9,0,.2.1.3.2.5,0,.1.1.1.1.2.1.2,0,.3-.2.4h-.1c0,.1-.1.3-.1.4-.1.2,0,.4.1.6.1.1.1.2.1.3,0,.2,0,.4-.1.7,0,.1,0,.2-.1.2,0,.1-.1.1-.2.2-.4.2-.8.4-1.2.6-.2.1-.4.2-.7.1-.2,0-.3-.1-.3-.4s.2-.5.3-.7l.2-.2c0-.1.1-.2.1-.3s0-.2.1-.3c.2-.5.2-.4-.1-.9-.1-.2-.2-.4-.2-.6s-.1-.3-.1-.5c-.1-.5-.2-.9-.5-1.2-.2-.3-.4-.6-.7-.8-.3-.2-.6-.5-.9-.8-.1-.1-.1-.2-.2-.3l-.1-.1h-1.4c-.1,0-.2,0-.2.1-.7.5-1.5,1-2.2,1.5-.6.4-1.1.8-1.6,1.3-.1.2-.3.3-.5.5-.3.3-.6.7-.9,1.1-.2.3-.2.7-.3,1.1-.1.4-.1.7-.1,1.1v.8h-.2c-.2,0-.4,0-.5.1v.2c0,.1.1.2.2.3,0,.1.1.1.1.2.1.2.2.4.2.7v.4c-.1.1-.1.2-.2.3-.3.3-.7.6-1.1.8-.2.1-.5.3-.8.3h-.4c-.2,0-.3-.1-.3-.3q-.1,0-.2-.1c-.2-.1-.2-.2-.1-.3.1-.2.2-.3.3-.4.1-.1.2-.3.3-.4.1-.2.2-.5.2-.7s0-.5.2-.7v-.1c0-.2.1-.5,0-.7-.2-.3-.1-.6,0-.9.2-.4.4-.7.6-1,.4-.9.8-1.8,1-2.7,0-.3.1-.6.2-.9s.2-.5.5-.7c.2-.1.3-.2.4-.4.2-.2.4-.5.5-.7.4-.7.8-1.3,1.2-2,0,0,0-.1.1-.1v-.2c-.2-.3-.3-.6-.4-.9-.2-.4-.4-.8-.7-1.2-.5-.8-1.1-1.6-1.7-2.3-.3-.4-.6-.7-.9-1.1-.3-.5-.6-1-.8-1.5-.1-.2-.1-.5-.2-.7-.1-.4-.2-.7-.4-1.1-.1-.3-.2-.5-.3-.7-.1-.2-.2-.4-.2-.6,0-.1-.1-.3-.2-.4-.3-.3-.7-.6-1.1-.7-.3-.1-.6-.1-.8,0-.2,0-.4.1-.6.2-.5.2-1.1.3-1.6.2-.2,0-.3,0-.5-.1-.2-.2-.5-.3-.7-.5-.1-.1-.2-.1-.1-.3l-.1-.1c-.2-.1-.3-.3-.4-.5s-.2-.4-.3-.7c-.1-.2-.1-.4-.1-.6s.1-.3.2-.4c.2-.2.4-.3.5-.5.1-.1.3-.2.4-.4.5-.4,1.1-.8,1.7-1.2.2-.1.5-.3.7-.5,0,0,.1,0,.1-.1v-.1c0-.2.1-.3.3-.5l.1-.1c0-.1.1-.2.1-.3,0-.2.1-.3.2-.4,0,0,.1,0,.1-.1v-.1c-.1-.2,0-.3.1-.5,0-.1.1-.2.2-.3.1-.1.2-.2.4-.3.1-.1.2-.1.3-.1h0c.1-.2.3-.2.4-.2h.1c.1.1.2,0,.3,0,.1-.1.2-.1.3-.2-.2-.2-.5-.5-1-.7-.4-.2-.7-.4-.9-.7,0,0-.1-.1-.1-.2-.2-.3-.3-.7-.4-1.1,0,0,0-.5.1-.5s.3.3.4.5c.2.2.8.6,2,.9,1,.2,1.6.3,2.3,1.8.1.1.3.3.5.4.1,0,.2.1.2.1.3.1.6.3.7.7,0,.1,0,.3.1.4q0,.1.1.2c.1.2.3.3.4.4.1,0,.1.1.2.1.2.1.3.2.5.3.3.1.5.3.8.4.3.1.5.3.8.4.2.1.4.2.6.4.1.1.2.1.2.2.2.1.3.2.5.3.1.1.2.2.3.2.2.1.4.2.5.4.1.1.2.2.3.2.5.2,1.1.5,1.6.7.4.1.7.2,1.1.3.6.2,1.2.5,1.7.9.2.2.4.4.5.6.3.4.7.7,1,1.1.1.2.3.3.5.3.3.1.7.2,1,.4.5.2,1.1.4,1.6.7.2.2.5.3.7.5.3.2.7.5,1,.6.5.2,1.1.4,1.7.4h1.5c.9.1,1.7.2,2.5.3.9.1,1.8.3,2.6.7.1,0,.2.1.3,0,.5-.4,1-.6,1.5-.9.7-.4,1.4-.6,2.1-.7.9-.2,1.7,0,2.4.6.5.3.8.8,1,1.3s.3,1.1.4,1.6c.1.6.2,1.3.4,1.9,0,.1.1.1.1.2.1.2.1.3.2.5.1.3.1.6,0,.8,0,.2-.1.4-.1.5s-.1.1-.2.1-.1-.1-.1-.2-.1-.1-.1-.2c0-.2-.1-.4-.2-.7v-.1c-.1-.2-.1-.4-.2-.6-.1-.1-.1-.3-.2-.4-.1-.5-.2-.9-.3-1.4-.1-.6-.3-1.1-.5-1.6-.2-.3-.4-.6-.7-.9-.2-.1-.4-.3-.6-.3-.3,0-.6-.1-.8,0-.3,0-.7.1-.9.3-.2.1-.3.3-.5.4-.3.2-.5.5-.6.8.1,0,.1.1.2.1.4.3.8.7,1.1,1.1.1.2.3.5.4.7.2.5.4,1,.5,1.5.1.3.1.6.2,1,0,.4.1.9.1,1.3v2.5c0,.2.1.3.1.5.3.5.8.9,1.2,1.3.3.2.6.3.9.4.3.1.5.1.8.1.4.1.6.3.8.7.1.3.2.7.3,1,0,.2.1.5.3.7.3.4.5.8.9,1.2.2.2.3.4.5.6.1.1.2.3.3.4-.8-.2-.7-.2-.7-.1Z"/>
</svg>