<?xml version="1.0" encoding="UTF-8"?>
<svg id="Layer_1" data-name="Layer 1" xmlns="http://www.w3.org/2000/svg" width="13.411mm" height="14.177mm" viewBox="0 0 38.017 40.186">
  <defs>
    <style>
      .cls-1 {
        fill: #fff;
      }
    </style>
  </defs>
  <path class="cls-1" d="M8.418,3.89c-.022-.045-.028-.096-.015-.144l.214-.653c.018-.047,.051-.087,.093-.115l1.388-.807c.045-.023,.096-.032,.147-.024l.689,.136c.048,.013,.091,.043,.118,.084l.335,.576c.022,.038,.009,.086-.029,.109l-.719,.417c-.038,.022-.087,.009-.109-.029l-.122-.21c-.021-.038-.07-.051-.108-.03h0l-.783,.456c-.038,.021-.051,.069-.029,.107h0l1.618,2.788c.022,.038,.071,.051,.109,.029h0l.783-.455c.037-.022,.05-.07,.029-.108l-.136-.238c-.022-.038-.009-.087,.029-.109l.718-.417c.038-.022,.087-.009,.109,.029l.354,.609c.022,.044,.027,.096,.014,.144l-.227,.659c-.019,.047-.052,.087-.095,.115l-1.388,.807c-.045,.023-.097,.032-.147,.024l-.671-.136c-.048-.013-.09-.043-.118-.084l-2.051-3.53Zm7.683,1.766l.821-.147c.043-.007,.072-.048,.065-.091v-.002l-.919-5.121c-.008-.043-.049-.072-.092-.064l-.821,.147c-.043,.008-.072,.049-.064,.093l.918,5.121c.008,.043,.049,.072,.093,.064h0ZM20.068,.983l.817,.119c.043,.006,.074,.045,.068,.089h0l-.606,4.17c-.006,.044,.025,.084,.068,.09l.826,.12c.043,.006,.083-.024,.09-.067h0l.606-4.17c.005-.043,.044-.074,.087-.069h.003l.817,.119c.043,.006,.083-.023,.09-.066v-.002l.12-.822c.006-.044-.024-.084-.068-.09L20.213,0c-.043-.006-.083,.023-.09,.066h0l-.12,.824c-.008,.043,.02,.084,.063,.092h.001Zm5.07,5.922l.736,.415c.038,.021,.087,.007,.108-.031l.893-1.582c.027-.045,.061-.086,.1-.121l2.605-2.246c.008-.005,.014-.013,.018-.021,.008-.017,.006-.037-.005-.053-.005-.008-.013-.014-.021-.017l-.777-.438c-.042-.021-.092-.016-.128,.014l-1.443,1.305c-.033,.03-.052,.019-.044-.024l.364-1.915c.006-.046-.015-.092-.055-.117l-.749-.422c-.015-.011-.036-.013-.053-.005-.008,.004-.016,.01-.021,.018-.005,.008-.009,.017-.009,.026l-.599,3.37c-.01,.052-.028,.101-.053,.148l-.896,1.589c-.011,.019-.013,.042-.007,.063,.007,.021,.022,.038,.041,.048l-.003-.002ZM3.526,15.816c.036,.035,.057,.082,.06,.131v1.382c-.002,.05-.024,.097-.06,.132l-.112,.099c-.039,.031-.086,.049-.136,.053h-.511c-.05-.003-.097-.021-.136-.052l-.111-.098c-.036-.036-.057-.085-.059-.136v-1.382c.003-.05,.024-.097,.059-.132l.111-.099c.039-.031,.086-.05,.136-.053h.511c.05,.003,.097,.021,.136,.052l.112,.103Zm-.302,.287c0-.044-.035-.079-.079-.079h-.253c-.044,0-.079,.035-.079,.079h0v1.071c0,.044,.035,.079,.079,.079h.253c.044,0,.079-.035,.079-.079v-1.071Zm2.614-.367c.015-.02,.01-.049-.01-.063-.01-.007-.022-.01-.035-.008h-.242c-.048,.003-.091,.03-.114,.071l-.317,.652c-.019,.039-.035,.035-.035-.008v-.635c0-.044-.036-.08-.08-.08h-.204c-.044,0-.08,.036-.08,.08v1.79c0,.044,.036,.08,.08,.08h.204c.044,0,.08-.036,.08-.08v-.635c0-.044,.016-.048,.035-.008l.317,.651c.023,.042,.066,.069,.114,.072h.242c.025,.003,.048-.016,.05-.041,.001-.01-.001-.019-.006-.027l-.408-.832c-.02-.046-.02-.097,0-.143l.408-.835Zm-1.298,2.851c-.039-.031-.086-.049-.136-.052h-.483c-.05,.003-.097,.021-.136,.053l-.111,.099c-.035,.035-.056,.082-.059,.132v1.383c.003,.05,.024,.097,.059,.132l.111,.098c.039,.031,.086,.05,.136,.053h.482c.05-.003,.097-.021,.136-.052l.116-.099c.036-.035,.057-.082,.06-.131v-.155c0-.044-.036-.08-.08-.08h-.204c-.043,0-.079,.034-.08,.077v.002c0,.044-.035,.079-.079,.079h-.229c-.044,0-.079-.035-.08-.079h0v-1.071c0-.044,.035-.08,.079-.08h.229c.042-.002,.078,.031,.08,.073h0c.002,.042,.038,.075,.08,.073h.204c.032,0,.061-.019,.073-.048,.004-.01,.006-.02,.006-.03v-.142c-.003-.05-.024-.097-.06-.132l-.116-.101Zm28.799-1.257v-1.586c0-.032-.019-.061-.049-.074-.01-.004-.02-.006-.03-.006h-.204c-.032,0-.061,.02-.073,.049-.004,.01-.006,.02-.006,.03v1.429c0,.044-.036,.079-.08,.079h-.245c-.021,0-.041-.008-.056-.023-.015-.015-.024-.035-.024-.056v-1.429c0-.032-.019-.062-.049-.074-.01-.004-.02-.006-.03-.006h-.201c-.044,0-.079,.036-.08,.08v1.587c.003,.05,.024,.097,.06,.132l.112,.099c.039,.031,.086,.049,.136,.053h.497c.051-.002,.1-.021,.14-.052l.116-.101c.037-.033,.061-.079,.065-.129v-.002h0Zm2.053,.231l.111-.098c.036-.036,.057-.085,.059-.136v-.588c-.003-.05-.024-.097-.059-.132l-.111-.099c-.039-.031-.087-.049-.136-.052h-.335c-.021,0-.042-.009-.056-.024-.015-.015-.023-.035-.023-.056v-.272c0-.043,.035-.079,.078-.079h.206c.042-.002,.077,.031,.079,.073h0c.002,.042,.037,.075,.08,.074h.204c.044,0,.08-.036,.08-.08h0v-.144c-.002-.051-.023-.1-.059-.136l-.111-.098c-.039-.031-.087-.049-.136-.052h-.463c-.05,.003-.097,.021-.136,.052l-.113,.1c-.036,.035-.057,.082-.06,.131v.587c.003,.05,.024,.097,.06,.132l.113,.1c.039,.031,.086,.049,.136,.052h.333c.044,0,.079,.036,.079,.08v.272c0,.021-.008,.041-.023,.056-.015,.015-.035,.023-.056,.023h-.204c-.043,0-.079-.034-.08-.077h0c0-.033-.02-.062-.049-.074-.01-.004-.02-.006-.03-.006h-.204c-.044,0-.08,.036-.08,.08h0v.154c.003,.05,.024,.097,.06,.132l.113,.099c.039,.031,.086,.049,.136,.052h.463c.049,0,.096-.015,.136-.043v-.002h0Zm-1.234,1.052l.359,1.793c.002,.01,.002,.019,0,.029-.006,.03-.034,.051-.064,.049h-.208c-.046-.001-.085-.034-.095-.078l-.056-.278c-.01-.044-.049-.076-.095-.078h-.219c-.045,.002-.084,.033-.095,.077l-.056,.279c-.01,.045-.049,.077-.095,.078h-.209c-.02,0-.039-.008-.051-.023-.012-.015-.017-.036-.012-.055l.358-1.793c.01-.045,.049-.077,.095-.078h.347c.046,.002,.086,.035,.095,.08v-.002h0Zm-.167,.999l-.086-.427c-.009-.043-.023-.043-.031,0l-.085,.427c-.003,.01-.003,.02,0,.029,.007,.03,.034,.05,.064,.049h.074c.019,0,.037-.009,.049-.024,.012-.015,.017-.034,.013-.053l.002-.002ZM2.47,34.874c-.04-.031-.089-.049-.14-.052H.718c-.05,.003-.097,.021-.136,.052l-.522,.459c-.036,.035-.058,.082-.06,.132v4.08c.003,.05,.024,.097,.059,.132l.512,.454c.039,.031,.086,.05,.136,.053h1.623c.051-.003,.1-.021,.139-.053l.522-.455c.036-.035,.057-.082,.06-.131v-2.459c0-.043-.035-.079-.078-.079H1.465c-.044,0-.079,.035-.079,.079v.834c0,.021,.008,.041,.023,.056,.015,.015,.035,.023,.056,.023h.517c.021,0,.041,.008,.056,.023,.015,.015,.023,.035,.024,.056v1.036c0,.044-.036,.08-.08,.08h-.913c-.032,0-.061-.02-.074-.049-.004-.01-.006-.02-.006-.03v-3.221c0-.032,.019-.061,.049-.073,.01-.004,.02-.006,.03-.006h.913c.021,0,.041,.008,.056,.023,.015,.015,.023,.035,.024,.056v.255c0,.044,.035,.079,.079,.079h.831c.043,0,.079-.034,.08-.077v-.682c-.003-.05-.024-.097-.06-.132l-.522-.461h0Zm6.841,.026l1.041,5.205c.008,.034-.012,.068-.046,.077-.006,.001-.012,.002-.018,.002h-.851c-.046-.001-.085-.034-.095-.078l-.204-1.039c-.01-.044-.049-.076-.095-.077h-.878c-.046,.001-.085,.033-.095,.077l-.204,1.039c-.01,.045-.049,.077-.095,.078h-.851c-.02,0-.039-.008-.051-.023-.013-.015-.017-.036-.013-.055l1.041-5.205c.011-.044,.049-.076,.095-.078h1.225c.047,0,.088,.034,.097,.08v-.002h0Zm-.408,3.021l-.289-1.448c-.009-.043-.023-.043-.031,0l-.289,1.448c-.009,.033,.011,.068,.045,.076,.006,.002,.012,.002,.018,.002h.483c.02,.001,.039-.007,.051-.022,.013-.015,.018-.035,.013-.054v-.002Zm8.541,2.188c.009,.017,.007,.037-.003,.053-.005,.008-.013,.014-.021,.018-.008,.004-.018,.005-.027,.004h-.903c-.047-.002-.089-.031-.108-.074l-.786-2.036c-.019-.044-.061-.073-.108-.074h-.136c-.032,0-.061,.019-.074,.049-.004,.01-.006,.02-.006,.03v2.027c0,.021-.008,.041-.023,.056-.015,.015-.035,.023-.056,.023h-.834c-.043,0-.079-.035-.079-.078v-5.204c0-.043,.035-.079,.079-.079h2.22c.05,.003,.097,.021,.136,.052l.513,.457c.036,.036,.057,.085,.059,.136v1.81c-.002,.051-.023,.099-.058,.136l-.56,.523c-.033,.034-.044,.083-.029,.128l.804,2.042h0Zm-1.142-4.22c0-.032-.019-.061-.049-.073-.01-.004-.02-.006-.03-.006h-.868c-.021,0-.041,.008-.056,.023-.015,.015-.023,.035-.023,.056v1.039c0,.021,.008,.041,.023,.056,.015,.015,.035,.023,.056,.023h.869c.044,0,.079-.036,.079-.08v-1.039h0Zm8.106-.551c.036,.035,.057,.082,.059,.132v4.073c-.003,.05-.024,.097-.059,.132l-.523,.458c-.039,.031-.087,.049-.136,.052h-2.278c-.043,0-.079-.035-.079-.078v-5.204c0-.043,.035-.079,.079-.079h2.278c.05,.003,.097,.021,.136,.052l.523,.461h0Zm-.93,.555c0-.044-.035-.079-.079-.079h-.937c-.044,0-.079,.035-.079,.079h0v3.224c0,.021,.008,.041,.023,.056,.015,.015,.035,.023,.056,.024h.937c.021,0,.041-.008,.056-.024,.015-.015,.023-.035,.023-.056v-3.223Zm7.411,3.303h-1.433c-.021,0-.041-.008-.056-.023-.015-.015-.023-.035-.023-.056v-1.036c0-.044,.036-.079,.079-.079h1.198c.044,0,.079-.035,.08-.079h0v-.835c0-.044-.036-.079-.08-.079h-1.198c-.044,0-.079-.036-.08-.08v-1.036c0-.021,.008-.041,.024-.056,.015-.015,.035-.023,.056-.023h1.414c.021,0,.041-.008,.056-.024,.015-.015,.024-.035,.024-.056v-.831c0-.044-.036-.079-.08-.079h-2.404c-.021,0-.041,.008-.056,.023-.015,.015-.023,.035-.023,.056v5.203c0,.044,.035,.079,.079,.08h2.425c.044,0,.079-.035,.08-.079h0v-.831c0-.044-.036-.079-.08-.079h-.001Zm7.126,.903v-5.196c0-.044-.036-.079-.079-.079h-.824c-.043,0-.079,.034-.08,.077v2.656c0,.043-.013,.045-.029,.005l-1.028-2.664c-.02-.043-.061-.071-.108-.073h-.903c-.043,0-.079,.034-.08,.077v5.204c0,.044,.035,.079,.079,.08h.828c.044,0,.079-.035,.079-.079h0v-2.65c0-.044,.013-.046,.029-.005l1.025,2.661c.019,.043,.061,.072,.108,.074h.906c.026,.001,.052,0,.078-.003-.002-.028-.002-.055,0-.083h-.001ZM13.028,17.707c.204,2.497,3.286,4.096,5.694,4.049-.016-1.066-.218-2.077-.976-2.872-1.311-1.374-2.989-1.318-4.717-1.175h0Zm11.959,.895c.103-.267,.147-.556,.224-.86-.896-.143-1.72-.156-2.54-.01-2.081,.37-3.199,1.832-3.173,4.028,1.076,.095,2.859-.468,3.948-1.255,.687-.493,1.237-1.103,1.543-1.901h-.001Zm-8.242-1.391l.545-1.157c-.865-1.015-1.813-1.928-3.168-2.346-.38,1.068-.308,2.11-.121,3.098l2.744,.405Zm4.263-1.25c-.048,.076-.058,.17-.028,.255,.162,.357,.341,.705,.486,.996l2.737-.408c.185-1.004,.272-2.045-.13-3.101-1.292,.438-2.234,1.275-3.064,2.261h-.001Zm-1.782-.41c-.084-.037-.18-.033-.26,.01-.671,.428-1.209,.967-1.463,1.75-.076,.233-.057,.372,.164,.521,.541,.375,.974,.886,1.253,1.482,.055,.112,.11,.222,.191,.385,.345-.84,.835-1.474,1.523-1.956,.068-.048,.11-.211,.089-.302-.2-.86-.782-1.43-1.496-1.889v-.003Zm-3.745-2.045c.446,.276,.865,.595,1.253,.864,.361-.613,.718-1.219,1.066-1.827,.043-.075,.08-.197,.048-.264-.387-.81-.859-1.556-1.655-2.116-.617,.708-.921,1.523-1.124,2.382-.152,.638-.135,.625,.41,.962l.002-.003Zm7.251-2.208c-.204-.387-.434-.759-.671-1.167-.817,.591-1.299,1.331-1.691,2.135-.036,.074,.005,.213,.054,.298,.34,.599,.691,1.192,1.058,1.82,.279-.208,.602-.416,.885-.669,.283-.253,.817-.219,.85-.648,.031-.364-.131-.749-.231-1.115-.061-.226-.147-.444-.257-.651l.002-.003Zm-1.964,3.56c-.257-.92-.753-1.755-1.436-2.422-.173-.168-.289-.159-.459,0-.62,.593-1.027,1.32-1.344,2.103-.215,.531-.185,.604,.295,.937,.329-.23,.654-.453,.975-.681,.204-.147,.401-.154,.613,0,.327,.238,.662,.463,1.071,.749,.104-.238,.336-.503,.284-.683l.002-.003Zm-2.262-3.115c.192-.219,.391-.332,.592-.34,.204,.008,.399,.12,.592,.34,.295-.444,.57-.851,.836-1.265,.034-.063,.042-.136,.021-.204-.304-.87-.701-1.682-1.446-2.306v0c-.749,.624-1.143,1.436-1.446,2.306-.021,.068-.013,.142,.021,.204,.258,.417,.533,.823,.828,1.268l.002-.003Zm-1.31,15.927l-5.33,3.063c-.789,.451-1.004,.817-.712,1.275,.272,.432,.721,.42,1.429-.054,2.786-1.877,3.389-2.051,6.114-3.82l-.617-.425c-.263-.184-.609-.198-.886-.038h.002Zm1.906-2.555c.191,0,.372-.083,.496-.228,.124-.145,.179-.336,.15-.525l-.191-2.024h-.911l-.191,2.024c-.055,.357,.189,.69,.545,.746,.032,.005,.063,.007,.095,.008h.005Zm12.368-5.634c-.216,.082-.399,.216-.593,.334l-11.758,6.749c-1.273-.67-2.549-1.337-3.751-2.118-.671-.436-1.052-1.328-1.545-2.027-.32-.452-.497-1.109-.924-1.366-2.164-1.301-1.624-.936-3.442-1.758-.368-.166-.754-.292-1.15-.374-.23-.048-.458-.093-.494-.031l2.233,1.26,1.817,1.025v.01c-.089,.178-.3,.256-.483,.178-.54-.23-.945-.402-1.282-.548-.932-.404-1.357-.613-2.758-1.303-.038-.019-.084-.003-.103,.036-.016,.034-.006,.074,.024,.096,1.339,.93,1.757,1.131,2.695,1.701,.272,.167,.59,.366,.987,.623,.086,.061,.107,.18,.046,.267-.055,.078-.159,.104-.244,.06h-.004c-.893-.503-1.403-.745-1.906-.975-.529-.241-1.053-.468-2.006-.965-.038-.019-.084-.004-.103,.034-.017,.033-.007,.074,.023,.096,1.33,.964,1.77,1.083,2.686,1.73,.272,.191,.585,.429,.975,.749,.154,.125,.184,.348,.068,.509h-.01l-1.065-.6-2.982-1.68c-.043,.068,.15,.29,.317,.495,.263,.323,.574,.602,.924,.828l.14,.091c1.778,1.149,.969,.585,3.042,1.846,.426,.259,1.089,.11,1.639,.183,.848,.113,1.816,.035,2.513,.428,1.715,.962,3.303,2.146,4.943,3.24,2.851,1.902,2.768,1.744,5.612,3.656,.454,.306,.845,.476,1.211,.261,.057-.034,.11-.074,.159-.12,.054-.051,.094-.115,.115-.187,.165-.558-.183-.87-.742-1.172-3.015-1.633-2.751-1.782-5.76-3.424l-.21-.114c.088-.017,.178-.024,.268-.022,.754,.025,1.77-.36,2.778-.756,2.391-.939,6.666-3.492,8.223-6.82,.017-.036,.01-.078-.019-.106-.028-.028-.071-.036-.107-.019Z"/>
</svg>