<?xml version="1.0" encoding="UTF-8"?>
<svg id="Layer_1" xmlns="http://www.w3.org/2000/svg" version="1.1" viewBox="0 0 56 42">
  <!-- Generator: Adobe Illustrator 29.5.0, SVG Export Plug-In . SVG Version: 2.1.0 Build 137)  -->
  <defs>
    <style>
      .st0 {
        fill: #4f2c1d;
      }
    </style>
  </defs>
  <g id="Layer_11" data-name="Layer_1">
    <path class="st0" d="M9.4,23.8h-4.5s-.1,0-.1-.1v-.6s0-.1.1-.1h4.5v.7h0v.1ZM8.2,17.8h1.2v-.7h-1.2s-.1,0-.1.1v.6s0,.1.1.1h0v-.1ZM6.7,20.7h2.8v-.7h-2.8s-.1,0-.1.1v.6s0,.1.1.1v-.1ZM10,28.5c0-.2,0-.5-.1-.7h0c-1.2,0-2.4.1-3.7.2,0,0-.1,0-.1.2v.6s0,.1.1.1c1.3-.1,2.5-.2,3.8-.3h0v-.1ZM10.9,34.1c0-.2,0-.5-.1-.7h0c-.5,0-1,.1-1.5.2,0,0-.1,0-.1.2v.6s0,.1.1.1c.5,0,1.1-.1,1.6-.2h0v-.2ZM10.5,31.4c0-.2,0-.5-.1-.7h0c-.8,0-1.6.1-2.5.2,0,0-.1,0-.1.2v.6s0,.1.1.1c.9,0,1.7-.2,2.6-.3h0v-.1ZM51.1,22.9h-4.5v.7h4.5s.1,0,.1-.1v-.6s0-.1-.1-.1h0v.1ZM46.6,17.8h1.2s.1,0,.1-.1v-.6s0-.1-.1-.1h-1.2v.7h0v.1ZM46.6,20.7h2.8s.1,0,.1-.1v-.6s0-.1-.1-.1h-2.8v.7h0v.1ZM49.9,28c-1.2,0-2.4-.2-3.7-.2h0c0,.2,0,.5-.1.7h0c1.3,0,2.5.2,3.8.3,0,0,.1,0,.1-.1v-.6s0-.1-.1-.2h0v.1ZM46.8,33.5c-.5,0-1-.1-1.5-.2h0c0,.2,0,.5-.1.7h0c.5,0,1.1.1,1.6.2,0,0,.1,0,.1-.1v-.6s0-.1-.1-.2v.2ZM48.2,30.9c-.8,0-1.6-.2-2.5-.2h0c0,.2,0,.5-.1.7h0c.9,0,1.7.2,2.6.3,0,0,.1,0,.1-.1v-.6s0-.1-.1-.2h0v.1ZM18.2,13s0,.1.2.1h1.4s.2,0,.1-.1c-.2-1.3-.3-2.6-.5-3.9,0,0,0-.1-.2-.1-.5,0-1,.1-1.5.2,0,0-.2,0-.1.2.2,1.2.4,2.4.6,3.6ZM23.1,5.9c.2,2.3.6,5,.8,7.3,0,0,0,.1.2.1h1.5s.2,0,.2-.1c-.1-2.5-.3-5.3-.5-7.8,0,0,0-.1-.2-.1-.6.1-1.3.3-1.9.4,0,0-.2,0-.1,0s0,0,0,.1v.1ZM21,13.1s0,.1.2.1h1.6s.2,0,.1-.1c-.2-2.2-.5-4.4-.7-6.6,0,0,0-.1-.2-.1-.6.1-1.1.2-1.7.4,0,0-.2,0-.1.2.3,2,.5,4.1.8,6.1h0ZM39.1,13.1h1.2s.2,0,.2-.1c.1-.5.3-1.1.4-1.6,0,0,0-.1-.1-.2-.4,0-.9,0-1.3-.1,0,0-.2,0-.2.1,0,.6-.2,1.2-.3,1.9,0,0,0,.1.1.1h0v-.1ZM15.6,12.9s.1.1.2.1h1.2s.2,0,.1-.1c-.1-.6-.2-1.3-.3-1.9,0,0,0-.1-.2-.1-.5,0-.9,0-1.4.1,0,0-.1,0-.1.2.1.5.3,1.1.4,1.6h0l.1.1ZM27,13.4h1.9s.2,0,.2-.1c.1-2.5.2-6,.4-8.6,0,0,0-.2-.2-.2-.4,0-.8-.2-1.2-.3h-.3c-.4,0-.8.2-1.1.2,0,0-.2,0-.2.2.1,2.5.3,6,.4,8.6,0,0,0,.1.2.1h0l-.1.1ZM33.2,13.3h1.7s.2,0,.2-.1c.2-2,.4-4.1.7-6.1,0,0,0-.2-.1-.2-.6-.1-1.1-.2-1.7-.4,0,0-.2,0-.2.1-.2,2.2-.5,4.4-.7,6.6,0,0,0,.1.1.1ZM30.3,13.4h1.5s.2,0,.2-.1c.2-2.3.6-5,.8-7.2,0,0,0-.2-.1-.2-.6-.1-1.3-.3-1.9-.4,0,0-.2,0-.2.1-.1,2.4-.3,5.3-.4,7.8,0,0,0,.1.2.1l-.1-.1ZM36.4,13.2h1.3s.2,0,.2-.1c.2-1.2.3-2.4.5-3.6,0,0,0-.1-.1-.2-.5,0-1-.1-1.4-.2,0,0-.2,0-.2.1-.1,1.3-.3,2.6-.4,3.9,0,0,0,.1.1.1h0ZM45.2,14v10.8h0c-11.3-.3-22.9-.3-34.2,0h0v-10.8s0-.1.1-.1c11.3.8,22.8.8,34.1,0,0,0,.1,0,.1.1h-.1ZM44.3,23.8v-8.8h0c-5.3.4-10.8.6-16.2.6s-10.8-.2-16.2-.6h0v8.8h0c5.3-.1,10.8-.2,16.2-.2s10.8,0,16.2.2h0ZM45.1,26.2c-.6,3.9-1.3,7.8-1.9,11.5,0,0,0,.1-.2.1-.8-.1-1.5-.2-2.3-.3h-.2c-.9,0-1.7-.2-2.6-.3h-.4c-6.3-.5-12.7-.5-19.1,0h-.4c-1.1,0-2.2.2-3.3.3h-.2c-.5,0-1,.1-1.6.2,0,0-.2,0-.2-.1-.6-3.8-1.3-7.6-1.9-11.5h0c11.3-.4,22.7-.4,34,0h0l.3.1ZM42.4,36.7c.6-3.2,1.1-6.5,1.6-9.6h0c-5.3-.2-10.6-.3-15.9-.3s-10.6,0-15.9.3h0c.5,3.2,1,6.4,1.6,9.6h1c1.1-.1,2.2-.2,3.3-.3h.4c3.2-.3,6.5-.4,9.7-.4s6.4.1,9.5.4h.4c.9,0,1.8.2,2.6.3h.2c.5,0,1,.1,1.5.2h.1l-.1-.2ZM21.1,27.7h-1.1v3.7h-2.2v-3.7h-1.1v7h1.1v-1.9h2.2v1.9h1.1v-7h0ZM14.3,21.8c.3.3.7.5,1.2.6s1,.2,1.6.2.8,0,1.2-.1c.4,0,.7-.2,1-.3.3-.1.5-.3.8-.5.2-.2.4-.4.5-.6v-.1l-1.1-.6h-.1c0,.1-.2.2-.3.3s-.3.2-.4.3h-.1c-.2,0-.4.1-.6.2h-.8c-.3,0-.7,0-1-.1-.3,0-.5-.2-.7-.4-.2-.2-.3-.3-.4-.6,0-.2-.1-.4-.1-.7s0-.5.1-.7c0-.2.2-.4.4-.5l.1-.1c.2-.1.4-.2.7-.3.3,0,.6-.1,1-.1h.8c.2,0,.5.1.6.2s.4.2.5.3c.1,0,.2.2.3.3h.1l1.1-.6v-.1c-.1-.2-.3-.4-.5-.6s-.5-.4-.8-.5-.6-.3-1-.3-.7-.1-1.2-.1c-.6,0-1.2,0-1.6.2-.5.2-.9.4-1.2.6-.3.3-.6.6-.8.9-.2.4-.3.7-.3,1.1s0,.8.3,1.1.4.7.8.9h0l-.1.7ZM22.9,22.5h1.2v-5.4h-1.2v5.4h0ZM26.7,18.1h2.4v4.2h1.2v-4.2h2.4v-1h-6.3v1h.3ZM27.3,28.3c.4.4.7,1,.7,1.6v4.9h-1.1v-1.9h-1.8v1.9h-1.1v-4.9c0-.6.2-1.1.7-1.6.4-.4,1-.7,1.6-.7s1.1.2,1.6.7h-.6ZM26.7,29.9c0-.3,0-.5-.3-.7-.2-.2-.4-.3-.7-.3s-.5,0-.7.3c-.2.2-.3.4-.3.7v1.7h1.8v-1.7h.2ZM37.8,20.6v1.8h1.2v-1.8l3-3.6h-1.7l-2,2.4h-.1l-2-2.4h-1.6l3,3.7h0l.2-.1ZM33.7,33.7h-2v-5.8h-1.1v7h3.3v-1.1h0l-.2-.1ZM39.5,33.7h-2v-5.8h-1.1v7h3.3v-1.1h0l-.2-.1Z"/>
  </g>
</svg>