<?xml version="1.0" encoding="UTF-8"?>
<svg xmlns="http://www.w3.org/2000/svg" version="1.1" viewBox="0 0 56 42">
  <defs>
    <style>
      .cls-1 {
        fill: #fff;
      }
    </style>
  </defs>
  <!-- Generator: Adobe Illustrator 28.7.1, SVG Export Plug-In . SVG Version: 1.2.0 Build 142)  -->
  <g>
    <g id="Layer_1">
      <path class="cls-1" d="M9.4,23.8c-1.5,0-3,0-4.5,0,0,0-.1,0-.1-.1v-.6c0,0,0-.1.1-.1,1.5,0,3,0,4.5,0,0,0,0,0,0,0v.7s0,0,0,0h0ZM8.2,17.8c.4,0,.8,0,1.2,0,0,0,0,0,0,0v-.7s0,0,0,0c-.4,0-.8,0-1.2,0,0,0-.1,0-.1.1v.6c0,0,0,.1.1.1h0ZM6.7,20.7c.9,0,1.8,0,2.8,0,0,0,0,0,0,0v-.7s0,0,0,0c-.9,0-1.8,0-2.8,0,0,0-.1,0-.1.1v.6c0,0,0,.1.1.1ZM10,28.5c0-.2,0-.5-.1-.7,0,0,0,0,0,0-1.2,0-2.4.1-3.7.2,0,0-.1,0-.1.2v.6c0,0,0,.1.1.1,1.3-.1,2.5-.2,3.8-.3,0,0,0,0,0,0h0ZM10.9,34.1c0-.2,0-.5-.1-.7,0,0,0,0,0,0-.5,0-1,.1-1.5.2,0,0-.1,0-.1.2v.6c0,0,0,.1.1.1.5,0,1.1-.1,1.6-.2,0,0,0,0,0,0ZM10.5,31.4c0-.2,0-.5-.1-.7,0,0,0,0,0,0-.8,0-1.6.1-2.5.2,0,0-.1,0-.1.2v.6c0,0,0,.1.1.1.9,0,1.7-.2,2.6-.3,0,0,0,0,0,0h0ZM51.1,22.9c-1.5,0-3,0-4.5,0,0,0,0,0,0,0v.7s0,0,0,0c1.5,0,3,0,4.5,0,0,0,.1,0,.1-.1v-.6c0,0,0-.1-.1-.1h0ZM46.6,17.8c.4,0,.8,0,1.2,0,0,0,.1,0,.1-.1v-.6c0,0,0-.1-.1-.1-.4,0-.8,0-1.2,0,0,0,0,0,0,0v.7s0,0,0,0h0ZM46.6,20.7c.9,0,1.8,0,2.8,0,0,0,.1,0,.1-.1v-.6c0,0,0-.1-.1-.1-.9,0-1.8,0-2.8,0,0,0,0,0,0,0v.7s0,0,0,0ZM49.9,28c-1.2,0-2.4-.2-3.7-.2,0,0,0,0,0,0,0,.2,0,.5-.1.7,0,0,0,0,0,0,1.3,0,2.5.2,3.8.3,0,0,.1,0,.1-.1v-.6c0,0,0-.1-.1-.2h0ZM46.8,33.5c-.5,0-1-.1-1.5-.2,0,0,0,0,0,0,0,.2,0,.5-.1.7,0,0,0,0,0,0,.5,0,1.1.1,1.6.2,0,0,.1,0,.1-.1v-.6c0,0,0-.1-.1-.2ZM48.2,30.9c-.8,0-1.6-.2-2.5-.2,0,0,0,0,0,0,0,.2,0,.5-.1.7,0,0,0,0,0,0,.9,0,1.7.2,2.6.3,0,0,.1,0,.1-.1v-.6c0,0,0-.1-.1-.2h0ZM18.2,13c0,0,0,.1.2.1.4,0,.9,0,1.4,0,0,0,.2,0,.1-.1-.2-1.3-.3-2.6-.5-3.9,0,0,0-.1-.2-.1-.5,0-1,.1-1.5.2,0,0-.2,0-.1.2.2,1.2.4,2.4.6,3.6ZM23.1,5.9c.2,2.3.6,5,.8,7.3,0,0,0,.1.2.1.5,0,1,0,1.5,0,0,0,.2,0,.2-.1-.1-2.5-.3-5.3-.5-7.8,0,0,0-.1-.2-.1-.6.1-1.3.3-1.9.4,0,0-.2,0-.1,0s0,0,0,.1ZM21,13.1c0,0,0,.1.2.1.5,0,1.1,0,1.6,0,0,0,.2,0,.1-.1-.2-2.2-.5-4.4-.7-6.6,0,0,0-.1-.2-.1-.6.1-1.1.2-1.7.4,0,0-.2,0-.1.2.3,2,.5,4.1.8,6.1h0ZM39.1,13.1c.4,0,.8,0,1.2,0,0,0,.2,0,.2-.1.1-.5.3-1.1.4-1.6,0,0,0-.1-.1-.2-.4,0-.9,0-1.3-.1,0,0-.2,0-.2.1,0,.6-.2,1.2-.3,1.9,0,0,0,.1.1.1h0ZM15.6,12.9c0,0,.1.1.2.1.4,0,.8,0,1.2,0,0,0,.2,0,.1-.1-.1-.6-.2-1.3-.3-1.9,0,0,0-.1-.2-.1-.5,0-.9,0-1.4.1,0,0-.1,0-.1.2.1.5.3,1.1.4,1.6h0ZM27,13.4c.6,0,1.3,0,1.9,0,0,0,.2,0,.2-.1.1-2.5.2-6,.4-8.6,0,0,0-.2-.2-.2-.4,0-.8-.2-1.2-.3,0,0-.2,0-.3,0-.4,0-.8.2-1.1.2,0,0-.2,0-.2.2.1,2.5.3,6,.4,8.6,0,0,0,.1.2.1h0ZM33.2,13.3c.6,0,1.1,0,1.7,0,0,0,.2,0,.2-.1.2-2,.4-4.1.7-6.1,0,0,0-.2-.1-.2-.6-.1-1.1-.2-1.7-.4,0,0-.2,0-.2.1-.2,2.2-.5,4.4-.7,6.6,0,0,0,.1.1.1ZM30.3,13.4c.5,0,1,0,1.5,0,0,0,.2,0,.2-.1.2-2.3.6-5,.8-7.2,0,0,0-.2-.1-.2-.6-.1-1.3-.3-1.9-.4,0,0-.2,0-.2.1-.1,2.4-.3,5.3-.4,7.8,0,0,0,.1.2.1ZM36.4,13.2c.4,0,.9,0,1.3,0,0,0,.2,0,.2-.1.2-1.2.3-2.4.5-3.6,0,0,0-.1-.1-.2-.5,0-1-.1-1.4-.2,0,0-.2,0-.2.1-.1,1.3-.3,2.6-.4,3.9,0,0,0,.1.1.1h0ZM45.2,14v10.8s0,0,0,0c-11.3-.3-22.9-.3-34.2,0,0,0,0,0,0,0v-10.8c0,0,0-.1.1-.1,11.3.8,22.8.8,34.1,0,0,0,.1,0,.1.1h0ZM44.3,23.8v-8.8c0,0,0,0,0,0-5.3.4-10.8.6-16.2.6s-10.8-.2-16.2-.6c0,0,0,0,0,0v8.8c0,0,0,0,0,0,5.3-.1,10.8-.2,16.2-.2s10.8,0,16.2.2c0,0,0,0,0,0ZM45.1,26.2c-.6,3.9-1.3,7.8-1.9,11.5,0,0,0,.1-.2.1-.8-.1-1.5-.2-2.3-.3,0,0-.2,0-.2,0,0,0,0,0,0,0-.9,0-1.7-.2-2.6-.3,0,0-.1,0-.2,0,0,0-.1,0-.2,0-6.3-.5-12.7-.5-19.1,0,0,0-.1,0-.2,0,0,0-.1,0-.2,0-1.1,0-2.2.2-3.3.3,0,0,0,0,0,0,0,0-.1,0-.2,0-.5,0-1,.1-1.6.2,0,0-.2,0-.2-.1-.6-3.8-1.3-7.6-1.9-11.5,0,0,0,0,0,0,11.3-.4,22.7-.4,34,0,0,0,0,0,0,0h0ZM42.4,36.7c.6-3.2,1.1-6.5,1.6-9.6,0,0,0,0,0,0-5.3-.2-10.6-.3-15.9-.3s-10.6,0-15.9.3c0,0,0,0,0,0,.5,3.2,1,6.4,1.6,9.6,0,0,0,0,.1,0,.2,0,.5,0,.7,0,0,0,.2,0,.2,0,1.1-.1,2.2-.2,3.3-.3,0,0,.2,0,.3,0h.1c3.2-.3,6.5-.4,9.7-.4s6.4.1,9.5.4h.1c.1,0,.2,0,.3,0,.9,0,1.8.2,2.6.3,0,0,.2,0,.2,0,.5,0,1,.1,1.5.2,0,0,0,0,.1,0h0ZM21.1,27.7h-1.1s0,0,0,0v3.7s0,0,0,0h-2.2s0,0,0,0v-3.7s0,0,0,0h-1.1s0,0,0,0v7s0,0,0,0h1.1s0,0,0,0v-1.9s0,0,0,0h2.2s0,0,0,0v1.9s0,0,0,0h1.1s0,0,0,0v-7s0,0,0,0ZM14.3,21.8c.3.3.7.5,1.2.6s1,.2,1.6.2.8,0,1.2-.1c.4,0,.7-.2,1-.3.3-.1.5-.3.8-.5.2-.2.4-.4.5-.6,0,0,0,0,0-.1l-1.1-.6s0,0-.1,0c0,.1-.2.2-.3.3-.1.1-.3.2-.4.3,0,0-.1,0-.1,0-.2,0-.4.1-.6.2-.2,0-.5,0-.8,0s-.7,0-1-.1c-.3,0-.5-.2-.7-.4-.2-.2-.3-.3-.4-.6,0-.2-.1-.4-.1-.7s0-.5.1-.7c0-.2.2-.4.4-.5,0,0,0,0,.1-.1.2-.1.4-.2.7-.3.3,0,.6-.1,1-.1s.5,0,.8,0c.2,0,.5.1.6.2s.4.2.5.3c.1,0,.2.2.3.3,0,0,0,0,.1,0l1.1-.6s0,0,0-.1c-.1-.2-.3-.4-.5-.6-.2-.2-.5-.4-.8-.5-.3-.1-.6-.3-1-.3-.4,0-.7-.1-1.2-.1-.6,0-1.2,0-1.6.2-.5.2-.9.4-1.2.6-.3.3-.6.6-.8.9-.2.4-.3.7-.3,1.1s0,.8.3,1.1.4.7.8.9h0ZM22.9,22.5h1.2s0,0,0,0v-5.4s0,0,0,0h-1.2s0,0,0,0v5.4s0,0,0,0ZM26.7,18.1h2.4s0,0,0,0v4.2s0,0,0,0h1.2s0,0,0,0v-4.2s0,0,0,0h2.4s0,0,0,0v-1s0,0,0,0h-6.3s0,0,0,0v1s0,0,0,0h0ZM27.3,28.3c.4.4.7,1,.7,1.6v4.9s0,0,0,0h-1.1s0,0,0,0v-1.9s0,0,0,0h-1.8s0,0,0,0v1.9s0,0,0,0h-1.1s0,0,0,0v-4.9c0-.6.2-1.1.7-1.6.4-.4,1-.7,1.6-.7s1.1.2,1.6.7h0ZM26.7,29.9c0-.3,0-.5-.3-.7-.2-.2-.4-.3-.7-.3s-.5,0-.7.3c-.2.2-.3.4-.3.7v1.7s0,0,0,0h1.8s0,0,0,0v-1.7h0ZM37.8,20.6s0,0,0,.1v1.7s0,0,0,0h1.2s0,0,0,0v-1.7s0-.1,0-.1l3-3.6s0,0,0,0h-1.6s-.1,0-.1,0l-2,2.4s0,0-.1,0l-2-2.4s0,0-.1,0h-1.5s0,0,0,0l3,3.7h0ZM33.7,33.7h-2s0,0,0,0v-5.8s0,0,0,0h-1.1s0,0,0,0v7s0,0,0,0h3.3s0,0,0,0v-1.1s0,0,0,0ZM39.5,33.7h-2s0,0,0,0v-5.8s0,0,0,0h-1.1s0,0,0,0v7s0,0,0,0h3.3s0,0,0,0v-1.1s0,0,0,0Z"/>
    </g>
  </g>
</svg>