<?xml version="1.0" encoding="utf-8"?>
<!-- Generator: Adobe Illustrator 26.0.2, SVG Export Plug-In . SVG Version: 6.00 Build 0)  -->
<svg version="1.1" id="Layer_1" xmlns="http://www.w3.org/2000/svg" xmlns:xlink="http://www.w3.org/1999/xlink" x="0px" y="0px"
	 width="78px" height="42px" viewBox="0 0 78 42" style="enable-background:new 0 0 78 42;" xml:space="preserve">
<style type="text/css">
	.st0{fill:#FFFFFF;}
</style>
<path class="st0" d="M40.2,26.1c-0.3,0.5-0.5,1-0.8,1.5c-0.5,1-1.1,2-2.1,2.7c-0.9,0.7-2.1,0.6-2.8-0.6C34.1,29,34,28,33.9,27.1
	c0-2.6,0.8-5.1,1.7-7.5c0.2-0.5,0.4-1,0.6-1.6c0.7,0.4,1.4,0.7,2.1,1.1c-0.2,0.6-0.4,1.2-0.6,1.9c-0.4,1.5-0.8,3-0.9,4.5
	c0,0.7-0.1,1.4-0.1,2.1c0,0.2,0.2,0.4,0.3,0.6c0.2-0.1,0.4-0.1,0.5-0.3c0.4-0.6,0.8-1.2,1.1-1.8c0.7-1.6,1.4-3.2,1.9-4.8
	c0.4-1.3,0.7-2.6,1.1-3.9c0.4-1.4,0.8-2.8,1.3-4.2c0.7-2,1.4-4,2.2-5.9c0.4-1,0.8-2,1.3-2.9c0.5-0.9,0.9-1.8,1.7-2.5
	C49,1.2,50.2,1,50.7,2.2c0.4,0.9,0.5,1.8,0.4,2.7c-0.2,1.7-0.7,3.4-1.3,5c-0.5,1.3-1,2.7-1.5,4c-0.6,1.4-1.4,2.7-2.1,4.1
	c-0.4,0.8-0.9,1.7-1.4,2.5c-0.3,0.6-0.7,1.1-1,1.6c-0.5,0.7-0.9,1.5-0.8,2.4c0,0.8,0,1.6,0.2,2.4c0.1,0.8,0.6,0.9,1.2,0.5
	c0.9-0.5,1.6-1.3,2.2-2.1c0.3-0.4,0.7-0.9,0.9-1.4c0.1-0.2,0.2-0.4,0.2-0.7c0.2-2.3,0.6-4.4,1.2-6.6c0.5-1.9,1-3.7,1.7-5.5
	c0.6-1.7,1.3-3.3,1.9-5C53,5.1,53.5,4,54.1,3c0.4-0.7,0.8-1.4,1.5-1.8c0.8-0.4,1.6-0.2,2,0.7c0.5,1,0.6,2.2,0.5,3.3
	c-0.2,1.8-0.8,3.5-1.4,5.1c-0.7,1.8-1.5,3.6-2.5,5.3c-0.7,1.3-1.4,2.5-2.2,3.8c-0.5,0.8-1,1.5-1.4,2.3c-0.2,0.3-0.3,0.7-0.3,1.1
	c-0.1,1.1-0.2,2.1,0.2,3.2c0.1,0.2,0.3,0.5,0.5,0.6c0.2,0.1,0.5-0.1,0.7-0.3c0.6-0.6,1-1.4,1.4-2.2c0.5-1.1,1.1-2.3,1.6-3.5
	c0.5-1.2,1-2.4,1.4-3.7c0.6-1.6,1.1-3.3,1.6-4.9c0.2-0.6,0.4-1.2,0.7-1.8c0.7,0.4,1.4,0.7,2.1,1.1c-0.4,1.6-0.9,3.2-1.2,4.8
	c-0.2,1.1-0.3,2.3-0.5,3.4c0,0,0,0,0,0.1c0,0.3,0,0.6,0.3,0.6c0.2,0,0.4-0.2,0.5-0.4c0.6-1.3,1.2-2.7,1.7-4.1
	c0.8-2.2,1.6-4.4,2.4-6.7c0.2-0.5,0.4-1,0.6-1.6c0.6,0.4,1.2,0.7,1.9,1c-0.4,1.2-0.8,2.4-1.1,3.6c-0.6,2.2-1.1,4.4-1.6,6.6
	c-0.4,1.7-0.7,3.4-1,5.2c-0.3,1.5-0.5,3.1-0.7,4.7c-0.2,1.1-0.3,2.3-0.4,3.4c0,0.3-0.1,0.5-0.4,0.6c-0.9,0.3-1.7,0.6-2.6,1
	c0.9-5.2,2.1-10.2,3.3-15.2c0,0-0.1,0-0.1,0c-0.1,0.4-0.3,0.7-0.4,1c-0.4,0.8-0.7,1.5-1.1,2.3c-0.3,0.4-0.7,0.8-1.1,1.1
	c-0.9,0.6-2,0.1-2.3-0.9c-0.1-0.3-0.2-0.7-0.3-1.1c-0.3,0.6-0.5,1.2-0.8,1.8c-0.7,1.3-1.3,2.7-2,4c-0.5,0.9-1.1,1.7-1.9,2.4
	c-1.1,0.8-2.4,0.5-3-0.7c-0.3-0.6-0.4-1.3-0.6-2c0-0.1,0-0.2-0.1-0.3c-0.5,0.7-1,1.5-1.6,2.1c-0.7,0.8-1.4,1.6-2.5,2.1
	c-1.3,0.6-2.3,0.1-2.9-1.2c-0.2-0.4-0.3-0.9-0.4-1.3C40.3,27.2,40.3,26.7,40.2,26.1z M51,18.6C51,18.6,51.1,18.6,51,18.6
	c0.1,0,0.2-0.1,0.2-0.2c0.5-1.1,1.1-2.1,1.5-3.2c0.7-1.5,1.3-3,1.9-4.6C55.4,8.8,56,6.9,56.4,5c0.1-0.5,0-1.1,0-1.6
	c0-0.3-0.3-0.4-0.5-0.2c-0.2,0.2-0.4,0.4-0.5,0.6c-0.5,1.3-1.1,2.6-1.5,3.9c-0.8,2.5-1.4,5-2.1,7.5C51.5,16.3,51.3,17.5,51,18.6z
	 M43.9,19.2c0,0,0.1,0,0.1,0c0.4-0.9,0.9-1.8,1.3-2.7c0.7-1.5,1.4-3.1,2-4.7C48,10,48.6,8,49.1,6.1c0.2-0.7,0.2-1.4,0.3-2.1
	c0-0.1-0.1-0.3-0.2-0.4c-0.1,0-0.4,0-0.4,0.1c-0.2,0.3-0.4,0.6-0.6,1c-0.6,1.7-1.3,3.4-1.8,5.1c-0.7,2.4-1.4,4.9-2,7.3
	C44.2,17.8,44.1,18.5,43.9,19.2z M19.7,15.5c-0.4,0.4-0.9,0.7-1.3,1.1c-1.1,1-2.2,1.9-3.3,2.9c-0.7,0.6-1.3,1.3-1.9,1.9
	c-0.2,0.2-0.3,0.2-0.5,0c-0.5-0.6-1.1-1.1-1.7-1.8c1-1,2-1.9,3-2.8c1.5-1.3,3.1-2.5,4.6-3.6c1.8-1.3,3.7-2.4,5.6-3.3
	c1.3-0.6,2.6-1.2,4-1.5c1-0.2,1.9-0.4,2.9-0.1c1.4,0.3,2.3,1.3,2.9,2.5c0.7,1.5,0.8,3.1,0.6,4.8c-0.3,2.2-0.9,4.4-1.8,6.4
	c-0.6,1.4-1.2,2.8-2,4.2C30,27.9,29,29.5,28,31.1c-1,1.6-2.2,3.1-3.5,4.5c-1.1,1.2-2.3,2.4-3.6,3.4c-1,0.8-2,1.4-3.1,1.9
	c-0.1,0-0.3,0-0.4-0.1c-0.9-0.5-1.7-1.1-2.6-1.7c-0.1-0.1-0.2-0.3-0.2-0.5c0.2-1.3,0.3-2.6,0.5-3.9c0.3-1.6,0.6-3.2,1-4.7
	c0.4-1.7,0.8-3.5,1.2-5.2c0.5-1.8,0.9-3.6,1.4-5.4C19,18.1,19.4,16.9,19.7,15.5C19.7,15.6,19.7,15.6,19.7,15.5z M17.7,38.3
	c0,0,0.1,0,0.1,0.1c0.8-0.7,1.6-1.4,2.4-2.2c0.8-0.9,1.6-1.9,2.4-2.9c0.7-0.9,1.3-1.7,2-2.7c0.8-1.3,1.6-2.5,2.4-3.8
	c0.5-0.8,1-1.6,1.4-2.5c0.6-1.2,1.3-2.5,1.8-3.8c0.6-1.5,1.2-3.1,1.7-4.6c0.4-1.3,0.7-2.6,0.4-4c-0.2-1.1-0.8-1.8-1.9-1.9
	c-0.6,0-1.3,0.1-1.9,0.3c-1.7,0.5-3.2,1.5-4.8,2.4c-0.1,0.1-0.2,0.2-0.3,0.4c-0.1,0.4-0.2,0.8-0.3,1.2c-0.5,2.2-1.1,4.3-1.6,6.5
	c-0.6,2.6-1.3,5.3-1.8,7.9c-0.6,2.7-1.1,5.5-1.6,8.2C17.8,37.4,17.8,37.8,17.7,38.3z M41,11.2c-0.1-1.5-1.4-2.3-2.7-1.4
	c-0.6,0.4-1,1-1.3,1.7c-0.3,0.8-0.6,1.6-0.4,2.5c0.2,1.3,1.5,1.8,2.5,1.2c1.3-0.8,1.8-2.2,2-3.5C41,11.4,41,11.3,41,11.2z
	 M31.2,33.5c2.6,0,3.9,1.7,3.9,3.8c0,2-1.4,3.8-3.9,3.8h-2.5v-7.5H31.2z M31.1,39.3c1.5,0,2.1-0.9,2.1-2c0-1.2-0.7-2-2.1-2h-0.5v4.1
	H31.1z M36.1,33.5h1.9V41h-1.9V33.5z M40.8,36.4c0,0.3,0,1,0,1.3V41h-1.6v-7.5h1.6l1.8,3c0.6,0.9,0.7,1.3,0.9,1.7h0
	c0-0.3,0-0.9,0-1.2v-3.5H45V41h-1.6L42,38.4C41.2,37.2,41,36.7,40.8,36.4L40.8,36.4z M50.8,35.1h-2.6v1.2h2.5v1.6h-2.5v1.4h2.7V41
	h-4.6v-7.5h4.5L50.8,35.1L50.8,35.1z M58.2,41H56l-1.8-2.9H54V41h-1.9v-7.5h2.3c2.1,0,2.9,1,2.9,2.3c0,1.1-0.6,1.8-1.3,2L58.2,41z
	 M54.5,35H54v1.8h0.5c0.5,0,0.9-0.3,0.9-0.9C55.4,35.3,55.1,35,54.5,35z"/>
</svg>
