<?xml version="1.0" encoding="UTF-8"?>
<svg id="Layer_1" xmlns="http://www.w3.org/2000/svg" version="1.1" viewBox="0 0 78 42">
  <!-- Generator: Adobe Illustrator 29.5.0, SVG Export Plug-In . SVG Version: 2.1.0 Build 137)  -->
  <defs>
    <style>
      .st0 {
        fill: #4f2c1d;
      }
    </style>
  </defs>
  <path class="st0" d="M40.2,26.1c-.3.5-.5,1-.8,1.5-.5,1-1.1,2-2.1,2.7-.9.7-2.1.6-2.8-.6-.4-.7-.5-1.7-.6-2.6,0-2.6.8-5.1,1.7-7.5.2-.5.4-1,.6-1.6.7.4,1.4.7,2.1,1.1-.2.6-.4,1.2-.6,1.9-.4,1.5-.8,3-.9,4.5,0,.7-.1,1.4-.1,2.1,0,.2.2.4.3.6.2-.1.4-.1.5-.3.4-.6.8-1.2,1.1-1.8.7-1.6,1.4-3.2,1.9-4.8.4-1.3.7-2.6,1.1-3.9.4-1.4.8-2.8,1.3-4.2.7-2,1.4-4,2.2-5.9.4-1,.8-2,1.3-2.9s.9-1.8,1.7-2.5c.9-.7,2.1-.9,2.6.3.4.9.5,1.8.4,2.7-.2,1.7-.7,3.4-1.3,5-.5,1.3-1,2.7-1.5,4-.6,1.4-1.4,2.7-2.1,4.1-.4.8-.9,1.7-1.4,2.5-.3.6-.7,1.1-1,1.6-.5.7-.9,1.5-.8,2.4,0,.8,0,1.6.2,2.4.1.8.6.9,1.2.5.9-.5,1.6-1.3,2.2-2.1.3-.4.7-.9.9-1.4.1-.2.2-.4.2-.7.2-2.3.6-4.4,1.2-6.6.5-1.9,1-3.7,1.7-5.5.6-1.7,1.3-3.3,1.9-5,.5-1,1-2.1,1.6-3.1.4-.7.8-1.4,1.5-1.8.8-.4,1.6-.2,2,.7.5,1,.6,2.2.5,3.3-.2,1.8-.8,3.5-1.4,5.1-.7,1.8-1.5,3.6-2.5,5.3-.7,1.3-1.4,2.5-2.2,3.8-.5.8-1,1.5-1.4,2.3-.2.3-.3.7-.3,1.1-.1,1.1-.2,2.1.2,3.2.1.2.3.5.5.6s.5-.1.7-.3c.6-.6,1-1.4,1.4-2.2.5-1.1,1.1-2.3,1.6-3.5s1-2.4,1.4-3.7c.6-1.6,1.1-3.3,1.6-4.9.2-.6.4-1.2.7-1.8.7.4,1.4.7,2.1,1.1-.4,1.6-.9,3.2-1.2,4.8-.2,1.1-.3,2.3-.5,3.4v.1c0,.3,0,.6.3.6.2,0,.4-.2.5-.4.6-1.3,1.2-2.7,1.7-4.1.8-2.2,1.6-4.4,2.4-6.7.2-.5.4-1,.6-1.6.6.4,1.2.7,1.9,1-.4,1.2-.8,2.4-1.1,3.6-.6,2.2-1.1,4.4-1.6,6.6-.4,1.7-.7,3.4-1,5.2-.3,1.5-.5,3.1-.7,4.7-.2,1.1-.3,2.3-.4,3.4,0,.3-.1.5-.4.6-.9.3-1.7.6-2.6,1,.9-5.2,2.1-10.2,3.3-15.2h-.1c-.1.4-.3.7-.4,1-.4.8-.7,1.5-1.1,2.3-.3.4-.7.8-1.1,1.1-.9.6-2,.1-2.3-.9-.1-.3-.2-.7-.3-1.1-.3.6-.5,1.2-.8,1.8-.7,1.3-1.3,2.7-2,4-.5.9-1.1,1.7-1.9,2.4-1.1.8-2.4.5-3-.7-.3-.6-.4-1.3-.6-2,0-.1,0-.2-.1-.3-.5.7-1,1.5-1.6,2.1-.7.8-1.4,1.6-2.5,2.1-1.3.6-2.3.1-2.9-1.2-.2-.4-.3-.9-.4-1.3-.3-.4-.3-.9-.4-1.5ZM51,18.6s.1,0,0,0c.1,0,.2-.1.2-.2.5-1.1,1.1-2.1,1.5-3.2.7-1.5,1.3-3,1.9-4.6.8-1.8,1.4-3.7,1.8-5.6.1-.5,0-1.1,0-1.6,0-.3-.3-.4-.5-.2s-.4.4-.5.6c-.5,1.3-1.1,2.6-1.5,3.9-.8,2.5-1.4,5-2.1,7.5-.3,1.1-.5,2.3-.8,3.4ZM43.9,19.2h.1c.4-.9.9-1.8,1.3-2.7.7-1.5,1.4-3.1,2-4.7.7-1.8,1.3-3.8,1.8-5.7.2-.7.2-1.4.3-2.1,0-.1-.1-.3-.2-.4-.1,0-.4,0-.4.1-.2.3-.4.6-.6,1-.6,1.7-1.3,3.4-1.8,5.1-.7,2.4-1.4,4.9-2,7.3-.2.7-.3,1.4-.5,2.1ZM19.7,15.5c-.4.4-.9.7-1.3,1.1-1.1,1-2.2,1.9-3.3,2.9-.7.6-1.3,1.3-1.9,1.9-.2.2-.3.2-.5,0-.5-.6-1.1-1.1-1.7-1.8,1-1,2-1.9,3-2.8,1.5-1.3,3.1-2.5,4.6-3.6,1.8-1.3,3.7-2.4,5.6-3.3,1.3-.6,2.6-1.2,4-1.5,1-.2,1.9-.4,2.9-.1,1.4.3,2.3,1.3,2.9,2.5.7,1.5.8,3.1.6,4.8-.3,2.2-.9,4.4-1.8,6.4-.6,1.4-1.2,2.8-2,4.2-.8,1.7-1.8,3.3-2.8,4.9s-2.2,3.1-3.5,4.5c-1.1,1.2-2.3,2.4-3.6,3.4-1,.8-2,1.4-3.1,1.9-.1,0-.3,0-.4-.1-.9-.5-1.7-1.1-2.6-1.7-.1-.1-.2-.3-.2-.5.2-1.3.3-2.6.5-3.9.3-1.6.6-3.2,1-4.7.4-1.7.8-3.5,1.2-5.2.5-1.8.9-3.6,1.4-5.4.3-1.3.7-2.5,1-3.9q0,.1,0,0ZM17.7,38.3s.1,0,.1.1c.8-.7,1.6-1.4,2.4-2.2.8-.9,1.6-1.9,2.4-2.9.7-.9,1.3-1.7,2-2.7.8-1.3,1.6-2.5,2.4-3.8.5-.8,1-1.6,1.4-2.5.6-1.2,1.3-2.5,1.8-3.8.6-1.5,1.2-3.1,1.7-4.6.4-1.3.7-2.6.4-4-.2-1.1-.8-1.8-1.9-1.9-.6,0-1.3.1-1.9.3-1.7.5-3.2,1.5-4.8,2.4-.1.1-.2.2-.3.4-.1.4-.2.8-.3,1.2-.5,2.2-1.1,4.3-1.6,6.5-.6,2.6-1.3,5.3-1.8,7.9-.6,2.7-1.1,5.5-1.6,8.2-.3.5-.3.9-.4,1.4ZM41,11.2c-.1-1.5-1.4-2.3-2.7-1.4-.6.4-1,1-1.3,1.7-.3.8-.6,1.6-.4,2.5.2,1.3,1.5,1.8,2.5,1.2,1.3-.8,1.8-2.2,2-3.5-.1-.3-.1-.4-.1-.5ZM31.2,33.5c2.6,0,3.9,1.7,3.9,3.8,0,2-1.4,3.8-3.9,3.8h-2.5v-7.5h2.5v-.1ZM31.1,39.3c1.5,0,2.1-.9,2.1-2,0-1.2-.7-2-2.1-2h-.5v4.1h.5v-.1ZM36.1,33.5h1.9v7.5h-1.9v-7.5ZM40.8,36.4v4.6h-1.6v-7.5h1.6l1.8,3c.6.9.7,1.3.9,1.7h0v-4.7h1.5v7.5h-1.6l-1.4-2.6c-.8-1.2-1-1.7-1.2-2h0ZM50.8,35.1h-2.6v1.2h2.5v1.6h-2.5v1.4h2.7v1.7h-4.6v-7.5h4.5v1.6h0ZM58.2,41h-2.2l-1.8-2.9h-.2v2.9h-1.9v-7.5h2.3c2.1,0,2.9,1,2.9,2.3,0,1.1-.6,1.8-1.3,2l2.2,3.2ZM54.5,35h-.5v1.8h.5c.5,0,.9-.3.9-.9s-.3-.9-.9-.9Z"/>
</svg>