<?xml version="1.0" encoding="UTF-8"?>
<svg id="Layer_1" xmlns="http://www.w3.org/2000/svg" version="1.1" viewBox="0 0 78 42">
  <!-- Generator: Adobe Illustrator 29.5.0, SVG Export Plug-In . SVG Version: 2.1.0 Build 137)  -->
  <defs>
    <style>
      .st0 {
        fill: #4f2c1d;
      }
    </style>
  </defs>
  <path class="st0" d="M19.8,7.9c.1-.9-.1-1.5-.5-1.7-.5-.2-1.3-.1-2.5.5-.5.2-1,.5-1.4.7-1.1.5-1.8,1.5-1.9,2.5-.3,3.4-.4,6.8-.4,10.3v.1h.2c1-.4,2-.8,3-1.2,1.2-.5,2.1-1,2.6-1.6s.7-1.4.7-2.1c-.1-2.6,0-5,.2-7.5ZM16.4,16.8q0,.1-.1.2c0,.1-.1.1-.2.1h-.1q-.1,0-.1-.1c0-2.7.2-5.4.4-8.1v-.1l.1-.1.1-.1h.2c.1,0,.1.1.1.1-.2,2.8-.3,5.4-.4,8.1h0ZM20.3,17.6c.9-.3,1.8-.6,2.7-.8,0,0,.1,0,.1-.1v-.1c0-1.8.1-3.6.1-5.4v-.1l.1-.1h.3l.1.1v.1c0,1.8,0,3.6.1,5.4.2,2.7.4,5.9,3.2,9.2q.1.1.1,0c-.1-2.3-.4-13.5-.3-15.3,0-.2,0-.5-.1-.7s-.3-.4-.5-.5h0v-.1h0c.4-.4.7-.9.8-1.5,0-.7.1-1.4.1-2.1,0-.9-.1-1.5-.5-1.8-.5-.3-1.4-.3-2.6.1-1,.4-2.1.7-3.1,1.1l-.1.1s0,.1-.1.1c-.4,4.1-.6,8.2-.6,12.4v.1c0,.1,0,0,0,0q.1-.1.2-.1c-.1,0,0,0,0,0h0ZM23.6,5.9v-.1l.1-.1h.3l.1.1v.1c-.1.9-.1,1.8-.2,2.7q0,.1-.1.2c0,.1-.1.1-.2.1h-.1q-.1,0-.1-.1c.1-.9.1-1.9.2-2.9h0ZM27.9,15.6c.9-.2,1.9-.3,2.8-.5,0,0,.1,0,.1-.1,0,0,0-.1.1-.1,0-1.9,0-3.7.1-5.6,0,0,0-.1.1-.1l.1-.1h.4v.1c0,1.9-.1,3.7-.1,5.6v.1h.2c.9-.1,1.9-.2,2.8-.3,0,0,.1,0,.1-.1v-.1c0-3.5.1-7,.1-10.5,0-.9-.2-1.6-.6-2-.5-.5-1.4-.6-2.6-.4-1.2.2-2.1.7-2.7,1.3-.5.8-.8,1.6-.8,2.3-.2,3.5-.3,6.9-.3,10.4v.1c0,.1,0,0,0,0h.2c-.1,0,0,0,0,0h0ZM31.1,4q0-.1.1-.2t.2-.1q.2,0,.2.2c0,1-.1,2-.1,3,0,0,0,.1-.1.1l-.1.1h-.4v-.1c.1-1,.2-2,.2-3h0ZM41.6,14c-.5.5-1.5.7-2.7.7-1.3,0-2.2-.2-2.7-.7-.4-.4-.7-1.1-.7-2,0-.4,0-3.1.1-8,0-.9.2-1.6.7-2.1.5-.6,1.4-.9,2.6-.9s2.1.3,2.6.9c.4.4.6,1.1.7,2.1,0,1.1,0,2.2.1,3.3v.2h-.2c-.9-.1-1.8-.1-2.7-.1h-.1V3.3s0-.1-.1-.1h-.2c-.2,0-.3.1-.3.2v9.3s0,.1.1.1c0,0,.1,0,.1.1h.1q.1,0,.2-.1l.1-.1v-4.8h.2c.9,0,1.8,0,2.8.1,0,0,.1,0,.1.1v4c-.1.9-.3,1.5-.8,1.9h0ZM43.3,12.1c0-3.5-.1-7-.2-10.5v-.2h.2c.9.1,1.8.2,2.7.4,0,0,.1,0,.1.1,0,0,0,.1.1.1.1,3.7.2,7.3.3,11q0,.1.1.2l.1.1h.1q.2,0,.2-.2c-.1-3.7-.2-7.3-.3-11v-.1h.2c.9.2,1.8.4,2.7.6,0,0,.1,0,.1.1,0,0,0,.1.1.1.2,3.4.3,6.9.4,10.3,0,.9-.2,1.6-.6,1.9-.5.4-1.4.5-2.7.3s-2.2-.5-2.7-1.1c-.7-.5-.9-1.2-.9-2.1h0ZM50.3,3v-.2h.2c.9.2,1.7.5,2.5.8q.1,0,.2.1v.2c.3,3.4.4,6.8.5,10.1v.2c.1,0,.1.1.2.1,1.1.3,2.2.6,3.2,1q.1,0,.2.1v2.4h-.2c-7-1.8-1.1,3.7-6.5,8.2-.1.1-.1,0-.1-.1.3-7.8.2-15.4-.2-22.9h0ZM64.2,10.7c0-.8-.3-1.5-.8-2.2-.7-.9-1.6-1.5-2.7-2-1.2-.5-2.3-1.1-2.7-.8-.4.2-.3,1.2-.2,2.1.2,3.3.4,6.6.4,9.9v.2c.1,0,.1.1.2.1.9.3,1.7.6,2.6.9h.2v-.2c0-1.7,0-3.4-.1-5.1v-.2q.1,0,.2.1l.1.1c.1,0,.1.1.2.1v.2c.1,1.7.1,3.4.1,5.1v.2c.1,0,.1.1.2.1.9.3,1.7.7,2.5,1q.1,0,.2.1v-.2c-.1-3.2-.2-6.4-.4-9.5h0ZM61.4,11.7q-.1,0-.2-.1l-.1-.1c-.1,0-.1-.1-.2-.1v-.2c-.1-.9-.1-1.9-.2-2.8,0-.1,0-.2.1-.1.1,0,.2.1.2.2.1.1.1.2.1.3.1.9.1,1.8.2,2.7q.1.1.1.2h0ZM18.7,32.7c.1.7-.1,1.1-.3,1.1h-.2c-.4,0-1.1-.4-1.9-1-.9-.6-1.6-1.3-2.2-2.2-.4-.6-.6-1.2-.6-1.9-.1-.6-.1-1.2-.1-1.8q0-.1.1-.1l2.1,1.5.1.1v.1c.1.8.1,1.6.2,2.4q0,.1.1.2c0,.1.1.1.2.2h.3c-.1-.9-.2-1.9-.2-2.8v-.2c-.8-.6-1.7-1.2-2.4-1.8-.1-.1-.2-.2-.3-.3-.1-.1-.1-.2-.1-.4-.1-1-.1-2-.2-3,0-.7.1-1,.4-1.1h.1c.4,0,1,.3,1.9.9.8.5,1.6,1.2,2.2,1.9.4.5.6,1.2.6,1.8,0,.5.1.9.1,1.4,0,.1-.1.1-.1.1-.7-.4-1.5-.9-2.2-1.4l-.1-.1v-.1c0-.6-.1-1.2-.1-1.9q0-.1-.1-.2c0-.1-.1-.1-.2-.2,0,0-.1-.1-.2-.1,0,0-.1,0-.1.1,0,.7.1,1.5.1,2.2v.2c.8.6,1.7,1.1,2.5,1.6.1.1.2.1.3.2.1.1.1.2.1.4,0,1.7.1,3,.2,4.2ZM24.1,27.9c-.5-.6-1.2-1.1-2.4-1.6-.6-.3-1.3-.5-1.9-.6h-.3c-.3.1-.5.5-.5,1.2.1,2.6.3,5.3.6,7.9,0,0,0,.1.1.1l.1.1c.7.5,1.5.9,2.3,1.3q.1,0,.1-.1c-.1-1.4-.3-2.8-.4-4.3,0-.1,0-.2,0-.1h0l.5.2h0v.2c.1,1.4.2,2.9.4,4.3,0,0,0,.1.1.1l.1.1c.8.4,1.5.8,2.3,1.1q.1,0,.1-.1c-.2-2.7-.4-5.4-.5-8.1-.1-.5-.3-1.2-.7-1.7h0ZM22.1,30.7h0l-.5-.2h0v-.2c0-.8-.1-1.6-.1-2.4,0-.2.1-.2.2-.2s.1,0,.2.1c.1,0,.1.1.2.1,0,.1.1.1.1.2,0,.8.1,1.6.1,2.4-.1.1-.1.2-.2.2h0ZM31.4,31.3c.1,2.9.2,5.8.3,8.7v.1h-.2c-.8-.2-1.6-.4-2.3-.6,0,0-.1,0-.1-.1,0,0,0-.1-.1-.1-.2-2.9-.3-5.8-.4-8.7v-.1s0-.1-.1-.1q-.1-.1-.2-.1h-.3v.2c.1,2.9.3,5.8.5,8.7v.1h-.2c-.8-.3-1.6-.6-2.3-.9l-.1-.1s0-.1-.1-.1c-.3-3.3-.5-6.7-.6-10v-.1h.2c.8.3,1.6.6,2.4.8.1,0,.2.1.2.1v.1h0c.3-.1.7-.1,1,0,1.7.3,2.4,1.1,2.4,2.2h0ZM37.8,31c-.5-.4-1.3-.6-2.5-.7-1-.1-2-.2-3-.4h-.2v.1c.1,3.4.2,6.8.3,10.3,0,0,0,.1.1.1l.1.1c.9.2,1.9.3,2.8.4h.6c.8,0,1.4-.1,1.8-.5.4-.3.6-.8.6-1.6v-6.3c-.1-.7-.2-1.2-.6-1.5h0ZM35.6,39.2s-.1.1-.2.1h-.2v-.2c-.2-2.4-.2-4.8-.3-7.1v-.2h.2q.1,0,.2.1l.1.1v.1c0,2.3.1,4.6.1,6.9q.2.1.1.2h0ZM48.7,29.2c-.1,2.8-.2,5.5-.4,8.3,0,.6-.2,1.3-.7,1.8-.7.6-1.5,1.1-2.4,1.2-.2,0-.4.1-.5.1-.4,0-.7-.1-1-.2h0c-.4.4-1,.6-1.6.7h-.5c-.8,0-1.5-.1-1.8-.5-.4-.3-.6-.9-.6-1.6v-8.6h.2c.8,0,1.7-.1,2.5-.1h.2v.2c0,2.9-.1,5.9-.1,8.8v.1s0,.1.1.1c0,0,.1,0,.1.1h.2s.1,0,.1-.1c0,0,0-.1.1-.1v-.1c.1-2.9.1-5.9.2-8.8v-.1l.1-.1c.8-.1,1.7-.2,2.5-.3h.2v.1c-.1,2.9-.1,5.9-.3,8.8v.1s0,.1.1.1h.2c.1,0,.1-.1.2-.1s.1-.1.1-.2c.1-2.9.2-5.9.3-8.8v-.1l.1-.1c.8-.2,1.6-.4,2.5-.6h.2c-.4-.1-.3-.1-.3,0h0ZM52.1,28.1c-.1,3.3-.3,6.7-.6,10,0,0,0,.1-.1.1l-.1.1c-.8.3-1.5.6-2.3.9h-.2v-.1c.2-3.4.4-6.8.5-10.1,0,0,0-.1.1-.1l.1-.1c.8-.2,1.6-.5,2.4-.8h0q.1,0,.2.1c0-.1,0,0,0,0h0ZM58.5,26.9c0,.8-.1,1.6-.1,2.4v.1l-.1.1c-.7.4-1.5.8-2.3,1.2q-.1,0-.1-.1c.1-.9.1-1.9.2-2.8,0-.2-.1-.2-.1-.2h-.2c-.1,0-.1.1-.2.1q-.1.1-.1.2c-.1,2.4-.3,4.7-.5,7.1v.1l.1.1h.2c.1,0,.1-.1.2-.2,0-.1.1-.1.1-.2.1-1.1.2-2.3.3-3.4,0,0,0-.1.1-.1l.1-.1c.8-.4,1.5-.8,2.3-1.2q.1,0,.1.1c-.1.9-.2,1.9-.2,2.9,0,.7-.3,1.3-.7,1.8-.6.8-1.5,1.4-2.4,1.9-.5.3-1.1.5-1.7.6-.2,0-.4,0-.5-.1-.3-.1-.5-.6-.4-1.3,0-.3.2-2.4.4-6.3,0-.7.2-1.3.7-1.8.5-.6,1.2-1.1,2.4-1.6.6-.3,1.3-.5,1.9-.6h.3c.1.2.3.6.2,1.3h0ZM64.5,21.4c-.1,3.1-.3,6.2-.6,9.2,0,.1-.1.2-.1.3-.7.5-1.4,1.1-2.1,1.6-.1.1-.1,0-.1-.1.1-1.4.3-2.7.4-4.1v-.1h-.1l-.4.3v.2c-.1,1.4-.2,2.7-.4,4.1,0,.1-.1.2-.2.3-.7.5-1.4,1-2.2,1.5q-.1,0-.1-.1c.3-3.2.6-6.4.7-9.6v-.1l.1-.1c.7-.4,1.5-.9,2.2-1.3.1-.1.1,0,.1.1,0,1.2-.1,2.4-.2,3.6v.1h.1l.4-.3v-.2c.1-1.2.1-2.4.2-3.6v-.1l.1-.1c.7-.5,1.4-.9,2-1.4.2-.3.2-.2.2-.1h0Z"/>
</svg>