<?xml version="1.0" encoding="utf-8"?>
<!-- Generator: Adobe Illustrator 26.0.2, SVG Export Plug-In . SVG Version: 6.00 Build 0)  -->
<svg version="1.1" id="Layer_1" xmlns="http://www.w3.org/2000/svg" xmlns:xlink="http://www.w3.org/1999/xlink" x="0px" y="0px"
	 width="78px" height="42px" viewBox="0 0 78 42" style="enable-background:new 0 0 78 42;" xml:space="preserve">
<style type="text/css">
	.st0{fill:#FFFFFF;}
</style>
<path class="st0" d="M19.8,7.9c0.1-0.9-0.1-1.5-0.5-1.7C18.8,6,18,6.1,16.8,6.7c-0.5,0.2-1,0.5-1.4,0.7c-1.1,0.5-1.8,1.5-1.9,2.5
	c-0.3,3.4-0.4,6.8-0.4,10.3c0,0,0,0,0,0.1c0,0,0,0,0,0c0,0,0,0,0.1,0s0,0,0.1,0c1-0.4,2-0.8,3-1.2c1.2-0.5,2.1-1,2.6-1.6
	c0.5-0.6,0.7-1.4,0.7-2.1C19.5,12.8,19.6,10.4,19.8,7.9z M16.4,16.8c0,0.1,0,0.1-0.1,0.2c0,0.1-0.1,0.1-0.2,0.1L16,17.1
	c-0.1,0-0.1,0-0.1-0.1c0-2.7,0.2-5.4,0.4-8.1c0,0,0-0.1,0-0.1c0,0,0.1-0.1,0.1-0.1l0.1-0.1c0,0,0,0,0.1,0c0,0,0.1,0,0.1,0
	c0.1,0,0.1,0.1,0.1,0.1C16.6,11.5,16.5,14.1,16.4,16.8L16.4,16.8z M20.3,17.6c0.9-0.3,1.8-0.6,2.7-0.8c0,0,0.1,0,0.1-0.1
	c0,0,0-0.1,0-0.1c0-1.8,0.1-3.6,0.1-5.4c0,0,0-0.1,0-0.1s0.1-0.1,0.1-0.1l0.1,0c0,0,0.1,0,0.1,0c0,0,0.1,0,0.1,0c0,0,0,0,0.1,0.1
	c0,0,0,0.1,0,0.1c0,1.8,0,3.6,0.1,5.4c0.2,2.7,0.4,5.9,3.2,9.2c0.1,0.1,0.1,0.1,0.1,0c-0.1-2.3-0.4-13.5-0.3-15.3
	c0-0.2,0-0.5-0.1-0.7c-0.1-0.2-0.3-0.4-0.5-0.5c0,0,0,0,0,0c0,0,0,0,0,0c0,0,0,0,0-0.1c0,0,0,0,0,0c0.4-0.4,0.7-0.9,0.8-1.5
	c0-0.7,0.1-1.4,0.1-2.1c0-0.9-0.1-1.5-0.5-1.8c-0.5-0.3-1.4-0.3-2.6,0.1c-1,0.4-2.1,0.7-3.1,1.1c0,0-0.1,0.1-0.1,0.1
	c0,0,0,0.1-0.1,0.1c-0.4,4.1-0.6,8.2-0.6,12.4c0,0,0,0,0,0.1s0,0,0,0C20.2,17.6,20.2,17.6,20.3,17.6C20.2,17.6,20.3,17.6,20.3,17.6
	L20.3,17.6z M23.6,5.9c0,0,0-0.1,0-0.1c0,0,0.1-0.1,0.1-0.1l0.1,0c0,0,0.1,0,0.1,0c0,0,0.1,0,0.1,0c0,0,0,0,0.1,0.1c0,0,0,0.1,0,0.1
	C24,6.8,24,7.7,23.9,8.6c0,0.1,0,0.1-0.1,0.2c0,0.1-0.1,0.1-0.2,0.1l-0.1,0c-0.1,0-0.1,0-0.1-0.1C23.5,7.9,23.5,6.9,23.6,5.9
	L23.6,5.9z M27.9,15.6c0.9-0.2,1.9-0.3,2.8-0.5c0,0,0.1,0,0.1-0.1c0,0,0-0.1,0.1-0.1c0-1.9,0-3.7,0.1-5.6c0,0,0-0.1,0.1-0.1
	c0,0,0.1-0.1,0.1-0.1l0.2,0c0,0,0,0,0.1,0c0,0,0,0,0.1,0c0,0,0,0,0,0c0,0,0,0,0,0.1c0,1.9-0.1,3.7-0.1,5.6c0,0,0,0,0,0.1
	c0,0,0,0,0,0c0,0,0,0,0.1,0c0,0,0,0,0.1,0c0.9-0.1,1.9-0.2,2.8-0.3c0,0,0.1,0,0.1-0.1c0,0,0-0.1,0-0.1c0-3.5,0.1-7,0.1-10.5
	c0-0.9-0.2-1.6-0.6-2c-0.5-0.5-1.4-0.6-2.6-0.4c-1.2,0.2-2.1,0.7-2.7,1.3C28.3,3.6,28,4.4,28,5.1c-0.2,3.5-0.3,6.9-0.3,10.4
	c0,0,0,0,0,0.1s0,0,0,0C27.8,15.6,27.8,15.6,27.9,15.6C27.8,15.6,27.9,15.6,27.9,15.6L27.9,15.6z M31.1,4c0-0.1,0-0.1,0.1-0.2
	c0.1-0.1,0.1-0.1,0.2-0.1c0.2,0,0.2,0,0.2,0.2c0,1-0.1,2-0.1,3c0,0,0,0.1-0.1,0.1c0,0-0.1,0.1-0.1,0.1l-0.2,0c0,0,0,0-0.1,0
	c0,0,0,0-0.1,0c0,0,0,0,0,0c0,0,0,0,0-0.1C31,6,31.1,5,31.1,4L31.1,4z M41.6,14c-0.5,0.5-1.5,0.7-2.7,0.7c-1.3,0-2.2-0.2-2.7-0.7
	c-0.4-0.4-0.7-1.1-0.7-2c0-0.4,0-3.1,0.1-8c0-0.9,0.2-1.6,0.7-2.1C36.8,1.3,37.7,1,38.9,1s2.1,0.3,2.6,0.9c0.4,0.4,0.6,1.1,0.7,2.1
	c0,1.1,0,2.2,0.1,3.3c0,0,0,0,0,0.1c0,0,0,0,0,0.1c0,0,0,0-0.1,0c0,0,0,0-0.1,0c-0.9-0.1-1.8-0.1-2.7-0.1c0,0-0.1,0-0.1,0
	s0-0.1,0-0.1c0-1.3,0-2.6,0-3.9c0,0,0-0.1,0-0.1c0,0,0-0.1-0.1-0.1c0,0-0.1,0-0.1,0c0,0-0.1,0-0.1,0c-0.2,0-0.3,0.1-0.3,0.2
	c0,3.1,0,6.1,0,9.2c0,0,0,0.1,0,0.1c0,0,0,0.1,0.1,0.1c0,0,0.1,0,0.1,0.1c0,0,0.1,0,0.1,0c0.1,0,0.1,0,0.2-0.1c0,0,0,0,0.1-0.1
	c0,0,0-0.1,0-0.1c0-1.5,0-3,0-4.5c0,0,0,0,0-0.1c0,0,0,0,0-0.1c0,0,0,0,0.1,0c0,0,0,0,0.1,0c0.9,0,1.8,0,2.8,0.1c0,0,0.1,0,0.1,0.1
	c0,0,0,0.1,0,0.1c0,1.3,0,2.6,0,3.9C42.3,13,42.1,13.6,41.6,14L41.6,14z M43.3,12.1c0-3.5-0.1-7-0.2-10.5c0,0,0,0,0-0.1
	c0,0,0,0,0-0.1c0,0,0,0,0.1,0c0,0,0,0,0.1,0c0.9,0.1,1.8,0.2,2.7,0.4c0,0,0.1,0,0.1,0.1c0,0,0,0.1,0.1,0.1c0.1,3.7,0.2,7.3,0.3,11
	c0,0.1,0,0.1,0.1,0.2c0,0,0.1,0.1,0.1,0.1c0,0,0.1,0,0.1,0c0.2,0,0.2,0,0.2-0.2c-0.1-3.7-0.2-7.3-0.3-11c0,0,0,0,0-0.1c0,0,0,0,0,0
	c0,0,0,0,0.1,0c0,0,0,0,0.1,0c0.9,0.2,1.8,0.4,2.7,0.6c0,0,0.1,0,0.1,0.1c0,0,0,0.1,0.1,0.1c0.2,3.4,0.3,6.9,0.4,10.3
	c0,0.9-0.2,1.6-0.6,1.9c-0.5,0.4-1.4,0.5-2.7,0.3c-1.3-0.2-2.2-0.5-2.7-1.1C43.5,13.7,43.3,13,43.3,12.1L43.3,12.1z M50.3,3
	c0-0.1,0-0.1,0-0.2c0.1,0,0.1,0,0.2,0C51.4,3,52.2,3.3,53,3.6c0.1,0,0.1,0,0.2,0.1c0,0.1,0,0.1,0,0.2c0.3,3.4,0.4,6.8,0.5,10.1
	c0,0.1,0,0.1,0,0.2c0.1,0,0.1,0.1,0.2,0.1c1.1,0.3,2.2,0.6,3.2,1c0.1,0,0.1,0,0.2,0.1c0,0.1,0,0.1,0,0.2c0,0.7,0,1.3,0,2
	c0,0.1,0,0.1,0,0.2c-0.1,0-0.1,0-0.2,0c-7-1.8-1.1,3.7-6.5,8.2c-0.1,0.1-0.1,0-0.1-0.1C50.8,18.1,50.7,10.5,50.3,3L50.3,3z
	 M64.2,10.7c0-0.8-0.3-1.5-0.8-2.2c-0.7-0.9-1.6-1.5-2.7-2C59.5,6,58.4,5.4,58,5.7c-0.4,0.2-0.3,1.2-0.2,2.1
	c0.2,3.3,0.4,6.6,0.4,9.9c0,0.1,0,0.1,0,0.2c0.1,0,0.1,0.1,0.2,0.1c0.9,0.3,1.7,0.6,2.6,0.9c0.1,0,0.1,0,0.2,0c0-0.1,0-0.1,0-0.2
	c0-1.7,0-3.4-0.1-5.1c0-0.1,0-0.1,0-0.2c0.1,0,0.1,0,0.2,0.1l0.1,0.1c0.1,0,0.1,0.1,0.2,0.1c0,0.1,0,0.1,0,0.2
	c0.1,1.7,0.1,3.4,0.1,5.1c0,0.1,0,0.1,0,0.2c0.1,0,0.1,0.1,0.2,0.1c0.9,0.3,1.7,0.7,2.5,1c0.1,0,0.1,0,0.2,0.1c0-0.1,0-0.1,0-0.2
	C64.5,17,64.4,13.8,64.2,10.7L64.2,10.7z M61.4,11.7c-0.1,0-0.1,0-0.2-0.1l-0.1-0.1c-0.1,0-0.1-0.1-0.2-0.1c0-0.1,0-0.1,0-0.2
	c-0.1-0.9-0.1-1.9-0.2-2.8c0-0.1,0-0.2,0.1-0.1c0.1,0,0.2,0.1,0.2,0.2c0.1,0.1,0.1,0.2,0.1,0.3c0.1,0.9,0.1,1.8,0.2,2.7
	C61.4,11.6,61.4,11.6,61.4,11.7L61.4,11.7z M18.7,32.7c0.1,0.7-0.1,1.1-0.3,1.1c-0.1,0-0.2,0-0.2,0c-0.4,0-1.1-0.4-1.9-1
	c-0.9-0.6-1.6-1.3-2.2-2.2c-0.4-0.6-0.6-1.2-0.6-1.9c-0.1-0.6-0.1-1.2-0.1-1.8c0-0.1,0-0.1,0.1-0.1c0.7,0.5,1.4,1,2.1,1.5
	c0,0,0.1,0.1,0.1,0.1c0,0,0,0.1,0,0.1c0.1,0.8,0.1,1.6,0.2,2.4c0,0.1,0,0.1,0.1,0.2c0,0.1,0.1,0.1,0.2,0.2c0,0,0,0,0.1,0
	c0,0,0.1,0,0.1,0c0,0,0,0,0.1,0c0,0,0,0,0,0c0,0,0,0,0,0c0,0,0,0,0,0c-0.1-0.9-0.2-1.9-0.2-2.8c0-0.1,0-0.1,0-0.2
	c-0.8-0.6-1.7-1.2-2.4-1.8c-0.1-0.1-0.2-0.2-0.3-0.3c-0.1-0.1-0.1-0.2-0.1-0.4c-0.1-1-0.1-2-0.2-3c0-0.7,0.1-1,0.4-1.1h0.1
	c0.4,0,1,0.3,1.9,0.9c0.8,0.5,1.6,1.2,2.2,1.9c0.4,0.5,0.6,1.2,0.6,1.8c0,0.5,0.1,0.9,0.1,1.4c0,0.1-0.1,0.1-0.1,0.1
	c-0.7-0.4-1.5-0.9-2.2-1.4c0,0-0.1-0.1-0.1-0.1c0,0,0-0.1,0-0.1c0-0.6-0.1-1.2-0.1-1.9c0-0.1,0-0.1-0.1-0.2c0-0.1-0.1-0.1-0.2-0.2
	c0,0-0.1-0.1-0.2-0.1c0,0-0.1,0-0.1,0.1c0,0.7,0.1,1.5,0.1,2.2c0,0.1,0,0.1,0,0.2c0.8,0.6,1.7,1.1,2.5,1.6c0.1,0.1,0.2,0.1,0.3,0.2
	c0.1,0.1,0.1,0.2,0.1,0.4C18.5,30.2,18.6,31.5,18.7,32.7z M24.1,27.9c-0.5-0.6-1.2-1.1-2.4-1.6c-0.6-0.3-1.3-0.5-1.9-0.6
	c-0.1,0-0.2,0-0.3,0c-0.3,0.1-0.5,0.5-0.5,1.2c0.1,2.6,0.3,5.3,0.6,7.9c0,0,0,0.1,0.1,0.1c0,0,0.1,0.1,0.1,0.1
	c0.7,0.5,1.5,0.9,2.3,1.3c0.1,0,0.1,0,0.1-0.1c-0.1-1.4-0.3-2.8-0.4-4.3c0-0.1,0-0.2,0-0.1l0,0l0.5,0.2h0c0,0.1,0,0.1,0,0.2
	c0.1,1.4,0.2,2.9,0.4,4.3c0,0,0,0.1,0.1,0.1c0,0,0.1,0.1,0.1,0.1c0.8,0.4,1.5,0.8,2.3,1.1c0.1,0,0.1,0,0.1-0.1
	c-0.2-2.7-0.4-5.4-0.5-8.1C24.7,29.1,24.5,28.4,24.1,27.9L24.1,27.9z M22.1,30.7L22.1,30.7l-0.5-0.2h0c0-0.1,0-0.1,0-0.2
	c0-0.8-0.1-1.6-0.1-2.4c0-0.2,0.1-0.2,0.2-0.2c0.1,0,0.1,0,0.2,0.1c0.1,0,0.1,0.1,0.2,0.1c0,0.1,0.1,0.1,0.1,0.2
	c0,0.8,0.1,1.6,0.1,2.4C22.2,30.6,22.2,30.7,22.1,30.7L22.1,30.7z M31.4,31.3c0.1,2.9,0.2,5.8,0.3,8.7c0,0,0,0,0,0.1c0,0,0,0,0,0
	c0,0,0,0-0.1,0c0,0,0,0-0.1,0c-0.8-0.2-1.6-0.4-2.3-0.6c0,0-0.1,0-0.1-0.1c0,0,0-0.1-0.1-0.1c-0.2-2.9-0.3-5.8-0.4-8.7
	c0,0,0-0.1,0-0.1c0,0,0-0.1-0.1-0.1c-0.1-0.1-0.1-0.1-0.2-0.1c0,0-0.1,0-0.1,0c0,0-0.1,0-0.1,0c0,0,0,0-0.1,0c0,0,0,0,0,0.1
	c0,0,0,0.1,0,0.1c0.1,2.9,0.3,5.8,0.5,8.7c0,0,0,0,0,0.1c0,0,0,0,0,0c0,0,0,0-0.1,0c0,0,0,0-0.1,0c-0.8-0.3-1.6-0.6-2.3-0.9
	c0,0-0.1-0.1-0.1-0.1c0,0,0-0.1-0.1-0.1c-0.3-3.3-0.5-6.7-0.6-10c0,0,0,0,0-0.1c0,0,0,0,0,0c0,0,0,0,0.1,0c0,0,0,0,0.1,0
	c0.8,0.3,1.6,0.6,2.4,0.8c0.1,0,0.2,0.1,0.2,0.1s0,0.1,0,0.1h0c0.3-0.1,0.7-0.1,1,0C30.7,29.4,31.4,30.2,31.4,31.3L31.4,31.3z
	 M37.8,31c-0.5-0.4-1.3-0.6-2.5-0.7c-1-0.1-2-0.2-3-0.4c0,0,0,0-0.1,0c0,0,0,0-0.1,0c0,0,0,0,0,0c0,0,0,0,0,0.1
	c0.1,3.4,0.2,6.8,0.3,10.3c0,0,0,0.1,0.1,0.1c0,0,0.1,0.1,0.1,0.1c0.9,0.2,1.9,0.3,2.8,0.4c0.2,0,0.4,0,0.6,0c0.8,0,1.4-0.1,1.8-0.5
	c0.4-0.3,0.6-0.8,0.6-1.6v-6.3C38.3,31.8,38.2,31.3,37.8,31L37.8,31z M35.6,39.2c0,0-0.1,0.1-0.2,0.1h0l-0.2,0h0c0,0,0-0.1,0-0.2
	C35,36.7,35,34.3,34.9,32c0-0.1,0-0.2,0-0.2h0l0.2,0c0.1,0,0.1,0,0.2,0.1c0,0,0.1,0.1,0.1,0.1s0,0.1,0,0.1c0,2.3,0.1,4.6,0.1,6.9
	C35.7,39.1,35.7,39.1,35.6,39.2C35.6,39.2,35.6,39.2,35.6,39.2z M48.7,29.2c-0.1,2.8-0.2,5.5-0.4,8.3c0,0.6-0.2,1.3-0.7,1.8
	c-0.7,0.6-1.5,1.1-2.4,1.2c-0.2,0-0.4,0.1-0.5,0.1c-0.4,0-0.7-0.1-1-0.2h0c0,0,0,0,0,0s0,0,0,0c-0.4,0.4-1,0.6-1.6,0.7
	c-0.2,0-0.4,0-0.5,0c-0.8,0-1.5-0.1-1.8-0.5c-0.4-0.3-0.6-0.9-0.6-1.6c0-2.8,0-5.6,0-8.4c0,0,0,0,0-0.1c0,0,0,0,0-0.1c0,0,0,0,0.1,0
	c0,0,0,0,0.1,0c0.8,0,1.7-0.1,2.5-0.1c0,0,0,0,0.1,0c0,0,0,0,0.1,0c0,0,0,0,0,0.1c0,0,0,0,0,0.1c0,2.9-0.1,5.9-0.1,8.8
	c0,0,0,0.1,0,0.1c0,0,0,0.1,0.1,0.1c0,0,0.1,0,0.1,0.1c0,0,0.1,0,0.1,0h0c0,0,0.1,0,0.1,0c0,0,0.1,0,0.1-0.1c0,0,0-0.1,0.1-0.1
	c0,0,0-0.1,0-0.1c0.1-2.9,0.1-5.9,0.2-8.8c0,0,0-0.1,0-0.1c0,0,0.1-0.1,0.1-0.1c0.8-0.1,1.7-0.2,2.5-0.3c0,0,0,0,0.1,0
	c0,0,0,0,0.1,0c0,0,0,0,0,0c0,0,0,0,0,0.1c-0.1,2.9-0.1,5.9-0.3,8.8c0,0,0,0.1,0,0.1s0,0.1,0.1,0.1c0,0,0.1,0,0.2,0h0
	c0.1,0,0.1-0.1,0.2-0.1c0.1,0,0.1-0.1,0.1-0.2c0.1-2.9,0.2-5.9,0.3-8.8c0,0,0-0.1,0-0.1c0,0,0.1-0.1,0.1-0.1
	c0.8-0.2,1.6-0.4,2.5-0.6c0,0,0,0,0.1,0c0,0,0,0,0.1,0C48.6,29.1,48.7,29.1,48.7,29.2C48.7,29.2,48.7,29.2,48.7,29.2L48.7,29.2z
	 M52.1,28.1c-0.1,3.3-0.3,6.7-0.6,10c0,0,0,0.1-0.1,0.1c0,0-0.1,0.1-0.1,0.1c-0.8,0.3-1.5,0.6-2.3,0.9c0,0,0,0-0.1,0c0,0,0,0-0.1,0
	c0,0,0,0,0,0c0,0,0,0,0-0.1c0.2-3.4,0.4-6.8,0.5-10.1c0,0,0-0.1,0.1-0.1c0,0,0.1-0.1,0.1-0.1c0.8-0.2,1.6-0.5,2.4-0.8c0,0,0,0,0,0
	C52,28,52,28,52.1,28.1C52.1,28,52.1,28.1,52.1,28.1C52.1,28.1,52.1,28.1,52.1,28.1L52.1,28.1z M58.5,26.9c0,0.8-0.1,1.6-0.1,2.4
	c0,0,0,0.1,0,0.1c0,0-0.1,0.1-0.1,0.1c-0.7,0.4-1.5,0.8-2.3,1.2c-0.1,0-0.1,0-0.1-0.1c0.1-0.9,0.1-1.9,0.2-2.8
	c0-0.2-0.1-0.2-0.1-0.2c-0.1,0-0.1,0-0.2,0c-0.1,0-0.1,0.1-0.2,0.1c-0.1,0.1-0.1,0.1-0.1,0.2c-0.1,2.4-0.3,4.7-0.5,7.1
	c0,0,0,0.1,0,0.1c0,0,0,0,0.1,0.1c0,0,0.1,0,0.1,0c0,0,0.1,0,0.1,0c0.1,0,0.1-0.1,0.2-0.2c0-0.1,0.1-0.1,0.1-0.2
	c0.1-1.1,0.2-2.3,0.3-3.4c0,0,0-0.1,0.1-0.1c0,0,0.1-0.1,0.1-0.1c0.8-0.4,1.5-0.8,2.3-1.2c0.1,0,0.1,0,0.1,0.1
	c-0.1,0.9-0.2,1.9-0.2,2.9c0,0.7-0.3,1.3-0.7,1.8c-0.6,0.8-1.5,1.4-2.4,1.9c-0.5,0.3-1.1,0.5-1.7,0.6c-0.2,0-0.4,0-0.5-0.1
	c-0.3-0.1-0.5-0.6-0.4-1.3c0-0.3,0.2-2.4,0.4-6.3c0-0.7,0.2-1.3,0.7-1.8c0.5-0.6,1.2-1.1,2.4-1.6c0.6-0.3,1.3-0.5,1.9-0.6
	c0.1,0,0.2,0,0.3,0C58.4,25.8,58.6,26.2,58.5,26.9L58.5,26.9z M64.5,21.4c-0.1,3.1-0.3,6.2-0.6,9.2c0,0.1-0.1,0.2-0.1,0.3
	c-0.7,0.5-1.4,1.1-2.1,1.6c-0.1,0.1-0.1,0-0.1-0.1c0.1-1.4,0.3-2.7,0.4-4.1c0-0.1,0-0.1,0-0.1l-0.1,0l-0.4,0.3c0,0.1,0,0.1,0,0.2
	c-0.1,1.4-0.2,2.7-0.4,4.1c0,0.1-0.1,0.2-0.2,0.3c-0.7,0.5-1.4,1-2.2,1.5c-0.1,0-0.1,0-0.1-0.1c0.3-3.2,0.6-6.4,0.7-9.6
	c0,0,0-0.1,0-0.1c0,0,0.1-0.1,0.1-0.1c0.7-0.4,1.5-0.9,2.2-1.3c0.1-0.1,0.1,0,0.1,0.1c0,1.2-0.1,2.4-0.2,3.6c0,0.1,0,0.1,0,0.1
	l0.1,0l0.4-0.3c0-0.1,0-0.1,0-0.2c0.1-1.2,0.1-2.4,0.2-3.6c0,0,0-0.1,0-0.1c0,0,0.1-0.1,0.1-0.1c0.7-0.5,1.4-0.9,2-1.4
	C64.5,21.2,64.5,21.3,64.5,21.4L64.5,21.4z"/>
</svg>
