<?xml version="1.0" encoding="UTF-8"?>
<svg id="Layer_1" xmlns="http://www.w3.org/2000/svg" version="1.1" viewBox="0 0 104 42">
  <!-- Generator: Adobe Illustrator 29.5.0, SVG Export Plug-In . SVG Version: 2.1.0 Build 137)  -->
  <defs>
    <style>
      .st0 {
        fill: #4f2c1d;
      }
    </style>
  </defs>
  <path class="st0" d="M102.6,8c-.1-.9-.7-1.2-1.2-.8-2.2,1.8-3.4,6.5-3.6,9.5-.1.9,0,2.5.2,3.6,2.7-3.2,4.7-7.9,4.6-12.3ZM103,24.8c.1,0,.5.2.3.3-2.4,1.4-5.4.6-6.3-1.9-2.1-6.5,0-14.1,4.3-16.9,2.1-1.3,3.3.9,2.4,4.5-.7,2.9-2.2,6.1-3.8,8.5-.5.7-1.6,1.9-1.6,2.4-.1,1.1,1.2,2.8,2.6,3.1.6.2,1.5-.1,2.1,0ZM20.4,27.5c-1-1.8,1.9-3.2,2.4-3.3.2,0,.5.1.7.1.2.7-2.1,1-2.2,2.2.3.9,1.8.7,2.5.6,3.1-.4,9-4.4,7.5-9-2.9-8.6-20.5-9.1-29-2.7,0,.5,0,.9-.1,1.2-.7.4-1.9.4-2.2-.1,1.3-3.2,10-5.9,17.2-6.2,6.1-.2,13.1,2.3,15.3,6.1,1.1,2,1,4.5-.1,6.5-1.3,2.1-4.8,4.3-7.5,5-1.2.3-3.7.8-4.5-.4ZM73.7,24.5c0-.6-.8-1.1-1.1-1.2-.2.1-3.3.5-4.6.5v3.4c.6-.5.5-1.6,1.7-1.5.1.5-.3.7,0,1,1.8-.2,4-1,4-2.2ZM68.1,22.5c1,.1,2.1,0,3.4-.2-.9-.4-2.1-.8-3.3-.8-.1.3-.1.7-.1,1ZM64.4,22.1c.9.2,1.6.4,2.7.4v-1.1c-1.2.1-2.2.1-2.7.7ZM74.9,22.8c1.5,2.7-2.8,4.6-5.8,5.6-.4.1-.9-.2-1-.6-.4-.3-.6.3-1.1.2v-4.1c-1.6-.2-4.9-.2-4.8-1.2.2-2.3,3-2.3,5-2.4,0,0,0-1.4.2-2.1.1-.3.3-.4.5-.5.5.4.1,1.8.3,2.6,1.3.1,2.4.3,3.6.6.9.2,2.4,1,2.4,1,.8,0,6.6-1.3,7.2-4.1.5-3.7-3.4-5.2-6.7-5.9-4.7-.9-11.3.3-14.7,1.7-1.8.7-4.7,2.2-3.5,4.2,0,.5-.4.7-.6,1,2,.2,6.8.1,6.1.6-4.5.4-7.9,0-12.6.4-.5,1.9-.7,4.4,1,5,1.3.5,2.2,0,3.7-.4.1-.1.2.4,0,.5-.5.3-1.6.7-2.3.8-4,.6-4.8-2.6-4.1-6-1-.3-2.6,0-3.8-.1.2.6-.4,1.3-.3,2,.2,1.6,5,3.9,1.5,5.5-1.1.4-1.9,0-2.9-.6-.1-.6.4-1,.5-1,1,.4,2.4,1.1,2.4-.2,0-.8-1.5-1.1-2.1-1.6-.8.9-2,1.7-3.8,1.1-.4-.1-.7-.4-1-.6-1.9,1.2-4.7.1-4.6-2.2.1-.2.9-.5,1.9-.4.3.5-.1,1.5.2,2,.6.9,1.7-.2,2.2-1,.3-.6.8-.6.8-.1-.2,2.3,2.9,2.3,3.4.6-.2-.6-.9-.7-1.1-1.2-.1-1,.3-1.4.6-2-1.1-.3-2.9.1-3.5-.7.1-1.7,1.8-.5,2.6-.4,2.1.3,5.2-.1,7.4.1.5-1.5.9-3.1,1.8-4.5.4-.1.6.1.9.2-.1.8-.9,3.1-1.2,4.4h4.9c.5-6.1,8.8-7.9,14.4-8.5,2.3-.2,4.3-.2,6.3,0,3.4.4,7.1,2.1,7.6,4.6,1,4.4-3.9,6.4-7.9,7.7ZM19,17.3c.7,2,0,5.4.2,8.1-.5.3-.7.9-1.5.6.2-2-.3-5.8-.2-7.8.1-.5,1.2-1.3,1.5-.9ZM79.6,23.2s-.4.2-.6.4c-1.2,1.3.4,2.7,1.5,1.6.3-.4.4-.7.1-.9-.5-.3-.8-.8-1-1.1ZM86.8,24c.2.5.9.3,1.3-.1.7-.5,1.4-1.7,1.8-1.7,1.6-.1,1.5,1.9,2.3,1.6.5-.3.7-1.1,1-1.6.2-.4,2,.4,3.4.2-.2.6-1.6.5-2.1.9-.9.7-.9,2.3-2.5,1.8-.5-.1-1.2-1-1.6-1.5-1.6.6-3.5,2.5-4.9.4-.8.9-1.9,1.2-3.3.7-1.7,1.7-5.4,2.2-5.1-.2.1-1.3,2.8-2.4,4.6-1.7.4,1.7,2,1.9,3.5.8,0,0-.7-1-.3-1.3,1-.6,1.5.9,1.9,1.7ZM27.1,36.3v-3.1h.4v2.8h1.2v.4h-1.6v-.1ZM32.1,33.6l-.5,1.6h1l-.5-1.6ZM31.9,33.2h.5l1,3.1h-.4l-.2-.7h-1.2l-.2.7h-.4l.9-3.1ZM38.1,33.2v3.1h-.5l-1.2-2.7v2.7h-.4v-3.1h.5l1.2,2.7v-2.7h.4ZM41,36.3v-3.1h1.6v.4h-1.2v1h1.1v.4h-1.1v1h1.2v.4h-1.6v-.1ZM45.6,35.4h0c0,.5.3.6.5.6.3,0,.5-.1.5-.5,0-.7-1.4-.6-1.4-1.5,0-.5.4-.9.9-.9.6,0,.9.3.9.9h-.4c0-.3-.1-.6-.5-.6-.2,0-.5.1-.5.5,0,.7,1.4.6,1.4,1.6,0,.7-.4.9-1,.9-.9,0-.9-.7-.9-1h.5ZM54.2,33.8c0-.2-.1-.4-.3-.4s-.4.1-.4.4c0,.2.2.4.3.5.2-.1.4-.3.4-.5ZM53.7,34.8c-.3.2-.5.4-.5.7s.3.6.6.6.5-.1.6-.3l-.7-1ZM54.7,36c-.2.3-.5.4-.9.4-.5,0-1-.3-1-.9,0-.5.3-.7.7-1-.2-.2-.4-.5-.4-.8,0-.4.4-.6.8-.6s.7.2.7.6c0,.3-.3.6-.5.8l.6.8c.1-.2.1-.4.1-.9h.4c0,.7-.1,1-.2,1.2l.5.7h-.5l-.3-.3ZM61.1,36.3v-3.1h.4v2.8h1.2v.4h-1.6v-.1ZM66.7,35.2v-1c0-.7-.4-.7-.6-.7-.1,0-.6,0-.6.7v1c0,.7.2.9.6.9.4,0,.6-.2.6-.9ZM65.2,35.2v-1c0-.6.3-1,1-1s1,.4,1,1v1c0,.9-.3,1.2-1,1.2s-1-.3-1-1.2ZM70,33.2h.4v2c0,.7.2.9.6.9s.6-.2.6-.9v-2h.4v2c0,.9-.3,1.2-1,1.2s-1-.3-1-1.2v-2h0ZM76.9,33.2v3.1h-.5l-1.2-2.7v2.7h-.4v-3.1h.5l1.2,2.7v-2.7h.4ZM81.3,34c0-.4-.1-.6-.5-.6-.1,0-.6,0-.6.7v1c0,.7.2.9.6.9.3,0,.5-.1.5-.1v-.9h-.6v-.4h1v1.5c-.2.1-.5.2-1,.2-.7,0-1-.3-1-1.2v-1c0-.6.3-1,1-1s1,.2,1,.9h-.4ZM84.6,36.3v-3.1h1.6v.4h-1.2v1h1.1v.4h-1.1v1h1.2v.4h-1.6v-.1Z"/>
</svg>