<?xml version="1.0" encoding="utf-8"?>
<!-- Generator: Adobe Illustrator 26.0.2, SVG Export Plug-In . SVG Version: 6.00 Build 0)  -->
<svg version="1.1" id="Layer_1" xmlns="http://www.w3.org/2000/svg" xmlns:xlink="http://www.w3.org/1999/xlink" x="0px" y="0px"
	 width="104px" height="42px" viewBox="0 0 104 42" style="enable-background:new 0 0 104 42;" xml:space="preserve">
<style type="text/css">
	.st0{fill:#FFFFFF;}
</style>
<path class="st0" d="M102.6,8c-0.1-0.9-0.7-1.2-1.2-0.8c-2.2,1.8-3.4,6.5-3.6,9.5c-0.1,0.9,0,2.5,0.2,3.6
	C100.7,17.1,102.7,12.4,102.6,8z M103,24.8c0.1,0,0.5,0.2,0.3,0.3c-2.4,1.4-5.4,0.6-6.3-1.9c-2.1-6.5,0-14.1,4.3-16.9
	c2.1-1.3,3.3,0.9,2.4,4.5c-0.7,2.9-2.2,6.1-3.8,8.5c-0.5,0.7-1.6,1.9-1.6,2.4c-0.1,1.1,1.2,2.8,2.6,3.1
	C101.5,25,102.4,24.7,103,24.8z M20.4,27.5c-1-1.8,1.9-3.2,2.4-3.3c0.2,0,0.5,0.1,0.7,0.1c0.2,0.7-2.1,1-2.2,2.2
	c0.3,0.9,1.8,0.7,2.5,0.6c3.1-0.4,9-4.4,7.5-9c-2.9-8.6-20.5-9.1-29-2.7c0,0.5,0,0.9-0.1,1.2C1.5,17,0.3,17,0,16.5
	c1.3-3.2,10-5.9,17.2-6.2c6.1-0.2,13.1,2.3,15.3,6.1c1.1,2,1,4.5-0.1,6.5c-1.3,2.1-4.8,4.3-7.5,5C23.7,28.2,21.2,28.7,20.4,27.5z
	 M73.7,24.5c0-0.6-0.8-1.1-1.1-1.2c-0.2,0.1-3.3,0.5-4.6,0.5v3.4c0.6-0.5,0.5-1.6,1.7-1.5c0.1,0.5-0.3,0.7,0,1
	C71.5,26.5,73.7,25.7,73.7,24.5z M68.1,22.5c1,0.1,2.1,0,3.4-0.2c-0.9-0.4-2.1-0.8-3.3-0.8C68.1,21.8,68.1,22.2,68.1,22.5z
	 M64.4,22.1c0.9,0.2,1.6,0.4,2.7,0.4v-1.1C65.9,21.5,64.9,21.5,64.4,22.1z M74.9,22.8c1.5,2.7-2.8,4.6-5.8,5.6
	c-0.4,0.1-0.9-0.2-1-0.6c-0.4-0.3-0.6,0.3-1.1,0.2v-4.1c-1.6-0.2-4.9-0.2-4.8-1.2c0.2-2.3,3-2.3,5-2.4c0,0,0-1.4,0.2-2.1
	c0.1-0.3,0.3-0.4,0.5-0.5c0.5,0.4,0.1,1.8,0.3,2.6c1.3,0.1,2.4,0.3,3.6,0.6c0.9,0.2,2.4,1,2.4,1c0.8,0,6.6-1.3,7.2-4.1
	c0.5-3.7-3.4-5.2-6.7-5.9c-4.7-0.9-11.3,0.3-14.7,1.7c-1.8,0.7-4.7,2.2-3.5,4.2c0,0.5-0.4,0.7-0.6,1c2,0.2,6.8,0.1,6.1,0.6
	c-4.5,0.4-7.9,0-12.6,0.4c-0.5,1.9-0.7,4.4,1,5c1.3,0.5,2.2,0,3.7-0.4c0.1-0.1,0.2,0.4,0,0.5c-0.5,0.3-1.6,0.7-2.3,0.8
	c-4,0.6-4.8-2.6-4.1-6c-1-0.3-2.6,0-3.8-0.1c0.2,0.6-0.4,1.3-0.3,2c0.2,1.6,5,3.9,1.5,5.5c-1.1,0.4-1.9,0-2.9-0.6
	c-0.1-0.6,0.4-1,0.5-1c1,0.4,2.4,1.1,2.4-0.2c0-0.8-1.5-1.1-2.1-1.6c-0.8,0.9-2,1.7-3.8,1.1c-0.4-0.1-0.7-0.4-1-0.6
	c-1.9,1.2-4.7,0.1-4.6-2.2c0.1-0.2,0.9-0.5,1.9-0.4c0.3,0.5-0.1,1.5,0.2,2c0.6,0.9,1.7-0.2,2.2-1c0.3-0.6,0.8-0.6,0.8-0.1
	c-0.2,2.3,2.9,2.3,3.4,0.6c-0.2-0.6-0.9-0.7-1.1-1.2c-0.1-1,0.3-1.4,0.6-2c-1.1-0.3-2.9,0.1-3.5-0.7c0.1-1.7,1.8-0.5,2.6-0.4
	c2.1,0.3,5.2-0.1,7.4,0.1c0.5-1.5,0.9-3.1,1.8-4.5c0.4-0.1,0.6,0.1,0.9,0.2c-0.1,0.8-0.9,3.1-1.2,4.4c2.5,0,1.9,0,4.9,0
	c0.5-6.1,8.8-7.9,14.4-8.5c2.3-0.2,4.3-0.2,6.3,0c3.4,0.4,7.1,2.1,7.6,4.6C83.8,19.5,78.9,21.5,74.9,22.8z M19,17.3
	c0.7,2,0,5.4,0.2,8.1c-0.5,0.3-0.7,0.9-1.5,0.6c0.2-2-0.3-5.8-0.2-7.8C17.6,17.7,18.7,16.9,19,17.3z M79.6,23.2c0,0-0.4,0.2-0.6,0.4
	c-1.2,1.3,0.4,2.7,1.5,1.6c0.3-0.4,0.4-0.7,0.1-0.9C80.1,24,79.8,23.5,79.6,23.2z M86.8,24c0.2,0.5,0.9,0.3,1.3-0.1
	c0.7-0.5,1.4-1.7,1.8-1.7c1.6-0.1,1.5,1.9,2.3,1.6c0.5-0.3,0.7-1.1,1-1.6c0.2-0.4,2,0.4,3.4,0.2c-0.2,0.6-1.6,0.5-2.1,0.9
	c-0.9,0.7-0.9,2.3-2.5,1.8c-0.5-0.1-1.2-1-1.6-1.5c-1.6,0.6-3.5,2.5-4.9,0.4c-0.8,0.9-1.9,1.2-3.3,0.7c-1.7,1.7-5.4,2.2-5.1-0.2
	c0.1-1.3,2.8-2.4,4.6-1.7c0.4,1.7,2,1.9,3.5,0.8c0,0-0.7-1-0.3-1.3C85.9,21.7,86.4,23.2,86.8,24z M27.1,36.3v-3.1h0.4V36h1.2v0.4
	H27.1z M32.1,33.6l-0.5,1.6h1L32.1,33.6z M31.9,33.2h0.5l1,3.1h-0.4l-0.2-0.7h-1.2l-0.2,0.7h-0.4L31.9,33.2z M38.1,33.2v3.1h-0.5
	l-1.2-2.7v2.7H36v-3.1h0.5l1.2,2.7v-2.7H38.1z M41,36.3v-3.1h1.6v0.4h-1.2v1h1.1v0.4h-1.1V36h1.2v0.4H41z M45.6,35.4L45.6,35.4
	c0,0.5,0.3,0.6,0.5,0.6c0.3,0,0.5-0.1,0.5-0.5c0-0.7-1.4-0.6-1.4-1.5c0-0.5,0.4-0.9,0.9-0.9c0.6,0,0.9,0.3,0.9,0.9h-0.4
	c0-0.3-0.1-0.6-0.5-0.6c-0.2,0-0.5,0.1-0.5,0.5c0,0.7,1.4,0.6,1.4,1.6c0,0.7-0.4,0.9-1,0.9c-0.9,0-0.9-0.7-0.9-1H45.6z M54.2,33.8
	c0-0.2-0.1-0.4-0.3-0.4c-0.2,0-0.4,0.1-0.4,0.4c0,0.2,0.2,0.4,0.3,0.5C54,34.2,54.2,34,54.2,33.8z M53.7,34.8
	c-0.3,0.2-0.5,0.4-0.5,0.7c0,0.3,0.3,0.6,0.6,0.6c0.3,0,0.5-0.1,0.6-0.3L53.7,34.8z M54.7,36c-0.2,0.3-0.5,0.4-0.9,0.4
	c-0.5,0-1-0.3-1-0.9c0-0.5,0.3-0.7,0.7-1c-0.2-0.2-0.4-0.5-0.4-0.8c0-0.4,0.4-0.6,0.8-0.6c0.4,0,0.7,0.2,0.7,0.6
	c0,0.3-0.3,0.6-0.5,0.8l0.6,0.8c0.1-0.2,0.1-0.4,0.1-0.9h0.4c0,0.7-0.1,1-0.2,1.2l0.5,0.7H55L54.7,36z M61.1,36.3v-3.1h0.4V36h1.2
	v0.4H61.1z M66.7,35.2v-1c0-0.7-0.4-0.7-0.6-0.7c-0.1,0-0.6,0-0.6,0.7v1c0,0.7,0.2,0.9,0.6,0.9C66.5,36.1,66.7,35.9,66.7,35.2z
	 M65.2,35.2v-1c0-0.6,0.3-1,1-1s1,0.4,1,1v1c0,0.9-0.3,1.2-1,1.2C65.5,36.4,65.2,36.1,65.2,35.2z M70,33.2h0.4v2
	c0,0.7,0.2,0.9,0.6,0.9c0.4,0,0.6-0.2,0.6-0.9v-2h0.4v2c0,0.9-0.3,1.2-1,1.2c-0.7,0-1-0.3-1-1.2L70,33.2L70,33.2z M76.9,33.2v3.1
	h-0.5l-1.2-2.7v2.7h-0.4v-3.1h0.5l1.2,2.7v-2.7H76.9z M81.3,34c0-0.4-0.1-0.6-0.5-0.6c-0.1,0-0.6,0-0.6,0.7v1c0,0.7,0.2,0.9,0.6,0.9
	c0.3,0,0.5-0.1,0.5-0.1V35h-0.6v-0.4h1v1.5c-0.2,0.1-0.5,0.2-1,0.2c-0.7,0-1-0.3-1-1.2v-1c0-0.6,0.3-1,1-1c0.7,0,1,0.2,1,0.9
	L81.3,34L81.3,34z M84.6,36.3v-3.1h1.6v0.4H85v1h1.1v0.4H85V36h1.2v0.4H84.6z"/>
</svg>
