<?xml version="1.0" encoding="utf-8"?>
<!-- Generator: Adobe Illustrator 26.0.2, SVG Export Plug-In . SVG Version: 6.00 Build 0)  -->
<svg version="1.1" id="Layer_1" xmlns="http://www.w3.org/2000/svg" xmlns:xlink="http://www.w3.org/1999/xlink" x="0px" y="0px"
	 width="78px" height="42px" viewBox="0 0 78 42" style="enable-background:new 0 0 78 42;" xml:space="preserve">
<style type="text/css">
	.st0{fill:#FCFAF7;}
</style>
<g>
	<g>
		<path class="st0" d="M41.8,16.3c-1.4,0-2.7-1-2.6-2.8C39.4,9.6,44,7,48.3,7c3.8,0,6.4,1.7,6.2,5.1c-0.2,3.5-3.9,6.7-7,6.7
			c-1.3,0-1.8-0.4-1.8-0.6c0,0,0-0.1,0-0.1c0,0,0-0.1,0.1-0.1c0,0,0.1,0,0.1-0.1c0,0,0.1,0,0.1,0c0.2,0,0.3,0.1,0.6,0.1
			c1.6,0,5.2-1.6,5.6-6c0.2-2.8-2.5-4.1-4.3-4.1c-2.8,0-6.3,2.1-6.5,5.6c-0.1,2.2,1.8,1.6,1.8,2.3C43.2,16,42.9,16.3,41.8,16.3z
			 M15.2,34.2c-1.4,0-1.9-1.4-1.9-2.7c0.1-1,0.5-2,1.2-2.9l-0.4,0c-2.3,0-4.3,0.4-6,0.8c-0.1,0-0.2,0.1-0.4,0
			c-0.3,0-0.4-0.1-0.4-0.3c0-0.2,0.2-0.4,0.4-0.6c1.9-1.3,5-2.2,9.6-2.7c0.4-0.3,0.8-0.6,1.3-0.9c0.2-0.5,0.3-1,0.4-1.5
			c-0.6,0.5-1.2,0.8-1.9,0.8c-0.9,0-1.7-0.6-2-1.6c-1.2,1.1-2,1.5-2.8,1.5c-1,0-1.5-0.9-1.6-2.1c-0.6,0.6-1.2,1.2-1.9,1.6
			c-1.8,1.2-3.9,2.1-5.8,2c-1.2-0.1-2.3-0.6-2.8-1.9C0,23.5,0,23,0,22.6c0.1-1.2,0.7-2.4,1.8-3.4l0.1,0c-1-0.9-1.7-2.1-1.6-3.6
			c0.1-2.3,1.6-4.1,3.5-5.7C5.9,7.9,8.8,6.9,10.6,7c1.7,0,3,1.1,2.9,3.2c-0.1,2.6-2.7,5.3-5.9,5.2c-0.8,0-1.5-0.3-1.5-0.6
			c0-0.1,0.1-0.3,0.5-0.3c3.3-0.7,5-2.9,5-4.6c0.1-1.1-0.5-1.9-1.6-1.9C7.4,8,3,12.1,2.8,15.7c-0.1,1.1,0.2,1.9,0.6,2.4
			c1.1-0.6,2.4-0.9,3.3-0.9c0.9,0,1.6,0.5,1.5,1.2c0,0.9-0.9,1.8-3.3,1.8c-0.5,0-1.1-0.1-1.6-0.3c0,0,0,0,0,0c0,0,0,0,0,0
			c0,0,0,0,0,0c0,0,0,0,0,0c-0.5,0.7-0.9,1.6-1,2.4c-0.1,1.3,0.7,1.8,1.9,1.9c0.8,0,1.8-0.2,2.6-0.5c1.8-0.8,2.7-1.4,3.9-2.7
			c0-0.1,0-0.1,0-0.2c0.4-6.4,5.1-13.8,6.6-13.8c0.4,0,0.6,0.4,0.5,1.3c-0.2,3.2-2.9,9.4-5.3,12.3c0,1.6,0.3,2.1,0.7,2.1
			c0.4,0,1.1-0.4,1.8-1.1c0.3-2.5,3-5.3,5.9-5.3c1.3,0,2.3,0.5,2.3,1.6c-0.1,1.3-1.3,1.6-1.7,1.6c-0.4,0-1-0.1-0.9-0.5
			s0.9-0.2,0.9-1c0-0.5-0.5-0.7-1-0.7c-2.1,0-3.4,2.9-3.5,4.2c0,0.5,0.1,1.5,0.9,1.5c0.6,0,1.5-0.8,2-1.9c0.3-0.8,1.2-1.3,1.7-1.3
			c0.3,0,0.5,0.1,0.4,0.4c0,0.1,0,0.3-0.1,0.4c-0.3,0.8-0.6,1.7-1,2.7c1-0.7,2.2-1.5,3.1-2.5c0.4-1,0.9-1.9,1.2-2.3
			c0.1-0.1,0.1-0.2,0.2-0.4c0-0.1,0-0.1-0.1-0.1c-0.1,0-0.2,0-0.2,0c-0.2,0-0.4-0.1-0.4-0.3c0-0.5,1.5-1.5,2.8-1.5
			c0.4,0,0.5,0.2,0.5,0.4c0,0.3-0.3,0.9-0.7,1.5c-0.6,1.1-1.3,2.5-1.8,3.9c-0.1,0.2-0.1,0.3-0.1,0.5c0,0.2,0.1,0.3,0.2,0.3
			c0.4,0,1.5-0.7,2.8-2.2l0,0l0.9-2.3c0-0.1,0.1-0.2,0.1-0.4c0,0,0,0,0,0c0,0,0,0,0,0c0,0,0,0,0,0c0,0,0,0,0,0c-0.1,0-0.2,0-0.3,0.1
			c0,0-0.1,0-0.1,0c0,0-0.1,0-0.1-0.1s0-0.1-0.1-0.1c0,0,0-0.1,0-0.1c0-0.4,1.3-1.5,2.6-1.5c0.3,0,0.4,0.1,0.4,0.4
			c0,0.1,0,0.3-0.1,0.4c-0.2,0.6-0.5,1.2-0.7,1.8c1.4-1.5,3.4-2.6,4.4-2.6c0.4,0,0.8,0.2,0.7,0.7c0,0.3-0.2,0.7-0.4,1.2
			c-0.4,0.8-1.2,2.4-1.7,3.8c-0.2,0.4-0.3,0.9-0.3,1.3c0,0.8,0.2,1.3,0.5,1.6c0,0,0.1,0.1,0.1,0.2c0,0.1,0,0.1,0,0.2
			c0,0.1,0,0.1-0.1,0.2c1.2,0,2.5,0,3.8,0.1c0.2-0.1,0.5-0.2,0.7-0.2c1-0.4,1.7-1.2,2.1-2.2c0.5-1.4,4.9-12.5,4.9-12.5
			c0.3-0.8,1.3-1.4,1.9-1.4c0.3,0,0.5,0.2,0.5,0.5c0,0.1,0,0.3-0.1,0.4c0,0-3,7.5-4.5,11.3c-0.9,2.3-2.1,3.6-3.3,4.2
			c8.5,0.1,18.6,0.3,23.9,0.5c8.9,0.2,10.7-2.1,11.7-4c0.1-0.2,0.2-0.4,0.2-0.7c0-0.2-0.1-0.3-0.2-0.3c-0.3,0-0.6,0.3-1.2,0.9l0,0
			c-1.5,1.6-3,2.4-4,2.4c-1.5,0-1.8-2-1.8-2.5c0-0.5,0.2-0.7,0.7-1c1.1-0.8,2.1-1.7,2.2-2.4c0-0.2-0.1-0.3-0.2-0.3
			c-0.1,0-0.2,0-0.3,0.1c-1.5,0.7-3.2,2.9-3.5,3.7l-0.3,1c-0.3,0.8-1.1,1.3-1.7,1.3c-0.3,0-0.5-0.1-0.5-0.5c0-0.1,0-0.2,0.1-0.3
			c0.1-0.3,0.2-0.5,0.3-0.8c-1.3,1.2-2.3,1.6-3.1,1.6c-0.2,0-0.4,0-0.6-0.1c-0.2-0.1-0.4-0.2-0.5-0.4c-0.2-0.2-0.3-0.4-0.3-0.6
			c-0.1-0.2-0.1-0.4-0.1-0.6c0-0.6,0.5-1.6,1.6-2.5c-0.5-0.1-1-0.2-1.5-0.4c-0.6,0.7-1.2,1.5-1.7,2l0,0c-1.5,1.7-3,2.6-3.9,2.6
			c-0.8,0-1.2-0.4-1.2-1.1c-0.6,0.7-1.4,1.1-2.1,1.1c-1.2,0-2.2-1-2.1-2.4c0.1-2.4,2.7-5.5,5.8-5.5c1.3,0,2.3,0.5,2.3,1.6
			c-0.1,1.3-1.2,1.6-1.7,1.6c-0.4,0-0.9-0.1-0.9-0.5c0-0.4,0.8-0.2,0.9-1c0-0.5-0.5-0.7-1-0.7c-1.9,0-3.4,2.6-3.5,4.3
			c0,0.7,0.2,1.5,0.9,1.5c0.6,0,1.5-0.8,2-2c0.3-0.8,1.2-1.3,1.7-1.3c0.3,0,0.5,0.1,0.5,0.4c0,0.1,0,0.3-0.1,0.4
			c-0.1,0.3-0.8,1.9-0.8,2.2c0,0.1,0,0.2,0.2,0.2c0.4,0,1.5-0.7,2.8-2.1l0,0c0.4-0.4,0.9-1,1.3-1.6c-0.7-0.5-1-1-1-1.8
			c0.1-1.6,1.6-2.8,2.6-2.7c0.7,0,1.1,0.6,1.1,1.2c0,0.7-0.4,1.4-0.9,2.1c0.7,0.2,1.5,0.2,2.1,0.2c0.4,0,0.7,0.3,0.6,0.8
			c0,0.1,0,0.2-0.1,0.3c0,0.1-0.1,0.2-0.2,0.2c-0.4,0.4-2,1.8-2,2.9c0,0.4,0.2,0.6,0.4,0.6c0.7,0,1.9-0.8,3-2
			c0.6-1.7,1.2-3.4,1.7-5.2c1.5-4.6,4.4-8.5,5.6-8.5c0.4,0,0.6,0.4,0.5,1.3c-0.2,3.6-2.8,7.7-5.5,10.5c-0.1,0.2-0.1,0.4-0.2,0.5
			c2.1-2.4,3.7-3.1,4.6-3.1c0.7,0,1.1,0.5,1.1,0.9c-0.1,2.1-3.3,3.8-3.3,3.8c-0.2,0.1-0.2,0.1-0.2,0.2c0,0.1,0,0.3,0.1,0.4
			c0.1,0.8,0.4,1.2,0.9,1.2c0.4,0,1.3-0.4,2.8-2c0.9-1,1.7-1.4,2.4-1.3c0.9,0,1.3,0.6,1.2,1.3c0,0.4-0.2,0.9-0.4,1.3
			c-1.6,3.3-6.7,5.5-15.1,5.3c-3.4-0.1-7.3-0.1-11.2-0.1c-9.3,0-19.2,0.6-26.5,3.2c-0.3,0.1-0.7,0.2-1,0.2c-0.2,0-0.5-0.1-0.7-0.2
			c-1.3-0.6-2.6-1.1-3.9-1.5c-0.1,0.3-0.1,0.5-0.2,0.7C18.3,32.8,16.7,34.2,15.2,34.2L15.2,34.2z M69.3,17.1
			c1.6-2.2,2.8-4.6,2.9-6.3c0-0.5,0-0.7-0.1-0.7c-0.4,0-1.5,2.5-2.4,5.7C69.5,16.3,69.4,16.7,69.3,17.1z M61.7,17.6
			c0.2-0.4,0.4-0.8,0.4-1.2c0-0.5-0.1-0.7-0.3-0.7c-0.3,0-0.5,0.4-0.6,0.8c0,0.2,0,0.4,0.1,0.6C61.4,17.2,61.5,17.4,61.7,17.6z
			 M4.2,19c0.3,0.2,0.7,0.3,1,0.3c0.7,0,1.2-0.4,1.2-0.8c0-0.2-0.2-0.4-0.4-0.4C5.6,18.2,4.8,18.5,4.2,19z M12.7,19.3
			c2-3.3,3.2-8.3,3.2-8.7c0-0.4,0-0.6-0.1-0.6c-0.5,0-2.1,4-2.8,7.3C12.9,17.9,12.8,18.6,12.7,19.3z M20.3,25.6
			c2.1-0.1,4.4-0.2,7-0.2c1.2,0,3.4,0,6.1,0.1c-1.2-0.6-1.5-1.6-1.4-2.5c0-0.4,0.1-0.8,0.2-1.2c0.6-1.5,1-2.2,1.5-3.1
			c0.1-0.1,0.1-0.3,0.2-0.4c0,0,0,0,0-0.1s0,0,0-0.1c0,0,0,0-0.1,0c0,0,0,0-0.1,0c-0.6,0-3.1,2.2-3.7,3.7c-0.2,0.4-0.3,0.8-0.5,1.2
			c-0.3,0.8-1.2,1.4-1.8,1.4c-0.3,0-0.5-0.1-0.4-0.4c0-0.1,0-0.3,0.1-0.4l0.3-0.7c-1.2,1-2.2,1.5-2.9,1.5c-1,0-1.4-0.6-1.3-1.5
			c0-0.1,0-0.2,0-0.3c-1,0.8-2,1.6-3.1,2.3C20.4,25.2,20.3,25.4,20.3,25.6z M15.9,33.1c0.4,0,0.8-0.8,1.1-1.9
			c0.2-0.7,0.4-1.5,0.6-2.2c-0.5-0.1-0.9-0.2-1.4-0.2c-0.6,0.9-0.9,1.9-1,2.8C15.1,32.7,15.5,33.1,15.9,33.1L15.9,33.1z"/>
	</g>
</g>
</svg>
