<?xml version="1.0" encoding="UTF-8"?>
<svg id="Layer_1" xmlns="http://www.w3.org/2000/svg" version="1.1" viewBox="0 0 78 42">
  <!-- Generator: Adobe Illustrator 29.5.0, SVG Export Plug-In . SVG Version: 2.1.0 Build 137)  -->
  <defs>
    <style>
      .st0 {
        fill: #4f2c1d;
      }
    </style>
  </defs>
  <path class="st0" d="M41.8,16.3c-1.4,0-2.7-1-2.6-2.8.2-3.9,4.8-6.5,9.1-6.5,3.8,0,6.4,1.7,6.2,5.1-.2,3.5-3.9,6.7-7,6.7-1.3,0-1.8-.4-1.8-.6v-.1s0-.1.1-.1c0,0,.1,0,.1-.1h.1c.2,0,.3.1.6.1,1.6,0,5.2-1.6,5.6-6,.2-2.8-2.5-4.1-4.3-4.1-2.8,0-6.3,2.1-6.5,5.6-.1,2.2,1.8,1.6,1.8,2.3,0,.2-.3.5-1.4.5ZM15.2,34.2c-1.4,0-1.9-1.4-1.9-2.7.1-1,.5-2,1.2-2.9h-.4c-2.3,0-4.3.4-6,.8-.1,0-.2.1-.4,0-.3,0-.4-.1-.4-.3s.2-.4.4-.6c1.9-1.3,5-2.2,9.6-2.7.4-.3.8-.6,1.3-.9.2-.5.3-1,.4-1.5-.6.5-1.2.8-1.9.8-.9,0-1.7-.6-2-1.6-1.2,1.1-2,1.5-2.8,1.5-1,0-1.5-.9-1.6-2.1-.6.6-1.2,1.2-1.9,1.6-1.8,1.2-3.9,2.1-5.8,2-1.2-.1-2.3-.6-2.8-1.9-.2-.2-.2-.7-.2-1.1.1-1.2.7-2.4,1.8-3.4h.1c-1-.9-1.7-2.1-1.6-3.6.1-2.3,1.6-4.1,3.5-5.7,2.1-2,5-3,6.8-2.9,1.7,0,3,1.1,2.9,3.2-.1,2.6-2.7,5.3-5.9,5.2-.8,0-1.5-.3-1.5-.6,0-.1.1-.3.5-.3,3.3-.7,5-2.9,5-4.6.1-1.1-.5-1.9-1.6-1.9-2.6,0-7,4.1-7.2,7.7-.1,1.1.2,1.9.6,2.4,1.1-.6,2.4-.9,3.3-.9s1.6.5,1.5,1.2c0,.9-.9,1.8-3.3,1.8-.5,0-1.1-.1-1.6-.3h0c-.5.7-.9,1.6-1,2.4-.1,1.3.7,1.8,1.9,1.9.8,0,1.8-.2,2.6-.5,1.8-.8,2.7-1.4,3.9-2.7v-.2c.4-6.4,5.1-13.8,6.6-13.8.4,0,.6.4.5,1.3-.2,3.2-2.9,9.4-5.3,12.3,0,1.6.3,2.1.7,2.1s1.1-.4,1.8-1.1c.3-2.5,3-5.3,5.9-5.3,1.3,0,2.3.5,2.3,1.6-.1,1.3-1.3,1.6-1.7,1.6s-1-.1-.9-.5.9-.2.9-1c0-.5-.5-.7-1-.7-2.1,0-3.4,2.9-3.5,4.2,0,.5.1,1.5.9,1.5.6,0,1.5-.8,2-1.9.3-.8,1.2-1.3,1.7-1.3.3,0,.5.1.4.4,0,.1,0,.3-.1.4-.3.8-.6,1.7-1,2.7,1-.7,2.2-1.5,3.1-2.5.4-1,.9-1.9,1.2-2.3.1-.1.1-.2.2-.4q0-.1-.1-.1h-.2c-.2,0-.4-.1-.4-.3,0-.5,1.5-1.5,2.8-1.5.4,0,.5.2.5.4,0,.3-.3.9-.7,1.5-.6,1.1-1.3,2.5-1.8,3.9-.1.2-.1.3-.1.5s.1.3.2.3c.4,0,1.5-.7,2.8-2.2h0l.9-2.3c0-.1.1-.2.1-.4h0c-.1,0-.2,0-.3.1h-.1s-.1,0-.1-.1,0-.1-.1-.1v-.1c0-.4,1.3-1.5,2.6-1.5.3,0,.4.1.4.4,0,.1,0,.3-.1.4-.2.6-.5,1.2-.7,1.8,1.4-1.5,3.4-2.6,4.4-2.6.4,0,.8.2.7.7,0,.3-.2.7-.4,1.2-.4.8-1.2,2.4-1.7,3.8-.2.4-.3.9-.3,1.3,0,.8.2,1.3.5,1.6,0,0,.1.1.1.2v.2q0,.1-.1.2c1.2,0,2.5,0,3.8.1.2-.1.5-.2.7-.2,1-.4,1.7-1.2,2.1-2.2.5-1.4,4.9-12.5,4.9-12.5.3-.8,1.3-1.4,1.9-1.4.3,0,.5.2.5.5,0,.1,0,.3-.1.4,0,0-3,7.5-4.5,11.3-.9,2.3-2.1,3.6-3.3,4.2,8.5.1,18.6.3,23.9.5,8.9.2,10.7-2.1,11.7-4,.1-.2.2-.4.2-.7,0-.2-.1-.3-.2-.3-.3,0-.6.3-1.2.9h0c-1.5,1.6-3,2.4-4,2.4-1.5,0-1.8-2-1.8-2.5s.2-.7.7-1c1.1-.8,2.1-1.7,2.2-2.4,0-.2-.1-.3-.2-.3s-.2,0-.3.1c-1.5.7-3.2,2.9-3.5,3.7l-.3,1c-.3.8-1.1,1.3-1.7,1.3-.3,0-.5-.1-.5-.5,0-.1,0-.2.1-.3.1-.3.2-.5.3-.8-1.3,1.2-2.3,1.6-3.1,1.6-.2,0-.4,0-.6-.1-.2-.1-.4-.2-.5-.4-.2-.2-.3-.4-.3-.6-.1-.2-.1-.4-.1-.6,0-.6.5-1.6,1.6-2.5-.5-.1-1-.2-1.5-.4-.6.7-1.2,1.5-1.7,2h0c-1.5,1.7-3,2.6-3.9,2.6-.8,0-1.2-.4-1.2-1.1-.6.7-1.4,1.1-2.1,1.1-1.2,0-2.2-1-2.1-2.4.1-2.4,2.7-5.5,5.8-5.5,1.3,0,2.3.5,2.3,1.6-.1,1.3-1.2,1.6-1.7,1.6-.4,0-.9-.1-.9-.5s.8-.2.9-1c0-.5-.5-.7-1-.7-1.9,0-3.4,2.6-3.5,4.3,0,.7.2,1.5.9,1.5.6,0,1.5-.8,2-2,.3-.8,1.2-1.3,1.7-1.3.3,0,.5.1.5.4,0,.1,0,.3-.1.4-.1.3-.8,1.9-.8,2.2,0,.1,0,.2.2.2.4,0,1.5-.7,2.8-2.1h0c.4-.4.9-1,1.3-1.6-.7-.5-1-1-1-1.8.1-1.6,1.6-2.8,2.6-2.7.7,0,1.1.6,1.1,1.2,0,.7-.4,1.4-.9,2.1.7.2,1.5.2,2.1.2.4,0,.7.3.6.8,0,.1,0,.2-.1.3,0,.1-.1.2-.2.2-.4.4-2,1.8-2,2.9,0,.4.2.6.4.6.7,0,1.9-.8,3-2,.6-1.7,1.2-3.4,1.7-5.2,1.5-4.6,4.4-8.5,5.6-8.5.4,0,.6.4.5,1.3-.2,3.6-2.8,7.7-5.5,10.5-.1.2-.1.4-.2.5,2.1-2.4,3.7-3.1,4.6-3.1.7,0,1.1.5,1.1.9-.1,2.1-3.3,3.8-3.3,3.8q-.2.1-.2.2c0,.1,0,.3.1.4.1.8.4,1.2.9,1.2.4,0,1.3-.4,2.8-2,.9-1,1.7-1.4,2.4-1.3.9,0,1.3.6,1.2,1.3,0,.4-.2.9-.4,1.3-1.6,3.3-6.7,5.5-15.1,5.3-3.4-.1-7.3-.1-11.2-.1-9.3,0-19.2.6-26.5,3.2-.3.1-.7.2-1,.2-.2,0-.5-.1-.7-.2-1.3-.6-2.6-1.1-3.9-1.5-.1.3-.1.5-.2.7-.5,2.7-2.1,4.1-3.6,4.1h0ZM69.3,17.1c1.6-2.2,2.8-4.6,2.9-6.3,0-.5,0-.7-.1-.7-.4,0-1.5,2.5-2.4,5.7-.2.5-.3.9-.4,1.3ZM61.7,17.6c.2-.4.4-.8.4-1.2,0-.5-.1-.7-.3-.7-.3,0-.5.4-.6.8,0,.2,0,.4.1.6.1.1.2.3.4.5ZM4.2,19c.3.2.7.3,1,.3.7,0,1.2-.4,1.2-.8,0-.2-.2-.4-.4-.4-.4.1-1.2.4-1.8.9ZM12.7,19.3c2-3.3,3.2-8.3,3.2-8.7s0-.6-.1-.6c-.5,0-2.1,4-2.8,7.3-.1.6-.2,1.3-.3,2ZM20.3,25.6c2.1-.1,4.4-.2,7-.2,1.2,0,3.4,0,6.1.1-1.2-.6-1.5-1.6-1.4-2.5,0-.4.1-.8.2-1.2.6-1.5,1-2.2,1.5-3.1.1-.1.1-.3.2-.4v-.2h-.2c-.6,0-3.1,2.2-3.7,3.7-.2.4-.3.8-.5,1.2-.3.8-1.2,1.4-1.8,1.4-.3,0-.5-.1-.4-.4,0-.1,0-.3.1-.4l.3-.7c-1.2,1-2.2,1.5-2.9,1.5-1,0-1.4-.6-1.3-1.5v-.3c-1,.8-2,1.6-3.1,2.3,0,.3-.1.5-.1.7ZM15.9,33.1c.4,0,.8-.8,1.1-1.9.2-.7.4-1.5.6-2.2-.5-.1-.9-.2-1.4-.2-.6.9-.9,1.9-1,2.8-.1,1.1.3,1.5.7,1.5h0Z"/>
</svg>