<?xml version="1.0" encoding="UTF-8"?>
<svg id="Layer_1" xmlns="http://www.w3.org/2000/svg" version="1.1" viewBox="0 0 104 42">
  <!-- Generator: Adobe Illustrator 29.5.0, SVG Export Plug-In . SVG Version: 2.1.0 Build 137)  -->
  <defs>
    <style>
      .st0 {
        fill: #4f2c1d;
        fill-rule: evenodd;
      }
    </style>
  </defs>
  <path class="st0" d="M51.5,14.5s0,.1,0,0q0,.1,0,0,0,.1,0,0h0ZM82.4,22.6c-.1.1-.1.2-.3.2,0-.2.2-.2.3-.2h0ZM82.2,23.9v.1s-.1,0-.1-.1.1-.1.1-.2c.1,0,.2,0,.2.1-.1.1-.2,0-.2.1h0ZM81.8,23.1v-.1c.1,0,.1.1.1.2l-.1-.1h0ZM81.7,24h0c-.1-.2-.4-.1-.5-.3,0-.1.1-.2.2-.3.1,0,.3,0,.4.2,0,.1-.3.2-.1.4h0ZM81.2,21.5h0l.1.2h-.1v-.2ZM81.2,20.2c.1,0,.1-.1.2-.1.1.1.1.2.1.3h0v.2l-.1-.1.1-.1h0c-.2-.1-.3-.1-.3-.2h0ZM81.4,18l-.1.1-.1-.1h.2ZM81.3,15.7c-.1.3.4.1.2.4h0c0,.2-.2.3-.4.5l-.1-.1c-.1-.3.2-.6.3-.8h0ZM81.3,14.8h.2c0,.1-.1-.2-.2.1-.1.1.2.1,0,.2l-.1-.2.1-.1ZM81.6,15.2c0,.1.1,0,.2,0h0l-.1.2c-.2,0-.2-.1-.1-.2h0ZM81.8,17.8l-.1.2.1-.3v.1ZM81.9,17.7c.1.1.1.2.1.3-.1-.1-.3-.2-.1-.3h0ZM82,18.2c.3.2,0,.4,0,.6,0-.2-.3-.3-.1-.6q0,.1.1,0h0ZM81.6,20v-.2h0v.2ZM81.6,20.3v.3h0v-.3h0ZM81.4,20.7h.1-.1q.1.1,0,0h0ZM81.5,20.8l.1.1q-.1,0-.1-.1c-.1,0,0,0,0,0h0ZM81.7,21.9c-.2.1-.1-.3-.3-.3,0-.3.2-.4.4-.6.1,0,.2,0,.3.1.2.2-.1.5-.2.6-.1,0-.3-.1-.3.1l.1.1ZM75.7,13.8h0c-.1,0-.2,0-.2-.1,0,0-.1-.1-.1-.2v-.5h.1c.1,0,.2.1.3.1.1.1.1.2.1.3-.1.2-.1.3-.2.4h0ZM75.7,14.4h0q-.1.1-.2.1t-.2-.1h-.2l.1-.1c.1-.1.2-.2.3-.2s.1,0,.2.1c0,0,0,.1,0,.2h0ZM82.4,18.8h0v.3l-.1-.1.1-.2h0q0-.1,0,0l.1-.2c-.1,0,0-.2-.1-.2.1-.1.2-.1.3-.1v-.5h0v-.2c0-1-.1-2.1-.5-3.1-.4-.9-1.3-1.5-2.3-1.3-1.1.2-2,1.2-2.9,1.8-.1.1-.2.2-.3.2v-1c0-1-.2-2,0-3v-.1c.5-.4,1-.9,1.4-1.4.1-.1.9-1.1.3-.7-1.3.9-2.4,1.9-3.4,3-.4.4-.7.9-.9,1.4-.2.5-.1,1.1-.1,1.6v1h0c0,.1.1.1.1.2v.2h-.1v2.4c-.1,1.4-.2,2.7-.1,4.1,0,.1.6-.3.5-.3.4-.3.7-.6,1-.9s.6-.6.9-1c.1-.1.3-.3.3-.5-.1-1.3,0-2.7.1-4,.2-.1.4-.2.6-.3.9-.3,1.7.3,2.2,1,.4.7.5,1.7.6,2.5.1.9.1,1.8.1,2.7,0,1.1-.1,2.1-.1,3.2,0,.8-.1,1.6-.4,2.4-.8.5-1.6,1-2.3,1.6-.7.5-1.4,1.2-1.9,1.9,0,0-.4.4-.3.5s.5-.3.5-.3c.7-.5,1.5-1,2.2-1.5,1.2-.8,2.3-1.8,3.2-2.9.7-.8,1.3-1.6,1.5-2.7.2-.8.2-1.6.2-2.4l-.1.1c-.1-.2-.4-.3-.2-.6.1-.1.2-.2.3-.1h0v-2.8c-.2.1-.3.1-.4.3h0ZM10.2,19.6c0-.1-.1,0-.1-.1.1,0,.1-.1.1-.1,0,.1.1,0,.1.1-.1,0-.1.1-.1.1h0ZM9.7,14.1c-.1,0,.2-.1.2-.1,0,0-.1-.2.1-.2.2.1-.2.3-.3.3h0ZM9.4,14.7c.3-.1,0-.2.2-.1.1,0,0-.2.1-.2,0,.1.1.1.1.1-.2,0-.2.3-.4.2h0ZM9.2,14.9c-.2,0-.1.1-.2.2.1-.2-.3-.1-.2,0,.1,0,.1.1-.1.1-.1-.2.3-.2.4-.2,0,0,0-.1.1-.1.1-.1.1,0,0,0h0ZM9.2,27.4q-.1,0-.2-.1v-.1q.1,0,.2.1v.1h0ZM8.8,14.3c.4-.2-.1.2-.1.2,0,0-.1-.1,0-.1l.1-.1h0ZM8.2,19.5c.1,0,.2-.1.2-.2,0,0-.1,0,0-.1.2.1.2,0,.1.2h.1c-.2.1-.4.2-.4.1h0ZM9,14.4c-.1,0-.1.3-.3.2.2-.1.3-.3.3-.2h0ZM13,11.6c-.1-.1.2-.1,0,0,0,0,0,.1-.1.1-.1-.1,0-.1.1-.1h0ZM13.7,9.1c0,.1.1,0,.1.1-.1,0-.1.1-.1.1,0-.1-.1,0-.1-.1l.1-.1h0ZM14.4,9.5c0,.1.1,0,0,.1-.1-.1-.1.2-.3.2.1-.1.3-.2.3-.3h0ZM14.7,9.5c.3-.1.2.2.5-.1.1.2-.3.3-.4.5-.2-.2-.3.1-.5-.1.1-.1.2,0,.3-.1,0,0,.1-.1.1-.2,0,.1.1.1,0,0h0ZM14.9,10.8c.1-.1.1-.2.2-.3,0,.1.1.1.2.1-.2,0-.3.3-.4.2h0ZM14.9,10.1c.1-.1,0-.2.2-.2.1.1-.2.3-.2.2h0ZM14.8,10.2c.1,0,.4.1.2.3,0,0,0-.1-.1-.1s-.1.1-.2.1c-.1-.2.1,0,.1-.3,0,.1-.1,0,0,0h0ZM14.8,11.8c.2-.2-.2,0-.2-.1.2-.1.4-.2.4,0-.1.1-.1.2-.2.1h0ZM14.3,10.2s.1-.1,0,0c.1-.2.1,0,0,0,.1,0,.2,0,.2.1,0,0-.2,0-.2-.1h0ZM13.8,18.7h0c-.1.1-.3.1-.2,0-1,0-1.9.1-2.9,0,0-.8.1-1.5.1-2.3v-1.9c0-.9-.1-1.9-.1-2.8.2,0,.4-.1.6,0,1,.1,1.9.8,2.8,1.2.1.1.4-.2.5-.3s.3-.2.4-.3h0c.2-.1-.3-.1,0-.2,0,.1.2,0,.2,0,.1-.1.3-.2.4-.4.1-.1,1.3-1.5,1.2-1.5-1-.4-1.9-1.1-3-1.2-.4,0-.8.1-1.2.3,0,0-.1,0-.2.1-.1,0-.1.1-.2.2-.2.1-.4.3-.6.4l-.1.1q-.1.1-.2.1c-.3.2-.7.5-1,.8-.4.4-.8.8-1.2,1.3-.4.4-.7.9-.9,1.4s-.1,1.1-.1,1.6c0,1.3.1,2.6,0,3.9-.1,1.3-.2,2.6-.1,4v.2c0,1.1-.1,2.1-.1,3.2,0,.8-.1,1.6-.4,2.4-.8.5-1.6,1-2.3,1.6-.7.5-1.4,1.2-1.9,1.9,0,0-.4.4-.3.5.1.1.5-.3.5-.3.7-.5,1.5-1,2.2-1.5,1.2-.8,2.3-1.8,3.2-2.9.7-.8,1.3-1.6,1.5-2.7.3-1.1.2-2.3.3-3.5v-1.4c.7,0,1.4-.1,2.2-.1.3,0,.8-.7,1-.9.1-.1.8-1.1.7-1.1-.3.1-.6.1-.8.1h0ZM89.4,24.5h0ZM59.5,19.1h0q0-.2.1-.1s0,.2-.1.1h0ZM60.3,25.6c-.1,0-.5.1-.5,0,.2,0,.4-.2.5,0h0ZM59.4,16.7h-.2c-.1-.1.1-.1.2,0-.4-.1-.3-.5-.2-.3-.1.1.2.1.2.3h0ZM59.1,21.3c-.1,0,0-.2,0-.2q.1,0,.2.1s-.1,0-.2.1h0ZM58.9,19.6s0-.1,0,0q0-.2.1-.1l-.1.1h0ZM58.1,19.5c.1.1.2,0,.3,0,0,.1.1,0,.2,0,0,.2-.5.1-.5,0h0ZM58.4,20.5h0q-.1-.1,0,0l-.1-.1h0c0-.1.1-.1.1-.1v.2ZM58.3,18.6h0v-.2.2q.1-.1,0,0h0v.2-.2h0ZM55.7,16.9c-.1,0,0-.5-.1-.3-.1-.1.1-.2.1-.2,0,.1.1.2,0,.5h0ZM53.1,15.2c-.1,0-.1-.3,0-.2v.2h0ZM52.7,14.8c0-.3.2,0,.2-.2.1.1-.1.3-.2.2h0ZM52.3,15.2c-.1,0,0-.2-.2-.2-.1.1-.3.2-.3,0,0,0-.1,0-.1.1-.1-.1,0-.1.1-.1s0-.2.2-.1c.1,0,0-.1.2-.3.1,0,0,.2,0,.3q.3.1.5.1c0,.3-.3,0-.4.2h0ZM51.7,16.5q.1,0,.2.1c.4.1-.3.1-.2-.1h0ZM51.4,15.4c.1-.1.3-.2.4-.2-.1.1-.2.2-.4.2h0ZM51.3,14.8c-.1,0,0-.2-.1-.2,0,0-.3.1-.2-.1-.1,0-.1.1-.1.1,0-.1-.1-.1-.1-.1.2-.2-.1.1,0-.2,0,0-.1,0-.1.1-.1.1-.1,0,0-.1.2,0,.3-.2.4-.3.1,0-.1.2,0,.1,0,.1.1.1.1.2s.1-.1.1-.1c.1,0,0,.1.1.2h.1c0,.1,0,0,.1,0s.1.2.2.2h.1v.1h-.1c-.5.2-.4-.4-.5.1h0ZM52.4,14.7c.1,0,.1.1.2.1v.1c-.1,0-.1-.1-.2-.1v-.1h0ZM49.9,16.7c-.1-.2.3,0,.2-.2q.1,0,0,.1c0,.1.1,0,.1,0,0,.2-.2,0-.3.1h0ZM49.6,17.8l.2-.2c0,.1-.1.3-.2.2h0ZM49.1,18.9c0,.1-.3.1-.2,0,.2.1.3-.2.6,0-.1.1.1.1.1.2-.2-.1-.4-.1-.5-.2h0ZM48.8,20.6c.1-.2-.6-.1-.3-.2.1,0,.4,0,.4.1l-.1.1c.1-.1.1,0,0,0h0ZM48.4,18.7c.1.1.2,0,.2.1h-.1s.1,0,.1.1h-.1c-.1-.1-.1-.2-.1-.2h0ZM48.2,22.2c-.3-.1,0-.4.1-.2-.1,0-.1.1-.1.2h0ZM48.6,16.7h.2c.1.1,0,0-.1,0,.1,0,.1.1.2.2h-.1c-.1,0-.1.1-.2,0,0,0,0-.1.1-.1q-.2-.1-.1-.1h0ZM48.8,16q.1,0,.2.1v.1c-.1,0-.3-.1-.2-.2h0ZM49.2,18c0-.2.2-.1.3-.1,0,.1-.1.1-.3.1h0ZM49.3,18.3c.1,0-.1.4-.1.2l.1-.2h0ZM49.3,17.6v.1c-.3.1-.2-.3,0-.1q-.1,0,0,0h0ZM49,16.6c0,.1.1.1.1.2s.1.1.1.2c0-.1.1,0,.2.1,0-.1.2-.1.2,0-.2-.1-.2.2-.4,0,0,0,0,.1-.1.1.1-.2-.1-.2.1-.3h-.2c0-.1-.1-.2,0-.3-.1,0-.1-.1-.1-.1.1,0,.1.1.1.1h0ZM49.7,16.6c-.3-.1-.4,0-.4-.2.2.2.4,0,.4.2h0ZM54.5,14.9c.1.1-.1.2-.2.2,0-.3.2,0,.2-.2h0ZM63.3,13.5h0c-1.1.5-2,1.2-3.1,1.7-.1.1-.2.1-.4.2-.1-.6-.4-1.1-.7-1.6-.1-.1-.5.3-.4.2-.8.6-1.6,1.3-2.4,1.9-.2.1-.3.3-.5.4q-.1-.1-.2-.2h0c.1.1-.1,0,0-.1h0v-.1c-.2-.2-.4-.4-.6-.7-.1.1-.2.1-.2.3-.2,0-.3-.2-.4,0,0-.1,0-.2.1-.3h-.3c.1-.1,0-.2,0-.1-.1-.1,0-.3,0-.4,0,0,.2.2.1.2h-.1v.3c.1,0,.1-.1.2-.1s.1.2.1,0c0,.1.1.1.1.1,0-.1-.1-.1-.1-.2,0,0,0-.1.1-.1-.7-.8-1.5-1.4-2.5-1.5-.3,0-.7.1-1,.2h0c-.5.3-1,.7-1.4,1.1.1,0,.1.1,0,.1h0c-.1.1-.2.2-.3.3-.6.6-1.2,1.3-1.5,2.1h.1c0,.1-.1.1-.1.1,0,.1-.1.3-.1.4v3.8c.1,0,.2.1.2.1h-.2c0,.7.1,1.4.1,1.7.2,1.8,2.2,2.4,3.4,3.4.1,0,.2,0,.2-.1.6-.4,1.2-.8,1.8-1.2.9-.6,1.6-1.4,2.3-2.3,0,0,.3-.4.2-.4-.1-.1-.4.2-.4.2-.3.2-.7.6-1.1.9-.2.2-.7.6-.9.7-1-.8-2.2-1.3-2.8-2.5-.4-.7-.2-1.9-.2-2.7,0-.9.1-1.7,0-2.6,0-.4-.1-.7-.1-1.1h0c1.2.3,2.1,1.4,2.9,2.3-.2.1-1.8,1.5-2.3,2.1-.1.1-.8,1-.2.6,1-.7,2-1.5,3-2.2.3-.1,1-.7,1.6-1.4.6-.4,1.1-.9,1.6-1.3.5.9.8,1.8.8,2.8h.1l.1.1h0s-.1.1-.2.1h0v.7l.1.1c0,.1.1.1.1.2v.1h-.1v.8h.1s0,.1.1.1v.2c0,.1,0,.3-.1.4,0,0,0,.1-.1.1h0q-.1,0-.1-.1c0,.3,0,.6-.1,1-.1,1.4,0,3.5,1.9,3.4.5,0,1-.8,1.3-1,.3-.3.6-.6.8-.9,0,0,.3-.5.2-.4-1.9.1-2-2-1.9-3.4,0-.2,0-.5.1-.7,0,.1-.2.1-.3.1,0-.1.1-.1.2-.1,0,0,0-.1.1,0,.1-1.1.2-2.3.1-3.4.2-.1.4-.2.6-.4.4-.2.7.5,1,.8.3.4.6.8,1,1.3.1.2,1.3-1,1.3-1,.1-.1,1.2-1.1,1-1.3-.5-.3-1.1-1-1.7-1.8h0ZM71.9,13.9c.1.1.4-.2.5-.3.4-.3.7-.6,1-.9.1-.1,1.3-1.5,1.2-1.5-1-.4-1.9-1.1-3-1.2-1-.1-1.8.7-2.6,1.2-.7.5-1.3,1.1-1.9,1.8-.1.1-.9,1.1-.3.7.7-.5,1.3-1,2.2-1,1.1,0,2,.8,2.9,1.2h0ZM91.6,18.6l-.1-.1.2-.2.1.1c-.1.1-.1.2-.2.2h0ZM91.5,18.8c-.2-.1-.1-.2-.3-.2-.2.2-.1-.1-.3,0-.1,0-.2,0-.2-.1,0,0,.1.1.1,0,0-.2.2-.1.3-.1.2-.1,0-.2.1-.3.2.2.3-.2.5.1-.3.1-.2.1-.5.3.2.1.3.2.3.3h0ZM90.7,19.4s0-.1,0,0l-.1.1c0,.1.1.2,0,.2,0,0-.1-.2-.2-.1.1.1,0,.1,0,.2,0,0,.2,0,.1.1-.2-.1-.4-.3-.6-.2-.1-.1-.1-.2,0-.1,0,0,.1.1.1,0-.2-.2.2-.1-.1-.2q.1-.1.1-.2c.1,0,.1.1.2.1-.1-.2.2-.1.2-.2,0,0-.1-.2,0-.2.3.5,0-.2.3,0,0,.1,0,.2.1.2,0,0,0-.1,0,0,0,0,0,.2-.1.3h0ZM90.6,26.3c0-.1-.1-.1-.1-.2.1-.1.1,0,.1.2.1-.1,0,.1,0,0h0ZM90.9,18.3c-.2.1-.3.1-.5,0,.1-.2.3,0,.5,0h0ZM89.7,22.8h0v.7c-.4.3-.8.5-1.3.7-.3.2-1.1-.5-1.3-.7-.6-.5-.5-1.4-.5-2.1v-1.8c.2-.2.4-.3.6-.5.6-.4,1-.9,1.5-1.4.1.2.3.4.4.6.6.9.6,1.9.6,3h0v1.1h0c.1.2.1.4,0,.4h0ZM89.5,24.2c-.1,0-.1-.1-.1-.2.1-.1.2,0,.2.1s-.1.2-.1.1h0ZM88.9,24.8h0l.2-.2c0,.1-.1.1-.2.2h0ZM88.2,25c.1,0,.1.1,0,.1h-.1c0,.1-.1.1-.2,0l.1-.1h.2c0-.1.1-.1.2,0-.1-.1-.2-.1-.2,0h0ZM87,24.5v-.1l-.1-.1h0l-.1-.2c.1-.1.2,0,.2.1v.2h0s.1.1.1.2q-.1,0-.1-.1h0ZM86.9,25.2c0-.2,0-.4-.1-.5,0,.1-.1.1-.1,0,.1,0,.1-.1.2-.2-.1.4.4.7,0,.7h0ZM87.1,18.7c0-.1.1-.1.2-.1l.2.2c0,.1-.1.2-.3.2-.2,0-.1-.2-.1-.3h0ZM85.8,23.3h0c.1-.1.2.1.2.1-.1,0-.2,0-.2-.1h0ZM85.7,21.7l-.2-.1c0-.1.1-.2.2-.1v.2h0ZM84.5,23.5l-.1-.1c0-.1.2-.1.2,0l-.1.1ZM86.2,15.3c-.3-.4.1.1.1.2,0-.1,0-.2-.1-.2h0ZM92.1,20v-1.5c-.1-.2-.2.1-.3-.2.1-.1.2,0,.3.1,0-.9-.2-1.7-.7-2.5-.4-.6-.8-1-1.3-1.4s-1-.8-1.6-1c-.3-.1-.7.2-.9.4-.4.3-.8.6-1.2.9-.6.4-1.2,1-1.7,1.6-.1.1-.8,1-.2.6.4-.3.9-.6,1.3-.9.1,0,.2-.1.2-.2.1,0,.2.1.3.1.8.4,1.5,1,2.2,1.7-.7.5-1.5,1-2.2,1.6s-1.4,1.3-2,2c-.2.3-.1.6-.1.9,0,.9,0,1.9.1,2.8.1,1.1.9,1.3,1.6,1.9h.1c0-.2-.2,0-.1-.3.2,0,.1.1.2,0,0,.1.1.2,0,.1-.1,0-.1.1-.1.2.6-.3,1.2-.7,1.8-1.1,0-.1-.1-.1,0-.2v.1c.1-.1.2-.1.3-.2,0-.1,0-.3.1-.4v.3c.1-.1.2-.2.3-.2.2-.2.5-.4.7-.6l.1-.1.2-.2v.1h.1c0,.1-.1.1-.1.1.1.8.2,1.6.5,2.3,0,.1,1.3-1,1.3-1,.2-.2,1.2-1,1-1.3-.2-1.6-.2-3-.2-4.5h0ZM102.3,25c-.1-.1-.2-.2-.1-.3l.1.1v.2h0ZM101.9,24.1l.1.1c.3.4-.2,0-.1-.1h0ZM102,25.3c-.2-.2-.2,0-.3-.1,0,0,.1-.1,0-.1l.1-.1c.1.3.4.2.2.3h0ZM101.5,22.4c0-.2.3-.1.2,0,0,0-.1-.1-.1,0,.1.1.2.1.2.2-.1,0-.2,0-.3-.2h0ZM101.5,22q-.1,0-.1.1l-.1-.1s-.1-.1,0-.1c.1.1.1-.1.1-.1.1.3.2.2.2.5-.2-.1,0-.1-.1-.3h0ZM101.2,20.6c.1.1.1.2.1.3-.2-.1-.2-.2-.1-.3h0ZM101.1,18.3q0,.1,0,0c-.1-.1.1-.1,0-.3-.1.1-.2.1-.2,0,.1,0,.2-.3.3-.1-.1,0,.4.5.2.4-.2-.3,0,0-.1.1-.1,0-.2-.1-.2-.1h0ZM101.1,22l-.2-.2-.1-.1h-.1c-.1-.1-.1-.2,0-.1.2.2.5.1.4.4h0ZM100.9,24.2l-.1-.1.1-.1v.2q0-.1,0,0h0ZM101,19.5s-.1-.1-.1,0l-.1-.1c0-.2.3.1.2.1h0ZM100.7,18.7c.1.2.2.3.2.4-.1-.1-.2-.3-.2-.4h0ZM101.2,17.8c-.1-.1-.1-.2-.1-.3.1.2.1.3.1.3h0ZM100.7,17.5c.1.1.2.1.3.1-.1-.1-.4-.5-.2-.4.1.1.2.1.3.1-.2-.2-.4-.3-.2-.5.2.2-.1.1,0,.2,0,0,.1.1.2.1.1.1.2.2.2.3-.2-.2.1.5-.1.3.1-.1-.2-.2-.2-.2,0,0,0,.1,0,0-.2.1-.4.1-.3,0h0ZM101.4,17.6c-.1.1.1.1.2.2q-.1.1-.1.2c-.3-.2-.3-.6-.1-.4h0ZM101.3,20.6c.1-.1.2,0,.3,0h.1c-.2.2-.3.1-.4,0h0ZM101.6,21.9l.1.1c.3.4-.2,0-.1-.1h0ZM101.6,19.8c.1.1.1,0,.2-.1.2.1,0,.2,0,.3-.1-.2-.4-.1-.2-.2h0ZM101.7,17.7c-.1,0,.1.4-.1.2.1,0-.1-.4.1-.2h0ZM101.8,18.4c.1.2.1.3.3.5-.1.2-.2-.3-.3,0,.1.1.1.2,0,.1,0-.2-.2-.4,0-.6,0,.1,0,0,0,0h0ZM101.9,15.5c.1.1.2.1.3.1,0,0,0,.1.1.2-.2.2-.5-.2-.4-.3h0ZM102.4,18l.2.6c-.1-.2-.2-.2-.4-.2-.1,0-.1.1-.2,0,.3-.1.2-.2.4-.4h0ZM102.3,20.5s0,.1,0,0c0,0-.1-.2,0-.2.2.2.4.3.4.6-.3-.2-.4-.5-.4-.4h0ZM102.2,18.8c0-.1.1,0,.2-.1v-.1.4s-.1-.1-.2-.2h0ZM102.3,19.1l-.2-.2c0-.2.3.2.2.2h0ZM102,19.6h0c-.1-.1-.1-.2-.2-.2,0,0,.1.1,0,.1-.3-.2.1-.2,0-.3-.1-.1-.1-.2,0-.1.2.4.2-.1.4,0-.1.1.1.1.1.2-.2-.1-.3.2-.3.3q.1-.1.2,0c-.1,0,.3.5.1.3-.2-.1-.2-.3-.3-.3h0ZM104,24.5c-.6-.9-1-2-1.2-3h-.5q-.1-.1-.2-.1c-.1,0,0-.1,0-.1-.1-.1-.2-.2-.2-.3.3.1.5.4.8.5-.1-.5-.1-1-.1-1.5,0-1.5.1-3.1.1-4.6v-2.3c0-.7.1-1.5-.2-2.2-.7-1.7-2.6-.2-3.4.5-.6.5-1.1,1-1.5,1.6-.4.5.5-.2.6-.2.4-.3,1-.4,1.4-.2.5.2.7.8.8,1.3.2,1.3,0,2.7,0,4.1h0v.3c0,.6,0,1.2-.1,1.8.1,0,.2.1.3.1,0,0,0-.1,0,0,0,.3.5.4.2.7-.3-.5-.1.2-.3,0,.1-.2-.1-.1-.2-.4l-.1.1v.7c.1,0,.2-.4.3-.3,0,.1,0,.2.1.3-.2.2-.3.1-.2.2l-.1.1v.6h.1l-.1-.1c0-.1.2,0,.2,0,0,.1-.2.1-.2.1h0v.4l.1.1v.1c.1,1.5.4,2.9,1.3,4.3.1.2,1.2-1,1.3-1,.1-.4,1.1-1.4,1-1.6h0ZM18.5,18.4h0ZM22,22.8c-.1-.1-.2-.1-.3-.2.2,0,.1-.3.3-.2,0,0-.1,0-.1.1.1,0,.1-.1.1-.1,0,.2.1.3,0,.4h0ZM21.1,19.9c.2.2-.4.2-.4.1.2,0,.3-.1.3-.2.1.1.3,0,.4.1-.2.2-.2,0-.3,0h0ZM20.5,17.9c.1,0,.2-.1.2-.1,0,.1.1.2,0,.2,0-.1-.1,0-.2-.1h0ZM20.4,17.5c.2-.1.2-.3.4-.1-.1.2-.3.2-.4.1h0ZM20.1,19c-.1,0,0,.1-.1.2,0-.1-.1-.2-.2-.2.2-.1.4-.2.5-.1-.1.1,0,.1.1.2-.3.2-.2-.1-.3-.1h0ZM20,21s0-.1,0,0c0,.4-.1.9-.1,1.4v1.2c-.4.3-.8.5-1.3.7-.3.2-1.1-.5-1.3-.7-.6-.5-.5-1.4-.5-2.1v-1.8c.2-.2.4-.3.6-.5.1,0,.1-.1.2-.1-.1,0-.2.1-.2,0,.1-.1.2-.1.3-.1.1-.1.2-.1.2-.2,0,0,0-.1.1-.1h0l.1-.1h-.2c0-.1.2-.1.2-.1l.2-.2h-.1s-.2,0-.3-.1c.2-.1.1.1.2.1,0,0,.2,0,.2.1l.5-.5c.1.2.3.4.4.5.1,0,.2.1.1.2l-.1-.1c0,.1.1.2.1.2h0c0-.2.2,0,.2,0,0-.1-.1-.2,0-.2.1.1.2.2.4.3-.3.2-.2-.1-.4,0,0,0,.1.2,0,.1,0,0,0-.2-.1-.2h-.1c.3.6.4,1.3.4,2,.4.1.4.2.3.3h0ZM17.7,18.9c-.2,0-.2.3-.3.1q.1-.1.1-.2c-.1,0-.1.1-.2,0,.3-.2.3,0,.4.1h0ZM17.8,18.5c.2,0,.3-.1.4,0h-.4ZM18,18.7c-.1.1,0,.3-.2.2,0-.2.1-.2.2-.2h0ZM18.5,15.4c.2-.1.2-.2.4-.1,0,0-.1,0-.1.1.1,0,0,.1-.1,0,.1.1-.2.1-.2,0h0ZM18.9,14.9c.1-.1.2-.1.3-.1-.2.1-.3.1-.5.2-.2-.2.1.1.2-.1-.1-.1-.2,0-.3-.1.1,0,.2,0,.3.1h0ZM19.3,17.8c-.1,0,0,.2-.1.1-.2-.1.3-.2.1-.1h0ZM19.4,16.8h0c-.1,0,0,.1-.1.1h-.1c-.2-.1.3-.2.2-.1h0ZM19.8,16.9c.1.1,0,.3-.1.2.2-.1-.2,0-.2-.1q.2-.1.3-.1h0ZM19.9,14.5c0,.1.1,0,.1.1-.1,0-.2.2-.2.1.2,0,0-.1.1-.2h0ZM19.7,18.1v-.1q.1,0,.1-.1v.1c0,.1-.1.1-.1.1h0ZM20,18.2c-.1-.1.2-.1,0,0l-.2.2c-.1-.1,0-.2.2-.2h0ZM20.3,17.8c-.1,0-.2.1-.4.1,0,.1,0,.2-.1.1.1-.1-.1-.2.1-.3.1.2.3,0,.4.1h0ZM20.6,16.6h0c-.1.1,0,.1-.1.2l-.2-.1c.1,0,.3-.2.3-.1h0ZM20.4,16.3c0-.1.1-.1.2-.2-.1,0-.1-.1,0-.1.1.1.3,0,.4.1-.2.1-.5.1-.5.3h.1c-.3.2-.3,0-.2-.1h0ZM20.9,16.9c0-.1-.2-.1-.1-.2.1.1.2.1.1.2h0ZM21,16.4h0l-.1.1c-.1,0,0-.1.1-.1-.1,0-.2,0-.2-.1l.2.1h0ZM21.8,19.2s0-.1-.1-.2c.3-.1.3.3.1.2h0ZM16.1,19.9c.1,0,.1-.3.2-.1-.1,0-.1.3-.2.1h0ZM17.9,15c-.2,0-.1-.3,0-.1q-.1,0,0,.1,0-.1,0,0h0ZM15.7,15.6c-.2-.1.2-.2.2-.1l-.2.1h0ZM22.3,20c0-1.5.1-2.8-.7-4.1-.4-.6-.8-1-1.3-1.4s-1-.8-1.6-1c-.3-.1-.7.2-.9.4-.4.3-.8.6-1.2.9-.1,0-.1.1-.2.1q0,.1-.1.1v-.1c-.4.3-.7.6-1.1,1h0c-.1.1-.2.2-.3.4-.1.1-.8,1-.2.6.4-.3.9-.6,1.3-.9.1,0,.2-.1.2-.2.1,0,.2.1.3.1.1.1.2.1.3.2,0-.1.1-.2.1-.3s0-.2.1-.1c0,0-.1,0-.1.1.2,0,.2-.2.3-.2.1.1.4-.1.5-.1-.1-.1.4-.2.1-.1-.1,0-.2.1-.2.2.1,0,.2-.1.2,0-.1.1,0,.2-.2.2-.1-.1,0-.3-.2-.2.2.1,0,0-.2.1.1,0,.1.2,0,.3,0-.1-.2,0-.2.1.1,0,.1-.1.2,0-.2,0-.2.1-.2.2.3.2.6.4.8.6h0c.1,0,0,0,0,0l.1.1h0c.2.2.4.4.5.6-.4.3-.9.6-1.3.9.1,0,.2.1.1.1,0,0-.3-.1-.2,0h0c-.3.2-.5.4-.8.6-.2.2-.4.3-.5.5h0c0,.1.1,0,.1.1-.1,0-.2.3-.3.2q.1-.1.2-.2h-.1c-.5.4-1,.9-1.3,1.5-.2.3-.1.6-.1.9,0,.9,0,1.9.1,2.8.1,1.1.9,1.3,1.6,1.9h.1c.9-.5,1.8-1,2.7-1.6.4-.3.7-.6,1.1-1,0,.9.2,1.7.5,2.5,0,.1,1.3-1,1.3-1,.1-.1.8-.7,1-1.1-.1,0-.2-.1-.1-.2,0,.1.1.1.1.1v-.2c-.3-1.5-.3-2.9-.3-4.4h0ZM16.9,16h0q.1.1.2.1s0-.1-.2-.1h0ZM.9,14c.7-.5,1.3-1,2.2-1,1,.1,1.9.8,2.8,1.2.1,0,.4-.2.5-.3.4-.3.7-.6,1-.9.1-.1,1.3-1.5,1.2-1.5-1-.4-1.9-1.1-3-1.2-1-.1-1.8.7-2.6,1.2-.7.5-1.3,1.1-1.9,1.8-.1,0-.9,1.1-.2.7h0ZM15.2,12.2h0q0-.1,0,0h0ZM4.9,24.5l.1.1-.1.1s0,.1-.1,0l.1-.2ZM6.2,25.2c-.2.2-.2,0-.3,0,.2-.2.2,0,.3,0h0ZM6.3,20.5s-.1-.1,0-.1c.2.1-.2.4-.3.3.1-.2.3-.2.3-.2h0ZM6.6,26.2c.1,0-.1.1-.1.1,0,.2.1.3,0,.1l-.1-.1.2-.1ZM4.2,20.7v2.3c0,1.3.1,2.6,0,3.9-.1,1.4-.2,1.6-.1,3,0,.1.6-.3.5-.3.4-.3.5-.4.9-.7.5-.3.7-.5,1-.9.1-.1.3-.3.3-.5-.1-1.3,0-1.9.1-3.3l.1-9.7c0-.1-.6.3-.5.3-.4.3-.7.6-1,.9s-1.2,1-1.2,1.5v1.5c-.3,0-.6.1-.8.2-.8.3-1.4,1.1-2.1,1.6-.4.4-.9.9-1.2,1.4Q0,22.3.4,22c.5-.5,1-1,1.6-1.3.6,0,1.4,0,2.2,0h0ZM97.3,24.1h0l-.2.1c0-.1.3-.3.2-.1h0ZM96,22.3c-.1-.1-.3-.2-.1-.1.1-.2.3.3.1.1h0ZM95.8,23.5c.1-.1-.1-.2-.1-.3.2.1.3.5.1.3h0ZM95.8,23.8s-.2-.1,0,0c.2-.1.2.6,0,0h0ZM95.8,21.7h0c0,.1.1.2,0,.1-.2.1-.1.1,0-.1-.1.1-.1-.1,0,0h0ZM95.2,23c-.1.1-.4-.1-.3-.1.1.1.5.2.5.3,0,0-.1,0-.2-.2h0ZM94.9,19.9c.1,0,.4.2.2.1h-.2c.1.2-.1-.1,0-.1h0ZM94.8,19.7c0-.1.1-.1,0,0h.2l-.1.1c0-.1-.1-.1-.1-.1h0ZM94.6,16.7s.1,0,0,0h.2l-.1.1s-.1,0-.1-.1h0ZM94.6,16.4s.2.1.2.2c0,.1-.5-.4-.2-.2h0ZM96.6,21.2c0-.1-.1-.1,0-.1h0v-.3c-.1,0-.2,0-.1-.1h.1v-.1c0-.8,0-1.7.1-2.5-.1-.1-.1-.2-.2-.1,0,0,.3.3.1.3-.1,0-.1-.1-.2-.1-.2-.3,0-.4-.1-.7q-.1.1-.2.1c0,.2.3.2.2.4-.3-.2-.3-.4-.3-.5-.2,0-.2.1-.3.1s-.2-.1-.3-.2c.3-.1,0-.5-.2-.5-.1,0-.2.3-.3.1-.1,0,0,0,.1,0-.1-.1,0-.2-.1-.3-.1.1-.1-.2-.1-.3.1.1.2.2.3.2-.3-.4,0,0,.1-.1q.2.3.3.1c.1.2,0,.2.2.3-.1.1-.1.2.1.3.1-.4.2.4.4.2q0-.1,0,0c0,.1.2.2.4.3,0-.5.1-1.1.1-1.6,0-1.4.2-2.9.1-4.3,0-.7-.5-1.3-1.2-1.5-1-.3-2.1.9-2.7,1.5-.4.4-1.1,1-1.3,1.5-.1.2.2,0,.2,0,.3-.2.8-.6,1-.6.2-.1.4-.1.5,0,.4.1.6.4.8.6.4.5.4.9.4,1.5v1.3c.1.1.2.2.1.3q0-.1-.1-.1c0,.9-.1,1.7-.1,2.6-.1,1.5-.2,2.9-.2,4.4.1,1.3.4,2.9,1.5,3.7.2.2,1.2-.9,1.3-1,.1-.1,1.2-1.2,1-1.3-1-1-1.3-2.3-1.4-3.5h0ZM41.2,21.1c-.1.1,0,0,0,0-.2-.2-.2.1-.3-.1.1-.1.1,0,.2-.1.1,0,0-.1,0-.1.3-.1.2.2.1.3h0ZM41,21.6c.1-.1-.1-.1,0,0-.2-.1-.1-.2,0-.2v.2c0-.1.1-.1,0,0h0ZM40.8,20.7c0-.2.3-.1.4-.2,0,.1-.1.1,0,.2-.1.1-.2,0-.4,0h0ZM39.9,20.4c-.1-.1.4-.3,0-.2,0-.1.1,0,.2-.1.2.1,0,.2-.2.3h0ZM39.8,19.7c0-.1.1-.1.2,0,.1,0,.1-.1,0-.1.2-.1-.1.2,0,.2-.3.1,0-.3-.2-.1h0ZM39,21.7c0,.1-.1.1-.2,0,.1-.1.2,0,.2,0,.2-.1,0,.1,0,0h0ZM35.2,22.6s-.3.2-.2.1c0-.1.5-.2.4,0-.1.1-.1-.1-.2-.1h0ZM37.2,20c-.1,0-.2.2-.3.2,0-.2.4-.3.3-.4.1,0,0,.1.1.1.1.2-.1.1-.1.1h0ZM36.7,20s.1,0,.1.1c.1.2-.1-.1-.1-.1h0ZM37.3,19.4c.1.1-.2.2-.3.2,0-.2.2,0,.3-.2h0ZM35.8,19.1c0-.1.1-.1,0-.2.1,0,.1.1.1.1.1.1.3,0,.5-.1.1.3-.4,0-.6.2h0ZM36.1,18.1s-.1-.2,0,0c.2.1-.1.3-.2.2,0,0,.2-.2.2-.2h0ZM35.3,16.8c0-.1.2-.3.3-.3.1.1-.2.2-.3.3h0ZM33.9,16.8q-.1,0,0,0c-.3.1-.2-.1,0,0q.1,0,.1.1c-.1,0-.1-.1-.1-.1h0ZM36.4,13.8c.1,0-.1.4-.1.2-.1,0,.1-.2.1-.2h0ZM36.8,14.5c0,.1-.1.1-.1.2-.1,0,0-.1-.1-.1-.1-.1-.1.1-.2.1,0-.2.3-.2.4-.2h0ZM37.2,15.5c0-.1.1-.1.2-.2,0,.1-.1.1,0,.2.1,0-.2.2-.2,0l-.1.1c-.3.1,0-.3.1-.1h0ZM37.2,13.8c.1.1,0,.1,0,.1,0,.1-.1.1-.1.1,0,0,.1,0,.1-.2,0,.1-.2.1-.2,0h.2ZM37.6,15.7c.2-.1-.1.3-.2.2-.1-.2.4-.1.2-.2h0ZM37.8,15.5c.1,0,.2.2.4,0,0,.1-.1.1-.1.1.1.1.2-.1.2-.1.1,0,.2,0,.2.2.2-.1.3-.3.2-.1.2-.1.1-.2,0-.3.2-.2.2,0,.3-.1,0,.1-.1.1-.2.2.1,0,.2.1.3,0,.3-.1-.1.3-.1.1-.1.1-.5.2-.4.3-.2.1-.2,0-.4.1,0,.1.1,0,.1,0,0,.1-.1,0-.2,0s-.3-.1-.4-.1q.1,0,.1.1c.4-.3-.1-.1,0-.4h0ZM38,14.3v.1s.1,0,0,.1h-.1c-.1,0,0-.2.1-.2h0ZM38.2,14.2h0c.1.1.2.1,0,.1q0,.1,0-.1s-.1,0,0,0h0ZM39.4,15.8h0c0,.1.1.1.1.1,0,.2-.2,0-.1-.1h0ZM39.6,14.9c0-.1.1-.2,0,0h.2c0,.1-.1.1-.3.2-.2-.1,0-.4.1-.2h0ZM38.5,17s.2.1.2,0c0,.3-.2.1-.2,0h0ZM39.9,15.6h.1c.5.2-.1.1-.1,0h0ZM41.5,21c0-.7-.1-1.3-.5-1.9h0c-.1.1-.1,0,0,0,0,0,0-.1-.1-.1l-.1.1c-.2,0-.2-.2-.4-.1,0-.1.1-.1.2-.2q0,.2.2.1h0c-.4-.5-.9-.7-1.5-.7l-.1.1v-.1c-.7,0-1.4.4-2,.8-.5-.5-1.4-1.2-1.5-1.9-.1-.3-.1-.6-.1-.9v-.1h0v-.1h0v-.5c.2,0,.3.1.5.2h0c.2.1.4.3.6.5.3.2.5.6.8.9.1,0,.1-.1.1-.1,0,0,0,.1-.1.1.1.1.3.3.4.4.4.3.9.1,1.2-.1.6-.4,1.2-1,1.7-1.6.1-.1.8-1,.2-.6-.4.2-.7,0-1-.3,0,.1-.1.2-.2.1.1.1,0,.2-.1.3,0-.1.1-.1.1-.2-.1-.1-.1.2-.2,0,.1-.1.3-.2.4-.2-.1-.1-.2-.2-.3-.3-.3-.3-.7-.7-1-1-.1.1-.2.1-.1,0v-.1c-.2-.1-.4-.2-.7-.3-.4-.1-.7,0-1.1.1l-.1.1c0,.1.2.2,0,.2,0-.2,0-.3.1-.3-.1,0-.1.1-.2.1,0,.1-.1.2-.2.3q0-.1.1-.2c-.1.1-.3.2-.4.2-.4.3-.8.6-1.2,1l-.1.1c.1,0,.1.2.2.1q0,.1.1.1c0,.1-.3,0-.4-.1-.4.4-.9.9-1.2,1.4-.3.4-.4.9-.4,1.4h0v1.3c.1,1.1.9,1.8,1.6,2.5.1.1.4-.2.4-.2.9-.7,2.1-.8,3,0,.7.7.9,1.8.7,2.7h-.2c-.5-.1-.8-.5-1.2-.8-.3-.3-.7-.7-1.1-.8-.3-.4-.9-.1-1.3.2-.2.2-.4.3-.6.5h0q0,.1-.1.1l-.1.1c.2,0,.4,0,.1.1h-.2v-.1c-.3.3-.6.6-.8.9-.1.1-.8,1-.2.6,1.2-.8,2.1.8,3,1.3.6.4,1.3.1,1.9-.3,1.1-.7,2.2-1.8,2.9-3,.2-.3.4-.7.5-1.1h-.2c.1-.1.2-.1.3-.1,0-.1,0-.2.1-.2q-.1.1-.2.2c-.1-.3.2-.2.2-.4h0q-.1,0-.1-.2c0,.1-.1.1,0,0-.1.1-.1,0,0,0h0ZM48.6,16.7h0ZM45.4,25.4h-.2s0-.1.1-.1h.1q.1,0,0,.1.1,0,0,0h0ZM45.2,25.1h0q-.1.1,0,0l-.2.1v-.1h0q.1-.1.2,0-.1,0,0,0h0ZM44.8,25.1c0-.1.1,0,.1.1.1.1-.1,0-.1-.1h0ZM44.6,24.2c.1-.2.3,0,.3-.2.1,0,.2.2.4.3-.2.1-.3.1-.3-.1-.1.1-.2.1-.3.2-.1,0,0-.1-.1-.2h0ZM44.4,23.8c.1,0,.1.1.2.1.1.1-.3,0-.2-.1h0ZM44.6,13.6c0,.2-.2.1-.2.2.1,0,.2.1.2.1-.2,0-.3-.1-.4-.2.1-.1.2-.2.4-.1h0ZM45.1,19.3c0,.1-.1.1-.2.2-.1-.2.1-.3.2-.2h0ZM44.9,15.4c.1,0,.3.1.2.2-.1-.1-.2-.1-.2-.2h0ZM45.3,13.5c-.2,0-.1.2-.2.2,0,0,0-.1-.1-.1,0,.1-.2.1-.2,0,.2.1.4-.3.5-.1h0ZM45.4,25h0v.1h-.1v-.1h.1q-.1-.1,0,0h0ZM45.7,12.7c0,.1-.1.1-.1.1l-.1.1c-.1,0,.1-.1.2-.2h0ZM45.4,20.8c0-1.4.1-2.8.1-4.1.1-1.5.2-3,.2-4.6,0-.7-.5-1.3-1-1.6-.9-.6-1.9.1-2.6.7-.6.5-1.2,1.1-1.7,1.7,0,0-.1.1-.2.3v.1h0v.1c.1.1.4-.2.4-.2.7-.5,1.5-.4,2.1.2q.1.1.2.2h0v.2h0c.3.4.3.8.3,1.3,0,.8-.1,1.5-.1,2.3h0v.1c0,.7-.1,1.5-.1,2.2-.1,1.3-.2,2.6-.1,3.9h0c.1,0,.3,0,.6.2,0,.1.1.2.1.3-.1,0-.2-.1-.2-.1-.1-.1.1-.1,0-.2-.1,0-.4-.2-.4-.1.1,0,.1.1.1.1-.1-.1-.2-.1-.3-.1,0,.4,0,.8.1,1.3.2,0,.4.1.1.3q0-.1-.1-.1c.2.9.5,1.7,1.4,1.8.4,0,1.1-.8,1.3-1,.3-.3.6-.6.8-.9,0,0,.3-.4.2-.4-1.1-.7-1.2-2.9-1.2-3.9h0ZM75.6,25.7c-.7-.4-1.2-.9-1.9-1.4-.3-.2-.7-.5-1-.7v-3,.1c0,.1-.1.1-.2.1h-.1v-.1q0-.3.1-.7v-.2l.1.2c.1.1.1.2.1.3,0-2,.1-4.1.1-6.1,0-.1-.6.3-.5.3-.4.3-.7.6-1,.9-.3.3-1.2,1-1.2,1.5,0,2.5-.1,4.9-.1,7.4-.3.2-.5.5-.7.7-.8.8-1.4,1.6-2.1,2.5-.3.4,0,.2.3.1l-.1-.1c-.2.1-.1-.1.1,0v.1c.2-.1.4-.3.4-.3.4-.4.9-.8,1.3-1.3.2,0,.4.1.6.2v-.1.1h.1v-.3s.1,0,.2-.1q0-.1-.1-.1c.1-.2.2-.4.3-.3.1.1-.4.5-.1.4.1,0,0,.2,0,.1-.1.1,0,0-.1,0,0,.1,0,.3.1.3s.2,0,.2-.1-.1,0-.1,0c-.1-.1,0-.1.1-.1.1-.1.1-.3.3-.2v.8c.8.5,1.5,1.2,2.2,1.7.3.2,1.4-1,1.5-1.2.1,0,1.4-1.3,1.2-1.4h0ZM31.2,19.1h-.2v-.1h.2v.1h0ZM30.2,20.6c-.1.1-.1,0,0,0-.1-.1-.2-.1-.3,0,0-.1.1-.1.2-.2v.1c.2,0,.1,0,.1.1h0ZM29.9,25v.1h-.2c.1,0,.1-.3.3-.2.1,0-.1,0-.1.1h0ZM29.7,25c-.2.1-.2.2-.4.1.1-.1,0-.2.1-.2.1-.1.3-.2.3-.1v.2h0ZM28.8,25.4c-.1,0-.3.1-.3.1.1,0,.1-.1,0-.1.1,0,.3-.1.3-.1-.1,0-.2.1-.2.1h.2ZM28,26.6c.1,0,.3-.1.3,0-.1.1-.2.1-.3,0h0ZM27.6,25.8c.2-.2-.1-.2.1-.4,0,.1.2,0,.2.1-.3,0,0,.5-.3.3h0ZM27.6,23.6c-.1,0-.1.1,0,0-.4.3-.1,0,0,0-.1-.1,0,0,0,0q.1,0,0,0c.1,0,0,0,0,0h0ZM27.2,25.6c.1-.2-.2-.1-.3.1,0-.1-.1-.1-.1-.1.3,0,.4-.2.5-.1-.1.1.1,0,.1.1-.1-.1-.1.2-.2,0h0ZM26.8,26.5c.1-.1.2,0,.3,0-.1.1-.2,0-.3,0h0ZM26.8,24.7c0-.1-.1-.2-.2-.2.3-.1.4.2.2.2h0ZM26.6,24.2s.1,0,.1-.1c.5-.1,0,.3-.1.1h0ZM26.4,24.4s-.1,0-.1.1c-.1-.2.5-.5.5-.3-.3,0-.4,0-.4.2,0-.1.1-.1,0,0h0ZM26.5,23.1c.1-.1.3-.1.3,0-.1.1-.2,0-.3,0h0ZM26.9,23.2c-.1,0-.1-.1-.1-.2.2,0,.1.1.1.2h0ZM26.8,23.8c.2-.1.4-.1.5-.1-.2.1-.4.2-.5.1h0ZM27.2,24.6c-.1,0-.1.2-.2.1,0-.1.1-.2.2-.1h0ZM27.2,23.9c.2.1-.1.4-.2.3.2,0,0-.2.2-.3h0ZM27.1,24.9c0,.1.1.1.2.1.1.1-.2.3-.3.2.2,0-.2-.2.1-.3h0ZM27.2,23.1h.2c-.1.1-.7,0-.2,0h0ZM25.7,25.1s.1,0,.1-.1c.4-.2-.1.2-.1.1h0ZM26.6,20.7s-.3.1-.2,0c.1-.1.5-.2.5-.1-.3.1-.2.2-.3.1h0ZM26.3,21.6c-.1-.1.1-.2.2-.3,0,.1,0,.2-.2.3h0ZM26.2,20.5l.2-.2c.2.1-.2.3-.2.2h0ZM25.4,21.4c-.1-.2.1-.2.3-.3.1.2.3,0,.4.1-.1.1-.6,0-.7.2h0ZM25.5,21.4c.1,0,.3-.1.3-.1,0,.1-.2.2-.3.1h0ZM25.7,21.6h-.2s0,.1-.1.1l.1-.2c.1,0,.2,0,.2.1q0-.1,0,0h0ZM25.1,19c-.1-.1.1-.2.1-.2-.1,0-.1-.1,0-.1s.5,0,.5-.1c-.1,0-.1.1-.2,0,.2-.1.3,0,.3.1q-.1.1-.1.2c0,.1,0,0-.1,0,0,0-.1-.2-.3-.1,0,.1.1.1.1.1-.1.1-.2,0-.3.1h0ZM25.9,20.4c-.1,0,0,.1,0,.1-.1,0-.4.3-.3.1,0,0,.1,0,.1-.1,0,0,.1-.2.2-.1h0ZM24.8,17.7c0,.1.3,0,.3,0,.1,0,.1.1.2.1h.3s0-.1.1,0c-.2.3.3,0,.3.2-.3.1-.3-.2-.6,0,0,0,.1.1,0,.1s-.2-.1-.3-.1-.1.1-.1.1c.1-.2-.3-.2-.2-.4h0ZM24.5,19.6l.2-.2c.1.1-.1.3-.2.2h0ZM24.4,19.3c-.2-.1.2-.3.2-.1,0,0-.1,0-.1.1h-.1ZM24.3,16.8s-.1,0,0,0c-.1,0-.1.1-.1.1-.1,0,0-.2.1-.2v.1h0ZM25.7,16.5c.4-.2-.1.2-.2.1q.1-.1.2-.1h0ZM27.6,16.4c-.1.1-.3.1-.3.1,0-.1.3-.1.3-.1h0ZM27.3,15.2l.1-.1c.1.1,0,.1,0,.2q-.1,0-.1-.1h0ZM28.7,16.4c.1.2-.3.4-.4.2.3,0,.2-.2.4-.2h0ZM31.4,18.4c-1.4-.8-2.5,1.2-3.8,1.2-.7,0-1.2-.6-1.4-1.2-.1,0-.2-.1,0,0h0c-.1-.2-.1-.3-.1-.5s-.1-.5-.1-.7c-.1,0-.2.1-.2,0q.1,0,.1-.1h0c0-.5.1-1.1.2-1.5.2.1.4.3.6.5.3.4.5.8.9,1.2.1.1.2.1.2.2h.3c.2,0,.5-.1.7-.2.7-.4,1.3-.9,1.8-1.4.1-.1.9-.9.3-.6-.9.5-1.5-1.1-2-1.6-1.1-.9-2.3-.1-3.3.4-.1.1-.2.1-.4.2.1,0,.2,0,.1,0,0,0-.2.1-.3.1-.5.3-.9.8-1.2,1.2-.4.5-1,5,.5,6.1q.1,0,.1.1l.1.1c1.2.6,2.3-1.1,3.4-1.3.8-.2,1.5.6,1.7,1.3.3.8.2,1.7,0,2.5h-.1c-.6,0-1.1-.5-1.5-.9s-.8-.8-1.4-1c-.7-.2-1.3.4-1.7.8-.3.2-.5.4-.7.7h0c-.3.3-.6.6-.8,1-.3.4.2,0,.6-.1h.5v.1c.3.1.5.3.7.5.2.1.3.3.4.4h.2c-.1-.2.1-.1.1-.1-.2.1-.1.2-.3.1h0c.3.3.6.6,1,.8h.2v-.1h.2q0,.1-.1.2c1.4.4,2.8-1.4,3.5-2.2,1-1,1.7-2.1,1.8-3.5.4-1.1.2-2.1-.8-2.7h0Z"/>
</svg>