<?xml version="1.0" encoding="utf-8"?>
<!-- Generator: Adobe Illustrator 26.0.2, SVG Export Plug-In . SVG Version: 6.00 Build 0)  -->
<svg version="1.1" id="Layer_1" xmlns="http://www.w3.org/2000/svg" xmlns:xlink="http://www.w3.org/1999/xlink" x="0px" y="0px"
	 width="104px" height="42px" viewBox="0 0 104 42" style="enable-background:new 0 0 104 42;" xml:space="preserve">
<style type="text/css">
	.st0{fill-rule:evenodd;clip-rule:evenodd;fill:#FFFFFF;filter:url(#Adobe_OpacityMaskFilter);}
	.st1{mask:url(#mask0_875_5118_00000134214449227091390630000012424697598431188613_);}
	.st2{fill-rule:evenodd;clip-rule:evenodd;fill:#FFFFFF;}
</style>
<defs>
	<filter id="Adobe_OpacityMaskFilter" filterUnits="userSpaceOnUse" x="0" y="9" width="104" height="24">
		<feColorMatrix  type="matrix" values="1 0 0 0 0  0 1 0 0 0  0 0 1 0 0  0 0 0 1 0"/>
	</filter>
</defs>
<mask maskUnits="userSpaceOnUse" x="0" y="9" width="104" height="24" id="mask0_875_5118_00000134214449227091390630000012424697598431188613_">
	<path class="st0" d="M104,33H0V9h104V33L104,33z"/>
</mask>
<g class="st1">
	<path class="st2" d="M51.5,14.5C51.5,14.5,51.5,14.6,51.5,14.5C51.5,14.6,51.5,14.6,51.5,14.5C51.5,14.6,51.5,14.6,51.5,14.5
		L51.5,14.5z M82.4,22.6c-0.1,0.1-0.1,0.2-0.3,0.2C82.1,22.6,82.3,22.6,82.4,22.6L82.4,22.6z M82.2,23.9l0,0.1c0,0-0.1,0-0.1-0.1
		c0-0.1,0.1-0.1,0.1-0.2c0.1,0,0.2,0,0.2,0.1C82.3,23.9,82.2,23.8,82.2,23.9L82.2,23.9z M81.8,23.1l0-0.1c0.1,0,0.1,0.1,0.1,0.2
		C81.9,23.2,81.9,23.2,81.8,23.1L81.8,23.1z M81.7,24L81.7,24c-0.1-0.2-0.4-0.1-0.5-0.3c0-0.1,0.1-0.2,0.2-0.3c0.1,0,0.3,0,0.4,0.2
		C81.8,23.7,81.5,23.8,81.7,24L81.7,24z M81.2,21.5L81.2,21.5l0.1,0.2l-0.1,0L81.2,21.5z M81.2,20.2c0.1,0,0.1-0.1,0.2-0.1
		c0.1,0.1,0.1,0.2,0.1,0.3l0,0l0,0c0,0,0,0.1,0,0.2l-0.1-0.1l0.1-0.1c0,0,0,0,0,0C81.3,20.3,81.2,20.3,81.2,20.2L81.2,20.2z
		 M81.4,18l-0.1,0.1L81.2,18L81.4,18z M81.3,15.7c-0.1,0.3,0.4,0.1,0.2,0.4l0,0c0,0.2-0.2,0.3-0.4,0.5l-0.1-0.1
		C80.9,16.2,81.2,15.9,81.3,15.7L81.3,15.7z M81.3,14.8l0.2,0l0,0c0,0.1-0.1-0.2-0.2,0.1c-0.1,0.1,0.2,0.1,0,0.2l-0.1-0.2L81.3,14.8
		z M81.6,15.2c0,0.1,0.1,0,0.2,0l0,0c0,0,0,0,0,0l-0.1,0.2C81.5,15.4,81.5,15.3,81.6,15.2L81.6,15.2z M81.8,17.8l-0.1,0.2l0.1-0.3
		L81.8,17.8z M81.9,17.7c0.1,0.1,0.1,0.2,0.1,0.3C81.9,17.9,81.7,17.8,81.9,17.7L81.9,17.7z M82,18.2c0.3,0.2,0,0.4,0,0.6
		c0-0.2-0.3-0.3-0.1-0.6C81.9,18.3,81.9,18.3,82,18.2L82,18.2z M81.6,20l0-0.2l0,0L81.6,20z M81.6,20.3l0,0.3l0,0L81.6,20.3
		L81.6,20.3z M81.4,20.7l0.1,0C81.5,20.7,81.5,20.7,81.4,20.7C81.5,20.8,81.5,20.8,81.4,20.7L81.4,20.7z M81.5,20.8
		c0,0,0.1,0.1,0.1,0.1C81.5,20.9,81.5,20.9,81.5,20.8C81.4,20.8,81.5,20.8,81.5,20.8L81.5,20.8z M81.7,21.9
		c-0.2,0.1-0.1-0.3-0.3-0.3c0-0.3,0.2-0.4,0.4-0.6c0.1,0,0.2,0,0.3,0.1c0.2,0.2-0.1,0.5-0.2,0.6c-0.1,0-0.3-0.1-0.3,0.1L81.7,21.9z
		 M75.7,13.8L75.7,13.8L75.7,13.8c-0.1,0-0.2,0-0.2-0.1c0,0-0.1-0.1-0.1-0.2c0-0.1,0-0.2,0-0.3l0-0.1l0-0.1l0.1,0
		c0.1,0,0.2,0.1,0.3,0.1c0.1,0.1,0.1,0.2,0.1,0.3C75.8,13.6,75.8,13.7,75.7,13.8L75.7,13.8z M75.7,14.4L75.7,14.4L75.7,14.4
		c-0.1,0.1-0.1,0.1-0.2,0.1c-0.1,0-0.1,0-0.2-0.1c0,0,0,0-0.1,0l0,0l-0.1,0l0.1-0.1c0.1-0.1,0.2-0.2,0.3-0.2c0.1,0,0.1,0,0.2,0.1
		C75.7,14.2,75.7,14.3,75.7,14.4L75.7,14.4z M82.4,18.8C82.4,18.8,82.4,18.8,82.4,18.8L82.4,18.8C82.4,18.8,82.4,18.8,82.4,18.8
		c0,0.1,0,0.2,0,0.2l0,0.1l-0.1-0.1L82.4,18.8C82.4,18.8,82.4,18.8,82.4,18.8C82.4,18.7,82.4,18.7,82.4,18.8l0.1-0.2
		c-0.1,0,0-0.2-0.1-0.2c0.1-0.1,0.2-0.1,0.3-0.1c0-0.1,0-0.3,0-0.4c0,0,0,0,0-0.1c0,0,0,0,0,0c0-0.1,0-0.1,0-0.2
		c0-1-0.1-2.1-0.5-3.1c-0.4-0.9-1.3-1.5-2.3-1.3c-1.1,0.2-2,1.2-2.9,1.8c-0.1,0.1-0.2,0.2-0.3,0.2c0-0.3,0-0.6,0-1c0-1-0.2-2,0-3
		c0,0,0,0,0-0.1c0.5-0.4,1-0.9,1.4-1.4c0.1-0.1,0.9-1.1,0.3-0.7C77.1,9.9,76,10.9,75,12c-0.4,0.4-0.7,0.9-0.9,1.4
		C73.9,13.9,74,14.5,74,15c0,0.3,0,0.7,0,1c0,0,0,0,0,0c0,0.1,0.1,0.1,0.1,0.2c0,0,0,0.1,0,0.1l0,0.1H74c0,0.8,0,1.6,0,2.4
		c-0.1,1.4-0.2,2.7-0.1,4.1c0,0.1,0.6-0.3,0.5-0.3c0.4-0.3,0.7-0.6,1-0.9c0.3-0.3,0.6-0.6,0.9-1c0.1-0.1,0.3-0.3,0.3-0.5
		c-0.1-1.3,0-2.7,0.1-4c0.2-0.1,0.4-0.2,0.6-0.3c0.9-0.3,1.7,0.3,2.2,1c0.4,0.7,0.5,1.7,0.6,2.5c0.1,0.9,0.1,1.8,0.1,2.7
		c0,1.1-0.1,2.1-0.1,3.2c0,0.8-0.1,1.6-0.4,2.4c-0.8,0.5-1.6,1-2.3,1.6c-0.7,0.5-1.4,1.2-1.9,1.9c0,0-0.4,0.4-0.3,0.5
		c0.1,0.1,0.5-0.3,0.5-0.3c0.7-0.5,1.5-1,2.2-1.5c1.2-0.8,2.3-1.8,3.2-2.9c0.7-0.8,1.3-1.6,1.5-2.7c0.2-0.8,0.2-1.6,0.2-2.4
		c0,0-0.1,0.1-0.1,0.1c-0.1-0.2-0.4-0.3-0.2-0.6c0.1-0.1,0.2-0.2,0.3-0.1l0,0c0-0.2,0-0.3,0-0.5c0-0.8,0-1.5,0-2.3
		C82.6,18.6,82.5,18.6,82.4,18.8L82.4,18.8z M10.2,19.6c0-0.1-0.1,0-0.1-0.1c0.1,0,0.1-0.1,0.1-0.1c0,0.1,0.1,0,0.1,0.1
		C10.2,19.5,10.2,19.6,10.2,19.6L10.2,19.6z M9.7,14.1c-0.1,0,0.2-0.1,0.2-0.1c0,0-0.1-0.2,0.1-0.2C10.2,13.9,9.8,14.1,9.7,14.1
		L9.7,14.1z M9.4,14.7c0.3-0.1,0-0.2,0.2-0.1c0.1,0,0-0.2,0.1-0.2c0,0.1,0.1,0.1,0.1,0.1C9.6,14.5,9.6,14.8,9.4,14.7L9.4,14.7z
		 M9.2,14.9c-0.2,0-0.1,0.1-0.2,0.2c0.1-0.2-0.3-0.1-0.2,0c0.1,0,0.1,0.1-0.1,0.1C8.6,15,9,15,9.1,15C9.1,15,9.1,14.9,9.2,14.9
		C9.3,14.8,9.3,14.9,9.2,14.9L9.2,14.9z M9.2,27.4c-0.1,0-0.1,0-0.2-0.1c0,0,0-0.1,0-0.1c0.1,0,0.1,0,0.2,0.1
		C9.2,27.4,9.2,27.4,9.2,27.4L9.2,27.4z M8.8,14.3c0.4-0.2-0.1,0.2-0.1,0.2c0,0-0.1-0.1,0-0.1C8.7,14.4,8.8,14.3,8.8,14.3L8.8,14.3z
		 M8.2,19.5c0.1,0,0.2-0.1,0.2-0.2c0,0-0.1,0,0-0.1c0.2,0.1,0.2,0,0.1,0.2c0,0,0.1,0,0.1,0C8.4,19.5,8.2,19.6,8.2,19.5L8.2,19.5z
		 M9,14.4c-0.1,0-0.1,0.3-0.3,0.2C8.9,14.5,9,14.3,9,14.4L9,14.4z M13,11.6C12.9,11.5,13.2,11.5,13,11.6c0,0,0,0.1-0.1,0.1
		C12.8,11.6,12.9,11.6,13,11.6L13,11.6z M13.7,9.1c0,0.1,0.1,0,0.1,0.1c-0.1,0-0.1,0.1-0.1,0.1c0-0.1-0.1,0-0.1-0.1
		C13.6,9.2,13.6,9.2,13.7,9.1L13.7,9.1z M14.4,9.5c0,0.1,0.1,0,0,0.1c-0.1-0.1-0.1,0.2-0.3,0.2C14.2,9.7,14.4,9.6,14.4,9.5L14.4,9.5
		z M14.7,9.5c0.3-0.1,0.2,0.2,0.5-0.1c0.1,0.2-0.3,0.3-0.4,0.5c-0.2-0.2-0.3,0.1-0.5-0.1c0.1-0.1,0.2,0,0.3-0.1
		C14.6,9.7,14.7,9.6,14.7,9.5C14.7,9.6,14.8,9.6,14.7,9.5C14.7,9.5,14.7,9.5,14.7,9.5L14.7,9.5z M14.9,10.8c0.1-0.1,0.1-0.2,0.2-0.3
		c0,0.1,0.1,0.1,0.2,0.1C15.1,10.6,15,10.9,14.9,10.8L14.9,10.8z M14.9,10.1c0.1-0.1,0-0.2,0.2-0.2C15.2,10,14.9,10.2,14.9,10.1
		L14.9,10.1z M14.8,10.2c0.1,0,0.4,0.1,0.2,0.3c0,0,0-0.1-0.1-0.1c-0.1,0-0.1,0.1-0.2,0.1C14.6,10.3,14.8,10.5,14.8,10.2
		C14.8,10.3,14.7,10.2,14.8,10.2L14.8,10.2z M14.8,11.8c0.2-0.2-0.2,0-0.2-0.1c0.2-0.1,0.4-0.2,0.4,0C14.9,11.8,14.9,11.9,14.8,11.8
		L14.8,11.8z M14.3,10.2C14.3,10.2,14.4,10.1,14.3,10.2C14.4,10,14.4,10.2,14.3,10.2c0.1,0,0.2,0,0.2,0.1
		C14.5,10.3,14.3,10.3,14.3,10.2L14.3,10.2z M13.8,18.7C13.8,18.7,13.8,18.7,13.8,18.7c-0.1,0.1-0.3,0.1-0.2,0c-1,0-1.9,0.1-2.9,0
		c0-0.8,0.1-1.5,0.1-2.3l0-0.9c0-0.3,0-0.6,0-1c0-0.9-0.1-1.9-0.1-2.8c0.2,0,0.4-0.1,0.6,0c1,0.1,1.9,0.8,2.8,1.2
		c0.1,0.1,0.4-0.2,0.5-0.3c0.1-0.1,0.3-0.2,0.4-0.3c0,0,0,0,0,0c0.2-0.1-0.3-0.1,0-0.2c0,0.1,0.2,0,0.2,0c0.1-0.1,0.3-0.2,0.4-0.4
		c0.1-0.1,1.3-1.5,1.2-1.5c-1-0.4-1.9-1.1-3-1.2c-0.4,0-0.8,0.1-1.2,0.3c0,0-0.1,0-0.2,0.1c-0.1,0-0.1,0.1-0.2,0.2
		c-0.2,0.1-0.4,0.3-0.6,0.4c0,0-0.1,0.1-0.1,0.1c-0.1,0.1-0.1,0.1-0.2,0.1c-0.3,0.2-0.7,0.5-1,0.8c-0.4,0.4-0.8,0.8-1.2,1.3
		c-0.4,0.4-0.7,0.9-0.9,1.4c-0.2,0.5-0.1,1.1-0.1,1.6c0,1.3,0.1,2.6,0,3.9C8,20.5,7.9,21.8,8,23.2l0,0.2c0,1.1-0.1,2.1-0.1,3.2
		c0,0.8-0.1,1.6-0.4,2.4c-0.8,0.5-1.6,1-2.3,1.6c-0.7,0.5-1.4,1.2-1.9,1.9c0,0-0.4,0.4-0.3,0.5c0.1,0.1,0.5-0.3,0.5-0.3
		c0.7-0.5,1.5-1,2.2-1.5c1.2-0.8,2.3-1.8,3.2-2.9c0.7-0.8,1.3-1.6,1.5-2.7c0.3-1.1,0.2-2.3,0.3-3.5l0-1.4c0.7,0,1.4-0.1,2.2-0.1
		c0.3,0,0.8-0.7,1-0.9c0.1-0.1,0.8-1.1,0.7-1.1C14.3,18.7,14,18.7,13.8,18.7L13.8,18.7z M89.4,24.5C89.4,24.5,89.4,24.5,89.4,24.5
		L89.4,24.5L89.4,24.5z M59.5,19.1C59.5,19.1,59.5,19.1,59.5,19.1c0-0.2,0-0.2,0.1-0.1C59.6,19,59.6,19.2,59.5,19.1L59.5,19.1z
		 M60.3,25.6c-0.1,0-0.5,0.1-0.5,0C60,25.6,60.2,25.4,60.3,25.6L60.3,25.6z M59.4,16.7c-0.1,0-0.1,0-0.2,0
		C59.1,16.6,59.3,16.6,59.4,16.7c-0.4-0.1-0.3-0.5-0.2-0.3C59.1,16.5,59.4,16.5,59.4,16.7L59.4,16.7z M59.1,21.3c-0.1,0,0-0.2,0-0.2
		c0.1,0,0.1,0,0.2,0.1C59.3,21.2,59.2,21.2,59.1,21.3L59.1,21.3z M58.9,19.6C58.9,19.6,58.9,19.5,58.9,19.6c0-0.2,0-0.2,0.1-0.1
		C59,19.5,58.9,19.6,58.9,19.6L58.9,19.6z M58.1,19.5c0.1,0.1,0.2,0,0.3,0c0,0.1,0.1,0,0.2,0C58.6,19.7,58.1,19.6,58.1,19.5
		L58.1,19.5z M58.4,20.5L58.4,20.5C58.3,20.4,58.3,20.4,58.4,20.5l-0.1-0.1l0,0c0-0.1,0.1-0.1,0.1-0.1L58.4,20.5z M58.3,18.6
		L58.3,18.6L58.3,18.6l0-0.2L58.3,18.6C58.4,18.5,58.4,18.5,58.3,18.6L58.3,18.6l0,0.2C58.3,18.8,58.3,18.7,58.3,18.6
		C58.3,18.6,58.3,18.6,58.3,18.6L58.3,18.6z M55.7,16.9c-0.1,0,0-0.5-0.1-0.3c-0.1-0.1,0.1-0.2,0.1-0.2
		C55.7,16.5,55.8,16.6,55.7,16.9L55.7,16.9z M53.1,15.2c-0.1,0-0.1-0.3,0-0.2C53.1,15,53.1,15.2,53.1,15.2L53.1,15.2z M52.7,14.8
		c0-0.3,0.2,0,0.2-0.2C53,14.7,52.8,14.9,52.7,14.8L52.7,14.8z M52.3,15.2c-0.1,0,0-0.2-0.2-0.2c-0.1,0.1-0.3,0.2-0.3,0
		c0,0-0.1,0-0.1,0.1c-0.1-0.1,0-0.1,0.1-0.1c0.1,0,0-0.2,0.2-0.1c0.1,0,0-0.1,0.2-0.3c0.1,0,0,0.2,0,0.3c0.3,0.1,0.3,0.1,0.5,0.1
		C52.7,15.3,52.4,15,52.3,15.2L52.3,15.2z M51.7,16.5c0.1,0,0.1,0,0.2,0.1C52.3,16.7,51.6,16.7,51.7,16.5L51.7,16.5z M51.4,15.4
		c0.1-0.1,0.3-0.2,0.4-0.2C51.7,15.3,51.6,15.4,51.4,15.4L51.4,15.4z M51.3,14.8c-0.1,0,0-0.2-0.1-0.2c0,0-0.3,0.1-0.2-0.1
		c-0.1,0-0.1,0.1-0.1,0.1c0-0.1-0.1-0.1-0.1-0.1c0.2-0.2-0.1,0.1,0-0.2c0,0-0.1,0-0.1,0.1c-0.1,0.1-0.1,0,0-0.1
		c0.2,0,0.3-0.2,0.4-0.3c0.1,0-0.1,0.2,0,0.1c0,0.1,0.1,0.1,0.1,0.2c0,0.1,0.1-0.1,0.1-0.1c0.1,0,0,0.1,0.1,0.2l0.1,0
		c0,0.1,0,0,0.1,0c0.1,0,0.1,0.2,0.2,0.2c0,0,0,0,0,0c0,0,0,0,0.1,0c0,0.1,0,0.1,0,0.1c0,0-0.1,0-0.1,0
		C51.3,14.9,51.4,14.3,51.3,14.8L51.3,14.8z M52.4,14.7c0.1,0,0.1,0.1,0.2,0.1c0,0,0,0.1,0,0.1c-0.1,0-0.1-0.1-0.2-0.1
		C52.4,14.8,52.4,14.7,52.4,14.7L52.4,14.7z M49.9,16.7c-0.1-0.2,0.3,0,0.2-0.2c0.1,0,0.1,0,0,0.1c0,0.1,0.1,0,0.1,0
		C50.2,16.8,50,16.6,49.9,16.7L49.9,16.7z M49.6,17.8c0,0,0.2-0.2,0.2-0.2C49.8,17.7,49.7,17.9,49.6,17.8L49.6,17.8z M49.1,18.9
		c0,0.1-0.3,0.1-0.2,0c0.2,0.1,0.3-0.2,0.6,0c-0.1,0.1,0.1,0.1,0.1,0.2C49.4,19,49.2,19,49.1,18.9L49.1,18.9z M48.8,20.6
		c0.1-0.2-0.6-0.1-0.3-0.2c0.1,0,0.4,0,0.4,0.1C48.9,20.5,48.9,20.5,48.8,20.6C48.9,20.5,48.9,20.6,48.8,20.6L48.8,20.6z M48.4,18.7
		c0.1,0.1,0.2,0,0.2,0.1c0,0-0.1,0-0.1,0c0,0,0.1,0,0.1,0.1c0,0-0.1,0-0.1,0C48.4,18.8,48.4,18.7,48.4,18.7L48.4,18.7z M48.2,22.2
		c-0.3-0.1,0-0.4,0.1-0.2C48.2,22,48.2,22.1,48.2,22.2L48.2,22.2z M48.6,16.7C48.6,16.7,48.6,16.7,48.6,16.7
		C48.6,16.7,48.6,16.7,48.6,16.7c0,0,0.1,0,0.2,0c0.1,0.1,0,0-0.1,0c0.1,0,0.1,0.1,0.2,0.2c-0.1,0-0.1,0-0.1,0l0,0c0,0,0,0,0,0
		c-0.1,0-0.1,0.1-0.2,0c0,0,0-0.1,0.1-0.1C48.5,16.7,48.5,16.7,48.6,16.7L48.6,16.7z M48.8,16c0.1,0,0.1,0,0.2,0.1
		c0,0.1,0,0.1,0,0.1C48.9,16.2,48.7,16.1,48.8,16L48.8,16z M49.2,18c0-0.2,0.2-0.1,0.3-0.1C49.5,18,49.4,18,49.2,18L49.2,18z
		 M49.3,18.3c0.1,0-0.1,0.4-0.1,0.2C49.2,18.5,49.3,18.3,49.3,18.3L49.3,18.3z M49.3,17.6c0,0,0,0.1,0,0.1
		C49,17.8,49.1,17.4,49.3,17.6C49.2,17.6,49.2,17.6,49.3,17.6L49.3,17.6z M49,16.6c0,0.1,0.1,0.1,0.1,0.2c0,0.1,0.1,0.1,0.1,0.2
		c0-0.1,0.1,0,0.2,0.1c0-0.1,0.2-0.1,0.2,0c-0.2-0.1-0.2,0.2-0.4,0c0,0,0,0.1-0.1,0.1c0.1-0.2-0.1-0.2,0.1-0.3c0,0,0,0,0,0
		c0,0-0.1,0-0.2,0C49,16.8,48.9,16.7,49,16.6c-0.1,0-0.1-0.1-0.1-0.1C49,16.5,49,16.6,49,16.6C49,16.6,49,16.6,49,16.6L49,16.6z
		 M49.7,16.6c-0.3-0.1-0.4,0-0.4-0.2C49.5,16.6,49.7,16.4,49.7,16.6L49.7,16.6z M54.5,14.9c0.1,0.1-0.1,0.2-0.2,0.2
		C54.3,14.8,54.5,15.1,54.5,14.9L54.5,14.9z M63.3,13.5C63.3,13.5,63.3,13.5,63.3,13.5c-1.1,0.5-2,1.2-3.1,1.7
		c-0.1,0.1-0.2,0.1-0.4,0.2c-0.1-0.6-0.4-1.1-0.7-1.6c-0.1-0.1-0.5,0.3-0.4,0.2c-0.8,0.6-1.6,1.3-2.4,1.9c-0.2,0.1-0.3,0.3-0.5,0.4
		c-0.1-0.1-0.1-0.1-0.2-0.2c0,0,0,0,0,0c0.1,0.1-0.1,0,0-0.1c0,0,0,0,0,0c0,0,0,0,0,0c0,0,0,0,0-0.1c-0.2-0.2-0.4-0.4-0.6-0.7
		c-0.1,0.1-0.2,0.1-0.2,0.3c-0.2,0-0.3-0.2-0.4,0c0-0.1,0-0.2,0.1-0.3c-0.1,0-0.2,0-0.3,0c0.1-0.1,0-0.2,0-0.1c-0.1-0.1,0-0.3,0-0.4
		c0,0,0.2,0.2,0.1,0.2l-0.1,0l0,0.3c0.1,0,0.1-0.1,0.2-0.1c0.1,0,0.1,0.2,0.1,0c0,0.1,0.1,0.1,0.1,0.1c0-0.1-0.1-0.1-0.1-0.2
		c0,0,0-0.1,0.1-0.1c-0.7-0.8-1.5-1.4-2.5-1.5c-0.3,0-0.7,0.1-1,0.2c0,0,0,0,0,0c0,0,0,0,0,0c-0.5,0.3-1,0.7-1.4,1.1
		c0.1,0,0.1,0.1,0,0.1c0,0,0,0,0,0c-0.1,0.1-0.2,0.2-0.3,0.3c-0.6,0.6-1.2,1.3-1.5,2.1c0,0,0.1,0,0.1,0c0,0.1-0.1,0.1-0.1,0.1
		c0,0.1-0.1,0.3-0.1,0.4c0,0.5,0,2.3,0,3.8c0.1,0,0.2,0.1,0.2,0.1c0,0-0.1,0-0.2,0c0,0.7,0.1,1.4,0.1,1.7c0.2,1.8,2.2,2.4,3.4,3.4
		c0.1,0,0.2,0,0.2-0.1c0.6-0.4,1.2-0.8,1.8-1.2c0.9-0.6,1.6-1.4,2.3-2.3c0,0,0.3-0.4,0.2-0.4c-0.1-0.1-0.4,0.2-0.4,0.2
		c-0.3,0.2-0.7,0.6-1.1,0.9c-0.2,0.2-0.7,0.6-0.9,0.7c-1-0.8-2.2-1.3-2.8-2.5c-0.4-0.7-0.2-1.9-0.2-2.7c0-0.9,0.1-1.7,0-2.6
		c0-0.4-0.1-0.7-0.1-1.1c0,0,0,0,0,0c1.2,0.3,2.1,1.4,2.9,2.3c-0.2,0.1-1.8,1.5-2.3,2.1c-0.1,0.1-0.8,1-0.2,0.6c1-0.7,2-1.5,3-2.2
		c0.3-0.1,1-0.7,1.6-1.4c0.6-0.4,1.1-0.9,1.6-1.3c0.5,0.9,0.8,1.8,0.8,2.8c0,0,0,0,0,0c0,0,0.1,0,0.1,0c0,0,0.1,0.1,0.1,0.1l0,0l0,0
		l0,0c0,0-0.1,0.1-0.2,0.1c0,0,0,0,0,0c0,0.2,0,0.5,0,0.7c0,0,0.1,0.1,0.1,0.1c0,0.1,0.1,0.1,0.1,0.2c0,0,0,0.1,0,0.1
		c0,0-0.1,0-0.1,0c0,0.3,0,0.5,0,0.8l0,0l0,0c0,0,0.1,0,0.1,0c0,0,0,0.1,0.1,0.1c0,0.1,0,0.1,0,0.2c0,0.1,0,0.3-0.1,0.4
		c0,0,0,0.1-0.1,0.1l0,0l0,0c-0.1,0-0.1,0-0.1-0.1c0,0.3,0,0.6-0.1,1c-0.1,1.4,0,3.5,1.9,3.4c0.5,0,1-0.8,1.3-1
		c0.3-0.3,0.6-0.6,0.8-0.9c0,0,0.3-0.5,0.2-0.4c-1.9,0.1-2-2-1.9-3.4c0-0.2,0-0.5,0.1-0.7c0,0.1-0.2,0.1-0.3,0.1
		c0-0.1,0.1-0.1,0.2-0.1c0,0,0-0.1,0.1,0c0.1-1.1,0.2-2.3,0.1-3.4c0.2-0.1,0.4-0.2,0.6-0.4c0.4-0.2,0.7,0.5,1,0.8
		c0.3,0.4,0.6,0.8,1,1.3c0.1,0.2,1.3-1,1.3-1c0.1-0.1,1.2-1.1,1-1.3C64.5,15,63.9,14.3,63.3,13.5L63.3,13.5z M71.9,13.9
		c0.1,0.1,0.4-0.2,0.5-0.3c0.4-0.3,0.7-0.6,1-0.9c0.1-0.1,1.3-1.5,1.2-1.5c-1-0.4-1.9-1.1-3-1.2c-1-0.1-1.8,0.7-2.6,1.2
		c-0.7,0.5-1.3,1.1-1.9,1.8c-0.1,0.1-0.9,1.1-0.3,0.7c0.7-0.5,1.3-1,2.2-1C70.1,12.7,71,13.5,71.9,13.9L71.9,13.9z M91.6,18.6
		c0,0-0.1-0.1-0.1-0.1c0.1-0.1,0.1-0.1,0.2-0.2c0,0,0.1,0.1,0.1,0.1C91.7,18.5,91.7,18.6,91.6,18.6L91.6,18.6z M91.5,18.8
		c-0.2-0.1-0.1-0.2-0.3-0.2c-0.2,0.2-0.1-0.1-0.3,0c-0.1,0-0.2,0-0.2-0.1c0,0,0.1,0.1,0.1,0c0-0.2,0.2-0.1,0.3-0.1
		c0.2-0.1,0-0.2,0.1-0.3c0.2,0.2,0.3-0.2,0.5,0.1c-0.3,0.1-0.2,0.1-0.5,0.3C91.4,18.6,91.5,18.7,91.5,18.8L91.5,18.8z M90.7,19.4
		C90.7,19.4,90.7,19.3,90.7,19.4l-0.1,0.1c0,0.1,0.1,0.2,0,0.2c0,0-0.1-0.2-0.2-0.1c0.1,0.1,0,0.1,0,0.2c0,0,0.2,0,0.1,0.1
		c-0.2-0.1-0.4-0.3-0.6-0.2c-0.1-0.1-0.1-0.2,0-0.1c0,0,0.1,0.1,0.1,0c-0.2-0.2,0.2-0.1-0.1-0.2c0.1-0.1,0.1-0.1,0.1-0.2
		c0.1,0,0.1,0.1,0.2,0.1c-0.1-0.2,0.2-0.1,0.2-0.2c0,0-0.1-0.2,0-0.2c0.3,0.5,0-0.2,0.3,0c0,0.1,0,0.2,0.1,0.2c0,0,0-0.1,0,0
		C90.8,19.1,90.8,19.3,90.7,19.4L90.7,19.4z M90.6,26.3c0-0.1-0.1-0.1-0.1-0.2C90.6,26,90.6,26.1,90.6,26.3
		C90.7,26.2,90.6,26.4,90.6,26.3L90.6,26.3z M90.9,18.3c-0.2,0.1-0.3,0.1-0.5,0C90.5,18.1,90.7,18.3,90.9,18.3L90.9,18.3z
		 M89.7,22.8L89.7,22.8c0,0.2,0,0.5,0,0.7c-0.4,0.3-0.8,0.5-1.3,0.7c-0.3,0.2-1.1-0.5-1.3-0.7c-0.6-0.5-0.5-1.4-0.5-2.1
		c0-0.6,0-1.2,0-1.8c0.2-0.2,0.4-0.3,0.6-0.5c0.6-0.4,1-0.9,1.5-1.4c0.1,0.2,0.3,0.4,0.4,0.6c0.6,0.9,0.6,1.9,0.6,3c0,0,0,0,0,0
		c0,0.1,0,0.1,0,0.1c0,0.3,0,0.6,0,0.8c0,0.1,0,0.1,0,0.2c0,0,0,0,0,0l0,0C89.8,22.6,89.8,22.8,89.7,22.8L89.7,22.8z M89.5,24.2
		c-0.1,0-0.1-0.1-0.1-0.2c0.1-0.1,0.2,0,0.2,0.1C89.6,24.2,89.5,24.3,89.5,24.2L89.5,24.2z M88.9,24.8L88.9,24.8l0.2-0.2
		C89.1,24.7,89,24.7,88.9,24.8L88.9,24.8z M88.2,25c0.1,0,0.1,0.1,0,0.1c0,0,0,0-0.1,0c0,0.1-0.1,0.1-0.2,0c0,0,0.1-0.1,0.1-0.1
		c0,0,0,0,0,0C88,25,88,25,88.2,25c0-0.1,0.1-0.1,0.2,0C88.3,24.9,88.2,24.9,88.2,25L88.2,25z M87,24.5c0-0.1,0-0.1,0-0.1
		c0,0,0,0-0.1-0.1l0,0l-0.1-0.2c0.1-0.1,0.2,0,0.2,0.1L87,24.3l0,0.1h0c0,0,0.1,0.1,0.1,0.2C87,24.6,87,24.6,87,24.5L87,24.5z
		 M86.9,25.2c0-0.2,0-0.4-0.1-0.5c0,0.1-0.1,0.1-0.1,0c0.1,0,0.1-0.1,0.2-0.2C86.8,24.9,87.3,25.2,86.9,25.2L86.9,25.2z M87.1,18.7
		c0-0.1,0.1-0.1,0.2-0.1l0.2,0.2c0,0.1-0.1,0.2-0.3,0.2C87,19,87.1,18.8,87.1,18.7L87.1,18.7z M85.8,23.3L85.8,23.3
		c0.1-0.1,0.2,0.1,0.2,0.1C85.9,23.4,85.8,23.4,85.8,23.3L85.8,23.3z M85.7,21.7l-0.2-0.1c0-0.1,0.1-0.2,0.2-0.1
		C85.7,21.6,85.7,21.7,85.7,21.7L85.7,21.7z M84.5,23.5l-0.1-0.1c0-0.1,0.2-0.1,0.2,0L84.5,23.5z M86.2,15.3
		c-0.3-0.4,0.1,0.1,0.1,0.2C86.3,15.4,86.3,15.3,86.2,15.3L86.2,15.3z M92.1,20c0-0.5,0-1,0-1.5c-0.1-0.2-0.2,0.1-0.3-0.2
		c0.1-0.1,0.2,0,0.3,0.1c0-0.9-0.2-1.7-0.7-2.5c-0.4-0.6-0.8-1-1.3-1.4c-0.5-0.4-1-0.8-1.6-1c-0.3-0.1-0.7,0.2-0.9,0.4
		c-0.4,0.3-0.8,0.6-1.2,0.9c-0.6,0.4-1.2,1-1.7,1.6c-0.1,0.1-0.8,1-0.2,0.6c0.4-0.3,0.9-0.6,1.3-0.9c0.1,0,0.2-0.1,0.2-0.2
		c0.1,0,0.2,0.1,0.3,0.1c0.8,0.4,1.5,1,2.2,1.7c-0.7,0.5-1.5,1-2.2,1.6c-0.7,0.6-1.4,1.3-2,2c-0.2,0.3-0.1,0.6-0.1,0.9
		c0,0.9,0,1.9,0.1,2.8c0.1,1.1,0.9,1.3,1.6,1.9c0,0,0.1,0,0.1,0c0,0,0,0,0,0c0-0.2-0.2,0-0.1-0.3c0.2,0,0.1,0.1,0.2,0
		c0,0.1,0.1,0.2,0,0.1c-0.1,0-0.1,0.1-0.1,0.2c0.6-0.3,1.2-0.7,1.8-1.1c0-0.1-0.1-0.1,0-0.2c0,0,0,0.1,0,0.1
		c0.1-0.1,0.2-0.1,0.3-0.2c0-0.1,0-0.3,0.1-0.4c0,0.1,0,0.2,0,0.3c0.1-0.1,0.2-0.2,0.3-0.2c0.2-0.2,0.5-0.4,0.7-0.6
		c0,0,0.1-0.1,0.1-0.1c0.1-0.1,0.2-0.2,0.2-0.2c0,0,0,0.1,0,0.1c0,0,0.1,0,0.1,0c0,0.1-0.1,0.1-0.1,0.1c0.1,0.8,0.2,1.6,0.5,2.3
		c0,0.1,1.3-1,1.3-1c0.2-0.2,1.2-1,1-1.3C92.1,22.9,92.1,21.5,92.1,20L92.1,20z M102.3,25c-0.1-0.1-0.2-0.2-0.1-0.3
		c0,0,0.1,0.1,0.1,0.1C102.3,24.9,102.3,25,102.3,25L102.3,25z M101.9,24.1c0,0,0.1,0.1,0.1,0.1C102.3,24.6,101.8,24.2,101.9,24.1
		L101.9,24.1z M102,25.3c-0.2-0.2-0.2,0-0.3-0.1c0,0,0.1-0.1,0-0.1c0,0,0.1-0.1,0.1-0.1C101.9,25.3,102.2,25.2,102,25.3L102,25.3z
		 M101.5,22.4c0-0.2,0.3-0.1,0.2,0c0,0-0.1-0.1-0.1,0c0.1,0.1,0.2,0.1,0.2,0.2C101.7,22.6,101.6,22.6,101.5,22.4L101.5,22.4z
		 M101.5,22c-0.1,0-0.1,0-0.1,0.1c0,0-0.1-0.1-0.1-0.1c0,0-0.1-0.1,0-0.1c0.1,0.1,0.1-0.1,0.1-0.1c0.1,0.3,0.2,0.2,0.2,0.5
		C101.4,22.2,101.6,22.2,101.5,22L101.5,22z M101.2,20.6c0.1,0.1,0.1,0.2,0.1,0.3C101.1,20.8,101.1,20.7,101.2,20.6L101.2,20.6z
		 M101.1,18.3C101.1,18.4,101.1,18.4,101.1,18.3c-0.1-0.1,0.1-0.1,0-0.3c-0.1,0.1-0.2,0.1-0.2,0c0.1,0,0.2-0.3,0.3-0.1
		c-0.1,0,0.4,0.5,0.2,0.4c-0.2-0.3,0,0-0.1,0.1C101.2,18.4,101.1,18.3,101.1,18.3L101.1,18.3z M101.1,22c-0.1-0.1-0.1-0.1-0.2-0.2
		l-0.1-0.1l-0.1,0c-0.1-0.1-0.1-0.2,0-0.1C100.9,21.8,101.2,21.7,101.1,22L101.1,22z M100.9,24.2c0,0-0.1-0.1-0.1-0.1
		c0,0,0.1-0.1,0.1-0.1C100.9,24,100.9,24,100.9,24.2C100.9,24.1,100.9,24.1,100.9,24.2L100.9,24.2z M101,19.5c0,0-0.1-0.1-0.1,0
		c0,0-0.1-0.1-0.1-0.1C100.8,19.2,101.1,19.5,101,19.5L101,19.5z M100.7,18.7c0.1,0.2,0.2,0.3,0.2,0.4
		C100.8,19,100.7,18.8,100.7,18.7L100.7,18.7z M101.2,17.8c-0.1-0.1-0.1-0.2-0.1-0.3C101.2,17.7,101.2,17.8,101.2,17.8L101.2,17.8z
		 M100.7,17.5c0.1,0.1,0.2,0.1,0.3,0.1c-0.1-0.1-0.4-0.5-0.2-0.4c0.1,0.1,0.2,0.1,0.3,0.1c-0.2-0.2-0.4-0.3-0.2-0.5
		c0.2,0.2-0.1,0.1,0,0.2c0,0,0.1,0.1,0.2,0.1c0.1,0.1,0.2,0.2,0.2,0.3c-0.2-0.2,0.1,0.5-0.1,0.3c0.1-0.1-0.2-0.2-0.2-0.2
		c0,0,0,0.1,0,0C100.8,17.6,100.6,17.6,100.7,17.5L100.7,17.5z M101.4,17.6c-0.1,0.1,0.1,0.1,0.2,0.2c-0.1,0.1-0.1,0.1-0.1,0.2
		C101.2,17.8,101.2,17.4,101.4,17.6L101.4,17.6z M101.3,20.6c0.1-0.1,0.2,0,0.3,0c0,0,0.1,0,0.1,0C101.5,20.8,101.4,20.7,101.3,20.6
		L101.3,20.6z M101.6,21.9c0,0,0.1,0.1,0.1,0.1C102,22.4,101.5,22,101.6,21.9L101.6,21.9z M101.6,19.8c0.1,0.1,0.1,0,0.2-0.1
		c0.2,0.1,0,0.2,0,0.3C101.7,19.8,101.4,19.9,101.6,19.8L101.6,19.8z M101.7,17.7c-0.1,0,0.1,0.4-0.1,0.2
		C101.7,17.9,101.5,17.5,101.7,17.7L101.7,17.7z M101.8,18.4c0.1,0.2,0.1,0.3,0.3,0.5c-0.1,0.2-0.2-0.3-0.3,0c0.1,0.1,0.1,0.2,0,0.1
		C101.8,18.8,101.6,18.6,101.8,18.4C101.8,18.5,101.8,18.4,101.8,18.4L101.8,18.4z M101.9,15.5c0.1,0.1,0.2,0.1,0.3,0.1
		c0,0,0,0.1,0.1,0.2C102.1,16,101.8,15.6,101.9,15.5L101.9,15.5z M102.4,18l0.2,0.6c-0.1-0.2-0.2-0.2-0.4-0.2c-0.1,0-0.1,0.1-0.2,0
		C102.3,18.3,102.2,18.2,102.4,18L102.4,18z M102.3,20.5C102.3,20.5,102.3,20.6,102.3,20.5c0,0-0.1-0.2,0-0.2
		c0.2,0.2,0.4,0.3,0.4,0.6C102.4,20.7,102.3,20.4,102.3,20.5L102.3,20.5z M102.2,18.8c0-0.1,0.1,0,0.2-0.1l0-0.1c0,0.1,0,0.1,0,0.1
		l0,0.3C102.4,19,102.3,18.9,102.2,18.8L102.2,18.8z M102.3,19.1c0,0-0.2-0.2-0.2-0.2C102.1,18.7,102.4,19.1,102.3,19.1L102.3,19.1z
		 M102,19.6L102,19.6c-0.1-0.1-0.1-0.2-0.2-0.2c0,0,0.1,0.1,0,0.1c-0.3-0.2,0.1-0.2,0-0.3c-0.1-0.1-0.1-0.2,0-0.1
		c0.2,0.4,0.2-0.1,0.4,0c-0.1,0.1,0.1,0.1,0.1,0.2C102.1,19.2,102,19.5,102,19.6c0.1-0.1,0.1-0.1,0.2,0c-0.1,0,0.3,0.5,0.1,0.3
		C102.1,19.8,102.1,19.6,102,19.6L102,19.6z M104,24.5c-0.6-0.9-1-2-1.2-3l-0.5,0c-0.1-0.1-0.1-0.1-0.2-0.1c-0.1,0,0-0.1,0-0.1
		c-0.1-0.1-0.2-0.2-0.2-0.3c0.3,0.1,0.5,0.4,0.8,0.5c-0.1-0.5-0.1-1-0.1-1.5c0-1.5,0.1-3.1,0.1-4.6c0-0.8,0-1.5,0-2.3
		c0-0.7,0.1-1.5-0.2-2.2c-0.7-1.7-2.6-0.2-3.4,0.5c-0.6,0.5-1.1,1-1.5,1.6c-0.4,0.5,0.5-0.2,0.6-0.2c0.4-0.3,1-0.4,1.4-0.2
		c0.5,0.2,0.7,0.8,0.8,1.3c0.2,1.3,0,2.7,0,4.1c0,0,0,0,0,0c0,0.1,0,0.1,0,0.1c0,0.1,0,0.1,0,0.2c0,0.6,0,1.2-0.1,1.8
		c0.1,0,0.2,0.1,0.3,0.1c0,0,0-0.1,0,0c0,0.3,0.5,0.4,0.2,0.7c-0.3-0.5-0.1,0.2-0.3,0c0.1-0.2-0.1-0.1-0.2-0.4c0,0-0.1,0.1-0.1,0.1
		c0,0.2,0,0.4,0,0.7c0.1,0,0.2-0.4,0.3-0.3c0,0.1,0,0.2,0.1,0.3c-0.2,0.2-0.3,0.1-0.2,0.2l-0.1,0.1c0,0.1,0,0.1,0,0.1
		c0,0.2,0,0.3,0,0.5c0,0,0,0,0.1,0l-0.1-0.1c0-0.1,0.2,0,0.2,0c0,0.1-0.2,0.1-0.2,0.1c0,0,0,0,0,0c0,0.1,0,0.2,0,0.4
		c0,0,0.1,0.1,0.1,0.1c0,0,0,0.1,0,0.1c0.1,1.5,0.4,2.9,1.3,4.3c0.1,0.2,1.2-1,1.3-1C103.1,25.7,104.1,24.7,104,24.5L104,24.5z
		 M18.5,18.4C18.5,18.4,18.5,18.4,18.5,18.4C18.5,18.4,18.5,18.4,18.5,18.4C18.5,18.4,18.5,18.4,18.5,18.4L18.5,18.4z M22,22.8
		c-0.1-0.1-0.2-0.1-0.3-0.2c0.2,0,0.1-0.3,0.3-0.2c0,0-0.1,0-0.1,0.1c0.1,0,0.1-0.1,0.1-0.1C22,22.6,22.1,22.7,22,22.8L22,22.8z
		 M21.1,19.9c0.2,0.2-0.4,0.2-0.4,0.1c0.2,0,0.3-0.1,0.3-0.2c0.1,0.1,0.3,0,0.4,0.1C21.2,20.1,21.2,19.9,21.1,19.9L21.1,19.9z
		 M20.5,17.9c0.1,0,0.2-0.1,0.2-0.1c0,0.1,0.1,0.2,0,0.2C20.7,17.9,20.6,18,20.5,17.9L20.5,17.9z M20.4,17.5
		c0.2-0.1,0.2-0.3,0.4-0.1C20.7,17.6,20.5,17.6,20.4,17.5L20.4,17.5z M20.1,19c-0.1,0,0,0.1-0.1,0.2c0-0.1-0.1-0.2-0.2-0.2
		c0.2-0.1,0.4-0.2,0.5-0.1c-0.1,0.1,0,0.1,0.1,0.2C20.1,19.3,20.2,19,20.1,19L20.1,19z M20,21C20,21,20,20.9,20,21
		c0,0.4-0.1,0.9-0.1,1.4c0,0.4,0,0.8,0,1.2c-0.4,0.3-0.8,0.5-1.3,0.7c-0.3,0.2-1.1-0.5-1.3-0.7c-0.6-0.5-0.5-1.4-0.5-2.1
		c0-0.6,0-1.2,0-1.8c0.2-0.2,0.4-0.3,0.6-0.5c0.1,0,0.1-0.1,0.2-0.1c-0.1,0-0.2,0.1-0.2,0c0.1-0.1,0.2-0.1,0.3-0.1
		c0.1-0.1,0.2-0.1,0.2-0.2c0,0,0-0.1,0.1-0.1c0,0,0,0,0,0c0,0,0.1-0.1,0.1-0.1c-0.1,0-0.1,0-0.2,0c0-0.1,0.2-0.1,0.2-0.1
		c0.1-0.1,0.1-0.1,0.2-0.2c0,0-0.1,0-0.1,0c0,0-0.2,0-0.3-0.1c0.2-0.1,0.1,0.1,0.2,0.1c0,0,0.2,0,0.2,0.1c0.2-0.2,0.3-0.3,0.5-0.5
		c0.1,0.2,0.3,0.4,0.4,0.5c0.1,0,0.2,0.1,0.1,0.2c0,0,0,0-0.1-0.1c0,0.1,0.1,0.2,0.1,0.2c0,0,0,0,0,0c0-0.2,0.2,0,0.2,0
		c0-0.1-0.1-0.2,0-0.2c0.1,0.1,0.2,0.2,0.4,0.3c-0.3,0.2-0.2-0.1-0.4,0c0,0,0.1,0.2,0,0.1c0,0,0-0.2-0.1-0.2c0,0-0.1,0-0.1,0
		c0.3,0.6,0.4,1.3,0.4,2C20.1,20.8,20.1,20.9,20,21L20,21z M17.7,18.9c-0.2,0-0.2,0.3-0.3,0.1c0.1-0.1,0.1-0.1,0.1-0.2
		c-0.1,0-0.1,0.1-0.2,0C17.6,18.6,17.6,18.8,17.7,18.9L17.7,18.9z M17.8,18.5c0.2,0,0.3-0.1,0.4,0C18.1,18.5,17.9,18.5,17.8,18.5
		L17.8,18.5z M18,18.7c-0.1,0.1,0,0.3-0.2,0.2C17.8,18.7,17.9,18.7,18,18.7L18,18.7z M18.5,15.4c0.2-0.1,0.2-0.2,0.4-0.1
		c0,0-0.1,0-0.1,0.1c0.1,0,0,0.1-0.1,0C18.8,15.5,18.5,15.5,18.5,15.4L18.5,15.4z M18.9,14.9c0.1-0.1,0.2-0.1,0.3-0.1
		c-0.2,0.1-0.3,0.1-0.5,0.2C18.5,14.8,18.8,15.1,18.9,14.9c-0.1-0.1-0.2,0-0.3-0.1C18.7,14.8,18.8,14.8,18.9,14.9L18.9,14.9z
		 M19.3,17.8c-0.1,0,0,0.2-0.1,0.1C19,17.8,19.5,17.7,19.3,17.8L19.3,17.8z M19.4,16.8L19.4,16.8c-0.1,0,0,0.1-0.1,0.1
		c-0.1,0-0.1,0-0.1,0C19,16.8,19.5,16.7,19.4,16.8L19.4,16.8z M19.8,16.9c0.1,0.1,0,0.3-0.1,0.2c0.2-0.1-0.2,0-0.2-0.1
		C19.7,16.9,19.7,16.9,19.8,16.9L19.8,16.9z M19.9,14.5c0,0.1,0.1,0,0.1,0.1c-0.1,0-0.2,0.2-0.2,0.1C20,14.7,19.8,14.6,19.9,14.5
		L19.9,14.5z M19.7,18.1c0,0,0-0.1,0-0.1c0.1,0,0.1,0,0.1-0.1c0,0,0,0.1,0,0.1C19.8,18.1,19.7,18.1,19.7,18.1L19.7,18.1z M20,18.2
		C19.9,18.1,20.2,18.1,20,18.2c0,0-0.1,0.1-0.2,0.2C19.7,18.3,19.8,18.2,20,18.2L20,18.2z M20.3,17.8c-0.1,0-0.2,0.1-0.4,0.1
		c0,0.1,0,0.2-0.1,0.1c0.1-0.1-0.1-0.2,0.1-0.3C20,17.9,20.2,17.7,20.3,17.8L20.3,17.8z M20.6,16.6L20.6,16.6
		c-0.1,0.1,0,0.1-0.1,0.2l-0.2-0.1C20.4,16.7,20.6,16.5,20.6,16.6L20.6,16.6z M20.4,16.3c0-0.1,0.1-0.1,0.2-0.2
		c-0.1,0-0.1-0.1,0-0.1c0.1,0.1,0.3,0,0.4,0.1c-0.2,0.1-0.5,0.1-0.5,0.3c0,0,0.1,0,0.1,0C20.3,16.6,20.3,16.4,20.4,16.3L20.4,16.3z
		 M20.9,16.9c0-0.1-0.2-0.1-0.1-0.2C20.9,16.8,21,16.8,20.9,16.9L20.9,16.9z M21,16.4L21,16.4c-0.1,0.1-0.1,0.1-0.1,0.1
		C20.8,16.5,20.9,16.4,21,16.4c-0.1,0-0.2,0-0.2-0.1C20.8,16.3,21,16.4,21,16.4L21,16.4z M21.8,19.2c0,0,0-0.1-0.1-0.2
		C22,18.9,22,19.3,21.8,19.2L21.8,19.2z M16.1,19.9c0.1,0,0.1-0.3,0.2-0.1C16.2,19.8,16.2,20.1,16.1,19.9L16.1,19.9z M17.9,15
		c-0.2,0-0.1-0.3,0-0.1C17.8,14.9,17.8,14.9,17.9,15C17.9,14.9,17.9,14.9,17.9,15L17.9,15z M15.7,15.6c-0.2-0.1,0.2-0.2,0.2-0.1
		C15.9,15.5,15.7,15.6,15.7,15.6L15.7,15.6z M22.3,20c0-1.5,0.1-2.8-0.7-4.1c-0.4-0.6-0.8-1-1.3-1.4c-0.5-0.4-1-0.8-1.6-1
		c-0.3-0.1-0.7,0.2-0.9,0.4c-0.4,0.3-0.8,0.6-1.2,0.9c-0.1,0-0.1,0.1-0.2,0.1c0,0.1,0,0.1-0.1,0.1c0,0,0,0,0-0.1
		c-0.4,0.3-0.7,0.6-1.1,1c0,0,0,0,0,0c-0.1,0.1-0.2,0.2-0.3,0.4c-0.1,0.1-0.8,1-0.2,0.6c0.4-0.3,0.9-0.6,1.3-0.9
		c0.1,0,0.2-0.1,0.2-0.2c0.1,0,0.2,0.1,0.3,0.1c0.1,0.1,0.2,0.1,0.3,0.2c0-0.1,0.1-0.2,0.1-0.3c0-0.1,0-0.2,0.1-0.1
		c0,0-0.1,0-0.1,0.1c0.2,0,0.2-0.2,0.3-0.2c0.1,0.1,0.4-0.1,0.5-0.1c-0.1-0.1,0.4-0.2,0.1-0.1c-0.1,0-0.2,0.1-0.2,0.2
		c0.1,0,0.2-0.1,0.2,0c-0.1,0.1,0,0.2-0.2,0.2c-0.1-0.1,0-0.3-0.2-0.2c0.2,0.1,0,0-0.2,0.1c0.1,0,0.1,0.2,0,0.3c0-0.1-0.2,0-0.2,0.1
		c0.1,0,0.1-0.1,0.2,0c-0.2,0-0.2,0.1-0.2,0.2c0.3,0.2,0.6,0.4,0.8,0.6c0,0,0,0,0,0c0.1,0,0,0,0,0c0,0,0,0,0.1,0.1c0,0,0,0,0,0
		c0,0,0,0,0,0c0.2,0.2,0.4,0.4,0.5,0.6c-0.4,0.3-0.9,0.6-1.3,0.9c0.1,0,0.2,0.1,0.1,0.1c0,0-0.3-0.1-0.2,0c0,0,0,0,0,0
		c-0.3,0.2-0.5,0.4-0.8,0.6c-0.2,0.2-0.4,0.3-0.5,0.5c0,0,0,0,0,0c0,0.1,0.1,0,0.1,0.1c-0.1,0-0.2,0.3-0.3,0.2
		c0.1-0.1,0.1-0.1,0.2-0.2c0,0-0.1,0-0.1,0c-0.5,0.4-1,0.9-1.3,1.5c-0.2,0.3-0.1,0.6-0.1,0.9c0,0.9,0,1.9,0.1,2.8
		c0.1,1.1,0.9,1.3,1.6,1.9c0,0,0.1,0,0.1,0c0.9-0.5,1.8-1,2.7-1.6c0.4-0.3,0.7-0.6,1.1-1c0,0.9,0.2,1.7,0.5,2.5c0,0.1,1.3-1,1.3-1
		c0.1-0.1,0.8-0.7,1-1.1c-0.1,0-0.2-0.1-0.1-0.2c0,0.1,0.1,0.1,0.1,0.1c0-0.1,0-0.1,0-0.2C22.3,22.9,22.3,21.5,22.3,20L22.3,20z
		 M16.9,16C16.9,16,16.9,16,16.9,16c0.1,0.1,0.1,0.1,0.2,0.1C17.1,16.1,17.1,16,16.9,16L16.9,16z M0.9,14c0.7-0.5,1.3-1,2.2-1
		c1,0.1,1.9,0.8,2.8,1.2C6,14.2,6.3,14,6.4,13.9c0.4-0.3,0.7-0.6,1-0.9c0.1-0.1,1.3-1.5,1.2-1.5c-1-0.4-1.9-1.1-3-1.2
		c-1-0.1-1.8,0.7-2.6,1.2c-0.7,0.5-1.3,1.1-1.9,1.8C1,13.3,0.2,14.4,0.9,14L0.9,14z M15.2,12.2C15.2,12.2,15.2,12.2,15.2,12.2
		C15.2,12.1,15.2,12.1,15.2,12.2C15.2,12.2,15.2,12.2,15.2,12.2L15.2,12.2z M4.9,24.5L5,24.6l-0.1,0.1c0,0,0,0.1-0.1,0L4.9,24.5z
		 M6.2,25.2C6,25.4,6,25.2,5.9,25.2C6.1,25,6.1,25.2,6.2,25.2L6.2,25.2z M6.3,20.5c0,0-0.1-0.1,0-0.1c0.2,0.1-0.2,0.4-0.3,0.3
		C6.1,20.5,6.3,20.5,6.3,20.5L6.3,20.5z M6.6,26.2c0.1,0-0.1,0.1-0.1,0.1c0,0.2,0.1,0.3,0,0.1c0,0-0.1-0.1-0.1-0.1L6.6,26.2z
		 M4.2,20.7l0,2.3c0,1.3,0.1,2.6,0,3.9c-0.1,1.4-0.2,1.6-0.1,3c0,0.1,0.6-0.3,0.5-0.3c0.4-0.3,0.5-0.4,0.9-0.7
		c0.5-0.3,0.7-0.5,1-0.9c0.1-0.1,0.3-0.3,0.3-0.5c-0.1-1.3,0-1.9,0.1-3.3l0.1-9.7c0-0.1-0.6,0.3-0.5,0.3c-0.4,0.3-0.7,0.6-1,0.9
		c-0.3,0.3-1.2,1-1.2,1.5l0,1.5c-0.3,0-0.6,0.1-0.8,0.2c-0.8,0.3-1.4,1.1-2.1,1.6c-0.4,0.4-0.9,0.9-1.2,1.4
		c-0.2,0.4-0.2,0.4,0.2,0.1c0.5-0.5,1-1,1.6-1.3C2.6,20.7,3.4,20.7,4.2,20.7L4.2,20.7z M97.3,24.1L97.3,24.1l-0.2,0.1
		C97.1,24.1,97.4,23.9,97.3,24.1L97.3,24.1z M96,22.3c-0.1-0.1-0.3-0.2-0.1-0.1C96,22,96.2,22.5,96,22.3L96,22.3z M95.8,23.5
		c0.1-0.1-0.1-0.2-0.1-0.3C95.9,23.3,96,23.7,95.8,23.5L95.8,23.5z M95.8,23.8C95.8,23.8,95.6,23.7,95.8,23.8
		C96,23.7,96,24.4,95.8,23.8L95.8,23.8z M95.8,21.7L95.8,21.7c0,0.1,0.1,0.2,0,0.1C95.6,21.9,95.7,21.9,95.8,21.7
		C95.7,21.8,95.7,21.6,95.8,21.7L95.8,21.7z M95.2,23c-0.1,0.1-0.4-0.1-0.3-0.1c0.1,0.1,0.5,0.2,0.5,0.3
		C95.4,23.2,95.3,23.2,95.2,23L95.2,23z M94.9,19.9c0.1,0,0.4,0.2,0.2,0.1c0,0-0.1,0-0.2,0C95,20.2,94.8,19.9,94.9,19.9L94.9,19.9z
		 M94.8,19.7C94.8,19.6,94.9,19.6,94.8,19.7c0.1,0,0.2,0,0.2,0c0,0-0.1,0.1-0.1,0.1C94.9,19.7,94.8,19.7,94.8,19.7L94.8,19.7z
		 M94.6,16.7C94.6,16.7,94.7,16.7,94.6,16.7c0.1,0,0.2,0,0.2,0c0,0-0.1,0.1-0.1,0.1C94.7,16.8,94.6,16.8,94.6,16.7L94.6,16.7z
		 M94.6,16.4c0,0,0.2,0.1,0.2,0.2C94.8,16.7,94.3,16.2,94.6,16.4L94.6,16.4z M96.6,21.2c0-0.1-0.1-0.1,0-0.1c0,0,0,0,0,0
		c0-0.1,0-0.2,0-0.3c-0.1,0-0.2,0-0.1-0.1c0,0,0.1,0,0.1,0c0,0,0-0.1,0-0.1c0-0.8,0-1.7,0.1-2.5c-0.1-0.1-0.1-0.2-0.2-0.1
		c0,0,0.3,0.3,0.1,0.3c-0.1,0-0.1-0.1-0.2-0.1c-0.2-0.3,0-0.4-0.1-0.7c-0.1,0.1-0.1,0.1-0.2,0.1c0,0.2,0.3,0.2,0.2,0.4
		C96,17.8,96,17.6,96,17.5c-0.2,0-0.2,0.1-0.3,0.1c-0.1,0-0.2-0.1-0.3-0.2c0.3-0.1,0-0.5-0.2-0.5c-0.1,0-0.2,0.3-0.3,0.1
		C94.8,17,94.9,17,95,17c-0.1-0.1,0-0.2-0.1-0.3c-0.1,0.1-0.1-0.2-0.1-0.3c0.1,0.1,0.2,0.2,0.3,0.2c-0.3-0.4,0,0,0.1-0.1
		c0.2,0.3,0.2,0.3,0.3,0.1c0.1,0.2,0,0.2,0.2,0.3c-0.1,0.1-0.1,0.2,0.1,0.3c0.1-0.4,0.2,0.4,0.4,0.2c0-0.1,0-0.1,0,0
		c0,0.1,0.2,0.2,0.4,0.3c0-0.5,0.1-1.1,0.1-1.6c0-1.4,0.2-2.9,0.1-4.3c0-0.7-0.5-1.3-1.2-1.5c-1-0.3-2.1,0.9-2.7,1.5
		c-0.4,0.4-1.1,1-1.3,1.5c-0.1,0.2,0.2,0,0.2,0c0.3-0.2,0.8-0.6,1-0.6c0.2-0.1,0.4-0.1,0.5,0c0.4,0.1,0.6,0.4,0.8,0.6
		c0.4,0.5,0.4,0.9,0.4,1.5c0,0.4,0,0.9,0,1.3c0.1,0.1,0.2,0.2,0.1,0.3c0-0.1,0-0.1-0.1-0.1c0,0.9-0.1,1.7-0.1,2.6
		c-0.1,1.5-0.2,2.9-0.2,4.4c0.1,1.3,0.4,2.9,1.5,3.7c0.2,0.2,1.2-0.9,1.3-1c0.1-0.1,1.2-1.2,1-1.3C97,23.7,96.7,22.4,96.6,21.2
		L96.6,21.2z M41.2,21.1C41.1,21.2,41.2,21.1,41.2,21.1C41,20.9,41,21.2,40.9,21c0.1-0.1,0.1,0,0.2-0.1c0.1,0,0-0.1,0-0.1
		C41.4,20.7,41.3,21,41.2,21.1L41.2,21.1z M41,21.6C41.1,21.5,40.9,21.5,41,21.6c-0.2-0.1-0.1-0.2,0-0.2C41,21.4,41,21.5,41,21.6
		C41,21.5,41.1,21.5,41,21.6L41,21.6z M40.8,20.7c0-0.2,0.3-0.1,0.4-0.2c0,0.1-0.1,0.1,0,0.2C41.1,20.8,41,20.7,40.8,20.7L40.8,20.7
		z M39.9,20.4c-0.1-0.1,0.4-0.3,0-0.2c0-0.1,0.1,0,0.2-0.1C40.3,20.2,40.1,20.3,39.9,20.4L39.9,20.4z M39.8,19.7
		c0-0.1,0.1-0.1,0.2,0c0.1,0,0.1-0.1,0-0.1c0.2-0.1-0.1,0.2,0,0.2C39.7,19.9,40,19.5,39.8,19.7L39.8,19.7z M39,21.7
		c0,0.1-0.1,0.1-0.2,0C38.9,21.6,39,21.7,39,21.7C39.2,21.6,39,21.8,39,21.7L39,21.7z M35.2,22.6c0,0-0.3,0.2-0.2,0.1
		c0-0.1,0.5-0.2,0.4,0C35.3,22.8,35.3,22.6,35.2,22.6L35.2,22.6z M37.2,20c-0.1,0-0.2,0.2-0.3,0.2c0-0.2,0.4-0.3,0.3-0.4
		c0.1,0,0,0.1,0.1,0.1C37.4,20.1,37.2,20,37.2,20L37.2,20z M36.7,20c0,0,0.1,0,0.1,0.1C36.9,20.3,36.7,20,36.7,20L36.7,20z
		 M37.3,19.4c0.1,0.1-0.2,0.2-0.3,0.2C37,19.4,37.2,19.6,37.3,19.4L37.3,19.4z M35.8,19.1c0-0.1,0.1-0.1,0-0.2
		c0.1,0,0.1,0.1,0.1,0.1c0.1,0.1,0.3,0,0.5-0.1C36.5,19.2,36,18.9,35.8,19.1L35.8,19.1z M36.1,18.1C36.1,18.1,36,17.9,36.1,18.1
		c0.2,0.1-0.1,0.3-0.2,0.2C35.9,18.3,36.1,18.1,36.1,18.1L36.1,18.1z M35.3,16.8c0-0.1,0.2-0.3,0.3-0.3
		C35.7,16.6,35.4,16.7,35.3,16.8L35.3,16.8z M33.9,16.8C33.8,16.8,33.8,16.8,33.9,16.8C33.6,16.9,33.7,16.7,33.9,16.8
		c0.1,0,0.1,0,0.1,0.1C33.9,16.9,33.9,16.8,33.9,16.8L33.9,16.8z M36.4,13.8c0.1,0-0.1,0.4-0.1,0.2C36.2,14,36.4,13.8,36.4,13.8
		L36.4,13.8z M36.8,14.5c0,0.1-0.1,0.1-0.1,0.2c-0.1,0,0-0.1-0.1-0.1c-0.1-0.1-0.1,0.1-0.2,0.1C36.4,14.5,36.7,14.5,36.8,14.5
		L36.8,14.5z M37.2,15.5c0-0.1,0.1-0.1,0.2-0.2c0,0.1-0.1,0.1,0,0.2C37.5,15.5,37.2,15.7,37.2,15.5c0,0-0.1,0.1-0.1,0.1
		C36.8,15.7,37.1,15.3,37.2,15.5L37.2,15.5z M37.2,13.8c0.1,0.1,0,0.1,0,0.1c0,0.1-0.1,0.1-0.1,0.1C37.1,14,37.2,14,37.2,13.8
		c0,0.1-0.2,0.1-0.2,0L37.2,13.8z M37.6,15.7c0.2-0.1-0.1,0.3-0.2,0.2C37.3,15.7,37.8,15.8,37.6,15.7L37.6,15.7z M37.8,15.5
		c0.1,0,0.2,0.2,0.4,0c0,0.1-0.1,0.1-0.1,0.1c0.1,0.1,0.2-0.1,0.2-0.1c0.1,0,0.2,0,0.2,0.2c0.2-0.1,0.3-0.3,0.2-0.1
		c0.2-0.1,0.1-0.2,0-0.3c0.2-0.2,0.2,0,0.3-0.1c0,0.1-0.1,0.1-0.2,0.2c0.1,0,0.2,0.1,0.3,0c0.3-0.1-0.1,0.3-0.1,0.1
		c-0.1,0.1-0.5,0.2-0.4,0.3c-0.2,0.1-0.2,0-0.4,0.1c0,0.1,0.1,0,0.1,0c0,0.1-0.1,0-0.2,0c-0.1,0-0.3-0.1-0.4-0.1
		c0.1,0,0.1,0,0.1,0.1C38.2,15.6,37.7,15.8,37.8,15.5L37.8,15.5z M38,14.3c0,0,0,0.1,0,0.1c0,0,0.1,0,0,0.1c0,0-0.1,0-0.1,0
		C37.8,14.5,37.9,14.3,38,14.3L38,14.3z M38.2,14.2L38.2,14.2c0.1,0.1,0.2,0.1,0,0.1C38.2,14.4,38.2,14.4,38.2,14.2
		C38.2,14.2,38.1,14.2,38.2,14.2L38.2,14.2z M39.4,15.8C39.4,15.8,39.4,15.8,39.4,15.8c0,0.1,0.1,0.1,0.1,0.1
		C39.5,16.1,39.3,15.9,39.4,15.8L39.4,15.8z M39.6,14.9C39.6,14.8,39.7,14.7,39.6,14.9c0.1,0,0.1,0,0.2,0c0,0.1-0.1,0.1-0.3,0.2
		C39.3,15,39.5,14.7,39.6,14.9L39.6,14.9z M38.5,17c0,0,0.2,0.1,0.2,0C38.7,17.3,38.5,17.1,38.5,17L38.5,17z M39.9,15.6
		c0,0,0.1,0,0.1,0C40.5,15.8,39.9,15.7,39.9,15.6L39.9,15.6z M41.5,21c0-0.7-0.1-1.3-0.5-1.9c0,0,0,0,0,0c-0.1,0.1-0.1,0,0,0
		c0,0,0-0.1-0.1-0.1c0,0-0.1,0.1-0.1,0.1c-0.2,0-0.2-0.2-0.4-0.1c0-0.1,0.1-0.1,0.2-0.2c0,0.2,0,0.2,0.2,0.1c0,0,0,0,0,0
		c-0.4-0.5-0.9-0.7-1.5-0.7c0,0,0,0-0.1,0.1c0,0,0,0,0-0.1c-0.7,0-1.4,0.4-2,0.8c-0.5-0.5-1.4-1.2-1.5-1.9c-0.1-0.3-0.1-0.6-0.1-0.9
		c0,0,0,0,0-0.1c0,0,0,0,0,0c0,0,0-0.1,0-0.1c0,0,0,0,0,0c0,0,0,0,0,0c0-0.2,0-0.3,0-0.5c0.2,0,0.3,0.1,0.5,0.2c0,0,0,0,0,0
		c0,0,0,0,0,0c0.2,0.1,0.4,0.3,0.6,0.5c0.3,0.2,0.5,0.6,0.8,0.9c0.1,0,0.1-0.1,0.1-0.1c0,0,0,0.1-0.1,0.1c0.1,0.1,0.3,0.3,0.4,0.4
		c0.4,0.3,0.9,0.1,1.2-0.1c0.6-0.4,1.2-1,1.7-1.6c0.1-0.1,0.8-1,0.2-0.6c-0.4,0.2-0.7,0-1-0.3c0,0.1-0.1,0.2-0.2,0.1
		c0.1,0.1,0,0.2-0.1,0.3c0-0.1,0.1-0.1,0.1-0.2c-0.1-0.1-0.1,0.2-0.2,0c0.1-0.1,0.3-0.2,0.4-0.2c-0.1-0.1-0.2-0.2-0.3-0.3
		c-0.3-0.3-0.7-0.7-1-1c-0.1,0.1-0.2,0.1-0.1,0c0,0,0,0,0-0.1c-0.2-0.1-0.4-0.2-0.7-0.3c-0.4-0.1-0.7,0-1.1,0.1c0,0-0.1,0.1-0.1,0.1
		c0,0.1,0.2,0.2,0,0.2c0-0.2,0-0.3,0.1-0.3c-0.1,0-0.1,0.1-0.2,0.1c0,0.1-0.1,0.2-0.2,0.3c0-0.1,0-0.1,0.1-0.2
		c-0.1,0.1-0.3,0.2-0.4,0.2c-0.4,0.3-0.8,0.6-1.2,1c0,0-0.1,0.1-0.1,0.1c0.1,0,0.1,0.2,0.2,0.1c0,0.1,0,0.1,0.1,0.1
		c0,0.1-0.3,0-0.4-0.1c-0.4,0.4-0.9,0.9-1.2,1.4c-0.3,0.4-0.4,0.9-0.4,1.4c0,0,0,0,0,0c0,0.4,0,0.9,0,1.3c0.1,1.1,0.9,1.8,1.6,2.5
		c0.1,0.1,0.4-0.2,0.4-0.2c0.9-0.7,2.1-0.8,3,0c0.7,0.7,0.9,1.8,0.7,2.7c-0.1,0-0.1,0-0.2,0c-0.5-0.1-0.8-0.5-1.2-0.8
		c-0.3-0.3-0.7-0.7-1.1-0.8C36,22,35.4,22.3,35,22.6c-0.2,0.2-0.4,0.3-0.6,0.5c0,0,0,0,0,0c0,0.1,0,0.1-0.1,0.1c0,0,0,0-0.1,0.1
		c0.2,0,0.4,0,0.1,0.1c0,0-0.2,0-0.2,0c0,0,0,0,0-0.1c-0.3,0.3-0.6,0.6-0.8,0.9c-0.1,0.1-0.8,1-0.2,0.6c1.2-0.8,2.1,0.8,3,1.3
		c0.6,0.4,1.3,0.1,1.9-0.3c1.1-0.7,2.2-1.8,2.9-3c0.2-0.3,0.4-0.7,0.5-1.1c-0.1,0-0.2,0-0.2,0c0.1-0.1,0.2-0.1,0.3-0.1
		c0-0.1,0-0.2,0.1-0.2c-0.1,0.1-0.1,0.1-0.2,0.2c-0.1-0.3,0.2-0.2,0.2-0.4c0,0,0,0,0,0C41.5,21.2,41.5,21.2,41.5,21
		C41.5,21.1,41.4,21.1,41.5,21C41.4,21.1,41.4,21,41.5,21L41.5,21z M48.6,16.7C48.6,16.7,48.6,16.7,48.6,16.7
		C48.6,16.7,48.6,16.7,48.6,16.7C48.6,16.7,48.6,16.7,48.6,16.7L48.6,16.7z M45.4,25.4C45.4,25.4,45.4,25.4,45.4,25.4
		c-0.1,0-0.2,0-0.2,0l0,0l0,0c0,0,0-0.1,0.1-0.1c0,0,0.1,0,0.1,0l0,0l0,0C45.5,25.3,45.5,25.3,45.4,25.4
		C45.5,25.4,45.5,25.4,45.4,25.4L45.4,25.4z M45.2,25.1C45.2,25.1,45.2,25.1,45.2,25.1C45.1,25.2,45.1,25.2,45.2,25.1
		C45,25.2,45,25.2,45,25.2c0,0,0,0,0-0.1c0,0,0,0,0,0l0,0l0,0c0,0,0,0,0,0C45.1,25,45.1,25,45.2,25.1C45.1,25.1,45.1,25.1,45.2,25.1
		L45.2,25.1L45.2,25.1z M44.8,25.1c0-0.1,0.1,0,0.1,0.1C45,25.3,44.8,25.2,44.8,25.1L44.8,25.1z M44.6,24.2c0.1-0.2,0.3,0,0.3-0.2
		c0.1,0,0.2,0.2,0.4,0.3c-0.2,0.1-0.3,0.1-0.3-0.1c-0.1,0.1-0.2,0.1-0.3,0.2C44.6,24.4,44.7,24.3,44.6,24.2L44.6,24.2z M44.4,23.8
		c0.1,0,0.1,0.1,0.2,0.1C44.7,24,44.3,23.9,44.4,23.8L44.4,23.8z M44.6,13.6c0,0.2-0.2,0.1-0.2,0.2c0.1,0,0.2,0.1,0.2,0.1
		c-0.2,0-0.3-0.1-0.4-0.2C44.3,13.6,44.4,13.5,44.6,13.6L44.6,13.6z M45.1,19.3c0,0.1-0.1,0.1-0.2,0.2C44.8,19.3,45,19.2,45.1,19.3
		L45.1,19.3z M44.9,15.4c0.1,0,0.3,0.1,0.2,0.2C45,15.5,44.9,15.5,44.9,15.4L44.9,15.4z M45.3,13.5c-0.2,0-0.1,0.2-0.2,0.2
		c0,0,0-0.1-0.1-0.1c0,0.1-0.2,0.1-0.2,0C45,13.7,45.2,13.3,45.3,13.5L45.3,13.5z M45.4,25L45.4,25L45.4,25L45.4,25
		c0,0.1,0,0.1,0,0.1v0l0,0l0,0l0,0c0,0,0,0-0.1,0c0,0,0,0,0,0c0,0,0-0.1,0-0.1l0,0l0,0L45.4,25C45.3,24.9,45.3,24.9,45.4,25
		C45.4,25,45.4,25,45.4,25L45.4,25z M45.7,12.7c0,0.1-0.1,0.1-0.1,0.1c0,0-0.1,0.1-0.1,0.1C45.4,12.9,45.6,12.8,45.7,12.7L45.7,12.7
		z M45.4,20.8c0-1.4,0.1-2.8,0.1-4.1c0.1-1.5,0.2-3,0.2-4.6c0-0.7-0.5-1.3-1-1.6c-0.9-0.6-1.9,0.1-2.6,0.7c-0.6,0.5-1.2,1.1-1.7,1.7
		c0,0-0.1,0.1-0.2,0.3c0,0,0,0.1,0,0.1c0,0,0,0,0,0c0,0,0,0.1,0,0.1c0.1,0.1,0.4-0.2,0.4-0.2c0.7-0.5,1.5-0.4,2.1,0.2
		c0.1,0.1,0.1,0.1,0.2,0.2c0,0,0,0,0,0c0,0,0,0,0,0.1c0,0,0,0,0,0.1c0,0,0,0,0,0c0,0,0,0,0,0c0.3,0.4,0.3,0.8,0.3,1.3
		c0,0.8-0.1,1.5-0.1,2.3c0,0,0,0,0,0c0,0,0,0,0,0.1c0,0.7-0.1,1.5-0.1,2.2c-0.1,1.3-0.2,2.6-0.1,3.9c0,0,0,0,0,0
		c0.1,0,0.3,0,0.6,0.2c0,0.1,0.1,0.2,0.1,0.3c-0.1,0-0.2-0.1-0.2-0.1c-0.1-0.1,0.1-0.1,0-0.2c-0.1,0-0.4-0.2-0.4-0.1
		c0.1,0,0.1,0.1,0.1,0.1c-0.1-0.1-0.2-0.1-0.3-0.1c0,0.4,0,0.8,0.1,1.3c0.2,0,0.4,0.1,0.1,0.3c0-0.1,0-0.1-0.1-0.1
		c0.2,0.9,0.5,1.7,1.4,1.8c0.4,0,1.1-0.8,1.3-1c0.3-0.3,0.6-0.6,0.8-0.9c0,0,0.3-0.4,0.2-0.4C45.5,24,45.4,21.8,45.4,20.8L45.4,20.8
		z M75.6,25.7c-0.7-0.4-1.2-0.9-1.9-1.4c-0.3-0.2-0.7-0.5-1-0.7c0,0,0-0.1,0-0.1c0-1,0-2,0-2.9c0,0,0,0.1,0,0.1
		c0,0.1-0.1,0.1-0.2,0.1l-0.1,0l0-0.1c0-0.3,0-0.3,0.1-0.7l0-0.2l0.1,0.2c0.1,0.1,0.1,0.2,0.1,0.3c0-2,0.1-4.1,0.1-6.1
		c0-0.1-0.6,0.3-0.5,0.3c-0.4,0.3-0.7,0.6-1,0.9c-0.3,0.3-1.2,1-1.2,1.5c0,2.5-0.1,4.9-0.1,7.4c-0.3,0.2-0.5,0.5-0.7,0.7
		c-0.8,0.8-1.4,1.6-2.1,2.5c-0.3,0.4,0,0.2,0.3,0.1c0,0-0.1-0.1-0.1-0.1c-0.2,0.1-0.1-0.1,0.1,0c0,0,0,0,0,0.1
		c0.2-0.1,0.4-0.3,0.4-0.3c0.4-0.4,0.9-0.8,1.3-1.3c0.2,0,0.4,0.1,0.6,0.2c0,0,0-0.1,0-0.1c0,0,0,0.1,0,0.1c0,0,0,0,0.1,0
		c0-0.1,0-0.2,0-0.3c0,0,0.1,0,0.2-0.1c0-0.1,0-0.1-0.1-0.1c0.1-0.2,0.2-0.4,0.3-0.3c0.1,0.1-0.4,0.5-0.1,0.4c0.1,0,0,0.2,0,0.1
		c-0.1,0.1,0,0-0.1,0c0,0.1,0,0.3,0.1,0.3c0.1,0,0.2,0,0.2-0.1c0-0.1-0.1,0-0.1,0c-0.1-0.1,0-0.1,0.1-0.1c0.1-0.1,0.1-0.3,0.3-0.2
		l0,0.8c0.8,0.5,1.5,1.2,2.2,1.7c0.3,0.2,1.4-1,1.5-1.2C74.5,27.1,75.8,25.8,75.6,25.7L75.6,25.7z M31.2,19.1c-0.1,0-0.1,0-0.2,0
		c0-0.1,0-0.1,0-0.1c0.1,0,0.1,0,0.2,0C31.2,19,31.2,19,31.2,19.1L31.2,19.1z M30.2,20.6C30.1,20.7,30.1,20.6,30.2,20.6
		c-0.1-0.1-0.2-0.1-0.3,0c0-0.1,0.1-0.1,0.2-0.2c0,0,0,0.1,0,0.1C30.3,20.5,30.2,20.5,30.2,20.6L30.2,20.6z M29.9,25l0,0.1
		c0,0-0.2,0-0.2,0c0.1,0,0.1-0.3,0.3-0.2C30.1,24.9,29.9,24.9,29.9,25L29.9,25z M29.7,25c-0.2,0.1-0.2,0.2-0.4,0.1
		c0.1-0.1,0-0.2,0.1-0.2c0.1-0.1,0.3-0.2,0.3-0.1C29.7,24.8,29.7,24.9,29.7,25L29.7,25z M28.8,25.4c-0.1,0-0.3,0.1-0.3,0.1
		c0.1,0,0.1-0.1,0-0.1c0.1,0,0.3-0.1,0.3-0.1c-0.1,0-0.2,0.1-0.2,0.1C28.7,25.4,28.8,25.4,28.8,25.4L28.8,25.4z M28,26.6
		c0.1,0,0.3-0.1,0.3,0C28.2,26.7,28.1,26.7,28,26.6L28,26.6z M27.6,25.8c0.2-0.2-0.1-0.2,0.1-0.4c0,0.1,0.2,0,0.2,0.1
		C27.6,25.5,27.9,26,27.6,25.8L27.6,25.8z M27.6,23.6C27.5,23.6,27.5,23.7,27.6,23.6C27.2,23.9,27.5,23.6,27.6,23.6
		C27.5,23.5,27.6,23.6,27.6,23.6C27.7,23.6,27.7,23.6,27.6,23.6C27.7,23.6,27.6,23.6,27.6,23.6L27.6,23.6z M27.2,25.6
		c0.1-0.2-0.2-0.1-0.3,0.1c0-0.1-0.1-0.1-0.1-0.1c0.3,0,0.4-0.2,0.5-0.1c-0.1,0.1,0.1,0,0.1,0.1C27.3,25.5,27.3,25.8,27.2,25.6
		L27.2,25.6z M26.8,26.5c0.1-0.1,0.2,0,0.3,0C27,26.6,26.9,26.5,26.8,26.5L26.8,26.5z M26.8,24.7c0-0.1-0.1-0.2-0.2-0.2
		C26.9,24.4,27,24.7,26.8,24.7L26.8,24.7z M26.6,24.2c0,0,0.1,0,0.1-0.1C27.2,24,26.7,24.4,26.6,24.2L26.6,24.2z M26.4,24.4
		c0,0-0.1,0-0.1,0.1c-0.1-0.2,0.5-0.5,0.5-0.3C26.5,24.2,26.4,24.2,26.4,24.4C26.4,24.3,26.5,24.3,26.4,24.4L26.4,24.4z M26.5,23.1
		c0.1-0.1,0.3-0.1,0.3,0C26.7,23.2,26.6,23.1,26.5,23.1C26.5,23.1,26.5,23.1,26.5,23.1L26.5,23.1z M26.9,23.2
		c-0.1,0-0.1-0.1-0.1-0.2C27,23,26.9,23.1,26.9,23.2L26.9,23.2z M26.8,23.8c0.2-0.1,0.4-0.1,0.5-0.1C27.1,23.8,26.9,23.9,26.8,23.8
		L26.8,23.8z M27.2,24.6c-0.1,0-0.1,0.2-0.2,0.1C27,24.6,27.1,24.5,27.2,24.6L27.2,24.6z M27.2,23.9c0.2,0.1-0.1,0.4-0.2,0.3
		C27.2,24.2,27,24,27.2,23.9L27.2,23.9z M27.1,24.9c0,0.1,0.1,0.1,0.2,0.1c0.1,0.1-0.2,0.3-0.3,0.2C27.2,25.2,26.8,25,27.1,24.9
		L27.1,24.9z M27.2,23.1c0.1,0,0.2,0,0.2,0C27.3,23.2,26.7,23.1,27.2,23.1L27.2,23.1z M25.7,25.1c0,0,0.1,0,0.1-0.1
		C26.2,24.8,25.7,25.2,25.7,25.1L25.7,25.1z M26.6,20.7c0,0-0.3,0.1-0.2,0c0.1-0.1,0.5-0.2,0.5-0.1C26.6,20.7,26.7,20.8,26.6,20.7
		L26.6,20.7z M26.3,21.6c-0.1-0.1,0.1-0.2,0.2-0.3C26.5,21.4,26.5,21.5,26.3,21.6L26.3,21.6z M26.2,20.5c0.1-0.1,0.2-0.2,0.2-0.2
		C26.6,20.4,26.2,20.6,26.2,20.5L26.2,20.5z M25.4,21.4c-0.1-0.2,0.1-0.2,0.3-0.3c0.1,0.2,0.3,0,0.4,0.1
		C26,21.3,25.5,21.2,25.4,21.4L25.4,21.4z M25.5,21.4c0.1,0,0.3-0.1,0.3-0.1C25.8,21.4,25.6,21.5,25.5,21.4L25.5,21.4z M25.7,21.6
		c0,0-0.1,0-0.2,0c0,0,0,0.1-0.1,0.1c0,0,0.1-0.2,0.1-0.2C25.6,21.5,25.7,21.5,25.7,21.6C25.7,21.5,25.7,21.5,25.7,21.6L25.7,21.6z
		 M25.1,19c-0.1-0.1,0.1-0.2,0.1-0.2c-0.1,0-0.1-0.1,0-0.1c0.1,0,0.5,0,0.5-0.1c-0.1,0-0.1,0.1-0.2,0c0.2-0.1,0.3,0,0.3,0.1
		c-0.1,0.1-0.1,0.1-0.1,0.2c0,0.1,0,0-0.1,0c0,0-0.1-0.2-0.3-0.1c0,0.1,0.1,0.1,0.1,0.1C25.3,19,25.2,18.9,25.1,19L25.1,19z
		 M25.9,20.4c-0.1,0,0,0.1,0,0.1c-0.1,0-0.4,0.3-0.3,0.1c0,0,0.1,0,0.1-0.1C25.7,20.5,25.8,20.3,25.9,20.4L25.9,20.4z M24.8,17.7
		c0,0.1,0.3,0,0.3,0c0.1,0,0.1,0.1,0.2,0.1c0.1,0,0.2,0,0.3,0c0,0,0-0.1,0.1,0c-0.2,0.3,0.3,0,0.3,0.2c-0.3,0.1-0.3-0.2-0.6,0
		c0,0,0.1,0.1,0,0.1c-0.1,0-0.2-0.1-0.3-0.1c-0.1,0-0.1,0.1-0.1,0.1C25.1,17.9,24.7,17.9,24.8,17.7L24.8,17.7z M24.5,19.6
		c0,0,0.2-0.2,0.2-0.2C24.8,19.5,24.6,19.7,24.5,19.6L24.5,19.6z M24.4,19.3c-0.2-0.1,0.2-0.3,0.2-0.1c0,0-0.1,0-0.1,0.1
		C24.5,19.3,24.5,19.3,24.4,19.3L24.4,19.3z M24.3,16.8C24.3,16.8,24.2,16.8,24.3,16.8c-0.1,0-0.1,0.1-0.1,0.1c-0.1,0,0-0.2,0.1-0.2
		L24.3,16.8C24.3,16.8,24.3,16.8,24.3,16.8L24.3,16.8z M25.7,16.5c0.4-0.2-0.1,0.2-0.2,0.1C25.6,16.5,25.6,16.5,25.7,16.5L25.7,16.5
		z M27.6,16.4c-0.1,0.1-0.3,0.1-0.3,0.1C27.3,16.4,27.6,16.4,27.6,16.4L27.6,16.4z M27.3,15.2c0,0,0.1-0.1,0.1-0.1
		c0.1,0.1,0,0.1,0,0.2C27.3,15.3,27.3,15.3,27.3,15.2L27.3,15.2z M28.7,16.4c0.1,0.2-0.3,0.4-0.4,0.2C28.6,16.6,28.5,16.4,28.7,16.4
		L28.7,16.4z M31.4,18.4c-1.4-0.8-2.5,1.2-3.8,1.2c-0.7,0-1.2-0.6-1.4-1.2c-0.1,0-0.2-0.1,0,0c0,0,0,0,0,0c-0.1-0.2-0.1-0.3-0.1-0.5
		c0-0.2-0.1-0.5-0.1-0.7c-0.1,0-0.2,0.1-0.2,0c0.1,0,0.1,0,0.1-0.1c0,0,0,0,0,0c0-0.5,0.1-1.1,0.2-1.5c0.2,0.1,0.4,0.3,0.6,0.5
		c0.3,0.4,0.5,0.8,0.9,1.2c0.1,0.1,0.2,0.1,0.2,0.2c0.1,0,0.1,0,0.1,0c0,0,0,0,0,0c0,0,0.1,0,0.1,0c0.1,0,0.1,0,0.1,0
		c0.2,0,0.5-0.1,0.7-0.2c0.7-0.4,1.3-0.9,1.8-1.4c0.1-0.1,0.9-0.9,0.3-0.6c-0.9,0.5-1.5-1.1-2-1.6c-1.1-0.9-2.3-0.1-3.3,0.4
		c-0.1,0.1-0.2,0.1-0.4,0.2c0.1,0,0.2,0,0.1,0c0,0-0.2,0.1-0.3,0.1c-0.5,0.3-0.9,0.8-1.2,1.2c-0.4,0.5-1,5,0.5,6.1
		c0.1,0,0.1,0,0.1,0.1c0,0,0.1,0.1,0.1,0.1c1.2,0.6,2.3-1.1,3.4-1.3c0.8-0.2,1.5,0.6,1.7,1.3c0.3,0.8,0.2,1.7,0,2.5c0,0-0.1,0-0.1,0
		c-0.6,0-1.1-0.5-1.5-0.9c-0.4-0.4-0.8-0.8-1.4-1c-0.7-0.2-1.3,0.4-1.7,0.8c-0.3,0.2-0.5,0.4-0.7,0.7c0,0,0,0,0,0c0,0,0,0,0,0
		c-0.3,0.3-0.6,0.6-0.8,1c-0.3,0.4,0.2,0,0.6-0.1c0.2,0,0.3,0,0.5,0c0,0,0,0,0,0c0,0,0,0,0,0.1c0.3,0.1,0.5,0.3,0.7,0.5
		c0.2,0.1,0.3,0.3,0.4,0.4c0.1,0,0.2,0,0.2,0c-0.1-0.2,0.1-0.1,0.1-0.1c-0.2,0.1-0.1,0.2-0.3,0.1c0,0,0,0,0,0c0.3,0.3,0.6,0.6,1,0.8
		c0,0,0,0,0.1,0c0,0,0.1,0,0.1,0l0-0.1c0,0,0.2,0,0.2,0c0,0.1,0,0.1-0.1,0.2c1.4,0.4,2.8-1.4,3.5-2.2c1-1,1.7-2.1,1.8-3.5
		C32.6,20,32.4,19,31.4,18.4L31.4,18.4z"/>
</g>
</svg>
