<svg xmlns="http://www.w3.org/2000/svg" width="80" height="101" fill="none" viewBox="0 0 80 101">
    <g clip-path="url(#clip0)">
        <path fill="#798732" d="M56.608 29.292s3.833-1.277 7.092 0c3.258 1.276 9.924 6.51 11.904 6.786 1.981.276 3.408-1 3.834 0 .426 1-.703 1.425-1.704 1.701-1 .277-17.442 9.424-31.583 0-14.141-9.423-1.427-7.487-1.427-7.487l11.884-1zM30.86 38.588s-15.035 24.484-19.124 34.95C7.199 85.13 7.199 96.17 7.199 96.17s0 1.128.703 1.83c.703.702 1.555 2.552 1.98 2.403.427-.149.235-1.978.15-5.084-.064-2.254-1.022-8.21 5.239-22.357C21.532 58.818 33.394 39.44 33.394 39.44l-2.534-.851z"/>
        <path fill="#798732" d="M13.993 74.09S.469 73.943.49 49.5c0 0 .064.447 3.173 1.106 3.11.66 11.309 2.34 13.076 9.509 1.768 7.169-2.747 13.976-2.747 13.976zM17.656 12.72s-2.811-4.402-7.922-6.104S1.3 4.042.938 3.063C.576 2.085.15 3.127.832 5.978c.681 2.85.809 13.89 15.44 20.804 14.63 6.913 10.584-6.914 10.584-6.914s-3.066-4.148-3.45-4.318c-.404-.149-5.75-2.83-5.75-2.83z"/>
        <path fill="#fff" d="M60.42 28.866c2.066-5.147-.405-10.976-5.559-13.04-.787-.318-1.597-.531-2.406-.638.17-.319.34-.659.468-1 2.066-5.147-.404-10.976-5.558-13.04-5.133-2.062-10.99.426-13.055 5.574-.234.596-.426 1.213-.532 1.83-1.044-1.17-2.386-2.128-3.94-2.766-5.43-2.19-11.628.447-13.822 5.893-1.938 4.828-.085 10.231 4.153 12.912-1.235 1.02-2.236 2.36-2.875 3.935-2.066 5.148.405 10.976 5.558 13.04 2.407.957 4.963.936 7.22.106 1.044 2.532 3.088 4.659 5.835 5.786 5.431 2.191 11.628-.447 13.822-5.892.852-2.127.98-4.36.49-6.424 4.302.361 8.518-2.064 10.2-6.276z"/>
        <path fill="#FF7E7C" d="M41.24 24.119c.874-2.169-.177-4.635-2.348-5.508-2.171-.873-4.64.177-5.514 2.346-.874 2.168.177 4.634 2.348 5.508 2.171.873 4.64-.177 5.514-2.346z"/>
        <path fill="#798732" d="M13.588 73.453s10.074 7.551 23.64-5.574c0 0-.277.213-2.96-1.19-2.663-1.383-9.648-5.127-14.95-2.277-5.304 2.872-5.73 9.04-5.73 9.04z"/>
    </g>
    <defs>
        <clipPath id="clip0">
            <path fill="#fff" d="M0 0H79.032V100H0z" transform="translate(.47 .404)"/>
        </clipPath>
    </defs>
</svg>
