<svg xmlns="http://www.w3.org/2000/svg" width="96" height="121" fill="none" viewBox="0 0 96 121">
    <path fill="#798732" d="M71.308 30.948s13.718 4.535 22.397-19.593c0 0-.209.407-3.609 0-3.37-.407-12.257-1.627-16.611 4.855-4.354 6.482-2.177 14.738-2.177 14.738zM26.672 23.457s-5.765-3.698-13.03-3.316c-7.292.381-11.875.91-12.855-.03-.98-.939-.952.411 1.354 3.346s8.043 15.409 29.922 16.583c21.878 1.174 9.771-12.68 9.771-12.68s-5.967-3.316-6.543-3.316c-.576 0-8.619-.587-8.619-.587zM89.228 76.667s5.049 7.653 3.145 12.811c-1.904 5.16-3.462 7.624-1.356 13.528 2.106 5.904 1.788 16.193 1.788 16.193s-.807 1.519-2.538 1.147c-1.73-.373-1.154-12.009-2.481-16.767-1.327-4.757-2.885-6.104-3.635-6.477-.779-.373-11.827-4.758-13.212-13.155-1.385-8.397 5.885-11.636 5.885-11.636l7.27-1.318 5.134 5.674z"/>
    <path fill="#fff" d="M48.1 66.175c-2.684-5.329-.549-11.846 4.762-14.568.808-.406 1.674-.724 2.511-.898-.202-.319-.404-.666-.606-1.043-2.684-5.33-.548-11.846 4.763-14.569 5.31-2.693 11.805-.55 14.518 4.78.318.636.549 1.274.75 1.91 1.01-1.36 2.367-2.519 3.984-3.33 5.628-2.867 12.498-.58 15.355 5.069 2.511 5.01 1.04 11.006-3.261 14.279 1.414.985 2.597 2.346 3.434 3.968 2.685 5.33.549 11.846-4.762 14.569-2.483 1.274-5.253 1.477-7.736.782-.894 2.838-2.886 5.3-5.715 6.748-5.628 2.868-12.497.58-15.355-5.068-1.097-2.201-1.443-4.606-1.097-6.865-4.59.84-9.323-1.39-11.545-5.763z"/>
    <path fill="#F36B21" d="M25.002 22.927c0-5.993 4.835-10.827 10.827-10.827.927 0 1.824.116 2.664.318-.03-.405-.058-.781-.058-1.187C38.435 5.24 43.298.404 49.262.404c5.992 0 10.827 4.835 10.827 10.827 0 .695-.058 1.39-.203 2.056 1.534-.753 3.242-1.187 5.066-1.187 6.34 0 11.464 5.124 11.464 11.464 0 5.616-4.024 10.277-9.35 11.261.81 1.534 1.273 3.271 1.273 5.095 0 5.993-4.834 10.827-10.827 10.827-2.808 0-5.355-1.071-7.266-2.808-2.084 2.113-4.98 3.445-8.164 3.445-6.34 0-11.463-5.124-11.463-11.464 0-2.46.781-4.748 2.113-6.63-4.487-1.33-7.73-5.47-7.73-10.363z"/>
    <path fill="#FEDD00" d="M50.71 30.454c-2.527 0-4.575-2.048-4.575-4.574s2.048-4.574 4.575-4.574c2.526 0 4.573 2.048 4.573 4.574s-2.047 4.574-4.574 4.574z"/>
    <path fill="#FF7E7C" d="M72.528 63.051c-2.436 0-4.411-2.172-4.411-4.852s1.975-4.853 4.411-4.853c2.437 0 4.412 2.172 4.412 4.853 0 2.68-1.975 4.852-4.412 4.852z"/>
</svg>
