<?xml version="1.0" encoding="UTF-8"?>
<svg id="Layer_1" xmlns="http://www.w3.org/2000/svg" version="1.1" viewBox="0 0 78 42">
  <!-- Generator: Adobe Illustrator 29.5.0, SVG Export Plug-In . SVG Version: 2.1.0 Build 137)  -->
  <defs>
    <style>
      .st0 {
        fill: #4f2c1d;
      }
    </style>
  </defs>
  <path class="st0" d="M17.4,8.9c0-3.2,2.2-4.9,4.9-4.9,1,0,1.8.2,2.5.5.2.1.3.3.3.5l-.3,1.7c0,.2-.1.4-.1.4,0,0-.2-.1-.4-.2-.5-.4-1.2-.5-1.9-.5-1.3,0-2.4.9-2.4,2.6,0,1.8,1.1,2.6,2.2,2.6.2,0,.4,0,.5-.1.2,0,.4-.3.4-.5v-2c0-.2.1-.4.3-.4h2c.2,0,.3.2.3.4v3.1c0,.2-.1.5-.3.7-.8.7-1.9,1.1-3.1,1.1-2.7,0-4.9-1.8-4.9-5ZM27.4,7.2v4.5c0,.8,0,1.3-.1,1.6,0,.2,0,.4.2.4h2.3c.2,0,.3-.2.2-.4v-3.1c0-.2.2-.4.4-.4h1.8c.2,0,.4.2.4.4v1.5c0,.8,0,1.3-.1,1.6,0,.2,0,.4.2.4h2.3c.2,0,.3-.2.3-.4-.1-.6-.2-1.5-.2-2.6v-3.5c0-1.2,0-2,.2-2.6,0-.2,0-.4-.3-.4h-2.3c-.2,0-.3.2-.2.4.1.4.1.9.1,1.6v1.1c0,.2-.2.4-.4.4h-1.8c-.2,0-.4-.2-.4-.4v-1.1c0-.8,0-1.3.1-1.6,0-.2,0-.4-.2-.4h-2.3c-.2,0-.3.2-.3.4.1.5.1,1.4.1,2.6ZM36.7,8.9c0-3.1,2-4.9,4.6-4.9s4.5,1.9,4.5,4.9c0,3.1-2,5-4.5,5-2.6,0-4.6-1.9-4.6-5ZM39.3,8.9c0,1.7.8,2.6,1.9,2.6s2-.9,2-2.6-.9-2.6-2-2.6c-1.1.1-1.9,1-1.9,2.6ZM47.4,13.5c.5.2,1.2.4,2,.4,1.8,0,3.1-1.2,3.1-2.9,0-1.2-.4-1.9-1.3-2.6-.8-.6-1.3-.9-1.3-1.4,0-.4.3-.7.8-.7.3,0,.6.1.9.2.2.1.3.2.3.2,0,0,.1-.1.1-.3l.3-1.6c0-.2-.1-.4-.3-.5-.4-.2-.9-.3-1.4-.3-2,0-3.3,1.2-3.3,2.9,0,1.2.5,1.8,1.3,2.5.7.6,1.4.9,1.4,1.5,0,.4-.3.7-.8.7-.4,0-.9-.2-1.3-.6-.2-.2-.2-.3-.3-.3,0,0-.1.2-.1.4l-.3,1.9c-.1.2,0,.4.2.5ZM54.3,6.6c.3-.1.7-.1,1.4-.1h.2c.1,0,.1.1.1.4v3.8c0,1.2,0,2-.2,2.6,0,.2.1.4.3.4h2.2c.2,0,.3-.2.3-.4-.1-.6-.2-1.5-.2-2.6v-3.8c0-.2.1-.4.2-.4h.2c.7,0,1.1,0,1.4.1.2,0,.3,0,.3-.2v-1.8c0-.2-.2-.4-.4-.4h-5.8c-.2,0-.4.2-.4.4v1.8c.1.2.2.2.4.2ZM12.7,22.2v-3.5c0-1.2,0-2-.2-2.6,0-.2.1-.4.3-.4h3.2c2.7,0,4.2,1.5,4.2,4.7,0,2.9-1.5,4.7-4.2,4.7h-3.1c-.2,0-.3-.2-.3-.4.1-.4.1-1.3.1-2.5ZM15.2,22.6c0,.2.2.4.4.4h.4c1.1,0,1.8-.8,1.8-2.5s-.7-2.5-1.8-2.5h-.4c-.2,0-.4.2-.4.4v4.2ZM28.5,24.9q.1.2-.1.2h-2.4c-.2,0-.3-.2-.3-.4s-.1-.4-.2-.9l-.5-1.3c0-.2-.3-.4-.5-.4h-.3c-.2,0-.4.2-.4.4v.7c0,.8,0,1.3.1,1.6,0,.2,0,.4-.2.4h-2.3c-.2,0-.3-.2-.3-.4.1-.6.2-1.5.2-2.6v-3.5c0-1.2,0-2-.2-2.6,0-.2.1-.4.3-.4h3.7c2,0,3.3,1,3.3,3.2,0,1.1-.4,2-1,2.5-.2.1-.2.4-.2.6l.7,1.8c.3.6.5.9.6,1.1ZM26,19c0-.7-.4-1.1-1.1-1.1h-.7c-.2,0-.4.2-.4.4v1.4c0,.2.2.4.4.4h.7c.7,0,1.1-.4,1.1-1.1ZM37.6,24.9c.1.2.1.3-.1.3h-2.4c-.2,0-.3-.2-.3-.4s0-.4-.1-.7v-.3c0-.2-.2-.3-.4-.3h-1.5c-.2,0-.4.1-.4.3v1c0,.2-.1.4-.3.4h-2.4c-.2,0-.2-.1-.1-.3.1-.2.2-.5.3-1l2.2-7.8c0-.2.3-.4.5-.4h2.2c.2,0,.4.2.5.4l2.2,7.9c0,.4,0,.7.1.9ZM34.2,21.4l-.6-2.7c0-.2-.1-.4-.1-.4,0,0-.1.2-.1.4l-.6,2.7c0,.2.1.4.3.4h.7c.3,0,.4-.2.4-.4ZM45.8,20.2h-2c-.2,0-.3.2-.3.4v2c0,.2-.2.4-.4.5-.2,0-.3.1-.5.1-1.1,0-2.2-.9-2.2-2.6s1.1-2.6,2.5-2.6c.7,0,1.3.2,1.9.5.2.1.3.2.4.2,0,0,.1-.2.1-.4l.3-1.7c0-.2-.1-.4-.3-.5-.7-.3-1.6-.5-2.5-.5-2.8,0-4.9,1.7-4.9,4.9s2.2,4.9,4.8,4.9c1.2,0,2.3-.4,3.1-1.1.2-.1.3-.4.3-.7v-3.1c0-.2-.1-.3-.3-.3ZM47,20.5c0-3.1,2-4.9,4.5-4.9,2.6,0,4.5,1.9,4.5,4.9,0,3.1-2,5-4.5,5-2.5-.1-4.5-2-4.5-5ZM49.6,20.5c0,1.7.8,2.6,1.9,2.6s2-.9,2-2.6-.9-2.6-2-2.6c-1,0-1.9.9-1.9,2.6ZM63.4,25.2h1.8c.2,0,.3-.2.3-.4-.1-.6-.2-1.5-.2-2.6v-3.5c0-1.2,0-2,.2-2.6,0-.2-.1-.4-.3-.4h-2.3c-.2,0-.3.2-.2.4.1.4.1.9.1,1.6v3.4s-.1-.1-.2-.3c-.1-.2-.2-.3-.2-.3l-2.4-4.4c-.1-.2-.3-.3-.6-.3h-1.8c-.2,0-.3.2-.3.4.1.6.2,1.5.2,2.6v3.5c0,1.2,0,2-.2,2.6,0,.2.1.4.3.4h2.3c.2,0,.3-.2.2-.4-.1-.4-.1-.9-.1-1.6v-3.1s.1.1.2.3c.1.2.2.3.2.3l2.4,4.2c.1.1.4.2.6.2ZM16.7,27.3h-5.4c-.2,0-.3.2-.3.4.1.6.2,1.5.2,2.6v3.5c0,1.2,0,2-.2,2.6,0,.2.1.4.3.4h5.4c.2,0,.4-.2.4-.4v-1.8c0-.2-.2-.3-.3-.2-.3.1-.8.1-1.4.1h-1.3c-.2,0-.4-.2-.4-.4v-.9c0-.2.2-.4.4-.4h2.1c.2,0,.4-.1.4-.3v-1.4c0-.2-.2-.3-.4-.3h-2.1c-.2,0-.4-.2-.4-.4v-.8c0-.2.2-.4.4-.4h1.3c.7,0,1.1,0,1.4.1.2,0,.3,0,.3-.2v-1.8c-.1.2-.2,0-.4,0ZM27,35.9l-2.2-3.4c-.1-.2-.1-.4,0-.7l2.2-3.5c.2-.4.4-.6.6-.7.2-.2.1-.2-.1-.2h-2.6c-.2,0-.3.2-.4.4,0,.2-.2.4-.3.6l-.8,1.5c-.1.2-.2.3-.2.3,0,0-.1-.2-.2-.3l-.8-1.5c-.1-.2-.2-.4-.3-.6-.1-.2-.2-.4-.4-.4h-2.7c-.2,0-.2.1-.1.2.2.2.4.4.6.8l2.2,3.4c.1.2.1.4,0,.7l-2.1,3.4c-.2.4-.4.7-.6.9s-.1.2.1.2h2.7c.2,0,.3-.2.4-.4,0-.2.2-.3.3-.6l.8-1.5c.1-.2.2-.3.2-.3,0,0,.1.2.2.3l.9,1.5.3.6c.1.2.2.4.4.4h2.6c.2,0,.2-.1.1-.2-.4-.4-.6-.6-.8-.9ZM36.5,30.6c0,2.1-1.3,3.3-3.3,3.3h-1c-.2,0-.4.2-.4.4v.5c0,.8,0,1.3.1,1.6,0,.2,0,.4-.2.4h-2.2c-.2,0-.3-.2-.3-.4.1-.6.2-1.5.2-2.6v-3.5c0-1.2,0-2-.2-2.6,0-.2.1-.4.3-.4h3.7c2,0,3.3,1.1,3.3,3.3ZM34.1,30.6c0-.7-.4-1.1-1.2-1.1h-.6c-.2,0-.4.2-.4.4v1.5c0,.2.2.4.4.4h.6c.8-.1,1.2-.4,1.2-1.2ZM45.2,36.6q.1.2-.1.2h-2.4c-.2,0-.3-.2-.3-.4s-.1-.5-.2-.9l-.4-1.4c0-.2-.3-.4-.5-.4h-.3c-.2,0-.4.2-.4.4v.7c0,.8,0,1.3.1,1.6,0,.2,0,.4-.2.4h-2.3c-.2,0-.3-.2-.3-.4.1-.6.1-1.4.1-2.6v-3.5c0-1.2,0-2-.2-2.6,0-.2.1-.4.3-.4h3.7c2,0,3.3,1,3.3,3.2,0,1.1-.4,2-1,2.5-.2.1-.2.4-.2.6l.7,1.8c.3.5.5,1,.6,1.2ZM42.8,30.6c0-.7-.4-1.1-1.1-1.1h-.7c-.2,0-.4.2-.4.4v1.4c0,.2.2.4.4.4h.7c.6,0,1.1-.4,1.1-1.1ZM52.5,27.3h-5.4c-.2,0-.3.2-.3.4.1.6.2,1.5.2,2.6v3.5c0,1.2,0,2-.2,2.6,0,.2.1.4.3.4h5.4c.2,0,.4-.2.4-.4v-1.8c0-.2-.2-.3-.3-.2-.3.1-.8.1-1.4.1h-1.3c-.2,0-.4-.2-.4-.4v-.9c0-.2.2-.4.4-.4h2.1c.2,0,.4-.1.4-.3v-1.4c0-.2-.2-.3-.4-.3h-2.1c-.2,0-.4-.2-.4-.4v-.8c0-.2.2-.4.4-.4h1.3c.7,0,1.1,0,1.4.1.2,0,.3,0,.3-.2v-1.8c0,.2-.2,0-.4,0ZM58.6,31.5c-.8-.6-1.3-.9-1.3-1.4,0-.4.3-.7.8-.7.3,0,.6.1.9.2.2.1.3.2.3.2,0,0,.1-.2.1-.4l.3-1.6c0-.2-.1-.4-.3-.5-.4-.2-.9-.2-1.5-.2-2,0-3.3,1.2-3.3,2.9,0,1.2.5,1.8,1.3,2.5.7.6,1.4.9,1.4,1.5,0,.4-.3.7-.8.7-.4,0-.9-.2-1.3-.6-.2-.2-.2-.3-.3-.3,0,0-.1.2-.1.4l-.4,1.8c0,.2.1.4.2.5.5.2,1.2.4,2,.4,1.8,0,3.1-1.2,3.1-2.9.3-1.1-.1-1.8-1.1-2.5ZM65.6,31.5c-.8-.6-1.3-.9-1.3-1.4,0-.4.3-.7.8-.7.3,0,.6.1.9.2.2.1.3.2.3.2,0,0,.1-.2.1-.4l.3-1.6c0-.2-.1-.4-.3-.5-.4-.2-.9-.2-1.5-.2-2,0-3.3,1.2-3.3,2.9,0,1.2.5,1.8,1.3,2.5.7.6,1.4.9,1.4,1.5,0,.4-.3.7-.8.7-.4,0-.9-.2-1.3-.6-.2-.2-.2-.3-.3-.3,0,0-.1.2-.1.4l-.4,1.8c0,.2.1.4.2.5.5.2,1.2.4,2,.4,1.8,0,3.1-1.2,3.1-2.9.3-1.1-.2-1.8-1.1-2.5Z"/>
</svg>