<?xml version="1.0" encoding="utf-8"?>
<!-- Generator: Adobe Illustrator 26.0.2, SVG Export Plug-In . SVG Version: 6.00 Build 0)  -->
<svg version="1.1" id="Layer_1" xmlns="http://www.w3.org/2000/svg" xmlns:xlink="http://www.w3.org/1999/xlink" x="0px" y="0px"
	 width="78px" height="42px" viewBox="0 0 78 42" style="enable-background:new 0 0 78 42;" xml:space="preserve">
<style type="text/css">
	.st0{fill:#FFFFFF;}
</style>
<path class="st0" d="M17.4,8.9c0-3.2,2.2-4.9,4.9-4.9c1,0,1.8,0.2,2.5,0.5c0.2,0.1,0.3,0.3,0.3,0.5l-0.3,1.7c0,0.2-0.1,0.4-0.1,0.4
	c0,0-0.2-0.1-0.4-0.2c-0.5-0.4-1.2-0.5-1.9-0.5C21.1,6.4,20,7.3,20,9c0,1.8,1.1,2.6,2.2,2.6c0.2,0,0.4,0,0.5-0.1
	c0.2,0,0.4-0.3,0.4-0.5v-0.6c0-0.6,0-1.1,0-1.4c0-0.2,0.1-0.4,0.3-0.4h2c0.2,0,0.3,0.2,0.3,0.4c0,0.3,0,0.8,0,1.3v1.8
	c0,0.2-0.1,0.5-0.3,0.7c-0.8,0.7-1.9,1.1-3.1,1.1C19.6,13.9,17.4,12.1,17.4,8.9z M27.4,7.2v4.5c0,0.8,0,1.3-0.1,1.6
	c0,0.2,0,0.4,0.2,0.4h2.3c0.2,0,0.3-0.2,0.2-0.4C30,13,30,12.5,30,11.7v-1.5c0-0.2,0.2-0.4,0.4-0.4h1.8c0.2,0,0.4,0.2,0.4,0.4v1.5
	c0,0.8,0,1.3-0.1,1.6c0,0.2,0,0.4,0.2,0.4h2.3c0.2,0,0.3-0.2,0.3-0.4c-0.1-0.6-0.2-1.5-0.2-2.6V7.2c0-1.2,0-2,0.2-2.6
	c0-0.2,0-0.4-0.3-0.4h-2.3c-0.2,0-0.3,0.2-0.2,0.4c0.1,0.4,0.1,0.9,0.1,1.6v1.1c0,0.2-0.2,0.4-0.4,0.4h-1.8c-0.2,0-0.4-0.2-0.4-0.4
	V6.2c0-0.8,0-1.3,0.1-1.6c0-0.2,0-0.4-0.2-0.4h-2.3c-0.2,0-0.3,0.2-0.3,0.4C27.4,5.1,27.4,6,27.4,7.2z M36.7,8.9
	c0-3.1,2-4.9,4.6-4.9c2.6,0,4.5,1.9,4.5,4.9c0,3.1-2,5-4.5,5C38.7,13.9,36.7,12,36.7,8.9z M39.3,8.9c0,1.7,0.8,2.6,1.9,2.6
	c1.1,0,2-0.9,2-2.6c0-1.7-0.9-2.6-2-2.6C40.1,6.4,39.3,7.3,39.3,8.9z M47.4,13.5c0.5,0.2,1.2,0.4,2,0.4c1.8,0,3.1-1.2,3.1-2.9
	c0-1.2-0.4-1.9-1.3-2.6c-0.8-0.6-1.3-0.9-1.3-1.4c0-0.4,0.3-0.7,0.8-0.7c0.3,0,0.6,0.1,0.9,0.2c0.2,0.1,0.3,0.2,0.3,0.2
	S52,6.6,52,6.4l0.3-1.6c0-0.2-0.1-0.4-0.3-0.5C51.6,4.1,51.1,4,50.6,4c-2,0-3.3,1.2-3.3,2.9c0,1.2,0.5,1.8,1.3,2.5
	c0.7,0.6,1.4,0.9,1.4,1.5c0,0.4-0.3,0.7-0.8,0.7c-0.4,0-0.9-0.2-1.3-0.6c-0.2-0.2-0.2-0.3-0.3-0.3c0,0-0.1,0.2-0.1,0.4L47.2,13
	C47.1,13.2,47.2,13.4,47.4,13.5z M54.3,6.6c0.3-0.1,0.7-0.1,1.4-0.1h0.2C56,6.5,56,6.6,56,6.9v3.8c0,1.2,0,2-0.2,2.6
	c0,0.2,0.1,0.4,0.3,0.4h2.2c0.2,0,0.3-0.2,0.3-0.4c-0.1-0.6-0.2-1.5-0.2-2.6V6.9c0-0.2,0.1-0.4,0.2-0.4s0.2,0,0.2,0
	c0.7,0,1.1,0,1.4,0.1c0.2,0,0.3,0,0.3-0.2V4.6c0-0.2-0.2-0.4-0.4-0.4h-5.8c-0.2,0-0.4,0.2-0.4,0.4v1.8C54,6.6,54.1,6.6,54.3,6.6z
	 M12.7,22.2v-3.5c0-1.2,0-2-0.2-2.6c0-0.2,0.1-0.4,0.3-0.4H16c2.7,0,4.2,1.5,4.2,4.7c0,2.9-1.5,4.7-4.2,4.7h-3.1
	c-0.2,0-0.3-0.2-0.3-0.4C12.7,24.3,12.7,23.4,12.7,22.2z M15.2,22.6c0,0.2,0.2,0.4,0.4,0.4H16c1.1,0,1.8-0.8,1.8-2.5
	c0-1.7-0.7-2.5-1.8-2.5c0,0-0.2,0-0.4,0c-0.2,0-0.4,0.2-0.4,0.4V22.6z M28.5,24.9c0.1,0.2,0.1,0.2-0.1,0.2H26
	c-0.2,0-0.3-0.2-0.3-0.4c0-0.2-0.1-0.4-0.2-0.9L25,22.5c0-0.2-0.3-0.4-0.5-0.4h-0.3c-0.2,0-0.4,0.2-0.4,0.4v0.7c0,0.8,0,1.3,0.1,1.6
	c0,0.2,0,0.4-0.2,0.4h-2.3c-0.2,0-0.3-0.2-0.3-0.4c0.1-0.6,0.2-1.5,0.2-2.6v-3.5c0-1.2,0-2-0.2-2.6c0-0.2,0.1-0.4,0.3-0.4h3.7
	c2,0,3.3,1,3.3,3.2c0,1.1-0.4,2-1,2.5c-0.2,0.1-0.2,0.4-0.2,0.6l0.7,1.8C28.2,24.4,28.4,24.7,28.5,24.9z M26,19
	c0-0.7-0.4-1.1-1.1-1.1h-0.7c-0.2,0-0.4,0.2-0.4,0.4v1.4c0,0.2,0.2,0.4,0.4,0.4h0.7C25.6,20.1,26,19.7,26,19z M37.6,24.9
	c0.1,0.2,0.1,0.3-0.1,0.3h-2.4c-0.2,0-0.3-0.2-0.3-0.4c0-0.2,0-0.4-0.1-0.7c0,0,0-0.1,0-0.3c0-0.2-0.2-0.3-0.4-0.3h-1.5
	c-0.2,0-0.4,0.1-0.4,0.3l0,0.3c0,0.3,0,0.5,0,0.7c0,0.2-0.1,0.4-0.3,0.4h-2.4c-0.2,0-0.2-0.1-0.1-0.3c0.1-0.2,0.2-0.5,0.3-1l2.2-7.8
	c0-0.2,0.3-0.4,0.5-0.4h2.2c0.2,0,0.4,0.2,0.5,0.4l2.2,7.9C37.5,24.4,37.5,24.7,37.6,24.9z M34.2,21.4l-0.6-2.7
	c0-0.2-0.1-0.4-0.1-0.4c0,0-0.1,0.2-0.1,0.4l-0.6,2.7c0,0.2,0.1,0.4,0.3,0.4h0.7C34.1,21.8,34.2,21.6,34.2,21.4z M45.8,20.2h-2
	c-0.2,0-0.3,0.2-0.3,0.4c0,0.3,0,0.8,0,1.4v0.6c0,0.2-0.2,0.4-0.4,0.5c-0.2,0-0.3,0.1-0.5,0.1c-1.1,0-2.2-0.9-2.2-2.6
	c0-1.7,1.1-2.6,2.5-2.6c0.7,0,1.3,0.2,1.9,0.5c0.2,0.1,0.3,0.2,0.4,0.2c0,0,0.1-0.2,0.1-0.4l0.3-1.7c0-0.2-0.1-0.4-0.3-0.5
	c-0.7-0.3-1.6-0.5-2.5-0.5c-2.8,0-4.9,1.7-4.9,4.9s2.2,4.9,4.8,4.9c1.2,0,2.3-0.4,3.1-1.1c0.2-0.1,0.3-0.4,0.3-0.7v-1.8
	c0-0.6,0-1.1,0-1.3C46.1,20.3,46,20.2,45.8,20.2z M47,20.5c0-3.1,2-4.9,4.5-4.9c2.6,0,4.5,1.9,4.5,4.9c0,3.1-2,5-4.5,5
	C49,25.4,47,23.5,47,20.5z M49.6,20.5c0,1.7,0.8,2.6,1.9,2.6c1.1,0,2-0.9,2-2.6c0-1.7-0.9-2.6-2-2.6C50.5,17.9,49.6,18.8,49.6,20.5z
	 M63.4,25.2h1.8c0.2,0,0.3-0.2,0.3-0.4c-0.1-0.6-0.2-1.5-0.2-2.6v-3.5c0-1.2,0-2,0.2-2.6c0-0.2-0.1-0.4-0.3-0.4h-2.3
	c-0.2,0-0.3,0.2-0.2,0.4c0.1,0.4,0.1,0.9,0.1,1.6v2.8v0.3c0,0.2,0,0.3,0,0.3s-0.1-0.1-0.2-0.3c-0.1-0.2-0.2-0.3-0.2-0.3L60,16.1
	c-0.1-0.2-0.3-0.3-0.6-0.3h-1.8c-0.2,0-0.3,0.2-0.3,0.4c0.1,0.6,0.2,1.5,0.2,2.6v3.5c0,1.2,0,2-0.2,2.6c0,0.2,0.1,0.4,0.3,0.4h2.3
	c0.2,0,0.3-0.2,0.2-0.4c-0.1-0.4-0.1-0.9-0.1-1.6v-2.5v-0.3c0-0.2,0-0.3,0-0.3c0,0,0.1,0.1,0.2,0.3c0.1,0.2,0.2,0.3,0.2,0.3l2.4,4.2
	C62.9,25.1,63.2,25.2,63.4,25.2z M16.7,27.3h-5.4c-0.2,0-0.3,0.2-0.3,0.4c0.1,0.6,0.2,1.5,0.2,2.6v3.5c0,1.2,0,2-0.2,2.6
	c0,0.2,0.1,0.4,0.3,0.4h5.4c0.2,0,0.4-0.2,0.4-0.4v-1.8c0-0.2-0.2-0.3-0.3-0.2c-0.3,0.1-0.8,0.1-1.4,0.1h-1.3
	c-0.2,0-0.4-0.2-0.4-0.4v-0.9c0-0.2,0.2-0.4,0.4-0.4h0.8c0.6,0,1,0,1.3,0c0.2,0,0.4-0.1,0.4-0.3v-1.4c0-0.2-0.2-0.3-0.4-0.3
	c-0.3,0-0.7,0-1.3,0h-0.8c-0.2,0-0.4-0.2-0.4-0.4v-0.8c0-0.2,0.2-0.4,0.4-0.4h1.3c0.7,0,1.1,0,1.4,0.1c0.2,0,0.3,0,0.3-0.2v-1.8
	C17,27.5,16.9,27.3,16.7,27.3z M27,35.9l-2.2-3.4c-0.1-0.2-0.1-0.4,0-0.7l2.2-3.5c0.2-0.4,0.4-0.6,0.6-0.7c0.2-0.2,0.1-0.2-0.1-0.2
	h-2.6c-0.2,0-0.3,0.2-0.4,0.4c0,0.2-0.2,0.4-0.3,0.6l-0.8,1.5c-0.1,0.2-0.2,0.3-0.2,0.3s-0.1-0.2-0.2-0.3l-0.8-1.5
	c-0.1-0.2-0.2-0.4-0.3-0.6c-0.1-0.2-0.2-0.4-0.4-0.4h-2.7c-0.2,0-0.2,0.1-0.1,0.2c0.2,0.2,0.4,0.4,0.6,0.8l2.2,3.4
	c0.1,0.2,0.1,0.4,0,0.7l-2.1,3.4c-0.2,0.4-0.4,0.7-0.6,0.9c-0.2,0.2-0.1,0.2,0.1,0.2h2.7c0.2,0,0.3-0.2,0.4-0.4
	c0-0.2,0.2-0.3,0.3-0.6l0.8-1.5c0.1-0.2,0.2-0.3,0.2-0.3c0,0,0.1,0.2,0.2,0.3l0.9,1.5c0.1,0.2,0.2,0.4,0.3,0.6
	c0.1,0.2,0.2,0.4,0.4,0.4h2.6c0.2,0,0.2-0.1,0.1-0.2C27.4,36.4,27.2,36.2,27,35.9z M36.5,30.6c0,2.1-1.3,3.3-3.3,3.3h-1
	c-0.2,0-0.4,0.2-0.4,0.4v0.5c0,0.8,0,1.3,0.1,1.6c0,0.2,0,0.4-0.2,0.4h-2.2c-0.2,0-0.3-0.2-0.3-0.4c0.1-0.6,0.2-1.5,0.2-2.6v-3.5
	c0-1.2,0-2-0.2-2.6c0-0.2,0.1-0.4,0.3-0.4h3.7C35.2,27.3,36.5,28.4,36.5,30.6z M34.1,30.6c0-0.7-0.4-1.1-1.2-1.1h-0.6
	c-0.2,0-0.4,0.2-0.4,0.4v1.5c0,0.2,0.2,0.4,0.4,0.4h0.6C33.7,31.7,34.1,31.4,34.1,30.6z M45.2,36.6c0.1,0.2,0.1,0.2-0.1,0.2h-2.4
	c-0.2,0-0.3-0.2-0.3-0.4c0-0.2-0.1-0.5-0.2-0.9l-0.4-1.4c0-0.2-0.3-0.4-0.5-0.4h-0.3c-0.2,0-0.4,0.2-0.4,0.4v0.7
	c0,0.8,0,1.3,0.1,1.6c0,0.2,0,0.4-0.2,0.4h-2.3c-0.2,0-0.3-0.2-0.3-0.4C38,35.8,38,35,38,33.8v-3.5c0-1.2,0-2-0.2-2.6
	c0-0.2,0.1-0.4,0.3-0.4h3.7c2,0,3.3,1,3.3,3.2c0,1.1-0.4,2-1,2.5c-0.2,0.1-0.2,0.4-0.2,0.6l0.7,1.8C44.9,35.9,45.1,36.4,45.2,36.6z
	 M42.8,30.6c0-0.7-0.4-1.1-1.1-1.1H41c-0.2,0-0.4,0.2-0.4,0.4v1.4c0,0.2,0.2,0.4,0.4,0.4h0.7C42.3,31.7,42.8,31.3,42.8,30.6z
	 M52.5,27.3h-5.4c-0.2,0-0.3,0.2-0.3,0.4c0.1,0.6,0.2,1.5,0.2,2.6v3.5c0,1.2,0,2-0.2,2.6c0,0.2,0.1,0.4,0.3,0.4h5.4
	c0.2,0,0.4-0.2,0.4-0.4v-1.8c0-0.2-0.2-0.3-0.3-0.2c-0.3,0.1-0.8,0.1-1.4,0.1h-1.3c-0.2,0-0.4-0.2-0.4-0.4v-0.9
	c0-0.2,0.2-0.4,0.4-0.4h0.8c0.6,0,1,0,1.3,0c0.2,0,0.4-0.1,0.4-0.3v-1.4c0-0.2-0.2-0.3-0.4-0.3c-0.3,0-0.7,0-1.3,0h-0.8
	c-0.2,0-0.4-0.2-0.4-0.4v-0.8c0-0.2,0.2-0.4,0.4-0.4h1.3c0.7,0,1.1,0,1.4,0.1c0.2,0,0.3,0,0.3-0.2v-1.8
	C52.9,27.5,52.7,27.3,52.5,27.3z M58.6,31.5c-0.8-0.6-1.3-0.9-1.3-1.4c0-0.4,0.3-0.7,0.8-0.7c0.3,0,0.6,0.1,0.9,0.2
	c0.2,0.1,0.3,0.2,0.3,0.2s0.1-0.2,0.1-0.4l0.3-1.6c0-0.2-0.1-0.4-0.3-0.5c-0.4-0.2-0.9-0.2-1.5-0.2c-2,0-3.3,1.2-3.3,2.9
	c0,1.2,0.5,1.8,1.3,2.5c0.7,0.6,1.4,0.9,1.4,1.5c0,0.4-0.3,0.7-0.8,0.7c-0.4,0-0.9-0.2-1.3-0.6c-0.2-0.2-0.2-0.3-0.3-0.3
	c0,0-0.1,0.2-0.1,0.4l-0.4,1.8c0,0.2,0.1,0.4,0.2,0.5c0.5,0.2,1.2,0.4,2,0.4c1.8,0,3.1-1.2,3.1-2.9C60,32.9,59.6,32.2,58.6,31.5z
	 M65.6,31.5c-0.8-0.6-1.3-0.9-1.3-1.4c0-0.4,0.3-0.7,0.8-0.7c0.3,0,0.6,0.1,0.9,0.2c0.2,0.1,0.3,0.2,0.3,0.2c0,0,0.1-0.2,0.1-0.4
	l0.3-1.6c0-0.2-0.1-0.4-0.3-0.5c-0.4-0.2-0.9-0.2-1.5-0.2c-2,0-3.3,1.2-3.3,2.9c0,1.2,0.5,1.8,1.3,2.5c0.7,0.6,1.4,0.9,1.4,1.5
	c0,0.4-0.3,0.7-0.8,0.7c-0.4,0-0.9-0.2-1.3-0.6c-0.2-0.2-0.2-0.3-0.3-0.3c0,0-0.1,0.2-0.1,0.4l-0.4,1.8c0,0.2,0.1,0.4,0.2,0.5
	c0.5,0.2,1.2,0.4,2,0.4c1.8,0,3.1-1.2,3.1-2.9C67,32.9,66.5,32.2,65.6,31.5z"/>
</svg>
