<?xml version="1.0" encoding="UTF-8"?>
<svg id="Layer_1" xmlns="http://www.w3.org/2000/svg" version="1.1" viewBox="0 0 101 42">
  <!-- Generator: Adobe Illustrator 29.5.0, SVG Export Plug-In . SVG Version: 2.1.0 Build 137)  -->
  <defs>
    <style>
      .st0 {
        fill: #4f2c1d;
        fill-rule: evenodd;
      }
    </style>
  </defs>
  <path class="st0" d="M80.6,27.4c.2,0,.1,0,.2.2-.2.1-.2.4-.4.5-.1.1-.4.2-.5.2v-.1c.1-.2.6-.6.7-.8ZM77.5,27.7q.1,0,.1.2c-.1.1-.2.1-.3.2h-.1v-.1c.1-.1.2-.2.3-.3ZM80,21.8c.1,0,.2.1.2.3-.2.1-.4.2-.4.6-.1.1-.1.2-.3.3h0c-.1-.1-.1-.3-.1-.5.1-.1.1-.2.1-.3.2-.1.4-.3.5-.4ZM73,34.4c.1,0,.1.1.2.1,0,.1,0,0-.1.1,0,0-.2-.2-.1,0h-.1l-.1-.1.2-.1q0-.1,0,0ZM72.1,33.6c-.1,0,.2-.2.3-.1-.1.1-.2,0-.3.1ZM72.3,30.7c0-.2.4-.1.4,0-.2,0-.3-.1-.4,0ZM72.2,28.7c.2,0,.2.2.4.4-.1-.1-.3-.3-.4-.4ZM72,29s0,.1-.1.2l-.1-.1c.2,0,.3-.3.2-.1q.1,0,0,0ZM71.9,26.1c.1-.1.1,0,.2.1,0-.1-.3-.2-.1-.3.2.2.1-.1.2-.1.1.1,0,.1-.1.3h.2c0,.2-.3.1-.2.2-.1-.2,0,0-.2-.2ZM72.1,25.7c-.1,0-.1-.1-.1-.1-.3-.2,0,0,.1.1ZM72.1,25.1c.2,0,.4.4.6.4q-.1.1-.2.1c-.1-.1-.1-.2-.2-.3-.1,0,0,.1,0,.1-.2,0-.1-.2-.2-.3ZM77.6,28.5c0,.1-.3,0-.2.1.1,0,.3.1.2-.1ZM72.3,34.1h0c0,.2.1-.1.1-.2h-.2c0,.1.2.2.1.2ZM74.5,34.7c-.1.1-.2-.1-.2,0,0,.2.2.1.2,0ZM76.2,29.6c.1.1.1.2.2.3.1-.1.2-.1.3-.2-.1-.1-.2-.3-.4-.3.2.2,0,.1-.1.2ZM76.7,29.1c.1.1.2.2.2.4.2-.2.4-.2.6-.1q0-.1-.1-.2h-.4c-.1-.1.1-.3-.1-.4-.2,0-.3.3-.3,0,0,.1-.2.2-.2.3.2.1.2,0,.3,0ZM77.8,27.5s0-.1,0,0h0c.2-.1.3.1.3,0-.1-.1-.5-.1-.3,0ZM71.8,34.7c.2-.1.1.2.4.2,0-.2.2,0,.4-.1-.1-.1-.2-.1-.3-.2l-.1.1c-.1-.1-.2-.2-.3-.3q-.1.2-.1.3ZM71.5,34.9c.1.1.4.1.4-.1-.1.1-.1-.1-.3-.2-.1.1.1.2-.1.3ZM76,29.7v.2c.1.1.2,0,.3,0,0-.1-.3-.2-.1-.3-.2-.1-.3.1-.5,0,.1,0-.1.3.1.3-.1-.1.1,0,.1,0,.1-.1-.1-.3.1-.2ZM75.4,30c-.1-.1-.1-.3-.2-.2.1.1,0,.3.2.2ZM71.3,34.5c.2.3.3,0,0,0h0ZM77.3,27q-.1.2-.2.4.2,0,.3.1v.1c.1.1.2.1.2,0-.2-.1.1,0,0-.2h-.1c.1-.1.1-.2.2-.2-.1.1-.2,0-.4-.2,0,.3.3.2.2.5-.2-.2-.1-.3-.2-.5ZM77.3,28.4c0,.2-.1-.1-.2,0,0,.1-.2.2-.1.3.2-.1.6.2.5.4-.1,0-.1-.1-.2,0,.2,0,.3.1.5,0q-.1-.1-.1-.3c-.2-.2-.4-.1-.6-.2.1-.1.2,0,.3,0-.1-.1,0-.2-.1-.2ZM77.4,27.8c-.1-.1-.1-.3-.3-.3,0,.2-.1.2-.1.4.1-.1.3,0,.5,0,0,0-.1.1,0,.1s.1-.1.2-.1c-.1.2,0,.2.1.3-.2,0-.2-.2-.4-.3,0,.1-.1.1-.1.2.1-.1.4.1.4.2-.1-.1-.2,0-.3-.1,0,.2-.2,0-.1.1s.1-.1.2,0q0,.1-.1.1c.1.2.2,0,.3,0,.1.2.3.1.2.3-.1,0-.2-.2-.2-.1s.2.1.2.2h-.1q.1.1.2.1.2-.3.4-.5c0-.1-.2-.1-.1-.2.2,0,0-.1.2-.1,0-.1-.1-.3.1-.3l-.2-.2-.1.1c0-.1-.1-.1-.2-.2-.1.1-.1,0-.2.1.2,0,.3.1.5.2,0,.1-.1.2-.1.3-.1-.1-.3-.1-.2-.2.1.1.1,0,.1-.1-.2.2-.2,0-.2,0-.1.1-.2,0-.2.1.1.1.2.1.1.2-.1-.1-.1.1-.2,0,.1-.1-.2-.2-.1-.3-.1-.1-.1.1-.2,0ZM73.1,32.4c-.1-.1-.2-.1-.2-.1,0,.2.1.3.2.1ZM70.8,35c0-.1.1,0,.1,0v-.1c0-.2-.1,0-.1.1ZM77.9,26.5c-.1,0-.2-.1-.3,0,.1.1.2,0,.3,0ZM71,34.8c.1-.1.1-.2,0-.3,0,.1-.1.1-.1.1.1.1,0,.1.1.2ZM78.2,26.3c-.1.1,0,.1,0,0q0,.1-.1.2c.1.1.2,0,.2,0,.1.1-.1.4.1.3-.1,0-.1-.2,0-.2v.4c-.3-.2-.6-.6-.9-.2.1.1-.1.1,0,.2.1-.3.3-.3.5-.2q0,.1-.1.2c-.1,0-.2-.2-.2-.1.1.3-.3,0-.4.1l.2.2c.1,0,.3,0,.3-.2.1.1.2,0,.2,0-.1.2-.4,0-.2.2.3-.2.3.2.3.4.2-.1,0-.2.1-.3.1,0,0,.1.2.1l-.2.2c.3.2.1-.3.3-.2,0-.2-.2-.1-.2-.1v-.1c.2.1.1-.3.3-.2,0-.1,0,0-.1-.1.1-.2.2-.5-.1-.5.2,0,0-.1.2-.2q0-.1-.1-.2c-.3.1-.5.1-.9,0v.2c.3-.2.4.3.6.1ZM77.4,26.3c-.1.2.1.3,0,.5.2-.1.1-.4,0-.5.1,0,.1.1,0,0,0,0,.1,0,0,0ZM72.6,33c-.1.1-.1,0-.2,0,.1.1-.2.3-.1.4-.1-.1-.4,0-.3.1h-.2c0-.1.1-.1,0-.2-.1.2-.2,0-.3.1l.1.1c-.1,0-.1-.2-.2-.1.2.1-.1,0-.1.1.1.2-.1.4,0,.6.1.2.3.2.3.4,0,0,0-.1.1-.1.2.1.7.3.8.3-.2,0-.2-.2-.3-.4-.1.1-.2.2-.3.2.1-.1,0-.3-.1-.3v.3c-.1-.1.1-.2-.2-.3.2,0,0-.3.1-.3.1.1,0,.1,0,.2.2-.1,0-.1.1-.3.2.1,0,.3.2.3.1-.1-.1-.1,0-.2.3-.1.6.1.6.4-.1,0-.1-.1-.2-.1-.1.2-.2,0-.2.1.1.1.2,0,.4.1,0,.1.1.2.1.3,0-.2-.2,0-.1.1.1,0,.1.1.2.1v-.6h.1c0,.3.1.3.2.6.2.1.4,0,.6.1q.1-.1.1-.2v.1c.1-.1.1,0,.2-.1-.1-.2-.3-.2-.5-.3-.1.1,0,.1,0,.2h-.1c.1-.2-.1-.2-.1-.3,0,0,.1.1.1,0-.3-.2-.3-.5-.7-.5-.1,0,0,.2-.1.2-.1-.1-.2-.3-.3-.2v-.2c.1,0,.2.1.3.2,0-.2.3-.1.4-.2-.2-.1,0-.1.1-.1,0-.1-.1-.2-.1-.3.1,0,.2-.4,0-.3,0,.1.1.1,0,.2-.2.1-.3,0-.4-.1,0,0,0,.1-.1.1.1.1.2.2.3.1.1,0,0,.1,0,.2-.3-.2-.3-.5-.2-.5ZM71.7,33.3c-.1,0-.2-.2-.3-.2.1.1.2.3.3.2ZM70.7,35c0-.1.1-.1,0,0q.1-.1,0-.2c-.2.1-.4-.3-.6,0v.1c.1.1.1,0,.2.1.1-.1,0-.1.1-.2q.2,0,.3.2ZM73.2,27.8c-.1,0,0-.1-.1-.1,0,0-.1,0-.1.1s.1.1.2,0ZM72.9,27.7c-.1-.1-.2-.1-.3,0,.1.2.2,0,.3,0ZM76.3,24.2c-.3-.2-.9-.4-1.3-.3.2.2.1.2,0,.3.5.3.5.1.8,0-.1.3,0,.1.2.2,0,.1-.2.1-.1.2.2,0,0,.2.3.2.1-.1,0-.2.2-.2-.1.2,0,.1.2.1,0,.1-.1.1-.1.1.1.2.2,0,.3,0,0,.1.1.1.1.1q-.1,0-.1.1c.1.1.2,0,.2,0v.1c.1-.2,0-.3.1-.4.2,0,.3.2.4.4q-.1-.1-.2,0c.1.1-.1.2-.1.2.1-.1.1.1.1.2h-.2c.2,0,.2.2,0,.1.1.2.2.3.3.5,0,0,.2,0,.2-.1q-.1.1-.2,0c0-.2-.2-.3-.1-.5.1,0,.1.1.2.1-.1.1,0,.3,0,.2v-.1c.1,0,.3,0,.3.1-.1-.1.1-.1,0-.2h.2c-.1.1,0,.1-.1.2.1.1.2.1,0,.2.1.1.2.1.2,0v-.1c.1.1.2,0,.3-.1-.1-.2-.2-.2-.3-.3q0-.2.1-.3c-.2-.1-.4-.2-.6-.1.2-.2-.1-.3.1-.4-.3,0-.4-.4-.5-.1-.2-.1-.2-.2-.1-.2,0,.1-.1-.1-.2,0,0,.1.1.1,0,.2q-.1-.1,0-.2c-.2-.2-.4-.3-.6-.2ZM74.5,23.9c0-.1-.2-.1-.2,0,0,0,.1.1.2,0ZM73.1,27.6c-.1,0,.1-.1,0-.2-.1.2-.1-.2-.3-.1.1.2.3.3.3.3ZM72.5,27.1c-.1.1,0,.3.1.4.1-.1,0-.2.1,0,.1-.1.1-.2,0-.2h-.1l-.1.1c.2-.3,0-.2,0-.3ZM70.1,23.9c.1.1,0,.3.2.3,0-.2.1,0,.1.1.1,0,.2-.1.2-.1v.1c.1-.1.2,0,.3,0-.1,0,0-.1,0-.2.1.1.1,0,.2.1,0,.1-.1.1-.1.1.3.3.5.3.6.2-.1.2,0,.5.1.5-.2.3-.2.8.1,1-.1-.1,0-.2.1-.1v.1c-.1.2-.2-.1-.3,0,.1.3-.1.6.3.8-.1.1-.3,0-.4.2.3.5-.1,1.2.2,1.7-.1.1,0,.2,0,.3-.3,0,0,.3-.1.5.1.7.1,1.3-.1,2,.1.1.1.2.3.2-.1.1-.1.2-.2.2,0,.3.1.6.2.8h-.1c.1.1,0,.2.1.3q.1-.1.1-.2c.1,0,0,0,0-.1.2.1.3.1.5.2,0,.2-.5,0-.3.2,0-.1.1,0,.1.1,0,0,.1-.1.1,0,.1-.1.1-.2.2-.3-.1-.1-.1-.2-.1-.3-.1.1-.1-.1-.2,0,0-.2.1-.3,0-.5,0-.1.2-.1.2-.3-.1.1-.1-.1-.1-.2h.2c-.2.1.1.2,0,.4.1-.3.3.1.4,0-.2,0,0,.1,0,.2-.3,0-.3.4-.4.6q.1-.1.1-.2c.1.1.1,0,.1,0,.2,0,0,.1.2.3.1-.1.1-.2.1-.3,0,0,.1.1.1,0l-.1-.1c-.1,0,0,.2-.2.1-.1,0-.1-.1,0-.1l.1.1c.2-.1-.1-.2-.1-.2q.1-.1.2-.2c-.1-.1,0-.1-.1-.3.2.1.1-.2.3-.2-.3-.2,0-.4.1-.6-.2,0-.4-.2-.3-.2-.1.1-.3.1-.3,0,.1,0,.2-.1.3-.2q-.1-.1-.2-.1c.1-.1-.1-.2,0-.3q.1.2.3.4c.1-.4.2-.9,0-1.2h.2c-.1-.2-.2-.3-.2-.5-.1,0-.4-.1-.4-.3.1,0,0-.1.1,0,0,0,0,.2.1.1-.1-.1.2,0,.2,0-.2,0,0-.1-.1-.3.1,0,.2,0,.2-.1-.1-.1-.1,0-.2-.1.2,0,0-.1,0-.2h.2c-.2-.1,0-.2-.2-.3-.1.2-.4-.2-.7-.1,0-.1-.1-.2-.1-.4.1.1.1,0,.2,0-.2-.2-.2-.4-.6-.5,0-.1.2-.1.1-.2-.1.1-.5-.1-.4-.3,0,.2.1-.1.2.1.1-.1,0-.2.1-.2,0,.1.1.2.1.3.4.2-.1,0,0-.2,0,.2.2,0,.4.2-.2.2.1.1.1.2v.1c-.1-.2-.2,0-.4,0,.1.1.3-.1.4.2.1-.1,0-.1,0-.2.1.2.2,0,.2,0v.1c0,.1-.2,0-.2.1,0,0,.1,0,0,.1.1,0,.1.1.2,0,0-.1-.2,0-.1-.1.2,0,.2.1.3.1,0,0-.1.2,0,.1,0-.2,0-.5-.3-.4,0-.1.1-.4,0-.3v.1c-.1-.1-.1,0-.2-.1v-.1c0,.1.2.1.1,0-.1.1-.2-.1-.1-.1.1.1.3.2.2,0-.1.1,0-.1-.1-.1,0,.2-.1-.1-.2,0,.1.1,0,.2-.1.2,0-.2-.4-.2-.3-.4.1-.1.2.1.3,0-.2-.2,0-.2-.3-.3,0-.1.1-.1.1,0,.2.2.4.2.1.5.1.1.2-.1.2.1.2-.1-.1-.1,0-.2h.2q-.1-.1-.1-.2c.1-.1.1,0,.2-.1-.1-.1-.2-.2-.4-.2.1,0,.1-.2.2-.2l.1.1c-.2,0,.2.2.3.1-.2-.1.1-.2-.2-.3-.2.3-.2-.3-.5-.2.1,0,0-.3,0-.4.1,0,.1-.1.2,0-.1.1.2.3.3.2-.1-.2,0-.3.2-.6-.1-.1-.2-.1-.1-.2.2.2.3.2.4,0,0-.1-.1,0-.1-.1.1-.2.2.1.3,0-.1,0-.1-.1,0-.2.1.1.2.1.3.2.1-.1,0-.1.1-.1-1-.1-2-.1-3-.1-.1,0,0,.1-.1.1.3-.1-.2-.2-.4,0ZM71.6,23.5c.1,0,.1-.2.2-.3.1.1.2,0,.3.1.6-.2,1.3,0,1.9-.1,1.5.2,3.1,0,4.5,1.6.3.7.5,1.3.7,2-.1,1-.7,2.4-1.9,3-.4.2-.9.3-1.3.4s-1.4.4-1.5-.2c-.1-.5.6-.6.9-.8.5-.3.7-.8.8-1.1,0-.6-.5-1.2-.6-1.8.1-.5.2-.9.1-1.4-.3-.3-.5-.3-.8-.3-.1.4-.2,1-.7,1.2,0,.4.1,1.1-.5,1.5,0,1.1-.5,2.3-.1,3.5-.1.7,0,1.4.1,2.1-.1.4-.3,1,0,1.3.4.3,1.4-.2,1.6.6,0,.9-.8.5-1.3.5-.3,0-.5.1-.8.1-.1,0-.1-.1-.2-.1-.7-.1-1.4.2-1.9.1-.4.2-.8.2-1.2.1-.5-.5,0-1.2.6-1.2.1-.1-.1-.1,0-.2,0,.1.2.2.3.3.4-.2.4-.5.4-.9-.3-1.4.2-2.9,0-4.4.1-.2,0-.5.1-.7-.2-.3-.1-.7,0-1-.2-.4,0-.9,0-1.3s.1-1.1-.3-1.4c-.3-.2-.8.1-1.1-.1-.3-.2-.4-.6-.3-.8.3-.7,1.2-.3,1.6-.5.1,0,.3.1.4.2ZM60.2,34.8h0c.1,0,.2-.3.3-.1-.1,0-.2.3-.3.1ZM57.9,29.6c-.1-.1.1-.1.1-.2.1.1,0,.2.1.3q-.1,0,0-.1c-.1,0-.2,0-.2,0ZM57.9,29.2c0-.1.2,0,.2-.2.1,0,0,.1.1.1-.2-.1-.1.2,0,.2,0,0,0,.1-.1.2v-.1c0-.1-.1-.1-.2-.2.1,0,0-.1,0,0ZM58.1,27.4c-.1-.1.1-.1.2,0q0-.1.1-.2c.1.1-.1.2.1.3-.1,0-.3-.2-.4-.1ZM65.1,33.3c.1-.1.1,0,.2-.1l-.1-.1s-.1.1-.1,0v-.1c0,.2-.1.3,0,.3ZM65.2,33.6c0-.1-.1-.2-.1-.2-.1.1-.3,0-.2.1,0,0,.1,0,.1.1-.1,0-.1-.1-.2,0,.2,0,.3.1.4,0ZM64.6,33.9c.1,0,.1.1,0,.2-.1,0,0-.1-.2-.1,0,.1-.1.1-.1.2.2,0,.2.1.1.2.2,0,.6-.3.5-.6-.1,0-.1-.1-.3.1ZM63.9,34.3c.1,0-.3.1-.1.3,0-.1.1-.1.1,0-.2.1.1.3.1.2,0-.2.3,0,.4-.3-.1-.1,0-.3-.2-.2.1.1,0,.1,0,.2l-.1-.1c-.1.1,0,.2-.2.2.2-.2.1-.4,0-.3ZM65.2,32.8c.2.1.2.2.4.2q0-.1.1-.2c-.1-.1-.3-.1-.2-.2,0,0,.1-.1.1,0,.1,0,0,.1.1.2,0-.1.1-.1.1-.2-.1-.1-.1-.2-.1-.3-.1.1-.1.2-.2.1-.1.1,0,.2-.1.2.2.1,0,.2,0,.2h-.2ZM63.4,34.9c.1-.2.3-.1.4-.2-.2,0-.2-.2-.3-.3-.1.1.1.1,0,.2-.1-.1-.3-.1-.2,0,0,0,.1-.1.1,0-.1.2-.1.1-.2,0-.1.1-.3-.1-.4.1.1,0,.2.2.2.1-.1-.1.1-.2.1-.1s-.1,0-.1.1c.1,0,.2.2.2.1v-.1c.1.2.2,0,.2.1ZM62.8,35q0-.1-.1-.2s-.1,0-.1.1c0,0,.1.2.2.1ZM59.8,34.9c.3.2.4,0,.6.2.1-.2.2-.1.2-.1l-.1-.1c.1,0,.3.2.4.3.2-.1.3.1.5,0,.1-.1,0-.1.1-.2-.1-.2-.3,0-.3-.2h.2c0,.5.4.3.7.4.2-.2.3,0,.5-.2-.3-.2-.5-.1-.8-.3-.1.1,0,.1,0,.2q-.1,0-.2-.1c0-.1.2,0,0-.1-.2.1-.7,0-1.1-.3-.1.1,0,.1,0,.2-.1,0-.1-.3-.3-.2.2,0,.1.3,0,.1h.1c-.1-.1-.1,0-.2,0,0,0,.1-.2,0-.1-.2,0-.3.4-.3.5ZM66.1,25.6c-.1-.2-.1-.4-.2-.5.1.1.3-.1.3-.2-.1.1-.2-.1-.2-.1.1-.1.2.1.2,0,0-.2.1-.5.2-.6,0,.2.4,0,.5-.2.3.2.4-.1.5-.2-.4.1-1.3-.1-1.1.4l-.1.1c.1-.2-.1-.2-.2-.3-.3.2-.6-.1-.9,0v.1h-.1v-.1l-.1.1c.1-.1,0-.1-.1-.2-.4.1-.8-.2-.9.1.3.1.7.3.9.1.2.4.5.5.5,1,.2.1.1.2.3.2-.3.1.1.4-.2.4.1.1,0,.1.2.1-.1.2.1.4-.1.4.1.1.1,0,.2,0,.1.1-.2.1-.1.2h.2c0,.1,0,.3-.1.2-.1-.1,0-.1-.1-.2-.2.9,0,1.8,0,2.6h-.1c.1.3.1.7,0,1,.1.2.2.4,0,.7.2.2,0,.3.2.5q-.2.1-.3.3c.1.1.2.1.2.3-.1-.1-.2,0-.2.1.1.1.2.1.3.1v-.1c.1.1.2.2.2.2.2-.2-.1-.4.2-.4-.1-.1-.1.1-.2-.1.3-.2.2-.6.2-.9.4-.2-.1-.9.3-1.2-.1,0-.1-.2-.1-.3-.1,0-.3-.2-.3-.3.1,0,.2.2.3.1-.2-.1,0,0,0-.1s-.1-.2-.3-.3c.4-.3.2-.8.1-1h.1c0-.2-.2-.2-.2-.3,0,0,.1.1.1,0-.1-.1.1-.2-.1-.2-.1,0-.1.2-.1.1s.1-.3.2-.3c-.1-.1-.3-.3-.1-.4,0,0,0,.2.1.1-.1-.3.4-.8-.1-.9.2-.1.2-.2.1-.3-.1,0-.1.2-.2.1-.2-.1.1-.3.1-.3-.1.3,0,.5.1.4ZM58.8,25.8s0-.1,0,0c-.1,0-.3-.2-.4-.1.1.1.3,0,.3.2l.1-.1ZM57.4,24.1s.1.1,0,0c0,.1,0-.1,0,0-.2-.1-.4-.1-.5,0h.1c-.1.1-.2,0-.2.1,0,.2.2,0,.2.1-.1.1-.2,0-.2,0,.1-.1-.1-.2,0-.2,0,0,.1.1.1,0-.2-.3-.4,0-.6,0,.2.3,1.1.2,1.3.7,0,0-.1-.2-.2-.1,0,.1.1.1.1.2.1-.1.2.1.3.1-.1,0-.2,0-.2.1.1.1.2-.1.3,0,0,.1-.1.1,0,.2s.2.1.2,0c-.1,0-.1-.1-.1-.2.1.2.1.4.2.5-.1-.1-.1-.2-.2-.2-.1.2-.1.4-.3.3-.2.2-.1.5.1.6,0,.1-.1,0-.2.1,0,.1.1,0,.1.1-.4.1.1.5,0,.7-.1-.1,0-.2-.1-.2-.1.1,0,.2.1.3.1-.1.2.1.2.1-.1,0-.2,0-.3.1.1.1,0,.1-.1.2.2.4-.2.9.4,1.1-.1,0,0,.1-.1.2-.1,0-.1-.1-.2-.1-.1.5,0,.9,0,1.4-.2.5.1.8.3,1.1h-.2c.1-.1-.1-.1-.1-.1-.1.2,0,.5.2.5v.2q-.1-.1-.2-.1c-.1.2.2.5,0,.7.2.2.2.4.3.6.1,0,.1-.3.2-.3,0,.1.1.2.1.3-.1-.1-.1,0-.2-.1,0,.1-.1.1-.1.2.3.3.5.4.6.8.1-.1.2,0,.3,0,0,.1-.1.1-.1.1.1.1.3.1.4.2.1-.3.3.1.3-.1-.1.1,0-.1-.1-.1-.4-.2-.2-.2-.4-.6-.1.1.1.2,0,.2-.1-.1,0-.2-.1-.3,0,.1-.1.1-.1,0s.1-.5.3-.3c-.1.1-.2.1-.2.2.1,0,.3.1.3.1,0-.2,0-.4-.1-.4v-.1c.3,0,.3.2.2.3.1.1.2.2.1.4-.1-.1,0-.1-.1-.2,0,.1-.1.1-.1.2.2,0,.1.4.4.3-.1.1-.1.2-.2.2.1,0,.1.2.2.1-.2-.1.1-.2.2-.1,0,.1-.1.1-.1.2.1-.2.1,0,.2-.1-.1-.2.1-.3.3-.3-.1-.1-.3-.1-.4-.1.1,0,.1.2,0,.1-.2-.2-.3-.3-.1-.5-.1-.1-.2-.2-.2-.3.1.1.2-.1.3-.1-.2-.2-.3,0-.4-.1.1-.1.4-.1.2-.2-.1.1-.2,0-.3,0-.1.1.1.1,0,.2-.2.1-.3-.1-.4-.1,0-.1-.1-.3-.2-.4.1,0,.1-.1.1,0s0,.3.2.4c.1-.1,0-.2,0-.3h.2c-.1.4-.2.4-.1.6.1-.1,0-.2.1-.3.1.1.2.1.3,0-.1-.1-.2,0,0-.1-.1-.1-.2,0-.3-.1,0,0,.1,0,.1-.1-.1-.1-.2-.1-.3-.2.2,0,0-.1.1-.2,0,0,.1.2.1,0s-.3-.1-.2-.3c-.1,0-.1.2-.2.1v-.1c.1,0,.3-.1.2-.2-.1.1-.3,0-.3-.1.1-.1.1.1.2,0-.2-.1-.1-.1,0-.2,0-.2-.2-.4-.3-.5.4.1.1-.5.1-.7-.1-.1-.2,0-.3-.1,0-.1,0-.3.1-.2,0,0-.1.2.1.1,0-.1.1-.2-.1-.4.1-.1.1-.4.3-.3,0-.3.3-.9-.1-1v-.2c.1,0,.1.1.2.1.2-.1-.1-.3.1-.2.1-.1,0-.2.1-.3-.2-.2-.2-.4-.1-.5,0-.1-.2.1-.2-.1,0-.1.1,0,.1,0-.1,0-.1-.3.1-.2.1-.3-.2-.6.1-.9-.1,0-.1-.1-.2-.1-.1.1.2,0,0,.2-.2-.2-.3-.1-.5-.1l.1.1c-.1,0-.2-.2-.3-.1q.1.1.1.2c-.1-.1-.2-.2-.2-.2.2,0,.5-.6.7-.2.1-.1,0-.2,0-.3.1-.1.1.1.2,0-.1-.6.7-.9,1.2-1.1l-.1-.1c-.1.1-.2.1-.3.3-.1-.2-.4-.1-.5-.1,0-.1-.2-.1-.3-.2-.1.2-.2.2-.4,0-.2,0-.4.2-.6.3.1-.1.1-.2,0-.2-.1-.3-.4-.4-.5-.3ZM60.6,23.5c.1.1.3.3.3.4,0,.8-1,.4-1.2.7-.6.5-.1,1.5-.4,2.2.1.8-.1,1.8.5,2.4-.1.2,0,.3,0,.5-.1.1-.2.2-.2.2-.2.9-.3,2.3.4,3,.3.4,1.1.4,1.1,1,.8.9,2.7.6,3.5-.4.2-.3.4-1,.5-1.5.1-.6.2-1.2.2-1.7,0-.6-.2-1.1-.3-1.6.3-.7.3-1.6.2-2.5-.1-.8.1-1.5-.9-1.7-.3-.1-1-.1-.7-.6.2-.4,1.9-.1,2.3-.1h.9c.3,0,.9-.3.9.3-.4.6-1,.2-1.4.8.1.4-.1.8-.1,1.2,0,.2.1.5.1.8,0,.6-.1,1.3-.1,2,0,.2.1.4.1.5,0,.4-.1.8-.2,1.2,0,.4.1.8,0,1.1,0,.1-.1.2-.1.4-.2.9-.7,2.1-1.7,2.9-.5,0-.8.5-1.3.6-.2,0-.6.1-1,.1-1.7.2-4.1-.4-4.8-2.4,0-.6-.2-1.2-.3-1.8.1-.3,0-.5.1-.7-.1-1.4.1-3.1,0-4.4,0-.1-.1-.4-.1-.6,0-.3.1-.7-.2-.9-.3-.2-.8,0-1-.3-.2-.2-.3-.6.1-.9h1.5c.6,0,1.2.2,1.8.2.7-.2,1.1-.5,1.5-.4ZM50.8,24.4c.1,0,.1-.1.2,0,.1-.1-.1-.1-.1-.2.1,0,.1-.1.2,0h-.1s0,.1.1.1.1-.1.1-.1l.1.1c-.1,0-.3,0-.1.1-.1.1-.2.1-.4,0-.1.1.2.1.1.2-.1,0-.1-.1-.1-.2ZM44.4,31.8c-.3,0,.4-.3.2,0,0-.1-.2-.1-.2,0ZM43.4,30.5s.2-.2.2-.1-.1,0-.1.1v.1c.1.2,0-.2-.1-.1ZM44.2,30.1c.1-.1,0-.2-.2-.3.2,0,.3.3.5.3h-.3ZM42.8,29.7c.1-.1.1.1.2,0,0,.1.2.2.1.3-.1-.2-.2-.2-.3-.3ZM42.9,28.7h.1c.1.1.1-.1.2,0,0,.1-.1,0-.1.1,0-.1-.2,0-.2-.1ZM44.7,32.1c-.1,0,.1-.1.2.1,0,.1-.1.1-.1.3-.2,0-.2.2-.4.1.2,0,.2-.1,0-.2.2-.1.2,0,.4-.1,0-.1-.1-.1-.1-.2ZM53.3,32.7c.1-.2.4-.4.3-.5-.1.1-.2.3-.4.4,0,0,.1,0,.1.1ZM53.1,32.7c.1.1-.1.2,0,.2,0-.1.1,0,.2-.1,0-.1-.1-.2-.2-.1ZM52.8,33c.1-.1,0,.1.1.1.2-.3-.4-.4-.3-.4.1,0,.2.1.2.3ZM53.3,31.9c.1,0,0-.2.2-.1.1.1-.1.2.1.2.1-.1.2-.2.1-.3-.2,0-.3-.2-.5-.2.3.1,0,.3.1.4ZM53.8,30.5c.2.1.1.2.3.4,0-.2.1,0,.2-.2-.1-.1-.2-.4-.2-.3.1.1-.2,0-.3.1ZM54.2,30.4q.1.1.2,0s0-.2-.1-.2c0,.2-.1.1-.1.2ZM52.6,32.5c.1-.1,0-.2-.1-.3-.1.1-.1.2-.1.3h.2ZM53.4,30.7c-.2-.2-.2-.1-.2,0,0-.1,0-.3-.1-.2.1.2-.2,0-.2.1.1,0,.2.1.1.2.1.1.1,0,.2.1,0-.2,0-.1.2-.2ZM52.7,29.5c.1-.1.2-.1.2-.3-.1,0-.2-.2-.3-.1.2.2,0,.3.1.4ZM53.1,29.1c-.1,0-.3-.1-.2.1,0-.1.2,0,.2-.1,0-.2-.1-.2-.2-.4,0,.1-.1.1-.1.1,0,.1.3.1.3.3ZM53.3,28.8c.1.1.2.2.1.3-.1.1-.2,0-.2,0,.1.1-.2.1,0,.2.1,0,.2,0,.3.1.1-.2.3-.2.3,0,.1,0,0-.1.2-.1-.2-.2-.4-.6-.7-.5,0-.1.1-.2.1-.2q.1.1.2.2c.1-.1,0-.5-.1-.7-.1.1-.3.2-.2.2,0-.1.2.1.1.2-.1-.1-.1.1-.2,0-.2-.2-.3-.1-.4-.3.1.1,0,.2.1.2s.2-.1.2,0c-.2.2-.3,0-.5,0,.1,0-.1.1-.1.1.3,0,.6.4.8.3ZM53.2,28.2c.1,0,.2-.2.3-.3-.1-.1-.2,0-.2,0,0,0-.1-.1-.1,0-.1.1-.2.1,0,.3ZM52.5,28.2c.1-.2.1-.3-.1-.5,0,.2.1.3.1.5ZM52.6,27.3c.1.1-.2.1-.2.2s.2.1.3.2c0,.2-.1.4.1.5.1-.2,0-.2.2-.3-.1-.1,0-.3-.2-.2,0-.2.3-.1.2-.2-.2.2-.3-.2-.4-.2ZM46.6,34.5c.1-.1-.1-.2-.1-.2l-.1.1c0,.1.1,0,.2.1ZM52.1,26c0,.1-.1.1-.1.2.1.1.2-.1.1-.2ZM46,34.2c.1-.1.1,0,.2.1q.1-.1.1-.2-.2-.1-.4-.2c0,.1.1.2.1.3ZM52.2,26.8s0,.1-.1.2c.3.2,0,.1.3.4.2-.1-.2-.1-.1-.2.2-.2.1,0,.3,0,0-.2-.3-.4-.4-.4ZM53,25.5c-.1,0-.1.2-.2.1-.1-.2.2-.2.1-.4-.1,0-.2,0-.3-.1-.1.1,0,.1,0,.2,0,0-.1-.1-.1,0,.1.1.2,0,.4.2,0,.1-.1.1-.1.1q-.1-.1-.3-.2c-.2.2.4.2.2.4q-.1-.1-.2-.2c-.1.1.2.2.2.4,0,0-.1-.1-.1,0v.1c.2.1.5,0,.7.1h-.3c.1.1.1.3.1.4-.1-.2-.2-.2-.3-.1.1-.1.3-.1.1-.3-.2.1-.3.3-.5.2,0,.1.2,0,.1.2,0,0-.1-.1-.1,0,.1.1,0,.2.1.2h.3c0,.1-.1,0-.2.1.2,0,.3.1.5.1-.1-.1,0-.3.1-.2-.2,0,0,.1-.1.2s-.2,0-.3.1c.1.1-.1.4.3.4,0-.1-.3-.1-.2-.3.1.1.3-.2.5,0,0,.1-.1.2,0,.3.1-.2.1-.3,0-.4-.1,0-.2.1-.3,0,.1-.1-.1-.2.1-.3.1.1,0,.1.1.2h.2c0-.1-.2-.2-.2-.2.1,0,.1-.1.1-.1-.1-.1-.1.1-.2,0,.1-.2-.1-.3-.1-.4.2-.3-.1-.6-.1-.8ZM46,33.7l.2.2c.1-.1.1,0,.2-.1-.1-.3-.1-.2-.3-.3.1.1-.1.2-.1.2ZM45.9,33.9c.1,0,.1-.1.1-.1-.1-.1-.2,0-.3,0,.2,0,.1-.1.2.1ZM52,25.7c0-.1.1-.1.1,0-.1.1,0,.2.1.2v-.2c-.1-.1-.3-.2-.4-.1q.1,0,.2.1ZM52.2,25.5c.1-.1-.1-.2.1-.3-.1,0-.2-.1-.3-.1.2.2.1.3.2.4ZM52.1,25.3q-.1,0,0,0c-.1,0-.1-.2-.2-.1,0,.1.2.3.2.1ZM45.7,33.6c.1,0,.1-.1.2,0,.1-.1.2-.2.1-.3-.1.3-.3-.1-.4,0,.1.2,0,.3.1.3ZM51.6,25.7c-.1-.2.1-.1.1,0,.1-.2-.1-.2-.2-.3,0,.1,0,.3.1.3ZM46,32.7c0-.1-.2-.2-.2-.1s.1.2.2.1ZM45.4,33.4q.1-.1,0-.2s-.1,0-.1.1t.1.1ZM45.5,33.1l-.2-.2c-.2.1.1.3.2.2ZM51.2,25.1c.2,0,.2.2.3.1-.1-.1-.2-.2-.3-.1ZM51.5,25.3c.1.1.2,0,.3,0,0-.1-.2-.1-.2-.2-.1,0-.1.1-.1.2ZM45.4,33.7s-.1,0-.1.1c.3.1.1-.3.3-.2-.1-.2-.2-.1-.4-.2,0-.1-.1-.2-.2-.3-.1,0,0,.3-.2.2.1.3.2.2.6.4ZM45,32.6c-.1.1.1.2.2.2,0-.1-.1-.1-.2-.2ZM45.5,32.9c-.1,0-.1-.1,0-.2-.1-.1-.1-.2-.2-.1v.1c0,.1,0,.3.2.2ZM44.7,28.3q.1.1.2.2c.1-.1-.1-.3-.2-.3.1,0,.1.1,0,.1ZM53.3,29.6c0,.2-.3-.2-.3,0,0,.1.2.1.1.2-.3-.1-.1.5-.4.6.1.1.1,0,.2.1,0,0-.1,0-.1.1.2.1.1.2.2.4-.1,0-.1-.3-.2-.1-.1.2.2.2.3.4-.2,0-.2.1-.2.3-.1-.1-.2-.1-.3-.1.1-1.3.3-2.5-.3-3.7v-.6c-.4-.9-.9-1.9-2-2.5-.6-.3-1.3-.2-1.9-.3-.8.2-1.8.6-2.2,1.8-.4.4-.3,1-.4,1.5-.1.5-.2.8-.2,1.2,0,.5.2,1,.1,1.5.2.4.2.8.3,1.2.1.4.4.7.6,1,.2.3.4.8.7,1.1.2.2.6.3.8.4.4.2.8.4,1.3.5.8-.1,1.9-.4,2.5-1.4.1-.2.1-.6.4-.8,0-.3,0-.5.2-.8.2.1.3.3.3.5q-.1-.1-.2,0c.1.3.5.4.5.5.1.1.2-.1.3-.2-.2-.2-.3-.5,0-.8-.1-.2-.3-.3-.2-.5-.1-.1-.1.1-.2,0,0-.2.1-.2-.1-.3.1-.1,0-.2.1-.3.1.1.1,0,.2.1.1-.1,0-.3.1-.2,0,.3.3-.1.5.2.2-.2.3-.3.4-.4-.1-.1-.3,0-.3-.1.2,0-.1-.3-.2-.4,0,.1-.1.1-.1.2.1.1.2.1.3.2-.1.2,0,.2-.2.3-.1-.1-.2,0-.3-.1-.1,0,0,.2-.1.2-.3-.4-.3-.5-.3-.6.1.1.2,0,.4,0,0-.1-.1-.4-.1-.3ZM44.9,27.2c0-.1.1-.1.1-.2-.1-.1-.2,0-.3,0q.1.1.2.2ZM46.4,24.9s-.1.1,0,.1.2-.2.1-.3c-.1.1,0,.1-.2.1t.1.1ZM46.3,25c-.2,0-.1-.2-.2-.2-.1.1.1.5.2.2ZM48.3,24c.2.1.2,0,.4,0,.5-.1.8.4.8-.1,0,.2.1.2.1.4.2,0,.4,0,.4-.1,0,0,0,.1.1.1.1-.1,0-.2.1-.1,0,.3.3.6.7.7-.1,0,.1-.2.2-.2-.1.1,0,.2,0,.3,0,0-.1-.1-.1,0,.1,0-.1.1.1.2.1-.1.2-.2.3,0,0-.1.1,0,.2-.1-.2-.2.1,0,.2-.1,0-.1-.1-.2-.3-.3-.1.1,0,.1,0,.2-.1-.1-.1,0-.2-.1q.1-.1.1-.2c.2.1.4.3.6.5,0-.2.2-.1.2-.2,0,.1-.1,0-.2,0,0-.1.1-.2,0-.2-.5-.2-.9-.4-1.3-.6-.2.1-.4,0-.7-.1-.1.1.2.1,0,.2-.1-.1,0-.2-.1-.3-.2.1-.4-.1-.7-.1-.2,0-.4.2-.5.1-.1,0-.1.1-.2.1-.3-.2-.7.1-1,.1,0,.1.1.2.1.3-.3-.1-.5-.3-.8-.1v.3h-.1c-.1-.1-.1-.2-.2-.2-.1.2-.3.1-.3.3,0-.1.2.1.1.1-.1-.1-.2-.2-.3-.1.1.1.2.2.3.2.1-.1,0-.1.1-.2.2.1.3,0,.4.1.1-.2.2-.4.4-.3,0-.1-.1-.1,0-.2.4,0,.7-.2,1.1-.3ZM45.4,24.9c.1.1,0,.1,0,.2.1.1.3,0,.2.2,0-.1-.1-.1-.1-.2-.1.2.3.3.4.2-.1-.1.2-.1,0-.2h.1c.1-.1,0-.4-.2-.3,0,.1.2.1.1.2-.1-.1-.2.1-.3.1-.2-.3.2-.4,0-.6-.2.1-.2.2-.2.4h-.1s.1,0,.1-.1c.1.1,0,.1,0,.1ZM44.2,26.8c0-.1-.1-.1.1-.2,0,0,.1.1.1,0-.2-.1.1-.2,0-.3-.1,0-.1.2-.3,0-.1.2,0,.1-.2.4.2.1.3,0,.3.1-.2.1-.1.2-.2.2v-.2c-.1,0-.1-.1-.2-.1-.1.1.1.2,0,.2s-.1,0-.2.1c.1,0,0,.1,0,.2.1.1.1,0,.2.1q0,.1-.2.2c.1,0,.2.1.3.1-.1,0-.1-.1-.1-.2.1-.1.3-.1.3,0q-.1,0-.1.1c-.1-.1-.1-.2-.2-.1,0,.1.1.1.2.2-.1.1-.1,0-.2.1,0,.1.2.2.2.3-.1-.1-.4,0-.4-.3-.1.2.1.2.1.3-.1,0,0,.1-.1.2-.1,0-.4-.1-.3-.2-.1.2-.1.4-.3.6,0,.1.2.2,0,.2.1.1.1.2,0,.2.1,0,.1.1.1.1.1-.1,0-.1,0-.2.1.1.2.1.2,0h-.1c.1,0-.1-.2.1-.2q0,.1.1.2c-.1.1,0,.1,0,.2.1-.1.3.1.3.2-.2-.2-.2-.1-.2,0,0-.1-.2-.3-.2-.2.1,0,.1.2,0,.2-.1-.1.1-.1,0-.2,0,.1-.1.2,0,.3-.1-.1-.2-.3-.2-.1.1,0,.1.3,0,.3,0,.2.2.7,0,.9.4.4.1.9.4,1.3.2-.1.2.1.3.2-.1-.1.1-.1.1-.1,0,.2,0,.5.3.5-.1.1-.1,0-.1.1,0,0-.1-.1-.1,0v.2c.1-.1.2.1.3.1-.1,0-.2,0-.1.1.2,0,.2.2.4.3.2-.2.1-.1.3-.1-.1,0,0-.1,0-.2-.1-.1-.1,0-.2-.1l-.1.1q-.1-.1,0-.2c.1,0,0,.1.2.1.1-.2.2-.2.3-.2-.1,0-.1-.1-.2-.1.1-.1,0-.1.1-.2.1,0,.1.2.2,0,.1-.1-.1,0-.1,0,0-.1,0-.2.1-.2.1.1.2.3-.1.4.2,0,.1,0,.2.2.1-.1,0-.1,0-.2.1.1.1-.1.2,0-.1.1,0,.2.1.1-.1,0-.1-.1,0-.2-.2-.1,0-.5-.3-.4,0-.1.1,0,.1-.2l-.1-.1s-.1.1-.1,0c.1-.2,0-.2.1-.3-.1-.1-.1-.2-.2-.2.3-.2-.1-.5.1-.7-.2-.1-.3,0-.3-.3-.1.1-.1.2-.2.2-.1-.1,0-.1.1-.3-.3-.1-.4-.3-.7-.3.1-.1.1,0,.1-.2.1.2.4.2.5.3v-.2c.1.1.2,0,.2,0,0,.1-.1,0-.2.1.1,0,0,.1,0,.1.1-.1.2.2.3.1,0-.2-.3-.2,0-.3-.2-.2-.2-.5-.4-.6h.1v-.2s-.1,0-.2-.1c-.1.1,0,.2-.2.2,0-.2.1-.2.2-.3-.1-.2-.2-.3-.3-.4.1-.1.1.1.2,0-.1.2.3.3.1.5.1.1.1,0,.2.1.1-.1,0-.2.1-.2-.4,0-.3-.6-.7-.5.2-.2.2-.4.4-.4,0-.1-.1-.2-.1-.3h.3c0,.1-.1.1-.1.2.1,0,.1.1.2.1-.1-.1.1-.3-.1-.4-.1,0-.1.1-.2,0,0-.1.1-.1.1-.2-.1-.1-.3.1-.3-.1.1.1.1,0,.2-.1-.2-.1-.1-.2-.2-.3,0,.3.1,0-.1.1ZM44.3,26.1q.2.1.4.1c0-.3-.3-.3-.4-.1ZM44.5,25.9c.1.1.2,0,.4.1,0,.1-.1.1,0,.2.1-.2.3,0,.3,0,0,.1-.1,0-.2,0,0,.1.2.1.1.2-.1,0-.1.1-.1.1-.1-.1-.3,0-.3-.2.1.1.2,0,.2,0q-.1-.1-.3-.2c-.1.1,0,.2-.1.3.1-.1-.1-.2,0-.3-.2.1,0,.3-.2.3,0,.1.2,0,.2.2-.1,0-.2-.1-.2.1.2,0,.5.1.7.4.2-.1,0-.2.1-.3,0-.1-.2-.1-.2-.2.2,0,.1-.1.2-.2,0,0,0,.1.1.1.1-.2.1-.4.3-.5-.1-.1-.1-.2.1-.3-.3-.1,0-.1,0-.2-.1,0-.2-.1-.3-.1.1-.1,0-.1.1-.1-.1-.1-.1-.2-.3-.4-.2.1-.1.3-.3.1-.1.1-.2.1-.2.2.1.1.3.1.2.2-.1-.1-.2,0-.3-.2-.1.1-.1.2,0,.3.1-.1,0-.2.1-.1s.1.1.1.2c-.2.1-.3,0-.4-.1.3.3.2.3.2.4ZM54.3,30.1c.1,0-.1-.2.1-.2.1.3-.1.7-.2,1.1,0,.1-.1-.1-.2,0,0,.2.2,0,.3.2-.2.3-.1.6-.2.9-.1.2-.4.3-.5.6-.1.2-.1.4-.3.6-.4.6-1.2.9-1.7,1.5-.4,0-.8.3-1.1.5-.8.2-1.3.2-2.3.1-.6,0-.9-.1-1.4-.4-.3-.1-.5-.3-.8-.2-.1-.1,0-.2,0-.3-.7,0-1.5-.8-1.7-1.3-1.1-.5-.8-1.8-1.3-2.6,0-1.1-.1-2,.3-3.1.3-.8,1-1.9,1.8-2.6,1-1,2.7-1.3,3.8-1.2.5-.3,1,.2,1.6.2s1.3.5,1.9.8c.2.4.5.5.8.8.7.7,1,1.6,1.2,2.4-.2.3-.2.7,0,.9h-.1c0,.1.2.1.2.2,0,.3-.1.5-.1.8l-.1-.1c-.1.1.1.1.1.2-.1.1-.2-.1-.2-.1-.1.1.1.1.1.3ZM38.8,28.4c-.1-.2.3-.2.3-.4.1,0,.2.1.1.2,0-.2-.2.1-.4.2ZM38.6,26.6s.1-.1.2-.2c0,.1.1.3,0,.4-.3,0-.1-.2-.2-.2ZM34.1,25.1c.1.1,0,.1,0,0,.1.1.1,0,.2.1-.1,0-.1.1-.2.1v-.2ZM33.9,24.8q-.1-.1-.1-.2c0,.2.3.1.4.2.1.1-.2.2-.3,0h.2c-.1-.1-.2-.1-.2,0ZM33.9,24.4c-.1-.1.1,0,.1-.1l-.1.1c.1,0,.2,0,.2.1v.1c-.1.1-.1-.3-.2-.2ZM39.2,33c.2-.2.1.2.2.1,0-.2-.2-.2-.4-.2q.2,0,.2.1ZM39,33.3c-.1-.1-.2-.2-.3-.1.1,0,.2.2.3.1ZM39.1,32.9c-.1,0-.2-.2-.4-.2.1.1-.2.1,0,.1.1,0,.2.2.4.1ZM38.5,33.4l.2-.2c-.2-.1,0-.2-.1-.2s0,.2-.1.1h-.1c0,.1,0,.2.1.3ZM38.5,32.8c0-.1.1-.3-.1-.2,0,.1,0,.3.1.2ZM39.1,31.9c0-.1-.2-.2-.3-.1,0,.1.2.2.3.1ZM38.4,32.4l-.1-.1c.1.1.2.1.2.2,0,0-.2.1-.1.1s.2-.2.3,0c.1-.1,0-.1.1-.2-.2,0-.1-.1,0-.3-.2-.1-.3,0-.3.2-.1-.1-.2-.2-.3-.2v.2s-.1,0,0,0c.1-.1.1.2.2.1ZM38.6,31.7c.1.1.2,0,.3,0-.1-.1-.1-.3-.2-.2,0,0,0,.1-.1.2ZM38.8,32c0-.2-.2-.1-.2-.2-.2.1-.2,0-.2.2-.1-.1-.1-.2-.1-.2-.2.2-.3,0-.5.1.3.1.6.2,1,.1ZM39.8,27.9l-.1-.1q-.1.1-.2.1c.1.1.2,0,.3,0ZM39.8,27.1l-.1-.1-.1.1c0,.1.1.1.2,0ZM34.2,34.1s0-.1.1-.1l-.1-.1c-.2,0-.1.1,0,.2-.1-.1-.2-.1,0,0q-.1-.1,0,0ZM34.3,34.3c0,.2.1,0,.2.2l-.1.1c.1.1.2,0,.3.1-.1,0-.1.1,0,.1,0-.1.1,0,.1-.1-.3-.1-.1-.6-.4-.5q.1.1,0,.2c-.1-.1-.2-.1-.1-.2-.1-.1-.2.1-.4-.1-.1.2.4.3.4.2ZM34.1,33.6l-.1.1s0-.1-.1,0c.2.1.3,0,.5.2.1-.1-.1-.2,0-.3-.1.1-.2-.1-.3,0,.1.2.1,0,0,0ZM33.9,34c-.1-.1-.2-.1-.3-.1.1.2.2.2.3.1ZM39.2,26.6c.1-.2.2,0,.2.1.2-.2-.2-.3-.3-.3.1,0,0,.1.1.2ZM34.5,32.6c-.1-.1-.2,0-.3,0,.1,0,.2.1.3,0ZM39.5,26.7c.2,0,.3.3.3.2-.1-.1,0-.1.1-.1,0-.2-.2-.4-.1-.6-.1,0-.2-.2-.2-.1s.1.1.1.2h-.2c.1-.1-.1-.3-.3-.2.1.1.1.2.2.3l.1-.1c-.1.2.2,0,.1.1-.1.1,0,.3-.1.3ZM34.3,33.1c.1,0,.3-.2.2-.3s-.1.2-.2.3c0-.1-.1-.2-.2-.3.1-.1,0-.5-.1-.4,0,.2,0,.5.3.7ZM39.2,26c-.1-.1-.2,0-.3,0,.1.2.2,0,.3,0ZM33.9,33.3h.2c.1.1,0,.1.1.2l.1-.1c-.2-.2-.1-.3-.3-.4,0,0-.1.1-.1.3h-.2c.1-.1.1-.2.1-.3-.1.2-.1-.1-.2,0-.1.1.1.1,0,.2-.2-.1,0-.2-.1-.3-.2.2.1.2-.2.4.1.1.2.2.2.3-.1,0-.2-.1-.3,0,.1.1.1.3,0,.5.2.1.4.1.4.3-.1,0-.2,0-.3-.1-.1.1-.2.4-.3.2-.1.1,0,.1-.1.2.1.1.2-.1.2.1-.1.1-.3-.1-.3.1-.2-.1-.3,0-.5-.1-.2.2-.3.1-.5.1-.1.1-.1.2-.1.3.2-.2.4-.2.6-.1,0-.1.1-.1.1-.2.1,0,.2.2.3.1-.1-.2.2,0,.1-.1.1.1.2.1.3.1.1-.1,0-.1.1-.2.1.1.2-.1.2-.1.1,0,.1.2.2.1,0-.2.2.1.4,0-.1-.1-.1-.2-.2-.3-.1,0-.1.1-.2,0,.1-.1,0-.2,0-.2h.1s-.1.1,0,.1c.2-.1.3.2.4.4.1-.1.2,0,.3-.1-.3-.3-.5-.3-.6-.6-.1.1-.3-.1-.5-.2.1,0,.2-.2.4-.3q-.1-.1-.1-.2c.2.2.5.1.4-.1,0,.3,0,.1-.1,0ZM38.6,31.4c-.1,0-.3-.1-.2-.1s0,0,.1-.1c.1.1.3.1.4,0v-.1c-.2-.1-.2.1-.3-.1-.1.1,0,.1-.1.2-.1-.2-.3-.2-.4-.1.2.2,0,0-.1.2.2.1.2.3.4.3-.1-.2.2-.1.2-.2ZM39.5,26.8c-.2-.1-.5-.1-.5-.4q-.1.1-.2.1c.1-.1,0-.2.1-.3l.1.1c.1-.1,0-.1-.1-.2-.1,0-.1.3-.3.2-.1-.1-.2-.1-.3-.2.2.4,0,.9.6,1v.1c-.2,0-.3-.4-.5-.2,0,.2.2.3.1.5.3.2.3.3.2.6-.1-.1-.1,0-.2-.1-.1.1,0,.1-.1.2-.1,0-.1-.2-.2-.2,0,.1.2.2.2.3-.2.1-.3.3-.4.6h-.2c-.1.1-.2.3-.1.3-.1,0-.2,0-.2.1.1.1.2-.1.4.1.1-.1-.1-.2,0-.2.2,0,.2.2.2.3-.1-.1,0,0-.1.1-.2-.2-.5.1-.8.2.2.3.1.6.3.7q0,.1-.1.2c.1.1.3.2.2.2-.1-.1-.2-.1-.3-.1,0,.1-.1.3.1.2.1-.1,0-.1,0-.2.1.1.3-.1.3.1-.2-.1-.1.1-.3,0,.1.2.2.3.4.3v.1c.1.1.2.1.3.2.1-.2-.3-.3-.2-.6.2,0,.2-.2.1-.3-.1.1-.3,0-.4,0,.1-.2-.1-.3-.1-.4,0,.2.1,0,.2.1,0,.1-.1.3.1.3.1-.1,0-.1,0-.2.1,0,.1-.1.2-.1.1.1-.1.1,0,.2.2-.1.1.1.1.2.2.1.2-.1.4,0,.1-.1,0-.2,0-.4-.2-.1-.2.1-.2.2-.1-.1-.2-.1-.1-.2.1-.1.2,0,.1-.1-.1-.2,0,.1-.1,0,0-.1-.1,0-.1-.1.1,0,.1-.1,0-.2-.2.3-.2-.1-.4-.1-.1.1,0,.3-.1.2.1-.2-.2-.2,0-.4-.1,0-.1-.2-.1-.1,0,0-.1.2-.2.2.1-.5.5-.1.7.1.2-.2-.1-.3-.1-.4.1,0,.1.1.2.1.2-.2,0-.3,0-.5,0,.1.3.2.2,0-.1,0-.1-.2-.1-.2.1,0,.4.2.3.1-.1,0-.4-.1-.4-.3.1.1.1-.1.2,0-.2.4.1.4.2.4-.1,0-.2-.1-.1-.2-.1,0-.2-.1-.1-.2h.1c0,.1.2.4.3.4,0-.2.4-.2.3-.4,0,0-.1.1-.1,0s0-.1.1-.2c.1,0,.1.2.3.2.1-.2.2-.3.4-.6-.2-.1-.2-.2-.3-.3.2.2.4,0,.5,0,0-.1,0-.2-.2-.2.1-.1.1,0,.2-.1,0-.1-.2,0-.1-.2.1,0,.1.1.2,0-.1-.1-.2-.1-.3-.2,0,0-.3-.1-.2-.2ZM38.6,27.8c0,.1-.2.1-.1.2.1-.1.2.2.2.1-.1-.1,0-.2-.1-.3ZM34.1,31.8c-.2-.2-.4,0-.5-.2.3.1.5-.1.8,0-.2.2.1,0,.2.3.1-.1,0-.1.1-.2-.2-.1-.1-.2-.2-.3-.1,0-.1.2-.2.1-.2-.1-.2-.3-.2-.4q.1,0,.2-.1c-.1-.1-.1-.2-.1-.3.3.1.1-.3.1-.4-.2,0-.3,0-.4-.2-.1.2-.3,0-.3-.1l-.1.1c.1.1.1.2,0,.2.2.1.2-.1.3,0-.1.1,0,.2,0,.4-.1.1-.2-.1,0-.1,0-.2-.3-.1-.2,0,0-.1-.2-.1-.2,0,.2.2-.1.2.1.4q.1-.1.2-.1c-.1.1-.1.2-.1.3-.1.1-.1,0-.2.1.1.2.2.2,0,.4.1.1.2,0,.3.2,0,.2-.1.3-.2.4.1.1.1-.1.2,0v.1c-.2,0-.1.2-.2.4.1.2.4.1.4,0-.2.1.1-.3.1-.3v.1c-.1-.1-.1.1,0,.2.1-.1.1-.2.2-.4.2,0,.4,0,.5-.1,0,0,0,.1.1.1-.1-.1,0-.1-.1-.2,0,.1-.1.1-.1,0-.2-.2-.5-.5-.5-.4.1,0,0,.2,0,.2,0,0-.1-.1,0-.2ZM34.4,29.2c.1-.1,0-.2.1-.2-.1,0-.1-.1,0-.2-.1-.1-.2-.1-.2,0,.1.1,0,.4.1.4ZM34.5,28.5c.1-.1-.1-.2-.1-.3l-.1.1c.1.1.2.2.2.2ZM34.3,28.4c.1-.1,0-.3-.1-.2-.1.1.3.4.1.2ZM33.9,28.6c.1-.1-.1-.2-.2-.2,0,.1.1.2.2.2ZM38.1,26.6c-.1-.4-.2-.9-.5-1.3-.4-.5-1.5-.9-2-.8-.1,0-.6.2-.6.3-.1.6,0,1.2,0,2.1,0,.4,0,1.7.3,1.9.4.4.8-.1,1.2.4,1.6.2,1.8-1.5,1.6-2.6ZM39.6,26c0-.1-.1-.1-.2-.2-.2.2.1.3.2.2ZM39.6,25.7c0-.1-.2-.1-.2-.2.1-.1.1.2.2.1-.2-.1,0-.2-.1-.3-.1-.1-.1,0-.2,0,0-.4-.6-.8-.9-.7-.3-.5-.8-.1-1.2-.5-.1,0-.2.1-.2.1-.3-.1-.5-.1-.8-.2-.1.1,0,.1,0,.2-.2-.3-.6-.2-.9,0,.3.1.7,0,.9.2.2-.1.3-.1.4.1.3-.1,1,.4,1.4.8.1,0,0-.2.1-.2,0,.2,0,.7.4.7,0-.1-.2-.1-.1-.2h.1c0,.2.3.3.4.2-.1-.3-.3-.1-.5-.3.1-.1,0-.2.2-.3.1.2.3.4.5.4,0-.2-.2-.2-.2-.3.2-.1.2.2.4.3-.1.1-.1.2,0,.2,0-.1.1,0,.2,0-.1-.2,0,0,.1-.1ZM33.8,26.4q.1-.2.2-.4c-.2-.1-.3,0-.4.1.1-.1.1.1.2.3ZM34.7,24.9c-.1-.1-.1-.2-.3-.1.1.1.2.1.3.1ZM33.4,25.7q.1,0,0,0c.1,0,.1.1.2,0,0-.1-.1-.2-.2-.2v.2ZM33.6,25.9c0-.1-.2-.1-.3-.1.1.1.1.2.3.1ZM34.7,24.7v-.1c.1,0,.1.2.2.1,0-.1.1-.3.1-.4,0,.2.2.1.3.1,0-.1-.1-.2-.1-.2-.1,0,0,.1-.1.1-.6-.2-1.3-.2-1.7,0-.3-.1-.8-.2-1,.1.1,0,0,0,0,.1.3.2.7.2.8.5q.1-.1.2-.1-.1.1-.2.2c.1.1.2.3.2.5.2,0,.3.1.3.3.1-.1-.1-.3.1-.2,0,.1,0,.2.1.3.1-.2-.1-.2.1-.1,0-.1-.2-.3-.2-.4.1.2.4.4.2.5.1.1.2-.2.3,0-.3.2.1.4-.1.4q.2.1.4.1c-.2.1,0,.2-.1.3-.2,0-.2-.2-.3-.3,0,.3-.2,0-.2.1.1.1.3.2.2.3v-.1q-.1.1-.2.1c-.1-.1,0-.1,0-.2-.2.2-.3,0-.4-.2-.1.1,0,.1,0,.2-.1-.1-.1,0-.2-.1-.1.2.1.3.1.4s-.1,0-.1,0c0,.2,0,.5.3.7l.1-.1c-.1.3.3.1.5.3-.2,0-.2.2-.3.3.1-.1,0-.2,0-.3-.1.2-.2-.2-.3,0,0,.1.1.2.3.2-.1.2,0,.2-.1.3-.1-.3-.3-.4-.4-.6-.4.2-.1.6-.1.9-.2.2.1.3.1.5q-.1-.1-.2,0c0,.2.4.2.4.4,0,.1-.1.1-.1.2s.1.2.3.2v.1c-.2,0,0,0,0,.2q-.1,0-.2.1c.2.1.2-.1.2.2.2,0,0-.2.1-.4q.1.1.1.2s-.2.1,0,.1c.1,0,.1-.2.2,0-.2-.5-.3-.5-.3-.4.1.1.1.2.3.1-.1-.2.1-.2.2-.2-.2-.1-.3-.1-.3-.3.3,0-.1,0,0-.2.2-.1.3.4.5.2-.2-.1-.1-.2,0-.2-.2,0-.1-.1-.2-.1v.2c-.2-.2-.2.1-.5,0,.2,0,0-.2-.1-.3,0-.1.1-.1.1-.2.1,0,.1.1.2.1,0-.2.1-.1.2-.1-.1-.2-.4,0-.5,0l.1-.1q-.1-.1-.2-.2c-.1,0,0,.2-.1.1-.2-.2,0-.3-.2-.3.2,0,.1-.1.2-.1s.1.2.2.1c0-.1-.1-.2-.1-.3.1-.1.3-.2.4-.3-.1-.1-.1-.3,0-.2.1,0-.1.3.1.2,0-.1.1-.1.2,0,.1-.1.2,0,.3-.1v.1c-.1-.1-.1.1-.1.1,0,0-.1-.1-.1,0q.1.1.2.2c0-.1.1-.2.2-.3-.2-.1,0-.5-.2-.5v.1c0-.1-.3-.1-.1-.3,0,0,.1.2.2.1,0-.1-.2-.2,0-.2-.1-.1-.2.1-.3.1,0-.2-.6-.5-.5-.2-.2-.2.1-.3,0-.5.1.1.1.2.1.3.1-.1.2-.1.3-.2-.1.3.1.4.3.5.1-.1.3,0,.3-.2,0,0-.2-.2-.1-.2.1.2.2,0,.3,0-.1-.1-.1-.2,0-.4q-.1-.1,0-.1c0-.1-.2-.1-.2-.2.1.1.2,0,.2,0-.1-.1-.1-.2-.2-.3.2,0,0-.3-.1-.3.1.1,0,.1-.1.3.1.1.3.1.3.2-.3.1-.6-.3-.2-.5,0-.1-.2,0-.1-.1.1-.1.1.1.2,0,0-.1-.2-.2-.2-.3.1-.1.2.2.3.1l-.1-.1c.1-.1,0-.1.1-.1-.1,0-.1-.1-.2-.1-.1.1.1.1,0,.2-.1-.1-.3,0-.3-.1.1-.1.2.1.2,0-.1-.1-.2-.2-.1-.4-.3,0-.2.1-.1.1ZM32.3,24.5c-.1-.2-.1,0-.2-.1,0-.1.1,0,.2-.1-.1-.1-.2,0-.3-.1l-.1.1c.1.2.3.2.4.2ZM38.2,29.6c.1.5.5,1.1.9,1.6q-.1,0-.1.1c.8.7,1,1.8,1.9,2.3,0,.1.1.2.1.3.3.1.5.4.9.6.3.2.9.1.8.6-.8.5-1.7-.1-2.6.1-.3-.3-.7-.3-1.1-.6-.2-.1-.2-.4-.4-.6-.4-.5-1-1.1-1.3-1.6-.1-.2-.2-.5-.5-.6-.5.2-.9.6-1.4.4-.1.6-.4,1.3-.3,1.9,0,.1.1.3.2.3.3.3.8.1,1.1.4.2.3-.1.6-.4.6-.5-.3-1-.1-1.5-.2-.4.3-.9,0-1.4.1-.5,0-1,.3-1.3.3s-.6-.3-.6-.5c0-.8,1.1-.2,1.5-.6.1-.1.2-.5.2-.7,0-.8-.2-1.7-.2-2.4.2-.4.1-.7.1-1-.2-.1-.1-.2-.3-.3,0-.2,0-.3-.1-.5.3-.5.4-1,.4-1.6v-1.5c0-.2,0-1.4-.1-1.5-.3-.4-.9,0-1.2-.3-.2-.2-.2-.5-.1-.6.3-.3.9,0,1.1-.2.2,0,.5.1.7.1.8,0,1.7-.1,2.5-.1,1.2.2,3,.1,4,1.4.9,1.1.8,2.5-.4,3.7-.4,0-.7.6-1,.4.2.1.1.1-.1.2ZM26.6,31.2c0-.1.1,0,.1-.1,0,.1.2.2.1.3-.1-.2,0-.2-.2-.2ZM28.2,26.1c-.1,0-.1-.1-.1-.1.1,0,.2.2.1.3q-.1-.1,0-.2ZM19.5,28c.1,0,.1.2.2.2l-.1.1h-.1c.1-.1.1-.2,0-.3ZM19,28.2c.1,0,.1-.1.2,0v-.1h.1l.1.1c0,.1-.1.1-.1.2.1.1.1-.1.2,0-.3,0-.4-.1-.5-.2ZM19.1,28v-.2s.1.1.1,0c.1.1,0,.2-.1.2ZM21.1,25.2c-.1,0,0,0,0,0,.2-.1-.1-.2.1-.3,0,.1,0,.3-.1.3ZM18.8,27.8c.2,0,.1.2,0,.3-.1-.1.1-.3,0-.3ZM19,27.4c0-.1.2.1,0,.2,0,0-.1,0-.2-.1,0-.1.2,0,.2-.1ZM28,34.3c-.1-.1-.1-.2-.1-.3-.1,0-.3.1-.2.2.2-.2.1.3.3.1ZM27.7,33.6c.1-.1-.2-.4-.1-.3.2.1,0,.2.1.3ZM27.9,33.8c-.3.2-.7-.3-1,0q.1.1.2.3c.1-.1,0-.3,0-.4.2.1.2.2.4.3.1-.3.4.1.4-.2ZM27.4,33.4c0,.1-.1.1-.2.3.1.1.2-.1.3,0v-.1c-.1,0-.3-.3-.3-.2.2.1-.1,0-.1.1.2,0,.2-.2.3-.1ZM29.4,30.8c-.2-.1-.3,0-.4.1.1,0,.2-.1.4-.1ZM25.7,35.2c.1-.1.2.1.2-.1-.1-.1-.2-.2-.3-.2.2.1.1.2.1.3ZM28.5,31c.1.1.2,0,.2,0q-.1-.1-.1-.2-.1.1-.1.2ZM25.2,35.1c-.2,0-.3-.3-.5-.1,0,.1.2.1.2.2.1,0,.2.1.3-.1,0,.1.1.1,0,0ZM26.8,30.9c-.2-.2-.4-.1-.7-.2-.3.2-.9-.2-1.1,0,0-.1.2.1.1.1-.1.1-.2-.2-.3,0,.5.3,1.1.2,1.7.5-.1.1.1.2,0,.3.2.2.3.1.4.2,0,.2.2.2-.1.2,0,.1.2.1.1.2v.1s0-.1-.1-.1c0,.2-.1,0-.2.1.1.1.2-.1.3.1,0,.1-.2.3-.3.4.1.1.2.3.2.4h.1c.1-.2-.2-.3,0-.5.1.1.2,0,.3.1v.1c-.2-.1.1.1.1.1-.1.1-.3-.1-.3-.2,0,.1-.1,0-.1.1,0,0,.1.1,0,.1.1,0,.3,0,.4.1.2-.1.1-.1.1-.3.1,0,.2.1.3,0-.1-.2-.3-.1-.5-.2-.1-.1,0-.2-.2-.3-.1,0-.2.2-.3.2.1-.3.2-.2.4-.3q-.1-.1,0-.2c.1.1.2.3.1.4.1.1.4.1.4,0-.1,0,0-.2.1-.4-.3-.1-.3-.2-.7-.3-.1.2-.1.3-.3.3,0-.1-.1-.1,0-.2.1,0,.2-.1.3-.2.1,0,0,.1.2.1q.1-.1.3.1c.1-.2.2-.2.3-.2-.1-.3.1-.5.1-.8-.1-.1-.2-.1-.3-.2-.1.1-.6-.3-.8.1.5.1.2,0,0,.2ZM18.8,27.6c-.1.2-.3,0-.4.1.1.1,0,.3-.1.4,0,.1.1,0,.1.1-.2.6-.4,1.7.1,2.4-.1-.1-.1,0-.2.1.1.2.2.5.3.5h-.1c.1.1.1.2.2.3.1,0,0-.1.1-.1l.1.1c-.1.2-.2,0-.2,0,.2.2.2.4.3.5.1,0,.1-.1.2,0,0,.1-.1,0-.1.1.1,0,.1.1.2.1l-.1.1c0,.1.2.4.4.2,0-.1-.2-.1-.2-.2.2-.1.2.1.3.1-.1.1,0,.1,0,.2-.1.1-.1,0-.2.1,0,0,.1.1,0,.1.1.1.1-.1.2.1-.2.1,0,0,0,.1.1.1.5.9.7.7,0-.1-.2-.2,0-.3.2.3-.1.6.3.7v-.2c.1.1.1,0,.2.1-.1.1-.2.1-.2.2.1.1.2,0,.4.1l-.1.1c.5.4.9.2,1.3.6.1,0,.1-.2.1-.1.1.2.2.2.4.3.1-.1.1,0,.1-.2.1.1.2,0,.3-.1.1.1,0,.2.1.3.3-.2.7,0,.9.1.1-.2,0-.3-.2-.4,0,.1-.1.1-.1.2-.3-.1-.4-.2-.6-.4-.2.2-.4-.1-.5-.1v.1h-.1v-.1c-.1-.1-.2,0-.3,0,0-.1-.2-.1,0-.2-.1,0-.1-.1-.2-.1s-.2.1-.3.1c0-.1.1-.1.1-.2h-.1c-.1.1.1.1,0,.2-.1-.1-.1,0-.2-.1-.1.1-.2.2-.2.2-.1-.1.1-.2-.1-.3,0,.1,0,.2-.2.1.1,0,.1-.2.2-.1,0,0,.1.2.1.1s.1-.1.1-.3c-.1-.1-.1-.2-.3-.2.1-.1,0-.1-.1-.1l.1-.1c-.1-.1-.3-.3-.4-.3,0-.2-.2-.4-.2-.7l-.1.1c.1-.2-.3-.5,0-.6-.2-.2-.2-.4-.4-.5h.1c-.1-.4-.3-.8-.5-1.1.1.1.1,0,.2,0,0-.1,0-.2-.1-.3,0,0,.1.1.1,0s-.2-.2,0-.2c-.3-.2-.1-.5-.3-.7.3-.2.3-.5,0-.7,0,0,.1,0,.2.1,0-.3-.1-.6-.3-.7l.1-.1c.1.1.2,0,.3.1.1-.1,0-.2.1-.3-.1-.2-.2,0-.3-.1.1-.1.2-.1.2-.1,0-.1-.1-.1-.1-.2.4-.1.5-.8.6-1.1-.1,0-.2-.1-.2-.2.1.2.3.1.4.1,0-.2-.1-.5-.3-.5.1-.1,0-.1,0-.2.2.2.5.4.7.2-.1-.1-.2,0-.2-.2.1,0,.3-.1.2.1.3-.3.7-.5,1-.8.3,0,.5-.1.7-.4.1.1.2.1.2.1v-.1c.8.2,1.5-.4,2.3.1.5-.2,1,.5,1.6.6-.1.1.1.3.2.2,0,0,0-.1.1-.1.1.2,0,.4.2.6.1,0,0-.2.2-.1,0,.2-.1.1-.2.2q0,.1.1.2c.1,0,0-.1.2-.1,0,.1.1.1,0,.1-.3,0-.1.4.1.6.1,0,.2-.1.3-.2-.2-.5-.2-.9-.1-1.4q-.1-.1-.1-.2c.2-.3-.1-.4,0-.7-.4-.2-.8.1-1.2,0,0,0,0-.1-.1-.1-.4-.2-.7-.1-1-.2-.1,0-.1.2-.2.1-.6-.4-1.3-.1-1.9,0-.3,0-.4,0-.7.1-.3.1-.9.2-.9.4l-.1-.1c-.1,0-.2.2-.3.1-.1.1.1.2-.1.2,0,0,0-.1-.1-.1-.2.1-.1.1-.1.3-.4-.2-.8.3-1.2.5-.1.1.1.1,0,.2-.1-.1-.3,0-.3.2-.3-.1-.3.3-.4.5-.4-.1-.6.7-.9.9,0,.1.1.1,0,.2.1.1.2,0,.2.2-.1.1-.1,0-.2,0-.1.1-.2.3-.1.4.1,0,0-.2.1-.2.5-.2.2-.1.4-.1ZM28.2,23.8c.1.4.3.8.3,1.3v.4c0,.2.1,1.2-.3,1.2-.5-.1-.4-.7-.6-1-.8-1.3-2.3-1.7-3.8-1.5-.8.1-1.9.6-2.6,1.7-.3.5-.6,1.1-.7,1.7-.1.2,0,.5,0,.8-.1.7-.1,1.1,0,1.8.2,1,.6,1.9,1.1,2.8.7.7,1.9,1.3,3,1.4.6.1,1-.4,1.6-.8.1-.4.2-.8.2-1.1s.1-.9-.1-1.1c-.4-.4-1.8-.1-1.8-.8,0-.5.7-.3,1.1-.3.5,0,.7-.1,1,0,.7,0,1.6.2,2.1.1.4,0,.7-.3,1.1,0,.2.8-.7.4-1.1.8-.3.3,0,.9.1,1.4.1.7-.1,1.3.4,1.9-.1.4-.6.4-.9.6-.3-.1-.6.1-.9,0-1.6.5-3.2.6-4.9.1-.4.1-.8-.2-1.3-.4-.4-.2-.7-.2-1.1-.6-.1-.1,0-.1,0-.2l-.2-.1c-.1-.1,0-.1,0-.1-.1-.1-.3-.1-.4-.2-.2-.2-.4-.5-.5-.7-.2-.2-.2-.5-.3-.7-.1-.2-.3-.3-.3-.4-.1-.1,0-.3-.1-.5-.2-.6-.4-1-.3-1.8.1-1.1.3-2.2,1.1-3.4.4-.7,1.1-1.2,1.6-1.5.2-.1.4-.3.6-.4.1-.1.4-.1.6-.2.7-.4,1.4-.6,2.2-.6h1.2c.8,0,1.9.2,2.9.4ZM73.5,34.7c-.1.1-.1-.1-.2-.1-.1-.1.1,0,.2.1ZM77.1,29l-.1.1c-.1,0-.1.1-.2,0,0,0,.2-.1.3-.1ZM72.7,34.1c0-.1.1-.1,0,0q.1-.1,0,0c.1,0,.2,0,.2-.1.1.1-.1.1-.2.1,0,0,.1,0,0,0ZM78.2,26.1c.2-.1.2.1.3.2-.1.1-.2,0-.3-.2ZM72.5,33.4c.1.1,0,.2.2.3-.1,0-.2,0-.2-.1v-.2ZM71.5,34.2c.1-.1.1,0,.2-.1,0,.1-.1.1-.1.2-.1,0-.1-.1-.1-.1ZM71.9,31.3c.1-.1.3.1.1.2-.1-.1,0-.1-.1-.2ZM71.7,30.7h.3c-.1.1-.2.1-.3,0ZM71.6,29.8s.2-.1.1-.1c.1-.1.1.1.2.1h-.3ZM71.9,28.4c.1,0,.3-.1.3.1-.1.1-.2,0-.3-.1ZM75.4,24.4c-.1-.1,0-.2-.1-.2.1-.2.2.1.1.2ZM71.9,28.2c.1-.1.2,0,.2,0,.1.1-.1.2-.2,0ZM71.7,27.9q.1,0,.2.1c-.1,0,0,0-.1.1h-.1c0-.1.1-.1,0-.2ZM72.5,27.8c0,.1-.1.1,0,.2s.2-.1.4,0c-.1,0-.1.1,0,.2-.1.1,0,.3-.2.2,0-.1.1-.2.1-.3-.2-.1-.3,0-.5-.1.1-.1,0-.1.1-.2-.2-.2-.3-.1-.4-.3h.1c.1.2.2.1.4.3ZM71.7,27.7c0-.2.3.2.4.2-.2.1-.3-.2-.4-.2ZM71.8,27.4c.1,0,.2,0,.2.1-.1.1-.2,0-.2-.1ZM72.7,24.5c.1-.1.1.1.2-.1.1.1,0,.1-.1.2-.1,0-.1-.1-.1-.1ZM72.6,24c.2-.1.1.2.1.3-.2-.1-.1-.2-.1-.3ZM71.9,24.5c0-.1.1-.1.2-.1v.1s-.1-.1-.2,0ZM60.7,34.8c0-.1.2.1.1-.1.1,0,.2.1.3.1,0,.1,0,.2-.1.2-.1-.1.1-.2-.1-.2,0,.2-.2.2-.2,0ZM60,34.5c0-.1.1,0,0,0,.2,0,.3,0,.3.1-.1.1-.1-.2-.3.1-.1,0,.1-.1,0-.2ZM65.4,24.5c.1,0,.2-.1.3-.2,0,.2.2.2.3.3-.2-.2-.4-.1-.6-.1ZM65.3,24.5c.1,0,.2.1.3.1,0,.1-.2.1-.3-.1ZM65.3,24.2s.1,0,.1-.1q.1.1.1.2-.1-.1-.2-.1ZM58.9,32.3c.1.1.1.2.2.3-.1,0-.3-.2-.2-.3ZM58.6,32.1c-.1,0-.1.2-.2.1.1,0,.1-.2.2-.2.1,0,0,0,0,.1.2,0,0,.2.2.3-.1.1-.1-.1-.2,0v-.3ZM58.3,31.9v-.1q.1.1.2.2s-.1,0-.1.1c-.1-.2,0-.3-.1-.2ZM58.9,30.7c-.1-.1.1-.2-.1-.3.1,0,.2.2.1.3ZM57.9,27.7c.1.1,0,.2.1.3,0,0-.1-.1-.2,0,.1-.1.1-.2.1-.3ZM58.7,26.6c.2.1.3,0,.2.2-.1-.2-.2,0-.3-.1t.1-.1ZM58.7,26.2h0c.1,0,.2-.1.2-.1q.1.1-.1.2s-.1,0-.1-.1ZM52.7,26.5c.1-.2.2.2.3,0,.1.2-.2,0-.3,0ZM52.6,26.6c.1-.1.3.1.1.2,0-.1-.1-.2-.1-.2ZM51.2,24.7c.1,0,.1.1.2.1q-.1,0-.2.1c0-.1-.1-.1,0-.2ZM45,32.1q-.2,0-.3-.1l.1-.1c.1.1.1.2.3.1.1,0-.2,0-.1.1ZM44.9,31.5c0,.1.1.2.2.3h-.3c.1-.1,0-.2.1-.3ZM43.5,32.3c.1-.1,0-.1.1-.2,0,0,.1.2.2.1.1.2-.3-.1-.1.1h-.2ZM44.2,31.8c.2-.1.2.3.4.2.1.1-.1.2-.1.2-.1-.1-.1-.2-.2-.3,0-.1-.1-.1-.1-.1ZM43.3,31.4c.1.1.2.1.3.2q0,.1-.1.2c0-.2-.1-.2-.3-.2,0-.1,0-.2.1-.2ZM43.5,31.1c.1,0,.1-.1.2,0,0,0-.1.1,0,.2-.1,0-.1-.2-.2-.2ZM43.1,31.2c.1-.1.3-.1.2.1-.1-.1-.2,0-.2-.1ZM43,30.5c0-.2.2-.1.2-.2.1.2-.2.1-.2.2ZM42.8,30.5c.1.1.2.1.3,0,.1.1-.1.1-.1.2.1.1.2,0,.3.1,0,.1-.1.1.1.2-.1.1-.2-.1-.2,0,0-.1-.1-.2-.3-.3-.1.1,0,.1-.1.2,0-.1-.1-.2,0-.4ZM44.3,29.3c.1,0,.3-.1.4,0-.1.1-.3,0-.1.1h-.3c.2-.1.2,0,0-.1ZM44,28.3c.2.1.3.3.6.5-.2.2-.4-.2-.6-.3.1,0,.1-.1,0-.2ZM44.2,27.7c.1.1.2,0,.3.1h-.1c-.1.1,0,.1-.1.2-.1-.1,0-.2-.1-.3ZM43,28.4c.1.1.1,0,.2.1-.1,0,0,.1,0,.1h-.2v-.2ZM45.2,25.9c.1,0,.3.3.1.3.1-.1,0-.2-.1-.3ZM45,25.7c.1-.1.5.1.5.1-.2,0-.2-.1-.4-.1,0,0-.1.1,0,.2q-.1,0,0-.1s0-.1-.1-.1ZM38.4,28.6c0-.1,0,0,.1-.1.2.1.3.1.3.3-.1,0-.2-.2-.4-.2ZM39,27.3c.2,0,.3-.1.5,0-.3.2-.1.3-.5,0ZM38.7,27.6c.1,0,.1-.1.2,0,0,0-.1,0-.1.1,0,0,0,.1.1.1-.2.1-.1-.1-.2-.2ZM38.9,27c.1,0,.3.1.4.2-.1.2-.3-.2-.4-.2ZM39,26.7c.1-.1.1,0,.2,0-.1,0,0,.1-.1.2-.1-.1,0-.1-.1-.2ZM33.6,33.7c0,.1-.1.2-.2.2,0-.2.1-.4.2-.2ZM33.5,32q.1-.1.2-.1c.1.1.2.1.1.2-.1-.1-.2,0-.3-.1ZM33.6,31c.1,0,.5,0,.4.2-.2-.1-.3-.1-.4-.2ZM38.3,24.8c.1,0,.2,0,.3.1,0,0-.1,0-.1.1-.1-.1,0-.1-.2-.2ZM38.2,24.9c.1-.1.1.1.2.1,0,.1-.1,0-.1.1-.2.1.1-.2-.1-.2ZM34,27.1c.1.1.1.2.1.3q-.1-.2-.1-.3ZM27.7,32.4c.1-.1.2,0,.2.1-.1.1-.1,0-.2-.1ZM27.1,31.7c.1,0,.2-.1.2-.2.1,0,.1.1.2.1-.1.1-.2,0-.3.2q-.1,0-.1-.1ZM21.7,34.3c.1-.1.2-.1.3,0-.1,0,0,.1,0,.1-.1,0-.2-.1-.3.1-.1,0,0-.1,0-.2ZM21.1,33.3h.2c0,.1-.1.1,0,.2-.2.1-.1-.1-.2-.2ZM20.2,32c.1-.1.1.1.2.1-.1.1-.2-.1-.2-.1ZM19.6,32.8s.3,0,.2-.2c.2-.1.1.2.1.2-.1,0-.2.1-.3,0ZM20,31.5s.1,0,.2.1c0,0,.1,0,.1-.1.2.2-.1.1-.2.2-.2,0,0-.1-.1-.2ZM19.5,31.9c0-.1.1,0,.2,0,.1.1.1.2.2.3-.2.1-.4-.2-.4.1-.2,0,0-.3.2-.2,0-.1-.1-.1-.2-.2ZM19.2,32.1c.1-.1.3.1.1.2q-.1-.1-.1-.2ZM19.5,31.2c.2-.1.1.1.2.2-.2,0-.2-.2-.2-.2ZM19.6,30.8c.1-.1.2,0,.2-.1l.1.1c-.1.1-.2,0-.2.1,0,.2.2.2.2.3-.1,0-.2-.1-.3,0q0-.1-.1-.2c.2-.1.2-.2.1-.2ZM19.7,30.2c.1,0,.1.1.2-.1.1.1.2.1.2.1-.2.1-.4.2-.4,0ZM19.1,30.7l.1.1-.1.1c-.1,0,0-.1,0-.2ZM18.6,31.2c.1-.1.2.1.2-.1.1.1,0,.2.2.2l-.1.1s-.1-.1,0-.1h-.1q-.1,0-.2-.1ZM18.6,31.1l.1-.1c.1.2.2-.1.3.1h-.4ZM19.6,30.4c-.1,0,0,.1-.1.2-.1-.2.1-.4-.2-.5.2-.1,0-.2-.1-.2.2-.2.2.3.4.1-.1.2.1.4.2.5.1.2-.1,0-.1.1q-.1-.1-.1-.2ZM19.2,29.5c-.1.1-.1.2-.1.2-.2-.1,0-.3.1-.2ZM23.2,24s.2-.1.1-.1h.1c.1,0-.1.2-.2.1ZM19.6,28.4c0,.1.2.2.1.3l-.1-.1v-.2ZM18.5,29.8c.2,0,.2.1.2-.1,0,.1.2.1.1.2q.1,0,.1-.1c.2.1-.1.2,0,.3-.1,0-.2-.2-.4-.3ZM19.7,27.5h.1v.1l.1.1c-.1,0-.1-.2-.2-.2ZM18.4,29c.1,0,.3.1.2.3,0-.2-.1-.2-.2-.3ZM21.7,24.6h.2c-.1.2-.1.1-.2,0ZM20.2,25.9h0v.2c-.1-.1-.1-.3,0-.2ZM20.4,25.4c.1,0,.3,0,.1.2-.1,0-.1-.2-.1-.2ZM19.6,26.2c.2-.1.3.2.3.3-.1-.1,0-.2-.3-.3ZM14,35.7c0,.1.1.1,0,.2.2,0,.3,0,.4-.1-.1,0-.3,0-.4-.1ZM19.6,16.8h-1.1c-.2,0-.5-.1-.7-.1h-.5c-.3,0-.4,0-.4-.2l.2-.4c.2-.1.7-.3.9-.2,0,0,.1.1.2.1.1.1.2.1.2.1h.7c.1,0,.5.1.7.1h.1c.1-.1.4-.1.6-.1h.4v.5c-.1,0-.2.1-.2.1-.1.1-.3.1-.4.1h-.7ZM20.4,17.1c.2,0,.3-.1.4-.1s.2-.1.3-.1h.1v-1h-.6c-.2,0-.5,0-.7.1h0c-.2-.1-.5-.1-.7-.2h-.6s-.1-.1-.2-.1c-.1-.1-.2-.1-.2-.1-.3-.1-.9.1-1.1.2h0l-.2.5h0c0,.5.3.5.6.5h.5c.2,0,.5.1.7.1h1.7c-.2.2-.1.2,0,.2ZM19.9,16s-.1,0,0,0c-.2,0-.6-.1-.8-.1s-.5.1-.7.1c-.1,0-.3-.2-.4-.2-.3-.1-.8.1-1,.2-.1.2-.1.3-.2.5,0,.5.4.3.8.4.2,0,.6.1.9.1h1.7c.4.1.5-.2.8-.2,0-.3,0-.5.1-.8-.3,0-.9-.1-1.2,0ZM23.6,15.9c-.3,0-.9,0-1.2.1h0c-.2,0-.6-.2-.7-.2-.2,0-.5.1-.7.1-.1,0-.3-.2-.4-.2-.3-.1-.8.1-1,.2-.1.2-.1.3-.2.5,0,.5.4.3.8.4.2,0,.6.1.9.1h1.7c.4.1.5-.2.8-.2-.1-.3-.1-.5,0-.8ZM90.9,7.5h.1c-.1.4-.3,1.1-.4,1.1-.2,0-.3.3-.5.5l.2.2c.4-.2.7-.6.9-.9.3-.5.5-1,.5-1.4,0-.3,0-.6-.2-.6-.4,0-.4-.4-.7-.4-.2,0-.6.1-.6.3s-.1.3-.1.4c0,.2.1.4.2.5.2.2.3.2.6.3h0ZM4.4,8.4c0,.1-.3,0-.3,0,0-.1.2,0,.3,0ZM5.3,8.8c0,.1-.1.1-.2.1v-.1h.2ZM5.4,8.2c0,.1-.2.1-.1.2-.4-.2-.4.2-.8.2,0-.2.2-.2.2-.4q.4-.1.7,0ZM5.2,12.2c-.1-.2-.1-.7,0-.9.4,0,.6.9,0,.9ZM11.6,12c-.2-.2,0-.3,0-.6,3.1-.7,2.2,1.1,0,.6ZM14.1,8c0,.1-.1.2-.1.3-.1,0-.1.1-.3,0,0-.1-.1-.1-.1-.3.2-.1.4-.1.5,0ZM13.9,8.7c.1-.1.3,0,.3.1-.1.1-.2-.1-.3-.1ZM14.5,8.6c.6-.1,1.1-1,.3-1.3.1-.1.1-.2,0-.3-.1,0-.1-.1-.2-.2-.5.1-1,.2-1.4.4-.1,0-.2-.1-.4,0-.3,0-.5.3-.8.3-.2.6-.2,1.4-.6,1.9-.3,1-.4,1.8-.8,2.6,0,.3-.3.5-.3.8-.7.7-.6,2-1.3,2.8-.8-.9-.5-2.3-1.4-3v-.3c-.2-.1-.2-.4-.2-.7-.4-.3-.2-.9-.4-1.3-.1-.2-.3-.3-.4-.5v-.3c0-.2-.2-.4-.2-.6-.1-.3,0-.7-.1-1.1-1-.3-2.1,0-3-.1-.2.1-.4.3-.4.6.3.4.9.2,1.2.6,0,0,.1.2.1.3.2.4,0,.5,0,.9s.1.8,0,1.2c0,1.1-.1,2.4,0,3.4-.3.5.2,1.2-.2,1.7.2.4,0,.8,0,1.1,0,.4.2.8,0,1.2-.2.4-1.2.1-1,.8.1.5.7.2,1.3.1.7-.2,1.7.2,2.1-.2,0-.2-.1-.3,0-.5-.2-.1-.5-.2-.9-.2-.1-.4-.1-.8-.2-1.2.3-.8-.1-1.7.2-2.4-.1-.5-.3-1.5.5-1.5.2.3.5.8.7,1.4v.5c.1.5.6.9.7,1.4.1.2,0,.5.1.7s.2.3.3.6c.3.8.3,2,1.2,1.4,0-.3.1-1.1.5-1.4,0-.1-.1-.2,0-.3.2-.2.4-.7.3-1,.3-.1.2-.6.4-.7-.1-.5.4-.9.5-1.4.4-.3.3-1.2.7-1.4.1,0,.1.1.2.2-.2.3.1.7.2,1,.1.3-.1.6-.1,1,0,.7.3,1.4,0,2,.2.1.2.6.3.7-.1.4-.7.4-1,.7-.1.1,0,.3,0,.4.1.1.3.1.5.3,1.2-.3,2.3-.2,3.5-.2,0-.1.2-.2.2-.3,0-.5-1-.3-1.1-.9l.1-.1c-.1-.8-.1-1.6-.2-2.4.2-.4.1-.8-.1-1.2.2-.4-.1-.7,0-1.1,0-.4.2-.7.1-1,0-.1-.1-.1-.1-.2l.1-.2c0-.5-.1-1.2-.1-1.7,0-.6-.1-1.1.2-1.6,0,.1.3,0,.4-.2ZM62.5,19.3c-.2-.3-.4,0-.7-.2.1-.4.7-.2,1-.3-.1,0-.2-.1-.1-.2-.3-.1-.6-.1-1-.1-.3.3-.6.3-.5.7.1.7,2,.5,2.1-.1-.2,0-.5.1-.8.2ZM16.5,10.8h0c-.1.1-.1,0-.1,0h.1ZM16.5,11.1s-.1-.1-.1-.2h.1c-.1.2.2.2,0,.2ZM16.7,10c-.1.1,0,.1-.1.2,0,.1.1.1,0,.2-.1,0-.1-.1-.1-.1,0,0,0-.1.1-.1,0,0-.1,0-.1-.1s.1,0,.1-.1t.1,0ZM16.9,10.7c.1,0,0,.1,0,.2h-.2c0-.1.2,0,.2-.2ZM16.9,9.4l-.1.1s.1,0,.1.1c-.1.1-.2.2-.2.1s.1-.2.1-.3c0,0,0-.1.1,0h0ZM16.8,10.6h.2c-.1,0-.1.1-.2.1,0-.1.1,0,0-.1ZM17.2,11.4c0,.1-.1.1-.2.1,0-.1.1-.1.2-.1ZM17.2,9.2c0,.1-.2,0-.1-.1h.1c-.1,0-.1.1,0,.1ZM17.2,8.7v.1h-.2s.1-.1.2-.1ZM17.4,11.4c-.1.1-.1,0-.2,0,0-.1.1,0,.2,0ZM17.4,10.5c0,.1-.1,0,0,0-.1.1-.1,0-.1,0h.1ZM17.9,12.8s0,.1-.1.1c0,0,0-.1-.1-.1,0-.1.1,0,.2,0ZM17.9,12.6c.1,0,0,.1.1.1q0,.1-.1.1s0-.1.1-.1c-.1,0-.1-.1-.1-.1,0,0-.1,0,0-.1.1,0,.1.1.1.1h-.1ZM18.2,8.4c-.1,0-.2.1-.2,0h.1c0-.1,0,0,.1,0ZM18.2,7.8c0,.1-.1.1,0,0q-.1.1,0,0,0,.1-.1.1l.1.1c0,.1-.2.1-.2.1,0,.1.1.1.1.1-.1,0-.2-.1-.3-.1s-.1.1-.2.1c0,0,0,.1.1.1v.1h-.1c0-.1.2-.1,0-.1,0-.1.1-.1.1-.2.1,0,.1-.1.3-.1h-.1c.1-.1.2-.1.3-.2ZM18.5,7.9c0,.1.1.1.1.2-.1,0,0-.1-.1-.2-.1.1-.1,0-.1,0v.1c-.1.1-.2,0-.2-.1h.3ZM19,13.9c.1,0-.1,0-.2,0,.1-.1,0-.1,0-.1,0,.1.1,0,.1-.1q0,.1.1.2c-.2,0,0,0,0,0ZM19.1,7.7c0,.1-.2,0-.2,0,0,0,.1.1.2,0ZM20.6,14.4c0,.1-.1.1-.1.1-.1-.1,0-.1.1-.1ZM20.9,14.4q-.1,0-.1.1c-.1,0-.1-.1-.2,0,0-.1.2-.1.3-.2v.1ZM20.9,7.1c0,.1-.2.1-.3,0,0-.1.1,0,.3,0ZM21.3,14.3c0,.1-.2.1-.1.2-.1,0,0-.2.1-.2ZM21.1,7.3c-.1,0,0-.1-.1-.1-.1.1,0,.1.1.1h-.6c0-.1-.2-.1-.2-.2,0,.1-.1,0-.2.1,0,0,.1,0,.1.1,0,0-.1.1,0,.1,0,.1-.1,0-.1-.1-.1,0-.2.1-.3.2v-.1c-.1,0-.1.1-.1.1-.1,0-.1-.1-.1-.1-.1,0-.1.1-.2,0v.1c.1,0,.2,0,.1.2h-.1c0-.1-.1,0-.1-.1h-.2l.1.1c0,.1-.1.1-.2.1h.1c0-.1-.1-.1,0-.1,0,0-.1,0-.1-.1v.2c-.1.1-.2-.1-.3-.1,0,.1.1.2.1.1,0,.1-.4.1-.5.2,0-.1-.2-.1-.2-.1.1-.1.2.1.3,0q.1-.1.2-.1c-.1,0,.1-.1.1-.1v-.1c.2,0,.4-.2.7-.2v.1h.1c.1-.3.4-.1.8-.2v.1c.1,0,.1-.1.1-.1.2,0,.2.1.3.2h.1s-.1,0-.1-.1c.1,0,.1-.1.2-.1q0,.1-.1.1c0,.1.1,0,.2,0,0-.1-.1-.1-.1-.1h.3c0,.1.1.1,0,.1s-.1-.1-.1-.1c0,0-.1,0-.1.1,0,0,.1,0,.1.1q.1,0,.1-.1c.1,0,.1.1.1.2,0-.2-.1-.3-.2-.3.1,0,0,0,0,0ZM21.7,7.3c-.1-.1-.2-.1-.2-.2h.1c0,.1.1.2.2.1.1.1-.1,0-.1.1s.1.1.1.1l-.1.1c-.1,0-.2,0-.3-.2.2,0,.2-.1.3,0ZM22.3,14.1s-.2.1-.2,0c.1-.1.1,0,.2,0ZM22.5,7.8h-.1c0-.1-.1-.1-.1-.1,0-.1.1-.1.1-.1q0,.2.1.2ZM22.7,14.1c.1,0,0,.1,0,.1-.1,0-.2-.1-.2-.2s.1.1.1-.1h-.1c0-.2.3-.1.3-.3h.2v.1c-.1,0-.2.1-.2,0h-.1c-.1.3-.1.4,0,.4-.1.1,0,.1,0,0ZM23.1,13.6c0,.1-.1,0-.1.1-.1,0,0-.1.1-.1q-.1,0,0,0ZM23.2,8.3v.1c-.1.1-.1-.1,0-.1ZM23,8.2c.1.1,0,.2-.1.2v.2c.1,0,0-.1.2-.1,0,0-.1.1,0,.1q0,.1-.2.1c.1,0,.1.2.2.2v.1h-.1c-.2-.2-.1-.4-.1-.7,0-.1-.1,0-.1-.1,0,.2.1,0,.1.1-.2,0-.2-.2-.3-.3.1-.1.3,0,.3.1l.1.1c0-.3-.1-.3-.2-.3q0-.1-.1-.1c-.1,0,0,.1,0,.1,0,.1-.1,0-.1.1,0-.1-.1-.1-.1-.1,0-.1.1-.1.1-.1-.1-.1-.3-.1-.4-.3-.1,0,.1.1.1.1-.1.1-.2,0-.3,0,0-.1.1,0,.2,0,0-.1-.2-.4,0-.4v.1h.1c-.1.1.2.1.1.2.1,0,.2-.1.2-.2s-.2,0-.1-.1c0-.1.2,0,.3-.1v.1h.1c-.2-.1.2,0,.2-.1.1.1-.1.2.1.2-.2.2,0,.4,0,.8-.1,0-.1.1-.2.1ZM23.3,13s-.1,0-.1-.1l-.1.1c0,.1.1.2.2,0,0,.2-.1.4-.2.5-.1,0,0-.1-.1-.1s.1,0,0,.1c-.1,0-.1-.1-.2-.1,0-.1.1-.1,0-.2.1,0,.1-.1.2-.1-.1-.2.2-.2,0-.4,0-.1.1-.1.1-.1.4-.1.3.3.2.4ZM22,14.4c-.2,0-.1-.2,0-.3,0,.2.4-.1.6,0q-.1.1-.2.2c1,.1.9-1,1.3-1.6,0-.2,0-.3-.1-.4-.2-.1-.3,0-.5.1-.1.4-.4.6-.5,1-.5.4-1.1.8-1.7.8-.5,0-1.5-.4-1.8-.7-.1-.1-.1-.2-.1-.2-.2-.3-.6-.6-.8-1v-.4c0-.1-.1-.2-.1-.3-.1-.3,0-.7,0-1.1s.1-.5,0-.8c.2-.3.3-.7.4-1,.2,0,.2-.2.2-.3.1,0,.2-.2.3-.4.3-.1.6-.3.7-.5,0,.1.1.1.2.1,0,0,0-.1.1-.1.3,0,.6,0,.9-.1l1.2.3c0,.1.2.1.2.2.1.2.2.4.3.5,0,.2.2.6.4.8,1,.2.1-1.3.4-2-.1-.2-.4-.2-.5-.4-.8-.1-1.4-.1-2.1-.3-.2.2-.5.1-.7.1-.1,0-.2.1-.3.1h-.4c-.2.1-.4.3-.5.3-.2.1-.5.2-.7.3-.3.1-.4.3-.7.4-.2.2-.4.5-.5.7-.2.3-.4.4-.5.8,0,.2-.2.3-.2.5v.4c0,.1-.1.2-.1.3-.1.6.1,1.6.4,2,0,.2.1.2.1.3.1,0,.1.1.2.1.1.2.2.5.4.7.1.1.4.2.6.4.1,0,.1.1.1.2.1.1.4.1.5.2.4.2.8.4,1.3.4.4.1.9.2,1.3,0,.4.1.9-.1,1.3-.1,0-.2-.2-.1-.1-.2q-.2-.1-.3,0ZM28.9,8.1c0-.1.1-.1.1-.2-.1.1-.2,0-.2,0,.1,0,.1.1.1.2q-.1-.1,0,0ZM35.8,9.1s-.1-.1,0,0c0,.1-.2.1-.2.1.1.2.3-.1.2-.1h0ZM27.1,15.4q-.1-.1,0,0c0-.1-.2-.2-.1-.3,0,.1.2.1.1.3ZM27.2,18.5q0,.1,0,0c-.1,0-.1.1-.1.2-.1,0-.1-.1-.2-.1,0-.2-.2-.4-.2-.6.1-.2.1-.6.3-.7,0,0-.1,0-.1-.1h.2c.1.1-.1.2-.1.3q.1.1.3.1c0,.2-.2.2-.3.3,0,.1.1.1.2.1,0,.3-.2.5,0,.5ZM27.1,15.7c.1,0,.2,0,.2.1q-.1,0-.2-.1c-.1.3.2.1.2.3-.1-.1-.4,0-.4-.2.1,0,.2.1.2-.1ZM27.3,10.9c0,.2-.1,0-.1.1-.1-.1.1-.1,0-.2.1,0,0,.1.1.1ZM27.3,16.4c0,.2-.2.1-.2.2.2.1.1.2.1.3-.2-.2-.1.1-.4.2,0-.4.1-.6,0-1,0-.1.2,0,.2-.1.1.1,0,.2-.1.3l.1.1s0-.1.1-.1v.1c.2.1.1,0,.2,0ZM27.4,13.8c-.1.3-.3.7,0,1-.3,0-.2.2-.4.2,0-.2.1-.2,0-.3,0-.1.1-.2.3-.2,0-.1-.1-.2-.2-.1-.1-.1.1-.2.2-.1-.2-.1,0-.3-.2-.4,0-.1.1-.1,0-.2h.4c0,.1-.1.1-.2.1q.1.1,0,.2c0-.1,0-.2.1-.2ZM27.3,11.9c.1,0-.1.2-.1.2.1.1.1.3.3.4q-.1.2,0,.3c0,.2-.1.3-.2.3,0,.1.1,0,.1,0v.2c-.3,0-.2,0-.4.1,0-.1,0-.2,0-.1-.1-.1.2-.2.3-.3-.2,0-.3,0-.3-.3.1.1.2-.1.3-.1v-.1c-.2,0-.1.2-.2.1-.1-.2.1-.3,0-.4.2,0,.1-.1.1-.2-.1-.1.1,0,.1-.1ZM27.2,11.2c0,.1.2-.1.2,0-.1.1-.2.1-.3.2.1.1.1.2.3.4-.2-.1-.2,0-.5,0,0-.3.2-.1,0-.3h.1c.1,0-.1-.1,0-.2-.1,0-.1.1-.2,0v-.2c.1.2.3,0,.1-.1.1-.1.2-.2.3-.2.1.1,0,.1.1.2-.1.1,0-.1-.2-.1.2.2.2.3.1.3ZM25.8,19.1h.2c-.2-.1,0-.2,0-.3.3.1.7-.5.9,0h-.2c.2.1.5.1.8.2q-.1.2-.5.3v-.1c-.1.2-.4-.1-.4.2-.1-.1-.5.1-.4-.1-.2,0-.9.3-.8-.2.3-.1.2.1.4,0,0-.1-.2-.1-.2-.2.1,0,.1.1.1,0,0,0,.1.1.1.2ZM27.6,10.6c0,.1-.1.3-.2.3,0-.1-.1-.3.2-.3ZM27.7,10.2c0,.1-.2,0-.2,0,0,.1.1.1.1.2-.1,0-.2.1-.3,0v.2h-.3c-.1-.1.3-.1,0-.2,0-.1.1,0,.1,0,0-.1-.1-.3.1-.2,0-.1-.1-.1-.2-.1v-.1c.3,0,.5.1.7,0,.2,0-.1.2,0,.2ZM28.7,11c0,.1-.1-.1-.1,0q-.1-.1,0-.2c0,.1,0,.2.1.2ZM29.5,11.1h-.5c.1-.2.4,0,.4-.2.1,0,.1.1.1.2ZM28.8,10.6c-.1,0-.2-.2-.2,0-.2-.2.2-.2.2-.3v-.2c-.2,0-.2.2-.3,0,0,.1,0,.2.1.1-.1.1-.1.2-.3.2-.1-.1.2-.2,0-.3.2-.1.2-.5.3-.1.1,0,.2-.1.3,0q.1,0,.2-.1c-.1-.2-.1.1-.2,0q0-.1-.1-.1c.2,0,.3-.1.4-.3-.1-.1-.4,0-.5,0s0-.1,0-.2c-.1,0-.3-.1-.3,0-.1,0,0-.1,0-.2h-.2c0-.1.1,0,.1-.1-.3.1-.3.4-.6.4,0-.1.2-.1.2-.1,0-.1-.1-.1-.2-.1.1-.2.4-.1.5,0h-.1c0-.1.2,0,.2-.1-.1-.1-.1.1-.2,0s0-.1,0-.3c-.1,0-.2.2-.2.1v-.1c-.1-.2-.4.1-.3.2-.2,0-.1-.3-.4-.2-.1.2.2,0,.1.2h-.3c0,.2.2.2,0,.3.2.2.3,0,.4-.1,0,.1,0,.2-.1.2,0,.1,0,.2.1.2,0,.1-.1,0-.1.1s.2.1.2.2c-.1.1-.2.1-.3.1s-.1-.2-.1-.3h.2c-.1-.2-.2-.1-.3-.1.1-.1.1,0,.2-.1,0-.1-.1.1-.2,0,.1-.2-.1-.2-.2-.3s.2-.3,0-.3c.1-.1.1-.2.2-.2,0-.1-.1-.1-.1-.1-.1,0-.2,0-.3.1-.1,0,.1-.2-.1-.2,0-.1.2,0,.3-.1v-.1c-.2,0-.3.2-.5.1,0,0,.1,0,.1-.1s-.2.1-.3,0c-.2-.3-.4-.3-.6-.3v-.2c.1.1.2.1.2,0,.1-.1.1.1.2.1s0-.1,0-.1c.1.1.2-.1.3,0,0,.1-.2,0-.2.1.8-.1,1.6.2,2.4-.1,0,.1-.1.2.1.2.1.9.9,1.6,1.2,2.2-.1.1-.2-.1-.2,0-.1,0-.1-.1,0-.1-.2,0-.1.3-.4.3,0,.1.1.2.1,0,.1.2-.4.1-.4.2ZM29.5,10.3c.1.1.2,0,.3.1,0,0-.1,0-.1.1-.3-.1-.1.2-.3.1h0c-.2-.1,0-.1.1-.3ZM30.5,11.7c-.1.1-.2.3-.3.2,0-.1.1-.2.3-.2ZM30.8,12.9c0,.1-.1.2-.2.1,0-.1.1-.1.2-.1ZM30.8,12.2v.1c-.1.1-.3,0-.3-.1.1-.1.2-.1.3,0ZM31.1,12.7c.1-.1,0,.1,0,.3-.1-.1-.2,0-.2-.2.1-.1.2,0,.2-.1ZM31.6,14.5c0,.1-.1.1,0,.2,0,.1-.2,0-.2.1-.1,0-.1-.1-.1-.2.1,0,.1.1.2,0,0-.2-.3-.1-.4,0,0-.2-.2-.2-.2-.3v-.1c.3,0,.3.3.4.1q0,.1-.1.1v.1q.2,0,.4,0ZM32.2,15.6c0,.1-.1.1-.1.1v.2c-.2-.1-.4-.3-.4-.5.1,0,.2.1.3.1v.1q.1,0,.2,0ZM32.4,16c0,.1-.1.2-.2.1v-.1c-.1-.1,0,0,.2,0ZM32.6,15.1c-.3-.1,0-.4,0,0h0ZM33.1,16.5c-.1.2-.2-.1-.3-.1,0-.1.2,0,.3.1ZM33.4,16.8c-.1.1-.2.1-.3.2,0-.1,0-.3-.1-.3.1-.2.2.1.4.1ZM33.5,15.8c0,.2-.2,0-.3,0v-.3c.2.1.2.3.3.3ZM33.7,16.1c0,.1-.1.1,0,.2-.1,0-.1-.1-.1-.2h.1ZM33.8,17c0,.1.1.1,0,.2h0c-.1,0,0,.1-.1.2-.1,0-.1-.1-.2,0,.2-.1,0-.1,0-.3.1-.2.1,0,.3-.1ZM35.1,9.4h-.2c0-.1.1-.1.2,0q-.1-.2-.1-.3c.2,0,.2.2.1.3ZM35.2,12.2c-.2,0-.2-.2-.2-.3.3,0,.1.2.2.3ZM35.3,12.5c0,.1-.1,0-.1.2-.1,0-.1-.1-.2-.1.1-.1.3-.1.3-.1ZM35.4,9.9c.1.1-.2.2,0,.2-.1.2-.3,0-.4.1,0,.1.1,0,.2,0,.1.1-.2,0-.2,0-.1-.2.1-.2.2-.4,0,.2.1.1.2.1ZM35.2,11.3c0-.1-.1-.1-.2-.1.1-.1.2-.1.3-.1v-.3c-.1-.1-.2-.1-.3-.1.1-.2.3-.2.1-.4,0-.1.2,0,.2-.1.1,0,.1.1.1.2h-.1c.1.1.2.2.2.4-.1,0-.1.2-.1.4-.1,0-.3,0-.1.1,0,0-.1,0-.1,0-.1.1,0,0,0,0ZM35.8,8.8c0-.2-.2-.1-.2-.3-.2.2-.5.1-.7.4,0,.1.3,0,.1.1,0,.2-.1-.1-.3,0,.1-.1,0-.3.3-.3-.1-.2-.3.2-.3,0-.1-.1-.5-.1-.1-.2v-.2h-.1c-.1,0,.1.1,0,.2-.3-.2-1,.1-1-.3v-.1c1.2,0,2.2.4,3.2,0,.1,0,.2.1.3.2-.1.3-.6.4-.9.3,0,.2-.4.3-.6.5.1-.2,0-.3.3-.3ZM37.1,7.8c-.5-.1-.8-.1-1.4-.1-.8.5-1.7-.5-2.5,0-.1,0-.3.3-.2.5.1.6,1.3.3,1.5.9.1.2,0,.5,0,.7,0,.5.2,1.1.2,1.6,0,.3-.2.6-.2,1,0,1.3.2,2.5,0,3.7-.5-.5-1-1-1.4-1.7-.7-.9-1.5-1.8-2.1-2.9h-.3c0-.4-.3-.6-.5-.9-.2-.2-.2-.5-.4-.8-.1-.2-.3-.2-.4-.4-.3-.4-.4-.9-.7-1.2.1-.9-1-.9-1.8-1h-.7c0-.1,0-.2-.2-.2-.3,0-.6.1-.9,0-.2.2-.3.4-.5.5,0,1,.9,1.1,1.5,1.4.3.3.1,1.2.5,1.5-.3.1-.2.7-.2,1-.2,1.1-.3,3.2-.1,4.5-.4.7.3,2.2-.4,2.5-.3.1-.7,0-1,.3-.2,1,.6.8,1.2.8.4,0,.8.1,1.2.1.2,0,.3-.1.4-.1.5,0,1.2.2,1.3-.3.1-.6-.9-.4-1.2-.7,0-.6-.4-1.3-.2-2,0-.1.1-.2.1-.3.1-.6-.1-1.1-.1-1.7s.2-1.2.2-1.8c0-.2-.1-.3-.1-.5.1-.8.8-.6,1.1-.2.2.3.4.7.7,1,.1.2.3.3.4.4.1.2.2.4.3.6.3.3.6.6.8,1,.3.4.6.7.9,1,.3.7,1.1,1.1,1.3,1.9.5.2.8.8,1.1,1.2.1.1.1.3.2.4.3.3.9.2,1-.3s-.1-1-.1-1.4.2-.8.2-1.1c0-.2-.1-.3-.1-.4,0-.5.2-1,0-1.4.1-.1.1-.3.2-.4-.1-1.9.1-3.8.3-5.4.2-.2.2-.4.4-.6.8.4,1.2-.3.7-.7ZM49.3,19.5s.1.3.2.1c0,0-.1-.3-.2-.1ZM50.4,12c.1,0,.1.1.2,0v-.2c-.1,0,0-.2-.1-.2,0,.2,0,.4-.1.4h0ZM50.4,10.4c.2,0,.3-.1.3-.2-.1.1-.4,0-.3.2ZM53.2,12.8s.1,0,0,0c0,.1-.2,0-.2.1.1.1.3.1.3-.1,0,0-.1-.1-.1,0ZM41.8,15.4c0,.2-.3,0-.4.1,0-.2.2-.1.4-.1ZM42.2,14.8c0,.1-.1.1-.3.1-.2-.2.3-.5.3-.1-.1-.1-.2,0-.2,0h.1c0,.1-.1,0,.1,0ZM42.2,14.3c0,.2-.3.1-.3.2-.1-.1-.1-.3-.3-.2h.1s0-.1-.1-.1c.1-.1.2.1.3,0,0,.1-.1.1,0,.2.1-.1.1-.2.3-.1ZM42.2,9.5v.1c-.1,0-.2,0-.2-.1h.2ZM41.9,15.4c0-.1.1-.2-.1-.2,0-.1.1-.1.2-.1v.3c.1,0,.2,0,.2-.2.2.1-.2.5-.3.2ZM45.3,18.8c.1.1-.3,0-.4.2,0,.2.2.1.2.1,0,.2-.2.1-.3.1,0-.2-.4-.2-.7-.1,0-.1.1-.1.1-.1,0-.1-.2,0-.2-.1-.1.1-.1.2-.2.3-.1-.1-.2-.2-.1-.4.6.1.9,0,1.6,0ZM45.8,18.9h.5v.2c-.3,0-.4.4-.8.1,0,0,0,.1-.2.1v-.3c.2.1.3-.1.3-.3.2,0,.2.1.3,0,0,.1,0,.2-.1.2ZM42.2,8.3c-.1,0,0,.2.1.2-.1.1-.2.2-.2.3-.2-.1-.2,0-.4,0,0,.1.1.1,0,.2.1-.1.2,0,.3,0,.1.1,0,.1,0,.2h-.3c-.1.3.2,0,.2.3-.2.1-.2,0-.3-.1,0,0,0,.1-.1.1.1.2.1,0,.2,0,0,.1.1.5,0,.4.2.2.2-.3.4-.1,0,.2-.1.2-.2.1.1,0,.2.2,0,.1v.1c.1,0,.2,0,.2-.1.1.1,0,.3-.1.3.2.4.3,1.2,0,1.6,0,.1.1-.1.2,0-.1.6,0,.8.3,1.1.8-.2,1.2-.1,2.1-.1v.1c1.1,0,.9-1.1,1.2-1.7.2,0,.2.1.3.1-.1.1,0,.4-.2.4,0,.3.1.8,0,1,.2.4.1.8.1,1.2h-.1c.2.2.2.7.2,1-.1.1-.3,0-.4,0,0-.2-.1-.4,0-.6-.3-.8-1-.9-2.1-1h-.8c-.4-.1-.7,0-.8.5h-.3c0-.2.2,0,.3,0,0-.2-.1-.4-.3-.3.1-.2-.1-.3-.2-.6-.2,0-.2-.1-.3,0,0-.2.1-.2.1-.3-.2,0-.1-.2-.3-.2,0-.1.1,0,.2,0-.1-.2-.3-.3-.5-.2-.2-.2.2-.5-.1-.5,0-.1.1-.1.1-.2-.3.1-.4-.2-.4-.4q.1,0,.3-.1c.1-.2-.2-.2-.1-.4-.1,0-.1.1-.2,0,.1-.1.3-.1.3-.4-.1,0-.2-.1-.3,0q0-.3-.1-.7c.2,0,0-.1.2-.2-.1-.2-.3-.7-.1-.8-.1-.2-.2-.4-.3-.5-.2.2-.5-.4-.7-.1,0-.2-.3-.1-.4-.2h.3c.2,0,.1.2.2.2.5-.2,1,0,1.5-.1h-.1c.4.2,1-.2,1.2,0,.2-.2.8-.2,1,0,1.1-.1,2.1-.2,3,0,.2-.1.6-.2.7-.2.2.2-.2.9.3,1,0,.1,0,.2.1.2-.1.2-.1.3-.3.5,0,.1.1.1.1.2.1.4-.3.7-.6.5-.1-.7-.4-1.3-1-1.7,0-.1.1-.2.2-.3-.2,0-.2.1-.2.3-.3,0-.5-.1-.7-.1,0-.1.1-.1,0-.2-.4.2-.7-.1-1,0v.1c-.6.2-1-.1-1.5.2v-.1c.3,0,.2.1.1,0ZM47.4,18.7c.1,0,0-.2.1-.1,0-.2-.2-.2-.3-.2v-.1c.3-.2.3-.6.5-.8,0-.3.1-.6.5-.6.1.1,0,.4-.1.6-.1.5,0,1-.4,1.1,0-.1.1-.1.2-.1,0-.1-.1-.1-.1-.1-.1,0-.2.1-.2.2,0,.2.2,0,.3.1-.1.2-.2.5-.3.7-.5-.1-1.2.2-1.2-.4.1.1.3.1.4,0-.1.2.2,0,.3,0-.1-.3-.4,0-.7-.1,0-.3.5-.2.8-.4,0,.2-.1.2-.2.3.1.1.3-.2.4-.1ZM42.3,15.7c.1-.5-.1-1.4.1-1.9.6.1,1.4-.1,2.2,0,.2,0,.5.2.6.4.3.4.1,1.3.6,1.3.2,0,.4-.2.6-.3,0-.5-.1-.9-.1-1.4,0-.8.5-2.3-.2-2.5-.8-.2-.7.6-.8.9-.2.5-.7.5-1.3.5-.4,0-.7.2-1.4.1-.4-.2-.2-.5-.1-.9v-3.1c.1-.4.5-.2.7-.1,1,.2,2.4-.2,2.9.6v.3c.1.2.4.4.3.7.2.1.2.2.4.3.8.1.5-.7.7-1.1-.4-.7.3-2-.8-2.2-.8,0-1.5.2-2.3.2-1.2,0-3.2.1-4.1-.3-.9-.1-1.8-.2-2.1.4-.1.9.3,1.3,1.1,1.2.9.4.4,1.9.6,2.7,0,.1-.1,0-.1.1.1.3.1.5,0,.8.2.4.1.7.1,1.1,0,1-.1,2.5,0,3.5,0,.3.2.9.2,1.1-.1.9-1.1.4-1.8.7-.3.4-.1.9.4,1,.3,0,1.1-.1,1.5-.2.9-.2,2.4-.1,3.1-.3.1,0,.2.1.3.1.8-.1,1.9.1,2.9,0,.3.3.7.1,1.1.1.4-.7.8-1.8.8-2.7-.1-.1-.3-.2-.6-.2-.5.3-.4,1-.9,1.4s-1.2.6-1.9.7c-.8.1-2.2.1-2.5-.6-.2-.4-.1-.9-.3-1.4-.1.6.3,1.3.1,1.7-.1,0-.2-.1-.3,0,0,.2.3.1.3.3,0,.1-.1.1-.1.3-.2-.2-.3-.1-.7-.2.1.3.2,0,.3.2-.2.1-.4.2-.6.2,0-.2.4-.2.1-.4-.1.1.1.2-.1.2s-.1-.3-.3-.3c0,.3-.2-.1-.3.1v-.3c-.1.1-.2-.1-.3-.2.1-.4.1-.6,0-.9.2,0,.2-.1.3-.2.2,0,.3.1.4.1.3-.1.4-.3.7-.4-.1-.3,0-.3-.1-.5.2,0,.2.1.3.1,0-.2-.1-.3.1-.3,0,.2-.2.4,0,.5.4-.4.5-.7.3-1-.1.2-.1.3-.3.3,0-.1-.1-.1-.1-.1.2,0,.1-.3.3-.3,0,0,.1,0,.1.1ZM63,13.5c.1-.1.2-.1.2-.3-.1,0-.2-.2-.2,0,.2,0,0,.1,0,.3.1-.1.1,0,0,0ZM52.8,10.1c.1-.1.2,0,.1.1-.1,0-.1-.1-.2,0,0,.1.2.1.2.2-.2.2-.3,0-.3-.3.1,0,.3.1.2,0ZM53,9.6c0,.1-.2.2-.3.1,0-.2.2-.1.3-.1ZM53,12.7c0,.2-.3.1-.2.4-.1,0,0-.3-.2-.3.1-.1.4-.2.4-.1ZM53.2,13.7c0,.1-.1.1-.1.2-.1,0-.2-.1-.3-.2q.2-.1.4,0ZM53.4,9.4v.2c-.1-.1-.2,0-.3,0,.1-.2,0-.2-.1-.1,0-.1.1-.1.1-.2.1,0,0,.2.3.1ZM53.4,17.6s-.1,0-.1.1c-.2,0,0-.2-.3-.2,0-.1.1-.1,0-.1,0-.1.1-.1.2-.1.1.1-.1.1.1.1,0,.1-.1.1-.1.1v.1h.2ZM53.3,10.2c0-.1-.2-.1-.2-.1,0-.1.2-.2.3-.1,0,.1-.2,0-.1.2.1-.1.1-.2.1-.3.1.2-.1.2.1.3-.2-.1-.2.1-.3.2-.1-.1-.2-.1-.2-.2.1,0,.2.1.3,0ZM53.9,9.8c0,.1-.1.1-.2.1v-.1c.1,0,0,.1.2,0ZM54.2,18c-.1.1-.3-.1-.2.2-.2-.2-.4,0-.7-.1,0-.1.2-.2,0-.2.1-.1.3,0,.4,0,0-.1-.1-.1-.1-.1.2-.1.3,0,.5-.1-.1.1,0,.2.1.3ZM54.2,18.3c.2,0,.1.1.3.1-.1.1-.1.2-.3.2,0-.2-.1-.2,0-.3ZM54.5,17.2c.1.1,0,.2,0,.3-.1,0,0-.3,0-.3ZM54.6,16.5c-.2-.1,0-.2-.2-.3.3-.9.1-2,.3-3.2.1,0,.1.1.2.1-.2,1,0,2-.3,2.8.1.2-.1.4,0,.6ZM54.7,10.2s0-.2.1-.2c0,.1.1.2-.1.2ZM54.8,9.7c.1,0,.1.3,0,.3-.1-.2,0-.2,0-.3ZM54.7,10.3c.5.8-.1,1.7.1,2.4-.2-.1-.1-.4-.3-.4.2-.2.1-.5.2-1,0-.1-.2-.1-.2-.2-.1,0-.1.1-.3.1,0,.2.2.1.2.2,0,.2-.3.3-.2.5-.2,0-.3-.1-.4,0v.1c0,.1-.2,0-.2-.1-.1,0,.1.1,0,.2-.3.1-.1.3-.3.4,0,.1.3-.1.2.1.1,0,.1-.2.3-.1-.1-.2-.1,0-.2,0-.1-.1.1-.2.2-.2.2.1.3.3.5.3,0,.1-.1.1,0,.2-.1,0-.1-.1-.1,0-.1,0,0-.1,0-.2-.2.1,0,.2-.1.3.2,0,.2-.1.3,0,0,.1-.2,0-.2.1s.1,0,.2.1c0,.1-.1.1,0,.2-.3,0-.3-.3-.4-.3s-.1.1-.3.1c.1.1.2.2.4.2-.2.2,0,.2-.1.4.1.1.2.2.1.3-.1,0-.1-.1,0-.1-.2-.2-.5,0-.5.2.2,0,.1-.2.2-.1,0,.1-.1.2,0,.3.1,0,.2-.1.3-.1.1.1.2.4,0,.5,0,.1,0,.2.2.1-.3.1-.3.2-.6.3v.2c.2.2.6,0,.6.4-.1,0-.2,0-.2.1.2.3,0,.5.1.8-.2.1-.3.4-.6.4v-.3c.7.1.2-.2.4-.6-.1-.1-.2-.1-.3,0,.1.1,0,.1.1.2-.2.1-.2-.4-.5-.4v-.2c0-.1-.1,0-.1,0,.1-.4-1.1-.6-.1-.4.1-.1.4-.3.1-.4-.1.1-.2.1-.2.2-.1-.2-.3-.1-.4,0q.1-.1,0-.2c0-.1.1-.1.1-.2s-.1.1-.2,0c0-.1.1-.2,0-.3.2-.1.5-.3.3-.5.1,0,.2.1.3.2,0,.2,0,0-.1,0-.1.2.1,0,.1.1.1-.1.2-.3.1-.4.3-.1.4-.2.6-.4h-.5c0-.1-.2-.3-.1-.4.1,0,0,.1.1.1.2-.1.1-.3,0-.3.1-.2.1.1.2,0,0-.4-.7-.5-1-.4.1-.3.2-.5,0-.7.1-.1.4,0,.2.1.3,0-.1-.3-.2-.3.1-.1.3-.1.4-.1,0-.2-.3-.1-.3,0-.1,0-.1-.2-.1-.4.1.1.2.1.3,0,0-.1-.2-.1-.2-.2s.1-.2.3-.2c0,.2.2.1.3.2.1,0,.1-.2.2-.2,0,.1-.1.2-.2.3.1.2.1.1.1.2.2-.2.4-.2.6-.3.6.5.8-.2.8-.5ZM55,8.9c-.1.2,0,.6-.2.7,0-.3-.2-.6.2-.7ZM54.3,9.2c0,.2-.2.2-.4.2.2.1.1.2.3.3,0,.1-.1.1-.1.3-.1,0-.1-.1-.2-.1,0-.1.2-.1.2-.2-.1,0-.2.1-.3,0,0-.2.1-.4-.2-.3,0-.1.1-.1,0-.2.1-.1.2.1.3.1-.2-.2.4-.4.2-.7-.1,0-.1.1-.3,0,0,.2-.1.3-.2.4-.2,0-.1-.2-.2-.1.1-.1,0-.2.2-.3,0,.1-.1.1-.1.2h.1c.2-.3.2-.4-.1-.4-.2.1,0,.3-.2.4,0,.1.1,0,.2,0-.2.2-.5.3-.6.4-.1,0-.2-.1-.3-.2-.1,0-.1.1-.2.1,0-.1.1-.3,0-.3.1-.1.3,0,.4,0q0,.1-.1.1c0,.1.2.1.2.2.1,0-.1-.1,0-.2.2.1.1-.1.3-.2,0-.1-.1.2-.2,0,.2-.2-.2,0-.3-.2-.1.1-.2.2-.3.1,0-.1.1-.1.1-.1q-.1-.2-.3-.2c0,.1.1.1.2.1v.1c-.5-.3-1.1-.5-1.7-.5,0-.2.2,0,.3,0,.1-.2-.1-.1-.1-.2h.5c.1.1-.3,0-.3.1.4.2.9-.1,1.3.2.1-.1.2-.2.4-.1v.2c.1-.1.2-.1.4-.1v.1c.3-.3.6,0,.8-.2,0-.1-.2,0-.1-.2h.3v.2c.2,0,.5.4.5,0,.1.1.1.2.2.2,0-.1-.1-.1-.1-.1.2-.2.5-.2.8-.2.1,0,0,.2.1.2-.3.2-.7.2-1,.3-.2.1-.2.3-.4.3,0,.1.1.1,0,.2-.2-.1-.2.4-.2.1,0,0-.1,0-.1.1.1.1.2.1.3.1ZM57.1,19.3c-.1,0-.1-.2-.3-.2.1-.1.3,0,.3.2ZM57.4,19c0,.3-.2.2-.4.1.2-.3.2.1.4-.1ZM59.8,17.2c0-.1-.1-.3.1-.2.1.1.1.3-.1.2ZM58.2,18.8c-.1.3.2.1.1.3.1,0,.1-.2.3-.2-.1.1,0,.3.1.2.2-.3-.3-.1-.5-.3.9-.1.9-.6,1.4-.8,0,0-.2,0-.1-.1.2.1,0-.1.3-.1,0,.3,0,.6-.3.6,0,.2.1.2.1.4h-.1c.2.2-.3.4-.1.7.3-.1.3-.4.4-.7.3-.2.5-.7.5-1,.3-.2.4-.5.4-.8-.1-.1-.3-.2-.2-.4-.2-.2-.4-.3-.8-.3-.5.4-.6,1-.7,1.8.1.1.2-.1.2,0,0,.2-.1.3-.3.3v-.2c-.2,0-.3.1-.3.3.1,0,.2-.1.3,0-.1.1-.2.1-.3.2v-.2c-1.1.1-2.1.4-2.9.1-.9-.3-.5-1.6-.7-2.4.2-.3.1-.5.1-.8,0-2.3.1-4.4.3-6.6.4-.2.8-.3,1.2-.4,0,0,0-.2.1-.1,0-.1-.1-.1-.1-.1.1,0,.1-.1.2,0,0-.1-.2-.2,0-.2-.1-.1,0-.3-.1-.3,0,.2,0,.3-.1.3,0-.4-.2-.6-.3-.8-.4,0-1-.1-1.4,0-.3,0-.5.2-.8.2s-.7-.1-1-.1c-.8-.2-1.4-.2-2.1-.3-.3.2-.7.3-.8.6-.2,1.3,1.2,1,1.7,1.3-.1.8.3,1.6.2,2.3,0,.1.2.1.2.2-.3,0-.2.5-.3.7.1.1.2.1.3.1-.4.5-.2,1.2-.2,2-.4.3-.2,1.1,0,1.5-.3,1,.2,2.3-.3,3-.5,0-1.7,0-1.4.8.3.1.6.2.9.2s.7-.4.9,0c.5-.4,1.4-.1,1.9-.3q0,.1.1.1c.1,0,.1-.1.2-.1,0-.2-.2-.1-.3-.3.1-.1.3-.3.5-.2-.1.2,0,.4-.2.5.9.2,2.4.3,3.4.1-.1,0,0-.1,0-.2-.1-.1-.3.1-.3,0s.1,0,.1-.1c.1.1.2.1.3.1.1-.2-.1,0-.1-.1.2,0,.1-.2.3-.1.3.2-.2-.3.1-.3ZM61.7,7.7c-.1,0-.1-.1-.2,0,0-.1.1-.2.2,0,0-.1-.1-.1,0-.2.1.1,0,.1,0,.2ZM63.3,9.7c0,.1-.1,0-.1.1-.1-.1,0-.1-.1-.3h.1c.2,0-.1.2.1.2ZM66.7,19.1c.2,0,0-.2.2-.3.3.1.5.1.9.2,0-.1-.1-.1,0-.1.8-.1,1.5-.1,2.1-.4,0-.2.2-.3.4-.3,0-.2,0-.3-.1-.4.6,0,.4-.6.8-.7-.1.5-.4,2.2-.7,2.4-.2.1-.4,0-.6-.1-1.2.2-2-.1-3.2,0-.4-.3-1-.1-1.6-.2,0,.2.2,0,.2.1,0,0-.2,0-.1.1.7-.1.9.1,1.5,0,.1,0,0,.3.1.2.1,0-.1-.1.1-.1,1.3,0,2.4.3,3.8.2.1-.4.4-.7.5-1s.1-.7.2-.9c.1-.1.3-.2.4-.4.1-.2-.1-.3,0-.5-.2-.2-.4-.5-.8-.5-1.2,0-.7,1.9-1.7,2.3-.6.2-1.3.1-1.9,0-.7-.1-1.3,0-1.4-.6-.1-.4-.2-1.8,0-2.2-.2-.5.1-1.8-.1-2.5.2-1.5.1-3.1.3-4.5.7-.2,1.6-.3,1.5-1.1-.2-.8-1-.7-1.6-.8-.2,0-.2.1-.3.2-.6-.3-1.2.1-1.7,0-.5-.2-1.5-.5-2.2-.4-1,.2-.7,1.6,0,1.8.3.1.7-.1,1-.1.1.1.3.2.4.3,0,.1-.2.1-.2.3.2.5-.2.7,0,1.1-.2.6-.2,1.4-.1,2.1-.1.4-.2.9.1,1.2-.1.1-.1.2,0,.3-.1,0-.2,0-.2.1.2.6-.1,1,.1,1.5-.2,1.2.1,1.8,0,3.1,0,.1-.2.1-.2.1.2.3.4-.1.6-.3,0-.4.1-.5.2-.9-.1-.3,0-.7,0-1.2,0-.1.1-.1.1-.2-.3-.4,0-.9-.2-1.4.2-.7-.1-1.5.2-2.1-.2,0-.2-.3-.3-.4.2.1.2,0,.4,0,0-.2-.2-.1-.2-.2.2-.1,0-.3,0-.3.1-.1.1-.3.2-.3h-.1c.1-.3,0-.9,0-1.3,0-.1.1,0,.1-.1-.2-.4,0-.9-.1-1.3-.2-.2-.4-.3-.4-.5-.1-.1-.4.1-.5.2,0-.1-.2-.1-.2-.2h.1c-.2-.1-.5-.1-.7-.3,0-.1.1-.2.1-.2,1.3.4,2.4.2,3.8.3.3-.3,1-.4,1.4-.1,0,.1,0,.5-.2.5-.8,0-1.5.1-1.4,1-.1.1-.1.2-.2.3.2.1,0,.4,0,.6,0,.1.1.2.1.3-.1.6.1,1.1-.2,1.5.1.4.1,1.1,0,1.5.3.2,0,.5-.1.6.1.1.2-.1.2,0,0,.2-.2.1-.4.1v.2c0,.1.2-.2.3,0-.1.3,0,.4.2.6-.3,1.2-.4,2.5.3,3.6.4.1.6.2.9.4,0-.1-.1-.1,0-.1.1-.1.1.2.1.2ZM75,17c.2.2-.4.2-.3.4,0-.1.1,0,.2,0,0-.3.4-.1.4-.2-.2.1-.1-.2-.3-.2ZM73.4,18.9c.1,0,0,.2.1.2q0-.1-.1-.2c.3-.1.4-.4.5-.7,0-.1-.1-.4.2-.3-.2.1-.1.1,0,.2,0-.2.2-.4,0-.6,0-.1.1-.2.2-.2,0,.1-.1.1,0,.1,0-.1.3-.1.3-.2q-.3,0-.5-.1h.2c-.3-.1-.4-.3-.3-.6-.2,0-.1-.2-.2-.2.2-.2.2-.5.4-.7-.1,0-.1.1-.2.1-.1-.3,0-.4.1-.7-.4,0-.2-.3-.1-.5-.1-.2-.2-.5,0-.7-.2-.1-.1-.2,0-.4-.2-.1-.1-.2-.2-.4-.1,0-.3,0-.3-.2.2,0,.2.1.4,0-.2-.5-.2-.6.2-.9-.1,0-.2.1-.3,0,.1-.3,0-.5-.1-.8.2-.2,0-.3,0-.6-.1,0-.2,0-.2-.1.3.1.2-.2.3-.2,0-.1-.1-.1-.1-.3.3-.8-.2-1.1-.3-1.7-.4,0-.7-.3-1.1-.1,0-.2-.2-.2-.2-.4.3,0,.2-.3.2-.4.2,0,.2-.1.3-.1,0,.1,0,.2.1.2-.1,0-.1.1-.2.1,0,.2.2.1.1.3.3,0,.7,0,.8.2.1,0,.1-.1.3-.1.3,0,.9,0,1.2-.1.3.1,1.1.3,1.5,0-.1-.2.2-.4.4-.4.2.1.2.2.2.3-.1.1-.1.3,0,.4-.1.4-.8.4-1.3.4-.3.4-.4,1-.4,1.6,0,.8.1,1.6.2,2.4-.2.4,0,1,0,1.7-.2.2,0,.4,0,.7,0,.1-.1.1-.1.2.2.4,0,.9.1,1.4,0,.1-.1.1-.2.1.1,0,.1.1.1.1-.2.1-.6,0-.5.2.1,0,.4-.1.5,0-.1.2,0,.2,0,.4-.2-.1-.1,0-.2.1,0,.1.2,0,.2.1-.1.1-.1.2-.1.2,0-.1-.1-.1-.1,0,.3,0,.2.5.4.6-.1-.6.2-1-.1-1.5.3-1.4-.1-3.1.1-4.3-.3-.2,0-.5-.2-.7.3-.3.1-.6.1-1.1s.2-.9.2-1.3c0-.3-.1-.6.1-.8.3-.2.6-.1.8-.1.5-.1.6-.9.3-1.2-.4-.4-1.3,0-1.8-.1-.4.2-1.2-.1-1.6.1-.5-.3-1.8-.3-2.2.2q0,.2.1.3c-.3.5.8,1,1.2.6.4.2.5.5.6.6-.3.5-.1,1.2.1,1.6-.1.4-.3,1.1,0,1.6-.1.1-.1.2-.1.3,0,.2.1.3.2.5-.1,0-.1.2-.2.2.1,1-.1,2.2.1,3.2-.5.7.4,1.8-.3,2.3-.4-.1-1,0-1.2.3,0,.5,0,.8.5.8.1-.1-.1-.2,0-.3.2-.1.2.2.4.2.1,0,.2-.1.3-.2.2.1.5,0,.7.1,1-.5,2.2.2,3.2,0,.5-1-1.1-.4-1.4-1,0,.1-.1.1-.1.2.4.2.5.5,1,.5v-.2c.2,0,.3.1.3.2-.1,0,0,.2-.1.2-.8-.2-1.7-.2-2.4-.4-.3.3-.7-.1-1.1.1,0-.1-.1-.1-.1-.1-.2.1-.6.5-.7.1.4,0,.7-.2,1.1-.3ZM82.2,14.1c-.2,0-.1-.2-.3-.2,0,.1.1.1,0,.1,0,0-.1-.1-.1,0,.1.1.3,0,.4.1-.1.3,0,.2,0,.4-.1,0-.2.2-.2.3.1-.1.3-.1.3-.3-.2-.2-.1-.3-.1-.4ZM81.3,15.3c.3.1.9.2,1.1,0-.1,0-.2-.1-.3-.1-.2.2-.7-.1-.8.1ZM82.1,18.7c.1-.1.2,0,.3-.1h-.1c0,.1-.2,0-.2.1ZM82.1,10.2c.1,0,.1.1.2.1,0-.1.1-.1,0-.1.1-.1-.2-.1-.2,0ZM82.1,10.7c0,.1-.2,0-.3.2.1,0,0,.1,0,.1.3,0,.3.2.4.4.1,0,.2,0,.2-.1q-.1,0-.1-.1c0-.1.2,0,.2-.1-.2-.1,0-.2-.2-.2.1.1-.3.1-.3,0,.1-.1.2-.2.1-.2ZM81.7,12.3c.1.1.2,0,.3,0,0,.3-.4.2-.3,0ZM82,12.8c.2-.2.2.1.4-.1,0-.2-.1-.2-.1-.4.2-.1.3-.1.4,0v-.2c-.2,0-.3.2-.4.1.1-.1.1-.3.2-.3-.1-.1-.1,0-.2,0-.1-.1,0-.1,0-.2.1,0,.3,0,.3-.1-.2,0-.3.1-.4.1,0,.2.2.1.1.3-.3,0-.1.1-.3.2-.1-.1-.2-.1-.2-.2,0,0,.1,0,0-.1.1,0,.1.1.2,0,0-.3-.5-.1-.5.1.1,0,.3-.1.3,0,.1.2-.1.1-.1.2,0,.3.3.4.3.6ZM82.1,18.1c0,.2-.1,0-.2,0v-.1c-.1,0-.1.1-.1.1-.1,0-.1-.1-.2-.2.2.1.2,0,.4,0,0,.1-.2.2.1.2ZM82.5,16.9c0,.1-.1.1-.1.2-.1,0-.1-.1-.1-.2q.2-.1.2,0ZM86.7,13.4c0,.1.1,0,.1.1-.2.7.1,1.2-.1,1.7-.5-.4-.1-.8-.4-1.3.1,0,.1.1.2.1.1-.2-.2-.2,0-.3-.1-.1-.4,0-.6-.1.1-.2.6-.3.3-.6-.1.1-.2.2-.3,0,.1-.1.2-.3.4-.2.1-.4.1-.8.2-1.2.7-.1.2.5.2,1,.1.3.2.6,0,.8ZM83.4,13.3h-.1v.3q.1-.1.3-.1c0-.4.9.1,1.1,0,0,0-.1,0-.1-.1.2.1.4-.2.5.1v-.1c.2,0,.5.2.8.1,0,.1-.2.1-.3.1,0,.1.1.1.1.3-.3.1-.6-.1-1-.1-.8-.1-2-.2-1.8.6-.2.1-.2-.1-.4-.1,0,0-.1,0-.1.1s.2.1.2,0c.1.1.2.1.3.2-.2,0-.3,0-.5.1.1.1.2.2.1.3.2,0,.1,0,.1-.1.1,0,.2,0,.3.1,0,.1-.1.1,0,.2,0,.1-.2-.1-.4,0,0,.1.2.1.4.1,0,.2-.2.1-.3.1,0,.1.2.1.3.2-.1.4.1.5-.1.8q.1.2.1.3h-.2c0,.2.2.2.1.4-.1-.1-.3-.2-.5-.1,0-.1-.2-.1-.2-.3-.2.1-.3,0-.5.1.1-.1,0-.1,0-.2h.3c-.1-.2.1-.1,0-.3.1,0,.1.1.2.1,0-.1-.1-.1-.2-.1.1-.1.2-.2.3-.2,0-.1-.1-.1-.2-.1q-.1.1-.2,0c0,.4-.5.3-.6.7-.2-.4-.3-1.3-.1-1.6,0-.2-.2-.2-.1-.4.1-.1.1,0,.3,0,0-.1-.1-.1-.2-.2-.1-1-.2-2,.2-2.8-.1-.3-.1-.4-.2-.7.2,0,.1-.3.3-.2,0-.1-.1-.1-.2-.2.1-.2.3,0,.4,0s-.1-.1.1-.1c-.1-.2-.4,0-.6-.2.1-.2.2-.4,0-.5.1-.2,0-.7-.2-1-.2.1-.4,0-.5-.2-.1,0,0,0,0,0-.1.1-.3,0-.4.1,0-.2-.5-.2-.3-.6,2.5.4,4.9.1,7.5.2.1,0,.2-.1.3-.1.2,0,.3.1.4.1-.2.8.2,1.7,0,2.4-.1-.1-.1-.5-.3-.6h.1c0-.1-.1-.1-.2-.1.1-.3-.3-.3-.2-.6h-.2c0-.3-.2-.2-.4-.4-1.1-.1-2.5-.3-3.5-.2q-.1.1-.1.2c-.2,0-.2-.1-.3,0,0-.1-.1-.2-.3-.1,0,.1.1.1.2.2-.1,0-.2,0-.3.1v-.6c-.2.1-.3.2-.4.4.2-.2.7-.1,1.1-.3.1.2,0,.3-.1.4.5.3-.2,1-.3.4-.3.1-.4-.1-.6-.1-.1,0,0,.1,0,.2-.2,0-.2-.1-.1-.3-.1,0-.1.2-.2.3.2.2.3.3.6.2.1.1.3.1.3.3h.1c0-.1-.1-.2-.2-.2v-.1h0c.1.2.2.1.4,0-.1.1-.1.2.1.2,0,.1-.1.2-.1.3-.1,0-.1-.2-.3,0,.1.1.2.2.3.1-.2.3.2.7,0,.8,0,.1.1,0,.1,0-.1.1,0,.4-.2.3.1.1.1.3.1.3,0,.1-.1.1-.1,0,.1.1,0,.3,0,.4-.2.1-.3,0-.3,0,.3.2,0,.4-.1.6,0,.2.3.2.3.4.1,0,.1-.1.2-.1-.2-.2,0-.2-.3-.2.1-.2.3-.2.4-.2-.1.2,0,.3.1.5,0,.2.1-.2.2.1ZM82.4,19.2c-.2.1-.4-.1-.6-.1,0,.1-.2.2-.4.2.1-.1-.1-.2-.1-.1-.1-.1-.1-.3,0-.4-.1,0-.2,0-.4.1,0,.1.1.1.1.2-.1.5-1.1,0-1.4.4-.4.1-.6,0-.6-.4.6,0,1.2,0,1.6-.2,0,0,0-.1.1-.3.1,0,.1.1.2,0s.1-.2.2-.3c-.1-.3-.1-.8,0-1.2.1.1.3,0,.3-.2-.2-.1-.1.1-.3.1-.2-.3,0-.4-.1-.7.1,0,.2,0,.3-.1,0,.1-.1.1-.2.1v.1c.3-.2.4.1.8.1,0,.2-.2.1-.3.2,0,0,.1,0,.2.1,0,0,0-.1.1-.1.3.1.1.3.5.3.1.1,0,.2.2.2,0,.1-.1.1,0,.2-.1,0-.1.1-.2,0,0-.3-.3,0-.4-.2-.1,0,0,.2-.1.3-.1,0-.1-.1,0-.1,0-.1-.2-.1-.4-.1.1-.1.2-.3.3-.4,0-.1-.1-.2-.2-.2s0,.1-.2.1c.1.1-.1.1,0,.3,0,.2-.2,0-.2.1,0,.2.1.1,0,.2,0,.1.1-.1.2,0,0,.1-.1.1,0,.2-.4,0-.1.4-.3.6,0,.1.2.1.3.1s-.1-.2-.1-.3c0,0,.1,0,.1-.1.2.1.3.1.5.1,0,.1-.1,0-.1.1.1,0,.2,0,.2.2q.1-.2.4-.1c0-.1-.1-.1-.2-.1,0-.1.1-.1.1-.2.1.1.2.2.4.2.1-.1-.1-.3-.3-.2v-.1c-.1.1-.1,0-.3,0,.2-.3.6-.2.8-.3-.1.1.1.3-.1.2.1.1.3.2.1.4.5.2,1.2.5,1.9.5.5,0,1.4-.1,1.7.1.5-.4,1.1-.4,1.3-1,.5-.1.5-.7.7-1,0-.1-.1-.1-.1-.1,0-.2.3,0,.4,0-.2.9-.4,1.8-.8,2.5-.4-.1-.8.1-1.1-.1-.5,0-.7-.1-1.1.1-.5-.2-1-.2-1.6-.1-.4-.2-1.2-.1-1.8-.2,0-.1-.3-.2-.4-.1.2.5.3.5.4.5ZM81.9,19.5c.7,0,1.5,0,2-.1,1.3.3,2.9.1,4.4.3,0-.1.1-.1.1-.1,0-.3.4-.6.5-1,.1-.2,0-.5.1-.7.1-.3.4-.6.4-.8,0-.4-.4-.6-.7-.6-.8,0-.7,1.5-1.2,1.8-.3,0-.5.3-.8.3h-.5c-.4,0-.8.1-1.1.1-.7,0-1.4-.4-1.7-.7-.3-1.4-.1-2.6-.1-3.9.2-.3.7-.2,1.1-.1.7.1,1.4,0,1.7.5,0,.6.4,1.2,1,1.1.6-.1.2-.7.2-1.1-.1-1,.5-2.4.1-3.1-1.2-.5-1,1-1.5,1.3-.3.1-.6,0-1.1,0s-1.3.1-1.3-.4v-3.6c.3-.2.6,0,.9,0,.8.1,1.6-.1,2.2.1.7.3.6,1.3,1.2,1.7,1.1.2.8-.6.7-1.2,0-.6.1-1.4,0-1.8-.3-.2-.6-.1-1-.1-1.6.1-3.4-.2-4.8.1-.7-.1-2.9-1.1-3.3-.1-.1.2-.1.7.2.9.3.3.8.1,1.2.3.3.5.1,1.5.3,2.1-.1.7-.1,1.5,0,2.3,0,.2.1.5.1.7,0,.1-.1.2-.1.3s.1.2,0,.3v2.3c0,.3-.2.5-.2.8,0,.4.2.8-.2,1.1-.8-.2-2.1,0-1.4.9.7.3,1.6.1,2.6.1ZM91.9,10.3c.2-.1.1.2.2.2-.1-.1.1,0,.1-.1-.1,0-.2-.2-.3-.1ZM92.6,10.6c-.1,0-.3-.1-.3,0,.1,0,.2.1.1.2-.1-.1-.6-.1-.3-.1.1.1.3.1.5.1.1-.2,0-.1,0-.2ZM92.1,17.8v.3c-.1,0-.2-.2-.1-.3h.1ZM92.2,17.8c-.1.1,0-.1-.2-.1.2-.1,0-.3-.2-.3v-.1c.3.1.2,0,.2-.2,0-.1-.2,0-.1-.1-.1,0-.2.1-.2-.1.1,0,.1-.1.2,0,.1,0,0-.1,0-.2-.1,0-.1.2-.3.1,0-.2,0-.3-.1-.3,0-.1.2,0,.2-.1.4.5.5,1,.5,1.4ZM92.3,17.9v.2h-.2q.1-.2.2-.2ZM92.4,17.5v.2c-.1,0-.2,0-.2-.1.2,0,.2-.1.2-.1ZM92.7,17.9c0,.2.1.2.1.3-.2,0-.1-.3-.2-.2h0c-.2,0,0-.1.1-.1ZM92.7,18.3c.2,0-.1.2.2.2-.1.1-.1.2-.2.2,0,.2.1.1.3.1,0,.2-.2.2,0,.3,0,.1-.1.1-.1,0-.1,0,0,.1,0,.1-.3,0,0-.3-.3-.2q0-.1.1-.1l-.1-.1c-.2,0-.1.1-.3.1.1-.1-.1-.2-.2-.3,0-.1.1,0,.2-.1,0,.2.2.1.2.2.1-.2-.1-.2-.1-.5.1,0,.1-.1.3-.1,0,.1-.1.1,0,.2,0,.1,0,0,0,0ZM93.3,18.6s-.3.1-.5.2c-.2-.2.4-.1.2-.4.1.1.1,0,.2,0,.1.1-.1.2.1.2ZM93.4,18.8c-.1.1-.2,0-.3,0,0-.1.1-.1.2-.1-.1.1,0,.1.1.1ZM93.7,19.1c-.2-.1-.3,0-.4,0,0-.2.3,0,.4-.1-.1,0,0,0,0,.1ZM93.2,12.6v.3c-.1,0-.1-.1-.2,0,0-.1.1-.1.2-.1,0-.1,0-.2-.1-.2-.1-.2,0-.3.1-.4.1,0,.1.1.2.2-.1,0-.1-.1-.2-.1-.1.2-.1.4,0,.3ZM93.4,12.9c0,.1-.1.1-.1.2-.1,0-.1-.2.1-.2ZM93.4,11.9s-.3,0-.2.2q.1-.1.2,0c-.1.2-.3-.1-.5,0,.2,0,.3-.3.5-.2ZM93.8,12.4c0,.1-.1.2-.2.2.1.1,0,.1.1.3-.2,0-.3-.1-.4-.1v-.5c.1.1.3.1.5.1ZM93.9,12.8c0,.1-.1.1-.2.1,0-.3.1-.2.2-.1ZM94.4,19.3c.1.1.2-.1.2.1q-.1,0-.1.1c-.1,0-.1-.1-.2,0,0,.1.2-.1.1-.2ZM94.1,12.5v.1h-.2c-.1-.1.1-.1.2-.1ZM94.1,12.1c-.2-.1-.4.1-.6.1.1-.2.2-.3.2-.5.1,0,.3.1.4.1-.1.2.1.2,0,.3ZM94.4,12.3c0,.1-.1.2,0,.2,0,.1-.1,0-.2.1,0-.2,0-.3.2-.3ZM95.8,14.3c-.1.1-.1.3-.3.3-.1-.2.2-.2,0-.2,0-.2.2-.1.3-.1ZM96.6,18.8c.2.1-.1.1,0,.3-.1,0-.2,0-.2.1-.2-.2.2-.3.2-.4ZM97,18.8c-.1,0-.1-.1-.2-.1,0-.1.2,0,.2.1ZM97,18.3c0-.1.2,0,.2,0-.1.2,0,.3.1.4h-.3c0-.1.1-.1,0-.2-.1,0,0,.2-.2.1.1-.1.3-.2.2-.3ZM97.3,15.9c.1.2-.1.1-.1.2-.1,0-.2,0-.2-.1h.1c.1,0-.1-.1,0-.2q.1.1.2.1ZM97.4,15.7c-.1.2-.2,0-.4.1,0-.1,0-.2-.1-.2.2-.1.3.1.5.1ZM97.7,17.7c-.2-.2-.2.1-.4,0,0-.1.3-.1.3-.3.1.1.1.2.1.3ZM98,18c-.2.1-.5.4-.7.2.2,0,.2-.1.4-.2-.1-.2-.3-.1-.4,0-.1-.1,0-.1,0-.2.3,0,.3.3.7.2ZM96,14.3c0,.1-.1.2,0,.3,0,.1-.2,0-.3.1,0-.2.1-.4.3-.4ZM96.6,13.7h-.2c-.2-.3-.1-.3-.2-.6.2,0,.2.3.4.3,0,.1-.2.1-.2.1,0,.1.1,0,.1.1v-.1c.1,0,.1.1.1.1.1.1-.1,0,0,.1ZM96.5,14.4c.1-.2-.2-.4-.4-.4.1.1.2.3.4.3-.1.2-.2-.1-.4-.1,0,.1.3.5.4.2.3.2-.1.2,0,.4h.1c.1,0,0-.2.2-.1,0,.1-.1.1,0,.2h-.2c0,.1,0,.2.2.2,0,.1-.1.1-.2.1,0,.2.1.1.1.3-.1-.1-.1-.2-.1-.3-.1,0-.3,0-.4-.1v-.2c.1,0,.1-.1.3-.1-.1-.1-.2-.2-.4-.2.2-.2-.1-.3,0-.4-.1-.1-.1.2-.3.1v-.2c-.2-.1-.2.2-.5.3v-.1c.2,0,.1-.2.3-.2-.2-.1-.6-.1-.5,0-.1,0-.1-.1-.2,0,0-.1.2-.1.2-.2-.1,0,0-.2-.2-.2-.1,0,0,.1,0,.1-.2,0-.2-.1-.3,0,.1-.2-.4-.2-.5-.1,0-.1-.1-.1-.2-.3q-.1,0-.1.1c-.1,0-.1-.1-.1-.2-.1-.1-.2.1-.2,0,.1,0,0-.1.1-.2,0-.2-.1,0-.2-.1,0-.2.2,0,.3,0l-.1.1c.1.1.2,0,.3.1.1-.1,0-.1,0-.3.2,0,.1.1.1.3.1,0,.2,0,.4.1,0-.2-.2-.1-.2-.2.2,0,.2.1.4.1-.1.2,0,.1.1.3,0-.1.2-.2.2-.4-.3,0-.3-.1-.7-.1-.1-.1.1-.1.2-.1,0-.1-.2-.1-.2-.2.1,0,.3-.1.3,0,.1,0,0-.3.2-.2,0,.2-.1.1-.1.3.7.1.9-.2,1.5.2,0,.2-.2.1-.3.1s.1.1.1.1c0,.1,0,.2-.1.2q0-.1-.1-.1c-.1,0-.1.1-.1.2.1.2.2-.1.4-.1v.2c.1-.1,0-.3,0-.4.2.1.3.2.3.4h-.4c.1.1.2,0,.4.1,0,.1-.1,0-.1.1s.1,0,.2,0c.1.1,0,.2.1.3-.1-.1.6-.3.3-.5.1-.1.3.2.5.2,0,.2.1.1.2.2,0,.1-.1.1-.2.2,0,.1.1,0,.1,0v-.1c.4.1,0,.3.3.4,0,.1-.3.1-.4,0-.1,0-.1.1-.1.1-.3-.3-.5-.1-.7-.2ZM98,14.9c-.1,0-.1-.1-.2-.1,0-.1.2-.1.2-.2s-.3,0-.3,0c-.2-.1.1-.2.2-.2.1.2.1.3.1.5ZM98.3,17.3c-.1.1,0,.4-.2.3,0-.1.1-.1.1-.1-.1-.1-.2.2-.3,0,0-.1.1,0,.1-.1l-.1-.1c.1,0,.2,0,.4,0ZM98.5,17c0,.1-.1.1-.2.2-.1-.2,0-.2.2-.2ZM97.8,15.5c0,.2.2.1.2.2.1,0,.1-.2.3-.2,0,.1-.1,0-.1.1l.1.1c-.1-.1-.2.2-.3,0-.1,0,0,.1-.1.1,0,.1.1,0,.1,0v.1c-.1.1-.2,0-.3.1-.1-.1-.1-.3-.2-.3.1.1.2,0,.3-.2-.2-.1-.4-.1-.6-.1,0-.1-.1-.1-.1-.2-.1.2-.2-.1-.2.1-.1-.1,0-.3.2-.2,0-.2-.1-.1-.3-.1,0-.2.5-.1.5,0,.1-.2.1,0,.2,0-.1-.2-.2-.2-.4-.3v-.2c.1.1.3.1.5.1q-.1.1,0,.3c.1,0,0-.1.2-.1.1.1,0,.1,0,.2,0,0,.1-.1.2-.1,0,.1.1.1.1.1q-.1.1,0,.2c.1,0,.1-.1.1-.1.1,0,.2,0,.2.2-.4,0-.4.4-.6.2ZM98,16.3c.2,0,.3-.1.5-.1-.1.2-.2.1-.1.3-.1,0-.1.1-.2.2-.1,0-.3-.2-.4-.1q.1.1.2.3c.1,0,.1-.2.3-.2q0,.1.1.1c-.1,0-.1.2-.3.2,0,0-.1-.1-.1-.2-.1,0,0,.3-.1.4-.1,0-.2,0-.4.1,0-.2-.3-.1-.3-.3.1,0,.1.1.2,0,0-.1-.1-.2-.1-.3.1,0,.2.1.1.1h.1s0-.2.1-.2l-.1-.1c-.1,0,0,.1-.2.1-.1-.1-.1-.2-.3-.2,0-.2.3-.1.4-.2-.1-.1-.2-.2-.3-.1.1-.2.4-.1.5,0,0,.1,0,.2-.1.2.1.1.2.1.2.2.3.1.3,0,.3-.2ZM97.3,9.3s0,.1,0,0c-.2-.3-.7-.3-.8-.7,0,0,.2.1.2,0-.2-.1-.2-.2-.4,0-.3-.4-1.1,0-1.3-.3-.1,0,0,.2-.1.2-.6,0-1.2.5-1.3.8-.1,0-.1-.1-.2-.1,0,.1.2.1.1.2q-.1,0-.2.1c.1-.1-.1-.1-.2-.1.1.2-.1.4.1.4.1,0,0-.1.1-.1.1.2-.3.2-.3.4.2-.2.1.1.2.2.1-.1,0-.2-.1-.3.2,0,.2.3.1.5,0,0-.2-.1-.2,0,.1.2.2.3.3.4,0,.2-.3.2-.4.3.2,0,.3-.1.4,0,0,.1-.1.1-.1.1.1,0,.1-.1.2-.1,0,.1.2.3.3.4-.1.1-.2.3-.3.2,0-.1.1-.2-.1-.2,0,.1,0,.3-.1.4-.2,0,.1-.2-.2-.1-.1,0,.2.2,0,.3-.1-.1-.1-.2-.2-.3q-.2,0-.3-.1c0,.2.2.1.2.2-.2,0-.2.2-.1.3-.1,0-.2.1-.3.2.2-.1.1.2.3.1.1-.2-.2-.1-.2-.2.2.1.1,0,.3-.1.2.2-.2.3-.3.5.1-.3-.1-.2-.2-.3,0-.2,0-.3-.1-.5,0-.2.2,0,.2-.2-.1,0-.3.1-.4,0v-.2c.3-.2.3.2.5,0-.1-.2-.4-.1-.5-.3.1-.1.1-.2.1-.2.2.1.3.2.5.1-.2,0,0-.1-.1-.2-.1.1-.3,0-.2-.2.1,0,.2,0,.2-.1h-.4c-.1.1,0,.2,0,.2-.3-.3,0-.5-.1-.9.2-.1.2-.4.3-.6,0,0,.1,0,.2-.1v-.2c.1-.1.2-.1.3-.2.2-.2.1-.4.4-.5.2-.1.3-.2.5-.3.5-.2,1-.2,1.3-.2q0-.1.1-.1c.1,0,.1.1.2.1.7-.4,1.6.3,2.1-.2-.2,0-.3-.2-.4,0-.1-.2-.5-.1-.8-.2-.1,0-.2-.1-.3-.1-.6-.1-1.1.4-1.7.2-.2.1-.3.2-.5.4-.8.1-.9.8-1.5,1.1-.1.3-.2.5-.3.7.2.7-.2,1.9.4,2.4.3.8.8,1.2,1.3,1.7,1.1.1,1.5,1,2.5,1.3.7.6,1,1.5.9,2.6-.2.1-.1.4-.3.5-.2.1-.3.2-.4.3h-.2c-1,.7-2-.1-2.8-.5-.1-.4-.3-.6-.6-.8,0-.6-.4-1.5-1-1-.3.8.3,1.7.4,2.5.5.5,1.3.6,2.1.7,0-.1-.2-.2-.1-.2,1.3.8,3.4-.2,4.2-1,0-.6.6-.7.5-1.4.5-.8,0-1.7-.3-2.6-.2-.1-.3-.2-.5-.3-.4-.7-1-1.2-1.9-1.4-.7-.6-2-.9-2.2-1.9-.2-.8.2-1.7,1.1-1.9.7-.2,1.2.1,1.9.2.5.2.5,1.7,1.3,1.6.3-.1.3-.6.3-.9-.1-.5-.2-1-.3-1.7-.1-.2-.5-.3-.6-.1.1,0,.2,0,.2.1.2.7.2,1.6.5,2.3q-.1,0-.1.1c-.4,0-.3-.5-.4-.7-.3.1-.4-.3-.4-.4ZM19.4,7.4c0,.1-.1,0-.1.1h.2c0-.1-.1-.1-.1-.1ZM23.2,12.8c0,.1.1.1.1,0h-.1ZM34,7.6c0,.1.1.1.1.2.1-.1.1-.3-.1-.2ZM34.3,7.7h.2c0-.2-.2-.2-.2,0ZM44.8,21.9c-.2,0-.4.1-.4.3h.2c.1-.2.3-.1.2-.3ZM49.8,9.1c0,.1.2.3.3.1-.2.1-.2-.1-.3-.1ZM50.3,10.6h0c-.2-.1.1.2-.1.2.1,0,.1-.1.2,0,0-.1-.1-.1-.1-.2ZM50.3,9.7c0,.1.1.2,0,.3.2,0,.2-.3,0-.3ZM50.4,8.1c0,.1-.1.1-.1.2.2,0,.3-.2.1-.2ZM50.4,12.4c-.1.1.2.2.2.1,0-.1-.1-.2-.2-.1ZM50.6,20.4c.2,0,.3-.1.3-.2-.1,0-.2.1-.3.2ZM51.5,20.2c-.1-.1.2-.2.1-.3-.2,0-.4.2-.1.3ZM62.7,7.4c.1,0,.2,0,.2-.2-.1,0-.2.1-.2.2ZM63.1,10.3c-.1.1-.1.2,0,.3,0-.1.2-.2,0-.3ZM63.2,14.3c-.2,0-.2.4.1.3,0-.2.1-.3-.1-.3ZM63.9,7.6c.1,0,.2-.1.2-.2-.2,0-.2-.1-.3-.1,0,.1.1.2.1.3ZM66.2,6.3c0-.2-.1-.3-.2-.3,0,.2.1.3.2.3ZM68.3,18.4v-.1c-.1.2-.4,0-.5.2.5,0,.7,0,1.2.1,0-.1.1-.1,0-.1-.2-.3-.4-.2-.7-.1ZM69.1,17.8c-.1.1-.3-.1-.3.2.1,0,.2-.2.3,0,.1-.2,0-.1,0-.2ZM68.7,17.5c.2,0,.2.2.3.2q.1-.1.1-.3c-.1,0-.3,0-.4.1ZM73.7,20.6c-.2,0-.2.1-.2.2-.1-.1-.2-.1-.3-.2-.2.1-.3.2-.3.4.1.1.3.1.3.3h.6c0-.3,0-.4-.1-.7ZM64.1,19.4c.3,0,.4-.1.5-.2-.3-.1-.4.1-.5.2ZM74.5,16.5c-.1-.3-.4,0,0,0h0ZM74.3,16.7c.1.1.2,0,.3-.1-.1-.1-.2,0-.3.1ZM74.5,16.9c0,.1.3,0,.2-.1,0,0-.2-.1-.2.1ZM75,17.4c0,.1-.2.1-.2.1.1,0,.1.1.2.1.2,0,.1-.2,0-.2ZM75.1,18.7c.1,0,.1-.1.2-.2-.1-.1-.3.1-.2.2ZM81.5,16.8c.1,0,0,.1,0,.1.1,0,.1-.1.1-.2,0,.1-.1.1-.1.1ZM81.4,15.8c0-.1.2,0,.2-.1,0-.2-.3,0-.2.1ZM81.5,14.1c0,.2.1.2.2.2,0-.1.1-.1,0-.1,0-.1-.1-.1-.2-.1ZM81.8,18.7h.2v-.2c-.1.2-.3.1-.2.2ZM82.1,14.9c0,.2.3.1.3,0h-.3ZM82.1,8.3c.1,0,.1.1,0,.2h.2c-.1,0-.1-.3-.2-.2ZM82.5,11.4c.1,0,.1.1.2.1,0-.2-.2-.3-.2-.1ZM92.3,9.7c.2,0,0,.1.1.2,0-.1.1-.1.1-.2-.1-.1-.2-.1-.2,0ZM92.8,11.3q0-.1-.1-.1c0,.2-.1,0-.3.1-.1.1.1.2-.2.2,0,.2.2.2.4.1,0-.1-.1-.2,0-.3.1.1.2.1.3,0h-.1ZM92.5,9.2c.2,0,.3-.2.4-.3,0,0,.2.1.2,0-.2-.1.1,0,.1-.1-.3-.2-.5.2-.7.4ZM94.1,13.4c0,.3.6,0,.7.2-.1-.1-.1,0-.2.1h.3c-.2-.2.1-.3,0-.4-.1.4-.4.1-.8.1ZM94.5,12.9c0,.2.1.2.2.3,0-.1.3.2.3,0-.2-.1-.3-.2-.5-.3ZM95,13.8c0,.1.1.1.1.2.2-.2.4.2.5-.1-.3,0-.5-.2-.6-.1ZM95.9,14.9v.2c.1,0,.3,0,.2-.1-.2,0-.1-.2-.2-.1ZM96.3,14.1c.1,0,.2,0,.2-.2-.1,0-.2.1-.2.2ZM96.3,14.2c0-.1-.2-.2-.3-.1.1,0,0,.1.1.2q.1-.1.2-.1c-.1.1,0,.1.1.1-.1-.2.2-.1.2-.2-.1,0-.2.1-.3.1ZM97.1,17c.2,0,.2.1.1.2.1,0,.2,0,.2-.1-.1,0,.1-.1.1-.2-.1,0-.1-.1,0-.2-.1,0-.1-.1-.2-.1,0,.4-.1.3-.2.4ZM97.5,15.4c-.1-.1-.2-.1-.3-.1s-.1-.1-.2-.2q.1,0,.1.1c.2,0,.2-.1.3-.1,0,.2.1.2.1.3Z"/>
</svg>