<?xml version="1.0" encoding="UTF-8"?>
<svg id="Layer_1" xmlns="http://www.w3.org/2000/svg" version="1.1" viewBox="0 0 32 16">
  <!-- Generator: Adobe Illustrator 29.5.0, SVG Export Plug-In . SVG Version: 2.1.0 Build 137)  -->
  <defs>
    <style>
      .st0 {
        fill: #4f2c1d;
      }
    </style>
  </defs>
  <path class="st0" d="M2,12h28c1.105,0,2,.895,2,2h0c0,1.105-.895,2-2,2H2c-1.105,0-2-.895-2-2h0c0-1.105.895-2,2-2Z"/>
  <path class="st0" d="M2,0h28c1.105,0,2,.895,2,2h0c0,1.105-.895,2-2,2H2c-1.105,0-2-.895-2-2h0C0,.895.895,0,2,0Z"/>
</svg>