<?xml version="1.0" encoding="UTF-8"?>
<svg id="Layer_1" xmlns="http://www.w3.org/2000/svg" version="1.1" viewBox="0 0 78 42">
  <!-- Generator: Adobe Illustrator 29.5.0, SVG Export Plug-In . SVG Version: 2.1.0 Build 137)  -->
  <defs>
    <style>
      .st0 {
        fill: #4f2c1d;
        fill-rule: evenodd;
      }
    </style>
  </defs>
  <path class="st0" d="M68.7,19.5c1-.4,1.9-.8,2.8-1.4,1.7-1,2.4-2.5,1.8-3.6-.1-.2-.3-.2-.5,0-1.2,1-2.6,1.9-4.1,2.6-.2.1-.4,0-.4-.2v-3.5c0-.2.1-.6.2-.8l3-6.6c.1-.2.3-.6.5-.8.3-.3.6-.6,1-.7.1,0,.1-.1.1-.1h0v-1.2h0v-1.2h0v-.1h0c-.7.1-1.4.3-2.2.4l-.1.1c0,.1-.1.1-.1.2h0l-.1.1c-.1.2-.3.2-.4.1l-.2-.2q-.1-.1-.2-.1c-.5.1-.9.2-1.4.3h0c-.2,0-.4.1-.7.1h-.2v2.5l.1.1h.9c.2,0,.3.2.2.4l-1.7,3.7c-.1.2-.3.3-.4.1l-1.6-2.9c-.1-.2-.2-.4-.1-.6,0-.1.1-.1.2-.2.3,0,.5,0,.7-.1.1,0,.2-.1.1-.3-.1-.7-.1-1.4,0-2.1q0-.3-.1-.3c-.2,0-.5.1-.7.1-.5.1-.9.2-1.4.3-.1,0-.1.1-.2.1l-.1.1h0l-.1.1c-.1.2-.3.2-.4.1l-.2-.2s-.1-.1-.2-.1c-.7.1-1.4.3-2.1.4h0q-.1,0-.1.1v2.4q0,.1.1.1c.4-.1.7,0,1,.2.2.1.4.4.5.6l3.3,5.5c.1.2.2.5.2.7v.9h0v3.1c0,.2-.2.5-.3.6-.1,0-.2.1-.4.1h-.1c-1.2.4-3.6,1.3-4.5,3.1-1.2,2.5.2,5.5,2.9,5.4h.4c.2,0,.3,0,.4-.1.8-.2,1.6-.5,2.3-1.1h0c1.3-1.1,2-2.4,2-4v-1.7c.2-.1.4-.4.6-.5ZM46.3,9.4v-2.4h0q0-.1-.1-.1c-.2,0-.5.1-.7.1-.5.1-.9.2-1.4.3-.1,0-.1.1-.2.1-.1.1-.1.2-.2.3-.1.2-.3.2-.4.1q-.1-.1-.2-.2h0q-.1-.1-.2-.1c-.7.1-1.4.3-2.1.4-.1,0-.1.1-.1.2v2.1h0v.1h0v.3h.3c.3,0,.5,0,.7.1s.3.3.2.5l-.2,1.2c-.3,1.5-.6,2.9-.9,4.4-.2,1.1-.4,2.2-.6,3.3,0,.1,0,.2-.1.3,0,.2-.1.3-.1.3h0c-.2-.7-.3-1.3-.5-2h0c-.2-.7-.3-1.3-.5-2l-1.2-4.5c-.1-.3,0-.6.3-.7.2-.1.4-.1.5-.2.1,0,.2-.1.3-.1h0s.1-.2.1-.4v-1.8c0-.2,0-.4-.1-.4h0c-.7.1-1.4.3-2.1.4-.1,0-.1.1-.2.1-.1.1-.1.2-.2.3-.1.2-.3.2-.4.1.2-.5.1-.6,0-.7q-.1-.1-.2-.1c-.5.1-.9.2-1.4.3h0c-.2,0-.4.1-.6.1h-.1l-.1.1v2.7h.2c.3,0,.6-.1.8,0,.3.1.3.2.3.5-.3,1.1-.5,2.3-.7,3.4l-.1.6c-.2.7-.3,1.4-.5,2.2h0c-.2.9-.4,1.7-.6,2.6v.3c0,.2-.1.3-.1.3h0c-.4-1.7-.8-3.3-1.2-5l-.8-3.5c-.1-.4,0-.6.4-.8.2-.1.5-.2.8-.3.1,0,.2-.1.2-.2v-2.3h0c0-.1,0-.2-.2-.1-.6.1-1.2.2-1.8.3l-.3-.1c-.1,0-.2.1-.2.2-.1.1-.1.2-.2.3-.1.2-.3.2-.4.1q-.1-.1-.2-.2c0-.1-.1-.2-.2-.2-.6.1-1.2.2-1.8.3l-.3.1h-.1s-.1,0-.1.1h0v2.4q0,.1.1.1h.7c.3,0,.5.2.6.5l2.1,9.2c0,.2,0,.4-.2.5s-.3.2-.5.2c-.1,0-.1.1-.1.2v2.4q0,.1.2.1c.7-.1,1.4-.3,2.1-.4.1,0,.1-.1.2-.1.1-.1.1-.2.2-.3.1-.2.3-.2.4-.1s.1.2.2.2c0,0,.1.1.2.1.5-.1,1-.2,1.5-.3h0c.3,0,.5-.1.8-.1.1,0,.1-.1.2-.2v-.2c.1-.4.2-.8.2-1.1.2-.8.3-1.6.5-2.4s.3-1.6.5-2.4v-.2c0-.2.1-.3.1-.2v.1c.1.3.2.6.2,1h0c.1.4.2.8.3,1.2.1.5.2.9.3,1.4.2.8.4,1.7.6,2.5,0,.1.1.1.2.1.8-.1,1.5-.3,2.3-.4.1,0,.2-.1.2-.1.1-.1.1-.2.2-.3.1-.2.3-.2.4-.1q.1.1.2.2s.1.1.2.1c.6-.1,1.2-.2,1.8-.3h0l.3-.1q.1,0,.1-.1v-2.5q0-.1-.1-.1h-.3c-.4,0-.5-.2-.4-.6,0-.2.1-.3.1-.5v-.3l1.8-9c.1-.4.3-.6.6-.8.2-.1.4-.2.6-.2h0c.1-.1.2-.1.2-.2ZM41.1,28.1l3-.6c.2,0,.4,0,.4.1v.2c0,.8-.3,1.5-.9,2.1-.7.7-1.5,1.1-2.6,1.3-1,.2-1.9.1-2.5-.4-.6-.4-.9-1-.9-1.7s.3-1.4.9-2c.7-.7,1.5-1.1,2.5-1.3,1.3-.2,2.3,0,2.9.7h0s-.1.1-.3.2l-.6.4-.4.2h0c-.4-.3-1-.4-1.6-.3s-1.1.4-1.5.7c-.4.4-.6.8-.5,1.2,0,.5.2.8.7,1.1.4.2.8.2,1.4.1.5-.1.9-.3,1.2-.5.2-.1.3-.2.4-.4.2-.2.1-.3-.1-.3l-1.5.3c-.2,0-.4-.1-.4-.3v-.3c0-.2.2-.4.4-.5ZM36.6,32c.2,0,.3-.2.2-.4l-.8-1.1c-.1-.2-.1-.4.1-.5.5-.4.7-.9.7-1.5,0-.5-.2-.9-.5-1.1s-.8-.3-1.4-.2l-3.6.7c-.2,0-.4.3-.4.5v4.3c0,.2.2.4.4.3l.5-.1c.2,0,.4-.3.4-.5v-.9c0-.2.2-.4.4-.5l1.3-.2c.2,0,.5.1.6.2l.7.9c.1.2.4.3.6.2l.8-.1ZM29.5,31.5v-3c0-.2-.2-.4-.4-.3l-.5.1c-.2,0-.4.3-.4.5v2.8c0,.3-.1.5-.4.7s-.7.4-1.2.5-.9.1-1.2,0c-.3-.1-.4-.3-.4-.6v-2.8c0-.2-.2-.4-.4-.3l-.5.1c-.2,0-.4.3-.4.5v3c0,.6.3,1,.8,1.2.6.2,1.3.3,2.2.1.9-.2,1.6-.5,2.2-.9.4-.5.6-1,.6-1.6ZM35.4,28.7c0-.2-.1-.3-.2-.4-.1-.1-.3-.1-.5-.1l-2.2.4c-.2,0-.4.3-.4.5v.3c0,.2.2.4.4.3l2.2-.4c.2,0,.4-.1.5-.3.1,0,.2-.1.2-.3ZM22.6,33c0-.4-.1-.6-.4-.8-.2-.1-.2-.3-.1-.6.1-.2.2-.4.2-.7s-.1-.6-.4-.8c-.4-.3-.9-.5-1.4-.3l-3.8.7c-.2,0-.4.3-.4.5v4.3c0,.2.2.4.4.3l3.9-.7c.6-.1,1-.3,1.4-.7.5-.3.6-.7.6-1.2ZM17.8,31.8c0,.2.2.4.4.3l2.4-.5c.1,0,.2-.1.3-.2.1-.1.1-.2.1-.3s0-.2-.1-.3c-.1-.1-.2-.1-.3-.1l-2.4.4c-.3.3-.4.5-.4.7ZM21.1,32.9c.1.1.2.2.2.3,0,.2-.1.5-.6.6l-2.5.5c-.2,0-.4-.1-.4-.3v-.1c0-.2.2-.4.4-.5l2.5-.5c.1-.1.3-.1.4,0ZM23,27.5c-.9.5-1.9.7-2.9.9-.7.1-1.4.1-2.1,0-1.4-.2-2.2-1.1-2.5-2.5-.1-.4-.1-.8-.1-1.2v-8.1c0-.7.2-1.4.5-2,.4-.9,1.1-1.6,1.9-2,1-.6,2-.8,3.1-1,.7-.1,1.5-.1,2.2,0,1.3.2,2.1,1,2.4,2.3.1.4.1.8.2,1.2l.1,7.8c0,.7-.1,1.4-.3,2.1-.6,1.1-1.4,1.9-2.5,2.5ZM22.6,15.7c0,2.4,0,4.8.1,7.3,0,.2,0,.5-.1.8-.1.5-.4.9-.9,1.1-.8.5-1.6.6-2.5.5-.6-.1-.9-.5-1-1.1v-2.9h0v-4.7c0-.2,0-.5.1-.7.1-.5.3-.9.8-1.2,1-.6,1.9-.7,2.9-.4.4.1.5.4.6.8v.5ZM14.4,33.2c-.3,0-.5.1-.8,0s-.5-.3-.5-.7l-.1-19.8c0-.2.1-.4.2-.5h0c.1-.1.2-.2.3-.2.2-.1.4-.2.6-.2h0c.1,0,.1-.1.1-.2v-2.4q0-.1-.1-.1c-.2,0-.5.1-.7.1h0c-.5.1-.9.2-1.4.3-.1,0-.1.1-.2.1-.1.1-.1.2-.2.3-.1.2-.3.2-.4.1l-.2-.2q-.1-.1-.2-.1c-.3.1-.7.1-1,.2h0c-.3.1-.7.1-1,.2h-.1l-.1.1v.9h0v1.6q0,.2.2.2h.7c.3,0,.5.2.5.5l.1,6.7c0,.2-.2.4-.4.5l-3.4.6c-.1-.1-.3-.2-.3-.5l-.1-6.7c0-.4.1-.6.5-.7.2-.1.5-.2.8-.3.1,0,.1-.1.1-.2v-2.4q0-.1-.2-.1c-.7.1-1.4.3-2.1.4-.1,0-.2.1-.2.1l-.2.3c-.1.2-.3.2-.4.1q-.1-.1-.2-.2c.1,0,0,0-.1,0-.7.1-1.4.2-2.1.4h-.1v2.4q0,.1.1.1h.8c.3,0,.5.2.5.6l.2,19.9c0,.1,0,.2-.1.3-.1.2-.3.4-.6.5-.1,0-.2.1-.3.1-.3.3-.4.5-.4.7v2.2h.2c.7-.1,1.3-.2,2-.4.1,0,.1-.1.2-.1l.1-.1.1-.1c.1-.2.3-.2.4-.1.1,0,.1.1.2.2s.1.1.2.1c.3-.1.7-.1,1-.2.3-.1.7-.1,1-.2h0s.1,0,.1-.1h0v-2.4q0-.1-.1-.1c-.3,0-.5.1-.8,0s-.5-.3-.5-.7v-9.7c0-.2.2-.4.4-.5l3.4-.6c.2,0,.4.1.4.3l.1,9.7c0,.1,0,.2-.1.3-.1.2-.3.4-.5.5s-.4.1-.6.2c-.1,0-.2.1-.1.2v2.4h0v.2h0c.7-.1,1.5-.3,2.2-.4l.1-.1c0-.1.1-.1.1-.2h0s0-.1.1-.1c.1-.2.3-.2.4-.1q.1.1.2.2h0q.1.1.2.1l.3-.1h0c.6-.1,1.2-.2,1.8-.3h.1s.1,0,.1-.1h0v-2.4c0-.3-.1-.3-.2-.3ZM65.6,22.5v-1.9h0l-1.9.7c-.6.2-1.2.7-1.4,1.4-.1.2-.1.5,0,.7.1.7.6,1.1,1.2,1.2.4,0,.9-.1,1.3-.4.3-.5.8-1.2.8-1.7ZM47.5,28.8l3.4-.6c.2,0,.4.1.4.3v.3c0,.2-.2.4-.4.5l-4.8.9c-.2,0-.4-.1-.4-.3v-4.3c0-.2.2-.4.4-.5l4.6-.9c.2,0,.4.1.4.3v.3c0,.2-.2.4-.4.5l-3.3.6c-.2,0-.4.3-.4.5h0c0,.2.2.4.4.3l2-.4c.2,0,.4.1.4.3v.3c0,.2-.2.4-.4.5l-2,.4c-.2,0-.4.3-.4.5v.1c.1.3.3.4.5.4ZM58.5,27.5c.1.2,0,.3-.2.4l-.7.1c-.2,0-.5-.1-.6-.2l-.7-.9c-.1-.2-.4-.3-.6-.2l-1.3.2c-.2,0-.4.3-.4.5v.9c0,.2-.2.4-.4.5l-.6.1c-.2,0-.4-.1-.4-.3v-4.3c0-.2.2-.4.4-.5l3.6-.7c.6-.1,1,0,1.4.2.4.3.5.6.5,1.1,0,.6-.2,1.1-.7,1.5-.2.2-.3.4-.1.5l.8,1.1ZM57,24.3c.1.1.2.2.2.4s-.1.3-.2.5c-.1.1-.3.2-.5.3l-2.2.4c-.2,0-.4-.1-.4-.3v-.3c0-.2.2-.4.4-.5l2.2-.4c.2-.2.4-.2.5-.1ZM59.2,8.9l.1,7.9c0,.6-.1,1.2-.3,1.8-.3.9-.9,1.6-1.7,2.1s-1.6.8-2.5,1c-.5.1-1.1.2-1.6.3-.2,0-.5.1-.7.1s-.4.1-.6.1-.4.1-.6.1c-.1,0-.2,0-.2-.1q-.1-.1-.2-.2c-.1-.1-.3-.1-.4.1-.1.1-.1.2-.2.3,0,.1-.1.1-.2.1-.5.1-.9.2-1.4.3-.2,0-.5.1-.7.1q-.1,0-.1-.1v-2.4c0-.1,0-.2.1-.2.3-.1.6-.1.8-.3.2-.2.4-.3.4-.6l-.2-9.4c0-.4-.2-.6-.5-.7h-.7q-.1,0-.1-.1v-2.4c0-.1,0-.2.1-.2.6-.1,1.2-.2,1.8-.3l.3-.1q.1,0,.2.1l.1.1h0l.1.1c.1.1.3.1.4-.1l.1-.1h0l.1-.1c0-.1.1-.1.2-.1.3-.1.5-.1.8-.2.9-.2,1.9-.4,2.8-.5.9-.1,1.7-.1,2.5.1,1.1.3,1.8,1.2,2,2.4-.1.3-.1.7,0,1.1ZM56.3,9.6c0,2.4,0,4.7.1,7.1,0,.7-.3,1.2-.9,1.7-.6.5-1.3.7-2,.8h-.4c-.6,0-1-.4-1.1-1,0-.2-.1-.5-.1-.7v-7.2c0-.4.1-.8.3-1.2.1-.3.3-.5.6-.7.8-.4,1.6-.6,2.5-.4.6.3,1,.8,1,1.6Z"/>
</svg>