<?xml version="1.0" encoding="utf-8"?>
<!-- Generator: Adobe Illustrator 26.0.2, SVG Export Plug-In . SVG Version: 6.00 Build 0)  -->
<svg version="1.1" id="Layer_1" xmlns="http://www.w3.org/2000/svg" xmlns:xlink="http://www.w3.org/1999/xlink" x="0px" y="0px"
	 width="78px" height="42px" viewBox="0 0 78 42" style="enable-background:new 0 0 78 42;" xml:space="preserve">
<style type="text/css">
	.st0{fill-rule:evenodd;clip-rule:evenodd;fill:#FFFFFF;}
</style>
<path class="st0" d="M68.7,19.5c1-0.4,1.9-0.8,2.8-1.4c1.7-1,2.4-2.5,1.8-3.6c-0.1-0.2-0.3-0.2-0.5,0c-1.2,1-2.6,1.9-4.1,2.6
	c-0.2,0.1-0.4,0-0.4-0.2c0-0.9,0-3,0-3.5c0-0.2,0.1-0.6,0.2-0.8L71.5,6c0.1-0.2,0.3-0.6,0.5-0.8c0.3-0.3,0.6-0.6,1-0.7
	c0.1,0,0.1-0.1,0.1-0.1c0,0,0,0,0,0c0-0.4,0-0.8,0-1.2v0v0v0v0v0v0l0,0c0-0.4,0-0.8,0-1.2c0,0,0,0,0,0c0,0,0,0,0,0c0,0,0-0.1,0-0.1
	c0,0,0,0,0,0c0,0,0,0,0,0c-0.7,0.1-1.4,0.3-2.2,0.4c0,0-0.1,0.1-0.1,0.1c0,0.1-0.1,0.1-0.1,0.2l0,0c0,0-0.1,0.1-0.1,0.1
	c-0.1,0.2-0.3,0.2-0.4,0.1l-0.2-0.2c-0.1-0.1-0.1-0.1-0.2-0.1c-0.5,0.1-0.9,0.2-1.4,0.3l0,0c-0.2,0-0.4,0.1-0.7,0.1l-0.1,0
	c0,0-0.1,0-0.1,0c0,0,0,0,0,0l0,0v0l0,0v0v0v0l0,0c0,0.8,0,1.7,0,2.5c0,0,0.1,0.1,0.1,0.1c0,0,0.1,0,0.1,0c0,0,0,0,0.1,0
	c0.1,0,0.1,0,0.2,0c0.2,0,0.3,0,0.5,0c0.2,0,0.3,0.2,0.2,0.4L67,9.6c-0.1,0.2-0.3,0.3-0.4,0.1L65,6.8c-0.1-0.2-0.2-0.4-0.1-0.6
	c0-0.1,0.1-0.1,0.2-0.2C65.4,6,65.6,6,65.8,5.9c0.1,0,0.2-0.1,0.1-0.3c-0.1-0.7-0.1-1.4,0-2.1c0-0.3,0-0.3-0.1-0.3
	c-0.2,0-0.5,0.1-0.7,0.1c-0.5,0.1-0.9,0.2-1.4,0.3c-0.1,0-0.1,0.1-0.2,0.1c0,0-0.1,0.1-0.1,0.1l0,0c0,0-0.1,0.1-0.1,0.1
	c-0.1,0.2-0.3,0.2-0.4,0.1l-0.2-0.2c0,0-0.1-0.1-0.2-0.1c-0.7,0.1-1.4,0.3-2.1,0.4l0,0c-0.1,0-0.1,0-0.1,0.1c0,0.8,0,1.6,0,2.4
	c0,0.1,0,0.1,0.1,0.1c0.4-0.1,0.7,0,1,0.2c0.2,0.1,0.4,0.4,0.5,0.6l3.3,5.5c0.1,0.2,0.2,0.5,0.2,0.7c0,0.2,0,0.5,0,0.9l0,0
	c0,1,0,2.3,0,3.1c0,0.2-0.2,0.5-0.3,0.6c-0.1,0-0.2,0.1-0.4,0.1l-0.1,0c-1.2,0.4-3.6,1.3-4.5,3.1c-1.2,2.5,0.2,5.5,2.9,5.4l0,0
	c0.1,0,0.3,0,0.4,0c0.2,0,0.3,0,0.4-0.1c0.8-0.2,1.6-0.5,2.3-1.1l0,0c1.3-1.1,2-2.4,2-4l0-1.7C68.3,19.9,68.5,19.6,68.7,19.5z
	 M46.3,9.4c0-0.8,0-1.6,0-2.4v0c0-0.1,0-0.1-0.1-0.1c-0.2,0-0.5,0.1-0.7,0.1c-0.5,0.1-0.9,0.2-1.4,0.3c-0.1,0-0.1,0.1-0.2,0.1
	c-0.1,0.1-0.1,0.2-0.2,0.3c-0.1,0.2-0.3,0.2-0.4,0.1c-0.1-0.1-0.1-0.1-0.2-0.2l0,0c-0.1-0.1-0.1-0.1-0.2-0.1
	c-0.7,0.1-1.4,0.3-2.1,0.4c-0.1,0-0.1,0.1-0.1,0.2c0,0.7,0,1.4,0,2.1v0c0,0,0,0.1,0,0.1v0c0,0.1,0,0.2,0,0.3c0,0,0.1,0,0.2,0
	c0,0,0.1,0,0.1,0c0.3,0,0.5,0,0.7,0.1c0.2,0.1,0.3,0.3,0.2,0.5l-0.2,1.2c-0.3,1.5-0.6,2.9-0.9,4.4c-0.2,1.1-0.4,2.2-0.6,3.3
	c0,0.1,0,0.2-0.1,0.3c0,0.2-0.1,0.3-0.1,0.3c0,0,0,0,0,0c0,0,0,0,0,0c-0.2-0.7-0.3-1.3-0.5-2l0,0l0,0l0,0l0,0l0,0l0,0l0,0l0,0l0,0
	l0,0c-0.2-0.7-0.3-1.3-0.5-2l-1.2-4.5c-0.1-0.3,0-0.6,0.3-0.7c0.2-0.1,0.4-0.1,0.5-0.2c0.1,0,0.2-0.1,0.3-0.1c0,0,0,0,0,0
	c0,0,0,0,0,0c0,0,0.1-0.2,0.1-0.4l0-1.8c0-0.2,0-0.4-0.1-0.4c0,0,0,0,0,0c-0.7,0.1-1.4,0.3-2.1,0.4c-0.1,0-0.1,0.1-0.2,0.1
	c-0.1,0.1-0.1,0.2-0.2,0.3c-0.1,0.2-0.3,0.2-0.4,0.1C36.2,9,36.1,8.9,36,8.8c-0.1-0.1-0.1-0.1-0.2-0.1c-0.5,0.1-0.9,0.2-1.4,0.3v0
	l0,0l0,0v0h0v0l0,0l0,0v0l0,0l0,0l0,0l0,0c-0.2,0-0.4,0.1-0.6,0.1c0,0,0,0-0.1,0c0,0-0.1,0.1-0.1,0.1v0.1c0,0.8,0,1.5,0,2.3l0,0.1
	c0,0.1,0,0.1,0,0.2c0,0,0.1,0,0.1,0c0,0,0.1,0,0.1,0c0.3,0,0.6-0.1,0.8,0c0.3,0.1,0.3,0.2,0.3,0.5c-0.3,1.1-0.5,2.3-0.7,3.4
	l-0.1,0.6c-0.2,0.7-0.3,1.4-0.5,2.2l0,0l0,0l0,0c-0.2,0.9-0.4,1.7-0.6,2.6c0,0.1,0,0.1,0,0.2c0,0,0,0.1,0,0.1c0,0.2-0.1,0.3-0.1,0.3
	c0,0,0,0,0,0l0,0c-0.4-1.7-0.8-3.3-1.2-5l-0.8-3.5c-0.1-0.4,0-0.6,0.4-0.8c0.2-0.1,0.5-0.2,0.8-0.3c0.1,0,0.2-0.1,0.2-0.2
	c0-0.8,0-1.6,0-2.3l0,0c0-0.1,0-0.2-0.2-0.1c-0.6,0.1-1.2,0.2-1.8,0.3L30,9.8c-0.1,0-0.2,0.1-0.2,0.2c-0.1,0.1-0.1,0.2-0.2,0.3
	c-0.1,0.2-0.3,0.2-0.4,0.1c-0.1-0.1-0.1-0.1-0.2-0.2C29,10.1,28.9,10,28.8,10c-0.6,0.1-1.2,0.2-1.8,0.3l-0.3,0.1l-0.1,0
	c0,0-0.1,0-0.1,0.1c0,0,0,0,0,0l0,0c0,0,0,0,0,0c0,0.4,0,0.8,0,1.2c0,0.4,0,0.8,0,1.2c0,0.1,0,0.1,0.1,0.1c0,0,0.1,0,0.1,0l0,0
	c0.2,0,0.4,0,0.6,0c0.3,0,0.5,0.2,0.6,0.5l2.1,9.2c0,0.2,0,0.4-0.2,0.5c-0.2,0.1-0.3,0.2-0.5,0.2c-0.1,0-0.1,0.1-0.1,0.2
	c0,0.8,0,1.6,0,2.4c0,0.1,0,0.1,0.2,0.1c0.7-0.1,1.4-0.3,2.1-0.4c0.1,0,0.1-0.1,0.2-0.1c0.1-0.1,0.1-0.2,0.2-0.3
	c0.1-0.2,0.3-0.2,0.4-0.1c0.1,0.1,0.1,0.2,0.2,0.2c0,0,0.1,0.1,0.2,0.1c0.5-0.1,1-0.2,1.5-0.3h0l0,0h0l0,0l0,0l0,0h0l0,0l0,0h0l0,0
	h0c0.3,0,0.5-0.1,0.8-0.1c0.1,0,0.1-0.1,0.2-0.2l0-0.2c0.1-0.4,0.2-0.8,0.2-1.1c0.2-0.8,0.3-1.6,0.5-2.4c0.2-0.8,0.3-1.6,0.5-2.4
	c0,0,0-0.1,0-0.1c0,0,0-0.1,0-0.1c0-0.2,0.1-0.3,0.1-0.2c0,0,0,0.1,0,0.1c0.1,0.3,0.2,0.6,0.2,1l0,0l0,0c0.1,0.4,0.2,0.8,0.3,1.2
	c0.1,0.5,0.2,0.9,0.3,1.4c0.2,0.8,0.4,1.7,0.6,2.5c0,0.1,0.1,0.1,0.2,0.1c0.8-0.1,1.5-0.3,2.3-0.4c0.1,0,0.2-0.1,0.2-0.1
	c0.1-0.1,0.1-0.2,0.2-0.3c0.1-0.2,0.3-0.2,0.4-0.1c0.1,0.1,0.1,0.1,0.2,0.2c0,0,0.1,0.1,0.2,0.1c0.6-0.1,1.2-0.2,1.8-0.3l0,0h0h0
	l0,0l0.3-0.1c0.1,0,0.1,0,0.1-0.1c0-0.8,0-1.7,0-2.5c0-0.1,0-0.1-0.1-0.1c-0.1,0-0.2,0-0.3,0c-0.4,0-0.5-0.2-0.4-0.6
	c0-0.2,0.1-0.3,0.1-0.5c0-0.1,0-0.2,0-0.3l1.8-9c0.1-0.4,0.3-0.6,0.6-0.8c0.2-0.1,0.4-0.2,0.6-0.2l0,0C46.2,9.5,46.3,9.5,46.3,9.4z
	 M41.1,28.1l3-0.6c0.2,0,0.4,0,0.4,0.1v0.2c0,0.8-0.3,1.5-0.9,2.1c-0.7,0.7-1.5,1.1-2.6,1.3c-1,0.2-1.9,0.1-2.5-0.4
	c-0.6-0.4-0.9-1-0.9-1.7c0-0.7,0.3-1.4,0.9-2c0.7-0.7,1.5-1.1,2.5-1.3c1.3-0.2,2.3,0,2.9,0.7l0,0c0,0-0.1,0.1-0.3,0.2L43,27.1
	c-0.2,0.1-0.4,0.2-0.4,0.2l0,0C42.2,27,41.6,26.9,41,27c-0.6,0.1-1.1,0.4-1.5,0.7c-0.4,0.4-0.6,0.8-0.5,1.2c0,0.5,0.2,0.8,0.7,1.1
	c0.4,0.2,0.8,0.2,1.4,0.1c0.5-0.1,0.9-0.3,1.2-0.5c0.2-0.1,0.3-0.2,0.4-0.4c0.2-0.2,0.1-0.3-0.1-0.3l-1.5,0.3
	c-0.2,0-0.4-0.1-0.4-0.3v-0.3C40.7,28.4,40.9,28.2,41.1,28.1z M36.6,32c0.2,0,0.3-0.2,0.2-0.4l-0.8-1.1c-0.1-0.2-0.1-0.4,0.1-0.5
	c0.5-0.4,0.7-0.9,0.7-1.5c0-0.5-0.2-0.9-0.5-1.1c-0.3-0.2-0.8-0.3-1.4-0.2l-3.6,0.7c-0.2,0-0.4,0.3-0.4,0.5l0,4.3
	c0,0.2,0.2,0.4,0.4,0.3l0.5-0.1c0.2,0,0.4-0.3,0.4-0.5l0-0.9c0-0.2,0.2-0.4,0.4-0.5l1.3-0.2c0.2,0,0.5,0.1,0.6,0.2l0.7,0.9
	c0.1,0.2,0.4,0.3,0.6,0.2L36.6,32z M29.5,31.5l0-3c0-0.2-0.2-0.4-0.4-0.3l-0.5,0.1c-0.2,0-0.4,0.3-0.4,0.5l0,2.8
	c0,0.3-0.1,0.5-0.4,0.7c-0.3,0.2-0.7,0.4-1.2,0.5c-0.5,0.1-0.9,0.1-1.2,0c-0.3-0.1-0.4-0.3-0.4-0.6l0-2.8c0-0.2-0.2-0.4-0.4-0.3
	l-0.5,0.1c-0.2,0-0.4,0.3-0.4,0.5l0,3c0,0.6,0.3,1,0.8,1.2c0.6,0.2,1.3,0.3,2.2,0.1c0.9-0.2,1.6-0.5,2.2-0.9
	C29.3,32.6,29.5,32.1,29.5,31.5z M35.4,28.7c0-0.2-0.1-0.3-0.2-0.4c-0.1-0.1-0.3-0.1-0.5-0.1l-2.2,0.4c-0.2,0-0.4,0.3-0.4,0.5v0.3
	c0,0.2,0.2,0.4,0.4,0.3l2.2-0.4c0.2,0,0.4-0.1,0.5-0.3C35.3,29,35.4,28.9,35.4,28.7z M22.6,33c0-0.4-0.1-0.6-0.4-0.8
	c-0.2-0.1-0.2-0.3-0.1-0.6c0.1-0.2,0.2-0.4,0.2-0.7c0-0.3-0.1-0.6-0.4-0.8c-0.4-0.3-0.9-0.5-1.4-0.3l-3.8,0.7
	c-0.2,0-0.4,0.3-0.4,0.5l0,4.3c0,0.2,0.2,0.4,0.4,0.3l3.9-0.7c0.6-0.1,1-0.3,1.4-0.7C22.5,33.9,22.6,33.5,22.6,33z M17.8,31.8
	c0,0.2,0.2,0.4,0.4,0.3l2.4-0.5c0.1,0,0.2-0.1,0.3-0.2c0.1-0.1,0.1-0.2,0.1-0.3c0-0.1,0-0.2-0.1-0.3c-0.1-0.1-0.2-0.1-0.3-0.1
	l-2.4,0.4C17.9,31.4,17.8,31.6,17.8,31.8z M21.1,32.9c0.1,0.1,0.2,0.2,0.2,0.3c0,0.2-0.1,0.5-0.6,0.6l-2.5,0.5
	c-0.2,0-0.4-0.1-0.4-0.3v-0.1c0-0.2,0.2-0.4,0.4-0.5l2.5-0.5C20.8,32.8,21,32.8,21.1,32.9z M23,27.5c-0.9,0.5-1.9,0.7-2.9,0.9
	c-0.7,0.1-1.4,0.1-2.1,0c-1.4-0.2-2.2-1.1-2.5-2.5c-0.1-0.4-0.1-0.8-0.1-1.2c0-0.3,0-0.6,0-0.9c0-0.2,0-0.3,0-0.5l0-6.7
	c0-0.7,0.2-1.4,0.5-2c0.4-0.9,1.1-1.6,1.9-2c1-0.6,2-0.8,3.1-1c0.7-0.1,1.5-0.1,2.2,0c1.3,0.2,2.1,1,2.4,2.3
	c0.1,0.4,0.1,0.8,0.2,1.2l0.1,7.8c0,0.7-0.1,1.4-0.3,2.1C24.9,26.1,24.1,26.9,23,27.5z M22.6,15.7c0,2.4,0,4.8,0.1,7.3
	c0,0.2,0,0.5-0.1,0.8c-0.1,0.5-0.4,0.9-0.9,1.1c-0.8,0.5-1.6,0.6-2.5,0.5c-0.6-0.1-0.9-0.5-1-1.1c0-0.2,0-0.5,0-0.7
	c0-0.7,0-1.5,0-2.2v0c0-0.4,0-0.7,0-1.1c0-1.2,0-2.4,0-3.6c0-0.2,0-0.5,0.1-0.7c0.1-0.5,0.3-0.9,0.8-1.2c1-0.6,1.9-0.7,2.9-0.4
	c0.4,0.1,0.5,0.4,0.6,0.8C22.6,15.3,22.6,15.6,22.6,15.7z M14.4,33.2c-0.3,0-0.5,0.1-0.8,0c-0.3-0.1-0.5-0.3-0.5-0.7L13,12.7
	c0-0.2,0.1-0.4,0.2-0.5l0,0v0c0.1-0.1,0.2-0.2,0.3-0.2c0.2-0.1,0.4-0.2,0.6-0.2l0,0l0,0c0.1,0,0.1-0.1,0.1-0.2c0-0.8,0-1.6,0-2.4
	c0-0.1,0-0.1-0.1-0.1c-0.2,0-0.5,0.1-0.7,0.1v0l0,0l0,0l0,0l0,0c-0.5,0.1-0.9,0.2-1.4,0.3c-0.1,0-0.1,0.1-0.2,0.1
	c-0.1,0.1-0.1,0.2-0.2,0.3c-0.1,0.2-0.3,0.2-0.4,0.1c-0.1-0.1-0.1-0.1-0.2-0.2c-0.1-0.1-0.1-0.1-0.2-0.1c-0.3,0.1-0.7,0.1-1,0.2l0,0
	l0,0l0,0l0,0l0,0l0,0l0,0l0,0c-0.3,0.1-0.7,0.1-1,0.2l-0.1,0c0,0-0.1,0.1-0.1,0.1v0.1c0,0.3,0,0.5,0,0.8l0,0l0,0l0,0l0,0v0l0,0l0,0
	c0,0.5,0,1,0,1.6c0,0.2,0,0.2,0.2,0.2c0.2,0,0.5,0,0.7,0c0.3,0,0.5,0.2,0.5,0.5l0.1,6.7c0,0.2-0.2,0.4-0.4,0.5l-3.4,0.6
	C6.2,21.1,6,21,6,20.7l-0.1-6.7c0-0.4,0.1-0.6,0.5-0.7c0.2-0.1,0.5-0.2,0.8-0.3c0.1,0,0.1-0.1,0.1-0.2c0-0.8,0-1.6,0-2.4
	c0-0.1,0-0.1-0.2-0.1c-0.7,0.1-1.4,0.3-2.1,0.4c-0.1,0-0.2,0.1-0.2,0.1l-0.2,0.3c-0.1,0.2-0.3,0.2-0.4,0.1c-0.1-0.1-0.1-0.1-0.2-0.2
	C4.1,11,4,11,3.9,11c-0.7,0.1-1.4,0.2-2.1,0.4c0,0,0,0,0,0s0,0,0,0c0,0-0.1,0-0.1,0c0,0,0,0,0,0l0,0h0c0,0,0,0,0,0
	c0,0.4,0,0.8,0,1.2c0,0.4,0,0.8,0,1.2c0,0.1,0,0.1,0.1,0.1c0.1,0,0.1,0,0.2,0c0.2,0,0.4,0,0.6,0c0.3,0,0.5,0.2,0.5,0.6l0.2,19.9
	c0,0.1,0,0.2-0.1,0.3c-0.1,0.2-0.3,0.4-0.6,0.5c-0.1,0-0.2,0.1-0.3,0.1C2,35.6,1.9,35.8,1.9,36l0,1.8c0,0.2,0,0.4,0,0.4c0,0,0,0,0,0
	l0.2,0c0.7-0.1,1.3-0.2,2-0.4c0.1,0,0.1-0.1,0.2-0.1c0,0,0.1-0.1,0.1-0.1c0,0,0.1-0.1,0.1-0.1c0.1-0.2,0.3-0.2,0.4-0.1
	C5,37.4,5,37.5,5.1,37.6c0.1,0.1,0.1,0.1,0.2,0.1c0.3-0.1,0.7-0.1,1-0.2c0.3-0.1,0.7-0.1,1-0.2c0,0,0,0,0,0c0,0,0,0,0,0
	c0,0,0.1,0,0.1-0.1c0,0,0,0,0,0c0,0,0,0,0,0c0-0.4,0-0.8,0-1.2c0-0.4,0-0.8,0-1.2c0-0.1,0-0.1-0.1-0.1c-0.3,0-0.5,0.1-0.8,0
	c-0.3-0.1-0.5-0.3-0.5-0.7L6,24.3c0-0.2,0.2-0.4,0.4-0.5l3.4-0.6c0.2,0,0.4,0.1,0.4,0.3l0.1,9.7c0,0.1,0,0.2-0.1,0.3
	c-0.1,0.2-0.3,0.4-0.5,0.5c-0.2,0.1-0.4,0.1-0.6,0.2c-0.1,0-0.2,0.1-0.1,0.2c0,0.8,0,1.6,0,2.4v0l0,0v0v0v0v0v0l0,0c0,0,0,0,0,0.1
	c0,0,0,0.1,0,0.1h0c0.7-0.1,1.5-0.3,2.2-0.4c0,0,0.1-0.1,0.1-0.1c0-0.1,0.1-0.1,0.1-0.2l0,0c0,0,0-0.1,0.1-0.1
	c0.1-0.2,0.3-0.2,0.4-0.1c0.1,0.1,0.1,0.1,0.2,0.2l0,0c0.1,0.1,0.1,0.1,0.2,0.1l0.3-0.1l0,0h0h0h0v0c0.6-0.1,1.2-0.2,1.8-0.3
	c0,0,0,0,0.1,0c0,0,0.1,0,0.1-0.1c0,0,0,0,0,0s0,0,0,0c0-0.4,0-0.8,0-1.2c0-0.4,0-0.8,0-1.2C14.6,33.2,14.5,33.2,14.4,33.2z
	 M65.6,22.5l0-1.9c0,0,0,0,0,0l-1.9,0.7c-0.6,0.2-1.2,0.7-1.4,1.4c-0.1,0.2-0.1,0.5,0,0.7c0.1,0.7,0.6,1.1,1.2,1.2
	c0.4,0,0.9-0.1,1.3-0.4C65.1,23.7,65.6,23,65.6,22.5z M47.5,28.8l3.4-0.6c0.2,0,0.4,0.1,0.4,0.3l0,0.3c0,0.2-0.2,0.4-0.4,0.5
	l-4.8,0.9c-0.2,0-0.4-0.1-0.4-0.3l0-4.3c0-0.2,0.2-0.4,0.4-0.5l4.6-0.9c0.2,0,0.4,0.1,0.4,0.3v0.3c0,0.2-0.2,0.4-0.4,0.5l-3.3,0.6
	c-0.2,0-0.4,0.3-0.4,0.5v0c0,0.2,0.2,0.4,0.4,0.3l2-0.4c0.2,0,0.4,0.1,0.4,0.3l0,0.3c0,0.2-0.2,0.4-0.4,0.5l-2,0.4
	c-0.2,0-0.4,0.3-0.4,0.5v0.1C47.1,28.7,47.3,28.8,47.5,28.8z M58.5,27.5c0.1,0.2,0,0.3-0.2,0.4l-0.7,0.1c-0.2,0-0.5-0.1-0.6-0.2
	l-0.7-0.9c-0.1-0.2-0.4-0.3-0.6-0.2l-1.3,0.2c-0.2,0-0.4,0.3-0.4,0.5l0,0.9c0,0.2-0.2,0.4-0.4,0.5L53,28.9c-0.2,0-0.4-0.1-0.4-0.3
	l0-4.3c0-0.2,0.2-0.4,0.4-0.5l3.6-0.7c0.6-0.1,1,0,1.4,0.2c0.4,0.3,0.5,0.6,0.5,1.1c0,0.6-0.2,1.1-0.7,1.5c-0.2,0.2-0.3,0.4-0.1,0.5
	L58.5,27.5z M57,24.3c0.1,0.1,0.2,0.2,0.2,0.4c0,0.2-0.1,0.3-0.2,0.5c-0.1,0.1-0.3,0.2-0.5,0.3l-2.2,0.4c-0.2,0-0.4-0.1-0.4-0.3
	v-0.3c0-0.2,0.2-0.4,0.4-0.5l2.2-0.4C56.7,24.2,56.9,24.2,57,24.3z M59.2,8.9l0.1,7.9c0,0.6-0.1,1.2-0.3,1.8
	c-0.3,0.9-0.9,1.6-1.7,2.1c-0.8,0.5-1.6,0.8-2.5,1c-0.5,0.1-1.1,0.2-1.6,0.3c-0.2,0-0.5,0.1-0.7,0.1c-0.2,0-0.4,0.1-0.6,0.1
	c-0.2,0-0.4,0.1-0.6,0.1c-0.1,0-0.2,0-0.2-0.1c-0.1-0.1-0.1-0.1-0.2-0.2c-0.1-0.1-0.3-0.1-0.4,0.1c-0.1,0.1-0.1,0.2-0.2,0.3
	c0,0.1-0.1,0.1-0.2,0.1c-0.5,0.1-0.9,0.2-1.4,0.3c-0.2,0-0.5,0.1-0.7,0.1c-0.1,0-0.1,0-0.1-0.1c0-0.8,0-1.6,0-2.4
	c0-0.1,0-0.2,0.1-0.2c0.3-0.1,0.6-0.1,0.8-0.3c0.2-0.2,0.4-0.3,0.4-0.6L49,9.9c0-0.4-0.2-0.6-0.5-0.7c-0.2,0-0.4,0-0.6,0
	c0,0-0.1,0-0.1,0c-0.1,0-0.1,0-0.1-0.1c0-0.8,0-1.6,0-2.4c0-0.1,0-0.2,0.1-0.2c0.6-0.1,1.2-0.2,1.8-0.3l0.3-0.1c0.1,0,0.1,0,0.2,0.1
	c0,0,0.1,0.1,0.1,0.1v0c0,0,0.1,0.1,0.1,0.1c0.1,0.1,0.3,0.1,0.4-0.1c0,0,0.1-0.1,0.1-0.1l0,0c0,0,0.1-0.1,0.1-0.1
	c0-0.1,0.1-0.1,0.2-0.1c0.3-0.1,0.5-0.1,0.8-0.2c0.9-0.2,1.9-0.4,2.8-0.5c0.9-0.1,1.7-0.1,2.5,0.1c1.1,0.3,1.8,1.2,2,2.4
	C59.1,8.1,59.1,8.5,59.2,8.9z M56.3,9.6c0,2.4,0,4.7,0.1,7.1c0,0.7-0.3,1.2-0.9,1.7c-0.6,0.5-1.3,0.7-2,0.8c-0.1,0-0.3,0-0.4,0
	c-0.6,0-1-0.4-1.1-1c0-0.2-0.1-0.5-0.1-0.7c0-0.8,0-1.6,0-2.4c0-0.4,0-0.8,0-1.2l0-3.6c0-0.4,0.1-0.8,0.3-1.2
	c0.1-0.3,0.3-0.5,0.6-0.7c0.8-0.4,1.6-0.6,2.5-0.4C55.9,8.3,56.3,8.8,56.3,9.6z"/>
</svg>
