<?xml version="1.0" encoding="UTF-8"?>
<svg id="Layer_1" xmlns="http://www.w3.org/2000/svg" version="1.1" viewBox="0 0 104 47">
  <!-- Generator: Adobe Illustrator 29.5.0, SVG Export Plug-In . SVG Version: 2.1.0 Build 137)  -->
  <defs>
    <style>
      .st0 {
        fill: #4f2c1d;
      }
    </style>
  </defs>
  <path class="st0" d="M49.1,35.5h-3.4c-.7,0-1.2.5-1.2,1.2v6.6c0,.7.5,1.2,1.2,1.2h3.4c.7,0,1.2-.5,1.2-1.2v-6.6c.1-.7-.4-1.2-1.2-1.2h0ZM48.4,42.7h-1.9v-5.4h1.9v5.4ZM70.7,35.5h-3.4c-.7,0-1.2.5-1.2,1.2v6.6c0,.7.5,1.2,1.2,1.2h3.4c.7,0,1.2-.5,1.2-1.2v-6.6c0-.7-.5-1.2-1.2-1.2h0ZM69.9,42.7h-1.9v-5.4h1.9v5.4ZM41.2,35.5h2v9h-2v-3.6h-2.1v3.6h-2v-9h2v3.6h2.1v-3.6ZM62.8,35.5h2v9h-2v-3.6h-2.1v3.6h-2v-9h2v3.6h2.1s0-3.6,0-3.6ZM78.8,43.2c0,.6-.4,1.1-.9,1.2h-3.6c-.7,0-1.2-.5-1.2-1.2v-7.8h2v7.2h1.7v-7.2h2v.1c0,2.6,0,5.2,0,7.7h0ZM56.2,35.5h-4.5v9h2v-2.3h2.5c.7,0,1.2-.5,1.2-1.2v-4.2c0-.8-.5-1.3-1.2-1.3h0ZM55.4,40.3h-1.8v-3.1h1.8v3.1ZM85.5,40.8v2.5c0,.7-.5,1.2-1.2,1.2h-3c-.7,0-1.2-.5-1.2-1.2v-1.6h2v1h1.4v-1.3c0-.1,0-.2-.1-.2-.8-.4-1.7-.7-2.5-1.1-.4-.2-.7-.5-.7-.9v-2.4c0-.7.5-1.2,1.2-1.2h3c.7,0,1.2.5,1.2,1.2v1.6h-2v-1h-1.4v1.1q0,.1.1.1c.8.4,1.7.7,2.5,1.1.4.2.7.5.8.9-.1,0-.1.1-.1.2h0ZM35.9,40.9v2.4c0,.6-.3,1.1-.9,1.2h-3.5c-.7,0-1.2-.5-1.2-1.2v-6.6c0-.7.5-1.2,1.2-1.2h3.2c.7,0,1.2.5,1.2,1.2v2.4h-2v-1.8h-1.6v5.4h1.6v-1.8h2ZM86.8,35.5h5v1.8h-3v1.8h2.2v1.8h-2.1v1.8h3v1.8h-5l-.1-9h0ZM100.5,17.8c-.3.1-.5,0-.8,0h-.3c-.1,0-.2-.1-.3-.2-.1-.1-.1-.3-.1-.4,0-.2.1-.3.1-.5.1-.2.1-.4.1-.6,0-.6-.3-.6-.5-.7h-.3c-.5,0-1,.2-1.4.5-.2.2-.2.3-.1.5.2.3.4.6.7,1,.2.2.4.5.6.7.3.4.7.8,1,1.2.7.9.9,1.9.8,2.9-.2,1-.8,1.9-1.7,2.6-1.6,1.2-3.4,1.6-5.2,1.2q-.1,0-.2-.1c-1.3-.3-2.1-1.3-2.3-2.5-.2-1.2.6-2.3,1.7-2.5.3-.1.5-.1.8,0s.6.3.8.5c.4.5.4,1.1.2,1.7-.1.3-.3.4-.4.5s-.2.1-.2.5c0,.2.1.3.2.4.5.1,1,.2,1.4.2.8,0,1.5-.3,2.1-.9.7-.6.8-1.3.3-1.9-.3-.4-.6-.7-.9-1.1-.2-.3-.5-.6-.7-.9-.4-.5-.7-1-1-1.5-.4-.8-.4-1.7.2-2.5.9-1.5,3.6-2.6,5.4-2.3h.2c.9.2,1.4.9,1.5,1.8-.2,1.2-.8,2.2-1.7,2.4h0ZM39.1,12.2c0-.6.2-1.1.6-1.5.4-.3.8-.5,1.3-.5h.3c.5.1.8.5.9,1.1.1.9-.5,1.9-1.4,2.1-.2.1-.5.1-.7,0-.6,0-1-.5-1-1.2h0ZM91.4,11.9l1.9-1.1c.1-.1.3-.3.2-.4l-.1-2c0-.1.1-.2.2-.1l1.4,1.2c.1.1.3.1.5,0l2-1c.1-.1.2,0,.1.1l-1.1,1.9c-.1.1-.1.3,0,.4l1.3,1.3c.1.1.1.2-.1.2l-2.1-.1c-.2,0-.3.1-.4.2l-1.1,1.9c-.1.1-.2.1-.2,0l-.2-2c0-.1-.1-.3-.3-.3l-2-.2c-.2.1-.2,0,0,0h0ZM91.9,14.8c.1-.2,0-.4-.1-.5s-.2-.1-.2-.2h-.2c-.1,0-.3.1-.4.1h0c-.3.1-.7.1-1,.2-.4.1-.7.3-.8.6l-.1.2c-.6,1.3-1.2,2.6-1.8,3.8-.2.4-.5.9-.8,1.4-1,1.3-1.8,2.4-2.9,3.2-.5.4-1.1.7-1.6.9-.1,0-.2.1-.2,0-.1,0-.1-.1-.2-.4-.1-.5.1-1,.3-1.5h0c.7-1.6,1.4-3.3,2.1-4.9.3-.6.6-1.3.8-1.9.1-.2.2-.4.3-.6l.1-.3c.1-.2.1-.4-.1-.5-.1-.1-.2-.2-.3-.2h-.6c-.1,0-.3.1-.4.1-.3.1-.5.1-.8.2-.4.1-.6.3-.8.6-.2.5-.5.9-.7,1.4h0c-.4.9-.9,1.8-1.3,2.8-.5,1.2-1.2,2.2-2.3,3.4-.5.5-1,1.1-1.7,1.4-.2.1-.5.2-.6.2,0,0-.1,0-.1-.1-.1-.1-.2-.2-.2-.5,0-.2.1-.4.1-.6,0-.1.1-.1.1-.2h0c.1-.3.2-.6.3-.9.3-.6.6-1.1.9-1.7s.6-1.2.9-1.8c.4-.8.8-1.7.9-2.7.1-1-.4-1.7-1.2-1.9h-.1c-.4-.1-.8-.1-1.2,0-.7.1-1.4.5-2.1,1.1-.5.4-.9.8-1.3,1.2-.1.1-.2.1-.2-.1v-.3c0-.9-.4-1.6-1.2-1.8h0c-.4-.1-.8-.1-1.2-.1-.8.1-1.4.5-2,.9-.7.5-1.4,1.2-2,1.8-.1.1-.2.1-.1-.1l.7-1.6c.1-.2,0-.4-.1-.5s-.2-.2-.3-.2h-.5c-.1,0-.3.1-.4.1-.3.1-.5.1-.7.2-.4.1-.7.2-.8.6-.2.4-.4.8-.6,1.2h0c-.4.7-.7,1.5-1,2.3-.6,1.5-1.6,2.7-2.4,3.7-.5.7-1.2,1.4-2.1,1.8-.2.1-.5.2-.7.2,0,0-.1,0-.1-.1-.1-.1-.3-.2-.1-.8.1-.5.3-.9.5-1.3.3-.6.6-1.2.9-1.7s.6-1.2.9-1.8c.4-.8.8-1.7.9-2.7.1-1-.4-1.7-1.2-1.9h-.1c-.5-.1-1-.1-1.3,0-.6.2-1.2.4-1.7.8-.6.5-1.1,1-1.7,1.5-.1.1-.2.1-.2-.1v-.3c0-.9-.4-1.6-1.2-1.8h0c-.4-.1-.8-.1-1.2-.1-.8.1-1.4.5-2,.9-.7.5-1.4,1.2-2,1.8-.1.1-.2.1-.1-.1l.7-1.6c.1-.2,0-.4-.1-.5s-.2-.2-.3-.2h-.7c-.1,0-.2,0-.2.1h0c-.3.1-.5.1-.7.2-.4.1-.7.2-.8.6-.8,1.7-1.6,3.4-2.2,4.8-.1.2-.2.4-.3.5s-.2.3-.3.4c-.5.6-1,1.3-1.5,1.9-.7.9-1.5,1.4-2.4,1.8-.2.1-.5.2-.6.1,0,0-.1,0-.1-.1-.1-.1-.2-.2,0-.7h0c.2-.8.4-1.5.7-2.2.6-1.5,1.3-3,2-4.4.3-.6.6-1.2.8-1.8,0-.1.1-.2.1-.3l.1-.1c.1-.1.1-.3,0-.4-.1-.1-.2-.2-.3-.3h-.6c-.5.1-.9.2-1.4.3-.3.1-.5.3-.5.5l-1.3,1.8c-.1.1-.1.2-.2.4l-.4.8c0,.1-.2.2-.3.2-1.1.1-2.3.1-3.6.2h0v-.2c0-.1.1-.2.1-.3.2-.8.5-1.6.7-2.4.6-2.2.9-4.5.9-7,0-.9-.1-1.6-.3-2.4-.2-1-.6-1.8-1.3-2.5-.8-.8-1.7-1.3-2.7-1.3-.4,0-.9,0-1.4.2-.6.2-1.2.5-1.9,1-.9.7-1.5,1.4-2.1,2.2-.6.9-1,1.8-1.2,2.8-.2.8-.3,1.6-.4,2.4-.1,1.1,0,2,.4,2.8.2.6.6,1.2.9,1.7.3.4.7.9,1.2,1.2.2.1.3.2.5.3h.2c.2,0,.4-.1.6-.2.1-.2.2-.4.2-.6s-.1-.4-.2-.5c-.1-.2-.3-.5-.5-.7-.3-.4-.5-.8-.7-1.3-.3-1-.4-2-.2-2.9.4-1.8,1.2-3.5,2.5-4.9.3-.3.6-.5.9-.7.5-.2.7-.3,1-.3h.3c.2,0,.4.1.5.2.2.1.3.3.5.5.4.6.7,1.1.8,1.7.1.4.1.9.2,1.3.2,1.9.1,3.6-.3,5.1-.3,1.4-.8,2.9-1.4,4.7,0,.1-.1.2-.1.2h-.4c-2.2.2-5,.5-7.8,1.1-1.9.4-4.2.9-6.6,1.9-1.1.4-2.1.9-3,1.4-1.9,1-3.5,2-5,3.2-1.7,1.3-3,2.7-3.9,4.3-1.3,1.7-1.9,3.4-1.9,5,0,1.4.3,2.7.8,3.8.7,1.4,1.7,2.5,3.2,3.1.8.3,1.6.5,2.5.5h.5c1.5,0,3.2-.4,4.7-.9,1.1-.4,2.2-1,3.2-1.6,2.9-1.9,5.5-4.2,7.6-6.8,2.9-3.5,5.4-7.7,7.3-12.2v-.1s.1-.1.2-.1h.2c1.1-.1,2.1-.2,3.2-.3.1,0,.2.1.1.2-.1.3-.3.6-.4.9-.4,1-.6,1.9-.5,2.8.1,1.1.6,1.8,1.5,2.1.4.1.8.1,1.3,0,.3-.1.7-.2,1-.4.5-.3,1.1-.6,1.5-1q.2-.1.2,0l-.1.2c-.1.2-.1.4,0,.5s.2.2.3.2h1.5c.5,0,.9-.2,1.1-.7l1.8-3.9c.1-.2.2-.5.4-.6,1.3-1.5,2.6-3,4.1-4.3.3-.2.6-.4.9-.6.2-.1.3,0,.2.2-.1.4-.2.9-.4,1.3-.7,1.7-1.5,3.4-2.2,5v.1c-.2.5-.5,1.1-.7,1.6-.1.3-.2.5-.4.8l-.2.4c-.1.2-.1.4,0,.5s.2.2.3.2h1.8c.3,0,.6-.3.7-.5.2-.3.3-.7.5-1h0c.5-1,1-2,1.4-3.1.4-1,1-1.9,1.7-2.5.4-.4.8-.7,1.1-1.1l.4-.4c.4-.4.8-.7,1.3-1.2.2-.1.4-.4.7-.5.2-.1.3-.1.3-.1h0v.5c-.1.3-.1.7-.3,1-.3.7-.7,1.4-1,2.1-.4.7-.7,1.5-1.1,2.3-.4.8-.6,1.5-.8,2.2-.3,1.1.2,2,1.3,2.2h.2c.9.2,1.8,0,2.7-.6.3-.2.6-.4.8-.6q.2-.1.2,0l-.1.2c-.1.2-.1.4,0,.5s.2.2.3.2h1.6c.5,0,.8-.2,1-.6l1.8-4c.1-.3.3-.5.5-.7,1.3-1.5,2.6-3,4.1-4.3.3-.2.5-.4.8-.6.2-.1.3,0,.2.2-.1.4-.2.9-.4,1.3-.2,2.4-1.3,4.6-2.4,6.6l-.1.2c-.1.3-.3.5-.4.8-.1.1-.1.3-.2.4-.1.2-.1.4,0,.5s.2.2.3.2h1.9c.2,0,.4-.1.5-.3.2-.5.4-.9.6-1.4h0c.5-1.1,1.1-2.3,1.6-3.4.3-.7.6-1.2,1-1.5.4-.4.7-.7,1.1-1.1.8-.7,1.5-1.5,2.3-2.2.2-.2.5-.3.8-.4h0v.5c-.1.4-.2.8-.3,1.1-.3.7-.7,1.4-1,2.1-.4.7-.7,1.5-1.1,2.3s-.6,1.5-.8,2.2c-.3,1,.3,1.9,1.3,2.2h.2c.9.2,1.8,0,2.8-.6.6-.4,1.2-.9,1.8-1.4.1-.1.2-.2.2-.1v.2c0,1,.5,1.7,1.4,2,.4.1.8.1,1.2,0,.4-.1.8-.2,1.1-.4.3-.2.7-.4,1-.6,0,0,.3-.2.8-.6h0c.1-.1.2-.1.3-.2.1-.1.2-.1,0,.1-.9,1.2-2.2,2.1-3.9,2.9-4.5,1.9-11.7,2.5-23.9,1.8-11.5-.8-20.5.2-26.3,2.8-2.9,1.3-4.3,2.7-5,3.7-.2.2-.2.5-.1.8.1.2.2.3.4.4h.2c.3,0,.5-.1.6-.3.9-1.1,6.4-6.6,30.5-5.2,13.2.7,20.2.2,25-1.9,4.7-2,5.9-5,7.1-8,.2-.5.4-.9.5-1.2l2.4-5.4c.1,0,.1-.1.1-.2h0ZM21.8,33c-1.1,1.2-2.3,2.4-3.6,3.3-.8.6-1.8,1.2-2.9,2-.7.5-1.5.9-2.2,1.2-1.3.6-2.5.9-3.7.9h-.4c-.7,0-1.3-.2-1.8-.4-.9-.3-1.5-.9-1.9-1.8-.5-1-.6-2.1-.4-3.3.1-.9.4-1.7,1-2.6.6-1.2,1.5-2.3,2.8-3.3,1.2-1,2.8-2.3,4.5-3.2,3.2-1.7,5.8-2.7,8.3-3.3,2.1-.5,4.1-.7,6.2-.9.5-.1,1-.1,1.5-.2.1,0,.2.1.1.2-1.5,3.1-3.4,6.3-5.4,8.9-.6.8-1.2,1.5-2.1,2.5h0Z"/>
</svg>