<svg width="390" height="164" viewBox="0 0 390 164" fill="none" xmlns="http://www.w3.org/2000/svg">
<path d="M183.62 128.301C179.2 128.301 174.78 128.301 170.35 128.301C167.56 128.301 165.58 130.271 165.58 133.071C165.58 137.321 165.58 141.571 165.58 145.821C165.58 150.071 165.58 154.351 165.58 158.621C165.58 161.421 167.55 163.391 170.34 163.391C174.76 163.391 179.18 163.391 183.61 163.391C186.4 163.391 188.39 161.411 188.39 158.621C188.39 150.101 188.39 141.581 188.39 133.061C188.39 130.271 186.4 128.291 183.62 128.291V128.301ZM180.64 156.361H173.34V135.331H180.64V156.361ZM267.44 128.301C263 128.301 258.56 128.301 254.13 128.301C251.37 128.301 249.39 130.291 249.39 133.051C249.39 137.321 249.39 141.581 249.39 145.851C249.39 150.121 249.39 154.381 249.39 158.651C249.39 161.421 251.37 163.391 254.13 163.391C258.57 163.391 263.01 163.391 267.44 163.391C270.2 163.391 272.19 161.401 272.19 158.641C272.19 150.111 272.19 141.571 272.19 133.041C272.19 130.281 270.19 128.291 267.44 128.291V128.301ZM264.44 156.361H257.14V135.331H264.44V156.361ZM152.88 128.331H160.56V163.361H152.9V149.371H144.83V163.371H137.13V128.311H144.8V142.321H152.88V128.331ZM236.68 128.331H244.36V163.361H236.7V149.371H228.63V163.371H220.93V128.311H228.6V142.321H236.68V128.331ZM299.33 158.601C299.33 161.081 297.69 162.821 295.87 163.241C295.5 163.331 295.11 163.381 294.72 163.381C290.42 163.381 286.12 163.391 281.83 163.381C279.25 163.381 277.24 161.351 277.23 158.771C277.23 148.761 277.23 138.751 277.23 128.741V128.291H284.93V156.341H291.61V128.301H299.29C299.29 128.461 299.31 128.621 299.31 128.791C299.31 138.721 299.29 148.651 299.32 158.581L299.33 158.601ZM211.1 128.291C205.39 128.291 199.68 128.291 193.97 128.291H193.46V163.361H201.14V154.261H201.71C204.84 154.261 207.98 154.261 211.11 154.261C213.89 154.261 215.86 152.301 215.86 149.531C215.86 144.041 215.86 138.541 215.86 133.051C215.86 130.251 213.89 128.291 211.09 128.291H211.1ZM208.13 147.231H201.18V135.321H208.13V147.231ZM325.37 148.911C325.37 152.181 325.37 155.461 325.37 158.731C325.37 161.371 323.36 163.381 320.72 163.381C316.81 163.381 312.9 163.381 308.99 163.381C306.34 163.381 304.33 161.381 304.33 158.741C304.33 157.291 304.33 154.181 304.33 152.401H312.05V156.351H317.65V155.831C317.65 154.221 317.63 152.601 317.66 150.991C317.66 150.531 317.54 150.321 317.11 150.151C313.81 148.781 310.53 147.371 307.24 145.981C305.63 145.301 304.66 144.101 304.37 142.381C304.33 142.171 304.33 141.951 304.33 141.731C304.33 138.811 304.33 135.901 304.33 132.981C304.33 130.291 306.33 128.291 309.04 128.291C312.92 128.291 316.8 128.291 320.68 128.291C323.38 128.291 325.37 130.291 325.38 132.991C325.38 134.211 325.38 137.211 325.38 139.261H317.66V135.321H312.08C312.08 135.491 312.06 135.661 312.06 135.821C312.06 137.151 312.07 138.491 312.06 139.821C312.06 140.141 312.16 140.271 312.45 140.401C315.74 141.781 319.03 143.191 322.32 144.571C323.97 145.261 325.03 146.421 325.35 148.211C325.39 148.441 325.39 148.671 325.39 148.901L325.37 148.911ZM132.04 149.361V158.581C132.04 160.921 130.68 162.721 128.54 163.241C128.17 163.331 127.77 163.371 127.39 163.371C123.23 163.371 119.07 163.371 114.92 163.371C112.31 163.371 110.29 161.361 110.29 158.751C110.29 150.141 110.29 141.531 110.29 132.921C110.29 130.291 112.3 128.281 114.95 128.271C119.05 128.271 123.14 128.271 127.24 128.271C130.03 128.271 132 130.171 132.05 132.961V142.291H124.35V135.311H118.06V156.341H124.33C124.33 156.161 124.35 155.991 124.35 155.831V149.341H132.06L132.04 149.361ZM330.43 128.321H350.01V135.291H338.15V142.331H346.5V149.341C344.08 149.341 339.86 149.341 338.15 149.341V156.391H350V163.371H330.42V128.331L330.43 128.321ZM383.63 59.471C382.56 59.741 381.53 59.661 380.63 59.591C380.31 59.561 380.03 59.541 379.77 59.541C379.6 59.541 379.43 59.511 379.27 59.471C378.86 59.361 378.5 59.1309 378.23 58.8009C377.85 58.3409 377.69 57.7309 377.8 57.1409C377.91 56.5109 378.04 55.931 378.16 55.381C378.37 54.421 378.54 53.6709 378.53 53.0109C378.5 50.8509 377.19 50.4909 376.76 50.3709C376.44 50.2809 376.09 50.241 375.7 50.241C373.66 50.221 371.88 50.9209 370.41 52.3009C369.5 53.1609 369.52 53.5409 370.03 54.4109C370.77 55.6709 371.71 56.881 372.79 58.221C373.55 59.171 374.37 60.131 375.15 61.061C376.46 62.601 377.79 64.1709 379.01 65.8309C381.6 69.3509 382.67 73.2009 382.1 76.9509C381.5 80.8809 379.17 84.5109 375.54 87.1709C369.31 91.7409 362.49 93.2809 355.27 91.7409C354.98 91.6809 354.69 91.6109 354.41 91.5309C349.43 90.1709 346.21 86.6109 345.58 81.7409C344.99 77.1309 347.75 72.9609 352.01 72.0409C353.1 71.8109 354.12 71.8209 355.05 72.0709C356.26 72.4009 357.26 73.1109 358.04 74.1809C359.42 76.0809 359.69 78.3409 358.84 80.7209C358.47 81.7609 357.52 82.3109 357.13 82.5009C356.61 82.7509 356.19 83.0609 356.25 84.3409C356.29 85.1109 356.57 85.5709 357.1 85.7209C359.24 86.2709 361.06 86.5209 362.65 86.4609C365.71 86.3509 368.46 85.2109 370.83 83.0909C373.41 80.7809 373.76 78.1609 371.83 75.5009C370.75 74.0209 369.5 72.5809 368.28 71.1909C367.31 70.0809 366.32 68.9409 365.38 67.7509C363.73 65.6509 362.52 63.8209 361.57 62.0009C359.94 58.8609 360.18 55.5009 362.25 52.2609C365.93 46.5309 376.46 42.0909 383.11 43.4609C383.33 43.5109 383.55 43.5609 383.76 43.6209C387.27 44.5709 389.37 47.091 389.52 50.521C389.71 54.731 387.17 58.581 383.62 59.471H383.63ZM144.44 37.8009C144.41 35.5609 145.29 33.4309 146.87 31.9609C148.25 30.6709 149.99 30.0409 151.77 30.1909C152.12 30.2209 152.47 30.2809 152.8 30.3709C154.79 30.9109 156.09 32.4509 156.37 34.6009C156.85 38.2309 154.26 42.081 150.84 42.841C149.87 43.061 148.93 43.051 148.07 42.811C145.88 42.211 144.49 40.2909 144.46 37.8009H144.44ZM348.11 36.3509L355.65 32.0009C356.21 31.6809 356.64 30.9509 356.61 30.3709L356.17 22.6309C356.14 22.0509 356.44 21.8909 356.84 22.2609L362.27 27.2309C362.67 27.6009 363.46 27.6509 364.03 27.3509L371.69 23.2709C372.26 22.9709 372.47 23.1709 372.16 23.7209L367.98 31.1409C367.67 31.6909 367.73 32.451 368.11 32.841L373.28 38.061C373.66 38.451 373.49 38.7409 372.9 38.7109L364.89 38.331C364.29 38.301 363.54 38.7209 363.21 39.2609L358.74 46.561C358.41 47.101 358.09 47.0809 358.03 46.5109L357.26 38.8509C357.2 38.2809 356.68 37.781 356.09 37.721L348.16 37.0109C347.57 36.9609 347.55 36.651 348.11 36.331V36.3509ZM350.31 47.791C350.51 47.101 350.34 46.3509 349.86 45.8209C349.6 45.5409 349.27 45.3309 348.9 45.2309C348.59 45.1509 348.27 45.141 347.95 45.201C347.4 45.321 346.86 45.4409 346.32 45.5509L346.15 45.591C344.8 45.891 343.53 46.1709 342.26 46.3709C340.69 46.6209 339.65 47.4009 338.99 48.8509L338.65 49.6009C336.44 54.5109 334.15 59.5909 331.79 64.5209C330.95 66.2709 329.85 68.0809 328.54 69.8909C324.8 75.0409 321.45 79.1209 317.25 82.3009C315.14 83.9009 313.05 85.1409 311.05 85.9709C310.62 86.1509 310.32 86.1709 310.19 86.1409C309.97 86.0809 309.66 85.6009 309.48 84.6909C309.08 82.7009 309.9 80.7809 310.78 78.7509L310.83 78.6409C313.57 72.2409 316.4 65.821 319.13 59.611C320.24 57.101 321.34 54.5909 322.44 52.0709C322.79 51.2709 323.13 50.4709 323.51 49.5709L324.02 48.3709C324.3 47.7209 324.22 46.9509 323.81 46.3709C323.54 45.9909 323.14 45.711 322.69 45.591C322.46 45.531 322.23 45.5109 322 45.5309C321.85 45.5409 321.72 45.5509 321.6 45.5509C321.28 45.5709 320.96 45.5809 320.58 45.6709C320.01 45.8009 319.45 45.941 318.88 46.081C317.82 46.341 316.83 46.591 315.82 46.771C314.32 47.041 313.32 47.791 312.69 49.131C311.83 50.951 310.93 52.801 310.05 54.591L310 54.701C308.27 58.231 306.48 61.8909 304.92 65.6109C303.05 70.0909 300.23 74.3509 296.05 79.0409C294.25 81.0509 292.05 83.2909 289.29 84.6709C288.43 85.1009 287.45 85.5509 286.83 85.3809C286.68 85.3409 286.53 85.2609 286.37 85.1309C285.9 84.7509 285.72 84.2709 285.77 83.2409C285.8 82.4909 286.05 81.5209 286.22 81.0709C286.32 80.8009 286.42 80.5209 286.52 80.2509L286.55 80.1709C286.98 78.9509 287.39 77.8009 287.91 76.7309C289 74.5109 290.15 72.2609 291.29 70.0509C292.44 67.8009 293.64 65.4809 294.77 63.1609C296.23 60.1609 297.82 56.6209 298.11 52.6409C298.38 48.9309 296.63 46.201 293.43 45.331C293.3 45.291 293.16 45.2609 293.02 45.2309C291.48 44.9009 289.81 44.851 288.19 45.091C285.33 45.5109 282.55 46.901 279.9 49.221C278.11 50.791 276.36 52.4109 274.65 54.0309C274.11 54.5509 273.77 54.441 273.84 53.771C273.88 53.361 273.91 52.961 273.92 52.561C274.01 48.981 272.35 46.4609 269.35 45.6409L269.16 45.591C267.71 45.241 266.08 45.161 264.58 45.361C261.49 45.771 258.96 47.361 256.68 49.021C253.78 51.131 251.13 53.591 248.75 56.021C248.23 56.561 248.04 56.441 248.33 55.741L250.94 49.491C251.22 48.811 251.12 48.031 250.67 47.451C250.4 47.101 250.02 46.8509 249.59 46.7309C249.32 46.6609 249.04 46.641 248.76 46.681C248.54 46.711 248.36 46.7409 248.2 46.7609C247.84 46.8109 247.55 46.8509 247.25 46.9209C246.75 47.0409 246.25 47.1709 245.74 47.3009C244.74 47.5609 243.79 47.8109 242.86 47.9209C241.26 48.1209 240.24 48.881 239.55 50.381C238.84 51.941 238.09 53.511 237.37 55.041L237.32 55.151C235.95 58.021 234.54 61.0009 233.31 64.0209C230.95 69.8109 227.25 74.6009 223.95 78.5309C221.81 81.0809 219.24 83.9309 215.96 85.6409C215.06 86.1109 214.05 86.5909 213.41 86.4209C213.26 86.3809 213.11 86.3009 212.95 86.1709C212.6 85.8809 211.86 85.2909 212.53 82.8909C213.02 81.1209 213.67 79.4009 214.46 77.7809C215.56 75.5309 216.72 73.2609 217.86 71.0409C219 68.8209 220.18 66.5209 221.31 64.2109C222.77 61.2109 224.36 57.6709 224.65 53.6909C224.92 49.9809 223.18 47.2409 219.97 46.3709C219.84 46.3409 219.71 46.301 219.58 46.271C217.51 45.821 215.84 45.8109 214.47 46.2309C212.29 46.9009 209.79 47.7409 207.8 49.341C205.52 51.171 203.34 53.141 201.21 55.111C200.66 55.621 200.32 55.501 200.4 54.831C200.45 54.421 200.47 54.0209 200.48 53.6209C200.57 50.0309 198.91 47.5009 195.91 46.6909L195.74 46.651C194.28 46.301 192.66 46.2109 191.16 46.4109C188.07 46.8209 185.54 48.411 183.26 50.061C180.35 52.171 177.7 54.6309 175.32 57.0709C174.8 57.6109 174.61 57.491 174.9 56.791L177.51 50.5509C177.79 49.8709 177.69 49.0909 177.25 48.5109C176.98 48.1609 176.6 47.9009 176.17 47.7809C175.91 47.7109 175.63 47.6909 175.36 47.7309C175.16 47.7609 174.99 47.7809 174.81 47.8009C174.49 47.8409 174.18 47.881 173.86 47.951C173.62 48.011 173.37 48.071 173.13 48.131C172.73 48.231 172.39 48.321 172.37 48.331C172.35 48.331 172.33 48.331 172.33 48.331C171.33 48.591 170.39 48.841 169.46 48.951C167.86 49.161 166.84 49.911 166.15 51.401C163.08 58.091 160.04 64.6109 157.47 70.1109C157.1 70.9009 156.76 71.6009 156.34 72.1409C155.9 72.7109 155.45 73.2909 155.01 73.8709C153.12 76.3309 151.17 78.8609 149.12 81.2109C146.22 84.5409 143.18 86.8309 139.83 88.2209C138.99 88.5709 138.05 88.9309 137.47 88.7709C137.33 88.7309 137.19 88.6609 137.05 88.5409C136.73 88.2709 136.42 87.8209 136.93 85.9309L136.98 85.7609C137.77 82.8309 138.58 79.8009 139.77 77.0709C142.29 71.2609 144.98 65.401 147.57 59.741C148.64 57.401 149.72 55.051 150.78 52.701C150.95 52.321 151.12 51.941 151.28 51.541L151.51 51.0109C151.74 50.4709 151.71 49.841 151.43 49.271C151.17 48.761 150.68 48.3709 150.12 48.2109L149.81 48.1209C149.66 48.0809 149.22 47.961 148.67 48.081L147.94 48.241C146.17 48.631 144.34 49.021 142.54 49.471C141.51 49.731 140.78 50.5809 140.45 51.3009L138.04 56.4609C137.82 56.9409 137.59 57.4209 137.37 57.8909L135.96 60.9209C135.77 61.3409 135.23 61.701 134.77 61.721C130.31 61.951 125.69 62.171 120.79 62.361C120.76 62.361 120.73 62.361 120.7 62.361C120.67 62.361 120.65 62.361 120.62 62.361C120.58 62.361 120.65 62.0109 120.79 61.5709C120.9 61.2009 121.02 60.831 121.14 60.451C122.08 57.401 123.05 54.251 123.91 51.291C126.4 42.711 127.61 33.5809 127.52 24.1509C127.49 20.8009 127.14 17.7909 126.47 14.9409C125.55 11.0709 123.95 8.00095 121.45 5.27095C118.45 2.00095 114.93 0.240948 111 0.0209483C109.29 -0.0690517 107.49 0.130948 105.64 0.620948C103.15 1.29095 100.79 2.53095 98.42 4.43095C94.99 7.17095 92.42 9.92095 90.31 13.0709C88.06 16.4409 86.47 20.1409 85.6 24.0709C84.89 27.2509 84.41 30.4309 84.18 33.5109C83.85 37.8109 84.29 41.301 85.58 44.521C86.51 46.831 87.74 49.111 89.23 51.311C90.43 53.061 91.98 54.691 93.84 56.131C94.54 56.671 95.16 57.0209 95.79 57.2309C96.04 57.3109 96.29 57.3609 96.55 57.3709C97.41 57.4209 98.23 57.0709 98.8 56.4209C99.38 55.7609 99.61 54.8809 99.45 54.0109C99.31 53.2709 99.03 52.531 98.63 51.881C98.09 51.001 97.47 50.1209 96.75 49.1909C95.62 47.7409 94.76 46.1009 94.11 44.1609C92.82 40.2809 92.55 36.4109 93.32 32.6709C94.77 25.5909 98.01 19.2009 102.96 13.6809C104.01 12.5109 105.14 11.5409 106.32 10.7909C107.35 10.1409 108.33 9.75095 109.34 9.59095C109.68 9.54095 110.01 9.52095 110.33 9.54095C111.05 9.58095 111.74 9.80095 112.43 10.2109C113.15 10.6409 113.78 11.2409 114.35 12.0509C115.96 14.3109 116.95 16.4709 117.36 18.6509C117.67 20.2709 117.89 21.9709 118.03 23.6909C118.62 30.9909 118.23 37.551 116.85 43.741C115.59 49.361 113.84 55.211 111.37 62.081C111.21 62.511 111.06 62.8709 111.03 62.8709H110.97C110.41 62.9409 109.86 63.0009 109.31 63.0509C100.91 63.9209 89.87 65.1909 78.96 67.2809C71.5 68.7109 62.61 70.6909 53.26 74.6009C49.11 76.3309 45.15 78.1509 41.5 79.9909C34.12 83.7009 27.7 87.7709 21.88 92.4209C15.32 97.6609 10.32 103.101 6.59 109.041C2.15 116.131 0 122.561 0 128.671C0 134.041 1.08 139.011 3.18 143.461C5.82 149.051 9.98 153.091 15.53 155.481C18.55 156.781 21.84 157.541 25.3 157.731C25.96 157.771 26.64 157.781 27.32 157.781C33.01 157.751 39.68 156.401 45.62 154.081C49.89 152.411 54.04 150.261 57.97 147.681C69.39 140.181 79.41 131.201 87.76 121.001C98.9 107.401 108.7 91.0009 116.11 73.5609C116.15 73.4609 116.2 73.3509 116.26 73.2409C116.34 73.0709 116.69 72.8909 117.04 72.8609C117.25 72.8409 117.46 72.8209 117.66 72.8109C121.8 72.5409 126.01 72.1809 130.11 71.8209C130.57 71.7809 130.79 72.0909 130.59 72.5109C130.03 73.7309 129.48 74.9409 128.95 76.1109C127.24 79.8909 126.57 83.5209 126.9 87.1909C127.28 91.4709 129.32 94.3209 132.64 95.2209C134.15 95.6309 135.88 95.6109 137.77 95.1409C139.03 94.8309 140.35 94.3409 141.69 93.6709C143.81 92.6209 145.79 91.3709 147.67 89.8909C148.26 89.4309 148.57 89.3509 148.39 89.7509L148.06 90.4709C147.76 91.1109 147.81 91.8509 148.2 92.4409C148.47 92.8609 148.89 93.1709 149.37 93.3009C149.55 93.3509 149.74 93.3709 149.93 93.3709C150.55 93.3709 151.15 93.3509 151.74 93.3309C153.02 93.3009 154.23 93.2609 155.4 93.3209C157.5 93.4109 158.88 92.5509 159.74 90.6209L166.88 75.2609C167.3 74.3509 167.85 73.5009 168.52 72.7409C173.5 67.0209 178.66 61.111 184.48 56.131C185.53 55.231 186.68 54.4009 187.89 53.6609C188.53 53.2709 188.98 53.591 188.84 54.331C188.54 56.031 188.11 57.821 187.41 59.431C184.58 65.961 181.58 72.5309 178.68 78.8909L178.5 79.2709C177.56 81.3309 176.62 83.3909 175.69 85.4509C175.23 86.4609 174.76 87.4609 174.26 88.5209L173.51 90.1109C173.21 90.7509 173.26 91.4909 173.64 92.0909C173.91 92.5209 174.33 92.8209 174.82 92.9609C175 93.0109 175.19 93.0309 175.38 93.0309L177.11 93.0109C178.85 92.9909 180.49 92.9709 182.17 92.9009C183.36 92.8509 184.34 91.8909 184.75 91.0109C185.37 89.6909 185.99 88.3809 186.61 87.0709L186.64 87.0009C188.47 83.1309 190.37 79.1309 192.06 75.1009C193.77 71.0409 195.92 67.8209 198.64 65.2609C200.13 63.8609 201.6 62.4509 203.08 61.0309L204.52 59.651C206.19 58.041 207.52 56.771 209.47 54.991C210.11 54.411 211.18 53.5209 212.32 52.9209C212.98 52.5709 213.58 52.4209 213.58 52.4409C213.58 52.4409 213.58 52.461 213.58 52.471C213.72 53.151 213.75 53.6709 213.69 54.0109L213.59 54.5009C213.32 55.8609 213.05 57.261 212.53 58.401C211.29 61.151 209.97 63.9309 208.69 66.6409C207.31 69.5609 205.88 72.5909 204.53 75.6009C203.12 78.7509 202.1 81.5909 201.4 84.2909C200.34 88.3909 202.37 91.8909 206.45 93.0009C206.72 93.0709 206.99 93.1409 207.28 93.1909C210.75 93.8309 214.24 93.0709 217.96 90.8809C219.06 90.2309 220.13 89.5109 221.17 88.7109C221.76 88.2509 222.06 88.2209 221.85 88.6709L221.47 89.4809C221.17 90.1209 221.23 90.8609 221.61 91.4509C221.88 91.8709 222.3 92.1809 222.78 92.3109C222.96 92.3609 223.15 92.3809 223.34 92.3809C223.97 92.3809 224.58 92.3609 225.24 92.3409C226.63 92.3109 227.93 92.2809 229.21 92.3109C231 92.3509 232.23 91.5709 232.98 89.9209L240.17 74.4509C240.64 73.4409 241.25 72.5009 241.99 71.6509C247.03 65.8709 252.24 59.9009 258.14 54.8909C259.12 54.0609 260.17 53.301 261.29 52.631C261.93 52.241 262.38 52.5609 262.23 53.3009C261.89 55.0409 261.41 56.7809 260.79 58.5109C257.69 67.2309 253.47 75.6709 249.38 83.8309L249.07 84.4509C248.55 85.4809 248.09 86.5009 247.6 87.5809C247.38 88.0709 247.15 88.5609 246.92 89.0609C246.62 89.7009 246.67 90.4409 247.05 91.0409C247.32 91.4609 247.74 91.7709 248.23 91.9009C248.41 91.9509 248.6 91.9709 248.79 91.9709L255.99 91.8709C256.77 91.8609 257.48 91.3909 257.81 90.6909C258.63 88.9109 259.46 87.1409 260.28 85.3709L260.32 85.2909C262.34 80.9509 264.43 76.4609 266.41 72.0209C267.56 69.4309 268.83 67.5209 270.41 66.0009C271.87 64.6009 273.32 63.1909 274.78 61.7609C277.73 58.8909 280.77 55.9209 283.84 53.091C284.56 52.4209 285.75 51.941 286.89 51.471C286.89 51.471 286.91 51.471 286.94 51.451C286.97 51.441 287.08 51.731 287.12 52.111C287.16 52.441 287.15 52.6609 287.12 52.8009L287.07 53.0709C286.78 54.5909 286.48 56.1609 285.91 57.4409C284.65 60.2409 283.32 63.0609 282.03 65.7809C280.66 68.6609 279.25 71.6509 277.92 74.6309C276.52 77.7609 275.5 80.6109 274.81 83.3409C273.78 87.3909 275.81 90.8509 279.86 91.9509C280.11 92.0209 280.37 92.0809 280.64 92.1309C284.15 92.7909 287.69 92.0209 291.46 89.7809C293.94 88.3109 296.25 86.4609 298.46 84.1709C298.98 83.6309 299.38 83.5009 299.38 83.9009C299.38 84.1509 299.38 84.3909 299.4 84.6309C299.56 88.5709 301.54 91.3509 304.84 92.2509C306.23 92.6309 307.77 92.6409 309.43 92.2809C310.97 91.9509 312.44 91.4509 313.81 90.8109C315.17 90.1609 316.54 89.3909 317.85 88.5309C317.9 88.5009 319.21 87.5809 320.93 86.2809L321.11 86.1409C321.44 85.8809 321.76 85.6309 322.09 85.3709C322.63 84.9409 322.72 85.0909 322.26 85.6909C318.59 90.5509 313.85 94.0209 307.2 96.8409C289.61 104.301 261.57 106.611 214.12 103.831C167.6 101.111 132.55 104.901 109.94 115.101C98.76 120.141 93.18 125.691 90.47 129.451C89.74 130.461 89.51 131.671 89.87 132.671C90.15 133.461 90.75 134.021 91.56 134.241C91.82 134.311 92.1 134.351 92.43 134.351C93.42 134.351 94.34 133.881 94.95 133.081C98.29 128.711 119.74 107.211 213.73 112.701C264.86 115.691 292.34 113.491 310.88 105.631C329.19 97.8609 333.94 85.9909 338.52 74.5109C339.29 72.5809 339.9 71.1109 340.47 69.7609L349.97 48.841C350.11 48.531 350.19 48.241 350.24 48.021L350.3 47.8009L350.31 47.791ZM77.2 118.841C73.03 123.701 68.3 128.001 63.12 131.621C59.84 133.921 56.21 136.361 51.71 139.301C48.88 141.151 45.98 142.751 43.07 144.061C38.06 146.311 33.35 147.421 28.66 147.441C28.11 147.441 27.56 147.431 27.03 147.401C24.47 147.261 22.14 146.761 19.92 145.871C16.56 144.531 14.15 142.271 12.55 138.971C10.63 135.001 10.06 130.771 10.8 126.031C11.32 122.701 12.55 119.451 14.56 116.081C17.39 111.331 21.11 107.061 25.92 103.041C30.67 99.0709 36.95 94.0709 43.4 90.6509C55.81 84.0709 66.07 79.9809 75.69 77.8009C83.68 75.9809 91.52 75.1509 99.83 74.2709C101.74 74.0709 103.7 73.8609 105.66 73.6409C106.12 73.5909 106.33 73.8909 106.14 74.3009C100.42 86.4909 93.04 98.7609 85.28 108.951C83.05 111.891 80.56 114.931 77.22 118.821L77.2 118.841Z" fill="white"/>
</svg>
