<?xml version="1.0" encoding="utf-8"?>
<!-- Generator: Adobe Illustrator 27.5.0, SVG Export Plug-In . SVG Version: 6.00 Build 0)  -->
<svg version="1.1" id="Layer_1" xmlns="http://www.w3.org/2000/svg" xmlns:xlink="http://www.w3.org/1999/xlink" x="0px" y="0px"
	 width="104px" height="47px" viewBox="0 0 104 47" style="enable-background:new 0 0 104 47;" xml:space="preserve">
<style type="text/css">
	.st0{fill:#FFFFFF;}
</style>
<path class="st0" d="M49.1,35.5c-1.1,0-2.3,0-3.4,0c-0.7,0-1.2,0.5-1.2,1.2c0,1.1,0,2.2,0,3.3c0,1.1,0,2.2,0,3.3
	c0,0.7,0.5,1.2,1.2,1.2c1.1,0,2.3,0,3.4,0c0.7,0,1.2-0.5,1.2-1.2c0-2.2,0-4.4,0-6.6C50.4,36,49.9,35.5,49.1,35.5L49.1,35.5z
	 M48.4,42.7h-1.9v-5.4h1.9V42.7z M70.7,35.5c-1.1,0-2.3,0-3.4,0c-0.7,0-1.2,0.5-1.2,1.2c0,1.1,0,2.2,0,3.3c0,1.1,0,2.2,0,3.3
	c0,0.7,0.5,1.2,1.2,1.2c1.1,0,2.3,0,3.4,0c0.7,0,1.2-0.5,1.2-1.2c0-2.2,0-4.4,0-6.6C71.9,36,71.4,35.5,70.7,35.5L70.7,35.5z
	 M69.9,42.7H68v-5.4h1.9V42.7z M41.2,35.5h2v9h-2v-3.6h-2.1v3.6h-2v-9h2v3.6h2.1V35.5z M62.8,35.5h2v9h-2v-3.6h-2.1v3.6h-2v-9h2v3.6
	h2.1V35.5z M78.8,43.2c0,0.6-0.4,1.1-0.9,1.2c-0.1,0-0.2,0-0.3,0c-1.1,0-2.2,0-3.3,0c-0.7,0-1.2-0.5-1.2-1.2c0-2.6,0-5.1,0-7.7v-0.1
	h2v7.2h1.7v-7.2h2c0,0,0,0.1,0,0.1C78.8,38.1,78.8,40.7,78.8,43.2L78.8,43.2z M56.2,35.5c-1.5,0-2.9,0-4.4,0h-0.1v9h2v-2.3h0.1
	c0.8,0,1.6,0,2.4,0c0.7,0,1.2-0.5,1.2-1.2c0-1.4,0-2.8,0-4.2C57.4,36,56.9,35.5,56.2,35.5L56.2,35.5z M55.4,40.3h-1.8v-3.1h1.8V40.3
	z M85.5,40.8c0,0.8,0,1.7,0,2.5c0,0.7-0.5,1.2-1.2,1.2c-1,0-2,0-3,0c-0.7,0-1.2-0.5-1.2-1.2c0-0.4,0-1.2,0-1.6h2v1h1.4v-0.1
	c0-0.4,0-0.8,0-1.2c0-0.1,0-0.2-0.1-0.2c-0.8-0.4-1.7-0.7-2.5-1.1c-0.4-0.2-0.7-0.5-0.7-0.9c0-0.1,0-0.1,0-0.2c0-0.7,0-1.5,0-2.2
	c0-0.7,0.5-1.2,1.2-1.2c1,0,2,0,3,0c0.7,0,1.2,0.5,1.2,1.2c0,0.3,0,1.1,0,1.6h-2v-1h-1.4c0,0,0,0.1,0,0.1c0,0.3,0,0.7,0,1
	c0,0.1,0,0.1,0.1,0.1c0.8,0.4,1.7,0.7,2.5,1.1c0.4,0.2,0.7,0.5,0.8,0.9C85.5,40.6,85.5,40.7,85.5,40.8L85.5,40.8z M35.9,40.9v2.4
	c0,0.6-0.3,1.1-0.9,1.2c-0.1,0-0.2,0-0.3,0c-1.1,0-2.1,0-3.2,0c-0.7,0-1.2-0.5-1.2-1.2c0-2.2,0-4.4,0-6.6c0-0.7,0.5-1.2,1.2-1.2
	c1.1,0,2.1,0,3.2,0c0.7,0,1.2,0.5,1.2,1.2v2.4h-2v-1.8h-1.6v5.4h1.6c0,0,0-0.1,0-0.1v-1.7L35.9,40.9L35.9,40.9z M86.8,35.5h5v1.8h-3
	v1.8H91v1.8c-0.6,0-1.7,0-2.1,0v1.8h3v1.8h-5L86.8,35.5L86.8,35.5z M100.5,17.8c-0.3,0.1-0.5,0-0.8,0c-0.1,0-0.2,0-0.2,0
	c0,0-0.1,0-0.1,0c-0.1,0-0.2-0.1-0.3-0.2C99,17.5,99,17.3,99,17.2c0-0.2,0.1-0.3,0.1-0.5c0.1-0.2,0.1-0.4,0.1-0.6
	c0-0.6-0.3-0.6-0.5-0.7c-0.1,0-0.2,0-0.3,0c-0.5,0-1,0.2-1.4,0.5c-0.2,0.2-0.2,0.3-0.1,0.5c0.2,0.3,0.4,0.6,0.7,1
	c0.2,0.2,0.4,0.5,0.6,0.7c0.3,0.4,0.7,0.8,1,1.2c0.7,0.9,0.9,1.9,0.8,2.9c-0.2,1-0.8,1.9-1.7,2.6c-1.6,1.2-3.4,1.6-5.2,1.2
	c-0.1,0-0.1,0-0.2-0.1c-1.3-0.3-2.1-1.3-2.3-2.5c-0.2-1.2,0.6-2.3,1.7-2.5c0.3-0.1,0.5-0.1,0.8,0c0.3,0.1,0.6,0.3,0.8,0.5
	c0.4,0.5,0.4,1.1,0.2,1.7c-0.1,0.3-0.3,0.4-0.4,0.5c-0.1,0.1-0.2,0.1-0.2,0.5c0,0.2,0.1,0.3,0.2,0.4c0.5,0.1,1,0.2,1.4,0.2
	c0.8,0,1.5-0.3,2.1-0.9c0.7-0.6,0.8-1.3,0.3-1.9c-0.3-0.4-0.6-0.7-0.9-1.1c-0.2-0.3-0.5-0.6-0.7-0.9c-0.4-0.5-0.7-1-1-1.5
	c-0.4-0.8-0.4-1.7,0.2-2.5c0.9-1.5,3.6-2.6,5.4-2.3c0.1,0,0.1,0,0.2,0c0.9,0.2,1.4,0.9,1.5,1.8C102,16.6,101.4,17.6,100.5,17.8
	L100.5,17.8z M39.1,12.2c0-0.6,0.2-1.1,0.6-1.5c0.4-0.3,0.8-0.5,1.3-0.5c0.1,0,0.2,0,0.3,0c0.5,0.1,0.8,0.5,0.9,1.1
	c0.1,0.9-0.5,1.9-1.4,2.1c-0.2,0.1-0.5,0.1-0.7,0C39.5,13.4,39.1,12.9,39.1,12.2L39.1,12.2z M91.4,11.9l1.9-1.1
	c0.1-0.1,0.3-0.3,0.2-0.4l-0.1-2c0-0.1,0.1-0.2,0.2-0.1L95,9.5c0.1,0.1,0.3,0.1,0.5,0l2-1c0.1-0.1,0.2,0,0.1,0.1l-1.1,1.9
	c-0.1,0.1-0.1,0.3,0,0.4l1.3,1.3c0.1,0.1,0.1,0.2-0.1,0.2l-2.1-0.1c-0.2,0-0.3,0.1-0.4,0.2l-1.1,1.9c-0.1,0.1-0.2,0.1-0.2,0l-0.2-2
	c0-0.1-0.1-0.3-0.3-0.3l-2-0.2C91.2,12,91.2,11.9,91.4,11.9L91.4,11.9z M91.9,14.8c0.1-0.2,0-0.4-0.1-0.5c-0.1-0.1-0.2-0.1-0.2-0.2
	c-0.1,0-0.2,0-0.2,0c-0.1,0-0.3,0.1-0.4,0.1l0,0c-0.3,0.1-0.7,0.1-1,0.2c-0.4,0.1-0.7,0.3-0.8,0.6l-0.1,0.2
	c-0.6,1.3-1.2,2.6-1.8,3.8c-0.2,0.4-0.5,0.9-0.8,1.4c-1,1.3-1.8,2.4-2.9,3.2c-0.5,0.4-1.1,0.7-1.6,0.9c-0.1,0-0.2,0.1-0.2,0
	c-0.1,0-0.1-0.1-0.2-0.4c-0.1-0.5,0.1-1,0.3-1.5l0,0c0.7-1.6,1.4-3.3,2.1-4.9c0.3-0.6,0.6-1.3,0.8-1.9c0.1-0.2,0.2-0.4,0.3-0.6
	l0.1-0.3c0.1-0.2,0.1-0.4-0.1-0.5c-0.1-0.1-0.2-0.2-0.3-0.2c-0.1,0-0.1,0-0.2,0c0,0-0.1,0-0.1,0c-0.1,0-0.2,0-0.3,0
	c-0.1,0-0.3,0.1-0.4,0.1c-0.3,0.1-0.5,0.1-0.8,0.2c-0.4,0.1-0.6,0.3-0.8,0.6c-0.2,0.5-0.5,0.9-0.7,1.4l0,0c-0.4,0.9-0.9,1.8-1.3,2.8
	c-0.5,1.2-1.2,2.2-2.3,3.4c-0.5,0.5-1,1.1-1.7,1.4c-0.2,0.1-0.5,0.2-0.6,0.2c0,0-0.1,0-0.1-0.1c-0.1-0.1-0.2-0.2-0.2-0.5
	c0-0.2,0.1-0.4,0.1-0.6c0-0.1,0.1-0.1,0.1-0.2l0,0c0.1-0.3,0.2-0.6,0.3-0.9c0.3-0.6,0.6-1.1,0.9-1.7c0.3-0.6,0.6-1.2,0.9-1.8
	c0.4-0.8,0.8-1.7,0.9-2.7c0.1-1-0.4-1.7-1.2-1.9c0,0-0.1,0-0.1,0c-0.4-0.1-0.8-0.1-1.2,0c-0.7,0.1-1.4,0.5-2.1,1.1
	c-0.5,0.4-0.9,0.8-1.3,1.2c-0.1,0.1-0.2,0.1-0.2-0.1c0-0.1,0-0.2,0-0.3c0-0.9-0.4-1.6-1.2-1.8l0,0c-0.4-0.1-0.8-0.1-1.2-0.1
	c-0.8,0.1-1.4,0.5-2,0.9c-0.7,0.5-1.4,1.2-2,1.8c-0.1,0.1-0.2,0.1-0.1-0.1l0.7-1.6c0.1-0.2,0-0.4-0.1-0.5c-0.1-0.1-0.2-0.2-0.3-0.2
	c-0.1,0-0.1,0-0.2,0c-0.1,0-0.1,0-0.1,0c-0.1,0-0.2,0-0.2,0c-0.1,0-0.3,0.1-0.4,0.1c-0.3,0.1-0.5,0.1-0.7,0.2
	c-0.4,0.1-0.7,0.2-0.8,0.6c-0.2,0.4-0.4,0.8-0.6,1.2l0,0c-0.4,0.7-0.7,1.5-1,2.3c-0.6,1.5-1.6,2.7-2.4,3.7c-0.5,0.7-1.2,1.4-2.1,1.8
	c-0.2,0.1-0.5,0.2-0.7,0.2c0,0-0.1,0-0.1-0.1c-0.1-0.1-0.3-0.2-0.1-0.8c0.1-0.5,0.3-0.9,0.5-1.3c0.3-0.6,0.6-1.2,0.9-1.7
	s0.6-1.2,0.9-1.8c0.4-0.8,0.8-1.7,0.9-2.7c0.1-1-0.4-1.7-1.2-1.9c0,0-0.1,0-0.1,0c-0.5-0.1-1-0.1-1.3,0c-0.6,0.2-1.2,0.4-1.7,0.8
	c-0.6,0.5-1.1,1-1.7,1.5c-0.1,0.1-0.2,0.1-0.2-0.1c0-0.1,0-0.2,0-0.3c0-0.9-0.4-1.6-1.2-1.8l0,0c-0.4-0.1-0.8-0.1-1.2-0.1
	c-0.8,0.1-1.4,0.5-2,0.9c-0.7,0.5-1.4,1.2-2,1.8c-0.1,0.1-0.2,0.1-0.1-0.1l0.7-1.6c0.1-0.2,0-0.4-0.1-0.5c-0.1-0.1-0.2-0.2-0.3-0.2
	c-0.1,0-0.1,0-0.2,0c-0.1,0-0.1,0-0.1,0c-0.1,0-0.2,0-0.2,0c-0.1,0-0.1,0-0.2,0c-0.1,0-0.2,0-0.2,0.1c0,0,0,0,0,0
	c-0.3,0.1-0.5,0.1-0.7,0.2c-0.4,0.1-0.7,0.2-0.8,0.6c-0.8,1.7-1.6,3.4-2.2,4.8c-0.1,0.2-0.2,0.4-0.3,0.5c-0.1,0.1-0.2,0.3-0.3,0.4
	c-0.5,0.6-1,1.3-1.5,1.9c-0.7,0.9-1.5,1.4-2.4,1.8c-0.2,0.1-0.5,0.2-0.6,0.1c0,0-0.1,0-0.1-0.1c-0.1-0.1-0.2-0.2,0-0.7l0,0
	c0.2-0.8,0.4-1.5,0.7-2.2c0.6-1.5,1.3-3,2-4.4c0.3-0.6,0.6-1.2,0.8-1.8c0-0.1,0.1-0.2,0.1-0.3l0.1-0.1c0.1-0.1,0.1-0.3,0-0.4
	c-0.1-0.1-0.2-0.2-0.3-0.3l-0.1,0c0,0-0.2,0-0.3,0l-0.2,0c-0.5,0.1-0.9,0.2-1.4,0.3c-0.3,0.1-0.5,0.3-0.5,0.5L37.4,17
	c-0.1,0.1-0.1,0.2-0.2,0.4l-0.4,0.8c0,0.1-0.2,0.2-0.3,0.2c-1.1,0.1-2.3,0.1-3.6,0.2c0,0,0,0,0,0s0,0,0,0c0,0,0-0.1,0-0.2
	c0-0.1,0.1-0.2,0.1-0.3c0.2-0.8,0.5-1.6,0.7-2.4c0.6-2.2,0.9-4.5,0.9-7c0-0.9-0.1-1.6-0.3-2.4c-0.2-1-0.6-1.8-1.3-2.5
	c-0.8-0.8-1.7-1.3-2.7-1.3c-0.4,0-0.9,0-1.4,0.2c-0.6,0.2-1.2,0.5-1.9,1c-0.9,0.7-1.5,1.4-2.1,2.2c-0.6,0.9-1,1.8-1.2,2.8
	c-0.2,0.8-0.3,1.6-0.4,2.4c-0.1,1.1,0,2,0.4,2.8c0.2,0.6,0.6,1.2,0.9,1.7c0.3,0.4,0.7,0.9,1.2,1.2c0.2,0.1,0.3,0.2,0.5,0.3
	c0.1,0,0.1,0,0.2,0c0.2,0,0.4-0.1,0.6-0.2c0.1-0.2,0.2-0.4,0.2-0.6c0-0.2-0.1-0.4-0.2-0.5c-0.1-0.2-0.3-0.5-0.5-0.7
	c-0.3-0.4-0.5-0.8-0.7-1.3c-0.3-1-0.4-2-0.2-2.9c0.4-1.8,1.2-3.5,2.5-4.9c0.3-0.3,0.6-0.5,0.9-0.7C29.6,5.1,29.8,5,30.1,5
	c0.1,0,0.2,0,0.3,0c0.2,0,0.4,0.1,0.5,0.2c0.2,0.1,0.3,0.3,0.5,0.5c0.4,0.6,0.7,1.1,0.8,1.7c0.1,0.4,0.1,0.9,0.2,1.3
	c0.2,1.9,0.1,3.6-0.3,5.1c-0.3,1.4-0.8,2.9-1.4,4.7c0,0.1-0.1,0.2-0.1,0.2h0c-0.1,0-0.3,0-0.4,0c-2.2,0.2-5,0.5-7.8,1.1
	c-1.9,0.4-4.2,0.9-6.6,1.9c-1.1,0.4-2.1,0.9-3,1.4c-1.9,1-3.5,2-5,3.2c-1.7,1.3-3,2.7-3.9,4.3C2.6,32.3,2,34,2,35.6
	c0,1.4,0.3,2.7,0.8,3.8c0.7,1.4,1.7,2.5,3.2,3.1C6.8,42.8,7.6,43,8.5,43c0.2,0,0.3,0,0.5,0c1.5,0,3.2-0.4,4.7-0.9
	c1.1-0.4,2.2-1,3.2-1.6c2.9-1.9,5.5-4.2,7.6-6.8c2.9-3.5,5.4-7.7,7.3-12.2c0,0,0-0.1,0-0.1c0,0,0.1-0.1,0.2-0.1c0.1,0,0.1,0,0.2,0
	c1.1-0.1,2.1-0.2,3.2-0.3c0.1,0,0.2,0.1,0.1,0.2c-0.1,0.3-0.3,0.6-0.4,0.9c-0.4,1-0.6,1.9-0.5,2.8c0.1,1.1,0.6,1.8,1.5,2.1
	c0.4,0.1,0.8,0.1,1.3,0c0.3-0.1,0.7-0.2,1-0.4c0.5-0.3,1.1-0.6,1.5-1c0.2-0.1,0.2-0.1,0.2,0L40,25.8c-0.1,0.2-0.1,0.4,0,0.5
	c0.1,0.1,0.2,0.2,0.3,0.2c0,0,0.1,0,0.1,0c0.2,0,0.3,0,0.5,0c0.3,0,0.6,0,0.9,0c0.5,0,0.9-0.2,1.1-0.7l1.8-3.9
	c0.1-0.2,0.2-0.5,0.4-0.6c1.3-1.5,2.6-3,4.1-4.3c0.3-0.2,0.6-0.4,0.9-0.6c0.2-0.1,0.3,0,0.2,0.2c-0.1,0.4-0.2,0.9-0.4,1.3
	c-0.7,1.7-1.5,3.4-2.2,5l0,0.1c-0.2,0.5-0.5,1.1-0.7,1.6c-0.1,0.3-0.2,0.5-0.4,0.8l-0.2,0.4c-0.1,0.2-0.1,0.4,0,0.5
	c0.1,0.1,0.2,0.2,0.3,0.2c0,0,0.1,0,0.1,0l0.4,0c0.4,0,0.9,0,1.3,0c0.3,0,0.6-0.3,0.7-0.5c0.2-0.3,0.3-0.7,0.5-1l0,0
	c0.5-1,1-2,1.4-3.1c0.4-1,1-1.9,1.7-2.5c0.4-0.4,0.8-0.7,1.1-1.1l0.4-0.4c0.4-0.4,0.8-0.7,1.3-1.2c0.2-0.1,0.4-0.4,0.7-0.5
	c0.2-0.1,0.3-0.1,0.3-0.1c0,0,0,0,0,0c0,0.2,0,0.3,0,0.4l0,0.1c-0.1,0.3-0.1,0.7-0.3,1c-0.3,0.7-0.7,1.4-1,2.1
	c-0.4,0.7-0.7,1.5-1.1,2.3c-0.4,0.8-0.6,1.5-0.8,2.2c-0.3,1.1,0.2,2,1.3,2.2c0.1,0,0.1,0,0.2,0c0.9,0.2,1.8,0,2.7-0.6
	c0.3-0.2,0.6-0.4,0.8-0.6c0.2-0.1,0.2-0.1,0.2,0l-0.1,0.2c-0.1,0.2-0.1,0.4,0,0.5c0.1,0.1,0.2,0.2,0.3,0.2c0,0,0.1,0,0.1,0
	c0.2,0,0.3,0,0.5,0c0.4,0,0.7,0,1,0c0.5,0,0.8-0.2,1-0.6l1.8-4c0.1-0.3,0.3-0.5,0.5-0.7c1.3-1.5,2.6-3,4.1-4.3
	c0.3-0.2,0.5-0.4,0.8-0.6c0.2-0.1,0.3,0,0.2,0.2c-0.1,0.4-0.2,0.9-0.4,1.3C68.2,19.8,67.1,22,66,24l-0.1,0.2
	c-0.1,0.3-0.3,0.5-0.4,0.8c-0.1,0.1-0.1,0.3-0.2,0.4c-0.1,0.2-0.1,0.4,0,0.5c0.1,0.1,0.2,0.2,0.3,0.2c0,0,0.1,0,0.1,0l1.8,0
	c0.2,0,0.4-0.1,0.5-0.3c0.2-0.5,0.4-0.9,0.6-1.4l0,0c0.5-1.1,1.1-2.3,1.6-3.4c0.3-0.7,0.6-1.2,1-1.5c0.4-0.4,0.7-0.7,1.1-1.1
	c0.8-0.7,1.5-1.5,2.3-2.2c0.2-0.2,0.5-0.3,0.8-0.4c0,0,0,0,0,0c0,0,0,0.1,0,0.2c0,0.1,0,0.1,0,0.2l0,0.1c-0.1,0.4-0.2,0.8-0.3,1.1
	c-0.3,0.7-0.7,1.4-1,2.1c-0.4,0.7-0.7,1.5-1.1,2.3c-0.4,0.8-0.6,1.5-0.8,2.2c-0.3,1,0.3,1.9,1.3,2.2c0.1,0,0.1,0,0.2,0
	c0.9,0.2,1.8,0,2.8-0.6c0.6-0.4,1.2-0.9,1.8-1.4c0.1-0.1,0.2-0.2,0.2-0.1c0,0.1,0,0.1,0,0.2c0,1,0.5,1.7,1.4,2
	c0.4,0.1,0.8,0.1,1.2,0c0.4-0.1,0.8-0.2,1.1-0.4c0.3-0.2,0.7-0.4,1-0.6c0,0,0.3-0.2,0.8-0.6l0,0c0.1-0.1,0.2-0.1,0.3-0.2
	c0.1-0.1,0.2-0.1,0,0.1c-0.9,1.2-2.2,2.1-3.9,2.9c-4.5,1.9-11.7,2.5-23.9,1.8C45,28.5,36,29.5,30.2,32.1c-2.9,1.3-4.3,2.7-5,3.7
	C25,36,25,36.3,25.1,36.6c0.1,0.2,0.2,0.3,0.4,0.4c0.1,0,0.1,0,0.2,0c0.3,0,0.5-0.1,0.6-0.3c0.9-1.1,6.4-6.6,30.5-5.2
	C70,32.2,77,31.7,81.8,29.6c4.7-2,5.9-5,7.1-8c0.2-0.5,0.4-0.9,0.5-1.2l2.4-5.4C91.9,15,91.9,14.9,91.9,14.8L91.9,14.8L91.9,14.8z
	 M21.8,33c-1.1,1.2-2.3,2.4-3.6,3.3c-0.8,0.6-1.8,1.2-2.9,2c-0.7,0.5-1.5,0.9-2.2,1.2c-1.3,0.6-2.5,0.9-3.7,0.9c-0.1,0-0.3,0-0.4,0
	c-0.7,0-1.3-0.2-1.8-0.4c-0.9-0.3-1.5-0.9-1.9-1.8c-0.5-1-0.6-2.1-0.4-3.3c0.1-0.9,0.4-1.7,1-2.6C6.5,31.1,7.4,30,8.7,29
	c1.2-1,2.8-2.3,4.5-3.2c3.2-1.7,5.8-2.7,8.3-3.3c2.1-0.5,4.1-0.7,6.2-0.9c0.5-0.1,1-0.1,1.5-0.2c0.1,0,0.2,0.1,0.1,0.2
	c-1.5,3.1-3.4,6.3-5.4,8.9C23.3,31.3,22.7,32,21.8,33L21.8,33z"/>
</svg>
