<?xml version="1.0" encoding="utf-8"?>
<!-- Generator: Adobe Illustrator 26.0.2, SVG Export Plug-In . SVG Version: 6.00 Build 0)  -->
<svg version="1.1" id="Layer_1" xmlns="http://www.w3.org/2000/svg" xmlns:xlink="http://www.w3.org/1999/xlink" x="0px" y="0px"
	 width="79px" height="42px" viewBox="0 0 79 42" style="enable-background:new 0 0 79 42;" xml:space="preserve">
<style type="text/css">
	.st0{fill:#FFFFFF;}
</style>
<g>
	<g>
		<path class="st0" d="M19.9,20c-0.4-0.2-0.8-0.4-1.2-0.4c-0.4-0.1-0.8,0-1.2,0.1c0.1,0.4,0.3,0.8,0.5,1.1c0.2,0.3,0.6,0.6,0.9,0.8
			c0.4,0.2,0.7,0.4,1.2,0.4s0.8,0,1.2-0.1c-0.1-0.4-0.3-0.8-0.5-1.1C20.6,20.5,20.3,20.2,19.9,20L19.9,20z"/>
		<path class="st0" d="M29.8,20c-0.3,0.2-0.7,0.5-0.9,0.8c-0.2,0.3-0.4,0.7-0.5,1.1c0.4,0.1,0.8,0.1,1.2,0.1s0.8-0.2,1.2-0.4
			c0.4-0.2,0.7-0.5,0.9-0.8c0.2-0.3,0.4-0.7,0.5-1.1c-0.4-0.1-0.8-0.1-1.2-0.1C30.6,19.6,30.2,19.8,29.8,20L29.8,20z"/>
		<path class="st0" d="M31.7,13.1c-0.4-0.1-0.6,0.6-1.5,1.4c-1.7,1.5-3.1,2.4-5.3,2.4c-2.2,0-3.6-1-5.3-2.4
			c-0.9-0.8-1.1-1.4-1.5-1.4c-0.5,0.1-0.6,1.1-0.8,2.1c-0.1,0.3-0.1,0.7-0.1,1c0,0.1,0,0.2,0.1,0.3c0,0.1,0.1,0.1,0.2,0.2l2.9,1.5
			c1,0.5,1.8,1.3,2.3,2.2c0.6,0.9,0.9,2,0.9,3.1v3.7c0,0.1,0,0.3,0.1,0.4c0.1,0.1,0.1,0.3,0.2,0.4c0.1,0.1,0.2,0.2,0.4,0.2
			c0.1,0.1,0.3,0.1,0.4,0.1h0.4c0.1,0,0.3,0,0.4-0.1c0.1-0.1,0.3-0.1,0.4-0.2c0.1-0.1,0.2-0.2,0.2-0.4c0.1-0.1,0.1-0.3,0.1-0.4v-3.7
			c0-1.1,0.3-2.2,0.9-3.1c0.6-0.9,1.4-1.7,2.3-2.2l2.9-1.5c0.1,0,0.2-0.1,0.2-0.2c0-0.1,0.1-0.2,0.1-0.3c0-0.3-0.1-0.7-0.1-1
			C32.3,14.2,32.2,13.1,31.7,13.1z"/>
		<path class="st0" d="M51.8,13h-4c-0.1,0-0.3,0-0.3,0.1c0,0.1,0.1,0.2,0.2,0.3c0.6,0.7,0.6,2,0.6,2.7v5.5c0,2.5-0.9,4.4-4.6,4.4
			S39,24,39,21.6V16c0-0.8,0-2,0.6-2.7c0.1-0.1,0.1-0.2,0.2-0.3c0,0-0.1-0.1-0.3-0.1h-4c-0.1,0-0.3,0-0.3,0.1c0,0.1,0.1,0.2,0.2,0.3
			c0.6,0.7,0.6,2,0.6,2.7v6c0,4,2.8,6.3,7.6,6.3c4.7,0,7.6-2.3,7.6-6.3v-6c0-0.8,0-2,0.6-2.7c0.1-0.1,0.1-0.2,0.2-0.3
			C52,13,51.9,13,51.8,13z"/>
		<path class="st0" d="M68.4,20.4c-0.1-0.1-0.1-0.2,0-0.2c1.2-0.7,1.8-1.8,1.8-3c0-2.6-1.5-4.1-5-4.1h-9.9c-0.1,0-0.3,0-0.3,0.1
			c0,0.1,0.1,0.2,0.2,0.3c0.6,0.7,0.6,2,0.6,2.7v7.6c0,0.8,0,3.3-0.6,4.3c-0.1,0.1-0.1,0.2-0.2,0.3c0,0,0.1,0.1,0.3,0.1h10.4
			c2.8,0,5-1.4,5-4.2C70.8,22.2,69.8,21.1,68.4,20.4z M58.8,15.7c0-0.1,0-0.1,0.1-0.2c0,0,0.1-0.1,0.2-0.1h6.2
			c1.5,0,2.1,0.4,2.1,1.8c0,0.9-0.5,1.8-1.8,1.8h-6.5c-0.1,0-0.1,0-0.2-0.1c0,0-0.1-0.1-0.1-0.2V15.7z M65.1,25.7h-6
			c-0.1,0-0.1,0-0.2-0.1c0,0-0.1-0.1-0.1-0.2v-3.7c0-0.1,0-0.1,0.1-0.2c0,0,0.1-0.1,0.2-0.1H65c2.1,0,2.9,0.7,2.9,2
			C67.9,25,67.2,25.7,65.1,25.7L65.1,25.7z"/>
		<path class="st0" d="M77.9,23.6V16c0-0.8,0-2,0.7-2.7c0.1-0.1,0.2-0.2,0.2-0.2c0,0-0.1-0.1-0.3-0.1h-4.3c-0.1,0-0.3,0-0.3,0.1
			c0,0,0.1,0.1,0.2,0.2C75,14,75,15.3,75,16v7.6c0,0.8,0,3.4-0.8,4.3C74.1,28,74,28.1,74,28.1c0,0,0.1,0.1,0.3,0.1h4.3
			c0.1,0,0.3,0,0.3-0.1c0,0-0.1-0.1-0.2-0.2C77.9,27,77.9,24.4,77.9,23.6z"/>
		<path class="st0" d="M16.6,27.9c-1.1-0.9-3.6-3.5-4.4-4.3l-2.8-3.1c0-0.1-0.1-0.1-0.1-0.2c0-0.1,0-0.1,0.1-0.2l3.1-4.1l2.3-2.7
			c0.1-0.1,0.1-0.2,0.2-0.3c0,0-0.1-0.1-0.3-0.1h-3.9c-0.1,0-0.3,0-0.3,0.1c0,0,0.1,0.2,0.1,0.3c0.1,0.6-0.3,1.4-1.4,2.7l-3.6,4.7
			l-0.3,0.4L4.6,22c-0.1,0.1-0.1,0.1-0.1-0.1V16c0-0.8,0-2,0.7-2.7c0.1-0.1,0.2-0.2,0.2-0.2c0,0-0.1-0.1-0.3-0.1h-4
			c-0.1,0-0.3,0-0.3,0.1c0,0.1,0.1,0.2,0.2,0.3c0.6,0.7,0.6,1.9,0.6,2.7v7.6c0,0.8,0,3.3-0.6,4.3c-0.1,0.1-0.1,0.2-0.2,0.3
			c0,0,0.1,0.1,0.3,0.1h4c0.1,0,0.3,0,0.3-0.1c0-0.1-0.1-0.2-0.2-0.3c-0.2-0.4-0.4-0.8-0.4-1.2c0-0.2,0-0.3,0.1-0.5l2.4-3.1
			c0,0,0,0,0.1-0.1c0,0,0.1,0,0.1,0c0,0,0.1,0,0.1,0c0,0,0.1,0,0.1,0.1l2.4,2.7c1.2,1.3,2.7,2.6,5.1,2.6c0.5,0,1-0.1,1.5-0.2
			c0.1,0,0.2-0.1,0.2-0.1C16.9,28.1,16.8,28,16.6,27.9z"/>
	</g>
</g>
</svg>
