<?xml version="1.0" encoding="UTF-8"?>
<svg id="Layer_1" xmlns="http://www.w3.org/2000/svg" version="1.1" viewBox="0 0 79 42">
  <!-- Generator: Adobe Illustrator 29.5.0, SVG Export Plug-In . SVG Version: 2.1.0 Build 137)  -->
  <defs>
    <style>
      .st0 {
        fill: #4f2c1d;
      }
    </style>
  </defs>
  <path class="st0" d="M19.9,20c-.4-.2-.8-.4-1.2-.4-.4-.1-.8,0-1.2.1.1.4.3.8.5,1.1.2.3.6.6.9.8.4.2.7.4,1.2.4s.8,0,1.2-.1c-.1-.4-.3-.8-.5-1.1-.2-.3-.5-.6-.9-.8h0Z"/>
  <path class="st0" d="M29.8,20c-.3.2-.7.5-.9.8-.2.3-.4.7-.5,1.1.4.1.8.1,1.2.1s.8-.2,1.2-.4c.4-.2.7-.5.9-.8.2-.3.4-.7.5-1.1-.4-.1-.8-.1-1.2-.1s-.8.2-1.2.4h0Z"/>
  <path class="st0" d="M31.7,13.1c-.4-.1-.6.6-1.5,1.4-1.7,1.5-3.1,2.4-5.3,2.4s-3.6-1-5.3-2.4c-.9-.8-1.1-1.4-1.5-1.4-.5.1-.6,1.1-.8,2.1-.1.3-.1.7-.1,1,0,.1,0,.2.1.3,0,.1.1.1.2.2l2.9,1.5c1,.5,1.8,1.3,2.3,2.2.6.9.9,2,.9,3.1v3.7c0,.1,0,.3.1.4s.1.3.2.4.2.2.4.2c.1.1.3.1.4.1h.4c.1,0,.3,0,.4-.1s.3-.1.4-.2.2-.2.2-.4c.1-.1.1-.3.1-.4v-3.7c0-1.1.3-2.2.9-3.1s1.4-1.7,2.3-2.2l2.9-1.5c.1,0,.2-.1.2-.2s.1-.2.1-.3c0-.3-.1-.7-.1-1-.2-1-.3-2.1-.8-2.1Z"/>
  <path class="st0" d="M51.8,13h-4c-.1,0-.3,0-.3.1s.1.2.2.3c.6.7.6,2,.6,2.7v5.5c0,2.5-.9,4.4-4.6,4.4s-4.7-2-4.7-4.4v-5.6c0-.8,0-2,.6-2.7.1-.1.1-.2.2-.3,0,0-.1-.1-.3-.1h-4c-.1,0-.3,0-.3.1s.1.2.2.3c.6.7.6,2,.6,2.7v6c0,4,2.8,6.3,7.6,6.3,4.7,0,7.6-2.3,7.6-6.3v-6c0-.8,0-2,.6-2.7.1-.1.1-.2.2-.3,0,0-.1,0-.2,0Z"/>
  <path class="st0" d="M68.4,20.4c-.1-.1-.1-.2,0-.2,1.2-.7,1.8-1.8,1.8-3,0-2.6-1.5-4.1-5-4.1h-9.9c-.1,0-.3,0-.3.1s.1.2.2.3c.6.7.6,2,.6,2.7v7.6c0,.8,0,3.3-.6,4.3-.1.1-.1.2-.2.3,0,0,.1.1.3.1h10.4c2.8,0,5-1.4,5-4.2.1-2.1-.9-3.2-2.3-3.9ZM58.8,15.7q0-.1.1-.2s.1-.1.2-.1h6.2c1.5,0,2.1.4,2.1,1.8,0,.9-.5,1.8-1.8,1.8h-6.5q-.1,0-.2-.1s-.1-.1-.1-.2c0,0,0-3,0-3ZM65.1,25.7h-6q-.1,0-.2-.1s-.1-.1-.1-.2v-3.7q0-.1.1-.2s.1-.1.2-.1h5.9c2.1,0,2.9.7,2.9,2,0,1.6-.7,2.3-2.8,2.3h0Z"/>
  <path class="st0" d="M77.9,23.6v-7.6c0-.8,0-2,.7-2.7.1-.1.2-.2.2-.2,0,0-.1-.1-.3-.1h-4.3c-.1,0-.3,0-.3.1,0,0,.1.1.2.2.9.7.9,2,.9,2.7v7.6c0,.8,0,3.4-.8,4.3-.1.1-.2.2-.2.2,0,0,.1.1.3.1h4.3c.1,0,.3,0,.3-.1l-.2-.2c-.8-.9-.8-3.5-.8-4.3Z"/>
  <path class="st0" d="M16.6,27.9c-1.1-.9-3.6-3.5-4.4-4.3l-2.8-3.1c0-.1-.1-.1-.1-.2s0-.1.1-.2l3.1-4.1,2.3-2.7c.1-.1.1-.2.2-.3,0,0-.1-.1-.3-.1h-3.9c-.1,0-.3,0-.3.1,0,0,.1.2.1.3.1.6-.3,1.4-1.4,2.7l-3.6,4.7-.3.4-.7.9q-.1.1-.1-.1v-5.9c0-.8,0-2,.7-2.7.1-.1.2-.2.2-.2,0,0-.1-.1-.3-.1H1.1c-.1,0-.3,0-.3.1s.1.2.2.3c.6.7.6,1.9.6,2.7v7.6c0,.8,0,3.3-.6,4.3-.1.1-.1.2-.2.3,0,0,.1.1.3.1h4c.1,0,.3,0,.3-.1s-.1-.2-.2-.3c-.2-.4-.4-.8-.4-1.2,0-.2,0-.3.1-.5l2.4-3.1.1-.1h.2s.1,0,.1.1l2.4,2.7c1.2,1.3,2.7,2.6,5.1,2.6.5,0,1-.1,1.5-.2.1,0,.2-.1.2-.1,0-.1-.1-.2-.3-.3Z"/>
</svg>