<svg xmlns="http://www.w3.org/2000/svg" width="760" height="186" fill="none" viewBox="0 0 760 186">
    <path fill="#2C2A26" d="M749.029.142C503.868 30.255 256.02 30.255 10.971.142 5.15-.642 0 3.948 0 9.769v166.24c0 5.821 5.15 10.411 10.97 9.627 245.162-30.113 493.01-30.113 738.059 0 5.821.672 10.971-3.806 10.971-9.627V9.769c0-5.821-5.15-10.41-10.971-9.627zM51.943 148.47c-4.142.448-5.597.224-5.71-2.351l31.793.336c-.783.448-2.015.672-3.806.784-7.388.112-14.889.447-22.277 1.231z"/>
    <path fill="#A9AC2B" d="M374.571 65.518c-.112-3.806-.224-7.612-.112-11.53.112-4.254-.224-4.478-5.709-4.366-22.277.56-44.667 1.343-66.944 1.007-20.15-.223-40.188-1.679-60.339-2.798-5.373-.336-5.933 0-5.821 4.366.112 3.582.112 7.276-.112 10.858-.224 4.926.336 5.15 6.381 4.59 10.075-1.007 20.15-1.679 31.793-2.575.336 12.986 1.343 24.964.895 36.831-.335 10.522-2.127 21.157-3.358 31.792-.448 4.254.112 4.478 5.597 4.254 6.605-.336 13.098-.448 19.703-.336 4.59.112 5.597-.336 5.149-3.918-.895-8.06-2.463-16.008-2.686-24.068-.448-13.434 0-26.98-.112-40.525 0-2.574 1.343-3.246 4.701-3.134 21.83 1.231 43.771 2.127 65.712 3.246 4.478.224 5.374-.336 5.262-3.694z"/>
    <path fill="#798732" d="M264.528 77.72c.448-3.246-.448-3.806-4.59-3.806-6.157 0-12.314 0-18.583-.224-5.149-.112-5.933.336-5.261 4.366 1.008 6.157 1.903 12.314 2.799 18.471.895 6.269.895 12.538 0 18.807-1.008 6.605-1.903 13.21-2.911 19.926-.448 3.359.448 4.142 4.814 3.919 5.821-.224 11.642-.56 17.351-.56 6.269 0 7.053-.336 6.157-5.262-.112-.447-.224-1.007-.224-1.455-2.35-12.65-4.142-25.412-2.127-38.397.896-5.262 1.792-10.523 2.575-15.785z"/>
    <path fill="#F36B21" d="M166.799 51.301c.112-4.59-.335-5.038-5.821-5.038h-3.47c-35.375-.671-70.75-1.343-106.125-5.709-4.813-.56-5.597.224-5.037 4.926C47.8 57.57 49.704 69.548 50.6 81.526c1.455 20.598-.56 40.973-4.142 61.683-.896 5.037.112 5.485 5.373 5.037 7.388-.784 14.889-1.007 22.277-1.231 4.142-.112 5.486-1.12 4.926-4.814-1.008-6.829-2.239-13.657-3.135-20.598-.671-5.373-1.007-10.747-1.455-17.352 6.717 1.568 12.202 2.799 17.688 4.03 3.694.896 4.253.56 4.365-2.91 0-5.15 0-10.187.112-15.337 0-3.806-.56-4.03-4.701-2.91-5.486 1.455-10.971 2.575-17.576 4.142.784-9.516 1.567-17.464 2.015-25.412.112-2.799 1.12-3.47 4.142-3.246 14.665.895 29.33 1.231 43.995 2.574 12.986 1.12 25.747 3.135 38.621 4.926 3.247.448 3.806-.672 3.806-2.799-.112-5.597-.224-10.858-.112-16.008z"/>
    <path fill="#AC8126" d="M223.892 48.614c-3.471.112-6.941.448-10.411.224-11.307-.448-22.613-1.12-33.92-1.79-4.59-.337-5.485.223-5.261 4.03.112 3.357.224 6.716.224 10.074 0 2.687-.224 5.486-.224 8.172 0 2.24 1.343 2.91 3.694 1.568 1.119-.672 2.239-1.344 3.47-2.016 5.821-3.246 12.202-4.365 19.479-3.134 1.567 14.33 4.142 28.322 1.679 42.539-.448 2.799-1.679 5.598-3.134 8.284-1.68 3.023-4.926 4.142-8.956 3.807-5.373-.448-9.068-2.911-12.538-5.934-1.567-1.343-3.246-2.686-5.485-4.477-.56 1.567-1.12 2.35-1.12 3.134-.336 8.396-.672 16.904-1.007 25.3-.112 1.791 1.007 3.022 3.358 3.022 10.411-.335 20.822-.447 31.233-1.231 7.836-.56 13.769-4.254 16.68-10.075 2.015-3.918 3.694-8.172 4.03-12.314.895-10.523.784-21.046 1.343-31.457.672-11.083 1.567-22.165 2.463-33.136.336-3.918-.672-4.702-5.597-4.59z"/>
    <path fill="#FF7E7C" d="M151.127 77.384c0-3.918-1.119-4.477-5.933-4.59-10.635-.111-21.382-.335-32.017-.671-5.485-.112-6.045.336-6.492 5.15-.896 9.29-1.456 18.583-3.135 27.762-2.239 11.754-5.597 23.509-8.508 35.375-1.007 4.03.112 4.926 4.59 4.59 5.821-.448 11.53-.784 17.352-1.008 4.589-.112 5.485-.783 5.485-4.702v-9.739c4.478-.224 8.396-.336 13.098-.448v9.292c0 4.03 1.007 4.702 5.597 4.366 5.261-.448 10.523-.784 15.784-.896 6.493 0 7.389-.783 5.71-5.933-6.157-18.807-11.307-38.397-11.531-58.548zm-28.322 39.405c1.903-10.523 3.806-20.71 5.597-30.785.336 0 .784 0 1.12.112 1.791 10.075 3.582 20.15 5.373 30.449-4.366 0-7.836.112-12.09.224z"/>
    <path fill="#F36B21" d="M368.638 116.342c-3.695-8.956-6.941-17.912-10.411-26.98.447-.335.895-.56 1.455-.895 3.134 1.231 6.157 2.575 9.291 3.694 1.232.448 2.687.672 4.142 1.008.336-1.12 1.008-2.127 1.008-3.247.112-4.59 0-9.18.112-13.769 0-3.135-.784-3.806-4.926-3.582-4.366.224-8.731.671-13.097.671-14.218 0-28.323-.224-42.54-.447-4.254-.112-5.373.56-5.037 3.806.112 1.567.447 3.022.671 4.59 2.463 17.24 2.351 34.367-.559 51.607-.672 4.253.335 4.813 6.157 4.477 5.373-.335 10.858-.224 16.232-.112 4.254.112 5.373-.783 4.701-3.918-.671-2.91-1.455-5.821-2.238-9.179 3.918 0 7.164 0 10.522-.112 2.127-.112 3.023.56 3.135 2.127.224 2.127.56 4.142.896 6.269.559 4.59 1.119 4.813 7.164 4.478 5.597-.224 11.307-.224 17.016-.112 5.149.112 6.045-.672 4.254-4.366-2.799-5.15-5.71-10.523-7.948-16.008zm-30.226-2.687c-6.605-.112-6.717 1.231-6.493-5.038.224-7.388.896-14.777 1.456-22.165.112-.784.447-1.68.671-2.463.336 0 .672 0 1.008-.112 3.246 9.74 6.605 19.479 10.075 29.666-2.911 0-4.814.112-6.717.112z"/>
    <path fill="#798732" d="M523.011 75.705c5.597 19.367 8.956 39.181 9.627 59.331.112 4.254 1.232 4.814 6.605 4.814 7.388 0 14.889.336 22.389.784 5.262.336 5.933-.112 6.269-4.366 1.008-10.075 2.127-20.15 3.358-30.337.336-2.911 1.232-5.71 1.792-8.62.671-2.799 1.343-5.71 2.015-8.508.895 1.007 1.343 1.791 1.567 2.799 3.022 15.224 6.157 30.561 9.067 46.121.672 3.582 1.344 4.142 5.598 4.254 7.276.112 14.665.336 21.941.896 3.47.224 4.926-.672 5.038-3.583.336-5.933.783-11.866 1.455-17.799 1.679-14.777 3.246-29.666 5.485-44.554 1.791-12.426 9.18-18.247 23.845-19.367 9.291-.672 18.583-1.008 27.762-.784 10.635.224 21.27 1.008 31.793 1.68 4.254.224 5.037-.672 5.037-4.478-.111-6.94-.223-13.993-.111-21.046 0-4.142-.672-4.814-5.15-4.366-6.045.672-12.09 1.12-18.135 1.791-17.016 1.68-34.032 2.799-50.936 5.038-15.112 1.903-26.866 9.067-31.792 21.605-3.135 7.948-4.366 16.344-6.045 24.516-1.344 6.493-2.127 13.098-3.135 19.591-.335 0-.671-.112-1.119-.112-4.142-14.889-8.284-29.442-12.314-43.995-2.127-7.724-1.903-7.612-11.754-7.276-3.919.112-5.822 1.455-6.605 4.59-2.575 10.299-5.262 20.598-8.06 30.785-1.456 5.261-3.135 10.523-4.814 15.672-1.008-.448-1.343-.896-1.455-1.343-.448-1.567-1.232-3.135-1.344-4.814-.895-13.77-1.791-27.539-2.462-41.308-.224-4.59-.896-4.925-6.493-4.478-6.941.56-13.882.896-20.822.784-6.381-.112-7.053.336-5.262 5.261 2.575 6.717 5.15 13.77 7.165 20.822z"/>
    <path fill="#AC8126" d="M481.143 72.347c-13.881-.112-24.964 3.806-32.128 12.874-2.799 3.582-4.366 7.276-5.374 11.082-1.119 4.478-1.231 9.068-.559 13.658.335 2.239.671 4.589 1.343 6.828 2.911 9.963 10.187 17.352 23.844 20.374 7.501 1.68 15.113 1.792 22.614.56 8.731-1.455 15.672-4.925 19.702-11.082 8.62-13.322 8.844-27.203.448-40.749-5.933-9.291-16.568-13.433-29.89-13.545zm10.299 32.912v.224c-.112 5.485-.559 10.97-4.03 15.896-1.679 2.351-3.806 4.478-7.836 4.366-3.918-.112-6.157-2.127-7.5-4.478-5.933-10.635-5.71-21.158-.224-31.792 1.343-2.463 3.806-4.478 7.836-4.478s6.269 2.127 7.836 4.478c3.247 5.149 4.03 9.291 3.918 15.784z"/>
    <path fill="#A9AC2B" d="M705.818 111.416c-1.007-13.098 1.343-25.971 4.03-38.957 1.12-5.262.448-5.71-5.373-5.486-6.829.336-13.658.448-20.374.56-4.142.112-4.926 1.008-4.142 4.702 1.343 6.605 2.91 13.21 3.582 19.926.56 5.822.112 11.643.112 17.912-.672-.672-1.008-1.008-1.232-1.344-7.164-11.53-12.65-23.284-13.993-36.27-.448-4.03-1.231-4.59-5.709-4.366-7.724.448-15.449.672-23.173.784-6.045.112-6.493.783-5.597 5.82 1.791 9.516 3.582 19.144 4.254 28.883.895 11.978-1.232 23.844-4.254 35.375-1.12 4.142 0 5.037 4.925 5.261 6.717.224 13.322.56 20.039 1.12 5.597.447 6.157-.112 5.149-5.15-1.231-5.373-2.463-10.859-3.134-16.232-.784-6.605-1.12-13.322-1.567-19.926.447-.112.783-.112 1.231-.224.448.559.896 1.007 1.343 1.567 8.732 10.859 13.322 23.509 15.561 36.83.671 4.142 1.567 4.59 6.045 4.814 7.052.336 14.105.671 21.158 1.343 5.373.448 5.933-.224 5.149-5.261-1.343-10.635-3.134-21.158-4.03-31.681z"/>
    <path fill="#FF7E7C" d="M379.944 54.66c.112 3.134.336 6.268.112 9.515-.336 6.269-.112 6.38 7.948 4.59 5.485-1.232 10.971-2.687 17.128-2.127.336 2.574.672 4.925 1.007 7.276 2.015 19.927.896 39.741-2.686 59.443-.56 3.247.559 3.918 4.813 3.806 5.71-.223 11.419-.671 17.016-.111 10.411 1.231 9.292-.56 8.396-6.829-2.351-16.568-4.254-33.024-3.47-49.592.224-4.59.783-9.18 1.231-13.77 1.12-.111 1.679-.223 2.351-.223 23.621-.336 47.241-.448 70.75 1.679 5.037.448 5.821-.112 5.709-3.806-.112-4.03-.112-7.948-.112-11.978 0-3.807-.56-4.254-5.597-4.03-12.762.671-25.524 1.567-38.286 1.903-27.091.671-54.182.783-81.384.783-4.142-.336-5.038.336-4.926 3.47z"/>
</svg>
