<svg xmlns="http://www.w3.org/2000/svg" width="667.5" height="120" viewBox="0 0 667.5 120">
  <defs>
    <style>
      .a {
        fill: #a60;
      }
    </style>
  </defs>
  <path class="a" d="M374.6,65.5c-.1-3.8-.3-7.6-.1-11.5s-.3-4.5-5.7-4.4c-22.3.6-44.7,1.4-67,1-20.1-.2-40.2-1.7-60.3-2.8-5.4-.3-6,0-5.9,4.4a79.3,79.3,0,0,1-.1,10.9c-.2,4.9.4,5.1,6.4,4.5,10.1-1,20.2-1.6,31.8-2.5.3,13,1.4,24.9.9,36.8s-2.1,21.2-3.4,31.8c-.4,4.2.2,4.5,5.6,4.2s13.1-.4,19.7-.3c4.6.1,5.6-.3,5.2-3.9-.9-8.1-2.5-16-2.7-24.1-.4-13.4,0-27-.1-40.5,0-2.6,1.3-3.2,4.7-3.1,21.8,1.2,43.8,2.1,65.7,3.2,4.5.2,5.4-.3,5.3-3.7Z" transform="translate(-46.2 -28.5)"/>
  <path class="a" d="M264.5,77.7c.5-3.2-.4-3.8-4.6-3.8-6.1,0-12.3,0-18.5-.2s-6,.3-5.3,4.4c1,6.1,1.9,12.3,2.8,18.4a65.8,65.8,0,0,1,0,18.8c-1,6.6-1.9,13.2-2.9,20-.5,3.3.4,4.1,4.8,3.9s11.6-.6,17.3-.6,7.1-.3,6.2-5.2a7.7,7.7,0,0,1-.2-1.5c-2.4-12.6-4.2-25.4-2.1-38.4C262.8,88.2,263.7,83,264.5,77.7Z" transform="translate(-46.2 -28.5)"/>
  <path class="a" d="M166.8,51.3c.1-4.6-.3-5-5.8-5h-3.5c-35.4-.7-70.7-1.4-106.1-5.7-4.8-.6-5.6.2-5.1,4.9,1.5,12.1,3.4,24,4.3,36,1.5,20.6-.6,41-4.1,61.7-.9,5,.1,5.5,5.3,5,7.4-.7,14.9-1,22.3-1.2,4.1-.1,5.5-1.1,4.9-4.8-1-6.8-2.2-13.7-3.1-20.6-.7-5.4-1-10.7-1.5-17.3l17.7,4c3.7.9,4.3.5,4.4-2.9,0-5.2,0-10.2.1-15.4s-.6-4-4.7-2.9-11,2.6-17.6,4.2c.8-9.5,1.6-17.5,2-25.4.2-2.8,1.2-3.5,4.2-3.3,14.7.9,29.3,1.2,44,2.6,13,1.1,25.7,3.1,38.6,4.9,3.3.5,3.8-.7,3.8-2.8C166.8,61.7,166.7,56.5,166.8,51.3Z" transform="translate(-46.2 -28.5)"/>
  <path class="a" d="M223.9,48.6a90.3,90.3,0,0,1-10.4.2c-11.3-.4-22.6-1.1-33.9-1.8-4.6-.3-5.5.3-5.3,4.1s.2,6.7.2,10.1-.2,5.4-.2,8.1,1.3,2.9,3.7,1.6a29.1,29.1,0,0,1,3.5-2,28.5,28.5,0,0,1,19.4-3.2c1.6,14.4,4.2,28.4,1.7,42.6a27.1,27.1,0,0,1-3.1,8.3c-1.7,3-4.9,4.1-9,3.8s-9-2.9-12.5-6l-5.5-4.4c-.6,1.5-1.1,2.3-1.1,3.1-.3,8.4-.7,16.9-1,25.3-.1,1.8,1,3,3.3,3,10.5-.3,20.9-.4,31.3-1.2,7.8-.6,13.7-4.3,16.7-10.1a35.5,35.5,0,0,0,4-12.3c.9-10.5.8-21,1.3-31.5s1.6-22.1,2.5-33.1c.3-3.9-.7-4.7-5.6-4.6Z" transform="translate(-46.2 -28.5)"/>
  <path class="a" d="M151.1,77.4c0-3.9-1.1-4.5-5.9-4.6-10.6-.1-21.4-.3-32-.7-5.5-.1-6.1.4-6.5,5.2-.9,9.3-1.5,18.6-3.1,27.7-2.3,11.8-5.6,23.5-8.6,35.4-1,4,.2,4.9,4.6,4.6,5.9-.4,11.6-.8,17.4-1s5.5-.8,5.5-4.7v-9.7c4.4-.3,8.4-.4,13.1-.5v9.3c0,4,1,4.7,5.6,4.4s10.5-.8,15.7-.9,7.4-.8,5.8-6c-6.2-18.8-11.3-38.4-11.6-58.5Zm-28.3,39.4c1.9-10.5,3.8-20.7,5.6-30.8h1.1c1.8,10.1,3.6,20.2,5.4,30.5Z" transform="translate(-46.2 -28.5)"/>
  <path class="a" d="M368.6,116.3c-3.7-8.9-6.9-17.9-10.4-26.9a7.5,7.5,0,0,1,1.5-.9l9.3,3.7c1.2.4,2.7.6,4.1,1a11.2,11.2,0,0,0,1-3.3c.1-4.6,0-9.2.1-13.7s-.7-3.9-4.9-3.6-8.7.6-13.1.6c-14.2,0-28.3-.2-42.5-.4-4.3-.1-5.4.6-5.1,3.8.1,1.6.5,3,.7,4.6a162.4,162.4,0,0,1-.6,51.6c-.6,4.3.4,4.8,6.2,4.5s10.9-.2,16.2-.1,5.4-.8,4.7-4-1.4-5.8-2.2-9.1h10.5c2.1-.2,3,.5,3.2,2.1s.5,4.1.9,6.3c.5,4.5,1.1,4.8,7.1,4.4s11.3-.2,17-.1,6.1-.7,4.3-4.3c-2.8-5.2-5.7-10.6-8-16.1Zm-30.2-2.6c-6.6-.2-6.7,1.2-6.5-5.1s.9-14.8,1.5-22.1A22.7,22.7,0,0,1,334,84h1.1c3.2,9.7,6.6,19.5,10,29.6l-6.7.2Z" transform="translate(-46.2 -28.5)"/>
  <path class="a" d="M523,75.7a239.3,239.3,0,0,1,9.6,59.3c.2,4.3,1.3,4.9,6.6,4.9,7.4,0,14.9.3,22.4.7,5.3.4,6-.1,6.3-4.3,1-10.1,2.1-20.2,3.4-30.4a87.7,87.7,0,0,1,1.8-8.6c.6-2.8,1.3-5.7,2-8.5a5.5,5.5,0,0,1,1.5,2.8c3.1,15.2,6.2,30.6,9.1,46.1.7,3.6,1.3,4.2,5.6,4.3,7.3.1,14.7.3,21.9.9,3.5.2,5-.7,5.1-3.6.3-5.9.8-11.9,1.4-17.8,1.7-14.8,3.3-29.7,5.5-44.6,1.8-12.4,9.2-18.2,23.9-19.3,9.3-.7,18.5-1,27.7-.8,10.7.2,21.3,1,31.8,1.7,4.3.2,5.1-.7,5.1-4.5-.2-7-.3-14-.2-21.1,0-4.1-.6-4.8-5.1-4.3-6.1.6-12.1,1.1-18.1,1.8-17.1,1.6-34.1,2.8-51,5-15.1,1.9-26.8,9.1-31.8,21.6-3.1,8-4.3,16.4-6,24.5-1.4,6.5-2.1,13.1-3.2,19.6h-1.1c-4.1-14.9-8.3-29.4-12.3-44-2.1-7.7-1.9-7.6-11.7-7.3-4,.1-5.9,1.5-6.6,4.6-2.6,10.3-5.3,20.6-8.1,30.8-1.5,5.3-3.1,10.5-4.8,15.7-1-.5-1.4-.9-1.5-1.4a24.2,24.2,0,0,1-1.3-4.8c-.9-13.7-1.8-27.5-2.5-41.3-.2-4.6-.9-4.9-6.5-4.5a206.6,206.6,0,0,1-20.8.8c-6.4-.1-7,.4-5.3,5.3,2.6,6.7,5.2,13.8,7.2,20.8Z" transform="translate(-46.2 -28.5)"/>
  <path class="a" d="M481.1,72.3c-13.8-.1-24.9,3.9-32.1,12.9a30,30,0,0,0-5.4,11.1,35.1,35.1,0,0,0-.5,13.7,57.9,57.9,0,0,0,1.3,6.8c2.9,10,10.2,17.3,23.9,20.4a59.3,59.3,0,0,0,22.6.5c8.7-1.4,15.7-4.9,19.7-11.1,8.6-13.3,8.8-27.2.4-40.7C505.1,76.6,494.5,72.5,481.1,72.3Zm10.3,33v.2c-.1,5.5-.5,11-4,15.9-1.7,2.3-3.8,4.5-7.8,4.3a8.4,8.4,0,0,1-7.5-4.4c-6-10.7-5.7-21.2-.2-31.8a8.3,8.3,0,0,1,7.8-4.5,8.7,8.7,0,0,1,7.8,4.5C490.8,94.6,491.6,98.8,491.4,105.3Z" transform="translate(-46.2 -28.5)"/>
  <path class="a" d="M705.8,111.4c-1-13.1,1.4-26,4-38.9,1.2-5.3.5-5.8-5.3-5.5s-13.7.4-20.4.5c-4.1.1-4.9,1-4.1,4.7,1.3,6.6,2.9,13.2,3.5,20s.2,11.6.2,17.9a7.2,7.2,0,0,1-1.3-1.4c-7.1-11.5-12.6-23.3-14-36.2-.4-4.1-1.2-4.6-5.7-4.4-7.7.4-15.4.7-23.2.8-6,.1-6.4.8-5.6,5.8,1.8,9.5,3.6,19.1,4.3,28.9.9,12-1.2,23.8-4.3,35.4-1.1,4.1,0,5,5,5.2,6.7.2,13.3.6,20,1.1s6.2-.1,5.2-5.1a159.8,159.8,0,0,1-3.2-16.2c-.8-6.7-1.1-13.4-1.5-20l1.2-.2c.4.6.9,1,1.3,1.6,8.8,10.8,13.4,23.5,15.6,36.8.7,4.1,1.6,4.6,6,4.8,7.1.4,14.1.7,21.2,1.4,5.4.4,5.9-.3,5.1-5.3C708.5,132.5,706.7,121.9,705.8,111.4Z" transform="translate(-46.2 -28.5)"/>
  <path class="a" d="M379.9,54.7a74.5,74.5,0,0,1,.2,9.5c-.4,6.2-.2,6.4,7.9,4.6,5.5-1.3,11-2.7,17.1-2.2.4,2.6.7,5,1,7.3a212.1,212.1,0,0,1-2.6,59.5c-.6,3.2.5,3.9,4.8,3.8s11.4-.7,17-.1c10.4,1.2,9.3-.6,8.4-6.9-2.4-16.5-4.3-33-3.5-49.6.2-4.6.8-9.1,1.2-13.7l2.4-.3c23.6-.3,47.2-.4,70.7,1.7,5.1.5,5.9-.1,5.7-3.8s-.1-7.9-.1-12-.5-4.2-5.6-4c-12.7.7-25.5,1.6-38.2,1.9-27.1.7-54.2.8-81.4.8-4.2-.3-5.1.3-5,3.5Z" transform="translate(-46.2 -28.5)"/>
</svg>
