<?xml version="1.0" encoding="UTF-8"?>
<svg id="Layer_1" xmlns="http://www.w3.org/2000/svg" version="1.1" viewBox="0 0 280 186">
  <!-- Generator: Adobe Illustrator 29.5.0, SVG Export Plug-In . SVG Version: 2.1.0 Build 137)  -->
  <defs>
    <style>
      .st0 {
        fill: #4f2c1d;
      }
    </style>
  </defs>
  <path class="st0" d="M63.788,55.693c-1.031,9.373-1.244,18.992-.506,28.385.181,2.314-.441,5.011.408,7.221-.188-.493.681-1.601.882-2.055.447-1.011.791-2.074,1.193-3.105.771-1.996,1.562-3.986,2.366-5.963,1.607-3.967,3.267-7.908,4.985-11.83,3.436-7.837,7.091-15.57,10.974-23.199,1.536-3.021,3.027-6.061,4.537-9.101,1.847-3.611,3.844-7.15,5.652-10.78,1.569-2.923,2.489-6.313,6.281-6.754,7.331-.849,9.956,6.203,7.869,12.309-2.755,8.057-5.769,15.57-7.869,23.834-10.151,39.864-13.126,74.712-2.431,123.794.259,1.199.946,2.463.37,3.546-.136.246-2.949,4.453-11.908,3.325-1.186-.149-2.308-.752-3.235-1.51-2.12-1.744-2.917-4.914-3.597-7.468-.694-2.612-1.16-5.283-1.53-7.96-.616-4.485-.927-9.003-1.141-13.521-.032-.648-.123-1.335-.123-1.977,0-12.433.227-24.813,1.121-37.213.434-6.055.959-12.096,1.789-18.105.434-3.124.914-6.242,1.374-9.367.395-2.671,1.193-5.672,1.108-8.375-3.753,8.828-6.3,18.117-9.243,27.238-.681,2.106-1.296,4.232-1.834,6.378-.519,2.068-1.562,5.224-2.781,7.02-2.204,3.241-4.998,3.157-8.42,1.653-3.915-1.718-6.644-5.108-8.258-9.01-2.431-5.866-3.358-12.776-4.233-19.031-.603-4.33-.998-8.692-1.173-13.068-.091-2.165-.24-4.401-.104-6.566.058-.933.48-3.597-.908-3.87-.869-.169-4.012,8.135-4.447,9.062-1.679,3.572-3.436,7.111-5.296,10.592-4.712,8.816-10.28,17.08-16.354,25.001-1.718,2.243-3.617,4.57-6.275,5.497-4.161,1.459-10.514-.901-12.335-5.062-2.074-4.732.836-8.518,3.915-11.869,2.671-2.91,5.205-5.944,7.649-9.049,30.841-39.145,36.539-61.411,38.503-63.815,1.692-2.061,4.11-4.233,6.858-4.57,1.899-.233,4.058.421,5.788,1.16,1.685.719,2.897,2.113,3.559,3.818,1.381,3.604-.48,7.999-1.193,11.583-.843,4.226-1.497,8.491-1.97,12.776h-.02ZM279.302,85.302c.798,1.685.765,3.896.61,5.834-.221,2.755-1.193,5.445-2.762,7.714-.363.525-.758,1.037-1.179,1.517-7.124,8.148-21.65,9.01-29.733,1.763-1.692-1.517-3.118-3.319-4.253-5.29-2.573-4.466-3.733-9.606-4.582-14.695-2.49,2.418-5.238,4.064-8.388,5.626-2.878,1.426-5.426,1.627-8.33,2.573.409,1.88,2.535,4.103,3.514,5.886,1.186,2.146,2.21,4.375,3.079,6.67,2.722,7.182,4.673,14.669,5.795,22.272,1.082,7.319,1.361,14.857.064,22.169-1.134,6.41-3.493,15.109-9.574,18.551-4.874,2.755-10.87-2.638-13.813-6.177-3.584-4.304-5.646-9.704-7.292-14.999-1.899-6.094-3.422-12.297-4.719-18.552-.635-3.059-1.212-6.125-1.756-9.204-.331-1.88-.778-6.787-1.174-8.991-1.549.966-3.118,1.912-4.693,2.839-2.541,1.491-4.945,2.891-7.927,3.235-2.146.246-4.324.045-6.43-.422-2.023-.447-4.013-1.153-5.776-2.262-.817-.512-3.435-2.573-4.226-3.286-.032-.026-.071-.033-.11-.007-.415.266-2.924,1.88-3.831,2.47-2.723,1.776-5.769,2.995-8.939,3.662-5.976,1.258-11.596.636-16.315-3.779-1.102-1.03-2.133-2.1-3.15-3.215-.117-.129-.253-.272-.428-.292-.285-.038-.506.247-.661.493-3.215,5.101-7.895,9.38-13.126,12.316-1.751.985-3.753,1.543-5.717,1.958-1.679.35-3.417.388-5.069-.111-2.114-.641-4.058-1.698-5.912-2.923-3.014-1.99-4.09-5.186-5.095-8.355-1.983-6.243-1.394-12.459.395-18.669.914-3.157,2.165-6.203,3.695-9.101,2.943-5.568,7.072-10.747,11.279-15.427,3.26-3.63,6.89-7.26,11.162-9.658,1.387-.778,2.846-1.42,4.362-1.88.934-.279,1.822-.674,2.814-.784.972-.104,1.704.343,2.515.745,2.171,1.095,6.935,6.106,7.279,6.553,1.802,2.379,2.418,3.74,1.964,6.787-1.063,7.117-.959,14.299-.927,21.475v.765c.007,1.497.019,3.014.318,4.486.324,1.608,1.102,3.241,2.411,4.272,2.133,1.672,4.045,1.691,6.32.881,4.434-1.568,8.686-6.514,8.122-8.666-.409-1.569-1.335-7.26-1.562-9.95-.519-6.087-.428-12.219.265-18.286,1.524-13.32,4.343-27.166,10.138-39.242,1.219-2.534,2.023-4.071,4.933-4.395,1.07-.117,3.124.525,4.006,1.147,4.939,3.461,10.112,10.293,10.864,12.044.369.862.57,1.763.804,2.664,1.128,4.395.739,8.796.272,13.243-.506,4.848-1.685,9.561-2.645,14.312-1.257,6.236-3.403,12.193-5.6,18.143-1.562,4.246-3.714,8.213-5.419,12.387-.726,1.776-.577,3.235,1.095,4.395,5.614,3.883,11.934-.123,15.155-5.834-1.504-.979-2.761-2.301-3.545-3.915-1.524-3.144-.895-7.351,1.84-9.522,1.167-.927,2.528-1.413,3.98-1.601.072-4.123.175-8.239.597-12.355.752-7.389,1.905-14.714,3.604-21.942,1.29-5.49,2.975-10.87,4.764-16.218,2.431-7.24,4.9-14.461,8.517-21.222.733-1.374,1.537-2.703,2.522-3.922,1.128-1.4,2.657-1.802,4.33-1.951,1.944-.175,4.135.065,5.736,1.27,1.725,1.296,3.442,2.645,4.842,4.311,1.582,1.873,2.723,4.123,3.306,6.508.376,1.53,3.475,11.486-4.706,41.31-1.251,4.57-4.083,12.569-8.089,20.166-2.567,4.861-2.282,4.829-2.048,5.049.466.447,2.826-.694,3.299-.927,8.381-4.181,12.718-9.062,16.373-14.909,1.906-3.04,2.917-5.912,4.369-9.198,1.336-3.027,1.802-7.117,4.778-9.068,1.737-1.141,3.921-1.51,5.976-1.232,1.102.149,2.476.629,2.995,1.679.564,1.134.233,2.645,0,3.818-1.88,9.555-3.87,19.465-3.442,29.253.123,2.846.531,5.763,1.704,8.381.882,1.971,2.917,5.231,5.413,5.108,1.076-.052,1.99-.771,2.82-1.459,1.568-1.309,2.897-2.891,4.531-4.129,2.009-1.523,4.576-2.71,7.058-3.137,2.373-.408,5.238.065,6.366,2.45l-.007.007ZM130.417,69.052c-.583-.369-1.646.525-2.113.849-.726.493-1.394,1.057-2.048,1.646-2.483,2.243-4.959,4.434-7.254,6.865-2.152,2.282-4.064,4.784-5.698,7.461-1.276,2.087-2.385,4.278-3.312,6.547-1.089,2.664-1.918,5.503-1.996,8.407-.039,1.419.078,2.91.518,4.272.389,1.192.908,1.199,1.925.583,2.716-1.368,5.121-3.196,7.345-5.251,4.388-4.057,7.752-8.925,10.805-14.033.188-.318.24-.648.253-1.018.227-5.225,1.05-10.397,1.718-15.576.032-.259.149-.57-.143-.752ZM173.257,68.196c2.281-5.082,4.446-14.513,5.477-20.01,1.361-7.221,1.478-11.616.959-14.241-.434-2.191-1.918.071-2.288,1.096-4.861,13.392-9.01,28.812-8.939,43.138.454-.959,1.07-1.815,1.563-2.755.635-1.206,2.664-5.983,3.221-7.227h.007ZM207.456,64.029c3.688-6.994,7.098-14.118,9.917-21.514,2.347-6.151,4.194-12.433,5.108-19.511.045-.81.136-2.146.201-3.487.13-2.573.207-5.147-.454-7.668-.071-.272-.966-.48-1.147-.24-2.172,2.787-3.533,6.041-4.836,9.256-2.327,5.724-3.947,11.707-5.665,17.644-1.983,6.877-3.021,13.891-3.416,21.034-.045.862-.084,1.724-.117,2.593-.026.732-.22,1.776-.013,2.457.26-.078.305-.343.415-.564h.007ZM219.953,116.358c-.862-3.883-2.269-7.643-3.98-11.234-.551-1.153-3.183-7.188-5.173-8.024-.427-.182-.777-.065-1.173.292-1.355,1.206-1.51,2.762-.875,9.613.596,6.417,8.2,45.193,13.36,43.644.356-.104,3.532-8.725-2.159-34.284v-.006ZM110.433,105.688h.013-.013ZM261.807,20.106c-.071.668-.252,1.452.227,1.925.921.907,1.491.337,1.815,1.666.298,1.225-1.348,4.486-1.731,5.743-.674,2.223-1.73,4.479-3.791,5.717-2.282,1.368-6.774,1.821-8.628-.467-.22-.272-.402-.583-.506-.92-.116-.382-.123-.784-.123-1.18-.013-.934-.026-1.867.033-2.794.032-.538.09-1.069.188-1.601.272-1.484.888-2.93,1.853-4.09,1.044-1.251,2.522-1.847,3.864-2.703,1.303-.83,7.227-5.328,6.793-1.296h.006ZM256.019,28.818s-.007-.058-.026-.071c-.019-.013-.045,0-.071,0,.013.039.026.078.032.11.02-.013.039-.026.065-.039Z"/>
</svg>