<svg width="240" height="86" viewBox="0 0 240 86" fill="none" xmlns="http://www.w3.org/2000/svg">
<g id="Maple Ridge Grocer/Secondary/Arched/Downward/Filled">
<path id="Maple Ridge Grocer/Secondary/Arched/Downward/Filled_2" d="M100.807 47.5202C91.3666 45.8426 82.195 52.8823 80.3603 63.2102C78.5256 73.5403 84.7124 83.3084 94.1532 84.9859C103.594 86.6634 112.765 79.6217 114.6 69.2916C116.435 58.9636 110.248 49.1977 100.807 47.5202ZM107.05 67.95C106.019 73.7643 100.885 77.7309 95.6067 76.7942C90.3308 75.8574 86.8766 70.364 87.9103 64.5497C88.9418 58.7375 94.0756 54.773 99.3516 55.7097C104.628 56.6465 108.082 62.1378 107.05 67.9478V67.95ZM35.7193 36.7702C35.7107 37.0135 35.519 37.2095 35.2757 37.2224L28.361 37.5734C28.2296 37.5798 28.1025 37.5325 28.0099 37.4399C27.9173 37.3494 27.8657 37.2224 27.87 37.091C27.9819 33.5249 26.3733 30.3421 23.5652 28.5741C19.0258 25.7186 12.7764 27.4629 9.6324 32.4611C6.48837 37.4593 7.62324 43.8485 12.1606 46.704C15.1108 48.5603 18.5671 48.3277 21.9523 46.0623L15.2271 41.8308C15.0806 41.7382 14.9966 41.5723 15.0096 41.4001L15.5156 34.7373C15.5285 34.5736 15.6255 34.4294 15.7719 34.354C15.9183 34.2808 16.0928 34.2894 16.2327 34.3755L33.1954 45.0459C33.4151 45.1837 33.4797 45.4722 33.3419 45.6919C27.1335 55.5612 16.1229 59.0239 7.73306 53.7458C-0.385444 48.64 -2.44199 37.2611 3.14406 28.3803C8.73011 19.5016 19.8764 16.433 27.9906 21.5366C33.0382 24.713 35.926 30.4067 35.7171 36.7702H35.7193ZM199.644 68.372C199.732 68.6154 199.608 68.8846 199.364 68.9728L172.595 78.7172C172.478 78.7603 172.349 78.7538 172.237 78.7021C172.125 78.6504 172.037 78.5557 171.996 78.4373L159.887 45.1751C159.799 44.9317 159.924 44.6625 160.167 44.5743L186.937 34.8299C187.18 34.7416 187.449 34.8665 187.537 35.1098L189.932 41.6865C190.02 41.9298 189.896 42.199 189.652 42.2873L169.899 49.4777L172.75 57.3119L184.542 53.0179C184.697 52.9619 184.869 52.9899 184.996 53.0933C185.123 53.1967 185.188 53.3582 185.167 53.5218L184.256 60.1415C184.232 60.3138 184.116 60.4581 183.952 60.5162L175.091 63.7421L176.897 68.708L196.651 61.5176C196.894 61.4293 197.163 61.5542 197.252 61.7975L199.646 68.3742L199.644 68.372ZM64.6466 40.6334L48.8015 34.832C48.5582 34.7438 48.289 34.8687 48.2007 35.1098L36.0315 68.344C35.9433 68.5874 36.0681 68.8566 36.3093 68.9448L42.8817 71.3503C43.125 71.4385 43.3942 71.3136 43.4825 71.0725L47.5826 59.8745L54.2239 62.3058L56.0672 76.2709C56.0909 76.4432 56.2072 76.5896 56.3709 76.6499L63.8584 79.3912C64.0113 79.4472 64.1836 79.4192 64.3128 79.318C64.4398 79.2147 64.5066 79.0531 64.4851 78.8916L62.5362 64.1211C67.8768 63.9811 72.3452 61.1041 73.9301 56.7757C76.1934 50.5932 72.0308 43.3511 64.6487 40.6313L64.6466 40.6334ZM66.3414 53.9999C65.495 56.3149 62.4996 57.3528 59.67 56.317L50.1625 52.8349L53.2376 44.4364L62.7451 47.9186C65.5769 48.9565 67.1898 51.6849 66.3414 53.9999ZM239.782 45.8297L227.198 37.8555C230.516 33.667 231.171 28.3932 228.867 24.4029C225.574 18.7027 217.348 17.2513 210.528 21.1727L195.917 29.6099C195.693 29.7391 195.617 30.0255 195.746 30.2495L213.446 60.8996C213.575 61.1235 213.861 61.201 214.085 61.0718L220.145 57.5725C220.369 57.4433 220.444 57.1569 220.315 56.9329L214.352 46.6071L220.477 43.069L232.377 50.6082C232.523 50.7008 232.71 50.7051 232.861 50.619L239.765 46.6329C239.907 46.5511 239.996 46.4004 240 46.2367C240.004 46.0731 239.92 45.9202 239.782 45.8319V45.8297ZM219.37 35.0474L210.601 40.1102L206.128 32.3642L214.897 27.3014C217.509 25.794 220.636 26.3044 221.872 28.4406C223.104 30.5747 221.982 33.5378 219.372 35.0452L219.37 35.0474ZM156.582 74.6127C154.064 80.4593 149.027 84.3851 143.108 85.1108C133.591 86.278 124.81 78.7581 123.533 68.3483C122.256 57.9364 128.957 48.5172 138.473 47.3479C144.391 46.6222 150.229 49.2106 154.086 54.2755C154.232 54.4694 154.209 54.7428 154.028 54.9065L148.89 59.545C148.793 59.6333 148.663 59.6764 148.532 59.6635C148.403 59.6506 148.282 59.586 148.203 59.4826C146.036 56.6465 142.778 55.1951 139.485 55.5999C134.162 56.2524 130.417 61.5542 131.137 67.4137C131.856 73.2754 136.772 77.5113 142.093 76.8588C145.386 76.4539 148.196 74.2574 149.613 70.982C149.665 70.8614 149.764 70.7688 149.889 70.7258C150.011 70.6827 150.147 70.6934 150.263 70.7559L156.371 74.0141C156.586 74.1282 156.676 74.3888 156.579 74.6127H156.582ZM119.198 12.7484C119.122 12.7441 119.002 12.7958 118.967 12.8582C118.451 13.7993 117.727 14.5379 116.827 15.1151C116.224 15.5005 115.563 15.718 114.843 15.6857C114.055 15.6513 113.504 15.0763 113.403 14.2795C113.642 14.2322 113.881 14.1826 114.12 14.1396C115.046 13.9694 115.914 13.6486 116.663 13.0671C117.378 12.5115 117.904 11.8267 118.069 10.9094C118.218 10.0889 117.936 9.38043 117.266 9.00142C117.057 8.88298 116.82 8.79469 116.586 8.74085C115.722 8.54274 114.882 8.68486 114.081 9.01434C112.091 9.83265 110.72 11.2755 109.897 13.2459C109.639 13.8661 109.264 14.4109 108.812 14.8976C108.512 15.2206 108.133 15.4036 107.675 15.395C107.188 15.3886 106.945 15.184 106.921 14.693C106.908 14.4044 106.917 14.1029 106.981 13.823C107.093 13.3277 107.238 12.8389 107.401 12.3586C108.568 8.93036 109.744 5.50422 110.916 2.07808C110.95 1.97687 110.969 1.87135 111.004 1.74645C109.925 1.74645 108.883 1.74645 107.84 1.75075C107.795 1.75075 107.726 1.81967 107.709 1.87135C106.74 4.71175 105.777 7.5543 104.808 10.3947C104.516 11.2518 104.253 12.1218 103.9 12.953C103.536 13.8058 102.976 14.5422 102.231 15.1215C102.153 15.1818 102.061 15.2206 101.957 15.2766C101.949 15.2184 101.94 15.199 101.944 15.1797C101.953 15.1388 101.964 15.0978 101.983 15.0612C102.349 14.3247 102.5 13.5323 102.586 12.7269C102.679 11.8504 102.644 10.9869 102.293 10.1578C101.946 9.3352 101.061 8.50397 99.7801 8.67625C98.8606 8.80115 98.1327 9.25553 97.4953 9.89295C97.4092 9.97908 97.3273 10.0695 97.2434 10.1557C97.2218 10.1471 97.2024 10.1363 97.1809 10.1277C97.2627 9.79174 97.3446 9.4558 97.4307 9.09402C96.5026 9.09402 95.6024 9.09186 94.7001 9.10048C94.642 9.10048 94.5515 9.18016 94.5322 9.24261C94.2005 10.2095 93.8732 11.1807 93.5523 12.1519C93.2982 12.9207 92.9386 13.6313 92.4498 14.2752C92.144 14.6779 91.8253 15.0871 91.3494 15.283C90.5935 15.5953 90.137 15.3455 90.0228 14.5379C90.0056 14.4173 90.0142 14.2838 90.0444 14.1654C90.1671 13.6873 90.2812 13.2028 90.4406 12.7377C90.8261 11.6028 91.2352 10.4787 91.6358 9.34812C91.6616 9.27491 91.681 9.19738 91.7047 9.1134C91.6487 9.10048 91.6207 9.08971 91.5949 9.08971C90.6366 9.0854 89.6761 9.08325 88.7178 9.07679C88.5929 9.07679 88.5283 9.13278 88.496 9.25122C88.425 9.51394 88.3431 9.77451 88.2592 10.0609C88.2032 9.96401 88.1515 9.88218 88.1084 9.7982C87.9081 9.40196 87.5938 9.12632 87.1975 8.93682C86.5752 8.63749 85.9227 8.59872 85.2508 8.71932C84.2537 8.89805 83.4462 9.43211 82.7399 10.1126C81.3746 11.4327 80.5627 13.0478 80.2957 14.9256C80.1686 15.8214 80.2117 16.7086 80.5713 17.5549C80.9827 18.5218 81.9668 19.0214 82.8454 18.987C83.4807 18.9611 84.0535 18.7178 84.5681 18.3409C85.2486 17.8435 85.787 17.2168 86.2586 16.5256C86.2952 16.4739 86.3361 16.4244 86.4093 16.3339C86.4201 16.4222 86.4287 16.4545 86.4244 16.4847C86.3383 17.0553 86.5256 17.5721 86.7496 18.0804C86.9283 18.4852 87.219 18.7695 87.6497 18.8965C88.3798 19.1119 89.0753 18.9891 89.7429 18.6575C90.4514 18.3043 91.0027 17.7617 91.5044 17.163C91.6961 16.9347 91.8877 16.7086 92.0966 16.4653C91.1082 19.3832 90.1305 22.2731 89.1507 25.1674C89.2282 25.1932 89.2541 25.2104 89.2799 25.2104C90.2726 25.219 91.2675 25.2255 92.2603 25.2255C92.3206 25.2255 92.411 25.1544 92.4347 25.0963C92.5208 24.8831 92.5833 24.6613 92.6587 24.446C93.3047 22.5832 93.9529 20.7226 94.5989 18.8621C94.7992 18.2849 94.9995 17.7078 95.2148 17.0876C95.2751 17.2125 95.3182 17.2987 95.3569 17.3848C95.6993 18.1751 96.2958 18.6812 97.1271 18.8858C98.3222 19.1808 99.4399 18.9202 100.502 18.3474C101.227 17.9555 101.804 17.3891 102.343 16.7797C102.605 16.4847 102.86 16.181 103.12 15.8795C103.073 16.405 103.058 16.924 103.18 17.4386C103.447 18.5757 104.352 19.0645 105.241 18.9891C105.769 18.9439 106.266 18.7759 106.727 18.5111C107.703 17.949 108.469 17.1651 109.126 16.2629C109.275 16.0583 109.421 15.8494 109.58 15.6233C109.634 15.9161 109.684 16.1853 109.731 16.4567C109.934 17.5678 110.528 18.384 111.596 18.7996C112.563 19.1743 113.526 19.0386 114.456 18.651C115.309 18.2957 116.052 17.7552 116.741 17.1479C118.028 16.0152 118.982 14.6284 119.79 13.1339C119.818 13.0822 119.833 13.0241 119.859 12.9573C119.762 12.9207 119.687 12.8862 119.607 12.8626C119.473 12.8216 119.34 12.7678 119.202 12.7592L119.198 12.7484ZM85.9356 15.0182C85.6363 15.283 85.2939 15.4252 84.8826 15.4015C84.5531 15.3821 84.3463 15.2206 84.2236 14.9363C84.0707 14.581 84.0556 14.2085 84.103 13.8273C84.2753 12.4835 84.8093 11.3207 85.8688 10.4464C86.0885 10.2655 86.3986 10.1794 86.6807 10.0889C86.8874 10.0222 87.2643 10.2397 87.3633 10.483C87.4839 10.7823 87.5571 11.101 87.6303 11.3358C87.4473 12.8087 87.0145 14.062 85.9377 15.0182H85.9356ZM99.9007 12.363C99.6983 13.2179 99.4226 14.0405 98.8498 14.7274C98.6883 14.9213 98.4902 15.1194 98.2641 15.2163C97.7925 15.4209 97.3295 15.3153 97.2455 14.861C97.2003 14.6155 97.2563 14.3398 97.3144 14.0879C97.3532 13.9199 97.4738 13.7692 97.5728 13.5797C97.1378 13.4354 96.7502 13.4591 96.3561 13.7412C96.3798 13.6227 96.3863 13.5387 96.4143 13.4634C96.7911 12.4319 97.2886 11.4736 98.0875 10.6962C98.4148 10.3775 98.7788 10.132 99.2698 10.1557C99.6186 10.1729 99.7607 10.2612 99.8555 10.6057C100.017 11.185 100.039 11.7708 99.8964 12.3608L99.9007 12.363ZM113.338 12.2617C113.401 11.7363 113.495 11.2152 113.726 10.7306C113.87 10.4227 114.06 10.1535 114.365 9.97693C114.607 9.83911 114.863 9.78743 115.104 9.92525C115.337 10.0566 115.416 10.287 115.434 10.5605C115.509 11.7751 114.551 12.7893 113.655 13.1619C113.534 13.2114 113.411 13.2545 113.256 13.3126C113.284 12.9401 113.299 12.5998 113.34 12.2617H113.338ZM79.0273 13.2588C78.5966 13.6572 78.1013 13.9177 77.4962 13.9565C76.9945 13.9888 76.6607 13.7907 76.4992 13.3148C76.37 12.9379 76.3592 12.5503 76.3915 12.1584C76.4755 11.1312 76.7038 10.1298 77.0397 9.16293C77.3778 8.19172 77.7783 7.2399 78.2026 6.30099C78.7086 5.17905 79.3568 4.13462 80.1084 3.15911C80.7652 2.30634 81.5426 1.57633 82.419 0.949671C82.6064 0.816157 82.6257 0.73648 82.447 0.594352C82.2769 0.460838 82.0745 0.338092 81.8656 0.288562C81.2884 0.148588 80.7049 0.239033 80.1385 0.353166C78.8486 0.613733 77.6771 1.17794 76.5573 1.84335C75.2394 2.62721 73.9861 3.50366 72.8189 4.50071C72.6359 4.65791 72.4378 4.79789 72.203 4.98093C71.8606 3.05359 71.0509 1.42558 69.8235 0C69.494 0.269181 69.1947 0.56205 68.9104 0.86784C68.4862 1.1521 68.0576 1.45358 67.6033 1.71415C66.7139 2.22451 65.7427 2.45924 64.7133 2.45278C64.4269 2.45278 64.1621 2.37095 63.9252 2.20513C63.6883 2.03932 63.6065 1.8132 63.6581 1.5311C63.7421 1.08534 64.0953 0.910909 64.4549 0.74294C64.5777 0.684797 64.7133 0.652495 64.8619 0.602966C64.5002 0.353166 64.1125 0.288562 63.7141 0.251954C62.1917 0.111979 60.9814 0.635268 60.1566 1.94241C59.6527 2.74134 59.7453 3.6501 60.3741 4.35858C60.7811 4.81727 61.2958 5.10368 61.8816 5.25872C62.8958 5.52575 63.8929 5.38793 64.8447 5.02184C65.3637 4.82157 65.8374 4.57177 66.2724 4.2789C64.6164 6.56156 63.01 8.88298 61.0955 10.9697C60.3806 11.7471 59.6721 12.5288 58.7849 13.121C58.1992 13.5129 57.5725 13.7821 56.8468 13.7605C56.4355 13.7476 56.0995 13.5861 55.854 13.2609C55.4427 12.7183 55.5849 11.9796 56.1771 11.5274C56.2374 11.4822 56.2934 11.4284 56.3752 11.3573C56.218 11.3271 56.1103 11.3013 56.0005 11.2841C55.1693 11.1506 54.3639 11.2324 53.6145 11.6286C52.1652 12.3974 51.3426 14.0147 51.5342 15.6534C51.7 17.0704 52.4581 18.0438 53.7415 18.6273C54.7299 19.0774 55.7679 19.0753 56.808 18.8814C58.0398 18.6532 59.0519 18.0093 59.9262 17.1415C60.8867 16.1896 61.7502 15.156 62.4501 13.9996C63.1499 12.8432 63.8347 11.676 64.4743 10.4851C65.3788 8.79684 66.1282 7.02455 67.1683 5.40731C67.347 5.12952 67.5344 4.85603 67.7282 4.56531C67.7885 4.61915 67.8208 4.64499 67.8509 4.67083C68.6606 5.40085 69.1494 6.31822 69.4122 7.36264C69.4294 7.43371 69.3949 7.54138 69.3454 7.60383C68.4259 8.75162 67.6334 9.98124 66.9551 11.2841C66.2165 12.701 65.7039 14.1869 65.5898 15.7912C65.5316 16.6117 65.5596 17.4193 65.9214 18.1859C66.2832 18.9547 66.9659 19.226 67.7196 18.8319C68.0103 18.6812 68.2816 18.4594 68.5013 18.216C68.8114 17.8779 69.0891 17.5032 69.339 17.1178C70.2994 15.6427 70.982 14.0448 71.3653 12.3307C71.7228 10.7393 72.02 9.13493 72.1255 7.50477C72.1449 7.19252 72.2547 6.96426 72.511 6.76399C74.0615 5.56021 75.7735 4.67083 77.634 4.05279C77.7094 4.0291 77.7869 4.01618 77.9118 3.98819C77.8472 4.08079 77.8149 4.13247 77.7783 4.182C77.4596 4.62346 77.128 5.0563 76.82 5.50422C75.8488 6.92334 75.0133 8.41999 74.3263 9.99631C73.6329 11.5877 73.1376 13.2373 72.946 14.9686C72.8405 15.9334 72.9331 16.8723 73.2625 17.7896C73.4714 18.3732 73.8418 18.7867 74.4642 18.9331C74.9982 19.058 75.5215 19.0193 76.0276 18.8082C76.8222 18.4744 77.3476 17.8349 77.8408 17.1716C78.6763 16.0475 79.1759 14.7641 79.5614 13.4311C79.654 13.108 79.7401 12.7829 79.8392 12.4233C79.5442 12.7269 79.2943 13.0068 79.0209 13.2588H79.0273ZM69.929 12.1218C69.8472 12.6041 69.7632 13.0844 69.5328 13.5215C69.3906 13.7907 69.2184 14.0362 68.8932 14.1116C68.5594 14.1891 68.3333 14.0642 68.2256 13.739C68.0792 13.2976 68.1503 12.8539 68.2472 12.4168C68.4926 11.3358 69.0568 10.4076 69.69 9.51609C69.7632 9.41273 69.8493 9.32013 69.9311 9.22107C70.0022 10.203 70.0905 11.1613 69.929 12.1175V12.1218ZM160.118 16.4459C160.124 16.7991 160.087 17.1587 160.139 17.5054C160.292 18.5132 161.05 19.0322 162.011 18.9805C162.728 18.9417 163.382 18.6812 163.964 18.244C164.713 17.682 165.376 17.0381 165.928 16.2822C166.081 16.0733 166.244 15.8688 166.421 15.6405C166.434 15.6986 166.447 15.7223 166.444 15.746C166.425 16.4868 166.612 17.1824 166.944 17.8392C167.222 18.3862 167.642 18.7759 168.26 18.9202C169.274 19.1571 170.14 18.8707 170.872 18.16C171.451 17.598 171.953 16.9735 172.39 16.2952C172.416 16.2542 172.455 16.2198 172.526 16.138C172.511 16.237 172.509 16.2779 172.498 16.3167C172.287 17.0682 172.078 17.8198 171.854 18.567C171.819 18.679 171.725 18.7975 171.624 18.8599C171.148 19.1528 170.65 19.409 170.181 19.7127C168.826 20.5848 167.644 21.6379 166.783 23.0161C166.358 23.6944 166.111 24.4201 166.139 25.2298C166.173 26.2721 167.08 27.071 168.12 26.9677C168.807 26.9009 169.386 26.5908 169.918 26.1795C170.857 25.4538 171.552 24.5235 172.16 23.52C172.956 22.2064 173.618 20.8217 174.229 19.4155C174.315 19.2195 174.429 19.0753 174.615 18.9697C176.047 18.1557 177.188 17.0338 178.09 15.6663C178.118 15.6233 178.136 15.5716 178.159 15.5221C178.265 15.9614 178.314 16.349 178.409 16.7258C178.685 17.8327 179.376 18.5606 180.476 18.8793C181.361 19.1356 182.229 18.9999 183.058 18.6467C184.021 18.2376 184.85 17.6217 185.608 16.9089C186.693 15.8882 187.535 14.6865 188.257 13.3945C188.334 13.2566 188.401 13.1145 188.487 12.9422C188.272 12.8733 188.084 12.8216 187.904 12.757C187.727 12.6946 187.645 12.757 187.544 12.9185C186.685 14.3032 185.599 15.3929 183.892 15.6771C182.974 15.83 182.076 15.1818 182.027 14.2924C182.044 14.2838 182.063 14.2731 182.083 14.2688C182.227 14.2386 182.369 14.2085 182.516 14.1826C183.515 14.0168 184.458 13.7046 185.266 13.0757C186.041 12.4728 186.618 11.7363 186.704 10.7177C186.775 9.88218 186.5 9.28998 185.754 8.9282C185.58 8.84422 185.391 8.77961 185.203 8.73655C184.383 8.55135 183.584 8.6741 182.817 8.96912C180.881 9.71852 179.512 11.0752 178.652 12.9422C178.377 13.543 178.036 14.0943 177.664 14.6348C176.962 15.6491 176.139 16.5428 175.127 17.2577C175.071 17.2965 175.009 17.331 174.951 17.3676C174.94 17.3568 174.929 17.3439 174.918 17.3331C175.87 14.6004 176.824 11.8698 177.776 9.13924C177.75 9.12632 177.739 9.1134 177.726 9.1134C176.74 9.10694 175.754 9.09832 174.768 9.10263C174.701 9.10263 174.61 9.19523 174.574 9.26629C174.488 9.43426 174.427 9.61515 174.348 9.81112C174.3 9.75943 174.277 9.74005 174.264 9.71852C173.898 9.08756 173.277 8.83991 172.616 8.71286C171.772 8.55135 170.949 8.72147 170.2 9.12417C168.818 9.8628 167.859 11.0041 167.202 12.406C166.845 13.1705 166.485 13.9328 165.969 14.609C165.74 14.9062 165.486 15.1861 165.124 15.3067C164.235 15.6017 163.654 15.2486 163.822 14.2558C163.912 13.7239 164.065 13.1963 164.239 12.6838C165.404 9.27706 166.584 5.87461 167.758 2.47001C167.788 2.38387 167.805 2.29127 167.836 2.17068H167.592C166.759 2.17068 165.925 2.17068 165.092 2.17068C164.655 2.17068 164.664 2.17068 164.521 2.5906C163.966 4.2466 163.404 5.90261 162.844 7.55861C162.583 8.32739 162.327 9.09832 162.056 9.90156C162.013 9.84342 161.976 9.8025 161.95 9.75513C161.722 9.32874 161.358 9.06387 160.927 8.86575C160.333 8.59226 159.711 8.61595 159.093 8.68486C158.296 8.77315 157.596 9.12632 156.956 9.59577C155.97 10.3193 155.255 11.2625 154.753 12.3694C154.359 13.2373 153.888 14.0577 153.272 14.7877C153.028 15.0763 152.736 15.2981 152.354 15.3799C151.678 15.5242 151.256 15.2055 151.271 14.5186C151.278 14.1891 151.321 13.8467 151.422 13.5344C151.874 12.1433 152.354 10.7608 152.824 9.37612C152.852 9.29429 152.882 9.21246 152.916 9.11555C152.841 9.10694 152.794 9.09832 152.746 9.09832C151.779 9.09186 150.815 9.08756 149.848 9.07894C149.688 9.07894 149.615 9.14785 149.568 9.29644C149.234 10.315 148.885 11.3315 148.556 12.35C148.112 13.7132 147.576 15.0505 147.509 16.5105C147.479 17.1888 147.653 17.7918 148.045 18.3345C148.248 18.6123 148.53 18.7845 148.866 18.8814C149.594 19.0903 150.281 18.9697 150.937 18.6381C151.5 18.3539 151.967 17.9404 152.41 17.5032C153 16.9197 153.498 16.2607 153.974 15.5242C153.974 15.6254 153.972 15.6793 153.974 15.731C154.015 16.3576 154.079 16.9799 154.34 17.5657C154.816 18.6381 156.05 19.1722 157.103 18.9245C157.859 18.7479 158.453 18.3366 158.983 17.8047C159.422 17.3633 159.795 16.8723 160.09 16.2693C160.105 16.3598 160.118 16.405 160.12 16.4502L160.118 16.4459ZM171.219 21.5539C170.967 22.1848 170.695 22.8115 170.392 23.4209C170.284 23.6363 170.073 23.8042 169.892 23.9744C169.746 24.11 169.552 24.1122 169.377 24.039C169.201 23.9636 169.179 23.7892 169.169 23.6147C169.132 23.0376 169.309 22.5272 169.657 22.075C170.123 21.472 170.695 20.9854 171.344 20.5848C171.372 20.5676 171.404 20.559 171.496 20.5224C171.397 20.9035 171.346 21.2438 171.221 21.556L171.219 21.5539ZM182.089 11.5619C182.156 11.213 182.29 10.8685 182.447 10.5454C182.63 10.1686 182.936 9.89941 183.379 9.85203C183.737 9.81327 184.025 10.0501 184.051 10.4076C184.137 11.5834 183.545 12.3931 182.6 12.9918C182.393 13.1231 182.152 13.205 181.928 13.3083C181.906 13.2954 181.883 13.2803 181.861 13.2674C181.934 12.6989 181.979 12.1239 182.089 11.5619ZM170.383 13.0542C170.659 12.0636 171.126 11.1764 171.908 10.4851C172.08 10.3323 172.3 10.2117 172.515 10.1277C172.972 9.94894 173.473 10.2117 173.615 10.6811C173.656 10.8211 173.687 10.9654 173.699 11.1096C173.714 11.2539 173.702 11.4025 173.702 11.549C173.697 13.0198 173.034 14.1805 171.962 15.1323C171.69 15.3735 171.35 15.5113 170.973 15.4338C170.553 15.3476 170.331 15.016 170.256 14.441C170.196 13.9673 170.256 13.5064 170.383 13.0564V13.0542ZM159.657 15.128C159.489 15.2421 159.291 15.3455 159.093 15.3821C158.444 15.4962 158.085 15.2206 157.981 14.5681C157.902 14.062 157.962 13.5624 158.104 13.0801C158.358 12.2144 158.748 11.4176 159.377 10.7565C159.652 10.4658 159.954 10.2138 160.365 10.1191C160.805 10.0178 161.169 10.1923 161.304 10.623C161.388 10.8921 161.42 11.1764 161.453 11.3336C161.42 12.4233 161.076 13.2825 160.587 14.0922C160.344 14.4949 160.051 14.8631 159.657 15.1301V15.128ZM126.64 15.2249C126.621 14.4281 126.694 13.6529 127.142 12.9745C127.992 11.6868 129.185 11.0515 130.753 11.1829C130.889 11.1936 131.025 11.213 131.199 11.2345C131.106 11.3702 131.029 11.465 130.971 11.5726C130.803 11.872 130.626 12.1735 130.71 12.5352C130.831 13.0434 131.236 13.3643 131.772 13.4268C132.59 13.5237 133.262 13.2394 133.802 12.6515C134.054 12.3759 134.293 12.0701 134.466 11.7406C135.377 9.98339 136.242 8.20249 137.168 6.45389C137.608 5.62481 138.109 4.82157 138.65 4.05279C139.236 3.21725 140.088 2.77364 141.113 2.67243C141.454 2.63798 141.779 2.67889 142.145 2.81671C142.046 2.90285 141.983 2.96315 141.915 3.01914C141.141 3.63502 140.603 4.42965 140.198 5.31256C139.791 6.19763 139.429 7.10638 139.053 8.00437C138.958 8.23048 138.984 8.28217 139.212 8.31662C140.459 8.49967 141.604 8.26925 142.619 7.49185C143.435 6.86735 143.734 6.00812 143.713 5.02831C143.682 3.63287 143.019 2.62721 141.768 1.99409C141.103 1.656 140.401 1.47296 139.668 1.37821C138.499 1.22531 137.347 1.32868 136.216 1.63016C135.54 1.81105 134.916 2.10823 134.446 2.6552C134.089 3.07082 133.949 3.55104 134.044 4.09371C134.132 4.589 134.489 4.89264 135.002 4.9314C135.497 4.96801 135.934 4.79143 136.367 4.58685C136.447 4.54809 136.524 4.50717 136.654 4.44041C136.63 4.57177 136.63 4.66007 136.598 4.73544C136.066 5.9952 135.25 7.02025 133.983 7.58445C132.689 8.16157 131.393 8.12712 130.211 7.25497C129.586 6.79413 129.276 6.16533 129.25 5.3707C129.201 3.85898 129.952 2.80164 131.117 1.97256C132.116 1.26407 133.243 0.833385 134.427 0.544823C136.126 0.13136 137.855 -0.0150741 139.593 0.0882914C141.299 0.189504 142.965 0.512521 144.447 1.44927C145.379 2.03716 146.14 2.7801 146.557 3.81807C147.341 5.76909 146.659 7.48108 145.106 8.66333C144.195 9.35889 143.151 9.68837 142.014 9.75728C141.695 9.77666 141.376 9.80896 141.04 9.83696C141.12 9.90802 141.228 9.97263 141.292 10.0674C141.518 10.4012 141.755 10.7306 141.94 11.086C142.231 11.6415 142.464 12.2251 142.757 12.7786C143.136 13.4957 143.661 13.6356 144.393 13.5366C144.97 13.4569 145.272 13.0951 145.3 12.5158C145.302 12.4685 145.306 12.4189 145.317 12.294C145.545 12.5115 145.761 12.6774 145.924 12.8798C146.506 13.6033 146.667 14.4496 146.547 15.3455C146.413 16.3318 146 17.1996 145.285 17.9081C144.652 18.5347 143.878 18.8405 142.996 18.9202C142.319 18.9805 141.665 18.9137 141.047 18.6381C139.968 18.1536 139.38 17.2814 139.128 16.1552C138.941 15.3261 139.091 14.5056 139.186 13.6809C139.264 13.009 139.354 12.3371 139.367 11.6631C139.373 11.2755 139.257 10.8792 139.154 10.4981C139.057 10.1471 138.807 9.90371 138.432 9.74651C138.368 9.92525 138.301 10.0911 138.247 10.259C137.672 12.0615 137.028 13.8338 136.053 15.4682C135.648 16.1487 135.189 16.7883 134.636 17.359C133.755 18.2677 132.689 18.7975 131.425 18.9159C130.335 19.0171 129.274 18.8987 128.346 18.2785C127.271 17.5614 126.668 16.5557 126.636 15.2335L126.64 15.2249ZM150.171 5.72172C150.13 4.59761 151.112 3.74485 152.139 3.75562C153.418 3.76854 154.153 4.78066 154.153 5.71741C154.153 6.8329 153.261 7.71581 152.137 7.71796C151.049 7.72012 150.169 6.82644 150.171 5.72172Z" fill="#F6F0E3"/>
</g>
</svg>
