<svg width="400" height="127" viewBox="0 0 400 127" fill="none" xmlns="http://www.w3.org/2000/svg">
<path d="M171.336 60.0992C154.532 60.0992 140.863 75.055 140.863 93.439C140.863 111.823 154.532 126.789 171.336 126.789C188.139 126.789 201.811 111.828 201.811 93.439C201.811 75.0501 188.142 60.0992 171.336 60.0992ZM171.336 112.21C161.943 112.21 154.301 103.79 154.301 93.439C154.301 83.0884 161.943 74.6781 171.336 74.6781C180.728 74.6781 188.37 83.0933 188.37 93.439C188.37 103.785 180.728 112.21 171.336 112.21ZM60.9487 90.9419C60.9487 111.378 47.8482 126.791 30.4732 126.791C13.0981 126.791 0 111.83 0 93.439C0 75.0477 13.672 60.0992 30.4756 60.0992C40.9259 60.0992 50.5276 65.852 56.1564 75.4853C56.3704 75.8525 56.2682 76.3266 55.9205 76.5697L45.9906 83.5431C45.8033 83.6744 45.5699 83.7206 45.3462 83.6744C45.1225 83.6258 44.928 83.4847 44.8138 83.2878C41.6505 77.8924 36.2916 74.6708 30.478 74.6708C21.0805 74.6708 13.4337 83.0908 13.4337 93.439C13.4337 103.787 21.0805 112.21 30.478 112.21C36.5858 112.21 41.4973 108.638 44.4053 102.117H30.478C30.1741 102.117 29.8945 101.949 29.7535 101.679L24.2852 91.3237C24.1514 91.0684 24.1587 90.7644 24.307 90.5164C24.4554 90.2709 24.7228 90.1201 25.0097 90.1201H60.1318C60.584 90.1201 60.9512 90.4873 60.9512 90.9395L60.9487 90.9419ZM330.767 62.4261V74.6927C330.767 75.1449 330.4 75.5121 329.948 75.5121H293.104V90.1225H315.099C315.386 90.1225 315.654 90.2733 315.802 90.5189C315.95 90.7644 315.96 91.0708 315.824 91.3261L310.355 101.682C310.214 101.951 309.935 102.119 309.631 102.119H293.104V111.381H329.948C330.4 111.381 330.767 111.748 330.767 112.2V124.467C330.767 124.919 330.4 125.286 329.948 125.286H280.018C279.802 125.286 279.593 125.201 279.437 125.045C279.284 124.892 279.197 124.683 279.197 124.464V62.4261C279.197 61.9738 279.564 61.6067 280.016 61.6067H329.946C330.398 61.6067 330.765 61.9738 330.765 62.4261H330.767ZM130.24 82.2885C130.24 70.7489 119.026 61.3392 105.237 61.3125H75.6638C75.2115 61.3125 74.8444 61.6796 74.8444 62.1319V124.163C74.8444 124.615 75.2115 124.982 75.6638 124.982H87.9304C88.3826 124.982 88.7498 124.615 88.7498 124.163V103.264H101.145L112.597 125.138C112.738 125.408 113.018 125.578 113.324 125.578H127.298C127.585 125.578 127.852 125.427 128 125.181C128.149 124.936 128.158 124.629 128.025 124.377L115.914 101.241C124.621 97.7937 130.237 90.3633 130.237 82.2885H130.24ZM106.497 90.1225H88.7522V74.4471H106.497C111.783 74.4471 116.082 77.9654 116.082 82.2909C116.082 86.6164 111.78 90.125 106.497 90.125V90.1225ZM385.676 101.244C394.383 97.7962 400 90.3657 400 82.2909C400 70.7513 388.786 61.3417 374.998 61.3149H345.424C344.972 61.3149 344.605 61.6821 344.605 62.1343V124.165C344.605 124.617 344.972 124.984 345.424 124.984H357.691C358.143 124.984 358.51 124.617 358.51 124.165V103.267H370.905L382.358 125.14C382.499 125.41 382.778 125.58 383.085 125.58H397.058C397.345 125.58 397.612 125.429 397.761 125.184C397.909 124.938 397.919 124.632 397.785 124.379L385.674 101.244H385.676ZM376.257 90.1225H358.512V74.4471H376.257C381.543 74.4471 385.842 77.9654 385.842 82.2909C385.842 86.6164 381.541 90.125 376.257 90.125V90.1225ZM225.802 93.4463C225.802 103.797 233.449 112.217 242.847 112.217C248.66 112.217 254.019 108.995 257.182 103.6C257.299 103.403 257.491 103.262 257.715 103.213C257.939 103.165 258.172 103.213 258.362 103.345L268.292 110.318C268.642 110.564 268.744 111.035 268.528 111.402C262.899 121.036 253.299 126.789 242.847 126.789C226.043 126.789 212.371 111.833 212.371 93.4463C212.371 75.0598 226.041 60.1065 242.847 60.1065C253.297 60.1065 262.899 65.8593 268.528 75.4926C268.744 75.8598 268.639 76.3315 268.292 76.577L258.362 83.5504C258.174 83.6817 257.939 83.7303 257.715 83.6817C257.491 83.633 257.297 83.492 257.182 83.2951C254.019 77.8997 248.66 74.6781 242.847 74.6781C233.449 74.6781 225.802 83.0981 225.802 93.4487V93.4463ZM141.471 30.2631C142.472 30.2217 143.372 29.8376 144.184 29.2467C145.256 28.4638 146.107 27.4742 146.846 26.3849C146.902 26.3023 146.97 26.2269 147.082 26.081C147.099 26.222 147.114 26.2731 147.107 26.3193C146.97 27.2189 147.265 28.0335 147.62 28.8334C147.902 29.4704 148.359 29.9202 149.037 30.1196C150.187 30.4576 151.284 30.2655 152.334 29.7428C153.45 29.186 154.321 28.3325 155.108 27.3891C155.408 27.0293 155.714 26.6743 156.04 26.2901C154.484 30.8855 152.944 35.4372 151.401 39.9985C151.525 40.0399 151.563 40.0642 151.605 40.0666C153.171 40.0788 154.736 40.0909 156.302 40.0885C156.397 40.0885 156.538 39.9767 156.577 39.8843C156.713 39.5487 156.813 39.201 156.93 38.8582C157.948 35.9259 158.967 32.9936 159.986 30.0613C160.302 29.1519 160.616 28.2426 160.954 27.2676C161.048 27.4645 161.117 27.5982 161.177 27.7368C161.717 28.9817 162.656 29.7792 163.966 30.1002C165.851 30.5621 167.611 30.1561 169.284 29.2516C170.426 28.634 171.336 27.7417 172.184 26.7813C172.598 26.3144 172.997 25.8403 173.407 25.3637C173.332 26.1904 173.31 27.0074 173.5 27.8195C173.92 29.609 175.345 30.3798 176.746 30.2606C177.577 30.1901 178.36 29.9251 179.085 29.5069C180.621 28.6194 181.83 27.3867 182.863 25.9667C183.099 25.6434 183.328 25.3151 183.581 24.9577C183.663 25.4197 183.741 25.8452 183.819 26.2707C184.14 28.0213 185.073 29.3075 186.756 29.9592C188.278 30.55 189.798 30.3336 191.261 29.7233C192.606 29.1641 193.773 28.3106 194.86 27.3551C196.888 25.5728 198.39 23.387 199.664 21.0309C199.708 20.9483 199.733 20.8559 199.771 20.7537C199.618 20.6954 199.499 20.6419 199.373 20.603C199.164 20.5398 198.952 20.4547 198.736 20.4401C198.617 20.4328 198.429 20.5155 198.376 20.6127C197.564 22.0935 196.421 23.2605 195.003 24.1675C194.053 24.7753 193.012 25.1157 191.879 25.0671C190.637 25.0112 189.769 24.1067 189.61 22.8496C189.985 22.7767 190.362 22.6989 190.739 22.6284C192.2 22.3585 193.564 21.8552 194.743 20.9361C195.869 20.0608 196.698 18.9837 196.958 17.537C197.192 16.2459 196.747 15.1298 195.692 14.5341C195.361 14.3469 194.989 14.2083 194.619 14.1232C193.26 13.8096 191.935 14.0357 190.675 14.5536C187.539 15.8422 185.38 18.1132 184.086 21.2181C183.68 22.1956 183.089 23.0514 182.375 23.8198C181.903 24.3279 181.305 24.6149 180.583 24.6051C179.817 24.593 179.433 24.272 179.396 23.5013C179.374 23.0442 179.389 22.5725 179.491 22.1299C179.668 21.3519 179.894 20.5811 180.152 19.8225C181.99 14.4223 183.843 9.02694 185.689 3.62915C185.742 3.47111 185.776 3.30577 185.827 3.1064C184.128 3.1064 182.486 3.10397 180.845 3.11369C180.775 3.11369 180.665 3.22311 180.639 3.30334C179.112 7.77718 177.594 12.2559 176.07 16.7297C175.61 18.0792 175.195 19.4505 174.638 20.7586C174.064 22.1032 173.181 23.263 172.007 24.1723C171.885 24.2672 171.737 24.3279 171.577 24.4179C171.562 24.3255 171.547 24.2939 171.555 24.2672C171.569 24.2039 171.586 24.1383 171.615 24.0799C172.194 22.9201 172.43 21.6728 172.564 20.4036C172.71 19.025 172.654 17.661 172.104 16.3577C171.557 15.0618 170.164 13.7512 168.143 14.0235C166.694 14.218 165.547 14.9353 164.542 15.9395C164.406 16.0757 164.277 16.2167 164.146 16.3553C164.112 16.3407 164.08 16.3261 164.046 16.3091C164.175 15.779 164.304 15.249 164.44 14.68C162.979 14.68 161.559 14.6752 160.142 14.6897C160.049 14.6897 159.908 14.8162 159.876 14.911C159.354 16.4355 158.838 17.9625 158.333 19.4943C157.934 20.7051 157.367 21.826 156.594 22.8399C156.113 23.4721 155.609 24.1188 154.86 24.4301C153.671 24.9212 152.949 24.5273 152.769 23.2581C152.743 23.066 152.757 22.8569 152.806 22.6697C153 21.916 153.178 21.1549 153.428 20.4206C154.036 18.6335 154.681 16.861 155.31 15.0812C155.352 14.9645 155.381 14.8429 155.42 14.7116C155.33 14.6922 155.288 14.6752 155.247 14.6752C153.737 14.6679 152.225 14.663 150.715 14.6557C150.518 14.6557 150.418 14.7432 150.367 14.9305C150.255 15.3462 150.126 15.7547 149.993 16.207C149.903 16.0538 149.823 15.9273 149.754 15.7912C149.438 15.1663 148.945 14.7335 148.32 14.4344C147.338 13.9652 146.312 13.902 145.254 14.0916C143.683 14.3712 142.411 15.2125 141.3 16.2872C139.149 18.3661 137.872 20.9094 137.451 23.8684C137.25 25.2786 137.318 26.6767 137.887 28.0091C138.536 29.5312 140.087 30.3214 141.468 30.2631H141.471ZM189.511 19.6718C189.608 18.8426 189.759 18.0232 190.121 17.2573C190.35 16.7711 190.646 16.348 191.128 16.0708C191.507 15.852 191.911 15.7742 192.29 15.9881C192.655 16.1948 192.784 16.5571 192.81 16.9899C192.929 18.901 191.419 20.5009 190.009 21.0893C189.82 21.1695 189.625 21.2352 189.382 21.3251C189.428 20.7367 189.45 20.2018 189.513 19.6718H189.511ZM162.853 21.5658C163.446 19.9416 164.231 18.4317 165.491 17.2087C166.006 16.7054 166.578 16.3188 167.353 16.3577C167.905 16.3845 168.126 16.523 168.277 17.0653C168.53 17.9795 168.564 18.8986 168.343 19.8298C168.022 21.1768 167.591 22.4728 166.689 23.5548C166.434 23.8587 166.12 24.1723 165.768 24.3255C165.024 24.6465 164.297 24.4811 164.163 23.7639C164.093 23.3748 164.183 22.942 164.273 22.5457C164.333 22.2807 164.523 22.0448 164.681 21.7458C163.995 21.5196 163.385 21.5537 162.763 22.0011C162.801 21.8138 162.811 21.6826 162.855 21.5634L162.853 21.5658ZM143.457 22.1372C143.727 20.0219 144.571 18.191 146.236 16.81C146.581 16.523 147.073 16.3893 147.515 16.2483C147.841 16.1437 148.437 16.4866 148.59 16.8707C148.779 17.3424 148.896 17.8433 149.01 18.2153C148.721 20.5349 148.04 22.5092 146.343 24.0143C145.871 24.4325 145.334 24.6538 144.682 24.6173C144.165 24.5881 143.836 24.3328 143.644 23.883C143.404 23.3238 143.379 22.7354 143.455 22.1372H143.457ZM132.331 14.7894C132.863 13.2601 133.495 11.7599 134.162 10.2816C134.957 8.51391 135.978 6.86783 137.162 5.33116C138.195 3.98901 139.421 2.83894 140.799 1.84935C141.094 1.63781 141.125 1.51381 140.843 1.29012C140.576 1.08101 140.255 0.888929 139.929 0.808692C139.022 0.589863 138.101 0.730886 137.208 0.910812C135.178 1.32172 133.333 2.21163 131.567 3.25958C129.491 4.49231 127.517 5.87337 125.678 7.44407C125.389 7.68965 125.08 7.91091 124.708 8.20025C124.171 5.16339 122.892 2.60066 120.961 0.356445C120.441 0.781946 119.969 1.24149 119.524 1.72048C118.858 2.16543 118.18 2.64442 117.465 3.05534C116.064 3.86014 114.533 4.22972 112.913 4.21999C112.461 4.21756 112.043 4.09113 111.673 3.83096C111.301 3.56837 111.172 3.21095 111.255 2.76843C111.386 2.06574 111.946 1.79099 112.51 1.5284C112.704 1.43843 112.916 1.38737 113.149 1.30714C112.58 0.913244 111.97 0.811123 111.34 0.752769C108.94 0.53394 107.034 1.3582 105.738 3.41519C104.943 4.67467 105.091 6.10679 106.081 7.22038C106.72 7.94252 107.533 8.39476 108.457 8.63791C110.052 9.05855 111.627 8.84215 113.125 8.26347C113.942 7.94738 114.688 7.55349 115.374 7.09152C112.765 10.6876 110.236 14.3445 107.221 17.6318C106.096 18.8572 104.98 20.0875 103.584 21.0188C102.662 21.6339 101.673 22.0594 100.53 22.0254C99.8809 22.0035 99.3532 21.7506 98.9642 21.2376C98.3175 20.3817 98.5411 19.2195 99.4724 18.5071C99.5672 18.4342 99.6547 18.3539 99.786 18.2396C99.538 18.191 99.3678 18.1521 99.1976 18.1254C97.8871 17.9138 96.6203 18.0427 95.4411 18.67C93.1555 19.8809 91.862 22.429 92.1635 25.0112C92.4237 27.2432 93.6199 28.7775 95.6404 29.6966C97.1966 30.4041 98.8305 30.3992 100.469 30.0953C102.407 29.7355 104.002 28.7215 105.383 27.3527C106.896 25.8525 108.257 24.2234 109.359 22.4023C110.46 20.5811 111.54 18.7429 112.546 16.8659C113.971 14.2059 115.15 11.4146 116.791 8.86889C117.074 8.43124 117.37 7.99844 117.672 7.54376C117.766 7.62643 117.818 7.66777 117.864 7.71153C119.138 8.8616 119.911 10.3059 120.324 11.952C120.354 12.0638 120.298 12.234 120.22 12.3313C118.771 14.1378 117.523 16.0757 116.454 18.1278C115.289 20.3623 114.482 22.6989 114.302 25.2276C114.209 26.5211 114.256 27.7903 114.827 28.9987C115.398 30.2072 116.473 30.6351 117.66 30.0175C118.117 29.7792 118.542 29.4291 118.892 29.0474C119.379 28.5124 119.816 27.924 120.21 27.3186C121.722 24.9966 122.8 22.4776 123.403 19.7763C123.964 17.2695 124.433 14.7432 124.599 12.1732C124.63 11.6796 124.803 11.3222 125.207 11.0086C127.648 9.11204 130.347 7.71153 133.277 6.73896C133.393 6.70006 133.517 6.68304 133.712 6.63684C133.612 6.78272 133.559 6.86539 133.503 6.94077C132.999 7.63373 132.479 8.31696 131.995 9.02451C130.466 11.2614 129.148 13.6175 128.068 16.1C126.977 18.6068 126.196 21.206 125.895 23.9341C125.727 25.4537 125.875 26.9344 126.393 28.3763C126.724 29.2978 127.305 29.947 128.287 30.178C129.126 30.3749 129.953 30.3141 130.75 29.981C132.003 29.4558 132.829 28.4492 133.607 27.4037C134.925 25.6312 135.71 23.6107 136.318 21.5124C136.464 21.0042 136.6 20.4911 136.756 19.9246C136.292 20.4012 135.9 20.8413 135.467 21.24C134.789 21.8673 134.008 22.2783 133.055 22.339C132.268 22.3901 131.74 22.0764 131.485 21.33C131.28 20.7343 131.266 20.1264 131.314 19.5064C131.446 17.8871 131.808 16.3115 132.336 14.787L132.331 14.7894ZM121.129 19.4505C121 20.2091 120.867 20.9653 120.507 21.6558C120.285 22.0813 120.011 22.4655 119.5 22.5846C118.975 22.7086 118.617 22.5117 118.447 21.9986C118.216 21.3008 118.328 20.603 118.484 19.9173C118.868 18.2129 119.76 16.754 120.755 15.3487C120.869 15.1858 121.005 15.0399 121.134 14.8843C121.243 16.4331 121.387 17.9406 121.129 19.4481V19.4505ZM282.165 37.3993C283.42 35.3278 284.461 33.1492 285.426 30.9342C285.56 30.6254 285.742 30.3992 286.034 30.2339C288.29 28.9501 290.087 27.1825 291.509 25.0282C291.556 24.9601 291.582 24.8775 291.616 24.8021C291.782 25.495 291.862 26.1053 292.008 26.6986C292.441 28.4419 293.532 29.5896 295.264 30.0929C296.657 30.4965 298.023 30.2825 299.329 29.7282C300.846 29.0838 302.152 28.1113 303.346 26.9904C305.055 25.3832 306.383 23.4891 307.518 21.454C307.64 21.2376 307.744 21.0115 307.88 20.744C307.54 20.637 307.248 20.5544 306.961 20.4522C306.682 20.3526 306.553 20.4522 306.395 20.7051C305.04 22.8861 303.331 24.6027 300.644 25.0501C299.2 25.2908 297.785 24.2672 297.707 22.8691C297.736 22.8569 297.763 22.8375 297.795 22.8326C298.021 22.7864 298.247 22.7378 298.475 22.6989C300.049 22.4363 301.534 21.9476 302.808 20.958C304.031 20.0097 304.938 18.8499 305.074 17.2428C305.186 15.9273 304.753 14.9912 303.579 14.4247C303.304 14.291 303.008 14.1889 302.709 14.1208C301.418 13.829 300.158 14.0211 298.95 14.4879C295.901 15.6672 293.744 17.8044 292.39 20.744C291.954 21.6898 291.422 22.5603 290.831 23.4113C289.725 25.0063 288.429 26.4166 286.836 27.5423C286.749 27.6055 286.651 27.6566 286.559 27.7149L286.51 27.659C288.011 23.3554 289.511 19.0517 291.011 14.753C290.97 14.7311 290.953 14.7116 290.933 14.7116C289.38 14.7019 287.826 14.6873 286.272 14.6946C286.168 14.6946 286.024 14.8405 285.966 14.9523C285.83 15.2149 285.735 15.5018 285.611 15.8106C285.535 15.728 285.499 15.7012 285.479 15.6648C284.901 14.6703 283.926 14.2788 282.885 14.0795C281.553 13.8242 280.262 14.094 279.078 14.7262C276.899 15.8884 275.389 17.6877 274.358 19.8979C273.794 21.1039 273.228 22.3026 272.413 23.3675C272.056 23.8368 271.652 24.2745 271.081 24.4665C269.68 24.9334 268.766 24.3741 269.028 22.8107C269.169 21.9719 269.41 21.1428 269.687 20.3355C271.523 14.9694 273.381 9.61048 275.231 4.24674C275.277 4.10815 275.304 3.96469 275.355 3.77504H274.973C273.66 3.77504 272.35 3.77747 271.037 3.77504C270.346 3.77504 270.361 3.77504 270.14 4.43639C269.264 7.04775 268.379 9.65425 267.499 12.2607C267.091 13.474 266.684 14.6873 266.259 15.9517C266.191 15.8593 266.133 15.796 266.094 15.7231C265.734 15.052 265.16 14.6363 264.482 14.3226C263.548 13.8922 262.563 13.9311 261.591 14.0381C260.336 14.1767 259.235 14.7311 258.226 15.4727C256.672 16.613 255.546 18.0986 254.756 19.842C254.136 21.2109 253.392 22.4995 252.422 23.652C252.04 24.1067 251.578 24.4544 250.977 24.5833C249.915 24.8118 249.249 24.3085 249.271 23.2265C249.28 22.7062 249.348 22.1664 249.509 21.6753C250.221 19.4845 250.977 17.3084 251.717 15.125C251.76 14.9961 251.809 14.8672 251.862 14.7141C251.743 14.7019 251.668 14.6873 251.595 14.6873C250.073 14.6776 248.551 14.6703 247.031 14.6557C246.778 14.6533 246.667 14.7627 246.589 14.9985C246.064 16.6033 245.514 18.2032 244.994 19.8103C244.296 21.9573 243.45 24.0629 243.345 26.3631C243.297 27.4329 243.571 28.3812 244.191 29.2346C244.51 29.6747 244.955 29.9446 245.485 30.0977C246.63 30.426 247.712 30.2388 248.748 29.716C249.633 29.2686 250.37 28.6194 251.067 27.9289C251.996 27.0098 252.779 25.9716 253.53 24.8118C253.53 24.9698 253.526 25.0549 253.53 25.1376C253.594 26.1248 253.696 27.1046 254.107 28.0262C254.858 29.716 256.798 30.5549 258.459 30.1683C259.65 29.8911 260.584 29.2443 261.42 28.4055C262.113 27.7101 262.699 26.9369 263.164 25.9862C263.188 26.1296 263.21 26.2002 263.21 26.2707C263.22 26.8275 263.164 27.394 263.244 27.9411C263.485 29.5312 264.679 30.3482 266.191 30.2655C267.322 30.2047 268.352 29.7938 269.269 29.1057C270.448 28.2207 271.494 27.2043 272.364 26.0129C272.605 25.6823 272.863 25.3637 273.142 25.0015C273.164 25.0914 273.181 25.1303 273.181 25.1692C273.152 26.3363 273.444 27.4305 273.969 28.4638C274.407 29.327 275.071 29.9373 276.041 30.1658C277.641 30.5403 279 30.088 280.157 28.9671C281.069 28.0845 281.859 27.0974 282.547 26.03C282.589 25.9643 282.649 25.9108 282.761 25.7819C282.737 25.9376 282.732 26.0032 282.715 26.064C282.379 27.2457 282.054 28.4298 281.699 29.6066C281.645 29.7817 281.494 29.9689 281.334 30.0661C280.585 30.5281 279.8 30.9317 279.06 31.4083C276.928 32.782 275.066 34.4403 273.706 36.6116C273.04 37.679 272.649 38.8242 272.693 40.0982C272.749 41.7419 274.173 42.9965 275.812 42.836C276.894 42.7315 277.806 42.2452 278.645 41.596C280.123 40.4532 281.22 38.9871 282.178 37.4066L282.165 37.3993ZM297.802 18.5679C297.909 18.0184 298.118 17.4737 298.366 16.968C298.655 16.3723 299.137 15.9517 299.835 15.8763C300.399 15.8155 300.853 16.1875 300.895 16.754C301.029 18.6068 300.1 19.8809 298.609 20.8243C298.283 21.0309 297.904 21.1598 297.552 21.3227C297.515 21.3008 297.481 21.2789 297.447 21.257C297.561 20.3598 297.634 19.4554 297.804 18.5703L297.802 18.5679ZM263.93 22.5506C263.546 23.1852 263.084 23.7639 262.466 24.1845C262.201 24.3644 261.887 24.5273 261.576 24.5833C260.555 24.7632 259.988 24.3279 259.828 23.3019C259.701 22.5044 259.799 21.719 260.022 20.958C260.421 19.5964 261.036 18.3393 262.028 17.2962C262.464 16.8367 262.938 16.4404 263.584 16.2921C264.277 16.134 264.851 16.4063 265.065 17.0871C265.199 17.5102 265.25 17.96 265.299 18.208C265.248 19.9271 264.705 21.2765 263.932 22.5506H263.93ZM281.847 24.1918C281.419 24.5711 280.884 24.7899 280.288 24.6684C279.629 24.5346 279.277 24.0119 279.158 23.1025C279.061 22.3585 279.158 21.6315 279.357 20.9215C279.792 19.3581 280.529 17.9625 281.759 16.8732C282.032 16.6325 282.375 16.4428 282.717 16.3091C283.437 16.0295 284.227 16.4428 284.449 17.1795C284.514 17.3984 284.558 17.6269 284.582 17.8555C284.604 18.084 284.587 18.3174 284.587 18.546C284.58 20.8632 283.534 22.6916 281.845 24.1918H281.847ZM278.586 38.119C278.358 38.333 278.049 38.3354 277.777 38.2187C277.5 38.102 277.465 37.8248 277.448 37.5501C277.39 36.6407 277.67 35.8384 278.217 35.1259C278.949 34.1753 279.851 33.4094 280.872 32.7796C280.916 32.7529 280.969 32.7383 281.113 32.6799C280.957 33.2805 280.874 33.8178 280.68 34.3065C280.284 35.301 279.853 36.2882 279.377 37.2462C279.209 37.5841 278.876 37.8491 278.589 38.1166L278.586 38.119ZM213.149 29.1349C211.457 28.0043 210.506 26.4214 210.455 24.3377C210.424 23.0831 210.54 21.8625 211.245 20.7951C212.585 18.7673 214.465 17.7655 216.935 17.9746C217.149 17.9916 217.363 18.0232 217.638 18.0549C217.492 18.2664 217.37 18.4196 217.278 18.5849C217.015 19.0542 216.733 19.5307 216.869 20.1021C217.059 20.9045 217.696 21.4078 218.542 21.5051C219.831 21.6558 220.888 21.2109 221.742 20.282C222.141 19.8493 222.518 19.3678 222.785 18.8475C224.22 16.0805 225.584 13.2747 227.042 10.5198C227.735 9.21173 228.526 7.94738 229.374 6.73653C230.298 5.41869 231.64 4.72087 233.255 4.56039C233.79 4.5069 234.305 4.57012 234.881 4.78895C234.726 4.92511 234.626 5.01994 234.517 5.10747C233.298 6.07518 232.45 7.3298 231.813 8.72058C231.173 10.1162 230.604 11.5459 230.009 12.961C229.858 13.3184 229.899 13.3987 230.262 13.4521C232.224 13.7415 234.03 13.3768 235.628 12.1538C236.912 11.1715 237.383 9.81715 237.352 8.27319C237.305 6.07518 236.258 4.49231 234.288 3.49299C233.24 2.96294 232.136 2.67117 230.981 2.52285C229.141 2.28214 227.327 2.44505 225.545 2.91918C224.48 3.20122 223.495 3.67292 222.758 4.53365C222.197 5.1877 221.973 5.94631 222.124 6.79974C222.26 7.58023 222.826 8.05923 223.634 8.11758C224.414 8.1735 225.102 7.89632 225.783 7.57294C225.909 7.51215 226.031 7.44651 226.233 7.34195C226.196 7.54863 226.194 7.68722 226.145 7.80636C225.309 9.79041 224.02 11.4049 222.029 12.2924C219.991 13.1993 217.949 13.1458 216.086 11.772C215.104 11.0475 214.613 10.0554 214.572 8.80325C214.494 6.42044 215.675 4.75491 217.514 3.44923C219.087 2.3332 220.862 1.65483 222.727 1.20015C225.401 0.55096 228.127 0.319974 230.862 0.48288C233.549 0.643354 236.175 1.14909 238.509 2.62497C239.978 3.55135 241.176 4.72087 241.833 6.35722C243.066 9.43056 241.993 12.1246 239.547 13.9895C238.11 15.0836 236.467 15.6064 234.675 15.7109C234.171 15.7401 233.671 15.7936 233.143 15.8374C233.269 15.9492 233.44 16.0514 233.542 16.1997C233.899 16.7249 234.271 17.2452 234.563 17.8044C235.02 18.6773 235.39 19.5988 235.849 20.4717C236.445 21.6023 237.271 21.8236 238.426 21.6631C239.338 21.5367 239.812 20.9677 239.854 20.0535C239.856 19.9781 239.866 19.9003 239.88 19.7034C240.24 20.0462 240.578 20.3064 240.836 20.6273C241.753 21.7677 242.008 23.1001 241.816 24.5103C241.607 26.064 240.955 27.4305 239.827 28.5465C238.83 29.5336 237.612 30.0151 236.221 30.1391C235.156 30.2339 234.125 30.1294 233.153 29.6941C231.453 28.9331 230.529 27.5569 230.13 25.7844C229.836 24.4763 230.074 23.1852 230.223 21.8868C230.344 20.8291 230.488 19.769 230.507 18.7089C230.517 18.0986 230.335 17.4737 230.172 16.8732C230.021 16.3212 229.625 15.9371 229.036 15.6891C228.934 15.9711 228.832 16.2313 228.747 16.4963C227.842 19.3338 226.826 22.1275 225.289 24.7C224.65 25.7698 223.93 26.7788 223.06 27.676C221.674 29.1081 219.994 29.9421 218.002 30.1294C216.286 30.2898 214.615 30.1026 213.152 29.1252L213.149 29.1349ZM247.522 9.36734C247.459 7.59725 249.006 6.25267 250.622 6.26969C252.638 6.29157 253.795 7.8866 253.793 9.36004C253.793 11.118 252.388 12.5087 250.618 12.5112C248.903 12.5136 247.518 11.1082 247.522 9.36734Z" fill="#AB4F3F"/>
</svg>
