<?xml version="1.0" encoding="utf-8"?>
<!-- Generator: Adobe Illustrator 28.1.0, SVG Export Plug-In . SVG Version: 6.00 Build 0)  -->
<svg version="1.1" id="Layer_1" xmlns="http://www.w3.org/2000/svg" xmlns:xlink="http://www.w3.org/1999/xlink" x="0px" y="0px"
	 width="321px" height="102px" viewBox="0 0 321 102" style="enable-background:new 0 0 321 102;" xml:space="preserve">
<style type="text/css">
	.st0{fill:#FFFFFF;}
</style>
<path class="st0" d="M137.6,48c-13.4,0-24.4,12-24.4,26.7s10.9,26.7,24.4,26.7c13.4,0,24.4-12,24.4-26.7C161.9,59.9,151,48,137.6,48
	z M137.6,99.5c-12.4,0-22.6-11.2-22.6-24.9c0-13.7,10.1-24.9,22.6-24.9c12.4,0,22.6,11.2,22.6,24.9S150,99.5,137.6,99.5z
	 M137.6,57.8c-8.5,0-15.4,7.5-15.4,16.8c0,9.3,6.9,16.8,15.4,16.8c8.5,0,15.4-7.5,15.4-16.8S146.1,57.8,137.6,57.8z M137.6,89.6
	c-7.5,0-13.6-6.7-13.6-15c0-8.3,6.1-15,13.6-15c7.5,0,13.6,6.7,13.6,15C151.2,82.9,145.1,89.6,137.6,89.6z M48.6,72H20.5
	c-0.2,0-0.4,0.1-0.6,0.3c-0.1,0.2-0.1,0.4,0,0.6l4.4,8.3c0.1,0.2,0.3,0.4,0.6,0.4H36c-2.3,5.2-6.3,8.1-11.1,8.1
	c-7.5,0-13.6-6.7-13.6-15s6.1-15,13.6-15c4.7,0,8.9,2.6,11.5,6.9c0.1,0.2,0.2,0.3,0.4,0.3c0,0,0.1,0,0.1,0c0.1,0,0.3,0,0.4-0.1
	l7.9-5.6c0.3-0.2,0.4-0.6,0.2-0.9C40.9,52.6,33.2,48,24.9,48c-13.4,0-24.4,12-24.4,26.7c0,14.7,10.9,26.7,24.4,26.7
	c13.4,0,24.4-12.3,24.4-28.7C49.3,72.3,49,72,48.6,72L48.6,72z M24.9,99.5c-12.4,0-22.6-11.2-22.6-24.9c0-13.7,10.1-24.9,22.6-24.9
	c7.4,0,14.2,3.9,18.4,10.5l-6.1,4.3c-2.9-4.2-7.5-6.7-12.4-6.7c-8.5,0-15.4,7.5-15.4,16.8s6.9,16.8,15.4,16.8
	c5.6,0,10.2-3.2,12.8-9.1l1.1-2.5H25.6l-3.2-6h25C47,88.5,37.4,99.5,24.9,99.5L24.9,99.5z M264.5,49.2h-39.9c-0.4,0-0.7,0.3-0.7,0.7
	v49.6c0,0.2,0.1,0.3,0.2,0.5c0.1,0.1,0.3,0.2,0.5,0.2h39.9c0.4,0,0.7-0.3,0.7-0.7v-9.8c0-0.4-0.3-0.7-0.7-0.7H235v-7.4h13.2
	c0.2,0,0.5-0.1,0.6-0.4l4.4-8.3c0.1-0.2,0.1-0.4,0-0.6c-0.1-0.2-0.3-0.3-0.6-0.3H235V60.3h29.5c0.4,0,0.7-0.3,0.7-0.7v-9.8
	C265.1,49.5,264.8,49.2,264.5,49.2L264.5,49.2z M263.3,58.5h-30.1v15.3h17.5l-3.2,6h-14.3v11h30.1v7.5h-37.6V51h37.6V58.5z
	 M104.7,65.7c0-9.2-9-16.8-20-16.8H61c-0.4,0-0.7,0.3-0.7,0.7v49.6c0,0.4,0.3,0.7,0.7,0.7h9.8c0.4,0,0.7-0.3,0.7-0.7V82.5h9.9
	l9.2,17.5c0.1,0.2,0.3,0.4,0.6,0.4h11.2c0.2,0,0.4-0.1,0.6-0.3c0.1-0.2,0.1-0.4,0-0.6l-9.7-18.5C100.2,78.1,104.7,72.2,104.7,65.7
	L104.7,65.7z M92.6,79.2l-1.9,0.7l0.9,1.8l8.8,16.8h-8.6L83,81.7l-0.5-1H69.7v17.4h-7.5V50.7h22.5c10,0,18.2,6.7,18.2,15
	C102.9,71.4,98.8,76.7,92.6,79.2L92.6,79.2z M85.7,57.6h-16v16.2h16c5.2,0,9.5-3.6,9.5-8.1C95.2,61.3,90.9,57.6,85.7,57.6L85.7,57.6
	z M85.7,72H71.5V59.4h14.2c4.2,0,7.7,2.8,7.7,6.3C93.4,69.2,89.9,72,85.7,72L85.7,72z M309,80.9c7-2.8,11.5-8.7,11.5-15.2
	c0-9.2-9-16.8-20-16.8h-23.7c-0.4,0-0.7,0.3-0.7,0.7v49.6c0,0.4,0.3,0.7,0.7,0.7h9.8c0.4,0,0.7-0.3,0.7-0.7V82.5h9.9l9.2,17.5
	c0.1,0.2,0.3,0.4,0.6,0.4h11.2c0.2,0,0.4-0.1,0.6-0.3c0.1-0.2,0.1-0.4,0-0.6L309,80.9L309,80.9z M307.7,98.5l-8.8-16.9l-0.5-1h-12.8
	v17.4H278V50.7h22.5c10,0,18.2,6.7,18.2,15c0,5.7-4.1,11-10.3,13.5l-1.9,0.7l0.9,1.8l8.8,16.8L307.7,98.5L307.7,98.5z M311,65.7
	c0-4.5-4.3-8.1-9.5-8.1h-16v16.2h16C306.7,73.8,311,70.2,311,65.7L311,65.7z M301.5,72h-14.2V59.4h14.2c4.2,0,7.7,2.8,7.7,6.3
	C309.2,69.2,305.7,72,301.5,72L301.5,72z M194.8,59.6c4.7,0,8.9,2.6,11.5,6.9c0.1,0.2,0.2,0.3,0.4,0.3c0,0,0.1,0,0.1,0
	c0.1,0,0.3,0,0.4-0.1l7.9-5.6c0.3-0.2,0.4-0.6,0.2-0.9c-4.5-7.7-12.2-12.3-20.5-12.3c-13.4,0-24.4,12-24.4,26.7
	c0,14.7,10.9,26.7,24.4,26.7c8.4,0,16-4.6,20.5-12.3c0.2-0.3,0.1-0.7-0.2-0.9l-7.9-5.6c-0.1-0.1-0.2-0.1-0.4-0.1c0,0-0.1,0-0.1,0
	c-0.2,0-0.3,0.2-0.4,0.3c-2.5,4.3-6.8,6.9-11.5,6.9c-7.5,0-13.6-6.7-13.6-15S187.3,59.6,194.8,59.6L194.8,59.6z M179.3,74.6
	c0,9.3,6.9,16.8,15.4,16.8c4.9,0,9.4-2.5,12.4-6.7l6.1,4.3c-4.2,6.6-11.1,10.5-18.4,10.5c-12.4,0-22.6-11.2-22.6-24.9
	s10.1-24.9,22.6-24.9c7.4,0,14.2,3.9,18.4,10.5l-6.1,4.3c-2.9-4.2-7.5-6.7-12.4-6.7C186.3,57.8,179.3,65.4,179.3,74.6L179.3,74.6z
	 M113.7,24.1c0.8,0,1.5-0.3,2.2-0.8c0.9-0.6,1.5-1.4,2.1-2.3c0-0.1,0.1-0.1,0.2-0.2c0,0.1,0,0.2,0,0.2c-0.1,0.7,0.1,1.4,0.4,2
	c0.2,0.5,0.6,0.9,1.1,1c0.9,0.3,1.8,0.1,2.6-0.3c0.9-0.4,1.6-1.1,2.2-1.9c0.2-0.3,0.5-0.6,0.7-0.9c-1.2,3.7-2.5,7.3-3.7,11
	c0.1,0,0.1,0.1,0.2,0.1c1.3,0,2.5,0,3.8,0c0.1,0,0.2-0.1,0.2-0.2c0.1-0.3,0.2-0.5,0.3-0.8c0.8-2.3,1.6-4.7,2.4-7
	c0.3-0.7,0.5-1.5,0.8-2.2c0.1,0.2,0.1,0.3,0.2,0.4c0.4,1,1.2,1.6,2.2,1.9c1.5,0.4,2.9,0,4.3-0.7c0.9-0.5,1.6-1.2,2.3-2
	c0.3-0.4,0.6-0.8,1-1.1c-0.1,0.7-0.1,1.3,0.1,2c0.3,1.4,1.5,2,2.6,2c0.7-0.1,1.3-0.3,1.9-0.6c1.2-0.7,2.2-1.7,3-2.8
	c0.2-0.3,0.4-0.5,0.6-0.8c0.1,0.4,0.1,0.7,0.2,1.1c0.3,1.4,1,2.4,2.4,3c1.2,0.5,2.4,0.3,3.6-0.2c1.1-0.4,2-1.1,2.9-1.9
	c1.6-1.4,2.8-3.2,3.8-5.1c0-0.1,0.1-0.1,0.1-0.2c-0.1,0-0.2-0.1-0.3-0.1c-0.2-0.1-0.3-0.1-0.5-0.1c-0.1,0-0.2,0.1-0.3,0.1
	c-0.6,1.2-1.6,2.1-2.7,2.8c-0.8,0.5-1.6,0.8-2.5,0.7c-1,0-1.7-0.8-1.8-1.8c0.3-0.1,0.6-0.1,0.9-0.2c1.2-0.2,2.3-0.6,3.2-1.4
	c0.9-0.7,1.6-1.6,1.8-2.7c0.2-1-0.2-1.9-1-2.4c-0.3-0.1-0.6-0.3-0.9-0.3c-1.1-0.3-2.1-0.1-3.2,0.3c-2.5,1-4.2,2.8-5.3,5.3
	c-0.3,0.8-0.8,1.5-1.4,2.1c-0.4,0.4-0.9,0.6-1.4,0.6c-0.6,0-0.9-0.3-0.9-0.9c0-0.4,0-0.7,0.1-1.1c0.1-0.6,0.3-1.2,0.5-1.8
	c1.5-4.3,3-8.6,4.4-13c0-0.1,0.1-0.3,0.1-0.4c-1.4,0-2.7,0-4,0c-0.1,0-0.1,0.1-0.2,0.2c-1.2,3.6-2.4,7.2-3.7,10.7
	c-0.4,1.1-0.7,2.2-1.1,3.2c-0.5,1.1-1.2,2-2.1,2.7c-0.1,0.1-0.2,0.1-0.3,0.2c0-0.1,0-0.1,0-0.1c0-0.1,0-0.1,0-0.1
	c0.5-0.9,0.7-1.9,0.8-2.9c0.1-1.1,0.1-2.2-0.4-3.2c-0.4-1-1.6-2.1-3.2-1.9c-1.2,0.2-2.1,0.7-2.9,1.5c-0.1,0.1-0.2,0.2-0.3,0.3
	c0,0-0.1,0-0.1,0c0.1-0.4,0.2-0.8,0.3-1.3c-1.2,0-2.3,0-3.4,0c-0.1,0-0.2,0.1-0.2,0.2c-0.4,1.2-0.8,2.4-1.2,3.7
	c-0.3,1-0.8,1.9-1.4,2.7c-0.4,0.5-0.8,1-1.4,1.3c-1,0.4-1.5,0.1-1.7-0.9c0-0.2,0-0.3,0-0.5c0.2-0.6,0.3-1.2,0.5-1.8
	c0.5-1.4,1-2.8,1.5-4.3c0-0.1,0.1-0.2,0.1-0.3c-0.1,0-0.1,0-0.1,0c-1.2,0-2.4,0-3.6,0c-0.2,0-0.2,0.1-0.3,0.2
	c-0.1,0.3-0.2,0.7-0.3,1c-0.1-0.1-0.1-0.2-0.2-0.3c-0.3-0.5-0.6-0.8-1.1-1.1c-0.8-0.4-1.6-0.4-2.5-0.3c-1.3,0.2-2.3,0.9-3.2,1.8
	c-1.7,1.7-2.7,3.7-3.1,6.1c-0.2,1.1-0.1,2.2,0.3,3.3C111.3,23.5,112.6,24.1,113.7,24.1L113.7,24.1z M152.1,15.6
	c0.1-0.7,0.2-1.3,0.5-1.9c0.2-0.4,0.4-0.7,0.8-0.9c0.3-0.2,0.6-0.2,0.9-0.1c0.3,0.2,0.4,0.5,0.4,0.8c0.1,1.5-1.1,2.8-2.2,3.3
	c-0.2,0.1-0.3,0.1-0.5,0.2C152,16.5,152.1,16,152.1,15.6L152.1,15.6z M130.8,17.1c0.5-1.3,1.1-2.5,2.1-3.5c0.4-0.4,0.9-0.7,1.5-0.7
	c0.4,0,0.6,0.1,0.7,0.6c0.2,0.7,0.2,1.5,0.1,2.2c-0.3,1.1-0.6,2.1-1.3,3c-0.2,0.2-0.5,0.5-0.7,0.6c-0.6,0.3-1.2,0.1-1.3-0.4
	c-0.1-0.3,0-0.7,0.1-1c0-0.2,0.2-0.4,0.3-0.6c-0.5-0.2-1-0.2-1.5,0.2C130.7,17.3,130.7,17.2,130.8,17.1L130.8,17.1z M115.3,17.6
	c0.2-1.7,0.9-3.2,2.2-4.3c0.3-0.2,0.7-0.3,1-0.4c0.3-0.1,0.7,0.2,0.9,0.5c0.2,0.4,0.2,0.8,0.3,1.1c-0.2,1.9-0.8,3.4-2.1,4.6
	c-0.4,0.3-0.8,0.5-1.3,0.5c-0.4,0-0.7-0.2-0.8-0.6C115.2,18.5,115.2,18.1,115.3,17.6L115.3,17.6z M106.4,11.7
	c0.4-1.2,0.9-2.4,1.5-3.6c0.6-1.4,1.5-2.7,2.4-4c0.8-1.1,1.8-2,2.9-2.8c0.2-0.2,0.3-0.3,0-0.4c-0.2-0.2-0.5-0.3-0.7-0.4
	c-0.7-0.2-1.5-0.1-2.2,0.1c-1.6,0.3-3.1,1-4.5,1.9c-1.7,1-3.2,2.1-4.7,3.3c-0.2,0.2-0.5,0.4-0.8,0.6c-0.4-2.4-1.5-4.5-3-6.3
	c-0.4,0.3-0.8,0.7-1.1,1.1C95.6,1.6,95,2,94.5,2.3c-1.1,0.6-2.3,0.9-3.6,0.9c-0.4,0-0.7-0.1-1-0.3c-0.3-0.2-0.4-0.5-0.3-0.9
	c0.1-0.6,0.6-0.8,1-1C90.7,1,90.8,1,91,0.9c-0.5-0.3-0.9-0.4-1.4-0.4c-1.9-0.2-3.4,0.5-4.5,2.1c-0.6,1-0.5,2.2,0.3,3
	c0.5,0.6,1.2,0.9,1.9,1.1C88.5,7.1,89.8,7,91,6.5c0.7-0.3,1.3-0.6,1.8-0.9c-2.1,2.9-4.1,5.8-6.5,8.4c-0.9,1-1.8,2-2.9,2.7
	c-0.7,0.5-1.5,0.8-2.4,0.8c-0.5,0-0.9-0.2-1.3-0.6c-0.5-0.7-0.3-1.6,0.4-2.2c0.1-0.1,0.1-0.1,0.3-0.2c-0.2,0-0.3-0.1-0.5-0.1
	c-1-0.2-2.1-0.1-3,0.4c-1.8,1-2.9,3-2.6,5.1c0.2,1.8,1.2,3,2.8,3.7c1.2,0.6,2.6,0.6,3.9,0.3c1.6-0.3,2.8-1.1,3.9-2.2
	c1.2-1.2,2.3-2.5,3.2-4c0.9-1.5,1.7-2.9,2.6-4.4c1.1-2.1,2.1-4.4,3.4-6.4c0.2-0.4,0.5-0.7,0.7-1.1C94.7,6,94.8,6,94.8,6
	c1,0.9,1.6,2.1,2,3.4c0,0.1,0,0.2-0.1,0.3c-1.2,1.4-2.2,3-3,4.6c-0.9,1.8-1.6,3.7-1.7,5.7c-0.1,1,0,2.1,0.4,3c0.5,1,1.3,1.3,2.3,0.8
	c0.4-0.2,0.7-0.5,1-0.8c0.4-0.4,0.7-0.9,1.1-1.4c1.2-1.9,2.1-3.9,2.6-6c0.4-2,0.8-4,1-6.1c0-0.4,0.2-0.7,0.5-0.9
	c2-1.5,4.1-2.6,6.5-3.4c0.1,0,0.2,0,0.3-0.1c-0.1,0.1-0.1,0.2-0.2,0.2c-0.4,0.6-0.8,1.1-1.2,1.7c-1.2,1.8-2.3,3.7-3.1,5.7
	c-0.9,2-1.5,4.1-1.7,6.3c-0.1,1.2,0,2.4,0.4,3.6c0.3,0.7,0.7,1.3,1.5,1.4c0.7,0.2,1.3,0.1,2-0.2c1-0.4,1.7-1.2,2.3-2.1
	c1.1-1.4,1.7-3,2.2-4.7c0.1-0.4,0.2-0.8,0.3-1.3c-0.4,0.4-0.7,0.7-1,1.1c-0.5,0.5-1.2,0.8-1.9,0.9c-0.6,0-1.1-0.2-1.3-0.8
	c-0.2-0.5-0.2-1-0.1-1.5C105.7,14.2,105.9,12.9,106.4,11.7L106.4,11.7z M97.4,15.4c-0.1,0.6-0.2,1.2-0.5,1.8
	c-0.2,0.3-0.4,0.6-0.8,0.7c-0.4,0.1-0.7-0.1-0.8-0.5c-0.2-0.6-0.1-1.1,0-1.7c0.3-1.4,1-2.5,1.8-3.7c0.1-0.1,0.2-0.2,0.3-0.4
	C97.5,13,97.6,14.2,97.4,15.4L97.4,15.4z M226.2,29.8c1-1.7,1.8-3.4,2.6-5.2c0.1-0.2,0.3-0.4,0.5-0.6c1.8-1,3.2-2.4,4.4-4.2
	c0-0.1,0.1-0.1,0.1-0.2c0.1,0.6,0.2,1,0.3,1.5c0.3,1.4,1.2,2.3,2.6,2.7c1.1,0.3,2.2,0.2,3.3-0.3c1.2-0.5,2.3-1.3,3.2-2.2
	c1.4-1.3,2.4-2.8,3.3-4.4c0.1-0.2,0.2-0.4,0.3-0.6c-0.3-0.1-0.5-0.2-0.7-0.2c-0.2-0.1-0.3,0-0.5,0.2c-1.1,1.7-2.5,3.1-4.6,3.5
	c-1.2,0.2-2.3-0.6-2.4-1.7c0,0,0,0,0.1,0c0.2,0,0.4-0.1,0.5-0.1c1.3-0.2,2.4-0.6,3.5-1.4c1-0.8,1.7-1.7,1.8-3
	c0.1-1.1-0.3-1.8-1.2-2.3c-0.2-0.1-0.5-0.2-0.7-0.2c-1-0.2-2-0.1-3,0.3c-2.4,0.9-4.2,2.7-5.2,5c-0.3,0.8-0.8,1.5-1.2,2.1
	c-0.9,1.3-1.9,2.4-3.2,3.3c-0.1,0.1-0.1,0.1-0.2,0.1c0,0,0,0,0,0c1.2-3.4,2.4-6.9,3.6-10.3c0,0,0,0-0.1,0c-1.2,0-2.5,0-3.7,0
	c-0.1,0-0.2,0.1-0.2,0.2c-0.1,0.2-0.2,0.4-0.3,0.7c-0.1-0.1-0.1-0.1-0.1-0.1c-0.5-0.8-1.2-1.1-2.1-1.3c-1.1-0.2-2.1,0-3,0.5
	c-1.7,0.9-3,2.4-3.8,4.1c-0.5,1-0.9,1.9-1.6,2.8c-0.3,0.4-0.6,0.7-1.1,0.9c-1.1,0.4-1.9-0.1-1.6-1.3c0.1-0.7,0.3-1.3,0.5-2
	c1.5-4.3,3-8.6,4.4-12.9c0-0.1,0.1-0.2,0.1-0.4h-0.3c-1.1,0-2.1,0-3.1,0c-0.6,0-0.5,0-0.7,0.5c-0.7,2.1-1.4,4.2-2.1,6.3
	c-0.3,1-0.7,1.9-1,3c-0.1-0.1-0.1-0.1-0.1-0.2c-0.3-0.5-0.7-0.9-1.3-1.1c-0.7-0.3-1.5-0.3-2.3-0.2c-1,0.1-1.9,0.6-2.7,1.1
	c-1.2,0.9-2.1,2.1-2.8,3.5c-0.5,1.1-1.1,2.1-1.9,3c-0.3,0.4-0.7,0.6-1.2,0.7c-0.9,0.2-1.4-0.2-1.4-1.1c0-0.4,0.1-0.8,0.2-1.2
	c0.6-1.8,1.2-3.5,1.8-5.2c0-0.1,0.1-0.2,0.1-0.3c-0.1,0-0.2,0-0.2,0c-1.2,0-2.4,0-3.7,0c-0.2,0-0.3,0.1-0.4,0.3
	c-0.4,1.3-0.9,2.6-1.3,3.8c-0.6,1.7-1.2,3.4-1.3,5.2c0,0.9,0.2,1.6,0.7,2.3c0.3,0.4,0.6,0.6,1,0.7c0.9,0.3,1.8,0.1,2.6-0.3
	c0.7-0.4,1.3-0.9,1.9-1.4c0.7-0.7,1.4-1.6,2-2.5c0,0.1,0,0.2,0,0.3c0.1,0.8,0.1,1.6,0.5,2.3c0.6,1.4,2.2,2,3.5,1.7
	c1-0.2,1.7-0.7,2.4-1.4c0.6-0.6,1-1.2,1.4-1.9c0,0.1,0,0.2,0,0.2c0,0.4,0,0.9,0,1.3c0.2,1.3,1.1,1.9,2.4,1.9c0.9,0,1.7-0.4,2.5-0.9
	c0.9-0.7,1.8-1.5,2.5-2.5c0.2-0.3,0.4-0.5,0.6-0.8c0,0.1,0,0.1,0,0.1c0,0.9,0.2,1.8,0.6,2.6c0.4,0.7,0.9,1.2,1.7,1.4
	c1.3,0.3,2.4-0.1,3.3-1c0.7-0.7,1.4-1.5,1.9-2.3c0-0.1,0.1-0.1,0.2-0.2c0,0.1,0,0.2,0,0.2c-0.3,0.9-0.5,1.9-0.8,2.8
	c0,0.1-0.2,0.3-0.3,0.4c-0.6,0.4-1.2,0.7-1.8,1.1c-1.7,1.1-3.2,2.4-4.3,4.2c-0.5,0.9-0.8,1.8-0.8,2.8c0,1.3,1.2,2.3,2.5,2.2
	c0.9-0.1,1.6-0.5,2.3-1C224.6,32.2,225.5,31.1,226.2,29.8L226.2,29.8z M238.7,14.7c0.1-0.4,0.3-0.9,0.5-1.3c0.2-0.5,0.6-0.8,1.2-0.9
	c0.5,0,0.8,0.2,0.8,0.7c0.1,1.5-0.6,2.5-1.8,3.3c-0.3,0.2-0.6,0.3-0.8,0.4l-0.1-0.1C238.5,16.2,238.6,15.4,238.7,14.7L238.7,14.7z
	 M211.6,17.9c-0.3,0.5-0.7,1-1.2,1.3c-0.2,0.1-0.5,0.3-0.7,0.3c-0.8,0.1-1.3-0.2-1.4-1c-0.1-0.6,0-1.3,0.2-1.9
	c0.3-1.1,0.8-2.1,1.6-2.9c0.3-0.4,0.7-0.7,1.2-0.8c0.6-0.1,1,0.1,1.2,0.6c0.1,0.3,0.1,0.7,0.2,0.9C212.7,15.8,212.3,16.9,211.6,17.9
	L211.6,17.9z M226,19.2c-0.3,0.3-0.8,0.5-1.2,0.4c-0.5-0.1-0.8-0.5-0.9-1.3c-0.1-0.6,0-1.2,0.2-1.7c0.3-1.3,0.9-2.4,1.9-3.2
	c0.2-0.2,0.5-0.3,0.8-0.5c0.6-0.2,1.2,0.1,1.4,0.7c0.1,0.2,0.1,0.4,0.1,0.5c0,0.2,0,0.4,0,0.6C228.2,16.6,227.3,18,226,19.2
	L226,19.2z M223.4,30.4c-0.2,0.2-0.4,0.2-0.6,0.1c-0.2-0.1-0.2-0.3-0.3-0.5c0-0.7,0.2-1.4,0.6-1.9c0.6-0.8,1.3-1.4,2.1-1.9
	c0,0,0.1,0,0.2-0.1c-0.1,0.5-0.2,0.9-0.3,1.3c-0.3,0.8-0.7,1.6-1,2.4C223.9,29.9,223.6,30.2,223.4,30.4L223.4,30.4z M171,23.2
	c-1.4-0.9-2.1-2.2-2.2-3.8c0-1,0.1-2,0.6-2.8c1.1-1.6,2.6-2.4,4.6-2.3c0.2,0,0.3,0,0.6,0.1c-0.1,0.2-0.2,0.3-0.3,0.4
	c-0.2,0.4-0.4,0.8-0.3,1.2c0.2,0.6,0.7,1,1.3,1.1c1,0.1,1.9-0.2,2.6-1c0.3-0.3,0.6-0.7,0.8-1.1c1.1-2.2,2.2-4.5,3.4-6.7
	c0.6-1,1.2-2.1,1.9-3c0.7-1.1,1.8-1.6,3.1-1.7c0.4,0,0.8,0,1.3,0.2c-0.1,0.1-0.2,0.2-0.3,0.3c-1,0.8-1.7,1.8-2.2,2.9
	c-0.5,1.1-1,2.3-1.4,3.4c-0.1,0.3-0.1,0.4,0.2,0.4c1.6,0.2,3-0.1,4.3-1c1-0.8,1.4-1.9,1.4-3.1c0-1.8-0.9-3-2.5-3.8
	c-0.8-0.4-1.7-0.7-2.6-0.8c-1.5-0.2-2.9-0.1-4.3,0.3c-0.9,0.2-1.6,0.6-2.2,1.3c-0.4,0.5-0.6,1.1-0.5,1.8c0.1,0.6,0.6,1,1.2,1.1
	c0.6,0,1.2-0.2,1.7-0.4c0.1,0,0.2-0.1,0.4-0.2c0,0.2,0,0.3-0.1,0.4c-0.7,1.6-1.7,2.9-3.3,3.6c-1.6,0.7-3.3,0.7-4.8-0.4
	c-0.8-0.6-1.2-1.4-1.2-2.4c-0.1-1.9,0.9-3.2,2.4-4.3c1.3-0.9,2.7-1.4,4.2-1.8c2.1-0.5,4.3-0.7,6.5-0.6c2.1,0.1,4.2,0.5,6.1,1.7
	c1.2,0.7,2.1,1.7,2.7,3c1,2.5,0.1,4.6-1.8,6.1c-1.2,0.9-2.5,1.3-3.9,1.4c-0.4,0-0.8,0.1-1.2,0.1c0.1,0.1,0.2,0.2,0.3,0.3
	c0.3,0.4,0.6,0.8,0.8,1.3c0.4,0.7,0.7,1.4,1,2.1c0.5,0.9,1.1,1.1,2.1,1c0.7-0.1,1.1-0.6,1.1-1.3c0-0.1,0-0.1,0-0.3
	c0.3,0.3,0.6,0.5,0.8,0.7c0.7,0.9,0.9,2,0.8,3.1c-0.2,1.2-0.7,2.3-1.6,3.2c-0.8,0.8-1.8,1.2-2.9,1.3c-0.9,0.1-1.7,0-2.5-0.4
	c-1.4-0.6-2.1-1.7-2.4-3.1c-0.2-1,0-2.1,0.1-3.1c0.1-0.8,0.2-1.7,0.2-2.5c0-0.5-0.1-1-0.3-1.5c-0.1-0.4-0.4-0.7-0.9-0.9
	c-0.1,0.2-0.2,0.4-0.2,0.6c-0.7,2.3-1.5,4.5-2.8,6.6c-0.5,0.9-1.1,1.7-1.8,2.4c-1.1,1.1-2.5,1.8-4,2C173.5,24.1,172.2,24,171,23.2
	L171,23.2z M198.5,7.4c-0.1-1.4,1.2-2.5,2.5-2.5c1.6,0,2.5,1.3,2.5,2.5c0,1.4-1.1,2.5-2.5,2.5C199.6,9.9,198.5,8.8,198.5,7.4z"/>
</svg>
