<svg width="321" height="102" viewBox="0 0 321 102" fill="none" xmlns="http://www.w3.org/2000/svg">
<path d="M137.568 47.958C124.125 47.958 113.188 59.9225 113.188 74.6316C113.188 89.3407 124.123 101.311 137.568 101.311C151.013 101.311 161.948 89.3427 161.948 74.6316C161.948 59.9206 151.011 47.958 137.568 47.958ZM137.568 99.506C125.119 99.506 114.993 88.3468 114.993 74.6316C114.993 60.9165 125.119 49.7631 137.568 49.7631C150.017 49.7631 160.143 60.9184 160.143 74.6316C160.143 88.3448 150.017 99.506 137.568 99.506ZM137.568 57.8179C129.058 57.8179 122.135 65.3592 122.135 74.6316C122.135 83.9041 129.058 91.4512 137.568 91.4512C146.078 91.4512 153.001 83.906 153.001 74.6316C153.001 65.3572 146.078 57.8179 137.568 57.8179ZM137.568 89.6461C130.054 89.6461 123.94 82.9101 123.94 74.6297C123.94 66.3492 130.054 59.621 137.568 59.621C145.082 59.621 151.195 66.3531 151.195 74.6297C151.195 82.9062 145.082 89.6461 137.568 89.6461ZM48.6032 71.9765H20.5038C20.2742 71.9765 20.0603 72.0971 19.9416 72.2936C19.823 72.49 19.8152 72.7351 19.9241 72.9393L24.2987 81.2237C24.4115 81.4396 24.6352 81.5738 24.8784 81.5738H36.0201C33.6918 86.7906 29.7646 89.6481 24.8784 89.6481C17.3604 89.6481 11.243 82.912 11.243 74.6316C11.243 66.3512 17.3604 59.6171 24.8784 59.6171C29.5292 59.6171 33.8163 62.1944 36.3469 66.5107C36.4403 66.6682 36.5939 66.7811 36.7729 66.82C36.8196 66.8297 36.8662 66.8355 36.9129 66.8355C37.0471 66.8355 37.1794 66.7947 37.2903 66.7169L45.2342 61.1382C45.5143 60.9417 45.596 60.5644 45.4229 60.2707C40.9199 52.5641 33.2405 47.9619 24.8784 47.9619C11.4355 47.958 0.5 59.9225 0.5 74.6297C0.5 89.3368 11.4355 101.309 24.8784 101.309C38.3212 101.309 49.2587 88.9809 49.2587 72.6301C49.2587 72.2683 48.965 71.9746 48.6032 71.9746V71.9765ZM24.8803 99.506C12.4334 99.506 2.30509 88.3468 2.30509 74.6316C2.30509 60.9165 12.4315 49.7631 24.8803 49.7631C32.2641 49.7631 39.0837 53.6747 43.3163 60.2785L37.2378 64.5461C34.324 60.3057 29.786 57.8101 24.8803 57.8101C16.3665 57.8101 9.43984 65.3553 9.43984 74.6297C9.43984 83.9041 16.3665 91.4492 24.8803 91.4492C30.4979 91.4492 35.0398 88.2028 37.6696 82.3052L38.8036 79.7648H25.5728L22.41 73.7777H47.4361C46.9634 88.5238 37.4264 99.5041 24.8784 99.5041L24.8803 99.506ZM264.457 49.162H224.513C224.152 49.162 223.858 49.4557 223.858 49.8175V99.4476C223.858 99.6208 223.928 99.788 224.05 99.9125C224.173 100.035 224.34 100.105 224.515 100.105H264.459C264.82 100.105 265.114 99.8114 265.114 99.4476V89.6344C265.114 89.2726 264.82 88.9789 264.459 88.9789H234.984V81.5699H248.205C248.448 81.5699 248.672 81.4357 248.785 81.2198L253.159 72.9355C253.266 72.7312 253.261 72.4881 253.142 72.2897C253.023 72.0932 252.809 71.9726 252.58 71.9726H234.984V60.2843H264.459C264.82 60.2843 265.114 59.9906 265.114 59.6288V49.8156C265.114 49.4538 264.82 49.1601 264.459 49.1601L264.457 49.162ZM263.309 58.4831H233.179V73.7796H250.675L247.513 79.7668H233.179V90.784H263.309V98.3H225.663V50.9671H263.309V58.4831ZM104.693 65.7093C104.693 56.4777 95.7202 48.95 84.6913 48.9286H61.0326C60.6708 48.9286 60.3771 49.2223 60.3771 49.5841V99.2084C60.3771 99.5702 60.6708 99.8639 61.0326 99.8639H70.8458C71.2076 99.8639 71.5013 99.5702 71.5013 99.2084V82.49H81.4176L90.5792 99.9884C90.692 100.204 90.9157 100.34 91.1608 100.34H102.339C102.569 100.34 102.781 100.22 102.902 100.023C103.022 99.8269 103.028 99.5819 102.921 99.3796L93.2324 80.8736C100.198 78.1153 104.691 72.171 104.691 65.7112L104.693 65.7093ZM92.5691 79.1949L90.7056 79.9341L91.6354 81.71L100.443 98.5354H91.8572L83.0185 81.6535L82.5127 80.6868H69.7001V98.0627H62.1841V50.7337H84.6913C94.7282 50.7531 102.892 57.4716 102.892 65.7112C102.892 71.4202 98.8421 76.7129 92.573 79.1968L92.5691 79.1949ZM85.6989 57.6311H69.6982V73.7816H85.6989C90.9215 73.7816 95.1717 70.1617 95.1717 65.7112C95.1717 61.2608 90.9215 57.6331 85.6989 57.6331V57.6311ZM85.6989 71.9765H71.5033V59.4362H85.6989C89.9276 59.4362 93.3666 62.2508 93.3666 65.7112C93.3666 69.1716 89.9276 71.9784 85.6989 71.9784V71.9765ZM309.041 80.8736C316.007 78.1153 320.5 72.171 320.5 65.7112C320.5 56.4796 311.527 48.9519 300.498 48.9305H276.84C276.478 48.9305 276.184 49.2243 276.184 49.5861V99.2103C276.184 99.5721 276.478 99.8658 276.84 99.8658H286.653C287.014 99.8658 287.308 99.5721 287.308 99.2103V82.4919H297.225L306.386 99.9903C306.499 100.206 306.723 100.342 306.968 100.342H318.146C318.376 100.342 318.59 100.222 318.709 100.025C318.827 99.8289 318.835 99.5838 318.728 99.3815L309.039 80.8755L309.041 80.8736ZM307.664 98.5373L298.825 81.6555L298.32 80.6888H285.505V98.0647H277.989V50.7356H300.496C310.531 50.7551 318.697 57.4736 318.697 65.7132C318.697 71.4221 314.645 76.7149 308.378 79.1988L306.514 79.9379L307.444 81.7138L316.252 98.5393H307.666L307.664 98.5373ZM310.979 65.7112C310.979 61.2569 306.728 57.6331 301.506 57.6331H285.505V73.7835H301.506C306.728 73.7835 310.979 70.1636 310.979 65.7132V65.7112ZM301.506 71.9784H287.31V59.4382H301.506C305.734 59.4382 309.173 62.2528 309.173 65.7132C309.173 69.1736 305.734 71.9804 301.506 71.9804V71.9784ZM194.778 59.621C199.429 59.621 203.716 62.1983 206.247 66.5146C206.34 66.6721 206.494 66.7849 206.673 66.8238C206.719 66.8336 206.766 66.8394 206.813 66.8394C206.947 66.8394 207.079 66.7986 207.19 66.7207L215.134 61.1421C215.414 60.9456 215.496 60.5683 215.323 60.2746C210.82 52.5679 203.14 47.9658 194.778 47.9658C181.335 47.9658 170.398 59.9303 170.398 74.6374C170.398 89.3446 181.333 101.311 194.778 101.311C203.138 101.311 210.82 96.7089 215.323 89.0023C215.496 88.7085 215.412 88.3312 215.134 88.1347L207.19 82.5561C207.079 82.4783 206.947 82.4374 206.813 82.4374C206.766 82.4374 206.719 82.4433 206.673 82.453C206.494 82.4919 206.338 82.6047 206.247 82.7623C203.716 87.0785 199.429 89.6558 194.778 89.6558C187.26 89.6558 181.143 82.9198 181.143 74.6394C181.143 66.359 187.26 59.6249 194.778 59.6249V59.621ZM179.338 74.6355C179.338 83.9099 186.264 91.4551 194.778 91.4551C199.684 91.4551 204.222 88.9595 207.136 84.7191L213.214 88.9867C208.982 95.5924 202.162 99.5021 194.778 99.5021C182.331 99.5021 172.203 88.3468 172.203 74.6336C172.203 60.9204 182.329 49.765 194.778 49.765C202.162 49.765 208.982 53.6767 213.214 60.2804L207.136 64.548C204.222 60.3076 199.684 57.812 194.778 57.812C186.264 57.812 179.338 65.3572 179.338 74.6316V74.6355ZM113.676 24.0892C114.477 24.0562 115.197 23.7488 115.847 23.2762C116.704 22.6498 117.385 21.8582 117.976 20.9867C118.021 20.9206 118.076 20.8603 118.165 20.7436C118.179 20.8564 118.19 20.8973 118.185 20.9342C118.076 21.6539 118.311 22.3055 118.595 22.9455C118.821 23.4551 119.186 23.815 119.729 23.9745C120.649 24.2448 121.526 24.0912 122.367 23.673C123.259 23.2275 123.956 22.5448 124.586 21.7901C124.825 21.5022 125.07 21.2182 125.331 20.9109C124.086 24.5872 122.855 28.2285 121.62 31.8775C121.719 31.9106 121.75 31.9301 121.783 31.932C123.036 31.9417 124.288 31.9515 125.541 31.9495C125.617 31.9495 125.73 31.86 125.761 31.7861C125.87 31.5177 125.95 31.2395 126.043 30.9653C126.858 28.6194 127.673 26.2736 128.488 23.9278C128.741 23.2003 128.992 22.4728 129.262 21.6928C129.338 21.8504 129.392 21.9574 129.441 22.0682C129.873 23.0641 130.624 23.7021 131.672 23.9589C133.18 24.3285 134.588 24.0036 135.926 23.28C136.84 22.786 137.568 22.0721 138.247 21.3038C138.577 20.9303 138.896 20.551 139.225 20.1698C139.165 20.8311 139.147 21.4847 139.299 22.1344C139.636 23.566 140.775 24.1826 141.896 24.0873C142.561 24.0309 143.187 23.8188 143.767 23.4843C144.996 22.7743 145.963 21.7881 146.79 20.6522C146.978 20.3935 147.161 20.1309 147.364 19.8449C147.43 20.2145 147.492 20.5549 147.554 20.8953C147.811 22.2958 148.558 23.3248 149.904 23.8461C151.122 24.3187 152.337 24.1456 153.508 23.6574C154.584 23.21 155.518 22.5273 156.387 21.7628C158.009 20.3371 159.211 18.5884 160.231 16.7035C160.266 16.6374 160.285 16.5635 160.316 16.4818C160.194 16.4351 160.098 16.3923 159.997 16.3612C159.83 16.3106 159.661 16.2425 159.488 16.2309C159.392 16.225 159.242 16.2912 159.2 16.369C158.55 17.5536 157.636 18.4872 156.502 19.2128C155.741 19.6991 154.909 19.9714 154.002 19.9325C153.008 19.8877 152.314 19.1641 152.187 18.1605C152.487 18.1021 152.788 18.0399 153.09 17.9834C154.259 17.7675 155.35 17.3649 156.294 16.6296C157.194 15.9294 157.858 15.0677 158.066 13.9103C158.252 12.8775 157.896 11.9846 157.052 11.5081C156.788 11.3583 156.49 11.2474 156.194 11.1794C155.107 10.9284 154.047 11.1093 153.039 11.5237C150.53 12.5546 148.803 14.3713 147.768 16.8553C147.443 17.6372 146.971 18.3219 146.399 18.9366C146.021 19.3431 145.543 19.5726 144.965 19.5648C144.352 19.5551 144.045 19.2984 144.016 18.6817C143.998 18.3161 144.01 17.9387 144.092 17.5847C144.234 16.9622 144.415 16.3456 144.621 15.7388C146.091 11.4186 147.574 7.10236 149.05 2.78416C149.093 2.65773 149.12 2.52546 149.161 2.36596C147.801 2.36596 146.488 2.36401 145.175 2.37179C145.119 2.37179 145.031 2.45932 145.01 2.52351C143.788 6.10256 142.575 9.6855 141.355 13.2645C140.987 14.3441 140.655 15.4412 140.209 16.4876C139.75 17.5633 139.044 18.4911 138.105 19.2186C138.007 19.2945 137.889 19.3431 137.76 19.4151C137.749 19.3411 137.737 19.3159 137.743 19.2945C137.755 19.2439 137.768 19.1914 137.792 19.1447C138.254 18.2169 138.443 17.219 138.55 16.2036C138.667 15.1008 138.622 14.0095 138.182 12.9669C137.745 11.9302 136.63 10.8818 135.014 11.0996C133.855 11.2552 132.936 11.829 132.133 12.6324C132.024 12.7413 131.921 12.8541 131.816 12.965C131.789 12.9533 131.764 12.9417 131.736 12.928C131.839 12.504 131.942 12.08 132.051 11.6248C130.882 11.6248 129.746 11.6209 128.612 11.6326C128.539 11.6326 128.426 11.7337 128.4 11.8096C127.982 13.0292 127.57 14.2507 127.165 15.4762C126.846 16.4448 126.393 17.3416 125.774 18.1527C125.389 18.6584 124.987 19.1758 124.388 19.4248C123.436 19.8177 122.859 19.5026 122.715 18.4872C122.693 18.3336 122.705 18.1663 122.744 18.0165C122.9 17.4135 123.042 16.8047 123.242 16.2173C123.728 14.7876 124.244 13.3696 124.747 11.9457C124.781 11.8524 124.804 11.7551 124.835 11.6501C124.763 11.6345 124.73 11.6209 124.697 11.6209C123.489 11.6151 122.279 11.6112 121.071 11.6053C120.914 11.6053 120.834 11.6754 120.793 11.8251C120.704 12.1578 120.6 12.4845 120.493 12.8463C120.421 12.7238 120.357 12.6227 120.303 12.5137C120.05 12.0138 119.655 11.6676 119.155 11.4283C118.369 11.0529 117.549 11.0024 116.702 11.1541C115.446 11.3778 114.429 12.0508 113.54 12.9105C111.818 14.5736 110.797 16.6082 110.46 18.9755C110.299 20.1036 110.353 21.2221 110.809 22.288C111.328 23.5057 112.569 24.1379 113.674 24.0912L113.676 24.0892ZM152.108 15.6162C152.186 14.9529 152.306 14.2974 152.596 13.6847C152.779 13.2957 153.016 12.9572 153.401 12.7355C153.705 12.5604 154.028 12.4982 154.331 12.6693C154.623 12.8347 154.726 13.1245 154.747 13.4707C154.843 14.9996 153.635 16.2795 152.506 16.7502C152.355 16.8144 152.199 16.8669 152.005 16.9389C152.042 16.4682 152.059 16.0403 152.11 15.6162H152.108ZM130.781 17.1315C131.256 15.8321 131.884 14.6242 132.892 13.6458C133.304 13.2432 133.761 12.9339 134.382 12.965C134.823 12.9864 135 13.0973 135.121 13.531C135.323 14.2624 135.35 14.9977 135.173 15.7426C134.917 16.8203 134.572 17.857 133.851 18.7226C133.646 18.9657 133.396 19.2167 133.113 19.3392C132.52 19.596 131.937 19.4637 131.83 18.8899C131.773 18.5787 131.845 18.2324 131.917 17.9154C131.966 17.7033 132.118 17.5147 132.244 17.2754C131.695 17.0945 131.207 17.1217 130.709 17.4797C130.74 17.3299 130.748 17.2248 130.783 17.1295L130.781 17.1315ZM115.265 17.5886C115.481 15.8963 116.156 14.4316 117.488 13.3268C117.764 13.0973 118.157 12.9903 118.511 12.8775C118.772 12.7938 119.249 13.0681 119.371 13.3754C119.523 13.7528 119.616 14.1535 119.708 14.4511C119.476 16.3067 118.931 17.8862 117.574 19.0902C117.196 19.4248 116.767 19.6018 116.245 19.5726C115.831 19.5493 115.568 19.345 115.415 18.9852C115.222 18.5378 115.203 18.0671 115.263 17.5886H115.265ZM106.364 11.7104C106.79 10.4869 107.296 9.28675 107.829 8.1041C108.465 6.68999 109.282 5.37313 110.229 4.14381C111.056 3.07009 112.036 2.15005 113.139 1.35838C113.374 1.18915 113.4 1.08995 113.174 0.910994C112.96 0.743713 112.703 0.590047 112.443 0.525858C111.717 0.350795 110.98 0.463613 110.266 0.607553C108.642 0.936281 107.165 1.6482 105.753 2.48655C104.092 3.47274 102.513 4.57757 101.044 5.83413C100.813 6.03059 100.566 6.2076 100.268 6.43907C99.838 4.00959 98.8149 1.95942 97.2705 0.164062C96.8542 0.504461 96.4769 0.872092 96.1209 1.25528C95.5879 1.61124 95.0452 1.99443 94.4734 2.32316C93.353 2.967 92.1275 3.26266 90.8321 3.25488C90.4703 3.25294 90.1357 3.15179 89.84 2.94366C89.5424 2.73359 89.4393 2.44765 89.5055 2.09364C89.6105 1.53149 90.0579 1.31169 90.5092 1.10162C90.6648 1.02965 90.834 0.9888 91.0207 0.92461C90.5656 0.609498 90.0774 0.527803 89.5736 0.48112C87.6537 0.306057 86.1287 0.965458 85.092 2.61104C84.4559 3.61862 84.5746 4.76431 85.3662 5.65518C85.8778 6.23288 86.5275 6.59468 87.2666 6.78919C88.5426 7.1257 89.8031 6.95258 91.0013 6.48964C91.6549 6.23677 92.252 5.92166 92.8005 5.55209C90.7134 8.42894 88.6905 11.3544 86.2785 13.9842C85.3779 14.9646 84.4851 15.9488 83.3686 16.6938C82.6314 17.1859 81.8397 17.5263 80.9255 17.4991C80.4061 17.4816 79.9841 17.2793 79.6728 16.8689C79.1554 16.1842 79.3344 15.2544 80.0794 14.6845C80.1552 14.6261 80.2253 14.562 80.3303 14.4705C80.1319 14.4316 79.9957 14.4005 79.8596 14.3791C78.8111 14.2099 77.7977 14.313 76.8543 14.8148C75.0259 15.7835 73.9911 17.822 74.2323 19.8877C74.4404 21.6734 75.3974 22.9007 77.0138 23.636C78.2587 24.202 79.5658 24.1982 80.8769 23.955C82.4271 23.6671 83.7031 22.856 84.808 21.7609C86.0179 20.5607 87.1071 19.2575 87.9883 17.8006C88.8694 16.3437 89.7331 14.8732 90.5384 13.3715C91.6782 11.2436 92.6216 9.01054 93.9346 6.97398C94.1602 6.62386 94.3975 6.27762 94.6387 5.91388C94.7146 5.98002 94.7554 6.01308 94.7924 6.0481C95.8116 6.96814 96.4302 8.12355 96.7608 9.44041C96.7842 9.52989 96.7394 9.66605 96.6772 9.74385C95.5179 11.1891 94.52 12.7394 93.6642 14.3811C92.7325 16.1686 92.0867 18.0379 91.9427 20.0608C91.8688 21.0957 91.9058 22.111 92.3629 23.0778C92.82 24.0445 93.6797 24.3868 94.629 23.8928C94.9947 23.7021 95.3351 23.422 95.6152 23.1167C96.0042 22.6887 96.3543 22.218 96.6694 21.7337C97.8793 19.8761 98.741 17.8609 99.2234 15.6999C99.6727 13.6944 100.048 11.6734 100.18 9.61742C100.206 9.22256 100.344 8.93662 100.667 8.6857C102.62 7.16849 104.779 6.0481 107.123 5.27004C107.216 5.23892 107.315 5.2253 107.471 5.18835C107.391 5.30505 107.348 5.37119 107.303 5.43149C106.901 5.98585 106.485 6.53243 106.097 7.09847C104.874 8.88799 103.82 10.7728 102.956 12.7588C102.083 14.7642 101.458 16.8436 101.217 19.026C101.083 20.2417 101.202 21.4263 101.616 22.5798C101.88 23.317 102.345 23.8364 103.131 24.0211C103.802 24.1787 104.464 24.1301 105.102 23.8636C106.103 23.4434 106.765 22.6382 107.387 21.8017C108.441 20.3837 109.07 18.7673 109.556 17.0887C109.673 16.6821 109.782 16.2717 109.906 15.8185C109.535 16.1998 109.221 16.5518 108.875 16.8708C108.332 17.3727 107.708 17.7014 106.946 17.75C106.315 17.7909 105.893 17.54 105.689 16.9428C105.526 16.4662 105.514 15.98 105.553 15.4839C105.658 14.1885 105.948 12.928 106.37 11.7084L106.364 11.7104ZM97.4027 15.4392C97.2996 16.0461 97.1927 16.651 96.9048 17.2034C96.7278 17.5438 96.508 17.8512 96.0995 17.9465C95.6793 18.0457 95.3934 17.8881 95.2572 17.4777C95.0725 16.9195 95.1619 16.3612 95.2864 15.8127C95.5938 14.4491 96.3076 13.2821 97.1032 12.1578C97.1946 12.0274 97.3035 11.9107 97.4066 11.7862C97.4942 13.0253 97.6089 14.2313 97.4027 15.4373V15.4392ZM226.233 29.7982C227.237 28.1409 228.069 26.3981 228.841 24.6261C228.948 24.379 229.094 24.1982 229.328 24.0659C231.133 23.0389 232.57 21.6247 233.708 19.9013C233.745 19.8469 233.766 19.7807 233.794 19.7204C233.926 20.2748 233.99 20.763 234.107 21.2377C234.453 22.6323 235.326 23.5504 236.711 23.9531C237.826 24.276 238.919 24.1048 239.964 23.6613C241.177 23.1458 242.222 22.3678 243.177 21.4711C244.544 20.1853 245.606 18.6701 246.515 17.042C246.612 16.8689 246.696 16.688 246.805 16.474C246.532 16.3884 246.299 16.3223 246.069 16.2406C245.846 16.1609 245.743 16.2406 245.616 16.4429C244.533 18.1877 243.165 19.5609 241.016 19.9189C239.861 20.1114 238.728 19.2925 238.666 18.1741C238.688 18.1643 238.711 18.1488 238.736 18.1449C238.917 18.1079 239.098 18.069 239.281 18.0379C240.539 17.8278 241.728 17.4369 242.747 16.6452C243.726 15.8866 244.451 14.9588 244.56 13.673C244.649 12.6207 244.303 11.8718 243.364 11.4186C243.144 11.3116 242.907 11.2299 242.667 11.1755C241.634 10.9421 240.627 11.0957 239.66 11.4692C237.221 12.4126 235.496 14.1224 234.412 16.474C234.064 17.2307 233.638 17.927 233.165 18.6078C232.28 19.8838 231.244 21.012 229.97 21.9126C229.899 21.9632 229.822 22.004 229.748 22.0507C229.734 22.0352 229.721 22.0215 229.709 22.006C230.909 18.5631 232.109 15.1202 233.309 11.6812C233.276 11.6637 233.263 11.6481 233.247 11.6481C232.004 11.6404 230.761 11.6287 229.518 11.6345C229.435 11.6345 229.32 11.7512 229.273 11.8407C229.164 12.0508 229.088 12.2803 228.989 12.5273C228.929 12.4612 228.9 12.4398 228.884 12.4106C228.421 11.6151 227.641 11.3019 226.809 11.1424C225.743 10.9382 224.71 11.1541 223.763 11.6598C222.02 12.5896 220.812 14.029 219.987 15.7971C219.536 16.7619 219.083 17.7208 218.431 18.5728C218.145 18.9482 217.822 19.2984 217.365 19.452C216.245 19.8255 215.513 19.3781 215.723 18.1274C215.836 17.4563 216.029 16.793 216.25 16.1472C217.719 11.8543 219.205 7.56725 220.685 3.27628C220.722 3.16541 220.744 3.05064 220.785 2.89892H220.479C219.429 2.89892 218.38 2.90087 217.33 2.89892C216.778 2.89892 216.789 2.89892 216.612 3.428C215.912 5.51707 215.204 7.60226 214.5 9.68744C214.173 10.6581 213.848 11.6287 213.508 12.6402C213.453 12.5662 213.407 12.5157 213.376 12.4573C213.088 11.9205 212.629 11.5878 212.086 11.3369C211.339 10.9926 210.551 11.0238 209.773 11.1093C208.77 11.2202 207.888 11.6637 207.081 12.257C205.838 13.1692 204.938 14.3577 204.305 15.7524C203.809 16.8475 203.214 17.8784 202.438 18.8004C202.133 19.1641 201.761 19.4423 201.283 19.5454C200.433 19.7282 199.9 19.3256 199.917 18.46C199.925 18.0437 199.979 17.6119 200.108 17.219C200.678 15.4664 201.283 13.7255 201.874 11.9788C201.909 11.8757 201.948 11.7726 201.991 11.6501C201.895 11.6404 201.835 11.6287 201.777 11.6287C200.559 11.6209 199.341 11.6151 198.126 11.6034C197.923 11.6015 197.834 11.689 197.772 11.8777C197.352 13.1615 196.912 14.4414 196.496 15.7271C195.937 17.4446 195.261 19.1291 195.177 20.9692C195.138 21.8251 195.358 22.5837 195.854 23.2664C196.109 23.6185 196.465 23.8344 196.889 23.957C197.805 24.2195 198.67 24.0698 199.499 23.6516C200.207 23.2937 200.796 22.7743 201.355 22.2219C202.098 21.4866 202.724 20.6561 203.325 19.7282C203.325 19.8547 203.321 19.9227 203.325 19.9889C203.376 20.7786 203.457 21.5625 203.786 22.2997C204.387 23.6516 205.939 24.3226 207.268 24.0134C208.221 23.7916 208.968 23.2742 209.637 22.6031C210.191 22.0468 210.66 21.4283 211.032 20.6677C211.051 20.7825 211.069 20.8389 211.069 20.8953C211.076 21.3407 211.032 21.794 211.096 22.2316C211.288 23.5037 212.244 24.1573 213.453 24.0912C214.358 24.0425 215.183 23.7138 215.916 23.1633C216.859 22.4553 217.696 21.6422 218.392 20.6891C218.585 20.4246 218.791 20.1698 219.015 19.88C219.032 19.9519 219.046 19.983 219.046 20.0142C219.022 20.9478 219.256 21.8231 219.676 22.6498C220.026 23.3403 220.557 23.8286 221.333 24.0114C222.613 24.311 223.7 23.9492 224.626 23.0525C225.356 22.3464 225.988 21.5567 226.538 20.7027C226.571 20.6502 226.62 20.6074 226.709 20.5043C226.69 20.6288 226.686 20.6813 226.673 20.73C226.404 21.6753 226.143 22.6226 225.859 23.564C225.817 23.7041 225.696 23.8539 225.568 23.9317C224.969 24.3012 224.34 24.6241 223.749 25.0054C222.043 26.1044 220.553 27.431 219.466 29.168C218.933 30.0219 218.62 30.938 218.655 31.9573C218.699 33.2722 219.839 34.2759 221.15 34.1475C222.016 34.0639 222.745 33.6748 223.416 33.1555C224.599 32.2413 225.476 31.0684 226.243 29.804L226.233 29.7982ZM238.742 14.7331C238.828 14.2935 238.995 13.8578 239.193 13.4532C239.425 12.9767 239.81 12.6402 240.368 12.5799C240.819 12.5312 241.183 12.8288 241.216 13.2821C241.323 14.7642 240.58 15.7835 239.388 16.5382C239.127 16.7035 238.824 16.8066 238.542 16.937L238.458 16.8844C238.549 16.1667 238.608 15.4431 238.744 14.7351L238.742 14.7331ZM211.644 17.9193C211.337 18.4269 210.967 18.8899 210.473 19.2264C210.261 19.3703 210.01 19.5006 209.762 19.5454C208.945 19.6893 208.491 19.3411 208.363 18.5203C208.262 17.8823 208.34 17.254 208.519 16.6452C208.838 15.5559 209.33 14.5503 210.123 13.7158C210.471 13.3482 210.851 13.0311 211.368 12.9125C211.923 12.786 212.382 13.0039 212.553 13.5485C212.66 13.887 212.701 14.2468 212.74 14.4452C212.699 15.8205 212.265 16.9 211.646 17.9193H211.644ZM225.978 19.2322C225.636 19.5357 225.208 19.7107 224.731 19.6135C224.204 19.5065 223.922 19.0883 223.827 18.3608C223.749 17.7656 223.827 17.184 223.986 16.616C224.334 15.3653 224.924 14.2488 225.908 13.3774C226.126 13.1848 226.4 13.0331 226.674 12.9261C227.25 12.7024 227.882 13.0331 228.059 13.6225C228.112 13.7975 228.147 13.9804 228.166 14.1632C228.184 14.346 228.17 14.5328 228.17 14.7156C228.164 16.5693 227.328 18.0321 225.976 19.2322H225.978ZM223.37 30.374C223.187 30.5451 222.94 30.5471 222.722 30.4537C222.5 30.3603 222.473 30.1386 222.459 29.9188C222.413 29.1913 222.636 28.5494 223.074 27.9795C223.66 27.2189 224.381 26.6062 225.198 26.1024C225.233 26.081 225.276 26.0694 225.391 26.0227C225.266 26.5031 225.2 26.933 225.044 27.324C224.727 28.1195 224.383 28.9093 224.002 29.6757C223.868 29.946 223.601 30.158 223.372 30.372L223.37 30.374ZM171.02 23.1867C169.666 22.2822 168.906 21.0159 168.865 19.3489C168.84 18.3452 168.933 17.3688 169.497 16.5149C170.569 14.8926 172.073 14.0912 174.049 14.2585C174.22 14.2721 174.391 14.2974 174.611 14.3227C174.494 14.4919 174.397 14.6145 174.323 14.7467C174.113 15.1222 173.887 15.5034 173.996 15.9605C174.148 16.6024 174.658 17.005 175.335 17.0828C176.365 17.2034 177.212 16.8475 177.894 16.1044C178.213 15.7582 178.515 15.3731 178.729 14.9568C179.876 12.7433 180.968 10.4986 182.135 8.29473C182.689 7.24824 183.321 6.23677 184 5.2681C184.739 4.21383 185.813 3.65558 187.105 3.5272C187.533 3.48441 187.945 3.53498 188.406 3.71004C188.281 3.81897 188.202 3.89483 188.114 3.96486C187.14 4.73902 186.461 5.74271 185.951 6.85533C185.44 7.97183 184.984 9.11557 184.508 10.2476C184.387 10.5336 184.42 10.5978 184.71 10.6406C186.28 10.872 187.725 10.5803 189.003 9.60186C190.03 8.81602 190.407 7.73258 190.382 6.49742C190.345 4.73902 189.507 3.47274 187.931 2.67329C187.093 2.24925 186.21 2.01583 185.286 1.89718C183.813 1.70461 182.362 1.83493 180.937 2.21423C180.085 2.43987 179.297 2.81723 178.707 3.5058C178.258 4.02905 178.079 4.63593 178.2 5.31867C178.309 5.94306 178.762 6.32625 179.408 6.37293C180.032 6.41767 180.583 6.19593 181.127 5.93722C181.228 5.88859 181.326 5.83608 181.487 5.75244C181.458 5.91777 181.456 6.02864 181.417 6.12396C180.748 7.71119 179.717 9.00276 178.124 9.71273C176.494 10.4383 174.86 10.3955 173.37 9.29647C172.584 8.71682 172.191 7.92321 172.158 6.92146C172.096 5.01523 173.041 3.68281 174.512 2.63827C175.77 1.74546 177.19 1.20276 178.682 0.839024C180.822 0.319673 183.002 0.134885 185.191 0.26521C187.34 0.393588 189.441 0.798176 191.308 1.97887C192.483 2.71997 193.442 3.65558 193.967 4.96466C194.953 7.42331 194.095 9.57852 192.139 11.0704C190.989 11.9457 189.674 12.3639 188.241 12.4476C187.838 12.4709 187.437 12.5137 187.015 12.5487C187.116 12.6382 187.252 12.7199 187.334 12.8386C187.62 13.2587 187.918 13.675 188.151 14.1224C188.517 14.8207 188.812 15.5579 189.18 16.2562C189.657 17.1607 190.318 17.3377 191.242 17.2093C191.971 17.1081 192.351 16.653 192.384 15.9216C192.388 15.8613 192.393 15.7991 192.405 15.6415C192.693 15.9158 192.963 16.1239 193.17 16.3807C193.903 17.2929 194.107 18.3589 193.953 19.487C193.786 20.73 193.265 21.8231 192.362 22.716C191.565 23.5057 190.59 23.8908 189.478 23.99C188.626 24.0659 187.801 23.9822 187.023 23.6341C185.663 23.0252 184.924 21.9243 184.605 20.5063C184.37 19.4598 184.56 18.4269 184.679 17.3882C184.776 16.5421 184.891 15.694 184.907 14.8459C184.914 14.3577 184.768 13.8578 184.638 13.3774C184.518 12.9358 184.2 12.6285 183.73 12.4301C183.648 12.6557 183.566 12.8638 183.498 13.0759C182.775 15.3458 181.962 17.5808 180.732 19.6388C180.221 20.4946 179.645 21.3018 178.949 22.0196C177.84 23.1653 176.496 23.8325 174.903 23.9822C173.529 24.1106 172.193 23.9608 171.022 23.1789L171.02 23.1867ZM198.519 7.37273C198.468 5.95667 199.705 4.88101 200.999 4.89463C202.611 4.91214 203.537 6.18815 203.535 7.3669C203.535 8.77323 202.411 9.88585 200.995 9.88779C199.623 9.88974 198.515 8.76545 198.519 7.37273Z" fill="#F6F0E3"/>
</svg>
