<?xml version="1.0" encoding="UTF-8"?>
<svg id="Layer_1" xmlns="http://www.w3.org/2000/svg" version="1.1" viewBox="0 0 321 102">
  <!-- Generator: Adobe Illustrator 29.5.0, SVG Export Plug-In . SVG Version: 2.1.0 Build 137)  -->
  <defs>
    <style>
      .st0 {
        fill: #4f2c1d;
      }
    </style>
  </defs>
  <path class="st0" d="M137.6,48c-13.4,0-24.4,12-24.4,26.7s10.9,26.7,24.4,26.7c13.4,0,24.4-12,24.4-26.7-.1-14.8-11-26.7-24.4-26.7ZM137.6,99.5c-12.4,0-22.6-11.2-22.6-24.9s10.1-24.9,22.6-24.9c12.4,0,22.6,11.2,22.6,24.9s-10.2,24.9-22.6,24.9ZM137.6,57.8c-8.5,0-15.4,7.5-15.4,16.8s6.9,16.8,15.4,16.8,15.4-7.5,15.4-16.8-6.9-16.8-15.4-16.8ZM137.6,89.6c-7.5,0-13.6-6.7-13.6-15s6.1-15,13.6-15,13.6,6.7,13.6,15c0,8.3-6.1,15-13.6,15ZM48.6,72h-28.1c-.2,0-.4.1-.6.3-.1.2-.1.4,0,.6l4.4,8.3c.1.2.3.4.6.4h11.1c-2.3,5.2-6.3,8.1-11.1,8.1-7.5,0-13.6-6.7-13.6-15s6.1-15,13.6-15c4.7,0,8.9,2.6,11.5,6.9.1.2.2.3.4.3h.1c.1,0,.3,0,.4-.1l7.9-5.6c.3-.2.4-.6.2-.9-4.5-7.7-12.2-12.3-20.5-12.3-13.4,0-24.4,12-24.4,26.7s10.9,26.7,24.4,26.7c13.4,0,24.4-12.3,24.4-28.7,0-.4-.3-.7-.7-.7h0ZM24.9,99.5c-12.4,0-22.6-11.2-22.6-24.9s10.1-24.9,22.6-24.9c7.4,0,14.2,3.9,18.4,10.5l-6.1,4.3c-2.9-4.2-7.5-6.7-12.4-6.7-8.5,0-15.4,7.5-15.4,16.8s6.9,16.8,15.4,16.8c5.6,0,10.2-3.2,12.8-9.1l1.1-2.5h-13.1l-3.2-6h25c-.4,14.7-10,25.7-22.5,25.7h0ZM264.5,49.2h-39.9c-.4,0-.7.3-.7.7v49.6c0,.2.1.3.2.5.1.1.3.2.5.2h39.9c.4,0,.7-.3.7-.7v-9.8c0-.4-.3-.7-.7-.7h-29.5v-7.4h13.2c.2,0,.5-.1.6-.4l4.4-8.3c.1-.2.1-.4,0-.6s-.3-.3-.6-.3h-17.6v-11.7h29.5c.4,0,.7-.3.7-.7v-9.8c-.1-.3-.4-.6-.7-.6h0ZM263.3,58.5h-30.1v15.3h17.5l-3.2,6h-14.3v11h30.1v7.5h-37.6v-47.3h37.6v7.5ZM104.7,65.7c0-9.2-9-16.8-20-16.8h-23.7c-.4,0-.7.3-.7.7v49.6c0,.4.3.7.7.7h9.8c.4,0,.7-.3.7-.7v-16.7h9.9l9.2,17.5c.1.2.3.4.6.4h11.2c.2,0,.4-.1.6-.3.1-.2.1-.4,0-.6l-9.7-18.5c6.9-2.9,11.4-8.8,11.4-15.3h0ZM92.6,79.2l-1.9.7.9,1.8,8.8,16.8h-8.6l-8.8-16.8-.5-1h-12.8v17.4h-7.5v-47.4h22.5c10,0,18.2,6.7,18.2,15,0,5.7-4.1,11-10.3,13.5h0ZM85.7,57.6h-16v16.2h16c5.2,0,9.5-3.6,9.5-8.1,0-4.4-4.3-8.1-9.5-8.1h0ZM85.7,72h-14.2v-12.6h14.2c4.2,0,7.7,2.8,7.7,6.3,0,3.5-3.5,6.3-7.7,6.3h0ZM309,80.9c7-2.8,11.5-8.7,11.5-15.2,0-9.2-9-16.8-20-16.8h-23.7c-.4,0-.7.3-.7.7v49.6c0,.4.3.7.7.7h9.8c.4,0,.7-.3.7-.7v-16.7h9.9l9.2,17.5c.1.2.3.4.6.4h11.2c.2,0,.4-.1.6-.3.1-.2.1-.4,0-.6l-9.8-18.6h0ZM307.7,98.5l-8.8-16.9-.5-1h-12.8v17.4h-7.6v-47.3h22.5c10,0,18.2,6.7,18.2,15,0,5.7-4.1,11-10.3,13.5l-1.9.7.9,1.8,8.8,16.8h-8.5ZM311,65.7c0-4.5-4.3-8.1-9.5-8.1h-16v16.2h16c5.2,0,9.5-3.6,9.5-8.1h0ZM301.5,72h-14.2v-12.6h14.2c4.2,0,7.7,2.8,7.7,6.3s-3.5,6.3-7.7,6.3h0ZM194.8,59.6c4.7,0,8.9,2.6,11.5,6.9.1.2.2.3.4.3h.1c.1,0,.3,0,.4-.1l7.9-5.6c.3-.2.4-.6.2-.9-4.5-7.7-12.2-12.3-20.5-12.3-13.4,0-24.4,12-24.4,26.7s10.9,26.7,24.4,26.7c8.4,0,16-4.6,20.5-12.3.2-.3.1-.7-.2-.9l-7.9-5.6c-.1-.1-.2-.1-.4-.1h-.1c-.2,0-.3.2-.4.3-2.5,4.3-6.8,6.9-11.5,6.9-7.5,0-13.6-6.7-13.6-15s6.1-15,13.6-15h0ZM179.3,74.6c0,9.3,6.9,16.8,15.4,16.8,4.9,0,9.4-2.5,12.4-6.7l6.1,4.3c-4.2,6.6-11.1,10.5-18.4,10.5-12.4,0-22.6-11.2-22.6-24.9s10.1-24.9,22.6-24.9c7.4,0,14.2,3.9,18.4,10.5l-6.1,4.3c-2.9-4.2-7.5-6.7-12.4-6.7-8.4,0-15.4,7.6-15.4,16.8h0ZM113.7,24.1c.8,0,1.5-.3,2.2-.8.9-.6,1.5-1.4,2.1-2.3,0-.1.1-.1.2-.2v.2c-.1.7.1,1.4.4,2,.2.5.6.9,1.1,1,.9.3,1.8.1,2.6-.3.9-.4,1.6-1.1,2.2-1.9.2-.3.5-.6.7-.9-1.2,3.7-2.5,7.3-3.7,11,.1,0,.1.1.2.1h3.8c.1,0,.2-.1.2-.2.1-.3.2-.5.3-.8.8-2.3,1.6-4.7,2.4-7,.3-.7.5-1.5.8-2.2.1.2.1.3.2.4.4,1,1.2,1.6,2.2,1.9,1.5.4,2.9,0,4.3-.7.9-.5,1.6-1.2,2.3-2,.3-.4.6-.8,1-1.1-.1.7-.1,1.3.1,2,.3,1.4,1.5,2,2.6,2,.7-.1,1.3-.3,1.9-.6,1.2-.7,2.2-1.7,3-2.8.2-.3.4-.5.6-.8.1.4.1.7.2,1.1.3,1.4,1,2.4,2.4,3,1.2.5,2.4.3,3.6-.2,1.1-.4,2-1.1,2.9-1.9,1.6-1.4,2.8-3.2,3.8-5.1,0-.1.1-.1.1-.2-.1,0-.2-.1-.3-.1-.2-.1-.3-.1-.5-.1-.1,0-.2.1-.3.1-.6,1.2-1.6,2.1-2.7,2.8-.8.5-1.6.8-2.5.7-1,0-1.7-.8-1.8-1.8.3-.1.6-.1.9-.2,1.2-.2,2.3-.6,3.2-1.4.9-.7,1.6-1.6,1.8-2.7.2-1-.2-1.9-1-2.4-.3-.1-.6-.3-.9-.3-1.1-.3-2.1-.1-3.2.3-2.5,1-4.2,2.8-5.3,5.3-.3.8-.8,1.5-1.4,2.1-.4.4-.9.6-1.4.6-.6,0-.9-.3-.9-.9,0-.4,0-.7.1-1.1.1-.6.3-1.2.5-1.8,1.5-4.3,3-8.6,4.4-13,0-.1.1-.3.1-.4h-4c-.1,0-.1.1-.2.2-1.2,3.6-2.4,7.2-3.7,10.7-.4,1.1-.7,2.2-1.1,3.2-.5,1.1-1.2,2-2.1,2.7-.1.1-.2.1-.3.2v-.2c.5-.9.7-1.9.8-2.9.1-1.1.1-2.2-.4-3.2-.4-1-1.6-2.1-3.2-1.9-1.2.2-2.1.7-2.9,1.5-.1.1-.2.2-.3.3h-.1c.1-.4.2-.8.3-1.3h-3.4c-.1,0-.2.1-.2.2-.4,1.2-.8,2.4-1.2,3.7-.3,1-.8,1.9-1.4,2.7-.4.5-.8,1-1.4,1.3-1,.4-1.5.1-1.7-.9v-.5c.2-.6.3-1.2.5-1.8.5-1.4,1-2.8,1.5-4.3,0-.1.1-.2.1-.3h-3.7c-.2,0-.2.1-.3.2-.1.3-.2.7-.3,1-.1-.1-.1-.2-.2-.3-.3-.5-.6-.8-1.1-1.1-.8-.4-1.6-.4-2.5-.3-1.3.2-2.3.9-3.2,1.8-1.7,1.7-2.7,3.7-3.1,6.1-.2,1.1-.1,2.2.3,3.3.6.9,1.9,1.5,3,1.5h0ZM152.1,15.6c.1-.7.2-1.3.5-1.9.2-.4.4-.7.8-.9.3-.2.6-.2.9-.1.3.2.4.5.4.8.1,1.5-1.1,2.8-2.2,3.3-.2.1-.3.1-.5.2,0-.5.1-1,.1-1.4h0ZM130.8,17.1c.5-1.3,1.1-2.5,2.1-3.5.4-.4.9-.7,1.5-.7.4,0,.6.1.7.6.2.7.2,1.5.1,2.2-.3,1.1-.6,2.1-1.3,3-.2.2-.5.5-.7.6-.6.3-1.2.1-1.3-.4-.1-.3,0-.7.1-1,0-.2.2-.4.3-.6-.5-.2-1-.2-1.5.2-.1-.2-.1-.3,0-.4h0ZM115.3,17.6c.2-1.7.9-3.2,2.2-4.3.3-.2.7-.3,1-.4.3-.1.7.2.9.5.2.4.2.8.3,1.1-.2,1.9-.8,3.4-2.1,4.6-.4.3-.8.5-1.3.5-.4,0-.7-.2-.8-.6-.3-.5-.3-.9-.2-1.4h0ZM106.4,11.7c.4-1.2.9-2.4,1.5-3.6.6-1.4,1.5-2.7,2.4-4,.8-1.1,1.8-2,2.9-2.8.2-.2.3-.3,0-.4-.2-.2-.5-.3-.7-.4-.7-.2-1.5-.1-2.2.1-1.6.3-3.1,1-4.5,1.9-1.7,1-3.2,2.1-4.7,3.3-.2.2-.5.4-.8.6-.4-2.4-1.5-4.5-3-6.3-.4.3-.8.7-1.1,1.1-.6.4-1.2.8-1.7,1.1-1.1.6-2.3.9-3.6.9-.4,0-.7-.1-1-.3s-.4-.5-.3-.9c.1-.6.6-.8,1-1,.1,0,.2,0,.4-.1-.5-.3-.9-.4-1.4-.4-1.9-.2-3.4.5-4.5,2.1-.6,1-.5,2.2.3,3,.5.6,1.2.9,1.9,1.1,1.2.4,2.5.3,3.7-.2.7-.3,1.3-.6,1.8-.9-2.1,2.9-4.1,5.8-6.5,8.4-.9,1-1.8,2-2.9,2.7-.7.5-1.5.8-2.4.8-.5,0-.9-.2-1.3-.6-.5-.7-.3-1.6.4-2.2q.1-.1.3-.2c-.2,0-.3-.1-.5-.1-1-.2-2.1-.1-3,.4-1.8,1-2.9,3-2.6,5.1.2,1.8,1.2,3,2.8,3.7,1.2.6,2.6.6,3.9.3,1.6-.3,2.8-1.1,3.9-2.2,1.2-1.2,2.3-2.5,3.2-4,.9-1.5,1.7-2.9,2.6-4.4,1.1-2.1,2.1-4.4,3.4-6.4.2-.4.5-.7.7-1.1-.1.2,0,.2,0,.2,1,.9,1.6,2.1,2,3.4,0,.1,0,.2-.1.3-1.2,1.4-2.2,3-3,4.6-.9,1.8-1.6,3.7-1.7,5.7-.1,1,0,2.1.4,3,.5,1,1.3,1.3,2.3.8.4-.2.7-.5,1-.8.4-.4.7-.9,1.1-1.4,1.2-1.9,2.1-3.9,2.6-6,.4-2,.8-4,1-6.1,0-.4.2-.7.5-.9,2-1.5,4.1-2.6,6.5-3.4.1,0,.2,0,.3-.1-.1.1-.1.2-.2.2-.4.6-.8,1.1-1.2,1.7-1.2,1.8-2.3,3.7-3.1,5.7-.9,2-1.5,4.1-1.7,6.3-.1,1.2,0,2.4.4,3.6.3.7.7,1.3,1.5,1.4.7.2,1.3.1,2-.2,1-.4,1.7-1.2,2.3-2.1,1.1-1.4,1.7-3,2.2-4.7.1-.4.2-.8.3-1.3-.4.4-.7.7-1,1.1-.5.5-1.2.8-1.9.9-.6,0-1.1-.2-1.3-.8-.2-.5-.2-1-.1-1.5-.2-1.2,0-2.5.5-3.7h0ZM97.4,15.4c-.1.6-.2,1.2-.5,1.8-.2.3-.4.6-.8.7s-.7-.1-.8-.5c-.2-.6-.1-1.1,0-1.7.3-1.4,1-2.5,1.8-3.7.1-.1.2-.2.3-.4.1,1.4.2,2.6,0,3.8h0ZM226.2,29.8c1-1.7,1.8-3.4,2.6-5.2.1-.2.3-.4.5-.6,1.8-1,3.2-2.4,4.4-4.2,0-.1.1-.1.1-.2.1.6.2,1,.3,1.5.3,1.4,1.2,2.3,2.6,2.7,1.1.3,2.2.2,3.3-.3,1.2-.5,2.3-1.3,3.2-2.2,1.4-1.3,2.4-2.8,3.3-4.4.1-.2.2-.4.3-.6-.3-.1-.5-.2-.7-.2-.2-.1-.3,0-.5.2-1.1,1.7-2.5,3.1-4.6,3.5-1.2.2-2.3-.6-2.4-1.7h.1c.2,0,.4-.1.5-.1,1.3-.2,2.4-.6,3.5-1.4,1-.8,1.7-1.7,1.8-3,.1-1.1-.3-1.8-1.2-2.3-.2-.1-.5-.2-.7-.2-1-.2-2-.1-3,.3-2.4.9-4.2,2.7-5.2,5-.3.8-.8,1.5-1.2,2.1-.9,1.3-1.9,2.4-3.2,3.3q-.1.1-.2.1h0c1.2-3.4,2.4-6.9,3.6-10.3h-3.8c-.1,0-.2.1-.2.2-.1.2-.2.4-.3.7l-.1-.1c-.5-.8-1.2-1.1-2.1-1.3-1.1-.2-2.1,0-3,.5-1.7.9-3,2.4-3.8,4.1-.5,1-.9,1.9-1.6,2.8-.3.4-.6.7-1.1.9-1.1.4-1.9-.1-1.6-1.3.1-.7.3-1.3.5-2,1.5-4.3,3-8.6,4.4-12.9,0-.1.1-.2.1-.4h-3.4c-.6,0-.5,0-.7.5-.7,2.1-1.4,4.2-2.1,6.3-.3,1-.7,1.9-1,3q-.1-.1-.1-.2c-.3-.5-.7-.9-1.3-1.1-.7-.3-1.5-.3-2.3-.2-1,.1-1.9.6-2.7,1.1-1.2.9-2.1,2.1-2.8,3.5-.5,1.1-1.1,2.1-1.9,3-.3.4-.7.6-1.2.7-.9.2-1.4-.2-1.4-1.1,0-.4.1-.8.2-1.2.6-1.8,1.2-3.5,1.8-5.2,0-.1.1-.2.1-.3h-3.9c-.2,0-.3.1-.4.3-.4,1.3-.9,2.6-1.3,3.8-.6,1.7-1.2,3.4-1.3,5.2,0,.9.2,1.6.7,2.3.3.4.6.6,1,.7.9.3,1.8.1,2.6-.3.7-.4,1.3-.9,1.9-1.4.7-.7,1.4-1.6,2-2.5v.3c.1.8.1,1.6.5,2.3.6,1.4,2.2,2,3.5,1.7,1-.2,1.7-.7,2.4-1.4.6-.6,1-1.2,1.4-1.9v1.5c.2,1.3,1.1,1.9,2.4,1.9.9,0,1.7-.4,2.5-.9.9-.7,1.8-1.5,2.5-2.5.2-.3.4-.5.6-.8v.1c0,.9.2,1.8.6,2.6.4.7.9,1.2,1.7,1.4,1.3.3,2.4-.1,3.3-1,.7-.7,1.4-1.5,1.9-2.3,0-.1.1-.1.2-.2v.2c-.3.9-.5,1.9-.8,2.8,0,.1-.2.3-.3.4-.6.4-1.2.7-1.8,1.1-1.7,1.1-3.2,2.4-4.3,4.2-.5.9-.8,1.8-.8,2.8,0,1.3,1.2,2.3,2.5,2.2.9-.1,1.6-.5,2.3-1,1-1,1.9-2.1,2.6-3.4h0ZM238.7,14.7c.1-.4.3-.9.5-1.3.2-.5.6-.8,1.2-.9.5,0,.8.2.8.7.1,1.5-.6,2.5-1.8,3.3-.3.2-.6.3-.8.4l-.1-.1c0-.6.1-1.4.2-2.1h0ZM211.6,17.9c-.3.5-.7,1-1.2,1.3-.2.1-.5.3-.7.3-.8.1-1.3-.2-1.4-1-.1-.6,0-1.3.2-1.9.3-1.1.8-2.1,1.6-2.9.3-.4.7-.7,1.2-.8.6-.1,1,.1,1.2.6.1.3.1.7.2.9,0,1.4-.4,2.5-1.1,3.5h0ZM226,19.2c-.3.3-.8.5-1.2.4-.5-.1-.8-.5-.9-1.3-.1-.6,0-1.2.2-1.7.3-1.3.9-2.4,1.9-3.2.2-.2.5-.3.8-.5.6-.2,1.2.1,1.4.7.1.2.1.4.1.5v.6c-.1,1.9-1,3.3-2.3,4.5h0ZM223.4,30.4c-.2.2-.4.2-.6.1-.2-.1-.2-.3-.3-.5,0-.7.2-1.4.6-1.9.6-.8,1.3-1.4,2.1-1.9,0,0,.1,0,.2-.1-.1.5-.2.9-.3,1.3-.3.8-.7,1.6-1,2.4-.2.1-.5.4-.7.6h0ZM171,23.2c-1.4-.9-2.1-2.2-2.2-3.8,0-1,.1-2,.6-2.8,1.1-1.6,2.6-2.4,4.6-2.3.2,0,.3,0,.6.1-.1.2-.2.3-.3.4-.2.4-.4.8-.3,1.2.2.6.7,1,1.3,1.1,1,.1,1.9-.2,2.6-1,.3-.3.6-.7.8-1.1,1.1-2.2,2.2-4.5,3.4-6.7.6-1,1.2-2.1,1.9-3,.7-1.1,1.8-1.6,3.1-1.7.4,0,.8,0,1.3.2-.1.1-.2.2-.3.3-1,.8-1.7,1.8-2.2,2.9s-1,2.3-1.4,3.4c-.1.3-.1.4.2.4,1.6.2,3-.1,4.3-1,1-.8,1.4-1.9,1.4-3.1,0-1.8-.9-3-2.5-3.8-.8-.4-1.7-.7-2.6-.8-1.5-.2-2.9-.1-4.3.3-.9.2-1.6.6-2.2,1.3-.4.5-.6,1.1-.5,1.8.1.6.6,1,1.2,1.1.6,0,1.2-.2,1.7-.4.1,0,.2-.1.4-.2,0,.2,0,.3-.1.4-.7,1.6-1.7,2.9-3.3,3.6s-3.3.7-4.8-.4c-.8-.6-1.2-1.4-1.2-2.4-.1-1.9.9-3.2,2.4-4.3,1.3-.9,2.7-1.4,4.2-1.8,2.1-.5,4.3-.7,6.5-.6,2.1.1,4.2.5,6.1,1.7,1.2.7,2.1,1.7,2.7,3,1,2.5.1,4.6-1.8,6.1-1.2.9-2.5,1.3-3.9,1.4-.4,0-.8.1-1.2.1.1.1.2.2.3.3.3.4.6.8.8,1.3.4.7.7,1.4,1,2.1.5.9,1.1,1.1,2.1,1,.7-.1,1.1-.6,1.1-1.3v-.3c.3.3.6.5.8.7.7.9.9,2,.8,3.1-.2,1.2-.7,2.3-1.6,3.2-.8.8-1.8,1.2-2.9,1.3-.9.1-1.7,0-2.5-.4-1.4-.6-2.1-1.7-2.4-3.1-.2-1,0-2.1.1-3.1.1-.8.2-1.7.2-2.5,0-.5-.1-1-.3-1.5-.1-.4-.4-.7-.9-.9-.1.2-.2.4-.2.6-.7,2.3-1.5,4.5-2.8,6.6-.5.9-1.1,1.7-1.8,2.4-1.1,1.1-2.5,1.8-4,2-1.5-.2-2.8-.3-4-1.1h0ZM198.5,7.4c-.1-1.4,1.2-2.5,2.5-2.5,1.6,0,2.5,1.3,2.5,2.5,0,1.4-1.1,2.5-2.5,2.5s-2.5-1.1-2.5-2.5Z"/>
</svg>