<?xml version="1.0" encoding="UTF-8"?>
<svg width="180px" height="31px" viewBox="0 0 180 31" version="1.1" xmlns="http://www.w3.org/2000/svg" xmlns:xlink="http://www.w3.org/1999/xlink">
    <!-- Generator: Sketch 48.1 (47250) - http://www.bohemiancoding.com/sketch -->
    <title>Fill 1</title>
    <desc>Created with Sketch.</desc>
    <defs></defs>
    <g id="Nav/Mobile" stroke="none" stroke-width="1" fill="none" fill-rule="evenodd" transform="translate(-527.000000, -492.000000)">
        <g id="Stacked-Group" transform="translate(257.000000, 60.000000)" fill="#FFFFFF">
            <g id="Row-3-Copy" transform="translate(0.000000, 358.000000)">
                <g id="2" transform="translate(240.000000, 0.000000)">
                    <path d="M207.671522,100.209323 L207.590864,100.209323 L207.590864,99.2146644 C207.681298,99.1886921 207.757475,99.1757059 207.818579,99.1757059 C207.981931,99.1757059 208.116768,99.2256215 208.223089,99.3254526 C208.329818,99.4248779 208.383182,99.5506814 208.383182,99.7024572 C208.383182,99.8627551 208.320856,99.9877469 208.195389,100.076215 C208.070329,100.165089 207.895571,100.209323 207.671522,100.209323 Z M208.792988,101.116326 L208.211276,100.288052 C208.627192,100.186192 208.834946,99.9820655 208.834946,99.6756732 C208.834946,99.4894029 208.75877,99.3384388 208.606824,99.2235924 C208.454063,99.1095577 208.252827,99.0519316 208.001892,99.0519316 L206.928902,99.0519316 L206.928902,99.1505452 C207.024224,99.1505452 207.090624,99.1696187 207.129324,99.2085772 C207.167616,99.2475356 207.186762,99.3165246 207.186762,99.4163558 L207.186762,101.104557 C207.186762,101.193431 207.164357,101.257144 207.119954,101.295697 C207.075145,101.33425 206.999783,101.353729 206.893869,101.353729 L206.893869,101.452343 L207.915531,101.452343 L207.915531,101.353729 C207.789657,101.353729 207.704111,101.337496 207.658894,101.305437 C207.613269,101.272971 207.590864,101.21007 207.590864,101.115514 L207.590864,100.329851 L207.797397,100.329851 L208.618637,101.452343 L209.131098,101.452343 L209.131098,101.353729 C209.060217,101.348453 209.001964,101.329786 208.955933,101.297726 C208.910308,101.265667 208.855722,101.2052 208.792988,101.116326 Z M209.301375,101.53026 C208.950637,101.879669 208.524944,102.054576 208.025112,102.054576 C207.525686,102.054576 207.099994,101.879669 206.748848,101.53026 C206.397702,101.181256 206.22213,100.757583 206.22213,100.260051 C206.22213,99.7625182 206.39811,99.3392504 206.75007,98.9898415 C207.102438,98.6404325 207.527316,98.4655251 208.025112,98.4655251 C208.523315,98.4655251 208.948193,98.6404325 209.300153,98.9898415 C209.652113,99.3392504 209.828093,99.7625182 209.828093,100.260051 C209.828093,100.757583 209.652521,101.181256 209.301375,101.53026 Z M209.735215,99.2763487 C209.558828,98.9732029 209.318484,98.7337706 209.014185,98.5580516 C208.709479,98.3823325 208.379923,98.2942701 208.025112,98.2942701 C207.6703,98.2942701 207.340744,98.3823325 207.036038,98.5580516 C206.731739,98.7337706 206.491396,98.9732029 206.315008,99.2763487 C206.138621,99.5799002 206.050631,99.907395 206.050631,100.258833 C206.050631,100.609865 206.138621,100.938172 206.315008,101.242129 C206.491396,101.546492 206.732146,101.786736 207.037667,101.96205 C207.343188,102.137769 207.672337,102.225831 208.025112,102.225831 C208.377887,102.225831 208.707035,102.137769 209.012556,101.96205 C209.318077,101.786736 209.558828,101.546492 209.735215,101.242129 C209.911603,100.938172 210,100.609865 210,100.258833 C210,99.907395 209.911603,99.5799002 209.735215,99.2763487 Z M102.041877,101.776185 C102.041877,102.030633 101.919668,102.234759 101.674029,102.389781 C101.526972,102.481902 101.323291,102.527759 101.06258,102.527759 C100.780278,102.527759 100.582708,102.487989 100.471091,102.408043 C100.423022,102.374766 100.382286,102.323633 100.350105,102.255861 C100.31833,102.189307 100.302036,102.12113 100.302036,102.053764 C100.302036,102.04646 100.302851,102.026169 100.305702,101.992486 L100.346846,101.094411 C100.351734,100.978753 100.358252,100.917069 100.367621,100.907735 C100.390433,100.891909 100.491866,100.883792 100.669883,100.883792 C101.116759,100.883792 101.460165,100.962927 101.698064,101.121601 C101.927408,101.274189 102.041877,101.492113 102.041877,101.776185 Z M130.114785,99.956499 C130.395457,100.299821 130.535997,100.705638 130.535997,101.173952 C130.535997,101.534724 130.412974,101.832188 130.166113,102.066345 C129.859777,102.357316 129.460156,102.502193 128.966841,102.502193 C128.450306,102.502193 128.040908,102.33946 127.737016,102.013588 C127.394425,101.647135 127.223334,101.211287 127.223334,100.704015 C127.223334,100.288458 127.376094,99.9613688 127.682023,99.7219364 C127.820933,99.6123657 127.989173,99.5259265 128.184299,99.462619 C128.379426,99.4001231 128.574959,99.3672518 128.771715,99.3672518 C129.347724,99.3672518 129.795007,99.5640734 130.114785,99.956499 Z M100.330959,100.422378 L100.289408,99.6943408 L100.289408,99.6712092 C100.289408,99.4776342 100.446242,99.3806438 100.759503,99.3806438 C101.059321,99.3806438 101.295183,99.4455746 101.468719,99.5766537 C101.620665,99.6935292 101.696434,99.8359711 101.696434,100.003168 C101.696434,100.125725 101.656513,100.237731 101.575855,100.338779 C101.487865,100.448756 101.367286,100.525049 101.212896,100.569284 C101.101686,100.600531 100.926521,100.616358 100.686992,100.616358 C100.500421,100.616358 100.389619,100.604184 100.354993,100.579429 C100.346031,100.574559 100.338291,100.522209 100.330959,100.422378 Z M170.161677,84.2067182 L173.41731,84.2067182 L173.41731,84.8349239 L173.373315,84.9217688 L173.28614,84.9217688 C172.647804,84.9217688 172.46327,85.2569742 172.46327,86.416395 L172.46327,91.6632107 C172.46327,92.8080221 172.647804,93.1391693 173.28614,93.1391693 L173.41731,93.1391693 L173.41731,93.8534082 L170.161677,93.8534082 L170.161677,93.22642 L170.205672,93.1391693 L170.292848,93.1391693 C170.930776,93.1391693 171.115718,92.8080221 171.115718,91.6632107 L171.115718,86.416395 C171.115718,85.2569742 170.930776,84.9217688 170.292848,84.9217688 L170.161677,84.9217688 L170.161677,84.2067182 Z M85.4353789,90.8531988 C85.4353789,92.7219888 84.017761,94.0270981 81.9878787,94.0270981 C81.3263237,94.0270981 80.7446115,93.8497559 80.2317434,93.6939219 C79.8325292,93.5725824 79.4883087,93.4674757 79.1848244,93.4674757 C78.8076077,93.4674757 78.4919026,93.5640603 78.1615324,93.7811727 L78.0262884,93.8700467 L78.0262884,91.2289858 L78.5851883,91.2289858 L78.6063711,91.2862061 C79.0483583,92.4870204 80.3955027,93.2937858 81.9581413,93.2937858 C83.4230132,93.2937858 84.1892601,92.269908 84.1892601,91.2582047 C84.1892601,90.0683475 83.3423556,89.7217793 81.5630007,89.4344605 C79.2121176,89.0627315 77.9382983,88.514472 77.9382983,86.6862637 C77.9382983,85.0999228 79.1233128,84.0342458 80.8867807,84.0342458 C81.5369296,84.0342458 82.0860528,84.1799343 82.5704056,84.3085785 C82.9512886,84.4092212 83.2804367,84.4968778 83.5867725,84.4968778 C83.9472874,84.4968778 84.3102465,84.3869013 84.7632325,84.14057 L84.892366,84.0703635 L84.892366,86.5998246 L84.3395765,86.5998246 L84.3155422,86.5507207 C83.7904533,85.4671877 82.5484081,84.7671523 81.1515656,84.7671523 C79.8129758,84.7671523 79.2137471,85.5471337 79.2137471,86.3202163 C79.2137471,87.38427 79.8797831,87.4914058 81.3393593,87.7259684 L81.8844089,87.8156541 C84.3403912,88.2243124 85.4353789,89.1613452 85.4353789,90.8531988 Z M91.8338056,80.0596683 L101.384803,80.0596683 L101.384803,83.2623807 L100.775797,83.2623807 L100.758281,83.1982615 C100.290222,81.4812473 99.5696,80.8120541 98.1866078,80.8120541 L94.2686051,80.8120541 L94.2686051,85.9817644 L96.0593661,85.9817644 C97.5164981,85.9817644 98.1442422,85.5114218 98.1584998,84.4088154 L98.1597219,84.3231879 L98.7728009,84.3231879 L98.7728009,88.3939442 L98.1597219,88.3939442 L98.1584998,88.3079108 C98.1442422,87.2053044 97.5164981,86.7349618 96.0593661,86.7349618 L94.2686051,86.7349618 L94.2686051,93.1002108 L98.1866078,93.1002108 C99.5675632,93.1002108 100.288186,92.3997696 100.758281,90.5995628 L100.774983,90.5346319 L101.384803,90.5346319 L101.384803,93.8534082 L91.8338056,93.8534082 L91.8338056,93.1002108 L91.9804557,93.1002108 C92.5919053,93.1002108 92.7874388,92.5734595 92.7874388,90.9311157 L92.7874388,82.9819608 C92.7874388,81.3392111 92.5984231,80.8120541 92.008971,80.8120541 L91.8338056,80.8120541 L91.8338056,80.0596683 Z M185.831651,85.4720575 C185.831651,86.683423 185.001448,87.7568105 184.018078,87.8156541 L183.925607,87.8213355 L183.925607,87.1403736 L183.991192,87.1237351 C184.315859,87.0417599 184.515874,86.8855202 184.678818,86.6432471 C184.029891,86.5417927 183.662044,86.0746966 183.662044,85.2788883 C183.662044,84.4327586 184.101587,83.8414824 184.731775,83.8414824 C185.348113,83.8414824 185.831651,84.5577505 185.831651,85.4720575 Z M192.126608,94.0270981 C191.465053,94.0270981 190.883748,93.8497559 190.37088,93.6939219 C189.97248,93.5725824 189.627853,93.4674757 189.324368,93.4674757 C188.946337,93.4674757 188.631039,93.5640603 188.301076,93.7811727 L188.165832,93.8700467 L188.165832,91.2289858 L188.72514,91.2289858 L188.745915,91.2862061 C189.18831,92.4870204 190.535047,93.2937858 192.097278,93.2937858 C193.561742,93.2937858 194.328397,92.269908 194.328397,91.2582047 C194.328397,90.0683475 193.481492,89.7217793 191.702137,89.4344605 C189.351662,89.0627315 188.077842,88.5148778 188.077842,86.6862637 C188.077842,85.0999228 189.262857,84.0342458 191.026732,84.0342458 C191.676066,84.0342458 192.224782,84.1795285 192.709135,84.3081726 C193.090425,84.4092212 193.419573,84.4968778 193.726724,84.4968778 C194.087239,84.4968778 194.450198,84.3873071 194.901962,84.1409758 L195.031095,84.0703635 L195.031095,86.5998246 L194.478306,86.5998246 L194.454271,86.5507207 C193.930405,85.4671877 192.688359,84.7671523 191.290295,84.7671523 C189.951705,84.7671523 189.352476,85.5471337 189.352476,86.3202163 C189.352476,87.38427 190.01892,87.4914058 191.477681,87.7259684 L192.023545,87.8156541 C194.47912,88.2243124 195.574108,89.1613452 195.574108,90.8531988 C195.574108,92.7219888 194.15649,94.0270981 192.126608,94.0270981 Z M69.1926548,84.2067182 L76.220455,84.2067182 L76.220455,86.618898 L75.6582961,86.618898 L75.6387428,86.5580254 C75.2664144,85.3803427 74.6973304,84.9217688 73.6092679,84.9217688 L71.2901591,84.9217688 L71.2901591,88.2774745 L71.935827,88.2774745 C73.0768465,88.2774745 73.553052,87.9666182 73.5803453,87.204087 L73.5831968,87.1204886 L74.1657237,87.1204886 L74.1657237,90.1300318 L73.5815673,90.1300318 L73.5803453,90.0448101 C73.5669023,89.3033814 73.0597373,88.9730459 71.935827,88.9730459 L71.2901591,88.9730459 L71.2901591,93.1391693 L73.6092679,93.1391693 C74.6969231,93.1391693 75.266007,92.659087 75.6387428,91.4262132 L75.6570741,91.3645289 L76.220455,91.3645289 L76.220455,93.8534082 L69.1926548,93.8534082 L69.1926548,93.22642 L69.2219848,93.1391693 L69.3095676,93.1391693 C69.793513,93.1391693 69.9409778,92.7946301 69.9409778,91.6632107 L69.9409778,86.3973216 C69.9409778,85.2667138 69.803697,84.9217688 69.3535626,84.9217688 L69.1926548,84.9217688 L69.1926548,84.2067182 Z M52.1103587,89.5314509 C52.1983488,89.3196141 53.2965954,86.6684078 53.4253216,86.3583631 C53.5727864,86.6602914 54.8722695,89.3110919 54.9802203,89.5314509 L52.1103587,89.5314509 Z M63.4350077,90.1819765 C63.279803,89.9015565 60.1308988,84.2067182 60.1308988,84.2067182 L58.2317796,84.2067182 L58.2317796,84.9189281 L58.3156961,84.9217688 C58.8228611,84.9400306 59.095386,85.1198078 59.3573194,85.6084122 L59.3471353,91.2391313 C59.3471353,92.3360562 59.124716,92.8960845 58.6102184,93.0722093 C58.2916618,92.9192161 57.9918437,92.5807642 57.7673875,92.1083926 C57.7669802,92.1079868 53.807834,83.9080365 53.807834,83.9080365 L50.7839898,91.1867808 C50.2263119,92.534501 49.8690559,93.1034573 49.1003648,93.1391693 L49.0168557,93.1432274 L49.0168557,93.8534082 L51.9795957,93.8534082 L51.9795957,93.1448507 L51.8981234,93.1391693 C51.3958467,93.1054864 51.0838078,92.8287188 51.0838078,92.4164081 C51.0838078,92.1424812 51.1787231,91.7946956 51.4007351,91.2529291 C51.4007351,91.2521175 51.718477,90.4599615 51.8040229,90.2460956 L55.3293291,90.2460956 C55.3741389,90.3382162 56.0251025,91.6814725 56.0251025,91.6814725 C56.1970091,92.0215476 56.2801108,92.2991268 56.2801108,92.5316603 C56.2801108,92.8952729 56.0735785,93.1391693 55.7656133,93.1391693 L55.6055202,93.1391693 L55.6055202,93.8534082 L61.1207872,93.8534082 L61.1207872,93.1407925 L61.0352413,93.1391693 C60.2624766,93.1209075 59.9325138,92.5527628 59.9325138,91.2391313 L59.9325138,86.6615089 C60.2274435,87.2000288 63.018277,92.2958803 63.018277,92.2958803 C63.018277,92.2958803 65.8571791,86.5787221 66.1553677,85.978112 L66.1553677,91.6632107 C66.1553677,92.7804265 65.9981261,93.1391693 65.508885,93.1391693 L65.4213023,93.1391693 L65.392787,93.22642 L65.392787,93.8534082 L68.2520572,93.8534082 L68.2520572,93.1391693 L68.1359592,93.1391693 C67.6463107,93.1391693 67.4890691,92.7804265 67.4890691,91.6632107 L67.4890691,86.3973216 C67.4890691,85.2801058 67.6463107,84.9217688 68.1359592,84.9217688 L68.2231345,84.9217688 L68.2520572,84.8349239 L68.2520572,84.2067182 L66.3496791,84.2067182 C66.3496791,84.2067182 63.5751401,89.8942518 63.4350077,90.1819765 Z M142.486761,80.0596683 L146.124499,80.0596683 L146.124499,80.8120541 L145.919596,80.8120541 C145.040917,80.8120541 144.613595,81.7109401 144.613595,83.5610625 L144.613595,94.3440417 C144.613595,94.3440417 137.157658,83.1536216 136.8501,82.692207 L136.8501,90.3130555 C136.8501,92.2228331 137.290865,93.0827606 138.27668,93.1002108 L138.362226,93.101834 L138.362226,93.8534082 L134.724895,93.8534082 L134.724895,93.101834 L134.810441,93.1002108 C135.796663,93.0827606 136.236614,92.2228331 136.236614,90.3130555 L136.236614,81.793321 C136.196285,81.7320426 135.883431,81.2552069 135.882617,81.2539894 C135.693601,80.952467 135.432482,80.8120541 135.061376,80.8120541 L134.844252,80.8120541 L134.825514,80.0596683 L136.957236,80.0596683 C136.957236,80.0596683 143.692143,90.1819765 143.998479,90.6421736 L143.998479,83.5610625 C143.998479,81.7109401 143.571157,80.8120541 142.691256,80.8120541 L142.486761,80.8120541 L142.486761,80.0596683 Z M169.244707,91.3645289 L169.793422,91.3645289 L169.793422,93.8534082 L162.721627,93.8534082 L162.721627,93.22642 L162.751365,93.1391693 L162.838133,93.1391693 C163.316375,93.1391693 163.46995,92.7804265 163.46995,91.6632107 L163.46995,86.3973216 C163.46995,85.2801058 163.326966,84.9217688 162.882535,84.9217688 L162.721627,84.9217688 L162.721627,84.2067182 L165.567047,84.2067182 L165.567047,84.8349239 L165.53731,84.9217688 L165.450134,84.9217688 C164.972299,84.9217688 164.818724,85.2801058 164.818724,86.3973216 L164.818724,93.1391693 L167.196493,93.1391693 C168.284556,93.1391693 168.85364,92.659087 169.225968,91.4262132 L169.244707,91.3645289 Z M146.610481,84.2067182 L153.637059,84.2067182 L153.637059,86.618898 L153.075308,86.618898 L153.056162,86.5580254 C152.684241,85.3803427 152.114749,84.9217688 151.025872,84.9217688 L148.706763,84.9217688 L148.706763,88.2774745 L149.353653,88.2774745 C150.494673,88.2774745 150.971286,87.9666182 150.998171,87.204087 L151.001023,87.1204886 L151.583142,87.1204886 L151.583142,90.1300318 L150.999801,90.1300318 L150.998171,90.0448101 C150.984321,89.3033814 150.477156,88.9730459 149.353653,88.9730459 L148.706763,88.9730459 L148.706763,93.1391693 L151.025872,93.1391693 C152.114342,93.1391693 152.683426,92.659087 153.055754,91.4262132 L153.074493,91.3645289 L153.637059,91.3645289 L153.637059,93.8534082 L146.610481,93.8534082 L146.610481,93.22642 L146.640218,93.1391693 L146.727394,93.1391693 C147.210932,93.1391693 147.358804,92.7946301 147.358804,91.6632107 L147.358804,86.3973216 C147.358804,85.2667138 147.221116,84.9217688 146.771389,84.9217688 L146.610481,84.9217688 L146.610481,84.2067182 Z M161.629899,91.3645289 L162.176985,91.3645289 L162.176985,93.8534082 L155.106819,93.8534082 L155.106819,93.22642 L155.135335,93.1391693 L155.22251,93.1391693 C155.70116,93.1391693 155.855142,92.7804265 155.855142,91.6632107 L155.855142,86.3973216 C155.855142,85.2801058 155.711751,84.9217688 155.266505,84.9217688 L155.106819,84.9217688 L155.106819,84.2067182 L157.951017,84.2067182 L157.951017,84.8349239 L157.921687,84.9217688 L157.834512,84.9217688 C157.356269,84.9217688 157.202694,85.2801058 157.202694,86.3973216 L157.202694,93.1391693 L159.581278,93.1391693 C160.668933,93.1391693 161.238017,92.659087 161.610753,91.4262132 L161.629899,91.3645289 Z M122.781057,80.0596683 L125.155567,80.0596683 L125.155567,80.8120541 L125.010139,80.8120541 C124.398689,80.8120541 124.201934,81.3392111 124.201934,82.9819608 L124.201934,90.9311157 C124.201934,92.5734595 124.398689,93.1002108 125.010139,93.1002108 L125.155567,93.1002108 L125.155567,93.8534082 L121.811944,93.8534082 L121.811944,93.1002108 L121.957779,93.1002108 C122.569636,93.1002108 122.765984,92.5734595 122.765984,90.9311157 L122.765984,81.7129691 C122.456797,82.4397885 118.647153,91.3909071 118.647153,91.3909071 C118.647153,91.3909071 114.85258,83.6544005 114.547059,83.0306589 L114.547059,90.3130555 C114.547059,92.2228331 114.986602,93.0827606 115.972824,93.1002108 L116.05837,93.101834 L116.05837,93.8534082 L112.420632,93.8534082 L112.420632,93.101834 L112.506178,93.1002108 C113.4924,93.0827606 113.932351,92.2228331 113.932351,90.3130555 L113.940905,81.8046839 C113.601981,81.0997788 113.236985,80.8307217 112.594168,80.8120541 L112.509437,80.8096192 L112.509437,80.0596683 L114.734853,80.0596683 C114.734853,80.0596683 118.842686,88.5371978 119.003594,88.8687507 C119.148615,88.5307047 122.781057,80.0596683 122.781057,80.0596683 Z M105.654766,92.6477241 C105.654766,93.4078205 105.201372,94.0270981 104.643287,94.0270981 C104.086831,94.0270981 103.616736,93.3952402 103.616736,92.6477241 C103.616736,91.8868162 104.077055,91.2679443 104.643287,91.2679443 C105.210742,91.2679443 105.654766,91.8742358 105.654766,92.6477241 Z M49.2873437,90.5395018 C48.3385989,92.8210083 46.7629247,94.0270981 44.7310056,94.0270981 C42.2807264,94.0270981 40.4329347,92.156279 40.4329347,89.6763277 C40.4329347,88.3322599 41.0280898,87.4293157 41.9145084,87.4293157 C42.6628314,87.4293157 43.1459621,88.0388538 43.1459621,88.981568 C43.1459621,89.7814345 42.7324902,90.3613478 42.1634063,90.3613478 C41.8411833,90.3613478 41.6444277,90.1698019 41.5006291,90.0297949 C41.4342292,89.9656757 41.3657925,89.8991216 41.3266858,89.8991216 C41.2855423,89.8991216 41.2240307,89.9936771 41.2240307,90.2554294 C41.2240307,90.6742332 41.4309703,91.3876605 42.0114604,92.1303067 C42.6196511,92.8912147 43.443336,93.2937858 44.3937103,93.2937858 C45.6561235,93.2937858 46.6333837,92.6136355 47.1454371,91.37995 C47.4525877,90.6259409 47.4762146,89.9263114 47.4762146,89.0209323 L47.4762146,82.9819608 C47.4762146,81.3392111 47.2802737,80.8120541 46.6684168,80.8120541 L46.5225814,80.8120541 L46.5225814,80.0596683 L49.8662044,80.0596683 L49.8662044,80.8120541 L49.7207763,80.8120541 C49.1089194,80.8120541 48.9125712,81.3392111 48.9125712,82.9819608 L48.9125712,89.0400058 C48.9125712,89.6880965 48.9683797,90.0845802 49.2739008,90.4506277 L49.3077118,90.4912095 L49.2873437,90.5395018 Z M134.136258,90.4291194 C134.136258,92.1729176 132.732898,94.0270981 130.130673,94.0270981 C127.657174,94.0270981 125.862339,91.9131943 125.862339,89.0010473 C125.862339,86.0767257 127.575294,84.0342458 130.028425,84.0342458 C130.681425,84.0342458 131.178406,84.1551794 131.507147,84.2355313 L131.862366,84.3041145 L131.940172,84.3102017 L132.156074,84.3231879 C132.553251,84.3231879 132.932097,84.1908914 133.385083,83.8938329 L133.51992,83.8053646 L133.51992,86.6769299 L133.081192,86.6769299 L133.058787,86.623362 C132.569138,85.4489259 131.562141,84.7480789 130.366127,84.7480789 C128.564368,84.7480789 127.444938,86.3035777 127.444938,88.8082839 C127.444938,91.5329432 128.63199,93.2937858 130.468783,93.2937858 C132.217993,93.2937858 133.301982,91.8661195 133.301982,90.5443716 C133.301982,90.1856288 133.180995,89.9530953 133.084043,89.7668251 C133.011533,89.6264122 132.948392,89.5058844 132.948799,89.3683122 C132.948799,89.1430834 133.108078,88.9921193 133.344755,88.9921193 C133.803851,88.9921193 134.136258,89.5963817 134.136258,90.4291194 Z M174.167263,84.2067182 L181.194655,84.2067182 L181.194655,86.618898 L180.632497,86.618898 L180.613351,86.5580254 C180.240615,85.3803427 179.671531,84.9217688 178.583468,84.9217688 L176.263952,84.9217688 L176.263952,88.2774745 L176.910027,88.2774745 C178.051047,88.2774745 178.527252,87.9666182 178.554546,87.204087 L178.557397,87.1204886 L179.139924,87.1204886 L179.139924,90.1300318 L178.555768,90.1300318 L178.554546,90.0448101 C178.54151,89.3033814 178.033938,88.9730459 176.910027,88.9730459 L176.263952,88.9730459 L176.263952,93.1391693 L178.583468,93.1391693 C179.671124,93.1391693 180.2398,92.659087 180.612943,91.4262132 L180.631682,91.3645289 L181.194655,91.3645289 L181.194655,93.8534082 L174.167263,93.8534082 L174.167263,93.22642 L174.196593,93.1391693 L174.283768,93.1391693 C174.767713,93.1391693 174.915586,92.7946301 174.915586,91.6632107 L174.915586,86.3973216 C174.915586,85.2667138 174.777897,84.9217688 174.327763,84.9217688 L174.167263,84.9217688 L174.167263,84.2067182 Z M204.06678,96.1203053 C200.286873,96.3224024 196.722867,97.7098928 195.986358,100.210947 L152.128192,100.210947 C151.994578,99.778345 151.754642,99.3737449 151.434456,99.0060742 L193.703097,98.9695506 C193.787828,98.9695506 193.856672,98.9013732 193.856672,98.8165574 C193.856672,96.8540235 196.975432,95.3163806 200.957797,95.3163806 C201.042529,95.3163806 201.111373,95.2482033 201.111373,95.1637932 L201.111373,81.1472594 C201.111373,81.0628494 201.042529,80.9942662 200.957797,80.9942662 C197.021463,80.9942662 193.696579,79.3182395 193.696579,77.3354148 C193.696579,77.2510047 193.627735,77.1824216 193.543004,77.1824216 L42.1968099,77.1824216 C42.1120787,77.1824216 42.0432346,77.2510047 42.0432346,77.3354148 C42.0432346,79.3182395 38.7187576,80.9942662 34.7832384,80.9942662 C34.6985072,80.9942662 34.6296632,81.0628494 34.6296632,81.1472594 L34.6296632,95.1637932 C34.6296632,95.2482033 34.6985072,95.3163806 34.7832384,95.3163806 C39.3289851,95.3163806 42.0432346,96.6843917 42.0432346,98.9760437 C42.0432346,99.0166254 42.0591217,99.0555839 42.0888591,99.0848028 C42.1177818,99.11321 42.1560738,99.1290369 42.1968099,99.1290369 L82.7989354,99.1136158 C82.5251885,99.4520677 82.3202857,99.8205501 82.1997067,100.210947 L39.9933917,100.210947 C39.2560674,97.7098928 35.6920619,96.3224024 31.9129695,96.1203053 L31.9129695,79.9975782 C35.6920619,79.7950752 39.2560674,78.407179 39.9933917,75.9057194 L195.986358,75.9057194 C196.722867,78.407179 200.286873,79.7950752 204.06678,79.9975782 L204.06678,96.1203053 Z M147.26063,102.239223 C147.221116,102.345547 147.192601,102.449436 147.174269,102.550079 C147.155531,102.636113 147.141273,102.690086 147.130274,102.711595 C147.102166,102.759075 147.053283,102.782207 146.982402,102.782207 C146.959997,102.782207 146.932297,102.779772 146.899708,102.774902 C146.630442,102.737567 146.225117,102.718899 145.683326,102.718899 L145.083283,102.72174 C144.244933,102.724987 143.65874,102.73148 143.324703,102.741625 C143.260748,102.743248 143.210642,102.744872 143.174387,102.744872 C143.055437,102.744872 142.995963,102.699014 142.995963,102.606082 C142.995963,102.558601 143.011442,102.525324 143.043624,102.505439 C143.07051,102.487989 143.144242,102.472974 143.262377,102.460394 C143.421248,102.444567 143.530828,102.392216 143.589896,102.303342 C143.651815,102.238411 143.687662,101.911728 143.699476,101.322887 L143.699476,100.657752 C143.699476,100.221092 143.697846,99.9621804 143.695402,99.8810169 C143.689292,99.6553823 143.626966,99.5117229 143.510053,99.4524735 C143.440394,99.4159499 143.31289,99.3920067 143.12754,99.3814554 C143.039143,99.375774 142.995963,99.3343806 142.995963,99.2572753 C142.995963,99.1959968 143.012664,99.1558209 143.04729,99.1363416 C143.075398,99.1205147 143.130392,99.1123984 143.213086,99.1123984 C143.238343,99.1123984 143.56301,99.1172682 144.187088,99.1257904 L145.637702,99.1257904 C145.938335,99.1237613 146.298849,99.1083402 146.720061,99.079933 C146.775462,99.0766864 146.820679,99.0750632 146.856935,99.0750632 C146.943295,99.0750632 146.986883,99.1034704 146.986883,99.1615023 C146.986883,99.182199 146.984439,99.213447 146.980773,99.2540287 C146.975884,99.2946105 146.974255,99.3522366 146.974255,99.4260954 C146.974255,99.4910262 146.977514,99.5600152 146.985254,99.6318449 C146.99503,99.7434447 146.999919,99.8108105 146.999919,99.8351595 C146.999919,99.9483826 146.928223,100.004791 146.784017,100.004791 C146.699286,100.004791 146.644699,99.9690793 146.619443,99.8976554 C146.546525,99.7020513 146.41617,99.5730013 146.229191,99.5100996 C146.051581,99.449227 145.833235,99.4183848 145.575783,99.4183848 C145.162718,99.4183848 144.917079,99.4325885 144.840495,99.4593724 C144.778169,99.4816924 144.739877,99.5186218 144.72399,99.5705664 C144.714213,99.6005969 144.71014,99.6647161 144.71014,99.7621123 L144.71014,100.565225 C144.71014,100.654911 144.721546,100.703203 144.743543,100.710102 C144.764319,100.715784 144.903636,100.718219 145.161904,100.718219 C145.456833,100.718219 145.67355,100.680883 145.813275,100.604995 C145.917966,100.547775 145.993328,100.467829 146.038953,100.365157 C146.043841,100.350954 146.057284,100.309966 146.080504,100.240977 C146.096798,100.184974 146.144459,100.157784 146.224302,100.157784 C146.366064,100.157784 146.437352,100.221092 146.437352,100.34933 C146.437352,100.377332 146.434093,100.413855 146.427576,100.460524 C146.408022,100.576994 146.398653,100.70158 146.398653,100.834688 C146.398653,100.956839 146.408837,101.088324 146.43002,101.229549 C146.434908,101.26729 146.437352,101.303813 146.437352,101.340743 C146.437352,101.495359 146.366064,101.572465 146.223488,101.572465 C146.172975,101.572465 146.132646,101.559884 146.100464,101.535535 C146.077245,101.516868 146.063802,101.497794 146.058914,101.478315 L146.034879,101.350888 C146.012882,101.224679 145.925299,101.134993 145.774575,101.083454 C145.6874,101.052612 145.551341,101.036785 145.365992,101.036785 C144.967592,101.036785 144.755764,101.041655 144.7301,101.051801 C144.716657,101.05667 144.71014,101.082643 144.71014,101.130935 L144.71014,101.408514 C144.719102,101.706384 144.726027,101.883321 144.7301,101.93973 C144.742321,102.106115 144.783057,102.221773 144.853938,102.284269 C144.931337,102.354881 145.053953,102.394651 145.220156,102.405608 C145.320775,102.410478 145.432799,102.413319 145.557044,102.413319 C145.981515,102.413319 146.268705,102.387346 146.416984,102.336213 C146.622702,102.266007 146.771389,102.15319 146.862638,101.997761 C146.887894,101.956368 146.913558,101.892655 146.941666,101.809462 C146.964071,101.745343 147.014584,101.712066 147.091982,101.712066 C147.252075,101.712066 147.332733,101.776185 147.332733,101.903206 C147.332733,101.987616 147.308291,102.100433 147.26063,102.239223 Z M141.936823,102.081766 C141.844759,102.2376 141.713589,102.371519 141.544941,102.483931 C141.222718,102.700638 140.795803,102.808179 140.264197,102.808179 C140.026705,102.808179 139.735441,102.781395 139.391221,102.728233 C139.302416,102.71403 139.225017,102.705913 139.158618,102.705913 C139.078775,102.705913 138.989562,102.737973 138.891388,102.802092 C138.846171,102.831717 138.794844,102.846326 138.737813,102.846326 C138.685263,102.846326 138.637195,102.834963 138.594422,102.811832 C138.552464,102.790729 138.532503,102.762322 138.532503,102.727016 C138.532503,102.695768 138.543909,102.653563 138.566721,102.602024 C138.637195,102.438885 138.67345,102.305777 138.67345,102.201076 C138.67345,102.136957 138.670191,102.074055 138.663673,102.009936 C138.652267,101.910511 138.647786,101.843145 138.647786,101.807839 C138.647786,101.727081 138.670191,101.657686 138.71663,101.600872 C138.759811,101.548116 138.826618,101.521332 138.919089,101.521332 C138.982637,101.521332 139.027447,101.533912 139.053111,101.558261 C139.068998,101.576523 139.080404,101.628062 139.087737,101.716124 C139.091403,101.822854 139.12277,101.926338 139.179393,102.027386 C139.236831,102.128841 139.310563,102.210816 139.399775,102.2725 C139.49632,102.342706 139.625454,102.398303 139.789213,102.439697 C139.95338,102.481902 140.119583,102.502193 140.289046,102.502193 C140.58479,102.502193 140.816986,102.444567 140.986448,102.328503 C141.158355,102.206758 141.244716,102.051329 141.244716,101.861813 C141.244716,101.683659 141.160799,101.544057 140.992559,101.441791 C140.868721,101.365903 140.658522,101.300567 140.362778,101.246593 L139.87313,101.156502 C139.412404,101.072497 139.080404,100.961709 138.87876,100.824543 C138.763884,100.746626 138.67345,100.646795 138.606235,100.523426 C138.539835,100.401275 138.507247,100.273848 138.507247,100.143581 C138.507247,99.9621804 138.565092,99.7949836 138.683227,99.6411787 C138.800547,99.4865622 138.965121,99.3615704 139.177763,99.2653916 C139.471878,99.1290369 139.819765,99.0616712 140.221016,99.0616712 C140.389664,99.0616712 140.646302,99.0892668 140.991337,99.1456754 C141.07118,99.1574441 141.144505,99.1631256 141.212941,99.1631256 C141.279749,99.1631256 141.364887,99.13553 141.469579,99.0783097 C141.517648,99.0503083 141.558791,99.0361047 141.59301,99.0361047 C141.63619,99.0361047 141.680185,99.048685 141.723365,99.0726283 C141.761657,99.0941366 141.781618,99.126602 141.781618,99.1708361 C141.781618,99.2008666 141.763287,99.2755371 141.727439,99.3952532 C141.703405,99.4760109 141.691999,99.5608268 141.691999,99.6505125 C141.691999,99.6915001 141.695257,99.7592716 141.701775,99.8538271 C141.703405,99.8891333 141.704627,99.9183521 141.704627,99.9410779 C141.704627,99.9849062 141.694443,100.024676 141.673667,100.060388 C141.634561,100.133435 141.564494,100.170365 141.461025,100.170365 C141.392588,100.170365 141.346963,100.153726 141.323744,100.120855 C141.31967,100.112739 141.297265,100.036039 141.258973,99.8931914 C141.212941,99.7154433 141.083808,99.5815235 140.871165,99.4898087 C140.681742,99.4086452 140.466248,99.3672518 140.226719,99.3672518 C140.002263,99.3672518 139.8051,99.4086452 139.636453,99.4910262 C139.43766,99.5863933 139.338671,99.7178782 139.338671,99.8866983 C139.338671,100.045373 139.416885,100.167118 139.575348,100.253557 C139.725257,100.333909 139.947677,100.401275 140.24057,100.453626 L140.751401,100.546152 C141.181167,100.625286 141.502575,100.74135 141.715218,100.893938 C141.827243,100.975101 141.915233,101.078179 141.979188,101.202359 C142.043144,101.327757 142.07614,101.45843 142.07614,101.595596 C142.07614,101.764416 142.029294,101.925932 141.936823,102.081766 Z M137.589868,99.3745565 C137.571537,99.3830787 137.500249,99.3960649 137.376004,99.4143267 C137.168657,99.4471979 137.046448,99.5531163 137.006934,99.7312702 C136.988603,99.8242024 136.980048,99.9771957 136.980048,100.19025 L136.980048,101.112267 C136.980048,101.483185 136.932387,101.768069 136.835842,101.965702 C136.698562,102.246933 136.459033,102.465263 136.116035,102.620286 C135.841473,102.745683 135.49766,102.808179 135.084595,102.808179 C134.357455,102.808179 133.818923,102.61501 133.469815,102.228266 C133.234767,101.968137 133.116632,101.618728 133.116632,101.178416 L133.116632,100.174017 C133.116632,99.9532524 133.112151,99.8152745 133.103189,99.75846 C133.082414,99.6196704 133.020902,99.5234916 132.918654,99.4699237 C132.865697,99.4451688 132.78341,99.4244721 132.672608,99.4062103 C132.567101,99.389166 132.501516,99.3717158 132.474223,99.3538598 C132.442042,99.3343806 132.426154,99.297857 132.426154,99.2455066 C132.426154,99.1566325 132.488073,99.1123984 132.611504,99.1123984 C132.636353,99.1123984 132.669349,99.11321 132.710493,99.1148333 C133.024161,99.1217322 133.345569,99.1257904 133.675939,99.1257904 L134.584763,99.1257904 L134.677641,99.1257904 C134.735079,99.1257904 134.775815,99.1306602 134.801479,99.1408056 C134.838142,99.1582558 134.856473,99.1959968 134.856473,99.251188 C134.856473,99.3104374 134.838142,99.3502075 134.801479,99.3721216 C134.773371,99.3855136 134.707379,99.3952532 134.601465,99.4009347 C134.466628,99.4058045 134.368047,99.4260954 134.30572,99.4630248 C134.225877,99.5109113 134.17292,99.5904515 134.147664,99.7016455 C134.134221,99.7600833 134.127703,99.8777704 134.127703,100.055518 L134.127703,101.112267 C134.127703,101.539188 134.205509,101.854914 134.363158,102.057822 C134.46174,102.186061 134.598206,102.28508 134.774186,102.358127 C134.95261,102.42874 135.143663,102.464452 135.346529,102.464452 C135.627608,102.464452 135.87284,102.399521 136.083038,102.270065 C136.302199,102.13371 136.449256,101.945005 136.522174,101.704355 C136.562503,101.577334 136.583278,101.378484 136.583278,101.106992 L136.583278,100.211758 C136.583278,99.9857178 136.577168,99.8392177 136.565762,99.7726636 C136.543764,99.6212936 136.469217,99.5141578 136.343342,99.4532852 C136.274091,99.4244721 136.139662,99.402558 135.940462,99.3863253 C135.848806,99.3773973 135.803181,99.3327573 135.803181,99.2536229 C135.803181,99.1862572 135.820698,99.1448638 135.85736,99.1290369 C135.878543,99.1184856 135.929463,99.1123984 136.01175,99.1123984 C136.032118,99.1123984 136.063892,99.1140217 136.107887,99.1156449 C136.349045,99.1306602 136.549875,99.1379649 136.709968,99.1379649 C136.824029,99.1379649 137.026488,99.1343125 137.316529,99.1257904 L137.371115,99.1257904 C137.482732,99.1257904 137.549947,99.1282253 137.573167,99.1335009 C137.621235,99.1472987 137.64527,99.1874746 137.64527,99.2540287 C137.64527,99.3169304 137.626938,99.3571064 137.589868,99.3745565 Z M131.358867,101.655657 C131.208551,101.898336 130.995094,102.107738 130.71931,102.28508 C130.178334,102.634083 129.506595,102.808179 128.702871,102.808179 C127.986729,102.808179 127.396462,102.643823 126.9337,102.314299 C126.693764,102.145479 126.5076,101.944194 126.374392,101.710443 C126.240778,101.475068 126.173971,101.232389 126.173971,100.978348 C126.173971,100.552645 126.345062,100.176046 126.687246,99.8485515 C127.0001,99.551493 127.420497,99.333569 127.950881,99.1968084 C128.290621,99.1067169 128.664579,99.0616712 129.073162,99.0616712 C129.859777,99.0616712 130.492817,99.2653916 130.972689,99.6712092 C131.380458,100.020212 131.58536,100.427653 131.58536,100.893938 C131.58536,101.160154 131.509998,101.414196 131.358867,101.655657 Z M124.60237,102.142638 C124.636996,102.296443 124.717653,102.393028 124.846379,102.433204 C124.914409,102.4539 125.017471,102.468104 125.155159,102.475815 C125.241927,102.48109 125.285108,102.522078 125.285108,102.599183 C125.285108,102.662896 125.268406,102.70429 125.234188,102.723363 C125.20608,102.737161 125.157196,102.744872 125.086315,102.744872 C125.052097,102.744872 124.696063,102.736349 124.018214,102.718899 C123.421022,102.736349 123.106539,102.744872 123.077209,102.744872 C122.99981,102.744872 122.946853,102.737161 122.91956,102.723363 C122.884934,102.702261 122.867417,102.662085 122.867417,102.602024 C122.867417,102.522889 122.911005,102.48109 122.99818,102.475815 C123.137498,102.466481 123.240968,102.452277 123.30696,102.433204 C123.435279,102.393028 123.515937,102.296443 123.550155,102.142638 C123.564006,102.070403 123.571338,101.891843 123.571338,101.607365 L123.571338,101.156502 C123.571338,101.074121 123.568079,101.028669 123.560747,101.019741 C123.555858,101.00919 123.287407,101.002291 122.754171,100.998233 L122.354549,100.998233 C121.957779,101.000668 121.697883,101.00432 121.574452,101.00919 C121.554084,101.012436 121.541863,101.02177 121.537382,101.035974 L121.537382,101.156502 L121.537382,101.607365 C121.537382,101.891843 121.544307,102.070403 121.55775,102.142638 C121.592376,102.296443 121.673441,102.393028 121.80176,102.433204 C121.869789,102.452277 121.972852,102.466481 122.11054,102.475815 C122.197715,102.48109 122.240895,102.522078 122.240895,102.599183 C122.240895,102.661273 122.223786,102.702261 122.189568,102.723363 C122.161867,102.737161 122.10891,102.744872 122.031512,102.744872 C122.006663,102.744872 121.64737,102.736349 120.956892,102.718899 C120.363774,102.736349 120.055809,102.744872 120.032589,102.744872 C119.95519,102.744872 119.902233,102.737161 119.875347,102.723363 C119.840722,102.70429 119.823205,102.662896 119.823205,102.599183 C119.823205,102.522078 119.866385,102.48109 119.953561,102.475815 C120.093693,102.466481 120.196756,102.452277 120.263156,102.433204 C120.39066,102.393028 120.471317,102.296443 120.505536,102.142638 C120.519793,102.070403 120.526718,101.891843 120.526718,101.607365 L120.526718,100.251528 C120.526718,99.9658328 120.519793,99.7868672 120.505536,99.7146317 C120.472132,99.5616385 120.391474,99.4650539 120.26397,99.4244721 C120.195941,99.4033696 120.091656,99.3895718 119.952746,99.3822671 C119.866385,99.3765856 119.823205,99.3343806 119.823205,99.2548404 C119.823205,99.1935619 119.840722,99.153386 119.875347,99.1339067 C119.902233,99.1197031 119.951117,99.1123984 120.022405,99.1123984 C120.059067,99.1123984 120.409806,99.1209206 121.076656,99.1379649 C121.683625,99.1209206 122.001774,99.1123984 122.031512,99.1123984 C122.10891,99.1123984 122.161867,99.1197031 122.189568,99.1339067 C122.223786,99.153386 122.240895,99.1935619 122.240895,99.2548404 C122.240895,99.3343806 122.1969,99.3765856 122.109725,99.3822671 C121.972037,99.3911951 121.869789,99.4049929 121.802575,99.4244721 C121.674256,99.4650539 121.592376,99.5616385 121.55775,99.7146317 C121.544307,99.7868672 121.537382,99.9642095 121.537382,100.249093 L121.537382,100.485279 C121.537382,100.578617 121.540234,100.630968 121.547566,100.641113 C121.554084,100.651665 121.571601,100.656534 121.598894,100.656534 C121.646555,100.657752 121.765097,100.660187 121.95452,100.66181 L122.238044,100.667491 L122.870676,100.667491 L123.154607,100.66181 C123.397802,100.660187 123.526121,100.657752 123.540786,100.654099 C123.556673,100.64923 123.565635,100.638273 123.568079,100.622446 C123.570523,100.6123 123.571338,100.566037 123.571338,100.485279 L123.571338,100.249093 C123.571338,99.9642095 123.564006,99.7868672 123.550155,99.7146317 C123.515937,99.5616385 123.434465,99.4650539 123.305331,99.4244721 C123.240968,99.4049929 123.138313,99.3911951 122.998995,99.3822671 C122.91182,99.3765856 122.867417,99.3343806 122.867417,99.2548404 C122.867417,99.1935619 122.884934,99.153386 122.91956,99.1339067 C122.946853,99.1197031 123.000217,99.1123984 123.080467,99.1123984 C123.105724,99.1123984 123.460536,99.1209206 124.14531,99.1379649 C124.742502,99.1209206 125.052912,99.1123984 125.075724,99.1123984 C125.15353,99.1123984 125.20608,99.1197031 125.234188,99.1339067 C125.268406,99.153386 125.285108,99.1935619 125.285108,99.2548404 C125.285108,99.3343806 125.241927,99.3765856 125.155567,99.3822671 C125.016657,99.3911951 124.912779,99.4049929 124.84475,99.4244721 C124.717653,99.4650539 124.636181,99.5616385 124.60237,99.7146317 C124.588927,99.7868672 124.581595,99.9658328 124.581595,100.251528 L124.581595,101.607365 C124.581595,101.891843 124.588927,102.070403 124.60237,102.142638 Z M117.128102,102.102868 C117.118325,102.121942 117.075552,102.194177 116.997746,102.315922 C116.941123,102.40642 116.885722,102.531817 116.833987,102.69171 C116.810767,102.760699 116.7517,102.795599 116.655562,102.795599 C116.609938,102.795599 116.545982,102.775714 116.463695,102.736349 C116.406257,102.707536 116.348412,102.693333 116.28853,102.693333 C116.236795,102.693333 116.173654,102.698203 116.100736,102.707536 C115.618827,102.774091 115.244462,102.808179 114.97764,102.808179 C114.265165,102.808179 113.674084,102.669795 113.206433,102.393839 C112.937167,102.235165 112.726154,102.043619 112.572578,101.81839 C112.403931,101.566377 112.319199,101.292045 112.319199,100.994175 C112.319199,100.57253 112.484181,100.194308 112.812514,99.8619435 C113.113962,99.5608268 113.518472,99.3412795 114.025229,99.2041132 C114.379634,99.1091518 114.745444,99.0616712 115.124698,99.0616712 C115.45792,99.0616712 115.81762,99.0917017 116.203798,99.1521685 C116.315823,99.168807 116.407072,99.1765176 116.477953,99.1765176 C116.541908,99.1765176 116.60342,99.1574441 116.662895,99.1197031 C116.7517,99.0641061 116.820544,99.0361047 116.868205,99.0361047 C116.916274,99.0361047 116.95701,99.0478734 116.991228,99.0701934 C117.02341,99.0925133 117.039297,99.1168624 117.039297,99.1448638 C117.039297,99.1541976 117.029927,99.1862572 117.009559,99.2406367 C116.969638,99.3412795 116.949677,99.4382699 116.949677,99.5295789 C116.949677,99.5746246 116.953751,99.6379322 116.961898,99.7211248 C116.979415,99.8850751 116.988377,100.001545 116.988377,100.06891 C116.988377,100.238542 116.897128,100.323358 116.71463,100.323358 C116.645786,100.323358 116.600568,100.283182 116.577349,100.201613 C116.525207,100.014937 116.451882,99.8745238 116.358188,99.78078 C116.077516,99.504824 115.657119,99.3672518 115.098219,99.3672518 C114.533616,99.3672518 114.100591,99.5040124 113.796699,99.7767218 C113.511546,100.032793 113.368155,100.386666 113.368155,100.834688 C113.368155,101.353323 113.554319,101.764416 113.927055,102.067156 C114.288385,102.357316 114.74463,102.502193 115.298234,102.502193 C115.750812,102.502193 116.112549,102.42387 116.384667,102.265195 C116.555759,102.16577 116.688151,102.033068 116.781844,101.865871 C116.832357,101.775373 116.872279,101.719371 116.902016,101.697862 C116.924828,101.68163 116.95538,101.674325 116.994487,101.674325 C117.058443,101.674325 117.10977,101.693804 117.148877,101.732763 C117.178207,101.762793 117.192872,101.804998 117.192872,101.857754 C117.192872,101.935671 117.171282,102.017647 117.128102,102.102868 Z M110.729675,101.368744 L110.729675,101.47101 L110.729675,101.605742 C110.729675,101.76117 110.731304,101.882509 110.733749,101.968137 C110.74271,102.19783 110.805037,102.342706 110.92195,102.402767 C110.989572,102.439697 111.115854,102.464452 111.300796,102.474597 C111.387156,102.479873 111.430337,102.521266 111.430337,102.599183 C111.430337,102.662896 111.413635,102.703478 111.379009,102.723363 C111.350901,102.737161 111.297537,102.744872 111.217694,102.744872 C111.192845,102.744872 110.834774,102.736349 110.144704,102.718899 C109.549956,102.736349 109.241991,102.744872 109.22203,102.744872 C109.143817,102.744872 109.091674,102.737161 109.063974,102.723363 C109.029348,102.70429 109.012646,102.662896 109.012646,102.599183 C109.012646,102.521266 109.055827,102.479873 109.143002,102.474597 C109.328351,102.464452 109.456263,102.439697 109.527551,102.400333 C109.641612,102.342706 109.703124,102.198641 109.712901,101.968948 C109.715345,101.876016 109.71616,101.616293 109.71616,101.188561 L109.71616,100.668303 C109.71616,100.241789 109.715345,99.9812538 109.712901,99.88751 C109.703124,99.6586289 109.641205,99.5141578 109.525107,99.4540968 C109.456263,99.4175732 109.329166,99.3928183 109.142187,99.3822671 C109.055827,99.3769915 109.012646,99.3343806 109.012646,99.255652 C109.012646,99.1943735 109.029348,99.153386 109.063974,99.1339067 C109.091674,99.1197031 109.140558,99.1123984 109.211439,99.1123984 C109.248509,99.1123984 109.598025,99.1209206 110.260802,99.1379649 C110.868993,99.1209206 111.187957,99.1123984 111.217694,99.1123984 C111.297537,99.1123984 111.350901,99.1197031 111.379009,99.1339067 C111.413635,99.153386 111.430337,99.1951852 111.430337,99.2580869 C111.430337,99.3360039 111.387156,99.3773973 111.299981,99.3830787 C111.114224,99.3928183 110.986313,99.4175732 110.915432,99.4540968 C110.800963,99.5141578 110.739452,99.6586289 110.729675,99.8883216 C110.727638,99.9796306 110.726823,100.18051 110.726823,100.48812 L110.726823,101.001479 L110.729675,101.368744 Z M108.224809,102.147508 C108.202812,102.219338 108.17063,102.362186 108.129079,102.576863 C108.115636,102.639359 108.091602,102.685622 108.056976,102.71403 C108.023573,102.742437 107.973875,102.757046 107.910326,102.757046 C107.848407,102.757046 107.61336,102.74893 107.205183,102.733103 C107.120452,102.730668 106.954656,102.729045 106.70861,102.729045 C106.512669,102.729045 106.251958,102.727016 105.928105,102.723769 C105.662506,102.720117 105.474712,102.718899 105.363095,102.718899 C105.118271,102.718899 104.836784,102.725392 104.517005,102.737973 C104.373206,102.742031 104.273403,102.744872 104.215558,102.744872 C104.147936,102.744872 104.099867,102.737161 104.071759,102.723363 C104.037541,102.70429 104.020839,102.662896 104.020839,102.599183 C104.020839,102.521266 104.064019,102.479873 104.15038,102.474597 C104.331656,102.464452 104.456308,102.440508 104.524338,102.403173 C104.637584,102.343518 104.698688,102.198641 104.708058,101.968948 C104.710502,101.873987 104.711317,101.613858 104.711317,101.188561 L104.711317,100.668303 C104.711317,100.240165 104.710502,99.9796306 104.708058,99.88751 C104.698688,99.6586289 104.636769,99.5141578 104.521079,99.4540968 C104.450605,99.4175732 104.323508,99.3928183 104.140603,99.3822671 C104.051798,99.3769915 104.007803,99.3343806 104.007803,99.255652 C104.007803,99.1943735 104.024505,99.153386 104.058723,99.1339067 C104.086017,99.1197031 104.135715,99.1123984 104.206188,99.1123984 C104.242851,99.1123984 104.59196,99.1209206 105.255551,99.1379649 C105.864964,99.1209206 106.183928,99.1123984 106.213666,99.1123984 C106.293508,99.1123984 106.34728,99.1197031 106.374166,99.1339067 C106.408384,99.153386 106.425494,99.1951852 106.425494,99.2580869 C106.425494,99.3360039 106.382313,99.3773973 106.295953,99.3830787 C106.108974,99.3928183 105.981877,99.4175732 105.913033,99.4540968 C105.797342,99.5141578 105.734609,99.6586289 105.725239,99.8883216 C105.722795,99.9905877 105.72198,100.190656 105.72198,100.48812 L105.72198,101.05667 C105.72198,101.62725 105.742756,102.003443 105.783492,102.184438 C105.806712,102.282645 105.882073,102.34433 106.009578,102.368273 C106.114269,102.389781 106.29025,102.400333 106.537111,102.400333 C106.906587,102.400333 107.184001,102.369896 107.368943,102.309024 C107.58403,102.2376 107.746974,102.105303 107.858999,101.911728 C107.888329,101.859378 107.92051,101.776997 107.954729,101.663368 C107.97306,101.602495 108.01624,101.572465 108.085084,101.572465 C108.249251,101.572465 108.331538,101.639019 108.331538,101.77375 C108.331538,101.833 108.296097,101.957991 108.224809,102.147508 Z M102.953552,102.209192 C102.861895,102.346359 102.734799,102.461205 102.572669,102.554543 C102.280183,102.723769 101.892375,102.808179 101.409652,102.808179 C101.252003,102.808179 100.915522,102.786265 100.400617,102.742437 C100.231155,102.727016 100.044583,102.718899 99.8417174,102.718899 C99.6082993,102.718899 99.3125549,102.725798 98.9561136,102.739596 C98.8917505,102.742843 98.8392008,102.744872 98.7984647,102.744872 C98.6839961,102.744872 98.6265582,102.699014 98.6265582,102.606082 C98.6265582,102.558601 98.6424453,102.525324 98.6754415,102.505439 C98.7023274,102.487989 98.7752451,102.472974 98.8925652,102.460394 C99.053473,102.444567 99.1630532,102.393028 99.2204912,102.306589 C99.2820028,102.241658 99.3190727,101.913351 99.3300714,101.322887 L99.3300714,100.686971 C99.3076665,99.9771957 99.2820028,99.6091191 99.2547096,99.5823352 C99.2221206,99.4983309 99.1532765,99.440299 99.0477699,99.407022 C99.019662,99.3968765 98.9671124,99.3863253 98.8888989,99.3753682 C98.778504,99.357918 98.7080305,99.3420911 98.6782931,99.3278875 C98.6440747,99.3128723 98.6265582,99.284465 98.6265582,99.2446949 C98.6265582,99.139994 98.677071,99.0868319 98.7776893,99.0868319 C98.8440892,99.0868319 99.0551024,99.099818 99.4123584,99.1257904 C99.5243828,99.1343125 99.6624784,99.1379649 99.8274598,99.1379649 C100.079209,99.1379649 100.342772,99.1257904 100.620185,99.1014413 C100.931409,99.0750632 101.147311,99.0616712 101.268705,99.0616712 C101.710285,99.0616712 102.068355,99.1472987 102.34251,99.3177421 C102.594259,99.4743877 102.719726,99.676079 102.719726,99.9224103 C102.719726,100.156973 102.591815,100.355418 102.336806,100.519774 C102.225597,100.588357 102.095648,100.645983 101.945739,100.693058 C101.916409,100.704015 101.901337,100.717407 101.901337,100.733234 C101.901337,100.749061 101.947369,100.770163 102.039433,100.79573 C102.388949,100.898807 102.650882,101.030698 102.826862,101.193837 C103.002842,101.35657 103.090833,101.551362 103.090833,101.77862 C103.090833,101.927961 103.045208,102.072026 102.953552,102.209192 Z M97.8252781,99.3745565 C97.8069469,99.3830787 97.7348439,99.3960649 97.6101913,99.4143267 C97.4032516,99.4471979 97.2810432,99.5531163 97.2419365,99.7312702 C97.2236052,99.8242024 97.2146433,99.9771957 97.2146433,100.19025 L97.2146433,101.112267 C97.2146433,101.483185 97.1665746,101.768069 97.0708447,101.965702 C96.9339712,102.246933 96.6932206,102.465263 96.3514443,102.620286 C96.0768827,102.745683 95.7322549,102.808179 95.3191903,102.808179 C94.5924575,102.808179 94.054333,102.61501 93.7048168,102.228266 C93.4689545,101.968137 93.3516344,101.618728 93.3516344,101.178416 L93.3516344,100.174017 C93.3516344,99.9532524 93.3467461,99.8152745 93.3381915,99.75846 C93.3170087,99.6196704 93.2554971,99.5234916 93.1532494,99.4699237 C93.1006998,99.4451688 93.0188201,99.4244721 92.9067957,99.4062103 C92.8025112,99.389166 92.7361112,99.3717158 92.708818,99.3538598 C92.6766365,99.3343806 92.6607494,99.297857 92.6607494,99.2455066 C92.6607494,99.1566325 92.7222609,99.1123984 92.8465062,99.1123984 C92.8709479,99.1123984 92.9047589,99.11321 92.9463098,99.1148333 C93.2595707,99.1217322 93.5809789,99.1257904 93.9105344,99.1257904 L94.8201725,99.1257904 L94.913051,99.1257904 C94.9696742,99.1257904 95.0112251,99.1306602 95.0360741,99.1408056 C95.0727367,99.1582558 95.0910679,99.1959968 95.0910679,99.251188 C95.0910679,99.3104374 95.0727367,99.3502075 95.0360741,99.3721216 C95.0087809,99.3855136 94.9427883,99.3952532 94.8368744,99.4009347 C94.701223,99.4058045 94.6026415,99.4260954 94.5411299,99.4630248 C94.4604724,99.5109113 94.4079227,99.5904515 94.3826663,99.7016455 C94.3692234,99.7600833 94.3622982,99.8777704 94.3622982,100.055518 L94.3622982,101.112267 C94.3622982,101.539188 94.4413264,101.854914 94.5985679,102.057822 C94.6963347,102.186061 94.8336155,102.28508 95.0095956,102.358127 C95.18802,102.42874 95.3782578,102.464452 95.5811238,102.464452 C95.8626106,102.464452 96.1082495,102.399521 96.318448,102.270065 C96.5376085,102.13371 96.6838513,101.945005 96.756769,101.704355 C96.7970978,101.577334 96.8182806,101.378484 96.8182806,101.106992 L96.8182806,100.211758 C96.8182806,99.9857178 96.8125775,99.8392177 96.8011714,99.7726636 C96.7779518,99.6212936 96.703812,99.5141578 96.5783447,99.4532852 C96.5095006,99.4244721 96.3750713,99.402558 96.1750568,99.3863253 C96.0834005,99.3773973 96.037776,99.3327573 96.037776,99.2536229 C96.037776,99.1862572 96.0561073,99.1448638 96.0927698,99.1290369 C96.1131379,99.1184856 96.164058,99.1123984 96.2463451,99.1123984 C96.2671205,99.1123984 96.2993021,99.1140217 96.3424824,99.1156449 C96.5844551,99.1306602 96.7852843,99.1379649 96.9453774,99.1379649 C97.0594386,99.1379649 97.2610825,99.1343125 97.5511239,99.1257904 L97.606525,99.1257904 C97.7177347,99.1257904 97.7853567,99.1282253 97.8077616,99.1335009 C97.8558302,99.1472987 97.8798646,99.1874746 97.8798646,99.2540287 C97.8798646,99.3169304 97.8615333,99.3571064 97.8252781,99.3745565 Z M91.4280735,100.874458 C91.1001476,101.076556 90.6964523,101.177198 90.2157658,101.177198 C89.9754225,101.177198 89.7578915,101.147979 89.5635801,101.089948 C89.4197815,101.046525 89.3476785,100.99174 89.3476785,100.928026 C89.3476785,100.88785 89.3627509,100.850921 89.3941177,100.81805 C89.4246698,100.785584 89.4588882,100.769352 89.4955507,100.769352 C89.5179556,100.769352 89.5827261,100.792483 89.6882327,100.838746 C89.7802964,100.877299 89.8984312,100.896373 90.0434519,100.896373 C90.2613903,100.896373 90.4471471,100.838341 90.6011297,100.721465 C90.7803688,100.583487 90.8699883,100.391535 90.8699883,100.146016 C90.8699883,99.9358023 90.8011442,99.7613007 90.6638634,99.6229169 C90.4756624,99.435835 90.1888799,99.3420911 89.8018865,99.3420911 C89.5289543,99.3420911 89.3692687,99.4062103 89.3212,99.5344487 C89.3004246,99.5896399 89.2877964,99.9463535 89.2837227,100.604995 L89.2837227,101.392687 C89.2837227,101.697051 89.29187,101.909293 89.3077571,102.029009 C89.3236442,102.149131 89.3566404,102.2376 89.4067459,102.293197 C89.4531851,102.347982 89.5366942,102.38897 89.6580879,102.416565 C89.731413,102.432798 89.8324386,102.448625 89.9611649,102.464452 C90.0458961,102.472162 90.0992604,102.490018 90.12248,102.516802 C90.1432555,102.541151 90.1538469,102.574022 90.1538469,102.615822 C90.1538469,102.693333 90.1008899,102.73148 89.9953832,102.73148 L89.7411897,102.728233 L89.2462455,102.722552 L88.7064915,102.718899 C88.6058732,102.718899 88.4620746,102.722146 88.2738736,102.729045 C88.0103108,102.73919 87.8408484,102.744872 87.7654865,102.744872 C87.6966424,102.744872 87.6481664,102.737161 87.6208732,102.723363 C87.5862475,102.70429 87.5695457,102.662896 87.5695457,102.599183 C87.5695457,102.521266 87.612726,102.479873 87.6999013,102.474597 C87.8848434,102.464452 88.0135697,102.440508 88.0844506,102.403173 C88.1989191,102.343518 88.2604307,102.198641 88.2693927,101.968948 C88.2718368,101.876016 88.2730589,101.616293 88.2730589,101.188561 L88.2730589,100.686971 C88.2473951,99.9840946 88.2229535,99.616018 88.1972897,99.5823352 C88.1651081,99.4975193 88.0966714,99.4382699 87.9903501,99.4049929 C87.9630568,99.3952532 87.9100998,99.384702 87.8318864,99.3721216 C87.7214915,99.3562948 87.6514253,99.3412795 87.6208732,99.3270759 C87.5862475,99.3096257 87.5695457,99.2804069 87.5695457,99.2390135 C87.5695457,99.1290369 87.6265763,99.0750632 87.7406375,99.0750632 C87.7821883,99.0750632 87.8351453,99.0774981 87.8991011,99.0831795 C88.2653191,99.1197031 88.5178832,99.1379649 88.6576082,99.1379649 C88.7354142,99.1379649 88.9871636,99.1233555 89.412449,99.0941366 C89.7379308,99.0726283 89.9721636,99.0616712 90.1159622,99.0616712 C90.6834168,99.0616712 91.1201083,99.1505452 91.4239999,99.3270759 C91.5934623,99.4260954 91.7230032,99.5571745 91.8126228,99.7195015 C91.8826889,99.8457108 91.9189441,99.9755724 91.9189441,100.108681 C91.9189441,100.417914 91.7547774,100.673579 91.4280735,100.874458 Z M151.139933,98.7008993 C150.09668,97.7220673 148.42161,97.0841221 146.526564,97.0841221 L87.800927,97.0841221 C85.8358152,97.0841221 84.1033069,97.7675189 83.0710529,98.8088468 C40.3657201,98.8530809 42.5043678,98.8230504 42.3279803,98.8230504 C42.2094381,96.4640328 39.4760426,95.0493527 34.9368137,95.0172931 L34.9368137,81.2921363 C38.9375107,81.2491196 42.1654431,79.5751221 42.3206478,77.488408 L193.419573,77.488408 C193.574778,79.5751221 196.80271,81.2491196 200.804222,81.2921363 L200.804222,95.0185105 C196.761974,95.0582806 193.725909,96.5995759 193.57763,98.6635641 C193.499823,98.6635641 171.516562,98.679391 151.139933,98.7008993 Z M205.022858,78.1369045 C201.071451,78.1369045 197.731902,76.6788019 197.731902,74.9528597 C197.731902,74.4265143 197.303358,74 196.774602,74 L39.2051472,74 C38.676392,74 38.2482551,74.4265143 38.2482551,74.9528597 C38.2482551,76.6788019 34.9095205,78.1369045 30.9568921,78.1369045 C30.4281369,78.1369045 30,78.5638246 30,79.0897642 L30,97.0269018 C30,97.553653 30.4281369,97.9801673 30.9568921,97.9801673 C34.9095205,97.9801673 38.2482551,99.4382699 38.2482551,101.164212 C38.2482551,101.690558 38.676392,102.117072 39.2051472,102.117072 L82.2905483,102.117072 C82.9696199,103.779707 85.176297,105 87.800927,105 L146.526564,105 C149.151194,105 151.358279,103.779707 152.037351,102.117072 L196.774602,102.117072 C197.303358,102.117072 197.731902,101.690558 197.731902,101.164212 C197.731902,99.4382699 201.071451,97.9801673 205.022858,97.9801673 C205.551613,97.9801673 205.980157,97.553653 205.980157,97.0269018 L205.980157,79.0897642 C205.980157,78.5638246 205.551613,78.1369045 205.022858,78.1369045 Z" id="Fill-1"></path>
                </g>
            </g>
        </g>
    </g>
</svg>