<?xml version="1.0" encoding="utf-8"?>
<!-- Generator: Adobe Illustrator 26.0.1, SVG Export Plug-In . SVG Version: 6.00 Build 0)  -->
<svg version="1.1" id="Layer_1" xmlns="http://www.w3.org/2000/svg" xmlns:xlink="http://www.w3.org/1999/xlink" x="0px" y="0px"
	 viewBox="0 0 291 74" style="enable-background:new 0 0 291 74;" xml:space="preserve">
<style type="text/css">
	.st0{fill-rule:evenodd;clip-rule:evenodd;fill:#FFFFFF;}
</style>
<path class="st0" d="M283.7,52c4.2,0,7.3,3.2,7.3,7.6c0,4.8-3.3,8.4-7.7,8.4c-1.9,0-3.3-0.7-4.7-2.1v4.9c0,1.3,0.2,1.5,2.4,1.5h0.5
	V74h-10.6v-1.6h0.5c2.1,0,2.1-0.2,2.1-1.5V57.4c0-3-0.1-3.1-1.9-3.1h-0.6v-1.6l7.7-0.2v2C280.1,52.7,281.5,52,283.7,52L283.7,52z
	 M267,52.4v11.7c0,1.1,0.3,1.4,1.8,1.4h0.9v1.7l-7.6,0.4v-2.6c-1.9,2.3-3.5,3.1-5.8,3.1c-2.2,0-4-1-4.9-2.8
	c-0.4-0.9-0.5-1.4-0.5-3.5v-4.3c0-3-0.1-3.1-1.9-3.1h-0.7v-1.6l7.8-0.2v9.2c0,2.4,0.7,3.4,2.3,3.4c1.2,0,2.4-0.7,2.9-1.8
	c0.4-0.8,0.6-1.7,0.6-3.3v-2.6c0-2.9-0.1-3.1-1.9-3.1h-0.7v-1.6L267,52.4L267,52.4z M238,52c5,0,8.9,3.6,8.9,8.1
	c0,4.6-3.8,7.9-9,7.9c-5.2,0-8.9-3.4-8.9-8C228.9,55.4,232.7,52,238,52z M42.2,52c4,0,6.5,1.7,6.5,4.3c0,1.6-1.2,2.7-3,2.7
	c-1.6,0-2.7-1-2.7-2.3c0-0.6,0.1-0.9,0.7-1.6c0.3-0.4,0.4-0.5,0.4-0.6c0-0.5-0.8-0.9-1.7-0.9c-2.5,0-3.9,2.2-3.9,6
	c0,4,1.5,6.2,4.2,6.2c2.3,0,3.6-1.3,4.7-4l1.7,0.5c-1.2,3.7-3.8,5.6-7.4,5.6c-5.3,0-8.8-3.1-8.8-7.8C32.8,55.4,36.8,52,42.2,52
	L42.2,52z M197.6,44c2.4,0,4,0.5,6.3,1.7l1.9-1.6h1.4l0.3,9.2h-1.7c-1.1-4.9-3.9-7.6-7.8-7.6c-1.9,0-3.7,0.9-4.6,2.4
	c-1.2,1.9-1.9,4.7-1.9,8.1c0,3,0.5,5.6,1.3,7.4c0.8,1.7,2.5,2.7,4.5,2.7c2.9,0,4.9-1.9,4.9-5.4v-0.3c0-1.9-0.1-2.1-2.5-2.1h-0.8
	v-1.7h11.6v1.7c-1.9,0-2.4,0.1-2.7,0.4c-0.2,0.2-0.2,0.4-0.2,2v7h-1.7l-1.6-3.1c-1,1-1.5,1.4-2.3,1.9c-1.5,0.8-3.5,1.3-5.5,1.3
	c-6.8,0-11.4-4.8-11.4-11.7c0-3.5,1-6.2,3.2-8.5C190.6,45.3,193.8,44,197.6,44z M86.5,52c4.8,0,7.8,3,7.8,7.8v0.5h-11
	c0,4.1,1.9,5.6,4.5,5.6c2.1,0,3.6-1.1,4.9-3.5l1.6,0.6c-1.4,3.4-4,5.1-7.8,5.1c-5.4,0-8.9-3.3-8.9-7.9C77.7,55.5,81.4,52,86.5,52
	L86.5,52z M165.6,52c1.6,0,2.8,0.3,4.1,1l1.2-0.7h1.4l0.1,5h-1.5c-1.6-2.6-3.1-3.7-5.2-3.7c-1.6,0-2.8,0.8-2.8,1.8
	c0,0.8,0.4,1.2,2,1.6l2.9,0.7c2.4,0.6,3.1,0.9,3.9,1.6c0.9,0.8,1.4,1.9,1.4,3.3c0,3.2-2.7,5.4-6.6,5.4c-1.7,0-3.4-0.4-4.6-1.1
	l-1.3,0.6h-1.4l-0.2-5.5h1.5c1.6,3,3.4,4.4,6,4.4c1.7,0,2.8-0.7,2.8-1.9c0-1-0.7-1.5-2.3-1.8l-2.4-0.5c-2.1-0.4-3.1-0.9-4.1-1.8
	c-0.9-0.8-1.4-2-1.4-3.2C159.2,54.1,161.9,52,165.6,52z M140.4,52c4.8,0,7.8,3,7.8,7.8v0.5h-11c0,4.1,1.9,5.6,4.5,5.6
	c2.1,0,3.6-1.1,4.9-3.5l1.6,0.6c-1.4,3.4-4,5.1-7.8,5.1c-5.4,0-8.9-3.3-8.9-7.9C131.6,55.5,135.3,52,140.4,52L140.4,52z M58.9,44.5
	l12.7,14.4v-7.5c0-2.8-0.2-3.6-0.9-4.3c-0.5-0.5-1.4-0.8-2.7-0.9v-1.7h9.3v1.7c-1.3,0-2.2,0.3-2.8,0.9c-0.7,0.7-0.8,1.4-0.9,4v16.7
	h-2.2L56.3,50.1v10.5c0,2.8,0.2,3.6,0.9,4.3c0.5,0.5,1.3,0.8,2.8,0.9v1.7h-9.3v-1.7c2.6-0.1,3.5-0.3,3.5-5.2V48
	c-0.8-1.2-2-1.8-3.5-1.8v-1.8L58.9,44.5L58.9,44.5z M224.2,52c2.1,0,3.6,1.4,3.6,3.2c0,1.6-1.2,2.7-2.8,2.7c-1.4,0-2.5-1-2.5-2.4
	c0-0.6,0.1-0.9,0.6-1.5c-1.1,0.3-1.8,0.9-2.5,2.1c-0.8,1.4-1.4,3.9-1.4,6.2v2.1c0,1.3,0.4,1.5,2.5,1.5h0.7v1.6h-10.9v-1.6h0.5
	c2,0,2.1-0.2,2.1-1.4v-7.2c0-2.9-0.1-3.1-1.9-3.1h-0.6v-1.6l7.3-0.2l0,3.9l0.1-0.3C220.1,53.3,221.8,52,224.2,52L224.2,52z
	 M127.1,52.4v12c0,1.2,0,1.5,2,1.5h0.5v1.6h-10.3v-1.6h0.5c2,0,2.1-0.2,2.1-1.4v-7.2c0-2.8-0.1-3-1.9-3h-0.6v-1.6
	C119.3,52.7,127.1,52.4,127.1,52.4z M115.3,44v20.4c0,0.8,0.1,1.1,0.5,1.2c0.2,0.1,0.9,0.2,1.5,0.2h0.5v1.6h-10.2v-1.6h0.5
	c2.1,0,2.2-0.2,2.2-1.3V49.1c0-2.8-0.1-3-1.9-3h-0.8v-1.6L115.3,44z M103.8,44v20.4c0,0.8,0.1,1.1,0.5,1.2c0.2,0.1,0.9,0.2,1.5,0.2
	h0.5v1.6H96v-1.6h0.5c2.1,0,2.2-0.2,2.2-1.5V49.1c0-2.8-0.1-3-1.9-3h-0.8v-1.6L103.8,44z M10.8,44.5l5.1,13.7l4.8-13.7h10.7v1.7H31
	c-1.7,0-2.4,0.1-2.7,0.5c-0.2,0.2-0.2,0.4-0.2,1.8v15.1c0,1.4,0,1.5,0.2,1.8c0.3,0.3,1,0.5,2.7,0.5h0.4v1.7H18.8v-1.7h0.4
	c1.7,0,2.4-0.1,2.7-0.5c0.2-0.2,0.2-0.4,0.2-2V47l-7.3,20.5h-1.7L5.7,47.3v13.3c0,2.8,0.2,3.6,0.9,4.3c0.5,0.5,1.4,0.8,2.8,0.9v1.7
	H0v-1.7c1.3,0,2.2-0.3,2.7-0.9c0.7-0.7,0.9-1.5,0.9-4.3V48.5c0-1.4,0-1.5-0.2-1.8c-0.3-0.4-1-0.5-2.7-0.5H0.2v-1.7
	C0.2,44.5,10.8,44.5,10.8,44.5z M237.9,53.6c-2.2,0-3.3,2.2-3.3,6.4c0,4.2,1.1,6.4,3.3,6.4c2.1,0,3.3-2.3,3.3-6.3
	C241.2,56.4,240.4,53.6,237.9,53.6L237.9,53.6z M282.3,54.4c-2.4,0-3.7,2.1-3.7,5.9c0,3.6,1.2,5.6,3.4,5.6c2.1,0,3.3-2.1,3.3-5.7
	C285.3,56.4,284.2,54.4,282.3,54.4L282.3,54.4z M140.5,53.6c-2,0-3.2,1.8-3.2,4.9h4.9c0.7,0,0.9-0.3,0.9-1
	C143.1,55,142.2,53.6,140.5,53.6z M86.6,53.6c-2,0-3.2,1.8-3.2,4.9h4.9c0.7,0,0.9-0.3,0.9-1C89.2,55,88.2,53.6,86.6,53.6z M153.7,44
	c2,0,3.3,1.6,3.3,3.8c0,2.8-1.9,5.5-5.5,7.6l-0.9-1.3c2-1.3,3.2-2.9,3.2-4.1c0-0.1-0.1-0.2-0.1-0.2s-0.3,0.1-0.4,0.1
	c-1.6,0-2.8-1.2-2.8-2.7C150.5,45.4,151.9,44,153.7,44L153.7,44z M124.5,45.2c1.2,0,2.3,1,2.3,2.2c0,1.3-1.1,2.3-2.3,2.3
	c-1.2,0-2.3-1-2.3-2.3C122.2,46.2,123.2,45.2,124.5,45.2z M184.3,0c3.6,0,6.2,2.7,6.2,6v0c0,3.3-2.6,6-6.2,6c-3.6,0-6.2-2.7-6.2-6v0
	C178.1,2.7,180.7,0,184.3,0z M225.4,0c3.6,0,6.2,2.7,6.2,6v0c0,3.3-2.6,6-6.2,6s-6.2-2.7-6.2-6v0C219.2,2.7,221.8,0,225.4,0z
	 M165.4,0.2l3,8.2l3-8.2h2.8l-4.7,11.7h-2.3l-4.7-11.7C162.6,0.2,165.4,0.2,165.4,0.2z M52.3,0.1l5,11.7h-2.7l-1.1-2.6h-4.9
	l-1.1,2.6H45l5-11.7H52.3z M64.8,0.2l5.4,7.1V0.2h2.5v11.6h-2.2L65,4.4v7.4h-2.5V0.2L64.8,0.2L64.8,0.2z M96,0.2v2.3h-6.2v2.4h5.5
	v2.3h-5.5v2.4H96v2.3h-8.9V0.2L96,0.2L96,0.2z M104,0.2l5.4,7.1V0.2h2.5v11.6h-2.2l-5.6-7.4v7.4h-2.5V0.2L104,0.2L104,0.2z
	 M122.6,0.2c3.7,0,6.2,2.5,6.2,5.8v0c0,3.3-2.5,5.8-6.2,5.8h-4.5V0.2L122.6,0.2L122.6,0.2z M143.1,0.2v2.3h-6.2v2.4h5.5v2.3h-5.5
	v2.4h6.3v2.3h-8.9V0.2L143.1,0.2L143.1,0.2z M155.2,0.1l5,11.7h-2.7l-1.1-2.6h-4.9l-1.1,2.6h-2.6l5-11.7
	C152.8,0.1,155.2,0.1,155.2,0.1z M201.4,0.2c2.7,0,4.4,1.4,4.4,3.8v0c0,1.9-1,3.1-2.5,3.6l2.8,4.1h-3l-2.5-3.7h-2v3.7h-2.6V0.2
	L201.4,0.2L201.4,0.2z M246,0.2v2.3h-6.3V5h5.5v2.3h-5.5v4.5h-2.6V0.2L246,0.2L246,0.2z M184.3,2.4c-2.1,0-3.5,1.6-3.5,3.6v0
	c0,2,1.5,3.6,3.5,3.6c2.1,0,3.5-1.6,3.5-3.6v0C187.8,4,186.3,2.4,184.3,2.4z M225.4,2.4c-2.1,0-3.5,1.6-3.5,3.6v0
	c0,2,1.5,3.6,3.5,3.6c2.1,0,3.5-1.6,3.5-3.6v0C228.9,4,227.4,2.4,225.4,2.4z M122.6,2.5h-2v7h2c2.1,0,3.5-1.4,3.5-3.5v0
	C126.1,3.9,124.7,2.5,122.6,2.5z M51.1,3.2l-1.5,3.8h3.1L51.1,3.2L51.1,3.2z M154,3.2l-1.5,3.8h3.1L154,3.2L154,3.2z M201.2,2.5
	h-2.5v3.3h2.6c1.2,0,2-0.7,2-1.6v0C203.2,3.1,202.4,2.5,201.2,2.5L201.2,2.5z"/>
</svg>
