<?xml version="1.0" encoding="UTF-8"?>
<svg width="154px" height="28px" viewBox="0 0 154 28" version="1.1" xmlns="http://www.w3.org/2000/svg" xmlns:xlink="http://www.w3.org/1999/xlink">
    <!-- Generator: Sketch 48.1 (47250) - http://www.bohemiancoding.com/sketch -->
    <title>Endeavor</title>
    <desc>Created with Sketch.</desc>
    <defs>
        <polygon id="path-1" points="154 0 4.67589099e-15 7.00162411e-15 0 14.4516129 154 14.4516129 154 9.33549882e-15"></polygon>
    </defs>
    <g id="Nav/Mobile" stroke="none" stroke-width="1" fill="none" fill-rule="evenodd" transform="translate(-43.000000, -894.000000)">
        <g id="Leftside" transform="translate(21.000000, 40.000000)">
            <g id="Endeavor" transform="translate(22.000000, 852.000000)">
                <g id="McNellie's-Logo" transform="translate(0.000000, 15.545455)">
                    <mask id="mask-2" fill="white">
                        <use xlink:href="#path-1"></use>
                    </mask>
                    <g id="Clip-2"></g>
                    <path d="M149.38326,4.9897478 C148.117953,4.9897478 147.424553,6.00398827 147.424553,7.81832258 C147.424553,9.55908504 148.080912,10.5286569 149.245469,10.5286569 C150.340389,10.5286569 150.999711,9.49865103 150.999711,7.77365396 C150.999711,5.95931965 150.426323,4.9897478 149.38326,4.9897478 Z M149.906273,11.5731144 C148.916548,11.5731144 148.134251,11.2538651 147.44085,10.5733255 L147.44085,12.9578416 C147.44085,13.5726921 147.562344,13.6817361 148.68986,13.6817361 L148.949144,13.6817361 L148.949144,14.4516129 L143.347123,14.4516129 L143.347123,13.6817361 L143.588628,13.6817361 C144.699846,13.6817361 144.716144,13.5726921 144.716144,12.9578416 L144.716144,6.4493607 C144.699846,4.9897478 144.682067,4.96084457 143.606408,4.96084457 L143.347123,4.96084457 L143.347123,4.17520235 L147.44085,4.06484457 L147.44085,5.05018182 C148.223148,4.17520235 148.966923,3.83493255 150.147778,3.83493255 C152.368732,3.83493255 154,5.39045161 154,7.51483871 C154,9.81921408 152.230941,11.5731144 149.906273,11.5731144 Z M138.70075,11.3432023 L138.70075,10.0832845 C137.694728,11.1737243 136.860573,11.5731144 135.629344,11.5731144 C134.449971,11.5731144 133.528401,11.0975249 133.060208,10.2488211 C132.817221,9.81921408 132.784626,9.54331965 132.784626,8.40426979 L132.784626,6.4493607 C132.763883,4.9897478 132.747585,4.96084457 131.673408,4.96084457 L131.393381,4.96084457 L131.393381,4.17520235 L135.507851,4.06484457 L135.507851,8.49886217 C135.507851,9.66418768 135.870849,10.1437185 136.73908,10.1437185 C137.398403,10.1437185 138.00735,9.78768328 138.284414,9.26348387 C138.509621,8.88380059 138.579257,8.44893842 138.579257,7.67906158 L138.579257,6.4493607 C138.579257,5.01865103 138.525919,4.96084457 137.469521,4.96084457 L137.190976,4.96084457 L137.190976,4.17520235 L141.302482,4.06484457 L141.302482,9.68258065 C141.302482,10.2330557 141.444718,10.3434135 142.25813,10.3434135 L142.744102,10.3434135 L142.744102,11.1737243 L138.70075,11.3432023 Z M125.898037,4.63371261 C124.733481,4.63371261 124.127497,5.67948387 124.127497,7.71321994 C124.127497,9.74301466 124.717183,10.7730205 125.881739,10.7730205 C126.992957,10.7730205 127.631537,9.68258065 127.631537,7.72898534 C127.631537,5.98953666 127.234462,4.63371261 125.898037,4.63371261 Z M125.860997,11.5731144 C123.121474,11.5731144 121.127208,9.94402346 121.127208,7.71321994 C121.127208,5.49424047 123.173331,3.83493255 125.932115,3.83493255 C128.569405,3.83493255 130.634789,5.55992962 130.634789,7.74475073 C130.634789,9.94402346 128.604964,11.5731144 125.860997,11.5731144 Z M119.07664,6.70948974 C118.332865,6.70948974 117.777256,6.23390029 117.777256,5.57438123 C117.777256,5.29454545 117.845411,5.12506745 118.070618,4.8504868 C117.482413,5.0055132 117.117933,5.28009384 116.751972,5.84896188 C116.317856,6.52950147 116.023013,7.74475073 116.023013,8.81811144 L116.023013,9.83366569 C116.023013,10.4682229 116.215624,10.5575601 117.325361,10.5575601 L117.706138,10.5575601 L117.706138,11.3432023 L111.911507,11.3432023 L111.911507,10.5575601 L112.154493,10.5575601 C113.264229,10.5575601 113.282009,10.4682229 113.282009,9.83366569 L113.282009,6.4493607 C113.282009,5.01865103 113.231634,4.96084457 112.170791,4.96084457 L111.911507,4.96084457 L111.911507,4.17520235 L115.781509,4.06484457 L115.781509,5.92516129 C116.403791,4.51021701 117.325361,3.83493255 118.663267,3.83493255 C119.773004,3.83493255 120.571599,4.49445161 120.571599,5.39045161 C120.571599,6.14456305 119.928574,6.70948974 119.07664,6.70948974 Z M109.927612,7.21923754 C109.806119,7.34404692 109.806119,7.42024633 109.806119,8.3885044 L109.806119,11.5586628 L108.884549,11.5586628 L108.035578,10.0491261 C107.531826,10.5128915 107.254762,10.7125865 106.820647,10.9424985 C106.023533,11.3432023 104.964172,11.5731144 103.906292,11.5731144 C100.311872,11.5731144 97.8494131,9.2845044 97.8494131,5.95931965 C97.8494131,4.26453959 98.3872426,2.97571848 99.568097,1.86557185 C100.851183,0.635870968 102.550606,0 104.546354,0 C105.798326,0 106.645815,0.220715543 107.860747,0.835565982 L108.884549,0.0656891496 L109.649067,0.0656891496 L109.806119,4.48 L108.884549,4.48 C108.312642,2.14015249 106.804349,0.801407625 104.755263,0.801407625 C103.73146,0.801407625 102.812854,1.23626979 102.309101,1.95490909 C101.664595,2.8811261 101.319377,4.23563636 101.319377,5.86472727 C101.319377,7.3151437 101.563845,8.55929619 102.032038,9.44872727 C102.466154,10.2829795 103.331422,10.7730205 104.390783,10.7730205 C105.936117,10.7730205 106.959919,9.83366569 106.959919,8.17435777 C106.959919,7.04844575 106.959919,7.00377713 105.519781,7.00377713 L105.189378,7.00377713 L105.189378,6.17346628 L111.349971,6.17346628 L111.349971,7.00377713 C110.361728,7.01954252 110.083183,7.06421114 109.927612,7.21923754 Z M88.1418126,11.5731144 C87.2395036,11.5731144 86.3371945,11.3721056 85.6941697,11.0331496 L85.0185492,11.3129853 L84.2910718,11.3129853 L84.203656,8.64863343 L84.9844718,8.64863343 C85.8156629,10.1135015 86.8053877,10.7730205 88.1418126,10.7730205 C89.0633827,10.7730205 89.6352896,10.4182991 89.6352896,9.8638827 C89.6352896,9.40274487 89.2885896,9.14392962 88.4203579,8.97313783 L87.155051,8.72877419 C86.0245719,8.51462757 85.5223013,8.29916716 85.0007697,7.84985337 C84.5325765,7.44914956 84.2747739,6.91443988 84.2747739,6.32980645 C84.2747739,4.87939003 85.6778718,3.83493255 87.6217626,3.83493255 C88.4544353,3.83493255 89.1137579,3.98995894 89.7730806,4.32497361 L90.4161054,3.98995894 L91.1628439,3.98995894 L91.2309987,6.4191437 L90.4161054,6.4191437 C89.5641716,5.15922581 88.7507601,4.63371261 87.639542,4.63371261 C86.7876082,4.63371261 86.181624,5.0055132 86.181624,5.52445748 C86.181624,5.92516129 86.4083125,6.0788739 87.2558014,6.27856891 L88.8174331,6.61883871 C90.0694054,6.89341935 90.4324033,7.03399413 90.8842986,7.38871554 C91.3687897,7.77365396 91.6310371,8.31361877 91.6310371,8.95868622 C91.6310371,10.4984399 90.1908986,11.5731144 88.1418126,11.5731144 Z M80.1499327,5.51000587 L79.6832211,4.87939003 C80.7559169,4.23563636 81.3989417,3.48021114 81.3989417,2.91002933 C81.3989417,2.84959531 81.3278237,2.82069208 81.3278237,2.82069208 C81.3278237,2.82069208 81.1900327,2.84959531 81.1233596,2.84959531 C80.2877237,2.84959531 79.6624784,2.27941349 79.6624784,1.52530205 C79.6624784,0.666087977 80.392919,0 81.3278237,0 C82.3708871,0 83.0820666,0.75542522 83.0820666,1.84980645 C83.0820666,3.22008211 82.0760439,4.48 80.1499327,5.51000587 Z M74.3582644,4.63371261 C73.3152011,4.63371261 72.6543968,5.52445748 72.6543968,6.98801173 L75.2605734,6.98801173 C75.6072734,6.98801173 75.727285,6.86451613 75.727285,6.49534311 C75.727285,5.28009384 75.2398307,4.63371261 74.3582644,4.63371261 Z M74.3212238,11.5731144 C71.4409467,11.5731144 69.6363287,9.98869208 69.6363287,7.77365396 C69.6363287,5.55992962 71.6157783,3.83493255 74.3049259,3.83493255 C76.838503,3.83493255 78.4505099,5.29454545 78.4505099,7.58972434 L78.4505099,7.83408798 L72.6380989,7.83408798 C72.6380989,9.80344868 73.6619011,10.5286569 74.9968443,10.5286569 C76.1258418,10.5286569 76.9066577,10.0189091 77.6015393,8.81811144 L78.4505099,9.12816422 C77.6889552,10.7730205 76.3510487,11.5731144 74.3212238,11.5731144 Z M65.8670772,2.74055132 C65.2077545,2.74055132 64.6521455,2.25051026 64.6521455,1.65011144 C64.6521455,1.06547801 65.2077545,0.571495601 65.8848566,0.571495601 C66.5441793,0.571495601 67.0997883,1.06547801 67.0997883,1.65011144 C67.0997883,2.26496188 66.5441793,2.74055132 65.8670772,2.74055132 Z M63.1586685,11.3432023 L63.1586685,10.5575601 L63.404618,10.5575601 C64.4950933,10.5575601 64.5143544,10.4485161 64.5143544,9.83366569 L64.5143544,6.40469208 C64.5143544,5.03441642 64.461016,4.96084457 63.404618,4.96084457 L63.1586685,4.96084457 L63.1586685,4.17520235 L67.2375794,4.06484457 L67.2375794,9.8481173 C67.2375794,10.4485161 67.2538772,10.5575601 68.31472,10.5575601 L68.5903021,10.5575601 L68.5903021,11.3432023 L63.1586685,11.3432023 Z M56.9062151,11.3432023 L56.9062151,10.5575601 L57.1492015,10.5575601 C58.2767173,10.5575601 58.2944968,10.4682229 58.2944968,9.8481173 L58.2944968,2.45020528 C58.2944968,1.07992962 58.24264,1.02080938 57.1832788,1.02080938 L56.8528767,1.02080938 L56.8528767,0.236480938 L61.0192034,0 L61.0192034,9.8481173 C61.0192034,10.2330557 61.0710602,10.3578651 61.2784876,10.4485161 C61.3999808,10.5128915 61.749644,10.5575601 62.0800462,10.5575601 L62.3215509,10.5575601 L62.3215509,11.3432023 L56.9062151,11.3432023 Z M50.8108139,11.3432023 L50.8108139,10.5575601 L51.0523186,10.5575601 C52.1798345,10.5575601 52.197614,10.4682229 52.197614,9.8481173 L52.197614,2.45020528 C52.197614,1.07992962 52.1457572,1.02080938 51.086396,1.02080938 L50.7604387,1.02080938 L50.7604387,0.236480938 L54.9223206,0 L54.9223206,9.8481173 C54.9223206,10.2330557 54.9726958,10.3578651 55.1816048,10.4485161 C55.3030979,10.5128915 55.6527612,10.5575601 55.9816817,10.5575601 L56.2246681,10.5575601 L56.2246681,11.3432023 L50.8108139,11.3432023 Z M45.8162594,4.63371261 C44.7746777,4.63371261 44.115355,5.52445748 44.115355,6.98801173 L46.72005,6.98801173 C47.06675,6.98801173 47.1882432,6.86451613 47.1882432,6.49534311 C47.1882432,5.28009384 46.7007889,4.63371261 45.8162594,4.63371261 Z M45.782182,11.5731144 C42.9004233,11.5731144 41.0972869,9.98869208 41.0972869,7.77365396 C41.0972869,5.55992962 43.075255,3.83493255 45.7644025,3.83493255 C48.2979796,3.83493255 49.9114682,5.29454545 49.9114682,7.58972434 L49.9114682,7.83408798 L44.0990571,7.83408798 C44.0990571,9.80344868 45.1213777,10.5286569 46.4578026,10.5286569 C47.5853185,10.5286569 48.3661343,10.0189091 49.0624976,8.81811144 L49.9114682,9.12816422 C49.1469502,10.7730205 47.8105253,11.5731144 45.782182,11.5731144 Z M39.4600924,1.48063343 C39.0956129,1.82090323 39.008197,2.20584164 39.008197,3.57480352 L39.008197,11.4535601 L37.8436406,11.4535601 L29.7761978,2.93893255 L29.7761978,8.00356598 C29.7761978,9.35807625 29.8650952,9.74301466 30.2280931,10.0832845 C30.5036752,10.3434135 30.937791,10.4682229 31.6860112,10.4984399 L31.6860112,11.327437 L26.7388686,11.327437 L26.7388686,10.4984399 C28.1108524,10.4340645 28.613123,10.3434135 28.613123,8.00356598 L28.613123,1.94045748 C28.1790071,1.38604106 27.5552434,1.09569501 26.7759092,1.07992962 L26.7759092,0.236480938 L31.1467,0.236480938 L37.8436406,7.18902053 L37.8436406,3.57480352 C37.8436406,2.22029326 37.759188,1.82090323 37.3932269,1.48063343 C37.1176448,1.2205044 36.6494516,1.07992962 35.9723494,1.06547801 L35.9723494,0.236480938 L40.9165288,0.236480938 L40.9165288,1.06547801 C40.2231287,1.07992962 39.7386377,1.2205044 39.4600924,1.48063343 Z M22.0391572,11.5731144 C19.2462959,11.5731144 17.3720416,10.0688328 17.3720416,7.81832258 C17.3720416,5.49424047 19.4552049,3.83493255 22.335482,3.83493255 C24.4334616,3.83493255 25.7891476,4.6652434 25.7891476,5.92516129 C25.7891476,6.70948974 25.1787185,7.23368915 24.2260343,7.23368915 C23.3918799,7.23368915 22.8036752,6.7738651 22.8036752,6.11040469 C22.8036752,5.82005865 22.8703483,5.67948387 23.1666731,5.35892082 C23.3222436,5.18944282 23.3578026,5.10930205 23.3578026,5.06463343 C23.3578026,4.81895601 22.9414662,4.63371261 22.4362324,4.63371261 C21.1368482,4.63371261 20.3738118,5.70970088 20.3738118,7.54374194 C20.3738118,9.44872727 21.188705,10.5286569 22.5947662,10.5286569 C23.8096979,10.5286569 24.5208774,9.89804106 25.0750048,8.61973021 L25.9773138,8.88380059 C25.3372523,10.6836833 23.9815663,11.5731144 22.0391572,11.5731144 Z M9.96095825,11.3432023 L9.96095825,10.5128915 L10.1520877,10.5128915 C11.0721763,10.5128915 11.4351741,10.4485161 11.5922263,10.2829795 C11.7152011,10.1594839 11.7152011,10.0990499 11.7152011,9.12816422 L11.7152011,1.45041642 L7.87779488,11.3432023 L6.97548586,11.3432023 L3.03881085,1.60544282 L3.03881085,8.00356598 C3.03881085,9.37384164 3.12622667,9.75878006 3.48922455,10.0990499 C3.76628824,10.3578651 4.25374254,10.4984399 4.94714258,10.5128915 L4.94714258,11.3432023 L0,11.3432023 L0,10.5128915 C0.67562055,10.4984399 1.14677699,10.3578651 1.42384068,10.0990499 C1.78683856,9.75878006 1.87425438,9.35807625 1.87425438,8.00356598 L1.87425438,2.45020528 C1.87425438,1.48063343 1.87425438,1.42019941 1.75276121,1.29539003 C1.59719069,1.12591202 1.2341928,1.06547801 0.312622667,1.06547801 L0.124456417,1.06547801 L0.124456417,0.236480938 L5.71017895,0.236480938 L8.39932653,6.84875073 L10.9343852,0.236480938 L16.5912257,0.236480938 L16.5912257,1.06547801 L16.4000962,1.06547801 C15.4800077,1.06547801 15.1140466,1.12591202 14.958476,1.29539003 C14.8369829,1.42019941 14.8369829,1.49508504 14.8369829,2.45020528 L14.8369829,9.12816422 C14.8369829,10.0832845 14.8369829,10.1594839 14.958476,10.2829795 C15.1140466,10.4485161 15.4800077,10.5128915 16.4000962,10.5128915 L16.5912257,10.5128915 L16.5912257,11.3432023 L9.96095825,11.3432023 Z" id="Fill-1" fill="#402B13" mask="url(#mask-2)"></path>
                </g>
                <text id="An-Endeavor-of" font-family="GothamHTF-Bold, Gotham HTF" font-size="8" font-weight="bold" letter-spacing="1.60000002" fill="#402B13">
                    <tspan x="6.84399983" y="7.63636364">An Endeavor of</tspan>
                </text>
            </g>
        </g>
    </g>
</svg>