<svg xmlns="http://www.w3.org/2000/svg" width="291" height="74" viewBox="0 0 291 74">
    <path fill="#3C0808" fill-rule="evenodd" d="M283.72 51.96c4.198 0 7.28 3.23 7.28 7.64 0 4.784-3.343 8.425-7.736 8.425-1.87 0-3.348-.663-4.658-2.076v4.95c0 1.276.23 1.503 2.36 1.503h.49V74H270.87v-1.598h.457c2.1 0 2.13-.227 2.13-1.503V57.39c-.03-2.953-.063-3.086-1.944-3.09h-.643v-1.632l7.736-.229v2.046c1.478-1.817 2.883-2.523 5.115-2.523zm-16.713.478V64.1c0 1.143.268 1.372 1.805 1.372h.919v1.723l-7.64.352v-2.615c-1.902 2.263-3.478 3.093-5.804 3.093-2.229 0-3.97-.988-4.855-2.75-.44-.854-.515-1.416-.52-3.542v-4.345c-.039-2.952-.07-3.085-1.948-3.09h-.682v-1.63l7.775-.23v9.205c0 2.419.686 3.414 2.327 3.414 1.245 0 2.396-.739 2.92-1.827.425-.788.557-1.69.557-3.29v-2.552c0-2.892-.096-3.082-1.943-3.09h-.68v-1.63l7.769-.23zm-29.044-.477c4.983 0 8.886 3.58 8.886 8.116 0 4.566-3.836 7.948-9.02 7.948-5.177 0-8.946-3.382-8.946-8.013 0-4.607 3.867-8.051 9.08-8.051zm-195.758 0c3.965 0 6.526 1.724 6.526 4.339 0 1.628-1.153 2.716-2.953 2.716-1.576 0-2.688-.954-2.688-2.331 0-.603.126-.895.686-1.56.294-.352.361-.519.361-.611 0-.51-.787-.895-1.741-.895-2.456 0-3.897 2.234-3.897 6.041 0 3.955 1.54 6.196 4.196 6.196 2.296 0 3.64-1.309 4.687-3.962l1.705.548c-1.21 3.736-3.771 5.583-7.442 5.583-5.277 0-8.819-3.123-8.819-7.795 0-4.825 3.937-8.27 9.38-8.27zM197.552 44c2.366 0 3.967.458 6.263 1.735l1.934-1.599h1.445l.297 9.164h-1.742c-1.08-4.857-3.93-7.636-7.802-7.636-1.935 0-3.67.902-4.623 2.394-1.218 1.923-1.87 4.735-1.87 8.117 0 3.01.462 5.593 1.347 7.44.82 1.731 2.455 2.749 4.457 2.749 2.92 0 4.855-1.95 4.855-5.395v-.35c-.008-1.941-.136-2.074-2.512-2.08h-.834v-1.724h11.641v1.724c-1.867.033-2.394.126-2.688.447-.212.24-.228.393-.23 1.996v7.013h-1.74l-1.605-3.134c-.952.963-1.475 1.377-2.296 1.854-1.506.832-3.508 1.31-5.507 1.31-6.792 0-11.445-4.751-11.445-11.654 0-3.518 1.017-6.194 3.248-8.498C190.569 45.32 193.78 44 197.552 44zM86.477 51.96c4.787 0 7.836 3.03 7.836 7.795v.508H83.33c0 4.088 1.932 5.593 4.457 5.593 2.13 0 3.606-1.058 4.922-3.55l1.604.643c-1.444 3.415-3.97 5.076-7.803 5.076-5.445 0-8.852-3.29-8.852-7.888 0-4.595 3.737-8.176 8.819-8.176zm79.094 0c1.573 0 2.82.323 4.065 1.018l1.215-.695h1.411l.129 5.042h-1.54c-1.61-2.615-3.147-3.706-5.246-3.706-1.61 0-2.755.772-2.755 1.85 0 .831.428 1.15 2.03 1.565l2.95.706c2.366.57 3.052.862 3.906 1.598.915.8 1.411 1.92 1.411 3.26 0 3.196-2.721 5.427-6.593 5.427-1.705 0-3.41-.418-4.625-1.121l-1.277.58h-1.375l-.165-5.53h1.476c1.57 3.04 3.44 4.41 5.966 4.41 1.741 0 2.822-.737 2.822-1.888 0-.957-.655-1.494-2.296-1.849l-2.39-.507c-2.137-.445-3.086-.892-4.072-1.825a4.276 4.276 0 0 1-1.372-3.155c0-3.01 2.652-5.18 6.325-5.18zm-25.164 0c4.788 0 7.834 3.03 7.834 7.795v.508h-10.983c0 4.088 1.934 5.593 4.457 5.593 2.133 0 3.609-1.058 4.922-3.55l1.604.643c-1.44 3.415-3.967 5.076-7.803 5.076-5.442 0-8.852-3.29-8.852-7.888 0-4.595 3.74-8.176 8.821-8.176zm-81.552-7.47L71.51 58.925V51.42c0-2.812-.16-3.641-.851-4.347-.521-.54-1.406-.832-2.685-.862V44.49h9.342v1.72c-1.31.03-2.225.323-2.752.863-.664.68-.841 1.448-.853 4.05v16.652H71.51L56.265 50.101v10.514c0 2.811.168 3.61.854 4.317.521.54 1.341.799 2.755.862v1.72h-9.348v-1.72c2.593-.134 3.542-.322 3.542-5.18V48.029c-.82-1.15-2-1.753-3.472-1.786V44.49h8.26zm165.372 7.47c2.097 0 3.606 1.37 3.606 3.23 0 1.565-1.215 2.738-2.825 2.738-1.405 0-2.455-.987-2.455-2.356 0-.581.129-.933.554-1.503-1.111.322-1.8.892-2.491 2.073-.82 1.413-1.378 3.935-1.378 6.163v2.109c0 1.317.364 1.502 2.461 1.502h.72v1.631h-10.95v-1.63h.46c2.026 0 2.125-.174 2.13-1.375v-7.154c0-2.892-.09-3.082-1.946-3.09h-.644v-1.63l7.313-.23-.001 3.861.12-.288c1.174-2.74 2.882-4.05 5.326-4.05zm-97.174.478v12.006c0 1.246.03 1.472 2.035 1.472h.52v1.631h-10.263v-1.63h.465c1.99 0 2.092-.212 2.097-1.375v-7.247c0-2.767-.095-2.987-1.94-2.996h-.622v-1.632l7.708-.229zM115.303 44v20.444c0 .799.098 1.058.49 1.246.229.134.89.226 1.514.226h.456v1.631h-10.232v-1.63h.459c2.06 0 2.16-.174 2.164-1.348V49.086c0-2.767-.093-2.958-1.942-2.967h-.782v-1.628l7.873-.491zm-11.521 0v20.444c0 .799.095 1.058.49 1.246.23.134.89.226 1.512.226h.459v1.631h-10.23v-1.63h.456c2.13 0 2.164-.186 2.164-1.473V49.086c0-2.767-.093-2.958-1.941-2.967h-.775v-1.628l7.865-.491zm-92.992.49l5.081 13.727 4.79-13.726h10.69v1.72h-.361c-1.739 0-2.43.126-2.724.478-.202.228-.227.376-.23 1.76v15.138c.003 1.384.028 1.534.23 1.76.294.343.985.477 2.724.477h.361v1.723H18.822v-1.723h.361c1.74 0 2.425-.134 2.722-.478.214-.236.23-.361.232-1.964V47.01l-7.251 20.536h-1.705L5.742 47.333v13.282c0 2.844.165 3.643.851 4.35.524.537 1.445.829 2.755.859v1.723H0v-1.723c1.277-.03 2.167-.322 2.69-.86.686-.706.852-1.538.852-4.35V48.463c-.003-1.42-.027-1.544-.23-1.773-.294-.352-.98-.477-2.721-.477H.235V44.49H10.79zm227.108 9.13c-2.2 0-3.345 2.17-3.345 6.392 0 4.213 1.114 6.352 3.314 6.352 2.1 0 3.307-2.264 3.307-6.32 0-3.61-.75-6.425-3.276-6.425zm44.378.738c-2.39 0-3.701 2.106-3.701 5.872 0 3.614 1.24 5.626 3.44 5.626 2.07 0 3.316-2.138 3.316-5.719 0-3.766-1.084-5.779-3.055-5.779zm-141.768-.739c-1.97 0-3.22 1.85-3.22 4.887h4.925c.655 0 .882-.256.882-1.022 0-2.523-.921-3.865-2.587-3.865zm-53.933 0c-1.968 0-3.214 1.85-3.214 4.887h4.922c.655 0 .884-.256.884-1.022 0-2.523-.92-3.865-2.592-3.865zM153.678 44c1.97 0 3.315 1.568 3.315 3.84 0 2.845-1.901 5.46-5.54 7.598l-.883-1.309c2.027-1.336 3.242-2.904 3.242-4.088 0-.126-.134-.186-.134-.186s-.26.06-.386.06c-1.58 0-2.761-1.183-2.761-2.749 0-1.783 1.38-3.166 3.147-3.166zm-29.181 1.186c1.246 0 2.295 1.026 2.295 2.24 0 1.276-1.05 2.263-2.329 2.263-1.246 0-2.296-1.017-2.296-2.264 0-1.213 1.05-2.239 2.33-2.239zM184.32 0c3.587 0 6.161 2.669 6.161 5.967V6c0 3.298-2.607 6-6.194 6-3.588 0-6.162-2.669-6.162-5.967V6c0-3.298 2.608-6 6.195-6zm41.07 0c3.587 0 6.162 2.669 6.162 5.967V6c0 3.298-2.608 6-6.195 6s-6.161-2.669-6.161-5.967V6c0-3.298 2.607-6 6.194-6zm-59.953.199l3.039 8.17 3.04-8.17h2.756l-4.7 11.685h-2.258l-4.7-11.685h2.823zM52.34.116l4.983 11.685h-2.674L53.586 9.2H48.67L47.607 11.8H45L49.982.116h2.358zm12.456.083l5.447 7.144V.199h2.525V11.8h-2.176l-5.63-7.376v7.376h-2.524V.2h2.358zm31.156 0v2.27h-6.228v2.354h5.48v2.27h-5.48V9.53h6.31v2.271h-8.851V.2h8.769zm8.038 0l5.447 7.144V.199h2.524V11.8h-2.175l-5.63-7.376v7.376h-2.525V.2h2.359zm18.617 0c3.653 0 6.178 2.503 6.178 5.768V6c0 3.265-2.525 5.801-6.178 5.801h-4.534V.2h4.534zm20.543 0v2.27h-6.228v2.354h5.48v2.27h-5.48V9.53h6.311v2.271h-8.852V.2h8.769zm12.024-.083l4.982 11.685h-2.674L156.42 9.2h-4.915L150.44 11.8h-2.608L152.816.116h2.358zm46.218.083c2.74 0 4.385 1.442 4.385 3.829v.033c0 1.873-1.013 3.05-2.491 3.596l2.84 4.144h-2.99l-2.491-3.713h-2.01v3.713h-2.557V.2h5.314zm44.608 0v2.32h-6.294v2.47h5.547v2.32h-5.547v4.492h-2.558V.2H246zm-61.713 2.155c-2.06 0-3.488 1.624-3.488 3.613V6c0 1.989 1.462 3.646 3.52 3.646 2.06 0 3.488-1.624 3.488-3.613V6c0-1.989-1.461-3.646-3.52-3.646zm41.07 0c-2.06 0-3.488 1.624-3.488 3.613V6c0 1.989 1.462 3.646 3.521 3.646 2.06 0 3.488-1.624 3.488-3.613V6c0-1.989-1.462-3.646-3.521-3.646zm-102.75.149h-1.977v6.994h1.977c2.092 0 3.504-1.409 3.504-3.464V6c0-2.055-1.412-3.497-3.504-3.497zm-71.479.68l-1.544 3.762h3.089l-1.545-3.763zm102.833 0l-1.544 3.762h3.089l-1.545-3.763zm47.215-.68h-2.54v3.331h2.59c1.246 0 1.96-.663 1.96-1.64V4.16c0-1.094-.764-1.657-2.01-1.657z"/>
</svg>
