<?xml version="1.0" encoding="UTF-8"?>
<svg id="Layer_1" xmlns="http://www.w3.org/2000/svg" version="1.1" viewBox="0 0 473 473">
  <!-- Generator: Adobe Illustrator 29.5.0, SVG Export Plug-In . SVG Version: 2.1.0 Build 137)  -->
  <defs>
    <style>
      .st0 {
        fill: #4f2c1d;
      }
    </style>
  </defs>
  <path class="st0" d="M236.5,0C105.88,0,0,105.89,0,236.5s105.88,236.5,236.5,236.5,236.5-105.88,236.5-236.5S367.12,0,236.5,0ZM452.43,224.18l-11.23-1.52c1.007-4.947,1.027-10.045.06-15-1.27-6.81-4.58-9.61-7.53-9.06-3.72.7-4.65,4.83-5.81,14.44-1.51,13-5.82,19.68-14.06,21.23-9.79,1.83-19.78-5.48-23.36-24.57-1.49-7.95-1.14-16.13,0-20.4l11.43,1.17c-1.309,5.957-1.435,12.114-.37,18.12,1.35,7.23,4.58,10.58,8.4,9.86,3.64-.68,5.1-4.37,6-13.19,1.3-12.21,5.24-20.85,13.74-22.44,10-1.87,19.39,6.72,22.44,23,1.4,8.01,1.17,13.95.29,18.36ZM55.92,211.18c-7.42.44-16.19.52-24.15.28l-.06.2c7.69,2.34,16.45,5.08,23.51,7.37l21.49,7.06-3.71,14.29-56.4-19.48,5.4-20.61,21-1.66c7.24-.48,14.94-.63,22.08-.39l.11-.4c-6.19-3.58-13.19-7.91-18.97-11.93l-17.22-12.23,5.34-20.31,58.46,11.46-3.95,15-22.3-4.67c-7-1.51-15.43-3.4-23.79-5.6l-.06.2c6.75,4.16,14.2,9.16,20.24,13.57l20.25,14.22-3.19,12.12-24.08,1.51ZM133.22,75.95c7.16,3.14,14.102,6.754,20.78,10.82l.17-.12c-5.256-6.432-10.122-13.174-14.57-20.19l-9.39-14.52,12.35-8,32.29,49.91-14.11,9.12-25.15-11c-7.467-3.181-14.722-6.839-21.72-10.95l-.35.23c4.75,6.38,9.48,13.3,14.75,21.45l9.73,15-12.35,8-32.3-49.93,15.65-10.16,24.22,10.34ZM214.51,24.9l2.21,10.8-27.06,5.54,2.48,12.1,25.51-5.22,2.19,10.65-25.51,5.23,2.83,13.82,28.5-5.83,2.21,10.8-44.14,9-11.92-58.24,42.7-8.65ZM257.12,25.96l-5.4,47.81,28,3.16-1.27,11.22-43.82-5,6.67-59.07,15.82,1.88ZM322.29,42.61l-19.79,43.88,25.66,11.56-4.64,10.3-40.2-18.13,24.42-54.2,14.55,6.59ZM377,76.26l-36.69,46.79-12.57-9.84,36.67-46.79,12.59,9.84ZM348.43,315.77c-.843.32-1.529.954-1.914,1.768-.386.815-.442,1.747-.156,2.602.1.27,9,27.77-2.31,48.24-5.56,10-15.2,16.79-28.66,20.14-4.59-.4-41.85-4.76-67.85-41.51-.441-.614-1.069-1.07-1.789-1.299-.721-.229-1.496-.218-2.211.029-.72.258-1.336.745-1.753,1.386-.417.641-.613,1.401-.557,2.164,1.13,15.37.34,41.49-6.31,48.82h-14.59c5.13-6.898,8.823-14.756,10.858-23.108,2.036-8.352,2.373-17.027.992-25.512-.105-.68-.409-1.313-.873-1.821-.465-.507-1.069-.865-1.737-1.029-.669-.168-1.372-.134-2.022.097-.65.231-1.216.65-1.628,1.203-.31.42-31.42,41.54-66.1,40.59-15.48-.42-24.28-10.14-28.93-18.22-8.68-15.08-10-36.87-3.09-49.6.234-.431.376-.907.415-1.396.04-.489-.023-.981-.185-1.444-.166-.468-.431-.894-.776-1.251-.345-.358-.762-.637-1.224-.819-7.748-3.622-14.624-8.871-20.16-15.39-11.72-14-13.72-31.23-5.93-51.1,4.41-11.24,11.7-18.85,21.67-22.62,25.63-9.68,61.12,8.27,61.47,8.45.683.355,1.465.473,2.223.338.757-.136,1.449-.518,1.967-1.088.518-.566.835-1.288.902-2.052.067-.765-.12-1.53-.532-2.178-4.878-7.918-9.318-16.097-13.3-24.5-8.26-17.52-11.93-31.39-10.63-40.11,1.79-12.01,10.29-31.97,26.29-37.85,12.64-4.66,27.53.37,44.25,14.94.657.573,1.503.88,2.374.861.871-.018,1.704-.361,2.336-.961.23-.21,23.05-21.57,44-16.6,8.65,2.06,19.73,10.86,25,25.88,10.55,30.26-9.2,61.87-21.91,78-.488.618-.754,1.382-.754,2.17s.266,1.552.754,2.17c.489.619,1.173,1.055,1.941,1.236.768.182,1.574.098,2.289-.236.53-.25,52.85-24.51,77.83,5.09,13.06,15.48,12.69,30.84,10.08,41-4.03,15.32-15.95,29.17-29.76,34.52ZM414.7,162.27l-4.7-8.5c8.33-.167,16.621-1.172,24.75-3l6.79,13.3c-8.987.553-18.008-.052-26.84-1.8h0ZM413.76,134.09l-16.92-21.83-9.76,7.57,16,20.58-8.65,6.7-16-20.58-11.15,8.65,17.82,23-8.72,6.76-27.58-35.62,47-36.43,26.7,34.44-8.74,6.76ZM95.86,112.09c-2.513,1.692-4.704,3.819-6.47,6.28-5.11,6.68-4.43,14.07,1.24,18.27,6.24,4.77,13.43,2.33,18.15-3.84,1.939-2.415,3.435-5.154,4.42-8.09l9,4.49c-.81,3-3.36,7.74-7.06,12.58-10.08,13.18-23.32,16.41-34,8.22-10-7.66-12-22.11-.36-37.29,2.488-3.283,5.427-6.199,8.73-8.66l6.35,8.04Z"/>
</svg>