<svg id="Layer_1" data-name="Layer 1" xmlns="http://www.w3.org/2000/svg" width="74.037" height="41.07" viewBox="0 0 74.037 41.07">
  <defs>
    <style>
      .cls-1 {
        fill: #fff;
      }
    </style>
  </defs>
  <path class="cls-1" d="M88.1,29.091a8.775,8.775,0,0,1,.735,5.851A8.16,8.16,0,0,1,87.5,38.258a7.483,7.483,0,0,1-4.7,3.017,13.216,13.216,0,0,1-2.5.26,7.124,7.124,0,0,1-2.52-.433,15.5,15.5,0,0,1-2-.9,9.706,9.706,0,0,1-1.05-.686c-.413-.325-.832-.38-1.011-.124a3.847,3.847,0,0,1-.351.442,3.616,3.616,0,0,1-.689.582l-.384.244a.785.785,0,0,1-.329.124.8.8,0,0,1-.351-.033,2.883,2.883,0,0,1-.273-.162,2.568,2.568,0,0,1-.432-.452,1.552,1.552,0,0,1-.188-.325.652.652,0,0,1,.12-.612c.068-.081.14-.172.221-.276q.278-.366.559-.8a8.808,8.808,0,0,0,.494-.865,5.782,5.782,0,0,0,.3-.689q.215-.774.409-1.808t.325-1.982c.069-.446.133-.894.192-1.35a2.226,2.226,0,0,1,.325-1.063l.218-.13a2.093,2.093,0,0,1,.946-.214,1.445,1.445,0,0,1,.861.344l.153.15a2.22,2.22,0,0,1,0,1.079c-.055.351-.1.686-.153,1.011q-.126.776-.214,1.6a6.816,6.816,0,0,0-.042,1.3,2.644,2.644,0,0,0,.428,1.1A4.908,4.908,0,0,0,76.9,37.767a6.649,6.649,0,0,0,1.509.927,4.576,4.576,0,0,0,1.9.386c.231,0,.65-.019,1.229-.065a5.76,5.76,0,0,0,1.852-.474,5.089,5.089,0,0,0,3.037-3.986,6.23,6.23,0,0,0-.172-3.637,6.056,6.056,0,0,0-1-1.626,5.449,5.449,0,0,0-1.515-1.072,8.518,8.518,0,0,0-1.7-.631,4.514,4.514,0,0,0-1.833-.084,4.138,4.138,0,0,0-1.4.516c-.2.121-.4.234-.6.345a1.053,1.053,0,0,1-1.173-.14,2.668,2.668,0,0,1-.51-.907.5.5,0,0,1,.038-.282.5.5,0,0,1,.186-.215c.088-.052.186-.107.289-.159a7.293,7.293,0,0,1,.712-.345c.143-.059.3-.117.458-.169.254-.081.079-.293-.386-.52s-.855-.445-1.3-.712a9.146,9.146,0,0,1-2.044-1.658,8.554,8.554,0,0,1-1.551-2.37,7.81,7.81,0,0,1-.627-3.273,7.767,7.767,0,0,1,.842-3.856A6.784,6.784,0,0,1,75.2,11.433a7.428,7.428,0,0,1,2.584-1.141,11.225,11.225,0,0,1,2.393-.3,6.222,6.222,0,0,1,2.3.452A7.165,7.165,0,0,1,84,11.326a4.173,4.173,0,0,1,.6.591c.3.358.6.413.806.081a3.81,3.81,0,0,1,.422-.565,3.665,3.665,0,0,1,.751-.65c.137-.082.27-.156.4-.218a.851.851,0,0,1,.7,0l.279.175a3.192,3.192,0,0,1,.429.433,1.411,1.411,0,0,1,.189.3c.084.179-.072.5-.287.719-.143.14-.266.273-.376.4a7.579,7.579,0,0,0-.537.689,3.4,3.4,0,0,0-.39.755q-.15.409-.325.926a5.4,5.4,0,0,0-.2,1.4,12.575,12.575,0,0,0,.065,1.658c.015.332.038.666.068,1.005.049.516.023,1-.084,1.069a2.419,2.419,0,0,1-.423.211l-.227.085a.907.907,0,0,1-.267.055,2.536,2.536,0,0,1-.55-.036,1.239,1.239,0,0,1-.263-.084c-.072-.032-.142-.068-.211-.107a2.882,2.882,0,0,1-.364-.286,1.3,1.3,0,0,1-.146-.768V17.421c0-.4-.017-.761-.046-1.08a4.325,4.325,0,0,0-.28-1.118,4.789,4.789,0,0,0-.689-1.251,4.093,4.093,0,0,0-1.163-1.034,3.3,3.3,0,0,0-1.743-.429,7.763,7.763,0,0,0-2.006.257,5.065,5.065,0,0,0-1.742.842,3.981,3.981,0,0,0-1.229,1.573,5.9,5.9,0,0,0-.452,2.454,5.125,5.125,0,0,0,1.249,3.706,9.742,9.742,0,0,0,2.763,1.9c.465.224.793.224.715.029-.039-.1-.088-.221-.14-.355a3.155,3.155,0,0,1-.143-.477.656.656,0,0,1,.185-.651,1.433,1.433,0,0,1,.26-.091,2.856,2.856,0,0,1,.625-.061h.39c.214,0,.442.325.575.65a4.521,4.521,0,0,0,.286.585,9.362,9.362,0,0,0,.8,1.141,4.992,4.992,0,0,0,.634.65,9.777,9.777,0,0,0,1.566.975A8.507,8.507,0,0,1,88.1,29.091Zm-48.94,9.427a8.589,8.589,0,0,1-.559.875c-.3.419-.491.9-.325,1.111a3.27,3.27,0,0,0,.325.361,2.591,2.591,0,0,0,.325.276.774.774,0,0,0,.855-.185A5.272,5.272,0,0,0,40.2,40.5c.136-.163.266-.325.383-.485.2-.273.449-.3.6-.065a3,3,0,0,0,.309.4,6.444,6.444,0,0,0,.559.537c.1.071.2.139.3.2a.551.551,0,0,0,.591-.026c.1-.071.189-.146.277-.221a6.026,6.026,0,0,0,.409-.451,1.883,1.883,0,0,0,.163-.234.39.39,0,0,0,.045-.212.379.379,0,0,0-.078-.2l-.153-.15c-.2-.2-.4-.416-.6-.65a4.056,4.056,0,0,1-.562-.862,4.938,4.938,0,0,1-.407-1.3,10.113,10.113,0,0,1-.153-1.95V33.281a4.608,4.608,0,0,1,.261-1.658,5.019,5.019,0,0,1,.6-1.144A4.944,4.944,0,0,1,43.165,30c.254-.251.452-.559.394-.725a2.079,2.079,0,0,0-.124-.3,2.148,2.148,0,0,0-.257-.455,1.4,1.4,0,0,0-.172-.189.726.726,0,0,0-.352-.037.711.711,0,0,0-.327.135c-.238.159-.4-.091-.41-.611l-.033-3.066a4.126,4.126,0,0,1,.582-2.113,9.03,9.03,0,0,1,.563-.848,1.105,1.105,0,0,0,.071-1.434,1.194,1.194,0,0,0-1.5.14c-.12.123-.237.25-.348.383-.325.4-.65.576-.79.355a3.52,3.52,0,0,0-.3-.384,6.3,6.3,0,0,0-.56-.536c-.1-.072-.2-.14-.3-.2a.554.554,0,0,0-.588.023c-.1.075-.189.146-.276.221q-.215.214-.41.429a1.361,1.361,0,0,0-.166.225.343.343,0,0,0,.017.38l.126.13c.2.2.4.416.6.65a3.809,3.809,0,0,1,.559.881,5.471,5.471,0,0,1,.41,1.317,10.361,10.361,0,0,1,.149,1.95v1.43c0,.517-.14.781-.325.6a2.214,2.214,0,0,0-.364-.3l-.146-.068a.466.466,0,0,0-.381.071,1.377,1.377,0,0,0-.2.169,1.951,1.951,0,0,0-.325.452,2.639,2.639,0,0,0-.14.306c-.065.172.24.575.578.975a6.538,6.538,0,0,1,.7.975,6.183,6.183,0,0,1,.6,3.059v2.412a4.225,4.225,0,0,1-.569,2.133ZM67.731,21.734c-.12.241-.2.465-.087.553l.2.156a2.036,2.036,0,0,0,.433.228,1.131,1.131,0,0,0,.263.068.884.884,0,0,0,.585-.247c.091-.088.182-.189.279-.3a3.882,3.882,0,0,0,.56-.9,5.182,5.182,0,0,0,.351-1.082,2.832,2.832,0,0,0,.029-1.066,1.378,1.378,0,0,0-.556-.9A1.328,1.328,0,0,0,68.732,18a1.266,1.266,0,0,0-.881.543,1.374,1.374,0,0,0-.188,1.03,1.947,1.947,0,0,0,.091.345,2.131,2.131,0,0,1,.27.835,2.272,2.272,0,0,1-.1.53,3.2,3.2,0,0,1-.189.462ZM48.21,14.479a7.334,7.334,0,0,1-.4.617.881.881,0,0,0-.055,1.093.887.887,0,0,0,1.131-.147,4.061,4.061,0,0,0,.465-.6l.088-.13a.1.1,0,0,1,.032-.04.088.088,0,0,1,.049-.015.084.084,0,0,1,.049.015.092.092,0,0,1,.033.04l.081.136a2.445,2.445,0,0,0,.276.394,3.561,3.561,0,0,0,.4.4,1.889,1.889,0,0,0,.208.134.415.415,0,0,0,.419-.036l.2-.159c.1-.108.208-.218.3-.325a1.009,1.009,0,0,0,.113-.163.27.27,0,0,0,0-.283l-.091-.1c-.152-.153-.3-.325-.455-.487a2.978,2.978,0,0,1-.425-.651,3.859,3.859,0,0,1-.326-.975,7.913,7.913,0,0,1-.113-1.466V10.555a3.467,3.467,0,0,1,.2-1.261,3.754,3.754,0,0,1,.458-.868,4.02,4.02,0,0,1,.3-.354c.176-.186.325-.417.273-.534a1.8,1.8,0,0,0-.088-.208,1.659,1.659,0,0,0-.191-.325.939.939,0,0,0-.114-.13.35.35,0,0,0-.325,0,1.363,1.363,0,0,0-.186.114l-.152.107c-.085.062-.153-.325-.153-.829V4.148a3.143,3.143,0,0,1,.442-1.606,5.855,5.855,0,0,1,.41-.614c.25-.325.435-.67.325-.81a1.4,1.4,0,0,0-.215-.227,1.65,1.65,0,0,0-.3-.2c-.179-.1-.611.045-.9.348a4.481,4.481,0,0,0-.472.591l-.084.124a.091.091,0,0,1-.033.037.086.086,0,0,1-.094,0,.091.091,0,0,1-.033-.037l-.081-.127a2.759,2.759,0,0,0-.292-.38,4.456,4.456,0,0,0-.413-.4L48.249.7a.372.372,0,0,0-.4,0,3.143,3.143,0,0,0-.325.3l-.15.162a1.215,1.215,0,0,0-.114.153c-.055.091.017.3.117.475a2.424,2.424,0,0,1,.166.325,1.657,1.657,0,0,1,.117.65,2.648,2.648,0,0,1-.1.65c-.065.244-.15.543-.26.926s-.29.846-.521,1.509l-.744,2.123q-.39,1.1-.731,2.09c-.16.461-.29.835-.391,1.115l-.078.211c-.042.117-.123.124-.178,0l-.1-.2c-.036-.072-.078-.166-.137-.29-.162-.357-.325-.767-.5-1.216s-.325-.91-.488-1.365a3.606,3.606,0,0,1-.227-1.05,3.514,3.514,0,0,1,.065-.7,3.865,3.865,0,0,1,.162-.608c.039-.091.081-.175.12-.254a.425.425,0,0,0,.033-.386.894.894,0,0,0-.111-.127,3.134,3.134,0,0,0-.273-.241.843.843,0,0,0-.175-.1.3.3,0,0,0-.183.012.307.307,0,0,0-.142.114,1.666,1.666,0,0,0-.117.205l-.1.2c-.055.11-.133.1-.179,0l-.078-.212a7.289,7.289,0,0,1-.26-.832,4.717,4.717,0,0,1-.114-1.047,3.107,3.107,0,0,1,.179-1.05,2.11,2.11,0,0,1,.231-.451.715.715,0,0,0-.091-.9.906.906,0,0,0-1.131.16,4.422,4.422,0,0,0-.475.591l-.081.124a.091.091,0,0,1-.034.036.088.088,0,0,1-.1,0,.084.084,0,0,1-.034-.036l-.081-.127a2.738,2.738,0,0,0-.289-.38c-.153-.16-.293-.293-.417-.4L39.326.712a.391.391,0,0,0-.416,0l-.195.156c-.107.107-.208.214-.309.325a.99.99,0,0,0-.11.153.236.236,0,0,0-.032.14.241.241,0,0,0,.054.133l.1.1c.153.156.306.325.456.487a3.117,3.117,0,0,1,.425.651,3.817,3.817,0,0,1,.325.975A8,8,0,0,1,39.742,5.3v.913c0,.507-.071.852-.162.764l-.163-.156-.049-.042a2.019,2.019,0,0,0-.24-.192.743.743,0,0,0-.088-.058.322.322,0,0,0-.141.013.326.326,0,0,0-.122.071,1.423,1.423,0,0,0-.146.133,1.385,1.385,0,0,0-.238.326,1.336,1.336,0,0,0-.1.217.593.593,0,0,0,.044.273.569.569,0,0,0,.164.221c.088.091.176.182.261.28a3.875,3.875,0,0,1,.49.7,3.777,3.777,0,0,1,.361.975,5.92,5.92,0,0,1,.13,1.34V12.9a3.15,3.15,0,0,1-.442,1.625c-.133.224-.266.432-.4.618a.913.913,0,0,0-.081,1.082.735.735,0,0,0,.887.111,2.432,2.432,0,0,0,.309-.325,5.891,5.891,0,0,0,.4-.559l.084-.137a.091.091,0,0,1,.032-.043.089.089,0,0,1,.1,0,.091.091,0,0,1,.032.043l.081.137a2.265,2.265,0,0,0,.29.393,4.623,4.623,0,0,0,.416.4l.208.143a.39.39,0,0,0,.419,0,2.376,2.376,0,0,0,.2-.156c.107-.1.209-.212.306-.325a.991.991,0,0,0,.11-.163.247.247,0,0,0,.034-.143.255.255,0,0,0-.053-.137l-.1-.107c-.153-.149-.306-.325-.455-.487a3.139,3.139,0,0,1-.43-.651,3.858,3.858,0,0,1-.308-.975,7.586,7.586,0,0,1-.117-1.466V8.735c0-.52.084-.956.188-.976s.241.108.325.28c.042.1.085.208.127.325l.748,1.83c.256.65.51,1.255.76,1.847.1.237.192.461.283.669.156.368.293.651.3.651a.247.247,0,0,1,.039.074l.029.075a2.506,2.506,0,0,0,.3.65.668.668,0,0,0,.426.088,1.866,1.866,0,0,1,.3,0h.02a.111.111,0,0,0,.061-.018.122.122,0,0,0,.043-.047,1.841,1.841,0,0,0,.156-.348l.292-.777.325-.845a2.789,2.789,0,0,1,.478-.709,7.586,7.586,0,0,1,.6-.6c.113-.1.234-.205.357-.3a2.9,2.9,0,0,0,.39-.325,1.305,1.305,0,0,0,.023-.137v-.081a1.091,1.091,0,0,0,.016-.221,1.361,1.361,0,0,0-.016-.221.671.671,0,0,0-.029-.147.2.2,0,0,0-.071-.1A.191.191,0,0,0,47.6,9.33h-.3a.1.1,0,0,1-.051,0,.085.085,0,0,1-.04-.03.082.082,0,0,1-.019-.047A.083.083,0,0,1,47.2,9.2l.052-.147c.2-.543.381-1.056.54-1.524l.263-.781c.146-.432.348-.77.452-.754s.189.452.189.976v5.922a3.154,3.154,0,0,1-.482,1.593ZM17.491,40.963a5.6,5.6,0,0,0,.562-.65q.293-.4.585-.868c.273-.439.608-.5.829-.15a5.4,5.4,0,0,0,.439.611c.3.358.566.65.8.881.136.14.276.267.416.387a.669.669,0,0,0,.773.094c.111-.088.215-.175.325-.263a3.092,3.092,0,0,0,.5-.54,1.971,1.971,0,0,0,.2-.325c.091-.185-.114-.588-.407-.894-.179-.185-.351-.37-.52-.556a5.1,5.1,0,0,1-.884-1.42,10.024,10.024,0,0,1-.624-2.276,20.031,20.031,0,0,1-.228-2.789,3.222,3.222,0,0,1,.553-1.69l1.053-1.424,1.531-2.068c.325-.416.715-.364.91.117q.768,1.893,1.33,3.251.686,1.682,1.164,2.78c.325.731.559,1.323.731,1.765s.3.819.387,1.121a5.287,5.287,0,0,1,.172.8,6.592,6.592,0,0,1,.046.819,3.255,3.255,0,0,1-.26,1.4c-.085.179-.179.351-.28.52a.977.977,0,0,0-.1.878c.075.117.159.24.254.367a1.573,1.573,0,0,0,.468.41.921.921,0,0,0,1.04-.238c.153-.165.3-.325.452-.516a2.556,2.556,0,0,0,.4-.68c.169-.406.471-.471.809-.143a8.144,8.144,0,0,0,.651.566c.386.3.725.552,1.014.754a3.644,3.644,0,0,0,.455.289.85.85,0,0,0,.822,0c.111-.078.215-.162.325-.247a3.145,3.145,0,0,0,.475-.5,1,1,0,0,0,.215-.624v-.065a4.338,4.338,0,0,0-.651-.527c-.214-.153-.429-.325-.65-.484A9.945,9.945,0,0,1,32.181,37.5a14.544,14.544,0,0,1-1.443-2.026,22.974,22.974,0,0,1-1.509-3.059q-.649-1.549-1.141-2.779c-.325-.819-.705-1.736-1.121-2.757q-.442-1.084-.878-2.165A1.835,1.835,0,0,1,26.3,23.09q1.131-1.5,2.083-2.783,1.183-1.593,1.626-2.2,1.254-1.626,2.392-2.971A11,11,0,0,1,34.4,13.325c.423-.3.787-.592.787-.686v-.172a1.217,1.217,0,0,0-.163-.615c-.182-.3-.845-.325-1.316-.123-.286.13-.586.282-.891.458A8.8,8.8,0,0,0,31.3,13.328c-.384.345-.67.371-.732.039a2.274,2.274,0,0,0-.185-.579,3.332,3.332,0,0,0-.54-.819,2.43,2.43,0,0,0-.383-.325.647.647,0,0,0-.335-.127.638.638,0,0,0-.351.069,2.13,2.13,0,0,0-.221.234,3.348,3.348,0,0,0-.432.539c-.072.111-.143.225-.208.345a.74.74,0,0,0,.081.718c.088.117.172.238.257.358a1.655,1.655,0,0,1,.26.975,4.494,4.494,0,0,1-.563,1.834A24.077,24.077,0,0,1,25.878,19.8c-.172.257-.452.65-.839,1.141S24.2,22.03,23.7,22.706s-1.05,1.4-1.625,2.175c-.4.533-.813,1.073-1.223,1.626-.325.412-.565.325-.565-.189V18.123A5.956,5.956,0,0,1,20.5,16.53a8.054,8.054,0,0,1,.582-1.489,8.381,8.381,0,0,1,.8-1.271c.136-.175.273-.325.409-.491a.909.909,0,0,0-.12-1.2,2.873,2.873,0,0,0-.253-.215,1.215,1.215,0,0,0-1.46.095,6.535,6.535,0,0,0-.559.65c-.2.26-.4.539-.588.835-.283.433-.651.511-.875.169-.14-.211-.286-.409-.432-.6a11.239,11.239,0,0,0-.777-.884c-.137-.136-.267-.263-.4-.38a.636.636,0,0,0-.357-.175.629.629,0,0,0-.39.074c-.111.088-.218.179-.326.267a4.271,4.271,0,0,0-.516.517,1.593,1.593,0,0,0-.212.3c-.1.179.065.565.325.832l.468.481a5.563,5.563,0,0,1,.927,1.271,7.144,7.144,0,0,1,.689,1.98,15.016,15.016,0,0,1,.26,3.059v3.078c0,.517-.136.784-.325.6-.114-.12-.224-.227-.325-.325-.2-.185-.374-.351-.517-.494-.084-.071-.169-.136-.253-.2a.443.443,0,0,0-.511,0c-.078.065-.153.133-.227.205a2.644,2.644,0,0,0-.387.494,1.747,1.747,0,0,0-.163.367c-.068.208.143.605.429.887.169.166.325.326.511.514a5.155,5.155,0,0,1,.9,1.336,8.44,8.44,0,0,1,.625,1.895,12.406,12.406,0,0,1,.237,2.6v3.446a5.917,5.917,0,0,1-.215,1.593,7.853,7.853,0,0,1-.582,1.485,9.357,9.357,0,0,1-.8,1.3c-.137.182-.273.351-.41.507a.747.747,0,0,0-.146.894,3.765,3.765,0,0,0,.361.386,2.694,2.694,0,0,0,.458.345,1.107,1.107,0,0,0,1.122-.309ZM61.5,38.518a10.066,10.066,0,0,1-.575.878,1.134,1.134,0,0,0-.035,1.453h.016a1.172,1.172,0,0,0,1.495-.12,5.057,5.057,0,0,0,.361-.413c.325-.407.624-.576.77-.325a3.536,3.536,0,0,0,.3.4,4.7,4.7,0,0,0,.536.539c.1.069.2.134.293.189a.593.593,0,0,0,.3.052.586.586,0,0,0,.29-.107c.1-.072.189-.147.276-.221q.216-.216.41-.452a1.875,1.875,0,0,0,.162-.234.4.4,0,0,0,0-.413l-.13-.15c-.2-.2-.4-.416-.6-.65a4.024,4.024,0,0,1-.559-.861,5.077,5.077,0,0,1-.41-1.3,10.361,10.361,0,0,1-.149-1.95V33.284a4.61,4.61,0,0,1,.256-1.658,5.074,5.074,0,0,1,.605-1.144,5.25,5.25,0,0,1,.4-.478c.237-.25.426-.565.367-.731a2.334,2.334,0,0,0-.127-.3,2.037,2.037,0,0,0-.256-.455,1.188,1.188,0,0,0-.173-.188.711.711,0,0,0-.676.1c-.24.159-.4-.091-.4-.611V24.754a4.1,4.1,0,0,1,.581-2.113,7.809,7.809,0,0,1,.586-.868c.324-.406.555-.864.406-1.063a1.983,1.983,0,0,0-.3-.325A2.238,2.238,0,0,0,65.1,20.1a1.23,1.23,0,0,0-1.174.4c-.12.124-.237.251-.344.384-.325.4-.651.575-.794.354a3.032,3.032,0,0,0-.3-.383,6.444,6.444,0,0,0-.559-.537c-.1-.071-.2-.139-.3-.2a.54.54,0,0,0-.569,0,4.361,4.361,0,0,0-.461.409l-.205.218a1.5,1.5,0,0,0-.163.225.746.746,0,0,0,.156.65,3.22,3.22,0,0,1,.225.432,2.2,2.2,0,0,1,.149.842,3.313,3.313,0,0,1-.13.839c-.084.325-.2.741-.344,1.228q-.216.651-.69,2t-.975,2.822q-.516,1.468-.975,2.779c-.13.377-.244.709-.345.975-.172.491-.442.732-.546.52-.056-.106-.118-.236-.185-.39q-.325-.711-.67-1.625c-.227-.605-.445-1.206-.65-1.811a4.789,4.789,0,0,1-.3-1.378,5.147,5.147,0,0,1,.084-.927,4.884,4.884,0,0,1,.218-.8c.052-.124.107-.241.163-.348a.608.608,0,0,0,.042-.546,1.751,1.751,0,0,0-.163-.182,3.437,3.437,0,0,0-.367-.325.966.966,0,0,0-.257-.143c-.149-.065-.465.1-.621.39s-.367.2-.52-.237a8.1,8.1,0,0,1-.237-.807,6.027,6.027,0,0,1-.153-1.378,3.944,3.944,0,0,1,.237-1.378,2.762,2.762,0,0,1,.309-.608.977.977,0,0,0-.133-1.242,1.229,1.229,0,0,0-1.508.137,4.676,4.676,0,0,0-.348.383c-.325.4-.65.576-.793.355a3.142,3.142,0,0,0-.306-.384,6.287,6.287,0,0,0-.559-.536c-.1-.072-.2-.14-.3-.2a.561.561,0,0,0-.592.023c-.094.075-.188.146-.276.221q-.215.214-.409.429a1.543,1.543,0,0,0-.163.224.355.355,0,0,0,.036.4l.149.15c.2.2.4.416.6.65a4.056,4.056,0,0,1,.562.862,5.058,5.058,0,0,1,.41,1.3A10.361,10.361,0,0,1,50.2,26.3v1.431c0,.516-.084.835-.2.715a2.905,2.905,0,0,0-.211-.208,3.643,3.643,0,0,0-.326-.257.723.723,0,0,0-.143-.088.477.477,0,0,0-.205.018.487.487,0,0,0-.178.1,2.58,2.58,0,0,0-.208.182,2.142,2.142,0,0,0-.325.433,1.68,1.68,0,0,0-.143.325.813.813,0,0,0,.283.689c.123.12.24.247.354.377a5.149,5.149,0,0,1,.65.927,4.765,4.765,0,0,1,.475,1.271,7.928,7.928,0,0,1,.172,1.765v2.412a4.126,4.126,0,0,1-.582,2.113,10.11,10.11,0,0,1-.575.878,1.17,1.17,0,0,0-.062,1.443,1.032,1.032,0,0,0,1.242.162,3.481,3.481,0,0,0,.429-.438,6.173,6.173,0,0,0,.377-.514c.195-.293.432-.325.585-.1a3.064,3.064,0,0,0,.3.416,6.444,6.444,0,0,0,.559.537c.1.071.2.139.3.2a.548.548,0,0,0,.3.073.555.555,0,0,0,.291-.1c.1-.071.188-.146.276-.221a6.04,6.04,0,0,0,.41-.451,1.626,1.626,0,0,0,.162-.234.373.373,0,0,0,.046-.212.379.379,0,0,0-.078-.2l-.15-.15c-.2-.2-.4-.416-.605-.65a4.044,4.044,0,0,1-.559-.862,5.068,5.068,0,0,1-.409-1.3,10.281,10.281,0,0,1-.153-1.95V29.351c0-.517.143-.543.325-.059.12.306.254.651.406,1.015l.992,2.434c.344.849.679,1.668,1.011,2.458.169.4.325.767.465,1.1.2.478.373.852.373.839s.078.2.192.464a1.739,1.739,0,0,0,.241.462.916.916,0,0,0,.6.13,2.772,2.772,0,0,1,.387.02.2.2,0,0,0,.215-.108,2.32,2.32,0,0,0,.214-.474q.133-.342.39-1.034l.43-1.118a3.612,3.612,0,0,1,.624-.927,10,10,0,0,1,.8-.8c.156-.143.326-.28.482-.407a3.324,3.324,0,0,0,.526-.458,1.54,1.54,0,0,0,.033-.192v-.107a1.7,1.7,0,0,0,.023-.3,2.349,2.349,0,0,0-.023-.3,1.772,1.772,0,0,0-.043-.217c-.032-.117-.24-.215-.455-.2s-.24-.325-.065-.809.361-1.021.52-1.489c.244-.715.482-1.421.712-2.11,0,0,.085-.27.192-.6s.2-.182.2.325v9.485a4.113,4.113,0,0,1-.566,2.156Zm5.819-24.706a1.157,1.157,0,0,0,.326-.845,1.235,1.235,0,0,0-.326-.891,1.192,1.192,0,0,0-2.045.891,1.177,1.177,0,0,0,.079.455,1.165,1.165,0,0,0,.247.39,1.259,1.259,0,0,0,1.719,0ZM60.879,8.4l.091.094a6.051,6.051,0,0,1,.913,1.187,14.179,14.179,0,0,1,.65,1.277l.075.169c.042.095.12.1.172,0l.095-.156a2.311,2.311,0,0,1,.324-.432l.124-.114a.241.241,0,0,1,.13-.039.239.239,0,0,1,.13.039,1.263,1.263,0,0,1,.215.247c.032.046.065.1.1.153a1.7,1.7,0,0,1,.117.234.754.754,0,0,1,.071.3,2.338,2.338,0,0,0-.344.6,2.016,2.016,0,0,0-.095.65,2.9,2.9,0,0,0,.381,1.56,6.706,6.706,0,0,0,.7.975l.075.075a.324.324,0,0,1,.044.163.318.318,0,0,1-.044.162,1.472,1.472,0,0,1-.117.218,2.129,2.129,0,0,1-.3.38c-.062.062-.123.124-.192.186s-.358.022-.546-.176l-.325-.364c-.192-.234-.4-.507-.614-.806a6.75,6.75,0,0,1-.579-1,8.758,8.758,0,0,1-.485-1.3,11.041,11.041,0,0,0-.471-1.333,7.239,7.239,0,0,0-.7-1.271,4.511,4.511,0,0,0-1.04-1.06l-.045-.032a.1.1,0,0,0-.048-.011.1.1,0,0,0-.047.011l-.052.022a8.585,8.585,0,0,0-.929.455,2.538,2.538,0,0,0-.625.494,1.639,1.639,0,0,0-.325.582,2.516,2.516,0,0,0-.1.742v1.625a2.321,2.321,0,0,0,.182.923,3.929,3.929,0,0,0,.442.787,4.655,4.655,0,0,0,.556.65c.084.082.165.157.243.224.137.124.072.485-.214.738a.976.976,0,0,1-1.037.1,3.092,3.092,0,0,1-.413-.325,3.254,3.254,0,0,1-.471-.569l-.078-.12a.092.092,0,0,0-.034-.034.088.088,0,0,0-.092,0,.092.092,0,0,0-.034.034l-.081.114a3.842,3.842,0,0,1-.325.416,3.283,3.283,0,0,1-.465.416l-.24.175a.39.39,0,0,1-.449,0l-.2-.165c-.1-.1-.2-.215-.3-.325a.792.792,0,0,1-.107-.173c-.049-.1.107-.364.325-.569l.37-.373a2.4,2.4,0,0,0,.446-.651,4.3,4.3,0,0,0,.325-.975,6.694,6.694,0,0,0,.13-1.433,6.521,6.521,0,0,0-.13-1.4,4.39,4.39,0,0,0-.345-1.015,3.009,3.009,0,0,0-.507-.738c-.091-.1-.185-.191-.279-.282-.156-.153-.264-.374-.218-.494a1.809,1.809,0,0,1,.1-.215,1.461,1.461,0,0,1,.238-.325.968.968,0,0,1,.139-.117.328.328,0,0,1,.127-.055.317.317,0,0,1,.137,0,1.773,1.773,0,0,1,.227.133l.127.088.068.055.16.133c.087.075.159-.286.159-.8V3.264a1.306,1.306,0,0,0-.182-.6,3.389,3.389,0,0,0-.41-.591c-.084-.1-.178-.212-.273-.325-.159-.169-.286-.377-.247-.472a.64.64,0,0,1,.094-.162h0a1.842,1.842,0,0,1,.218-.293,1.007,1.007,0,0,1,.156-.143A.642.642,0,0,1,55.4.629a.651.651,0,0,1,.3.1,2.689,2.689,0,0,1,.364.283,4.937,4.937,0,0,1,.585.65l.068.091a.086.086,0,0,0,.033.027.08.08,0,0,0,.041.01.086.086,0,0,0,.041-.01.091.091,0,0,0,.032-.027l.081-.084A3.923,3.923,0,0,1,59.705.465a4.359,4.359,0,0,1,1.089.162,4.283,4.283,0,0,1,1.174.514,3.524,3.524,0,0,1,.975.93,3.4,3.4,0,0,1,.533,1.2l.029.12a.105.105,0,0,0,.018.042.088.088,0,0,0,.036.027.091.091,0,0,0,.044.008.082.082,0,0,0,.042-.015l.107-.058.065-.033a.933.933,0,0,0,.111-.052c.062-.032.146-.084.2-.107a.322.322,0,0,1,.243.029.8.8,0,0,1,.137.107,1.915,1.915,0,0,1,.254.326,1.024,1.024,0,0,1,.113.227c.049.133-.22.384-.513.65a2.812,2.812,0,0,0-.458.54q-.4.613-.732,1.235a4.54,4.54,0,0,1-.851,1.125,5.352,5.352,0,0,1-1.275.868l-.117.062a.094.094,0,0,0-.028.021.073.073,0,0,0-.017.031ZM61.4,6.056a2.93,2.93,0,0,0,.591-1.889,2.093,2.093,0,0,0-.676-1.68,2.4,2.4,0,0,0-1.625-.6,2.076,2.076,0,0,0-1.8.891,4.162,4.162,0,0,0-.65,2.454V7.47c0,.52.068.9.149.845l.15-.094a7.989,7.989,0,0,1,.848-.462h.026a.115.115,0,0,0,.043-.039l.016-.026a1.512,1.512,0,0,1,.182-.247c.045-.045.088-.091.133-.13a.4.4,0,0,1,.133-.069.381.381,0,0,1,.15-.012l.13.029a.6.6,0,0,1,.143.052l.042.023a.114.114,0,0,0,.085,0h.045A4.683,4.683,0,0,0,61.4,6.079Z" transform="translate(-14.981 -0.465)"/>
</svg>
