<?xml version="1.0" encoding="UTF-8"?>
<svg id="Layer_1" xmlns="http://www.w3.org/2000/svg" version="1.1" viewBox="0 0 74.037 41.07">
  <!-- Generator: Adobe Illustrator 29.5.0, SVG Export Plug-In . SVG Version: 2.1.0 Build 137)  -->
  <defs>
    <style>
      .st0 {
        fill: #4f2c1d;
      }
    </style>
  </defs>
  <path class="st0" d="M73.119,28.626c.913,1.807,1.172,3.874.735,5.851-.194,1.19-.65,2.323-1.335,3.316-1.119,1.575-2.803,2.656-4.7,3.017-.823.166-1.66.253-2.5.26-.859.009-1.713-.138-2.52-.433-.687-.252-1.355-.553-2-.9-.364-.206-.715-.435-1.05-.686-.413-.325-.832-.38-1.011-.124-.106.156-.223.303-.351.442-.204.222-.436.418-.689.582l-.384.244c-.099.066-.211.108-.329.124-.118.015-.238.004-.351-.033-.094-.049-.185-.103-.273-.162-.162-.133-.307-.284-.432-.452-.076-.1-.139-.209-.188-.325-.066-.211-.021-.442.12-.612.068-.081.14-.172.221-.276.185-.244.372-.511.559-.8.181-.279.346-.568.494-.865.115-.223.215-.453.3-.689.143-.516.28-1.119.409-1.808.129-.689.238-1.35.325-1.982.069-.446.133-.894.192-1.35.017-.376.129-.742.325-1.063l.218-.13c.294-.144.618-.218.946-.214.317.017.62.138.861.344l.153.15c.089.354.089.725,0,1.079-.055.351-.1.686-.153,1.011-.084.517-.155,1.051-.214,1.6-.055.431-.069.866-.042,1.3.058.394.204.77.428,1.1.281.439.631.831,1.036,1.16.459.375.967.687,1.509.927.598.263,1.246.395,1.9.386.231,0,.65-.019,1.229-.065.639-.054,1.265-.214,1.852-.474,1.642-.704,2.794-2.216,3.037-3.986.306-1.202.246-2.469-.172-3.637-.245-.591-.583-1.14-1-1.626-.44-.441-.952-.804-1.515-1.072-.543-.27-1.112-.482-1.7-.631-.599-.153-1.223-.182-1.833-.084-.494.086-.968.261-1.4.516-.2.121-.4.234-.6.345-.383.198-.847.142-1.173-.14-.228-.266-.401-.574-.51-.907-.015-.096-.002-.194.038-.282.04-.088.104-.163.186-.215.088-.052.186-.107.289-.159.231-.128.469-.243.712-.345.143-.059.3-.117.458-.169.254-.081.079-.293-.386-.52s-.855-.445-1.3-.712c-.758-.451-1.446-1.01-2.044-1.658-.645-.698-1.169-1.499-1.551-2.37-.442-1.033-.656-2.15-.627-3.273-.056-1.336.234-2.665.842-3.856.497-.925,1.202-1.721,2.059-2.327.78-.542,1.658-.929,2.584-1.141.785-.186,1.587-.286,2.393-.3.788.004,1.569.157,2.3.452.542.23,1.054.527,1.523.882.219.176.42.374.6.591.3.358.6.413.806.081.123-.201.264-.39.422-.565.22-.25.472-.468.751-.65.137-.082.27-.156.4-.218.223-.1.477-.1.7,0l.279.175c.156.13.3.275.429.433.075.092.139.192.189.3.084.179-.072.5-.287.719-.143.14-.266.273-.376.4-.192.219-.371.449-.537.689-.161.234-.292.488-.39.755-.1.273-.208.581-.325.926-.128.456-.195.927-.2,1.4-.015.553.007,1.107.065,1.658.015.332.038.666.068,1.005.049.516.023,1-.084,1.069-.134.084-.275.155-.423.211l-.227.085c-.086.032-.176.05-.267.055-.184.008-.369-.004-.55-.036-.091-.018-.179-.046-.263-.084-.072-.032-.142-.068-.211-.107-.129-.085-.251-.181-.364-.286-.126-.235-.177-.503-.146-.768v-1.743c0-.4-.017-.761-.046-1.08-.043-.383-.137-.759-.28-1.118-.166-.449-.398-.871-.689-1.251-.318-.416-.713-.767-1.163-1.034-.53-.301-1.134-.45-1.743-.429-.677-.002-1.351.084-2.006.257-.629.166-1.221.452-1.742.842-.537.411-.96.953-1.229,1.573-.324.776-.478,1.613-.452,2.454-.09,1.352.359,2.684,1.249,3.706.804.788,1.739,1.431,2.763,1.9.465.224.793.224.715.029-.039-.1-.088-.221-.14-.355-.06-.155-.108-.314-.143-.477-.064-.235.008-.485.185-.651.084-.039.171-.069.26-.091.205-.043.415-.064.625-.061h.39c.214,0,.442.325.575.65.081.202.177.397.286.585.238.4.505.781.8,1.141.191.235.403.453.634.65.49.374,1.014.7,1.566.975,1.528.762,2.791,1.966,3.626,3.455ZM24.179,38.053c-.169.303-.355.595-.559.875-.3.419-.491.9-.325,1.111.099.128.208.249.325.361.101.101.209.193.325.276.296.121.636.047.855-.185.148-.144.288-.296.419-.456.136-.163.266-.325.383-.485.2-.273.449-.3.6-.065.092.142.195.276.309.4.175.19.362.369.559.537.1.071.2.139.3.2.185.107.416.097.591-.026.1-.071.189-.146.277-.221.144-.143.28-.294.409-.451.06-.074.115-.152.163-.234.035-.065.05-.139.045-.212-.006-.073-.033-.142-.078-.2l-.153-.15c-.2-.2-.4-.416-.6-.65-.223-.262-.412-.552-.562-.862-.195-.412-.332-.85-.407-1.3-.114-.644-.165-1.297-.153-1.95v-1.55c-.015-.564.073-1.126.261-1.658.15-.406.352-.79.6-1.144.13-.169.271-.329.421-.479.254-.251.452-.559.394-.725-.033-.103-.075-.203-.124-.3-.067-.162-.153-.314-.257-.455-.051-.068-.109-.131-.172-.189-.112-.041-.233-.054-.352-.037-.119.017-.231.063-.327.135-.238.159-.4-.091-.41-.611l-.033-3.066c0-.744.201-1.474.582-2.113.172-.293.36-.576.563-.848.373-.395.403-1.004.071-1.434-.47-.314-1.096-.256-1.5.14-.12.123-.237.25-.348.383-.325.4-.65.576-.79.355-.091-.135-.191-.263-.3-.384-.175-.19-.363-.369-.56-.536-.1-.072-.2-.14-.3-.2-.184-.106-.413-.097-.588.023-.1.075-.189.146-.276.221-.143.143-.28.286-.41.429-.063.069-.119.145-.166.225-.072.118-.065.268.017.38l.126.13c.2.2.4.416.6.65.226.267.414.563.559.881.192.42.329.862.41,1.317.111.644.161,1.297.149,1.95v1.43c0,.517-.14.781-.325.6-.11-.113-.232-.213-.364-.3l-.146-.068c-.131-.033-.27-.007-.381.071-.072.05-.139.106-.2.169-.129.134-.239.287-.325.452-.053.099-.1.201-.14.306-.065.172.24.575.578.975.263.303.497.629.7.975.458.952.665,2.005.6,3.059v2.412c.003.749-.194,1.485-.569,2.133l.009-.017ZM52.75,21.269c-.12.241-.2.465-.087.553l.2.156c.135.093.28.17.433.228.085.033.173.056.263.068.219-.007.427-.095.585-.247.091-.088.182-.189.279-.3.227-.273.415-.576.56-.9.156-.347.274-.71.351-1.082.077-.35.087-.712.029-1.066-.058-.362-.258-.686-.556-.9-.301-.228-.685-.317-1.056-.244-.358.047-.678.245-.881.543-.196.305-.264.675-.188,1.03.02.118.05.233.091.345.147.257.239.541.27.835-.012.18-.046.358-.1.53-.051.159-.114.313-.189.462l-.004-.011ZM33.229,14.014c-.123.212-.256.418-.4.617-.27.307-.293.76-.055,1.093.363.232.84.17,1.131-.147.173-.185.329-.386.465-.6l.088-.13c.007-.016.018-.03.032-.04.014-.01.032-.015.049-.015.017,0,.035.005.049.015.015.01.026.024.033.04l.081.136c.079.14.171.272.276.394.123.144.256.277.4.4.066.049.136.094.208.134.136.065.296.051.419-.036l.2-.159c.1-.108.208-.218.3-.325.043-.05.081-.105.113-.163.053-.087.053-.196,0-.283l-.091-.1c-.152-.153-.3-.325-.455-.487-.17-.197-.312-.416-.425-.651-.152-.309-.261-.637-.326-.975-.083-.484-.121-.975-.113-1.466v-1.176c-.012-.429.056-.857.2-1.261.114-.308.268-.6.458-.868.093-.124.193-.242.3-.354.176-.186.325-.417.273-.534-.025-.071-.054-.141-.088-.208-.051-.115-.115-.224-.191-.325-.034-.047-.072-.09-.114-.13-.102-.053-.223-.053-.325,0-.065.033-.127.071-.186.114l-.152.107c-.085.062-.153-.325-.153-.829v-2.119c0-.565.153-1.12.442-1.606.124-.213.261-.418.41-.614.25-.325.435-.67.325-.81-.063-.083-.135-.16-.215-.227-.092-.077-.193-.144-.3-.2-.179-.1-.611.045-.9.348-.174.183-.332.381-.472.591l-.084.124c-.007.015-.019.028-.033.037-.029.019-.065.019-.094,0-.014-.009-.026-.022-.033-.037l-.081-.127c-.086-.135-.184-.262-.292-.38-.129-.142-.267-.276-.413-.4l-.222-.147c-.122-.078-.278-.078-.4,0-.115.092-.224.192-.325.3l-.15.162c-.042.048-.08.099-.114.153-.055.091.017.3.117.475.063.104.119.213.166.325.082.207.122.428.117.65-.006.22-.04.438-.1.65-.065.244-.15.543-.26.926-.11.383-.29.846-.521,1.509l-.744,2.123c-.26.733-.504,1.43-.731,2.09-.16.461-.29.835-.391,1.115l-.078.211c-.042.117-.123.124-.178,0l-.1-.2c-.036-.072-.078-.166-.137-.29-.162-.357-.325-.767-.5-1.216s-.325-.91-.488-1.365c-.128-.337-.204-.691-.227-1.05-.002-.235.02-.469.065-.7.037-.207.092-.41.162-.608.039-.091.081-.175.12-.254.072-.116.085-.26.033-.386-.033-.046-.07-.088-.111-.127-.086-.086-.177-.166-.273-.241-.054-.04-.113-.074-.175-.1-.061-.015-.125-.011-.183.012-.058.023-.107.063-.142.114-.044.065-.083.134-.117.205l-.1.2c-.055.11-.133.1-.179,0l-.078-.212c-.103-.272-.19-.55-.26-.832-.077-.344-.115-.695-.114-1.047-.001-.358.059-.713.179-1.05.059-.159.136-.31.231-.451.187-.284.149-.66-.091-.9-.367-.221-.839-.154-1.131.16-.175.183-.334.381-.475.591l-.081.124c-.008.015-.02.027-.034.036-.03.021-.07.021-.1,0-.015-.008-.027-.021-.034-.036l-.081-.127c-.085-.135-.182-.262-.289-.38-.153-.16-.293-.293-.417-.4l-.204-.147c-.127-.08-.289-.08-.416,0l-.195.156c-.107.107-.208.214-.309.325-.041.047-.078.099-.11.153-.025.042-.036.091-.032.14.004.049.023.095.054.133l.1.1c.153.156.306.325.456.487.168.198.311.417.425.651.152.309.261.637.325.975.084.485.124.976.118,1.468v.913c0,.507-.071.852-.162.764l-.163-.156-.049-.042c-.075-.07-.155-.134-.24-.192-.028-.021-.057-.041-.088-.058-.047-.006-.096-.002-.141.013-.045.014-.087.039-.122.071-.052.041-.1.085-.146.133-.095.096-.175.206-.238.326-.04.069-.073.142-.1.217-.007.093.008.187.044.273.036.086.092.162.164.221.088.091.176.182.261.28.189.215.353.449.49.7.165.307.286.635.361.975.094.44.138.89.13,1.34v1.822c.003.572-.15,1.133-.442,1.625-.133.224-.266.432-.4.618-.262.304-.294.743-.081,1.082.237.233.6.279.887.111.113-.099.216-.207.309-.325.144-.178.278-.365.4-.559l.084-.137c.006-.017.017-.032.032-.043.03-.02.07-.02.1,0,.015.011.026.026.032.043l.081.137c.082.141.179.273.29.393.13.142.269.275.416.4l.208.143c.128.081.291.081.419,0,.069-.048.136-.1.2-.156.107-.1.209-.212.306-.325.042-.051.079-.105.11-.163.026-.043.037-.093.034-.143-.004-.05-.022-.098-.053-.137l-.1-.107c-.153-.149-.306-.325-.455-.487-.17-.198-.314-.417-.43-.651-.145-.31-.249-.638-.308-.975-.086-.484-.126-.975-.117-1.466v-3.043c0-.52.084-.956.188-.976s.241.108.325.28c.042.1.085.208.127.325l.748,1.83c.256.65.51,1.255.76,1.847.1.237.192.461.283.669.156.368.293.651.3.651.017.022.03.047.039.074l.029.075c.068.23.169.449.3.65.128.076.278.107.426.088.1-.008.2-.008.3,0h.02c.022,0,.043-.006.061-.018.018-.012.033-.028.043-.047.064-.11.116-.227.156-.348l.292-.777.325-.845c.122-.259.283-.499.478-.709.189-.211.389-.411.6-.6.113-.1.234-.205.357-.3.139-.097.27-.205.39-.325.01-.045.018-.091.023-.137v-.081c.013-.073.018-.147.016-.221,0-.074-.005-.148-.016-.221-.004-.05-.014-.099-.029-.147-.013-.04-.037-.075-.071-.1-.038-.031-.086-.046-.135-.042h-.3c-.017.004-.034.004-.051,0-.016-.006-.03-.016-.04-.03-.011-.013-.018-.03-.019-.047-.003-.018,0-.037.01-.053l.052-.147c.2-.543.381-1.056.54-1.524l.263-.781c.146-.432.348-.77.452-.754s.189.452.189.976v5.922c-.015.565-.182,1.115-.482,1.593l-.004-.006ZM2.51,40.498c.204-.202.392-.419.562-.65.195-.267.39-.556.585-.868.273-.439.608-.5.829-.15.132.214.279.418.439.611.3.358.566.65.8.881.136.14.276.267.416.387.211.194.522.231.773.094.111-.088.215-.175.325-.263.188-.159.355-.341.5-.54.077-.102.144-.21.2-.325.091-.185-.114-.588-.407-.894-.179-.185-.351-.37-.52-.556-.371-.421-.669-.901-.884-1.42-.297-.731-.506-1.495-.624-2.276-.141-.923-.217-1.855-.228-2.789.022-.604.214-1.19.553-1.69l1.053-1.424,1.531-2.068c.325-.416.715-.364.91.117.512,1.262.955,2.346,1.33,3.251.457,1.121.845,2.048,1.164,2.78.325.731.559,1.323.731,1.765s.3.819.387,1.121c.078.262.135.529.172.8.032.272.048.545.046.819.018.48-.071.958-.26,1.4-.085.179-.179.351-.28.52-.171.26-.208.586-.1.878.075.117.159.24.254.367.127.166.286.306.468.41.362.15.779.054,1.04-.238.153-.165.3-.325.452-.516.168-.205.303-.434.4-.68.169-.406.471-.471.809-.143.207.2.424.389.651.566.386.3.725.552,1.014.754.144.107.296.204.455.289.256.141.566.141.822,0,.111-.078.215-.162.325-.247.176-.149.335-.316.475-.5.14-.178.216-.398.215-.624v-.065c-.199-.196-.418-.373-.651-.527-.214-.153-.429-.325-.65-.484-.506-.399-.972-.847-1.392-1.336-.538-.633-1.021-1.311-1.443-2.026-.578-.981-1.082-2.003-1.509-3.059-.433-1.033-.813-1.959-1.141-2.779-.325-.819-.705-1.736-1.121-2.757-.295-.723-.587-1.444-.878-2.165-.189-.544-.11-1.146.211-1.624.754-1,1.448-1.928,2.083-2.783.789-1.062,1.331-1.795,1.626-2.2.836-1.084,1.633-2.074,2.392-2.971.59-.683,1.261-1.292,1.999-1.811.423-.3.787-.592.787-.686v-.172c.001-.216-.055-.428-.163-.615-.182-.3-.845-.325-1.316-.123-.286.13-.586.282-.891.458-.545.325-1.054.707-1.517,1.141-.384.345-.67.371-.732.039-.035-.2-.098-.395-.185-.579-.139-.298-.321-.574-.54-.819-.116-.121-.244-.23-.383-.325-.097-.073-.214-.117-.335-.127-.121-.011-.243.013-.351.069-.079.072-.153.151-.221.234-.162.164-.307.345-.432.539-.072.111-.143.225-.208.345-.1.237-.069.509.081.718.088.117.172.238.257.358.186.29.277.631.26.975-.053.645-.246,1.27-.563,1.834-.604,1.123-1.296,2.197-2.07,3.211-.172.257-.452.65-.839,1.141s-.839,1.089-1.339,1.765-1.05,1.4-1.625,2.175c-.4.533-.813,1.073-1.223,1.626-.325.412-.565.325-.565-.189v-8.195c-.001-.538.07-1.074.213-1.593.144-.514.339-1.013.582-1.489.228-.447.496-.872.8-1.271.136-.175.273-.325.409-.491.269-.373.218-.888-.12-1.2-.08-.076-.165-.148-.253-.215-.453-.298-1.049-.259-1.46.095-.2.204-.387.421-.559.65-.2.26-.4.539-.588.835-.283.433-.651.511-.875.169-.14-.211-.286-.409-.432-.6-.243-.308-.503-.603-.777-.884-.137-.136-.267-.263-.4-.38-.097-.095-.222-.156-.357-.175-.135-.018-.271.008-.39.074-.111.088-.218.179-.326.267-.186.157-.359.33-.516.517-.082.091-.153.192-.212.3-.1.179.065.565.325.832l.468.481c.368.378.68.806.927,1.271.326.623.558,1.29.689,1.98.191,1.008.278,2.033.26,3.059v3.078c0,.517-.136.784-.325.6-.114-.12-.224-.227-.325-.325-.2-.185-.374-.351-.517-.494-.084-.071-.169-.136-.253-.2-.153-.108-.358-.108-.511,0-.078.065-.153.133-.227.205-.148.149-.278.315-.387.494-.068.116-.123.239-.163.367-.068.208.143.605.429.887.169.166.325.326.511.514.368.395.672.846.9,1.336.283.605.492,1.241.625,1.895.17.856.25,1.727.237,2.6v3.446c.001.538-.071,1.074-.215,1.593-.143.513-.338,1.011-.582,1.485-.231.454-.498.889-.8,1.3-.137.182-.273.351-.41.507-.244.231-.304.597-.146.894.111.137.232.266.361.386.14.131.293.247.458.345.402.118.837-.002,1.122-.309l.014.004ZM46.519,38.053c-.176.302-.368.596-.575.878-.361.412-.376,1.024-.035,1.453h.016c.462.326,1.091.275,1.495-.12.128-.131.248-.269.361-.413.325-.407.624-.576.77-.325.09.14.191.274.3.4.164.194.343.374.536.539.1.069.2.134.293.189.094.043.197.061.3.052.104-.009.205-.046.29-.107.1-.072.189-.147.276-.221.144-.144.281-.295.41-.452.06-.074.114-.152.162-.234.077-.127.077-.286,0-.413l-.13-.15c-.2-.2-.4-.416-.6-.65-.222-.262-.41-.551-.559-.861-.194-.413-.332-.85-.41-1.3-.111-.644-.161-1.297-.149-1.95v-1.549c-.017-.564.07-1.126.256-1.658.152-.406.355-.79.605-1.144.124-.167.257-.327.4-.478.237-.25.426-.565.367-.731-.035-.103-.078-.203-.127-.3-.065-.162-.152-.315-.256-.455-.051-.069-.109-.132-.173-.188-.228-.084-.483-.047-.676.1-.24.159-.4-.091-.4-.611v-3.065c-.002-.744.199-1.474.581-2.113.176-.302.371-.592.586-.868.324-.406.555-.864.406-1.063-.088-.119-.188-.228-.3-.325-.129-.111-.27-.206-.42-.285-.435-.088-.883.065-1.174.4-.12.124-.237.251-.344.384-.325.4-.651.575-.794.354-.09-.135-.19-.264-.3-.383-.175-.19-.362-.369-.559-.537-.1-.071-.2-.139-.3-.2-.174-.108-.395-.108-.569,0-.163.125-.317.262-.461.409l-.205.218c-.061.07-.116.145-.163.225-.053.229.004.47.156.65.086.138.161.283.225.432.104.268.155.554.149.842-.007.284-.051.566-.13.839-.084.325-.2.741-.344,1.228-.144.434-.374,1.101-.69,2-.316.899-.641,1.84-.975,2.822-.344.979-.669,1.905-.975,2.779-.13.377-.244.709-.345.975-.172.491-.442.732-.546.52-.056-.106-.118-.236-.185-.39-.217-.474-.44-1.016-.67-1.625-.227-.605-.445-1.206-.65-1.811-.167-.442-.269-.906-.3-1.378,0-.311.028-.621.084-.927.05-.272.123-.54.218-.8.052-.124.107-.241.163-.348.1-.165.115-.368.042-.546-.05-.064-.104-.125-.163-.182-.114-.117-.237-.226-.367-.325-.078-.061-.165-.109-.257-.143-.149-.065-.465.1-.621.39s-.367.2-.52-.237c-.093-.265-.172-.534-.237-.807-.104-.452-.155-.914-.153-1.378-.004-.47.077-.936.237-1.378.077-.215.181-.419.309-.608.261-.392.205-.914-.133-1.242-.474-.306-1.096-.25-1.508.137-.123.121-.239.249-.348.383-.325.4-.65.576-.793.355-.092-.136-.194-.264-.306-.384-.175-.19-.362-.369-.559-.536-.1-.072-.2-.14-.3-.2-.186-.106-.415-.097-.592.023-.094.075-.188.146-.276.221-.143.143-.28.286-.409.429-.061.07-.115.145-.163.224-.072.128-.058.287.036.4l.149.15c.2.2.4.416.6.65.223.262.412.552.562.862.195.413.333.85.41,1.3.11.649.158,1.306.144,1.964v1.431c0,.516-.084.835-.2.715-.067-.073-.137-.142-.211-.208-.104-.092-.213-.178-.326-.257-.044-.035-.092-.064-.143-.088-.069-.009-.139-.003-.205.018-.066.02-.126.054-.178.1-.073.057-.142.118-.208.182-.126.13-.235.276-.325.433-.059.103-.107.212-.143.325-.023.262.083.519.283.689.123.12.24.247.354.377.25.284.468.595.65.927.218.399.378.827.475,1.271.123.58.181,1.172.172,1.765v2.412c0,.744-.201,1.474-.582,2.113-.176.302-.368.595-.575.878-.351.409-.376,1.005-.062,1.443.33.328.839.394,1.242.162.156-.133.299-.28.429-.438.134-.165.26-.336.377-.514.195-.293.432-.325.585-.1.088.147.189.286.3.416.175.19.362.369.559.537.1.071.2.139.3.2.091.053.195.078.3.073.104-.005.205-.04.291-.1.1-.071.188-.146.276-.221.144-.143.281-.294.41-.451.061-.073.115-.151.162-.234.036-.065.052-.138.046-.212-.006-.073-.033-.142-.078-.2l-.15-.15c-.2-.2-.4-.416-.605-.65-.222-.262-.41-.552-.559-.862-.194-.413-.332-.85-.409-1.3-.113-.644-.164-1.297-.153-1.95v-5.481c0-.517.143-.543.325-.059.12.306.254.651.406,1.015l.992,2.434c.344.849.679,1.668,1.011,2.458.169.4.325.767.465,1.1.2.478.373.852.373.839s.078.2.192.464c.057.165.138.321.241.462.179.111.391.157.6.13.129-.002.259.004.387.02.088.016.175-.028.215-.108.089-.149.161-.308.214-.474.089-.228.219-.573.39-1.034l.43-1.118c.159-.339.369-.652.624-.927.251-.282.518-.549.8-.8.156-.143.326-.28.482-.407.191-.134.367-.287.526-.458.015-.063.026-.127.033-.192v-.107c.017-.099.024-.2.023-.3-.001-.1-.009-.201-.023-.3-.01-.073-.024-.146-.043-.217-.032-.117-.24-.215-.455-.2s-.24-.325-.065-.809.361-1.021.52-1.489c.244-.715.482-1.421.712-2.11,0,0,.085-.27.192-.6s.2-.182.2.325v9.485c.013.757-.182,1.503-.566,2.156v-.012ZM52.338,13.347c.219-.226.337-.531.326-.845.014-.329-.103-.649-.326-.891-.459-.472-1.214-.482-1.686-.023-.246.239-.377.572-.359.914-.004.155.023.31.079.455.055.145.139.278.247.39.484.452,1.235.452,1.719,0ZM45.898,7.935l.091.094c.352.356.659.755.913,1.187.238.414.455.841.65,1.277l.075.169c.042.095.12.1.172,0l.095-.156c.091-.156.199-.301.324-.432l.124-.114c.039-.025.084-.039.13-.039.046,0,.091.014.13.039.082.073.154.156.215.247.032.046.065.1.1.153.045.075.084.153.117.234.044.094.068.196.071.3-.144.182-.26.384-.344.6-.067.21-.099.43-.095.65-.022.545.11,1.086.381,1.56.204.345.438.672.7.975l.075.075c.029.049.044.106.044.163,0,.057-.015.113-.044.162-.033.076-.072.149-.117.218-.085.138-.186.265-.3.38-.062.062-.123.124-.192.186s-.358.022-.546-.176l-.325-.364c-.192-.234-.4-.507-.614-.806-.221-.316-.415-.651-.579-1-.196-.42-.358-.855-.485-1.3-.128-.454-.286-.899-.471-1.333-.19-.446-.425-.872-.7-1.271-.286-.408-.637-.767-1.04-1.06l-.045-.032c-.015-.008-.031-.011-.048-.011-.016,0-.032.004-.047.011l-.052.022c-.319.133-.629.285-.929.455-.233.131-.444.297-.625.494-.147.17-.258.368-.325.582-.07.241-.104.491-.1.742v1.625c-.003.317.059.631.182.923.117.278.265.543.442.787.165.233.351.451.556.65.084.082.165.157.243.224.137.124.072.485-.214.738-.297.23-.701.269-1.037.1-.147-.096-.285-.205-.413-.325-.178-.171-.336-.362-.471-.569l-.078-.12c-.008-.014-.02-.026-.034-.034-.028-.017-.064-.017-.092,0-.014.008-.026.02-.034.034l-.081.114c-.099.146-.207.285-.325.416-.141.153-.297.292-.465.416l-.24.175c-.135.095-.314.095-.449,0l-.2-.165c-.1-.1-.2-.215-.3-.325-.043-.053-.079-.111-.107-.173-.049-.1.107-.364.325-.569l.37-.373c.184-.191.334-.411.446-.651.147-.311.256-.638.325-.975.095-.472.138-.952.13-1.433.007-.47-.036-.939-.13-1.4-.073-.351-.189-.692-.345-1.015-.131-.27-.302-.519-.507-.738-.091-.1-.185-.191-.279-.282-.156-.153-.264-.374-.218-.494.029-.074.062-.146.1-.215.064-.119.144-.228.238-.325.043-.043.089-.082.139-.117.038-.027.081-.046.127-.055.045-.01.092-.01.137,0,.079.039.155.083.227.133l.127.088.068.055.16.133c.087.075.159-.286.159-.8v-3.475c-.011-.212-.074-.418-.182-.6-.115-.211-.253-.409-.41-.591-.084-.1-.178-.212-.273-.325-.159-.169-.286-.377-.247-.472.023-.058.055-.113.094-.162h0c.063-.105.136-.203.218-.293.047-.053.099-.101.156-.143.094-.04.197-.057.299-.049.107.008.21.043.3.1.129.084.251.178.364.283.214.199.41.416.585.65l.068.091c.009.012.02.021.033.027.013.007.027.01.041.01.014,0,.028-.003.041-.01.013-.006.024-.016.032-.027l.081-.084C42.687.452,43.68.018,44.724,0c.368.008.734.062,1.089.162.415.111.811.285,1.174.514.382.244.713.56.975.93.254.362.435.769.533,1.2l.029.12c.003.015.009.029.018.042.009.012.022.021.036.027.014.006.029.009.044.008.015-.001.03-.006.042-.015l.107-.058.065-.033c.038-.015.075-.032.111-.052.062-.032.146-.084.2-.107.082-.023.169-.012.243.029.049.031.095.066.137.107.096.099.181.208.254.326.047.071.085.147.113.227.049.133-.22.384-.513.65-.175.16-.329.341-.458.54-.267.409-.511.82-.732,1.235-.223.417-.51.797-.851,1.125-.381.349-.81.642-1.275.868l-.117.062c-.011.005-.02.012-.028.021-.008.009-.014.019-.017.031l-.005-.024ZM46.419,5.591c.41-.542.619-1.21.591-1.889.041-.634-.208-1.252-.676-1.68-.448-.395-1.028-.609-1.625-.6-.713-.032-1.393.304-1.8.891-.467.73-.694,1.588-.65,2.454v2.238c0,.52.068.9.149.845l.15-.094c.273-.171.556-.325.848-.462h.026c.017-.009.032-.023.043-.039l.016-.026c.052-.088.113-.171.182-.247.045-.045.088-.091.133-.13.04-.031.085-.055.133-.069.049-.014.1-.018.15-.012l.13.029c.05.011.098.029.143.052l.042.023c.027.011.058.011.085,0h.045c.722-.26,1.369-.693,1.885-1.261v-.023Z"/>
</svg>