<svg xmlns="http://www.w3.org/2000/svg" width="2in" height="1.6in" viewBox="0 0 143.4 113.7">
  <defs>
    <style>
      .a {
        fill: #da291c;
      }

      .b {
        fill: #ffd900;
      }
    </style>
  </defs>
  <polygon class="a" points="143.4 63.8 143.4 63.8 143.4 63.8 129.7 49.5 136.7 31 136.7 31 136.7 31 114.2 26.6 107.1 10.9 106.5 9.4 106.5 9.4 106.5 9.4 89.9 14.8 83.8 16.7 64.4 7.4 64.4 7.4 64.4 7.4 50.1 23.6 44.9 24 26.4 25.7 26.4 25.7 26.4 25.7 26 44.5 7.1 57.3 7.1 57.3 7.1 57.3 20.8 71.7 13.8 90.2 13.8 90.2 13.8 90.2 36.3 94.5 44 111.7 44 111.7 44 111.7 66.7 104.4 86.1 113.7 86.1 113.7 86.1 113.7 100.4 97.6 124.1 95.4 124.1 95.4 124.1 95.4 124.4 77.3 124.5 76.6 143.4 63.8"/>
  <g>
    <path class="b" d="M68.4,15.4l18.9,9,22-7.1L116.9,34l21.8,4.3-6.8,17.9,13.3,14L126.8,82.6l-.4,18.3-23,2.1L89.6,118.6l-18.9-9-22,7.1L41.1,100,19.3,95.7l6.8-17.9-13.3-14L31.2,51.4l.4-18.3,23-2.1Z" transform="translate(-10.9 -13.8)"/>
    <path class="a" d="M89.9,120.2l-19.5-9.3-22.6,7.2L40,101,17.6,96.6l6.9-18.5L10.9,63.7,29.8,51l.4-18.9L53.9,30,68.1,13.8l19.5,9.3,22.6-7.2L118,33l22.4,4.4-6.9,18.5,13.6,14.4L128.2,83l-.4,18.9L104.1,104ZM70.7,107.6l18.4,8.9,13.6-15.4,22.2-2,.3-17.7,17.3-11.6L130,56.6l6.4-16.9-20.5-4-7.3-16.2L87.3,26.4,68.9,17.5,55.3,32.9l-22.2,2-.3,17.7L15.5,64.2,28,77.4,21.6,94.3l20.5,4,7.3,16.2Z" transform="translate(-10.9 -13.8)"/>
  </g>
  <path class="a" d="M58.2,59.2a80.5,80.5,0,0,0-2.6-11.5l-.2-.6-.5-1.2a40.5,40.5,0,0,0,7,0c.6,3,1.2,5.9,1.6,8.8a58.3,58.3,0,0,1,.7,6.5v2.1a20.9,20.9,0,0,0-4.6,2.5l-.8.6L52.5,57c.2,2.7.7,6.4,1.4,11.1a12.2,12.2,0,0,1-3.2-.4,8.2,8.2,0,0,1-2.8-1.1,53.7,53.7,0,0,1-1.1-7c-.2-2.4-.3-4.2-.3-5.5V52.2a29.5,29.5,0,0,1,5.7-3.5l5.9,10.5ZM72.7,44.7a5.6,5.6,0,0,1,3.2,1.5,7.3,7.3,0,0,1,2.2,3.5,7,7,0,0,1,.2,4.3,10.2,10.2,0,0,1-1.8,3.6A13.6,13.6,0,0,1,74.1,60a6.4,6.4,0,0,1-1.6,1.1,16,16,0,0,1-3.3-.7,9.9,9.9,0,0,1-2.3-1.1l-.8-.4a13.1,13.1,0,0,1-.6-3.8,7.7,7.7,0,0,1,.3-3.2,10.5,10.5,0,0,1,1.7-3.8l.4-.5h3.3l1.5-2.8Zm2,6.8-2.5-1a12.8,12.8,0,0,0-.3,7.2l.3-.2.8-.6.9-1.2a9.3,9.3,0,0,0,.6-1.8,6.2,6.2,0,0,0,.2-2.4Zm10.2-11a20,20,0,0,0,.8,8.1l.7,1.5.8,1.1a10.3,10.3,0,0,0,1.3-3.6l-1.4-2.9-.2-.5a13.9,13.9,0,0,1,3.8-3.3c.3,1.4.6,2.5.8,3.3a16.5,16.5,0,0,0,2,4.2l.7.8a16.3,16.3,0,0,0-.6-7.7,15.1,15.1,0,0,0-1.3-2.9h6.1c2,7.2.9,12.3-3.3,15.4a5.2,5.2,0,0,1-2.5-1.2,22.5,22.5,0,0,1-2.1-2.4,18.4,18.4,0,0,1-1.9,3.7A14,14,0,0,1,87,56.3l-.6.7a9.4,9.4,0,0,1-3.3-2,10.4,10.4,0,0,1-2.2-3.1,22.2,22.2,0,0,1-1.4-3.2,17.6,17.6,0,0,1-.6-2.5l-.2-1a12.7,12.7,0,0,1,2.6-2.7,11,11,0,0,1,3.6-2ZM61.8,80.2a9.8,9.8,0,0,1,1.4,2.9,10.5,10.5,0,0,1,.6,3.6,9.1,9.1,0,0,1-.4,3.4,23.3,23.3,0,0,1-1.1,2.8,9.6,9.6,0,0,1-1.6,2.2A33.1,33.1,0,0,1,58,97.8l-.5.3a12,12,0,0,1-5.6-.9,8.2,8.2,0,0,1-2.8-1.6l-.3-.3a22.4,22.4,0,0,1-1.2-5.7,10.3,10.3,0,0,1,.4-4.2,8.5,8.5,0,0,1,1.2-2.7,6.9,6.9,0,0,1,1.3-1.5l.6-.4a5.8,5.8,0,0,0,4,.4l2.6-3.9a5.8,5.8,0,0,1,4.1,2.9ZM56,93.9a3.3,3.3,0,0,0,1.7-1.8,8.1,8.1,0,0,0,.8-3.7,6,6,0,0,0-.4-2.2,10,10,0,0,0-1.3-2.5A13.6,13.6,0,0,0,56,93.9ZM70,76.8q0,2,.3,5.1a11.1,11.1,0,0,1,3.9-5.5l4.2,2a13.8,13.8,0,0,1,0,7A11.6,11.6,0,0,1,75,90.8l-3.2-.4a47.7,47.7,0,0,0,1.3,4.7,22.7,22.7,0,0,1-5.6,2.5c-.8-3.8-1.4-7.6-1.8-11.3v-2l-1.1-3.7a15.1,15.1,0,0,1,2.2-1.9L69,77.3l1-.5Zm3.9,7.5a6.6,6.6,0,0,0-.1-1.5,2,2,0,0,0-.2-.9c-.2-.6-.4-.9-.7-.8l-2,5a22.3,22.3,0,0,0,.4,2.3l1.8-.9A5.8,5.8,0,0,0,73.9,84.3Zm12.4-.5,1.1-.3a12.9,12.9,0,0,0,2.3-1.2,12.5,12.5,0,0,0,2.4-1.8l.9-.9a1.9,1.9,0,0,1,.2.7,4,4,0,0,1-.2,3c-.6,1.5-2.1,2.9-4.3,4.1l-1.4.3a19.4,19.4,0,0,1-2.9-.2A8,8,0,0,1,81,86.3a35,35,0,0,1-.6-4.8,21.5,21.5,0,0,1,.3-4.1L81,76a15.5,15.5,0,0,0,3.6-1.9,25.8,25.8,0,0,0,2.5-1.9l.7-.8a5.7,5.7,0,0,1,2.7,1.3A4,4,0,0,1,92,74.5l.5.8a7.3,7.3,0,0,1-2.1,4.4,13.9,13.9,0,0,1-4.3,3A5.2,5.2,0,0,0,86.3,83.8Zm1.6-5.4a1.7,1.7,0,0,0,.1-1.2.9.9,0,0,0-.6-.6.9.9,0,0,0-.7-.1,2,2,0,0,0-.8.4V81A3.8,3.8,0,0,0,87.9,78.4Zm15.7,1.3a24.6,24.6,0,0,0-1.1-6.9v-.3l-.2-.6a16,16,0,0,0-2.1,6.6,30.7,30.7,0,0,0,.8,3.5H98.2l-1.9-.3-.5-.3a80.9,80.9,0,0,1-2.3-9.1l-.3-1.4,5.6-3.4a32.5,32.5,0,0,0,.4,5.7,15.5,15.5,0,0,1,1.4-4.3,3.6,3.6,0,0,1,2.1-2c1.3-.5,3.1.6,5.5,3.2-.1.4-.1.9-.2,1.6a31.9,31.9,0,0,0,.2,3.7,20.9,20.9,0,0,0,.9,5.1,13.6,13.6,0,0,1-5.5-.8Zm14.8-4.2a6.4,6.4,0,0,1-2.2,2.1,9.2,9.2,0,0,1-2.1,1.3l-1.4.3a9.4,9.4,0,0,1-1.2-2l-.5-1.5a3.2,3.2,0,0,1-.3-1.4v-.9l4.3-1.2h.7Zm-6.4-5a6,6,0,0,1-1.2-1.1,5.7,5.7,0,0,1-1-1.3,12.1,12.1,0,0,1-.5-1.4,20.2,20.2,0,0,1-.9-5.4,8.3,8.3,0,0,1,2.5-1.9,15.1,15.1,0,0,1,3.6-1.8,1.4,1.4,0,0,1-.2.6c-.1.3-.2.8-.4,1.7a23.6,23.6,0,0,0-.4,2.8,30.4,30.4,0,0,0,.6,8.3h-.3l-.8-.2-1-.4Z" transform="translate(-10.9 -13.8)"/>
</svg>
