<svg width="62" height="48" viewBox="0 0 62 48" fill="none" xmlns="http://www.w3.org/2000/svg">
    <path d="M8.167 8.29c.082-1.095-.101-1.767-.556-2.026-.573-.304-1.593-.138-3.052.547l-1.731.81C1.528 8.26.609 9.44.504 10.643c-.366 4.1-.533 8.202-.5 12.305a.121.121 0 0 0 .119.134.123.123 0 0 0 .064-.017c1.192-.505 2.397-.991 3.616-1.458 1.467-.555 2.511-1.216 3.13-1.973.545-.747.83-1.65.812-2.573.065-2.912.206-5.836.422-8.772zM4.104 18.92a.356.356 0 0 1-.085.215.495.495 0 0 1-.204.154l-.154.06c-.085.033-.154-.027-.15-.133.057-3.241.22-6.469.491-9.683a.34.34 0 0 1 .171-.263l.154-.073a.224.224 0 0 1 .183 0c.061.02.09.073.082.158a154.734 154.734 0 0 0-.476 9.565h-.012zm4.636.989a79.008 79.008 0 0 1 3.28-.976.28.28 0 0 0 .19-.247c.027-2.161.086-4.322.175-6.483a.275.275 0 0 1 .167-.243l.158-.049a.257.257 0 0 1 .207 0 .176.176 0 0 1 .078.167c0 2.16.038 4.336.113 6.526.22 3.278.537 7.099 3.8 11.081.069.081.117.061.11-.044-.16-2.715-.52-16.206-.35-18.309a1.397 1.397 0 0 0-.764-1.39.117.117 0 0 1-.033-.21c.54-.461.876-1.117.931-1.823.037-.831.073-1.662.118-2.492.057-1.102-.146-1.831-.614-2.176-.589-.405-1.625-.405-3.088.077a78.599 78.599 0 0 0-3.726 1.37.35.35 0 0 0-.2.267 195.367 195.367 0 0 0-.735 14.82.133.133 0 0 0 .125.149.134.134 0 0 0 .07-.015H8.74zm3.982-13.974a.295.295 0 0 1 .171-.247l.159-.052a.232.232 0 0 1 .186 0 .179.179 0 0 1 .086.182 221.961 221.961 0 0 0-.195 3.286.376.376 0 0 1-.305.36l-.159.049c-.089.028-.154-.037-.15-.146.073-1.134.142-2.281.22-3.432h-.013zM17.9 17.547a83.334 83.334 0 0 1 3.348-.571.24.24 0 0 0 .2-.223c.021-2.234.06-4.467.113-6.701a.242.242 0 0 1 .2-.223l.231-.037a.155.155 0 0 1 .187.167 615.218 615.218 0 0 0-.11 6.709.163.163 0 0 0 .195.166 66.674 66.674 0 0 1 3.365-.357.224.224 0 0 0 .195-.21 892.7 892.7 0 0 1 .162-12.629c.025-1.138-.207-1.932-.695-2.37-.61-.543-1.625-.721-3.112-.462-1.487.26-2.532.81-3.19 1.564a4.15 4.15 0 0 0-.894 2.597c-.203 4.14-.33 8.281-.382 12.422a.15.15 0 0 0 .2.158h-.013zm3.86-13.998a.331.331 0 0 1 .325-.332c.195-.033.289.044.28.227-.04 1.215-.08 2.43-.113 3.646a.247.247 0 0 1-.2.227l-.227.036a.155.155 0 0 1-.187-.166c.046-1.212.091-2.425.135-3.638h-.013zM34.453 15.6c-.65.57-1.747.81-3.287.81-1.54 0-2.637-.256-3.283-.81-.537-.47-.813-1.269-.788-2.432 0-.494.036-3.707.105-9.642 0-1.127.289-1.965.813-2.504C28.647.365 29.695 0 31.162 0s2.515.377 3.153 1.033c.504.527.768 1.365.785 2.504.024 1.325.04 2.646.06 3.966a.178.178 0 0 1-.195.183 61.31 61.31 0 0 0-3.307-.13.2.2 0 0 1-.195-.199V2.715a.25.25 0 0 0-.174-.27.252.252 0 0 0-.115-.01c-.211 0-.317.094-.317.276v11.004a.258.258 0 0 0 .09.187.305.305 0 0 0 .235.093.297.297 0 0 0 .212-.081.247.247 0 0 0 .09-.195V8.306a.193.193 0 0 1 .122-.181.195.195 0 0 1 .076-.014c1.103 0 2.207.043 3.312.13a.216.216 0 0 1 .195.21c.022 1.575.038 3.151.049 4.729-.004 1.17-.256 1.969-.772 2.418h-.013zm2.008-2.314c-.04-4.206-.113-8.412-.216-12.62a.163.163 0 0 1 .187-.175c1.084.12 2.154.269 3.21.45a.256.256 0 0 1 .203.227c.18 4.405.301 8.81.366 13.216.01.068.041.132.09.182a.354.354 0 0 0 .235.138c.2.028.301-.049.297-.231-.068-4.4-.203-8.799-.406-13.196a.15.15 0 0 1 .116-.159.15.15 0 0 1 .07.001 54.54 54.54 0 0 1 3.219.71.28.28 0 0 1 .199.242c.238 4.136.403 8.273.495 12.414.025 1.118-.219 1.868-.723 2.257-.638.482-1.723.587-3.25.372-1.528-.214-2.63-.631-3.288-1.308-.517-.554-.781-1.394-.792-2.52h-.012zm8.464-10.94a.578.578 0 0 1 0-.206.566.566 0 0 1 .211.037 56.49 56.49 0 0 1 3.06.94.75.75 0 0 1 .211.089.81.81 0 0 1 .037.223c.306 4.051.509 8.103.61 12.154a.735.735 0 0 0 .028.219.703.703 0 0 0 .21.08c1.277.353 2.601.742 3.865 1.155.073.02.143.05.207.09.02.072.03.147.029.223 0 .785.032 1.571.04 2.361a.592.592 0 0 1 0 .207.68.68 0 0 1-.21-.036c-8.432-2.115-1.346 4.456-7.864 9.82-.085.07-.15.037-.146-.073.295-9.094.203-18.185-.276-27.274l-.012-.008zm16.66 9.254a4.783 4.783 0 0 0-.93-2.58 8.678 8.678 0 0 0-3.199-2.362c-1.463-.685-2.763-1.35-3.332-1.034-.463.264-.374 1.443-.292 2.504.298 3.963.466 7.926.504 11.891a.832.832 0 0 0 .024.223.907.907 0 0 0 .211.09c1.049.353 2.089.723 3.12 1.11a.886.886 0 0 0 .208.056.575.575 0 0 0 .02-.206c0-2.05-.05-4.1-.15-6.15a.655.655 0 0 1 0-.203c.071.008.14.03.203.065l.147.06c.072.026.14.061.203.106a.588.588 0 0 1 .032.223c.09 2.042.137 4.082.142 6.121a.668.668 0 0 0 .025.223.867.867 0 0 0 .203.101c1.024.398 2.039.803 3.044 1.216a.73.73 0 0 0 .199.069.53.53 0 0 0 .024-.207c.046-3.76-.084-7.529-.39-11.307l-.016-.009zm-3.373 1.216a.783.783 0 0 1-.203-.069l-.146-.065a.814.814 0 0 1-.204-.105.846.846 0 0 1-.036-.223 174.57 174.57 0 0 0-.244-3.342c0-.134.04-.187.163-.163a.643.643 0 0 1 .438.487c.09 1.08.17 2.171.24 3.273.02.073.022.15.008.223l-.016-.016zm-51.349 25.2c.077.839-.061 1.305-.406 1.378a.976.976 0 0 1-.293 0c-.528-.057-1.312-.454-2.271-1.143a10.391 10.391 0 0 1-2.67-2.625 4.824 4.824 0 0 1-.768-2.233 94.695 94.695 0 0 1-.179-2.16c0-.104.053-.137.138-.072.813.624 1.626 1.24 2.479 1.831a.457.457 0 0 1 .175.308c.077.94.158 1.876.252 2.836.02.084.057.163.11.231.053.08.119.149.194.207.025.017.05.032.078.044.04.011.084.011.126 0a.16.16 0 0 0 .113-.056.105.105 0 0 0 .02-.081c-.108-1.11-.205-2.22-.292-3.33a.861.861 0 0 0-.028-.203 63.787 63.787 0 0 1-2.934-2.123 1.103 1.103 0 0 1-.5-.758C.13 28.846.067 27.63.024 26.42c-.028-.81.134-1.216.472-1.277h.126c.45 0 1.19.357 2.34 1.115a10.15 10.15 0 0 1 2.674 2.313c.455.641.707 1.403.723 2.188.029.555.061 1.114.094 1.673 0 .105-.061.15-.155.093a63.121 63.121 0 0 1-2.613-1.64.45.45 0 0 1-.174-.304 135.81 135.81 0 0 1-.114-2.225.449.449 0 0 0-.09-.227.637.637 0 0 0-.195-.194.407.407 0 0 0-.207-.085c-.044 0-.154 0-.146.178.04.9.085 1.8.142 2.699 0 .068.009.136.029.202a58.367 58.367 0 0 0 3.047 1.961.945.945 0 0 1 .54.721c.098 1.459.216 2.93.346 4.404zm6.44-5.7c-.568-.677-1.49-1.297-2.913-1.953a6.876 6.876 0 0 0-2.324-.75 1.223 1.223 0 0 0-.407.045c-.406.134-.589.612-.548 1.43.165 3.166.416 6.332.752 9.5a.425.425 0 0 0 .186.297 57.889 57.889 0 0 0 2.71 1.56c.098.052.163 0 .155-.102a203.49 203.49 0 0 1-.439-5.113c0-.11 0-.182.041-.166l.057.028.544.268h.025a.597.597 0 0 1 .036.206c.125 1.71.268 3.421.431 5.134a.405.405 0 0 0 .195.283c.906.466 1.837.916 2.763 1.33.098.04.17 0 .163-.118-.271-3.242-.487-6.49-.646-9.744a3.494 3.494 0 0 0-.768-2.135h-.013zm-2.332 3.27-.053-.03-.548-.267h-.025a.522.522 0 0 1-.032-.206c-.06-.94-.114-1.886-.163-2.836 0-.19.138-.199.183-.195.07.005.139.026.2.061a.471.471 0 0 1 .324.405c.046.97.1 1.937.159 2.901.02.105 0 .178-.033.166h-.012zm11.22.81c.097 3.49.232 6.98.405 10.473a.137.137 0 0 1-.048.124.139.139 0 0 1-.13.026 41.39 41.39 0 0 1-2.812-.778.316.316 0 0 1-.2-.256 398.28 398.28 0 0 1-.52-10.46.342.342 0 0 0-.11-.244.543.543 0 0 0-.23-.13.628.628 0 0 0-.155-.028.2.2 0 0 0-.232.227c.13 3.468.312 6.936.545 10.405a.117.117 0 0 1-.171.13 45.932 45.932 0 0 1-2.796-1.062.345.345 0 0 1-.195-.272c-.33-4.01-.57-8.023-.719-12.037a.12.12 0 0 1 .05-.115.123.123 0 0 1 .125-.01c.959.34 1.93.66 2.905.944.102.032.191.109.191.178 0 .069.025.113.053.11h.049c.41-.096.837-.088 1.243.024 1.853.465 2.727 1.337 2.763 2.755l-.012-.005zm7.602-.442c-.581-.474-1.549-.754-3.052-.896a45.832 45.832 0 0 1-3.551-.482.158.158 0 0 0-.191.162c.09 4.106.225 8.21.406 12.313a.258.258 0 0 0 .2.235c1.12.23 2.254.405 3.38.539.252.028.492.044.715.048.971 0 1.695-.166 2.158-.55.463-.386.666-1.01.662-1.909V37.89c-.012-.9-.248-1.548-.715-1.933l-.012-.004zm-2.613 9.914a.297.297 0 0 1-.203.06h-.037l-.296-.036h-.033c-.02 0-.037-.089-.037-.198-.067-2.85-.121-5.7-.162-8.549 0-.11 0-.194.037-.19h.044l.3.028a.447.447 0 0 1 .323.209.316.316 0 0 1 .035.135c.033 2.78.078 5.558.135 8.334a.243.243 0 0 1-.106.207zM42.917 33.85c-.1 3.306-.245 6.61-.434 9.914a3.304 3.304 0 0 1-.785 2.111 5.658 5.658 0 0 1-2.913 1.467 3.455 3.455 0 0 1-.646.093 2.122 2.122 0 0 1-1.22-.288h-.023a.045.045 0 0 0-.045 0 3.228 3.228 0 0 1-1.918.81 7.394 7.394 0 0 1-.646.041c-1.004.024-1.748-.17-2.223-.563-.475-.393-.687-1.025-.687-1.908V35.43a.194.194 0 0 1 .195-.194c.996 0 2.004-.061 2.995-.142a.176.176 0 0 1 .181.105c.01.023.015.048.014.073-.04 3.538-.093 7.075-.158 10.611a.244.244 0 0 0 .097.186.292.292 0 0 0 .228.081h.04a.337.337 0 0 0 .346-.332c.081-3.535.145-7.074.19-10.615a.227.227 0 0 1 .196-.218 52.637 52.637 0 0 0 2.982-.406.156.156 0 0 1 .176.092c.01.023.013.047.011.07a547.12 547.12 0 0 1-.32 10.534.218.218 0 0 0 .113.19.297.297 0 0 0 .183.05h.049a.447.447 0 0 0 .235-.142.324.324 0 0 0 .106-.215c.154-3.511.272-7.032.354-10.562a.25.25 0 0 1 .195-.231 49.46 49.46 0 0 0 2.954-.685.14.14 0 0 1 .138.033.137.137 0 0 1 .036.137h.004zm4.15-1.309c-.155 4.017-.395 8.03-.72 12.042a.353.353 0 0 1-.195.271c-.922.38-1.861.737-2.796 1.057a.123.123 0 0 1-.126-.014.121.121 0 0 1-.044-.12c.27-4.05.471-8.102.601-12.154a.296.296 0 0 1 .195-.25c.975-.284 1.95-.6 2.905-.94a.123.123 0 0 1 .16.05.12.12 0 0 1 .015.059h.004zm7.72-1.434c-.053.977-.11 1.953-.18 2.925a.406.406 0 0 1-.182.292c-.894.51-1.808 1-2.735 1.467-.093.049-.166 0-.162-.105.076-1.14.142-2.279.199-3.416 0-.198-.134-.207-.179-.203a.491.491 0 0 0-.183.053.505.505 0 0 0-.341.405 216.797 216.797 0 0 1-.581 8.488.154.154 0 0 0 .093.162c.035.01.072.01.106 0a.461.461 0 0 0 .166-.052.723.723 0 0 0 .22-.183.43.43 0 0 0 .106-.235c.126-1.357.231-2.714.329-4.051a.405.405 0 0 1 .187-.284c.922-.466 1.84-.956 2.734-1.466.094-.053.163 0 .155.097-.087 1.14-.182 2.28-.285 3.423a4.222 4.222 0 0 1-.812 2.212 8.626 8.626 0 0 1-2.845 2.24 6.245 6.245 0 0 1-2.105.759c-.21.025-.422.003-.621-.065-.407-.166-.577-.685-.512-1.548.036-.405.256-2.93.467-7.548a3.511 3.511 0 0 1 .784-2.155c.57-.673 1.496-1.293 2.914-1.949a7.043 7.043 0 0 1 2.328-.754c.137-.004.274.012.406.049.403.134.581.616.553 1.442h-.024zm7.2-6.68c-.079 3.689-.316 7.38-.711 11.072a.523.523 0 0 1-.175.316c-.813.657-1.654 1.3-2.507 1.925-.09.064-.15.028-.138-.077.179-1.621.33-3.254.455-4.899 0-.109 0-.174-.049-.15l-.065.045-.504.349a.622.622 0 0 0-.032.206 160.21 160.21 0 0 1-.46 4.919.506.506 0 0 1-.182.307 74.2 74.2 0 0 1-2.63 1.759c-.093.057-.158 0-.145-.09.414-3.85.696-7.704.845-11.558a.404.404 0 0 1 .178-.292 58.312 58.312 0 0 0 2.589-1.564c.09-.06.162-.02.158.09-.048 1.45-.119 2.9-.211 4.35 0 .11 0 .175.053.15l.065-.04.504-.344a.553.553 0 0 0 .028-.203c.09-1.446.159-2.889.203-4.335a.433.433 0 0 1 .167-.304 67.682 67.682 0 0 0 2.41-1.71c.097-.064.166-.032.166.077h-.012z" fill="#EB0000"/>
</svg>
