<?xml version="1.0" encoding="UTF-8"?>
<svg id="Layer_1" xmlns="http://www.w3.org/2000/svg" version="1.1" viewBox="0 0 58.377 39.932">
  <!-- Generator: Adobe Illustrator 29.5.0, SVG Export Plug-In . SVG Version: 2.1.0 Build 137)  -->
  <defs>
    <style>
      .st0 {
        fill: #4f2c1d;
      }
    </style>
  </defs>
  <path class="st0" d="M3.842,35.613c-.12.353-.184.722-.188,1.095-.004.496.105.987.319,1.434.094.19.223.361.381.503.135.129.316.201.503.199.196.011.389-.042.552-.15.124-.083.235-.185.327-.302.087-.123.163-.229.242-.319.06-.081.154-.129.255-.131.163,0,.258.067.292.183.027.127.041.256.041.386.005.214-.011.429-.047.64-.048.218-.197.4-.402.49-.27.109-.554.18-.843.209-.317.045-.636.068-.956.068-.98-.016-1.688-.326-2.124-.928-.439-.577-.669-1.286-.653-2.011-.019-.748.203-1.482.634-2.094.424-.614,1.119-.929,2.086-.946.273.004.546.026.817.065.15.035.302.06.456.074.094.01.189-.007.273-.049.055-.03.116-.047.178-.049.157-.014.305.073.369.217.065.166.105.34.119.518.059.337.095.677.106,1.019,0,.273-.149.407-.431.4-.075,0-.163-.064-.258-.191l-.163-.193c-.06-.067-.123-.139-.186-.214-.125-.158-.271-.298-.433-.418-.158-.109-.344-.169-.536-.173-.171,0-.336.069-.456.191-.121.139-.213.301-.273.476h0ZM16.421,39.021l-.046-.024c-.099-.075-.175-.177-.217-.294-.118-.333-.165-.925-.144-1.776-.013-.509,0-1.018.039-1.526.009-.127.039-.251.088-.368.027-.076.087-.136.163-.163.068-.016.128-.059.163-.119.039-.083.056-.175.047-.266.006-.112-.013-.223-.056-.327-.06-.082-.159-.125-.26-.111-.363.011-.733.02-1.109.025l-1-.025c-.327,0-.48.131-.48.405,0,.113.025.185.075.217l.075.054c.059.038.114.082.163.132.027.033.05.069.069.108.048.162.068.331.059.5v.327c0,.18-.101.405-.209.436-.066.016-.134.022-.203.019h-1.163c-.188,0-.307-.039-.354-.136-.066-.211-.089-.433-.069-.653,0-.087.006-.174.02-.26.023-.111.072-.216.144-.304.019-.02.04-.038.062-.054.015-.013.032-.024.049-.033.029-.013.106-.036.163-.062s.074-.033.106-.049c.062-.033.093-.116.093-.25,0-.185-.034-.302-.105-.351-.102-.047-.215-.066-.327-.054-.412.011-.785.019-1.121.025-.31-.01-.721-.018-1.232-.025-.225,0-.327.152-.327.438,0,.047.003.093.01.139.016.077.056.147.113.201.025.02.054.036.085.046.14.042.227.219.26.526s.031.817.031,1.526c.021.851-.026,1.442-.147,1.777-.051.128-.138.239-.25.319l-.074.056c-.056.044-.083.15-.083.319-.006.104.014.209.057.304.057.073.148.11.24.098.526-.012,1.004-.02,1.433-.025.462,0,.879.008,1.251.025.099.014.2-.017.274-.083.045-.091.064-.193.056-.294.004-.05.004-.1,0-.15-.025-.102-.093-.188-.186-.235-.046-.02-.098-.039-.163-.06-.062-.021-.12-.051-.173-.09-.058-.044-.107-.1-.144-.163-.083-.14-.124-.453-.124-.938-.014-.149.01-.3.069-.438.057-.06.138-.09.221-.082h1.433c.041,0,.082.005.121.016.064.02.139.163.15.281v.222c.009.3-.005.599-.042.897-.013.059-.037.114-.072.163-.036.047-.079.088-.127.123-.053.041-.102.086-.147.135-.049.061-.075.139-.072.217-.015.133.015.266.083.381.035.036.078.064.125.081.047.017.098.023.148.017.327-.012.7-.02,1.121-.025.42-.004.822.004,1.206.025.046,0,.093-.005.137-.018.083-.049.138-.133.149-.229.007-.051.01-.103.01-.155.01-.112-.016-.223-.075-.319-.017-.017-.036-.032-.056-.046h-.005,0ZM22.513,39.108c-.011-.019-.024-.036-.041-.051-.053-.046-.117-.076-.186-.087-.076-.009-.147-.044-.201-.098-.082-.086-.128-.2-.131-.319-.038-.492-.054-1.049-.049-1.671.005-.622.025-1.178.057-1.668-.009-.097.015-.195.067-.278.014-.021.031-.04.049-.057.031-.028.101-.056.137-.09.049-.054.082-.121.095-.193.003-.042.003-.085,0-.127,0-.189-.046-.309-.136-.356-.117-.046-.242-.067-.368-.062-.302.011-.606.019-.916.024-.31.005-.608-.018-.915-.024-.128-.011-.256.008-.376.054-.09.049-.136.163-.136.351,0,.046.004.091.011.136.02.073.058.14.111.194.048.036.099.068.152.096.06.049.104.115.124.189.009.048.015.097.016.145.038.485.057,1.04.056,1.665,0,.621-.015,1.178-.047,1.668-.002.071-.013.141-.031.209-.012.048-.032.093-.06.134-.031.055-.083.095-.144.111-.025.005-.05.013-.074.024-.064.04-.108.104-.123.178-.008.049-.012.099-.011.148-.019.131.024.264.116.359.09.063.199.092.309.083.394-.012.786-.02,1.176-.024.392-.004.784.004,1.176.024.092.007.183-.026.25-.09.059-.103.085-.221.075-.34.002-.034.002-.068,0-.101,0-.055-.01-.109-.029-.16h-.005l.002.004ZM28.136,35.135c.12-.123.285-.192.457-.191.192.004.378.064.536.173.161.12.306.261.431.418.064.075.126.147.186.214l.163.193c.098.127.185.191.258.191.283,0,.426-.127.433-.4-.011-.342-.047-.683-.108-1.019-.014-.178-.054-.352-.119-.518-.063-.144-.211-.231-.368-.217-.063.002-.125.018-.18.049-.084.042-.179.059-.273.049-.153-.014-.306-.039-.456-.074-.271-.039-.543-.061-.817-.065-.967.016-1.662.332-2.084.946-.431.612-.654,1.346-.635,2.094-.016.725.215,1.434.653,2.011.436.602,1.144.912,2.124.928.32,0,.639-.023.956-.069.29-.03.574-.1.845-.209.204-.09.352-.272.4-.49.037-.211.053-.426.047-.64,0-.13-.013-.259-.039-.386-.034-.116-.132-.178-.294-.183-.05,0-.098.013-.142.036s-.083.055-.112.095c-.074.09-.154.196-.242.319-.092.118-.202.22-.327.302-.162.109-.356.162-.551.15-.188.002-.369-.07-.505-.199-.157-.143-.286-.313-.381-.503-.213-.448-.322-.938-.317-1.434.003-.372.066-.742.186-1.095.061-.175.155-.337.278-.476h-.005.002ZM39.931,39.028c-.027-.021-.058-.038-.09-.051-.172-.083-.32-.21-.428-.368-.237-.281-.452-.581-.642-.895l-.779-1.253c-.093-.165-.07-.371.059-.51.171-.173.351-.359.541-.559.119-.124.246-.24.381-.346.088-.082.195-.143.31-.176.137-.018.266-.074.372-.163.061-.077.091-.175.083-.273,0-.065-.007-.129-.023-.191-.028-.101-.193-.178-.301-.188h-.196c-.283.011-.565.019-.845.024l-.845-.024c-.063,0-.126.004-.188.013-.126.026-.229.115-.273.235-.013.067-.019.136-.018.204,0,.037.003.075.011.111.021.061.06.115.111.155.044.029.092.054.142.072l.069.031c.022.013.038.034.044.059.004.081-.02.162-.069.227-.026.039-.059.086-.1.14-.118.163-.26.327-.423.513s-.301.346-.436.48c-.046.049-.087.091-.121.124-.07.067-.194-.03-.206-.211-.01-.145-.013-.341-.013-.588-.004-.185.004-.371.023-.555.005-.038.014-.076.028-.113.025-.06.136-.1.199-.136.039-.021.075-.047.106-.078.044-.081.063-.173.056-.264,0-.189-.046-.309-.136-.358-.117-.045-.242-.067-.368-.062-.302.011-.606.019-.915.024s-.609-.018-.916-.024c-.128-.011-.256.008-.376.054-.09.049-.136.164-.136.35,0,.048.004.096.011.144.018.075.056.144.109.199.022.02.048.037.075.049.05.025.096.058.136.098.057.079.086.174.083.271.038.564.056,1.132.056,1.701s-.01,1.09-.047,1.634c-.002.115-.034.227-.091.327-.02.023-.042.044-.065.064-.05.029-.101.054-.154.077-.023.015-.045.032-.064.052-.056.087-.081.191-.069.294-.017.129.026.259.116.353.093.056.201.082.309.074.393-.012.785-.02,1.176-.024.391-.004.783.004,1.176.024.222,0,.327-.145.327-.433.021-.165-.07-.323-.222-.389-.057-.021-.114-.041-.163-.057-.024-.007-.048-.016-.07-.026-.059-.046-.1-.112-.113-.186,0-.046-.015-.096-.02-.163-.015-.139-.023-.248-.023-.327-.007-.147.015-.294.064-.433.044-.106.101-.163.163-.163s.175.114.292.327l.936,1.647c.016.029.033.058.052.085.047.052.109.088.178.101.036.002.073.002.109,0,.327-.011.642-.02.933-.025s.595.013.89.025c.242,0,.354-.142.341-.408,0-.049-.003-.099-.011-.147-.019-.073-.058-.14-.113-.193h-.005l.006-.002ZM47.609,37.684c-.112.002-.213.064-.265.163l-.245.392c-.108.17-.264.304-.449.384-.292.139-.615.202-.938.183-.117,0-.232-.037-.327-.106-.103-.081-.163-.204-.163-.335l-.033-.836c0-.18.078-.327.188-.312.066.014.128.041.183.08.13.15.218.331.255.526.02.161.165.278.327.264.099.014.2-.013.279-.073.042-.076.059-.162.051-.248v-1.751c-.011-.132-.091-.294-.173-.317-.048-.014-.099-.019-.149-.015-.098-.011-.197.019-.273.082-.05.052-.087.116-.108.185-.024.067-.059.13-.103.186-.073.076-.177.113-.281.103-.091.013-.18-.035-.219-.119-.046-.135-.063-.278-.049-.42,0-.327.031-.528.111-.619s.224-.119.456-.114c.163,0,.312,0,.467.016.146.02.288.062.421.124.13.057.246.141.34.247.093.126.154.273.178.428.008.038.022.074.041.108.044.058.107.098.178.114.034.006.068.008.103.008.139,0,.224-.028.255-.101.032-.161.044-.326.036-.49v-.735c.011-.173-.008-.346-.059-.511-.042-.078-.147-.119-.315-.119-.709.011-1.417.019-2.124.024-.707.006-1.415-.003-2.124-.024-.102-.012-.204.019-.283.085-.058.072-.087.164-.082.256,0,.185.033.302.095.351.081.059.172.103.27.127.05.012.089.051.101.101.037.101.055.208.052.315.01.276.016.817.016,1.634s0,1.358-.016,1.634c.002.103-.016.206-.052.302-.014.054-.051.098-.101.123l-.074.026c-.047.014-.094.031-.139.052-.021.011-.04.025-.057.041-.062.051-.095.163-.095.359-.005.092.024.182.082.253.076.07.178.104.281.091.823-.007,1.573-.015,2.249-.024.702,0,1.402.008,2.099.024.055,0,.109-.003.163-.01.102-.02.186-.09.225-.186.014-.054.021-.108.023-.163l.085-1.021c.012-.118.02-.232.025-.343-.015-.266-.124-.4-.341-.4v.002h.002ZM56.542,34.053c-.31.011-.619.019-.928.024l-.836-.024c-.104-.014-.206.032-.265.119-.059.095-.085.207-.075.319,0,.045.003.09.01.134.016.074.054.142.108.196.054.034.115.056.178.065l.096.021c.074.025.142.062.203.111.078.061.132.146.155.242.034.133.058.269.072.405.016.315.023.543.023.683v.261c0,.028-.004.056-.01.083-.011.046-.15,0-.268-.114-.06-.052-.131-.117-.214-.194l-2.212-2.011c-.056-.056-.106-.103-.147-.142-.075-.076-.167-.132-.27-.163-.042-.003-.084-.003-.126,0-.07,0-.142.011-.214.015h-.438l-.224-.011c-.201,0-.302.139-.302.43-.013.119.026.239.108.327.06.062.132.113.211.148.088.037.166.092.229.163.071.114.107.246.105.381.022.31.035.767.039,1.371,0,.559-.013,1.025-.039,1.398-.005.193-.052.383-.139.556-.027.044-.065.081-.111.106l-.065.038c-.038.019-.079.033-.121.042-.036.009-.072.023-.105.041-.065.036-.115.094-.14.163-.012.054-.018.108-.018.163-.003.1.016.199.056.291.046.083.136.132.23.127.301-.012.616-.02.946-.025.327-.004.654.004.98.025.055,0,.11-.006.163-.018.106-.039.187-.127.216-.237.01-.059.014-.118.013-.178,0-.18-.036-.292-.111-.341-.04-.028-.085-.048-.132-.061-.078-.021-.216-.023-.297-.047-.05-.015-.097-.035-.142-.06-.058-.033-.104-.084-.131-.146-.056-.166-.088-.338-.095-.513-.02-.25-.028-.462-.025-.64-.003-.049-.003-.098,0-.147.004-.068.025-.133.06-.191.021-.023.15.044.263.142.056.049.123.108.199.18l2.385,2.103c.07.066.146.126.227.18.078.058.171.091.268.093.076.003.149-.032.194-.093.048-.057.08-.127.09-.201.027-.172.041-.345.041-.519v-3.485c-.015-.19.022-.381.106-.552.016-.026.031-.049.047-.07.031-.038.068-.071.109-.098.029-.02.108-.051.163-.083.037-.019.072-.041.105-.067.073-.075.106-.179.091-.283.004-.103-.014-.206-.052-.302-.026-.091-.109-.127-.239-.127h0l.002-.003ZM21.666,13.83h-4.662c-.18,0-.327-.146-.327-.327v-3.267c.011-.181.147-.33.327-.358.42-.091.49-.368.49-.567,0-.372-.243-.709-.709-1.081l-1.021-.725c-.178-.114-.382-.18-.593-.189h-1.454c-.17-.003-.31.132-.313.302v.025c.078,1.091.425,2.101,1.841,2.233.181.013.322.16.327.341v3.267c0,.18-.146.327-.327.327h-4.662c-.18,0-.327-.146-.327-.327v-3.267c.005-.18.147-.327.327-.34,1.709-.154,1.875-1.539,1.875-2.841v-.261c0-1.307-.163-2.686-1.875-2.839-.181-.013-.322-.16-.327-.341V.327c0-.18.146-.327.327-.327h5.848c2.854,0,4.737,1.044,4.737,3.973,0,2.3-1.144,3.199-3.963,3.328-.181,0-.243.069-.14.14l.186.131c1.634,1.046,2.887,2.173,4.411,2.316.181.014.322.162.327.343v3.267c0,.087-.032.171-.093.233s-.144.098-.231.099h.001ZM16.808,6.463c2.648,0,3.226-.727,3.226-1.454,0-.765-.653-1.307-3.525-1.307h-2.792c-.18,0-.327.146-.327.327v2.107c0,.18.146.327.327.327h3.091ZM23.718,13.814h10.372c.18,0,.327-.146.327-.327v-5.278c0-.18-.146-.327-.327-.327h-.279c-.181.005-.33.146-.343.327-.188,1.877-2.014,2.062-3.323,2.062h-3.292c-.18,0-.327-.146-.327-.327v-2.238c0-.18.146-.327.327-.327h2.013c.197.01.374.122.469.294l.502,1.052c.093.173.271.286.467.296h.279c.18,0,.327-.146.327-.327v-3.571c0-.18-.146-.327-.327-.327h-.279c-.197.01-.374.122-.467.296l-.502,1.05c-.094.174-.272.286-.469.296h-2.013c-.18,0-.327-.146-.327-.327v-2.238c0-.18.146-.327.327-.327h3.403c1.297,0,2.674.149,2.838,1.725.015.18.162.321.343.327h.279c.18,0,.327-.146.327-.327V.33c0-.18-.146-.327-.327-.327h-9.998c-.18,0-.327.146-.327.327v3.267c.005.181.146.329.327.341,1.709.154,1.875,1.537,1.875,2.839v.261c0,1.307-.163,2.687-1.875,2.841-.18.013-.321.159-.327.34v3.267c.004.177.149.319.327.319v.008h0ZM35.722,13.487v-3.267c.005-.181.146-.328.327-.34,1.709-.154,1.875-1.539,1.875-2.841v-.261c0-1.307-.163-2.686-1.875-2.839-.181-.012-.323-.16-.327-.341V.33c0-.18.146-.327.327-.327h5.286c3.993,0,6.791,2.052,6.791,6.9s-2.798,6.902-6.791,6.902h-5.286c-.18,0-.327-.146-.327-.326h0v.008h0ZM38.855,9.566c0,.18.146.327.327.327h1.594c4.7,0,6.417-.782,6.417-2.965,0-2.238-1.828-3.004-6.417-3.004h-1.594c-.18,0-.327.146-.327.327v5.316h0ZM10.243,30.558v-4.966c0-.18-.146-.327-.327-.327h-.283c-.181.006-.328.147-.343.327-.163,1.576-1.54,1.725-2.838,1.725h-2.974c-.18,0-.327-.146-.327-.327v-3.757c.07-1.095.431-2.093,1.838-2.223.181-.012.322-.16.327-.341v-3.267c0-.18-.146-.327-.327-.327H.327C.147,17.075,0,17.221,0,17.402v3.267c.004.181.146.329.327.341,1.441.127,1.787,1.126,1.856,2.205v1.529c-.069,1.08-.415,2.078-1.856,2.207-.181.011-.323.159-.327.34v3.267c0,.18.146.327.327.327h9.586c.18.002.328-.143.33-.323v-.004h0ZM15.204,18.126c.001-.845-.683-1.532-1.528-1.533-.407,0-.798.161-1.085.449-.598.598-.598,1.567,0,2.164.071.071.15.135.233.191.252.168.548.258.851.257.41.017.809-.139,1.1-.429.29-.291.446-.689.429-1.1h0ZM16.295,27.334c-1.359-.054-1.763-.459-1.763-1.17v-5.213c.004-.159-.121-.291-.28-.295-.016,0-.031,0-.047.003l-2.802.304c-.183.023-.322.176-.327.361v2.705c.006.178.149.321.327.327,1.573.072,2.362.686,2.379,1.839-.016.693-.421,1.08-1.781,1.132-.178.005-.322.148-.327.327v2.892c0,.18.146.327.327.327h4.29c.18,0,.327-.146.327-.327v-2.892c-.009-.174-.149-.313-.323-.32h0ZM31.161,23.814h-5.595c-.18,0-.327.146-.327.327v.242c0,.18.146.327.327.327,2.021.031,2.862.366,2.862.98,0,.895-1.735,1.361-4.401,1.361-3.937,0-5.821-1.026-5.821-3.002,0-2.276,2.499-3.06,5.428-3.06,2.013,0,3.556.371,4.528,1.429.142.146.333.235.536.25h.279c.18,0,.327-.146.327-.327v-4.934c0-.18-.146-.327-.327-.327h-.279c-.19.008-.355.135-.412.317l-.446,1.663c-.047.173-.118.315-.163.315s-.145-.129-.24-.283c-.701-1.132-2.001-2.385-4.238-2.385-3.431,0-5.932,2.966-5.932,7.199,0,4.179,2.45,7.257,6.155,7.257,2.158,0,3.45-1.037,4.071-2.011.098-.152.198-.283.239-.283s.118.139.163.312l.425,1.39c.064.18.23.304.421.312h.279c.18,0,.327-.146.327-.327v-2.341c0-1.596.163-3.294,1.797-3.488.087-.008.169-.047.229-.111s.095-.147.098-.235v-.242c0-.175-.137-.319-.312-.327l.002.002ZM45.886,30.557v-3.267c-.003-.181-.146-.329-.327-.338-1.709-.129-1.875-1.307-1.875-2.73v-.49c0-1.426.163-2.601,1.875-2.732.181-.009.324-.157.327-.338v-3.267c0-.18-.146-.327-.327-.327h-5.165c-.18,0-.327.146-.327.327v3.267c.007.178.149.32.327.327,1.835.095,2.259,1.008,2.344,2.184.006.086-.025.17-.084.232s-.142.096-.228.095h-7.237c-.131.003-.249-.079-.293-.202-.014-.04-.02-.082-.017-.125.085-1.176.508-2.089,2.344-2.184.178-.007.32-.149.327-.327v-3.267c0-.18-.146-.327-.327-.327h-5.167c-.18,0-.327.146-.327.327v3.267c.004.181.146.328.327.338,1.709.131,1.874,1.307,1.874,2.732v.49c0,1.425-.163,2.601-1.874,2.73-.181.01-.323.157-.327.338v3.267c0,.18.146.327.327.327h5.167c.18,0,.327-.146.327-.327v-3.267c-.003-.18-.146-.327-.327-.335-1.857-.096-2.287-1.029-2.349-2.24-.002-.042.005-.085.02-.125.046-.123.164-.203.296-.202h7.237c.172-.003.313.135.316.306v.02c-.069,1.211-.49,2.143-2.347,2.24-.18.008-.323.154-.327.335v3.267c0,.18.146.327.327.327h5.165c.18,0,.327-.146.327-.327h-.002ZM58.056,17.08h-10.631c-.18,0-.327.146-.327.327v4.943c0,.18.146.327.327.327h.279c.181-.006.33-.146.348-.327.132-.98.867-1.707,2.181-1.707h1.71c.18,0,.327.146.327.327v3.151c0,1.307-.163,2.687-1.874,2.839-.18.013-.321.161-.327.341v3.267c0,.18.146.327.327.327h4.651c.18,0,.327-.146.327-.327v-3.267c-.005-.181-.146-.328-.327-.341-1.673-.155-1.856-1.539-1.856-2.839v-3.143c0-.18.146-.327.327-.327h1.707c1.242,0,2.045.755,2.194,1.709.021.18.17.319.351.327h.279c.18,0,.327-.146.327-.327v-4.953c0-.178-.142-.323-.32-.327Z"/>
</svg>