<?xml version="1.0" encoding="utf-8"?>
<!-- Generator: Adobe Illustrator 26.0.2, SVG Export Plug-In . SVG Version: 6.00 Build 0)  -->
<svg version="1.1" id="Layer_1" xmlns="http://www.w3.org/2000/svg" xmlns:xlink="http://www.w3.org/1999/xlink" x="0px" y="0px"
	 width="29px" height="29px" viewBox="0 0 29 29" style="enable-background:new 0 0 29 29;" xml:space="preserve">
<style type="text/css">
	.st0{fill:#FFFFFF;}
</style>
<path class="st0" d="M14.9,28.4c-7.7,0-14-6.3-14-14c0-7.7,6.3-14,14-14s14,6.3,14,14C28.9,22.1,22.6,28.4,14.9,28.4z M14.9,2.4
	c-6.6,0-12,5.4-12,12s5.4,12,12,12c6.6,0,12-5.4,12-12S21.5,2.4,14.9,2.4z"/>
<path class="st0" d="M19.4,14.3l-7,4v-8.1C12.4,10.2,19.4,14.3,19.4,14.3z"/>
</svg>
