<svg width="136" height="112" viewBox="0 0 136 112" fill="none" xmlns="http://www.w3.org/2000/svg">
<path d="M56.5999 79.5896C56.6494 80.3764 56.7485 81.1721 56.6945 81.9544C56.5594 83.9236 56.3613 85.8882 56.1588 87.8484C56.0732 88.6847 55.9472 89.5164 55.7896 90.3391C55.443 92.1375 54.9883 93.9088 54.2185 95.5768C53.5568 97.0109 52.9266 98.4676 52.1568 99.8433C50.5767 102.653 48.4789 105.018 45.8634 106.942C44.2969 108.093 42.6222 109.042 40.8666 109.833C39.8627 110.287 38.7553 110.507 37.6884 110.822C37.4048 110.908 37.0987 110.912 36.8196 111.006C34.5868 111.762 32.2504 111.825 29.9365 111.964C28.658 112.04 27.3616 111.973 26.0876 111.825C24.3229 111.622 22.5673 111.294 20.8161 110.997C18.4753 110.602 16.319 109.667 14.1672 108.714C11.5832 107.567 9.34587 105.944 7.31112 103.984C6.03714 102.757 4.91173 101.417 3.91686 99.9737C3.29112 99.0655 2.77343 98.0585 2.36828 97.0289C1.44994 94.7046 0.738677 92.3173 0.333526 89.8401C-0.287704 86.0681 -0.044614 82.3545 1.00878 78.6949C1.36441 77.4586 1.82358 76.2582 2.51684 75.1612C3.50721 73.5967 4.38503 71.9692 5.66801 70.5935C7.36064 68.7771 9.23333 67.2441 11.5697 66.3359C12.7671 65.8728 13.9061 65.2659 15.189 65.0366C17.854 64.5601 20.5055 64.596 23.1345 65.2389C24.8811 65.666 26.4927 66.4348 27.9558 67.4734C28.9326 68.1657 29.7204 69.0604 30.3597 70.0719C32.1513 72.9043 32.2099 73.0706 32.3629 76.5954C32.3989 77.3776 32.3044 78.1689 32.2549 78.9557C32.2414 79.149 32.1693 79.3423 32.0928 79.5222C31.7777 80.2685 31.278 80.4573 30.5442 80.1156C30.4317 80.0617 30.3237 80.0032 30.2201 79.9358C28.9507 79.0546 27.5146 78.6814 26.0021 78.4297C23.8097 78.061 20.402 79.5536 19.3621 81.5453C18.9299 82.3725 18.3987 83.1863 18.1511 84.0719C17.5659 86.1625 17.6199 88.28 18.3492 90.3391C18.8489 91.7553 19.8573 92.8478 20.9827 93.7784C22.7383 95.2261 24.7911 96.0533 27.0735 96.2511C28.1854 96.3455 29.2298 96.0398 30.2787 95.7386C30.8234 95.5812 31.359 95.3834 31.9083 95.2306C32.9977 94.9339 33.8845 94.3224 34.6003 93.4727C35.253 92.6994 35.8832 91.9037 36.4955 91.0989C36.734 90.7887 36.9681 90.4515 37.1032 90.0874C37.8775 88.0328 38.7868 86.0096 38.7238 83.7437C38.7238 83.5954 38.7463 83.447 38.7598 83.3031C38.7913 83.3031 38.8273 83.2942 38.8588 83.2942C38.6473 81.5543 38.5572 79.7919 38.1881 78.088C37.819 76.3796 37.2968 74.6846 36.617 73.0751C36.0453 71.7219 35.208 70.4676 34.3797 69.2402C33.6234 68.1162 32.7186 67.0912 31.8767 66.0302C31.7552 65.8773 31.5976 65.7469 31.4806 65.5896C29.77 63.2518 27.5281 61.4534 25.3898 59.5427C22.5898 57.043 19.8213 54.4984 16.9762 52.0482C14.5498 49.9576 12.452 47.5568 10.2777 45.2235C10.1787 45.1156 10.0796 45.0032 9.99411 44.8818C8.42303 42.6339 6.82944 40.3905 5.69952 37.8773C4.60561 35.4406 3.63775 32.9409 3.40367 30.2479C3.12906 27.0739 3.03453 23.9133 3.53421 20.7303C4.18246 16.6346 5.83907 13.0424 8.45904 9.87283C9.30536 8.84778 10.2507 7.89017 11.2186 6.98202C11.8443 6.39756 12.5556 5.87604 13.3028 5.45793C14.6353 4.70713 16.0174 4.03725 17.3949 3.36737C17.8135 3.16506 18.2727 3.03019 18.7274 2.92229C20.3885 2.53115 22.0541 2.158 23.7197 1.80283C24.1744 1.70392 24.6471 1.66795 25.1152 1.64547C26.2271 1.59152 27.3391 1.48362 28.4465 1.53308C29.9725 1.60051 31.5121 1.71291 33.0202 1.95119C34.9469 2.2569 36.8556 2.68401 38.7598 3.11561C39.426 3.26847 40.0923 3.52023 40.6955 3.83943C42.1135 4.59024 43.5091 5.39049 44.8911 6.20873C45.904 6.80668 46.6827 7.68786 47.448 8.56005C49.0776 10.4258 50.2841 12.5748 51.0899 14.8857C51.7426 16.7604 52.2108 18.7161 52.4089 20.7258C52.6294 22.9647 52.8095 25.1991 52.8365 27.447C52.8545 29.0475 52.2918 29.5421 50.7117 29.3802C50.2256 29.3308 49.7259 29.3667 49.2352 29.3802C48.767 29.3937 48.2988 29.4522 47.8307 29.4522C44.3419 29.4522 40.8576 29.4432 37.3688 29.4477C36.2254 29.4477 35.8157 29.088 35.7212 27.9281C35.6176 26.6243 35.5591 25.316 35.4106 24.0167C35.253 22.6275 34.7353 21.3372 34.0961 20.1008C32.8941 17.7675 30.0626 16.4817 27.3706 16.8773C26.2406 17.0437 25.1512 17.3539 24.1654 17.9743C23.5216 18.3789 23.0129 18.8915 22.6258 19.5434C21.8245 20.8831 21.4194 22.3353 21.2303 23.8818C21.0277 25.5228 21.2663 27.0829 21.8515 28.6024C22.3647 29.9377 22.8464 31.282 23.5757 32.5363C24.404 33.9615 25.4529 35.2023 26.5738 36.3892C27.9288 37.8279 29.3423 39.1991 30.8459 40.4939C33.4838 42.7688 36.0138 45.1696 38.5932 47.5074C39.1604 48.0244 39.7502 48.5145 40.3264 49.018C42.5997 51.0141 44.603 53.271 46.6332 55.4965C48.9291 58.0096 50.6442 60.9274 52.3548 63.8587C53.989 66.6596 54.9388 69.6718 55.6546 72.7874C55.9877 74.2261 56.1813 75.7007 56.3883 77.1664C56.5054 77.9711 56.5324 78.7849 56.5819 79.5986L56.5999 79.5896ZM99.897 41.6718C99.8475 41.0064 99.7574 40.341 99.7619 39.6802C99.7619 38.6686 99.7665 37.6525 99.8835 36.6545C100.127 34.6224 100.437 32.5947 100.739 30.5671C100.815 30.0546 100.964 29.5556 101.067 29.0475C101.216 28.3507 101.356 27.6493 101.504 26.948C101.608 26.4669 101.675 25.9679 101.842 25.5093C102.846 22.7759 103.836 20.0334 104.907 17.3269C105.313 16.2974 105.956 15.3667 106.424 14.3597C107.212 12.6602 108.342 11.1991 109.468 9.72447C111.151 7.51702 113.024 5.47592 115.131 3.67309C116.711 2.31985 118.484 1.23186 120.357 0.319203C121.496 -0.238279 122.203 -0.0719333 123.058 0.881182C123.306 1.15543 123.531 1.45215 123.769 1.73539C124.454 2.54913 125.147 3.34939 125.822 4.17213C126.29 4.7431 126.763 5.31856 127.177 5.93449C127.803 6.86513 127.663 7.70584 126.794 8.42068C126.493 8.66795 126.146 8.87926 125.8 9.05909C123.193 10.3854 120.938 12.1792 118.894 14.2518C118.358 14.7913 117.908 15.4252 117.481 16.0591C116.693 17.228 115.95 18.4239 115.198 19.6108C115.068 19.8176 114.969 20.0469 114.87 20.2717C114.379 21.3777 114.726 21.9082 115.945 21.7553C117.44 21.571 118.908 21.6744 120.371 21.9486C120.807 22.0295 121.248 22.1195 121.663 22.2723C122.824 22.6994 123.976 23.14 125.12 23.6121C125.548 23.7919 125.966 24.0302 126.331 24.3179C127.852 25.5093 129.333 26.7726 130.486 28.3192C131.44 29.596 132.174 31.0437 132.953 32.4464C133.943 34.2312 134.317 36.1914 134.492 38.201C134.609 39.5498 134.916 40.876 134.807 42.2518C134.668 44.0546 134.47 45.8349 133.934 47.5703C133.655 48.4695 133.362 49.3552 132.863 50.1644C132.723 50.3937 132.593 50.6365 132.489 50.8882C131.598 53.0373 130.045 54.6782 128.442 56.3102C126.673 58.113 124.503 59.192 122.212 60.0777C121.392 60.3969 120.497 60.5453 119.619 60.6802C117.62 60.9859 115.626 60.8825 113.641 60.5093C113.42 60.4689 113.195 60.4374 112.992 60.352C110.467 59.3359 107.978 58.3064 106.019 56.2698C104.111 54.2871 102.454 52.1426 101.405 49.6159C100.356 47.0893 99.843 44.4188 99.888 41.6673L99.897 41.6718ZM111.205 46.5992C112.128 48.3616 113.375 49.7058 115.293 50.3577C116.616 50.8073 117.967 50.9602 119.29 50.5016C120.398 50.1195 121.338 49.4136 122.104 48.51C123.895 46.3834 124.791 43.9287 124.769 41.6089C124.778 38.745 123.805 36.0835 122.284 34.2492C121.203 32.9454 119.754 32.298 118.178 31.8889C116.981 31.5787 115.882 31.9923 114.802 32.4374C114.527 32.5498 114.235 32.6487 114.001 32.8195C113.506 33.1792 112.965 33.5209 112.583 33.9884C111.687 35.0809 110.913 36.2768 110.489 37.6346C109.535 40.7097 109.679 43.7039 111.201 46.6082L111.205 46.5992ZM63.9241 51.0006C63.3299 48.3346 63.474 45.6506 63.6901 42.9621C63.8296 41.2402 63.9737 39.5183 64.2348 37.8099C64.5364 35.8587 64.856 33.8985 65.3872 32.0013C65.9814 29.8658 66.8007 27.7932 67.557 25.7026C68.3403 23.5356 69.4702 21.526 70.5056 19.4804C70.7262 19.0398 71.0053 18.6262 71.2799 18.2171C71.9551 17.2145 72.6349 16.2119 73.3326 15.2229C73.5757 14.8812 73.8638 14.571 74.1474 14.2653C75.0028 13.3391 75.8581 12.413 76.7314 11.5048C77.2266 10.9878 77.7128 10.4528 78.2665 10.0032C79.9141 8.66346 81.5482 7.29672 83.4434 6.29865C83.619 6.20873 83.7855 6.10083 83.9656 6.01541C84.9109 5.55234 85.7392 5.66474 86.464 6.42004C87.0627 7.04496 87.6164 7.71034 88.1836 8.36224C88.9939 9.29287 89.8358 10.2055 90.6056 11.1676C91.7715 12.6243 91.5464 13.7482 89.8493 14.5395C88.3997 15.2139 87.0537 16.0456 85.8473 17.0617C84.7174 18.0103 83.6955 19.0938 82.6601 20.1548C81.1295 21.7193 79.9591 23.5581 78.8472 25.4284C78.6491 25.7656 78.4826 26.1342 78.388 26.5119C78.2575 27.0379 78.5186 27.3706 79.0678 27.4335C79.3379 27.465 79.6125 27.4515 79.8826 27.4335C82.9527 27.2357 85.8473 27.9281 88.5438 29.3263C89.7367 29.9467 90.8576 30.7784 91.8525 31.6866C93.7792 33.4444 95.4268 35.4406 96.4532 37.8863C97.1915 39.6397 98.0513 41.3526 98.2224 43.2813C98.3349 44.5356 98.4024 45.79 98.488 47.0488C98.6275 48.429 98.1864 49.7508 98.1008 51.0996C98.0063 52.6416 97.4256 54.0218 96.8134 55.4021C96.2281 56.7148 95.5574 57.9647 94.7516 59.1651C93.0815 61.6468 90.9162 63.5845 88.2737 64.9062C86.5676 65.7604 84.7759 66.5427 82.7726 66.5067C82.3585 66.4977 81.9398 66.6101 81.5212 66.6416C79.4279 66.8125 77.4427 66.3314 75.5024 65.6211C74.7597 65.3513 74.0484 64.9917 73.3281 64.668C72.3738 64.2409 71.505 63.6834 70.7622 62.9371C69.7358 61.903 68.7049 60.8735 67.674 59.8439C67.5885 59.7585 67.4985 59.6686 67.4309 59.5652C65.8734 57.2229 64.6894 54.7142 64.0862 51.9493C64.0187 51.6346 64.0052 51.3109 63.9331 50.9962L63.9241 51.0006ZM73.6748 48.1952C73.8638 49.1888 73.9674 50.2139 74.3095 51.1535C74.9262 52.8574 76.0652 54.2376 77.4607 55.3886C78.5141 56.2608 79.7745 56.6249 81.125 56.5665C83.673 56.4586 85.4826 55.1053 86.7746 53.0058C87.9721 51.0546 88.2872 48.8516 88.4943 46.4194C88.3772 45.6821 88.3412 44.7245 88.0621 43.8433C87.4184 41.7932 86.2794 40.0668 84.4968 38.7855C82.1379 37.0861 79.2028 37.1265 77.0735 39.1182C74.4671 41.5594 72.977 44.4907 73.6748 48.1952ZM135.964 68.2601C135.901 66.718 135.073 65.7469 133.556 65.5177C132.813 65.4053 132.034 65.5312 131.274 65.5132C128.915 65.4547 126.596 65.8908 124.256 66.0482C123.441 66.1021 122.626 66.1786 121.825 66.3134C119.776 66.6551 117.733 67.0193 115.693 67.4104C114.068 67.7251 112.457 68.0938 110.836 68.4399C109.774 68.6692 108.711 68.8895 107.649 69.1278C107.046 69.2627 106.447 69.4066 105.853 69.5729C104.304 70 102.765 70.4496 101.216 70.8722C99.4288 71.3577 97.6327 71.8118 95.841 72.2929C94.9091 72.5446 93.9908 72.8369 93.059 73.0751C92.2216 73.2864 91.3663 73.4393 90.529 73.6326C88.1702 74.1856 85.8158 74.7521 83.4569 75.3006C82.9257 75.422 82.39 75.5299 81.8543 75.5973C79.5765 75.8805 77.2851 76.0963 75.0163 76.429C72.2702 76.8337 69.5062 76.9326 66.7422 77.0719C65.1936 77.1529 64.2843 78.025 64.2167 79.5896C64.1897 80.2055 64.2167 80.826 64.2167 81.4419H64.2573C64.2573 82.1342 64.2167 82.8266 64.2663 83.5145C64.3833 85.0835 65.1711 85.7399 66.7287 85.9422C68.993 86.2299 71.2123 85.7803 73.4542 85.7174C74.6381 85.6859 75.8266 85.5646 76.9925 85.3667C79.698 84.9082 82.381 84.3372 85.0865 83.8921C89.3631 83.1863 93.4956 81.8915 97.7092 80.9159C97.8037 80.8934 97.8983 80.8574 97.9928 80.8304C100.352 80.1786 102.702 79.4952 105.065 78.8748C107.577 78.2184 110.089 77.562 112.628 77.0225C115.333 76.447 118.057 75.9525 120.789 75.5254C122.689 75.2287 124.616 75.1118 126.533 74.9184C126.781 74.8915 127.024 74.878 127.272 74.8555C129.14 74.6891 131.013 74.5273 132.881 74.361C133.2 74.334 133.524 74.316 133.835 74.2486C135.249 73.9428 135.928 73.1651 135.973 71.7174C136.014 70.562 136.018 69.3976 135.973 68.2421L135.964 68.2601ZM84.0466 96.9705C84.0331 96.5389 83.9161 96.0893 83.736 95.6981C83.5064 95.2036 83.0337 95.0238 82.4935 95.0867C82.0029 95.1452 81.7147 95.4419 81.5932 96.0308C81.5302 96.341 81.4852 96.6647 81.4852 96.9839C81.4717 99.5286 81.4717 102.073 81.4582 104.613C81.4582 104.928 81.4311 105.261 81.3366 105.557C81.125 106.218 80.4678 106.686 79.833 106.69C79.1938 106.695 78.5861 106.241 78.379 105.517C78.2755 105.144 78.2485 104.739 78.244 104.348C78.2305 102.721 78.2215 101.089 78.244 99.4611C78.253 98.6474 78.3385 97.8337 78.3565 97.0244C78.3655 96.6827 78.3385 96.332 78.2575 96.0039C78.0999 95.3744 77.6362 95.0597 77.0015 95.0732C76.3938 95.0867 75.9931 95.3924 75.8221 96.0039C75.759 96.2152 75.705 96.44 75.7005 96.6558C75.678 97.8606 75.4034 99.061 75.624 100.275C75.66 100.464 75.6195 100.671 75.624 100.868C75.6465 102.271 75.615 103.683 75.7275 105.081C75.786 105.832 76.0471 106.574 76.2902 107.297C76.5783 108.143 77.2086 108.682 78.0414 108.997C78.8157 109.289 79.6125 109.41 80.4408 109.388C81.0575 109.374 81.5932 109.172 82.0839 108.803C83.3624 107.841 83.9746 106.533 84.0376 104.978C84.0916 103.647 84.0466 102.312 84.0466 100.976H84.0421C84.0421 100.657 84.0421 100.333 84.0421 100.014C84.0511 99.0026 84.0961 97.9865 84.0601 96.9795L84.0466 96.9705ZM116.756 107.477C116.805 107.693 116.832 107.918 116.828 108.134C116.81 108.718 116.531 109.087 116.022 109.244C115.54 109.397 115 109.262 114.698 108.83C114.491 108.534 114.352 108.179 114.23 107.837C113.888 106.879 113.479 106.542 112.578 106.533C111.525 106.52 110.998 106.866 110.642 107.801C110.579 107.963 110.53 108.129 110.462 108.286C110.152 109.001 109.549 109.325 108.864 109.159C108.27 109.01 107.919 108.475 107.932 107.612C107.973 107.414 108.027 107.095 108.113 106.789C108.603 105.005 109.112 103.224 109.589 101.435C109.756 100.819 109.828 100.176 109.99 99.5556C110.3 98.3867 110.624 97.2267 110.98 96.0713C111.156 95.4958 111.583 95.1946 112.2 95.1676C112.857 95.1407 113.402 95.3565 113.641 95.9859C114.032 97.0244 114.401 98.0719 114.689 99.1419C115.23 101.165 115.707 103.211 116.211 105.247C116.396 105.989 116.58 106.731 116.751 107.477H116.756ZM112.907 103.516C112.902 103.179 112.682 102.869 112.439 102.847C112.169 102.824 111.925 103.143 111.921 103.534C111.916 103.899 112.124 104.15 112.416 104.141C112.7 104.132 112.911 103.863 112.907 103.516ZM102.85 101.12C102.332 100.738 101.774 100.405 101.297 99.9827C100.995 99.7174 100.739 99.3532 100.581 98.9801C100.392 98.544 100.622 98.0045 100.995 97.7303C101.374 97.4515 101.743 97.4695 102.22 97.8202C102.481 98.009 102.706 98.2428 102.963 98.4361C103.557 98.8857 104.268 98.9396 104.669 98.58C105.042 98.2428 105.105 97.5504 104.75 96.9255C104.039 95.6757 102.994 94.9383 101.351 94.9653C101.085 94.9968 100.662 95.0238 100.253 95.1002C99.7034 95.2036 99.2443 95.4823 98.8616 95.896C97.295 97.5954 97.4076 100.122 99.1452 101.633C99.6674 102.087 100.266 102.446 100.802 102.882C101.257 103.256 101.707 103.651 102.098 104.087C102.458 104.483 102.593 104.996 102.526 105.54C102.413 106.475 101.486 106.987 100.658 106.542C100.365 106.385 100.127 106.11 99.8835 105.868C99.6944 105.674 99.5684 105.418 99.3658 105.243C98.9201 104.852 98.4024 104.748 97.8487 104.991C97.4076 105.184 97.2365 105.584 97.313 106.254C97.34 106.497 97.4076 106.74 97.4841 106.974C97.8487 108.057 98.641 108.705 99.6494 109.181C100.959 109.802 102.233 109.739 103.363 108.875C104.547 107.972 105.326 106.762 105.173 105.18C105.011 103.494 104.223 102.136 102.855 101.125L102.85 101.12ZM65.9229 69.7078C66.184 69.2042 66.1435 68.7052 65.8238 68.2376C65.7113 68.0758 65.5627 67.9409 65.4277 67.8015C64.8515 67.2126 64.8515 66.9339 65.3602 66.273C65.5988 65.9672 65.8509 65.6346 65.9679 65.2749C66.2515 64.3982 65.6033 63.6744 64.6939 63.8003C64.4508 63.8362 64.2212 63.9351 63.9782 63.9936C63.3659 64.1419 63.0508 63.9936 62.7897 63.4226C62.6772 63.1753 62.6051 62.9101 62.4791 62.6718C62.236 62.2132 61.8174 62.0064 61.3177 62.0199C60.8 62.0379 60.4398 62.3166 60.2553 62.8067C60.2103 62.9236 60.1742 63.0405 60.1382 63.1574C59.8276 64.0565 59.6295 64.1509 58.7202 63.9351C58.4186 63.8632 58.072 63.8048 57.7839 63.8812C56.9601 64.097 56.6539 65.1895 57.1671 65.9628C57.3022 66.1651 57.4958 66.3269 57.6533 66.5202C57.9819 66.9249 57.9999 67.2441 57.6938 67.6577C57.5768 67.815 57.4282 67.9499 57.3022 68.1028C56.9105 68.5838 56.816 69.2267 57.0951 69.6853C57.4102 70.2068 57.9054 70.3777 58.4951 70.3102C58.6437 70.2922 58.7877 70.2518 58.9318 70.2338C59.517 70.1753 59.7871 70.3327 60.0482 70.8722C60.1427 71.07 60.2148 71.2858 60.3138 71.4836C60.5524 71.9467 60.9395 72.1535 61.4572 72.158C61.9884 72.158 62.3531 71.9197 62.5691 71.4477C62.6637 71.2453 62.7312 71.034 62.8302 70.8362C63.0913 70.3012 63.3704 70.1618 63.9647 70.2518C64.2077 70.2877 64.4508 70.3417 64.5724 70.3642C65.2296 70.3776 65.6708 70.2023 65.9274 69.7078H65.9229ZM71.3474 95.0822C71.0188 94.9878 70.6631 94.9294 70.3255 94.9339C69.0155 94.9563 67.71 94.9923 66.4001 95.0597C65.7248 95.0957 65.3287 95.4464 65.2971 95.9454C65.2701 96.422 65.5402 96.6872 66.2515 96.885C67.3769 97.1953 67.6425 97.5594 67.638 98.7283C67.629 100.212 67.638 101.691 67.638 103.175C67.638 104.582 67.6245 105.989 67.647 107.396C67.656 107.832 67.692 108.291 67.8451 108.691C68.0522 109.235 68.6329 109.46 69.2721 109.356C69.7898 109.276 70.1139 108.943 70.204 108.349C70.249 108.057 70.2355 107.76 70.2355 107.464C70.2445 104.6 70.2715 101.736 70.2535 98.8722C70.249 97.8247 70.5956 97.0963 71.667 96.8311C71.739 96.8131 71.8066 96.7816 71.8741 96.7457C72.3918 96.4669 72.4998 95.8645 72.0632 95.4554C71.8741 95.28 71.6085 95.1542 71.3564 95.0822H71.3474ZM93.5181 107.684C93.3246 107.59 93.0995 107.527 92.8834 107.504C92.2712 107.446 91.6544 107.414 91.0377 107.369C90.3219 107.315 89.8853 106.983 89.8403 106.299C89.7682 105.193 89.7637 104.083 89.7457 102.972C89.7277 101.619 89.7277 100.261 89.7277 98.9082C89.7277 98.2428 89.7547 97.5819 89.7727 96.9165C89.7772 96.6692 89.8223 96.422 89.7907 96.1792C89.7007 95.4688 89.165 95.0373 88.4538 95.0732C87.6705 95.1137 87.2473 95.5588 87.2203 96.4445C87.1528 98.4676 87.1077 100.486 87.0537 102.509C87.0717 102.509 87.0897 102.509 87.1123 102.509C87.1123 103.867 87.1032 105.225 87.1168 106.583C87.1213 107.05 87.1798 107.518 87.2518 107.981C87.3598 108.687 87.783 109.136 88.4763 109.307C88.7869 109.383 89.111 109.46 89.4261 109.455C90.511 109.446 91.6004 109.415 92.6808 109.356C92.9914 109.338 93.3291 109.258 93.5902 109.1C94.1799 108.754 94.1304 107.976 93.5181 107.675V107.684Z" fill="#F44C80"/>
</svg>
