<?xml version="1.0" encoding="UTF-8"?>
<svg id="Layer_1" xmlns="http://www.w3.org/2000/svg" version="1.1" viewBox="0 0 78 42">
  <!-- Generator: Adobe Illustrator 29.5.1, SVG Export Plug-In . SVG Version: 2.1.0 Build 141)  -->
  <defs>
    <style>
      .st0 {
        fill: #fff;
      }
    </style>
  </defs>
  <path class="st0" d="M43.059,30.923c.037.127.039.264.057.399-.048.203-.013.42-.115.615-.123.232-.371.306-.582.155-.067-.047-.135-.115-.163-.189-.059-.156-.132-.311-.126-.487.005-.206-.003-.41,0-.615.001-.165.066-.26.223-.284.123-.019.257-.025.377.001.201.047.281.227.333.405h-.002ZM35.191,30.51c-.101-.023-.213-.014-.316-.002-.166.019-.259.131-.266.302-.004.099,0,.199,0,.298h.001c0,.093-.009.185.003.277.024.195.053.392.158.564.097.161.248.239.429.213.186-.027.304-.157.339-.337.061-.315.087-.634,0-.948-.049-.178-.157-.323-.347-.365h-.001ZM48.614,27.487c.384,1.21.749,2.353.749,3.548,0,1.09-.347,2.145-.975,2.974-.596.784-1.387,1.27-2.231,1.368-2.665.307-3.865.505-5.288.999-.201.07-.779.284-1.446.649-.259.142-.574.141-.832-.002-.417-.232-.902-.454-1.457-.647-1.424-.495-2.623-.691-5.288-.999-.842-.098-1.635-.582-2.231-1.368-.629-.828-.975-1.884-.975-2.974,0-1.196.363-2.338.749-3.548.248-.78.515-1.621.694-2.526.08-.403.435-.694.846-.694h16.147c.411,0,.767.289.846.694.18.905.447,1.746.695,2.526h-.001ZM38.257,30.29c-.126-.334-.35-.603-.658-.78-.364-.212-.763-.324-1.188-.321-.183,0-.368.006-.551-.001-.225-.01-.43.061-.631.142-.143.057-.274.145-.41.218-.077.042-.119.02-.126-.068-.004-.035-.006-.072,0-.107.027-.117.048-.236.091-.346.053-.138.114-.275.192-.401.233-.372.607-.537,1.013-.58.579-.061,1.156-.003,1.709.207.059.023.116.052.176.071.042.014.066,0,.058-.053-.019-.118-.044-.237-.049-.356-.009-.198-.01-.397-.004-.596.008-.311-.033-.625.07-.93.02-.061-.02-.081-.071-.108-.331-.172-.701-.205-1.057-.279-.233-.048-.477-.043-.717-.051-.481-.015-.956.022-1.431.115-.468.093-.914.237-1.319.485-.932.571-1.431,1.43-1.595,2.498-.008.048-.024.097-.032.145-.018.119-.04.238-.044.358-.008.213-.003.426-.003.597-.022.574.022,1.099.157,1.617.08.31.167.612.307.9.252.518.626.921,1.111,1.219.364.225.78.321,1.194.405.199.041.407.051.611.048.345-.004.691-.028,1.036-.044.028-.001.056-.008.083-.015.21-.061.422-.115.63-.184.417-.138.772-.378,1.059-.712.398-.463.559-1.024.601-1.618.035-.504-.029-1.004-.209-1.478l-.003.004ZM45.836,30.486c-.111-.404-.344-.724-.701-.95-.335-.212-.704-.318-1.097-.341-.197-.011-.397,0-.594-.008-.305-.013-.584.074-.854.202-.095.046-.18.114-.271.166-.053.031-.104.005-.108-.054-.005-.078-.013-.16.006-.233.075-.282.175-.557.374-.776.271-.297.624-.426,1.014-.454.148-.01.297.001.447-.004.336-.011.658.071.978.159.108.029.209.084.314.126.061.024.093-.005.089-.071-.013-.177-.035-.353-.033-.529.008-.453-.047-.908.052-1.359.004-.019-.011-.053-.029-.065-.047-.031-.096-.063-.151-.076-.307-.076-.615-.164-.926-.216-.243-.041-.492-.043-.739-.051-.473-.014-.944.019-1.41.114-.257.053-.503.12-.75.211-.487.179-.906.453-1.265.827-.368.386-.624.835-.777,1.344-.061.203-.097.412-.145.618-.053.226-.062.448-.066.675-.003.156,0,.312,0,.468h.004c0,.221-.011.442.003.66.015.225.04.45.086.671.087.421.207.831.41,1.218.323.618.806,1.054,1.442,1.312.46.186.952.259,1.448.271.423.01.842-.015,1.26-.112.243-.056.477-.124.699-.232.279-.136.542-.297.759-.53.455-.494.617-1.103.678-1.745.04-.42-.038-.835-.149-1.238v.004ZM33.847,16.743c.178.37.261.769.328,1.17.075.444.14.889.211,1.333.048.299.099.598.147.896.071.444.14.889.21,1.333.066.415.129.831.195,1.247.022.138.053.275.075.414.014.091.063.12.152.119.319-.003.639,0,.957-.003.145-.001.148-.009.161-.15.019-.213.038-.426.059-.64.038-.359.081-.718.118-1.078.022-.205.032-.412.053-.618.039-.367.083-.733.126-1.1.004-.028.013-.055.019-.082.005.029.013.057.015.086.033.36.063.721.096,1.081.015.162.033.324.051.485.04.382.082.763.124,1.144.028.256.061.513.087.77.008.076.048.101.116.101h1.025c.07,0,.105-.032.116-.104.089-.568.18-1.137.269-1.705.063-.401.124-.802.19-1.203.097-.59.204-1.177.293-1.768.094-.622.163-1.247.45-1.819.033-.065.013-.098-.061-.098h-1.381c-.076,0-.109.022-.087.105.022.085.047.175.044.261-.01.34-.025.68-.049,1.019-.01.146-.047.291-.067.436-.037.27-.068.542-.104.813-.034.264-.068.527-.102.79-.039.299-.08.6-.119.9-.005.034-.011.068-.018.103-.018-.031-.048-.06-.052-.093-.035-.293-.068-.586-.097-.88-.035-.353-.063-.707-.097-1.059-.039-.397-.09-.792-.123-1.189-.027-.325-.035-.65-.053-.976,0-.022,0-.044-.004-.066-.023-.136-.048-.161-.186-.164-.194-.003-.386-.003-.579,0-.154.003-.157.01-.168.165-.028.398-.054.795-.089,1.194-.04.463-.089.926-.133,1.389-.047.492-.094.985-.142,1.478-.006.066-.024.131-.039.195-.004.016-.016.031-.024.046-.004-.014-.008-.028-.01-.043-.03-.241-.062-.483-.091-.724-.034-.278-.065-.557-.101-.835-.038-.293-.082-.583-.123-.877-.04-.292-.095-.584-.113-.878-.019-.31-.011-.622.006-.931.009-.167.023-.176-.151-.178-.409-.003-.817,0-1.226,0-.029,0-.059,0-.089.003-.072.006-.087.044-.056.105.014.027.025.053.039.08v-.003ZM41.533,22.689c.094-1.705.027-3.411.035-5.118.001-.312,0-.637-.125-.94-.006-.016.02-.063.042-.071.032-.013.073-.006.11-.006.424,0,.847-.004,1.27.005.354.008.687.11.989.294.291.176.486.434.586.756.166.532.138,1.056-.11,1.554-.091.183-.213.355-.396.471-.104.066-.1.07-.001.124.071.039.143.08.205.131.234.189.324.445.352.74.038.421-.027.841,0,1.262.026.434,0,.873.138,1.295.005.015-.019.047-.037.06-.016.01-.043.006-.066.006-.386,0-.773.001-1.159,0-.118,0-.121-.006-.083-.109.059-.162.064-.331.087-.5.054-.392.032-.784.032-1.176,0-.236-.018-.473-.043-.708-.034-.32-.307-.512-.62-.452-.071.014-.076.061-.076.114,0,.245-.001.49-.001.735v.2c0,.223-.01.447.003.667.019.323.054.647.082.971.001.015,0,.03.004.044.016.064.035.126.053.189-.072.008-.144.023-.216.023-.342.003-.683.003-1.025,0-.139,0-.13-.002-.101-.129.034-.143.066-.289.073-.435v.002ZM42.663,18.458c0,.251-.001.502,0,.755.001.151.047.187.188.138.158-.053.287-.15.378-.293.192-.301.228-.628.177-.973-.049-.335-.235-.51-.575-.533-.149-.01-.167.003-.168.152-.003.251,0,.502,0,.755h0ZM31.748,21.259c.14-.035.263.013.378.085.057.036.113.055.138-.033.077-.265-.066-.637-.305-.781-.254-.155-.53-.183-.815-.109-.288.074-.498.265-.659.501-.226.335-.272.704-.195,1.104.097.505.367.87.823,1.088.409.197.839.263,1.295.186.541-.09.939-.368,1.166-.856.29-.62.288-1.264.037-1.898-.199-.501-.55-.889-.956-1.236-.259-.221-.514-.45-.75-.694-.206-.213-.338-.472-.302-.783.018-.161.07-.322.245-.36.292-.065.488-.025.584.336.024.093.042.189.046.284.005.1.056.124.143.123.134-.002.267,0,.401,0,.119,0,.238.001.357,0,.173-.002.192-.01.178-.171-.019-.227-.034-.461-.097-.677-.095-.321-.285-.577-.611-.724-.335-.152-.684-.195-1.041-.167-.495.038-.898.264-1.151.698-.195.334-.252.698-.186,1.09.083.504.359.887.706,1.228.328.322.68.618,1.006.941.134.133.248.299.328.472.132.284.207.585.105.903-.172.53-.683.663-1.047.37-.182-.146-.223-.344-.173-.561.043-.19.164-.311.354-.358h-.001ZM44.973,23.142c-.024.107-.032.109.086.11.372.003.743,0,1.114,0,.468,0,.936.001,1.404,0,.157,0,.162-.006.163-.165.002-.289.002-.578,0-.869,0-.115-.013-.126-.113-.081-.414.184-.851.171-1.289.167-.084,0-.125-.032-.119-.118.002-.029,0-.06,0-.089,0-1.596-.001-3.192.006-4.788,0-.212.051-.424.087-.634.02-.117.029-.119-.102-.121-.372-.003-.743-.001-1.114,0-.147,0-.144.003-.101.157.024.085.049.173.056.26.02.31.042.62.046.931.006.661.002,1.322.002,1.982,0,.461.003.921,0,1.38-.004.467.028.934-.039,1.399-.023.16-.049.32-.083.477h-.004ZM39.832,17.59c.013,1.544.009,3.087.004,4.631,0,.236-.033.472-.059.707-.011.105-.043.208-.066.312.11.005.221.01.331.014.044.001.089,0,.134,0h.802c.082,0,.102-.024.071-.107-.104-.266-.119-.551-.12-.828-.009-1.61-.01-3.221.001-4.831.003-.277,0-.565.119-.828.038-.084.005-.105-.072-.105h-1.203c-.07,0-.092.024-.063.095.123.302.121.625.124.939l-.003.003ZM46.678,38.762c-2.513.289-3.621.468-4.834.889-1.32.458-2.064,1.138-2.289,1.454-.009.013-.016.024-.024.037l-.006.01c-.24.397-.817.393-1.052-.008-.009-.015-.018-.031-.029-.044-.229-.317-.971-.993-2.287-1.45-1.213-.421-2.322-.599-4.835-.889-1.653-.19-3.175-1.1-4.284-2.56-1.07-1.41-1.659-3.198-1.659-5.035s.471-3.226.926-4.657c.4-1.256.777-2.442.777-3.683,0-2.218-1.872-4.251-1.89-4.272l-.022-.023c-.219-.235-.22-.6-.003-.837l.022-.023,5.291-5.733c-.44-.562-.366-1.142-.008-1.719.382-.613,1.105-1.011,1.929-1.323.507-.193,1.045-.346,1.584-.52.034-.011.042-.056.013-.077-.033-.024-.067-.049-.102-.075-.799-.591-.854-1.293-.138-1.932.159-.142.343-.274.535-.397.706-.453,1.562-.741,2.435-1.005.878-.264,1.605-.638,2.02-1.245.205-.299.392-.608.521-.925.285-.698.586-1.398,1.172-2.025.038-.041.187-.166.243-.137.02.013.028.038.016.06-.291.524-.473,1.064-.517,1.623-.061.751.008,1.472.601,2.155.727.836,1.625,1.535,2.788,2.098.734.355,1.41.768,2.081,1.179.638.391,1.166.849,1.508,1.392.546.869.498,1.739.053,2.603.068.033.133.079.189.137l5.434,5.888c.219.237.217.604-.004.839l-.02.021c-.018.019-1.89,2.054-1.89,4.272,0,1.239.377,2.426.777,3.683.455,1.431.926,2.91.926,4.657,0,1.837-.589,3.626-1.66,5.035-1.109,1.46-2.631,2.37-4.284,2.56v.002ZM42.148,10.063c-1.656-.275-3.421.084-4.959.983-.207.122-.096.439.142.405.939-.136,1.896-.047,2.818.123,1.308.241,2.585.639,3.912.77.636.062,1.355.033,1.848-.466.431-.436.574-1.155.44-1.757-.134-.603-.509-1.095-.952-1.45-.264-.212-.922-.721-1.418-.831-.18-.041-.326.147-.243.312.223.44.539.87.272,1.431-.163.344-.519.533-.856.575s-.67-.038-1.002-.093v-.003ZM37.864,6.611c-.135.137-.334.359-.355.561-.029.261.147.209.374.203.501-.014,1.014-.085,1.461-.326.554-.299.979-.921.869-1.543-.102-.575-.4-1.091-.613-1.616-.023-.057-.106-.049-.118.011-.14.773-.333,1.582-.918,2.116-.226.207-.484.377-.699.594ZM35.262,7.812c.151.137.355.211.558.207.065,0,.104-.07.075-.127-.19-.384-.009-.899.312-1.205.353-.336.831-.501,1.266-.721.307-.156.643-.374.834-.675.051-.08-.046-.171-.124-.119-.809.546-1.81.458-2.619,1.108-.272.218-.527.504-.563.851-.025.251.075.511.261.681h.001ZM32.382,12.055c.101-.216.25-.414.446-.581.473-.406,1.093-.589,1.7-.726,1.503-.34,3.063-.471,4.498-1.037,1.242-.49,2.415-1.403,2.879-2.629.07-.184-.143-.348-.301-.231-1.226.897-2.635,1.541-4.115,1.876-.884.2-1.791.292-2.664.535-.873.245-1.733.665-2.287,1.384-.245.318-.465.812-.531,1.3-.03.225.28.313.376.108h-.001ZM49.651,35.199c.853-1.123,1.323-2.556,1.323-4.033s-.431-2.844-.847-4.155c-.42-1.322-.855-2.688-.855-4.185,0-1.72.801-3.278,1.466-4.276.158-.237.133-.551-.059-.76l-3.5-3.792c-.196-.212-.51-.256-.76-.113-1.017.584-2.162.894-3.329.894-1.341,0-2.636-.403-3.749-1.154-.205-.138-.473-.138-.677,0-1.114.751-2.408,1.154-3.749,1.154-1.169,0-2.313-.312-3.329-.894-.25-.143-.564-.099-.76.113l-3.5,3.792c-.192.209-.218.523-.059.76.665.997,1.466,2.555,1.466,4.276,0,1.497-.435,2.863-.855,4.185-.417,1.311-.847,2.664-.847,4.155s.469,2.91,1.323,4.033c.835,1.099,1.957,1.781,3.161,1.92,2.646.304,3.827.497,5.186.969.836.291,1.476.646,1.954.983.21.148.491.148.701,0,.478-.337,1.118-.693,1.954-.983,1.358-.472,2.54-.663,5.186-.969,1.204-.138,2.326-.821,3.161-1.92h-.004Z"/>
</svg>