<?xml version="1.0" encoding="utf-8"?>
<!-- Generator: Adobe Illustrator 26.0.2, SVG Export Plug-In . SVG Version: 6.00 Build 0)  -->
<svg version="1.1" id="Layer_1" xmlns="http://www.w3.org/2000/svg" xmlns:xlink="http://www.w3.org/1999/xlink" x="0px" y="0px"
	 width="97px" height="42px" viewBox="0 0 97 42" style="enable-background:new 0 0 97 42;" xml:space="preserve">
<style type="text/css">
	.st0{fill:#FFFFFF;}
</style>
<path class="st0" d="M5.3,21.4H2.8l-2.5,3.5H0V21h13.9v3.9h-0.3l-2.5-3.5H8.6v9.7l1.1,1.2h1.8v0.4H2.3v-0.4h1.8l1.1-1.2L5.3,21.4z
	 M23.8,32.3H22v0.4h7.9v-0.4c-0.5,0-1.9,0-2.5-1.2L23,20.7h-1.2l-5.7,9.9c-0.2,0.4-0.5,0.8-0.9,1s-0.8,0.5-1.3,0.6v0.4h5v-0.4H18
	l-0.9-1.9l0.7-1.2h5.6l1,2.4L23.8,32.3z M18,28.5l2.6-4.7c0.1-0.1,0.1-0.1,0.2-0.1c0.1,0,0.1,0,0.2,0.1l2,4.7H18z M34.4,33h0.4
	l4.7-9.2l2.1-2.4h1.2V21h-6.2v0.4h1.2l1.3,2.3L36.2,29c0,0.1-0.1,0.2-0.2,0.2c-0.1,0-0.1-0.1-0.2-0.2l-3.3-6.5l0.8-1.1h1.4V21h-8
	v0.4H28l1.1,1.1L34.4,33z M46.9,31.3l-1,1H44v0.4h14.3v-4.5H58l-3.4,4h-3.8L50,31.3v-4.7h1.8l2.3,2.6h0.3v-5.7h-0.3l-2.3,2.6H50
	v-3.8l0.9-1h4l2.9,4h0.4L58.2,21H44v0.4h1.7l1.2,1V31.3z M63.9,31.3l-1,1h-2v0.4h8.8v-0.4H68l-1.1-0.9v-4.6h1.6
	c0.4,0,0.9,0.1,1.2,0.3c0.4,0.2,0.6,0.6,0.8,1l1.5,4.7h4.8v-0.4H76c-0.3,0-0.9-0.3-1.2-1.2l-1-3.4c-2,0-3.1-0.4-3.1-0.9
	c0-0.3,0.2-0.3,1.3-0.4c1.4-0.2,4.2-0.5,4.2-2.6c0-2.5-3-2.8-5.2-2.8H60.9v0.4h1.8l1.2,1L63.9,31.3z M66.9,22.4l1.2-1h2.1
	c2.2,0,2.7,1.2,2.7,2.4c0,2.5-2.7,2.5-6,2.5V22.4z M78.6,32.7h7.2v-0.4h-1.5l-1.9-2.2V23h0.1l8.3,9.7h2.6v-9l2-2.2h1.3V21h-7v0.4
	h1.6l1.6,2.2v6.6L85,21h-6.4v0.4h2.2c1.1,0,1.1,0.8,1.1,1.2V30L80,32.3h-1.4L78.6,32.7z M32.5,16L31.6,17h-1.5v0.3h7.3V17H36
	L35.1,16V8.3h2l2,2.8h0.2V8h-11v3.1h0.2l2-2.8h2V16z M43,16.1L42.2,17h-1.4v0.3h6.4V17h-0.8l-0.8-0.8v-3.6h4.5v3.6L49.3,17h-1v0.3
	h6.4V17h-1.4l-0.8-0.8v-7l0.9-0.8h1.3V8h-6.4v0.3h0.8l0.8,0.8v2.9h-4.5V9.2l0.7-0.8h0.9V8h-6.4v0.3h1.3L43,9.2V16.1z M58.5,16.1
	L57.8,17h-1.5v0.3h11.4v-3.5h-0.2L64.8,17h-3.1l-0.7-0.7v-3.7h1.4l1.8,2h0.2V10h-0.2l-1.8,2.1h-1.5v-3l0.7-0.8H65l2.3,3.2h0.3
	L67.5,8H56.3v0.3h1.3l0.9,0.8V16.1z"/>
</svg>
