<?xml version="1.0" encoding="UTF-8"?>
<svg id="Layer_1" xmlns="http://www.w3.org/2000/svg" version="1.1" viewBox="0 0 97 42">
  <!-- Generator: Adobe Illustrator 29.5.0, SVG Export Plug-In . SVG Version: 2.1.0 Build 137)  -->
  <defs>
    <style>
      .st0 {
        fill: #4f2c1d;
      }
    </style>
  </defs>
  <path class="st0" d="M5.3,21.4h-2.5l-2.5,3.5h-.3v-3.9h13.9v3.9h-.3l-2.5-3.5h-2.5v9.7l1.1,1.2h1.8v.4H2.3v-.4h1.8l1.1-1.2.1-9.7ZM23.8,32.3h-1.8v.4h7.9v-.4c-.5,0-1.9,0-2.5-1.2l-4.4-10.4h-1.2l-5.7,9.9c-.2.4-.5.8-.9,1s-.8.5-1.3.6v.4h5v-.4h-.9l-.9-1.9.7-1.2h5.6l1,2.4-.6.8ZM18,28.5l2.6-4.7q.1-.1.2-.1t.2.1l2,4.7h-5ZM34.4,33h.4l4.7-9.2,2.1-2.4h1.2v-.4h-6.2v.4h1.2l1.3,2.3-2.9,5.3c0,.1-.1.2-.2.2s-.1-.1-.2-.2l-3.3-6.5.8-1.1h1.4v-.4h-8v.4h1.3l1.1,1.1,5.3,10.5ZM46.9,31.3l-1,1h-1.9v.4h14.3v-4.5h-.3l-3.4,4h-3.8l-.8-.9v-4.7h1.8l2.3,2.6h.3v-5.7h-.3l-2.3,2.6h-1.8v-3.8l.9-1h4l2.9,4h.4v-4.3h-14.2v.4h1.7l1.2,1v8.9ZM63.9,31.3l-1,1h-2v.4h8.8v-.4h-1.7l-1.1-.9v-4.6h1.6c.4,0,.9.1,1.2.3.4.2.6.6.8,1l1.5,4.7h4.8v-.4h-.8c-.3,0-.9-.3-1.2-1.2l-1-3.4c-2,0-3.1-.4-3.1-.9,0-.3.2-.3,1.3-.4,1.4-.2,4.2-.5,4.2-2.6,0-2.5-3-2.8-5.2-2.8h-10.1v.4h1.8l1.2,1v8.8ZM66.9,22.4l1.2-1h2.1c2.2,0,2.7,1.2,2.7,2.4,0,2.5-2.7,2.5-6,2.5,0,0,0-3.9,0-3.9ZM78.6,32.7h7.2v-.4h-1.5l-1.9-2.2v-7.1h.1l8.3,9.7h2.6v-9l2-2.2h1.3v-.5h-7v.4h1.6l1.6,2.2v6.6l-7.9-9.2h-6.4v.4h2.2c1.1,0,1.1.8,1.1,1.2v7.4l-1.9,2.3h-1.4v.4ZM32.5,16l-.9,1h-1.5v.3h7.3v-.3h-1.4l-.9-1v-7.7h2l2,2.8h.2v-3.1h-11v3.1h.2l2-2.8h2v7.7ZM43,16.1l-.8.9h-1.4v.3h6.4v-.3h-.8l-.8-.8v-3.6h4.5v3.6l-.8.8h-1v.3h6.4v-.3h-1.4l-.8-.8v-7l.9-.8h1.3v-.4h-6.4v.3h.8l.8.8v2.9h-4.5v-2.8l.7-.8h.9v-.4h-6.4v.3h1.3l1.1.9v6.9ZM58.5,16.1l-.7.9h-1.5v.3h11.4v-3.5h-.2l-2.7,3.2h-3.1l-.7-.7v-3.7h1.4l1.8,2h.2v-4.6h-.2l-1.8,2.1h-1.5v-3l.7-.8h3.4l2.3,3.2h.3l-.1-3.5h-11.2v.3h1.3l.9.8v7Z"/>
</svg>