<?xml version="1.0" encoding="UTF-8"?>
<svg id="Layer_1" xmlns="http://www.w3.org/2000/svg" version="1.1" viewBox="0 0 78 42">
  <!-- Generator: Adobe Illustrator 29.5.0, SVG Export Plug-In . SVG Version: 2.1.0 Build 137)  -->
  <defs>
    <style>
      .st0 {
        fill: #4f2c1d;
      }
    </style>
  </defs>
  <path class="st0" d="M10.5,32.2s-.1,0,0,0h0ZM18.9,34.3l-.6.6c.4.1,1.4,1.4,1.4,1.4.4-1.1-.8-2-.8-2ZM39.1,8.8c-1.5-.1-3.1-.2-4.6-.4-.6-.1-1.1-.2-1.8-.3.9.6,1,1.3,1,2.1v18.1h-.1c-.1-.1-.2-.2-.3-.3-1.3-1.4-3.2-2-5.4-1.7-3.7.5-4.8,3.7-2.7,5.6.3.3.7.5,1.2.7,0,0,1.1.4,1.3,0v-.2h0c-.6-.1-1.3-.6-1.5-.7-.7-.5-1.1-1.2-1.1-1.9,0-2.4,2.9-3.4,5.4-2.7,1.5.5,2.4,1.3,2.7,2.5.4,1.5-.1,2.9-1.6,4-2.6,2-6.9,1.2-8.6-1.1-.7-1-.9-2-.9-3.1v-5.9c0-.3-.1-.4-.7-.4-.7.1-1.4,0-2.1,0-.5,0-.7,0-.7.3v5.6c0,.8-.1,1.5-.3,2.3-.2.7-.5,1.3-1.1,1.8-.6-.2-1.7-.7-2.1-.8-.3-.1-.4-.2-.4-.4v-9.8c0-.4,0-.5.6-.5h9.6c1.2,0,2.1.4,2.5,1.3.1.3.2.6.4,1,.1.1.1.3.4.2.2-.1.4-.1.3-.3-.2-.6-.4-1.2-.4-1.9-.1-1.2,0-2.4.3-3.5.1-.2.1-.5.2-.7-.2,0-.4-.1-.6-.1-.1.1-.2.2-.2.3-.3.6-.9,1-1.8,1h-3.8v-3.7c0-1,.1-2.1.7-3,.2-.4.5-.7.8-1.1-1.1.3-1.7.8-2.2,1.5-.2.3-.6.5-1,.5h-.1c-.4,0-.7-.2-1-.5-.4-.6-1-1.1-1.8-1.5-.1,0-.3-.1-.5-.1.3.3.6.6.8.9.7,1,.8,2.1.8,3.2v3.7h-3.4c-.5,0-.6-.1-.6-.4v-8.2c0-.9.2-1.8.7-2.6.1-.2.2-.3.3-.5h0c0-.1.1-.1.1-.2h0c1.8-1.9,5.9-1.6,5.9-1.6.8.1,1.5.4,2.1.8,1.4.8,2,1.9,2,3.2,0,.9-.3,1.7-.4,2.6-.2,1.1-.2,2.1.4,3.1.2.3.5.6.8.8.1.1.3.2.5,0s-.1-.4-.2-.6h0c-.3-.2-.5-.5-.6-.9-.4-1-.3-1.9.2-2.9.6-1.4,1.8-2.5,3.4-3.4.3-.2.6-.3.9-.4-1.2-.4-2.3-.8-3.5-1.2-1.7-.6-3.4-1.3-5.3-1.5h-.3c-.2,0-.3,0-.5-.1h-.3c-3.7-.3-6.7,1.2-7,1.3-.8.3-1.6.6-2.5.9-.5.2-1,.3-1.5.5.3.1.6.3.8.5.5.4.6.8.6,1.3v19.4c0,.6-.1,1.2-.3,1.7s-.5.9-.8,1.4h0c.2,0,.3.1.5.1,1.6.1,4,1.2,5.5,1.6h0c-.1.1-.3.1-.4.2-2.8,1.3-6.3.6-7.7-1.5-.7-1.1-1-2.2-1-3.3V9.5c0-.6.2-1.2.8-1.6,0,0,0-.1.1-.1h-.1c-1.1.5-2.4.7-3.7.8-.9.1-1.9.2-2.8.2-.2.1-.3.2-.4.3.1.1.2.2.3.2,1.7.2,2.7,1,2.7,2.3v17.2c-.1.7-.5,1.3-1.4,1.6-.1,0-.2.1-.3.1.4.1.7.2,1,.2,1.1.3,2,.8,2.8,1.4,1,.7,1.9,1.5,3,2.2,1.9,1.1,4.1,1.4,6.4.7,1.7-.5,2.9-1.3,3.7-2.5.2-.3.3-.3.6-.1.5.3,1,.3,1.6,0,.3-.2.5-.1.7.2,1.1,1.5,2.7,2.5,5,2.7,2,.2,3.8-.2,5.3-1.1.9-.6,1.7-1.2,2.5-1.8.8-.6,1.6-1.2,2.7-1.5.4-.1.9-.2,1.3-.4-.1,0-.1-.1-.1-.1-1.1-.4-1.6-1-1.6-1.9V11.5c0-.3.1-.7.3-1,.4-.8,1.3-1.1,2.3-1.3.1,0,.2-.1.3-.2-.1-.1-.2-.2-.3-.2-.4,0-.6,0-.7,0ZM52.7,19.2s.1.1.2.1h.5c.1,0,.2,0,.2-.1v-.1c.9-3.3,1.6-5.4,1.8-6.3v-.1c.3-.9.3-1,1.1-1.1h.1c.1,0,.1-.1.1-.2v-.4c0-.1-.1-.2-.2-.2h-2.7c-.1,0-.2.1-.2.2v.4c0,.1,0,.2.1.2h.1c.4,0,.6.1.7.2.1.1,0,.3,0,.7-.1.7-.5,2.2-.9,3.4,0,.1-.1.1-.1,0-.2-.6-.4-1.1-.6-1.7-.3-1-.7-2.1-1-3.2v-.1s-.1-.1-.2-.1h-.5c-.1,0-.2,0-.2.1v.1c-.4,1.4-.9,3.1-1.4,4.7,0,.1-.1.1-.1,0-.3-1.2-.6-2.4-.9-3.5-.1-.2-.1-.4-.1-.5.1-.1.3-.1.6-.2h.1s.1-.1.1-.2v-.3c0-.1-.1-.2-.2-.2h-3.4c-.1,0-.2.1-.2.2v.4c0,.1,0,.2.1.2h.1c.6.1.7.1,1,1.1.6,2.3,1.2,4.3,1.8,6.5v.1s.1.1.2.1h.5c.1,0,.2,0,.2-.1v-.1c.5-1.7,1-3.3,1.4-4.7,0-.1.1-.1.1,0,.2.7.5,1.4.7,2.1.5.8.8,1.7,1.1,2.6h0ZM57.9,19.1h3.4c.1,0,.2-.1.2-.2v-.4c0-.1,0-.2-.1-.2h-.1c-.7-.1-.8-.1-.8-1v-4.8c0-.5,0-.7.1-.9.1-.1.3-.1.7-.2h.1s.1-.1.1-.2v-.2c0-.1-.1-.2-.2-.2h-3.4c-.1,0-.2.1-.2.2v.4c0,.1,0,.2.1.2h.1c.4,0,.6.1.7.2.1.1.1.4.1.9v4.8c0,.9-.1,1-.8,1h-.1s-.1.1-.1.2v.3c0,.1.1.1.2.1ZM68.5,16.8l-.4-.1h-.2v.1c-.2.5-.4.9-.6,1.2-.2.2-.5.3-1,.3-.3,0-.6,0-.8-.1-.1-.1-.2-.2-.2-.8v-4.8c0-.5,0-.7.1-.9.1-.1.3-.1.7-.2h.1s.1-.1.1-.2v-.3c0-.1-.1-.2-.2-.2h-3.5c-.1,0-.2.1-.2.2v.4c0,.1,0,.2.1.2h.1c.7.1.8.1.8,1v4.8c0,.4,0,.7-.1.8-.1.1-.3.2-.8.2h-.1s-.1.1-.1.2v.4c0,.1.1.2.2.2h5.5c.1,0,.2,0,.2-.1v-.1c.1-.3.3-1.5.4-2v-.1c.1,0,0-.1-.1-.1ZM69.2,19v-.4c0-.1,0-.2.1-.2h.1c.4,0,.6-.1.7-.2s.1-.4.1-.9v-4.7q0-1-.8-1.1h-.1s-.1-.1-.1-.2v-.3c0-.1.1-.2.2-.2h3.2c1.6,0,2.7.4,3.4,1.1.6.7,1,1.7,1,2.7,0,1.5-.5,2.6-1.4,3.4-.8.7-2,1.1-3.5,1.1h-2.8q-.1,0-.1-.1ZM72.1,17.3c0,.8.2,1,.7,1,1.3,0,2.1-1.3,2.1-3.4,0-1.1-.3-2.1-.7-2.6-.4-.4-.9-.7-1.5-.7h-.3c-.1,0-.2.1-.2.2v.3l-.1,5.2h0ZM51.5,22.2v-.1c0-.1-.1-.1-.2-.1h-5.4c-.1,0-.2.1-.2.2v.4c0,.1,0,.2.1.2h.1c.7.1.8.1.8,1.1v4.7c0,1-.1,1-.8,1.1h-.1s-.1.1-.1.2v.4c0,.1.1.2.2.2h3.5c.1,0,.2-.1.2-.2v-.4c0-.1,0-.2-.1-.2h-.1q-.9-.1-.9-1.1v-1.7c0-.1.1-.2.2-.2h.6q.9,0,1.1.8v.1s.1.1.2.1h.4c.1,0,.2-.1.2-.2v-2.4c0-.1-.1-.2-.2-.2h-.4c-.1,0-.2,0-.2.1v.1c-.1.7-.2.7-1.1.7h-.6c-.1,0-.2-.1-.2-.2v-2.5c0-.1.1-.1.1-.1h.6c.6,0,.9.1,1.1.3.2.2.3.5.4.9v.1s.1.1.2,0l.4-.1c.1,0,.2-.1.2-.1v-.1c.1-.7,0-1.4,0-1.8ZM59.1,23c.7.8,1,1.8,1,3.1s-.4,2.4-1.1,3.2c-.7.8-1.6,1.2-2.7,1.2-2.2,0-3.8-1.8-3.8-4.3,0-1.1.3-2.2.9-3,.7-.9,1.7-1.4,2.9-1.4,1.2,0,2.1.4,2.8,1.2ZM58,26.4c0-2.4-.6-3.8-1.7-3.8-.9,0-1.5,1.3-1.5,3.3,0,1.1.2,2,.5,2.7s.8,1.1,1.3,1.1c.8-.1,1.4-1.3,1.4-3.3ZM68.3,29.7s.1.1,0,.2l-.1.3c0,.1-.1.2-.1.2h-.5c-1.5-.1-2-.4-2.5-1.3-.3-.6-.7-1.3-1-1.8-.2-.4-.3-.5-.6-.5h0v1.7c0,.5,0,.7.1.9.1.1.2.1.7.2h.1s.1.1.1.2v.4c0,.1-.1.2-.2.2h-3.4c-.1,0-.2-.1-.2-.2v-.4c0-.1,0-.2.1-.2h.1c.4,0,.6-.1.7-.2.1-.1.1-.4.1-.9v-4.8q0-.9-.8-1h-.1s-.1-.1-.1-.2v-.4c0-.1.1-.2.2-.2h3.3c.9,0,1.5.1,2,.5.6.4.9,1,.9,1.8,0,.9-.4,1.6-1.2,2-.1,0-.1.1-.1.2.2.4.5,1,.8,1.5.4.7.6,1,.9,1.3h0c.3.3.5.4.8.5h0ZM65.2,24.4c0-1.2-.6-1.6-1.2-1.6h-.2c-.1,0-.2.1-.2.2v2.9c0,.1,0,.2.1.2h.1c.4,0,.7-.1.9-.3.3-.3.5-.8.5-1.4ZM76.9,29.5h0c-.5-.1-.7-.2-1.1-.8-.9-1.2-1.6-2.5-2.2-3.4,0-.1-.1-.2-.1-.2h0c.4-.5.8-1,1.4-1.6.6-.7,1-.8,1.7-.8h.1s.1-.1.1-.2v-.4c0-.1-.1-.2-.2-.2h-2.9c-.1,0-.2.1-.2.2v.4c0,.1.1.2.2.2h.4c.1,0,.1.1.1.2,0,0,0,.1-.1.1-.5.7-1,1.5-1.6,2.1-.1.1-.2.2-.3.3-.1.1-.1,0-.1-.1v-1.7q0-1,.7-1h.1s.1-.1.1-.2v-.4c0-.1-.1-.2-.2-.2h-3.4c-.1,0-.2.1-.2.2v.4c0,.1,0,.2.1.2h.1c.4,0,.6.1.7.2s.1.4.1.9v4.8c0,1-.1,1-.8,1h-.1s-.1.1-.1.2v.4c0,.1.1.2.2.2h3.4c.1,0,.2-.1.2-.2v-.4c0-.1,0-.2-.1-.2h-.1c-.7-.1-.8-.1-.8-1v-1.9c0-.1.1-.1.1-.1,0,0,.1.1.1.2.2.3.3.5.5.8.7,1.1,1.3,2.3,1.7,2.7h2.4c.1,0,.2-.1.2-.2v-.4q-.1,0-.1-.1Z"/>
</svg>