<?xml version="1.0" encoding="utf-8"?>
<!-- Generator: Adobe Illustrator 26.0.2, SVG Export Plug-In . SVG Version: 6.00 Build 0)  -->
<svg version="1.1" id="Layer_1" xmlns="http://www.w3.org/2000/svg" xmlns:xlink="http://www.w3.org/1999/xlink" x="0px" y="0px"
	 width="78px" height="42px" viewBox="0 0 78 42" style="enable-background:new 0 0 78 42;" xml:space="preserve">
<style type="text/css">
	.st0{fill:#FFFFFF;}
</style>
<path class="st0" d="M10.5,32.2C10.5,32.2,10.4,32.2,10.5,32.2L10.5,32.2z M18.9,34.3l-0.6,0.6c0.4,0.1,1.4,1.4,1.4,1.4
	C20.1,35.2,18.9,34.3,18.9,34.3z M39.1,8.8c-1.5-0.1-3.1-0.2-4.6-0.4c-0.6-0.1-1.1-0.2-1.8-0.3c0.9,0.6,1,1.3,1,2.1
	c0,5.8,0,11.7,0,17.5c0,0.2,0,0.4,0,0.6c-0.1,0-0.1,0-0.1,0c-0.1-0.1-0.2-0.2-0.3-0.3c-1.3-1.4-3.2-2-5.4-1.7
	c-3.7,0.5-4.8,3.7-2.7,5.6c0.3,0.3,0.7,0.5,1.2,0.7c0,0,1.1,0.4,1.3,0c0-0.1,0-0.1,0-0.2c0,0,0,0,0,0c-0.6-0.1-1.3-0.6-1.5-0.7
	c-0.7-0.5-1.1-1.2-1.1-1.9c0-2.4,2.9-3.4,5.4-2.7c1.5,0.5,2.4,1.3,2.7,2.5c0.4,1.5-0.1,2.9-1.6,4c-2.6,2-6.9,1.2-8.6-1.1
	c-0.7-1-0.9-2-0.9-3.1c0-2.2,0-3.7,0-5.9c0-0.3-0.1-0.4-0.7-0.4c-0.7,0.1-1.4,0-2.1,0c-0.5,0-0.7,0-0.7,0.3c0,2.1,0,3.5,0,5.6
	c0,0.8-0.1,1.5-0.3,2.3c-0.2,0.7-0.5,1.3-1.1,1.8c-0.6-0.2-1.7-0.7-2.1-0.8c-0.3-0.1-0.4-0.2-0.4-0.4c0-1.5,0-2.9,0-4.4
	c0-1.8,0-3.6,0-5.4c0-0.4,0-0.5,0.6-0.5v0h1.5c0.7,0,1.3,0,1.9,0c0.5,0,1.1,0,1.6,0H24c0.3,0,0.6,0,0.9,0c1.2,0,2.1,0.4,2.5,1.3
	c0.1,0.3,0.2,0.6,0.4,1c0.1,0.1,0.1,0.3,0.4,0.2c0.2-0.1,0.4-0.1,0.3-0.3c-0.2-0.6-0.4-1.2-0.4-1.9c-0.1-1.2,0-2.4,0.3-3.5
	c0.1-0.2,0.1-0.5,0.2-0.7c-0.2,0-0.4-0.1-0.6-0.1c-0.1,0.1-0.2,0.2-0.2,0.3c-0.3,0.6-0.9,1-1.8,1l-3.8,0c0-1.9,0-1.8,0-3.7
	c0-1,0.1-2.1,0.7-3c0.2-0.4,0.5-0.7,0.8-1.1c-1.1,0.3-1.7,0.8-2.2,1.5c-0.2,0.3-0.6,0.5-1,0.5h-0.1c-0.4,0-0.7-0.2-1-0.5
	c-0.4-0.6-1-1.1-1.8-1.5c-0.1,0-0.3-0.1-0.5-0.1c0.3,0.3,0.6,0.6,0.8,0.9c0.7,1,0.8,2.1,0.8,3.2c0,1.9,0,1.8,0,3.7l-3.4,0
	c-0.5,0-0.6-0.1-0.6-0.4c0-0.1,0-0.1,0-0.2c0-2.7,0-5.3,0-8c0-0.9,0.2-1.8,0.7-2.6c0.1-0.2,0.2-0.3,0.3-0.5c0,0,0,0,0,0
	c0-0.1,0.1-0.1,0.1-0.2c0,0,0,0,0,0c1.8-1.9,5.9-1.6,5.9-1.6c0.8,0.1,1.5,0.4,2.1,0.8c1.4,0.8,2,1.9,2,3.2c0,0.9-0.3,1.7-0.4,2.6
	c-0.2,1.1-0.2,2.1,0.4,3.1c0.2,0.3,0.5,0.6,0.8,0.8c0.1,0.1,0.3,0.2,0.5,0c0.2-0.2-0.1-0.4-0.2-0.6l0,0c-0.3-0.2-0.5-0.5-0.6-0.9
	c-0.4-1-0.3-1.9,0.2-2.9c0.6-1.4,1.8-2.5,3.4-3.4c0.3-0.2,0.6-0.3,0.9-0.4c-1.2-0.4-2.3-0.8-3.5-1.2c-1.7-0.6-3.4-1.3-5.3-1.5
	c-0.1,0-0.2,0-0.3,0c-0.2,0-0.3,0-0.5-0.1c-0.1,0-0.2,0-0.3,0c0,0,0,0,0,0c0,0,0,0,0,0c-3.7-0.3-6.7,1.2-7,1.3
	c-0.8,0.3-1.6,0.6-2.5,0.9c-0.5,0.2-1,0.3-1.5,0.5c0.3,0.1,0.6,0.3,0.8,0.5c0.5,0.4,0.6,0.8,0.6,1.3c0,6.5,0,13,0,19.4
	c0,0.6-0.1,1.2-0.3,1.7c-0.2,0.5-0.5,0.9-0.8,1.4c0,0,0,0,0,0c0.2,0,0.3,0.1,0.5,0.1c1.6,0.1,4,1.2,5.5,1.6h0
	c-0.1,0.1-0.3,0.1-0.4,0.2c-2.8,1.3-6.3,0.6-7.7-1.5c-0.7-1.1-1-2.2-1-3.3c0-3.8,0-7.7,0-11.5c0-2.6,0-5.2,0-7.9
	c0-0.6,0.2-1.2,0.8-1.6c0,0,0-0.1,0.1-0.1c-0.1,0-0.1,0-0.1,0C6.8,8.3,5.5,8.5,4.2,8.6C3.3,8.7,2.3,8.8,1.4,8.8C1.2,8.9,1.1,9,1,9.1
	c0.1,0.1,0.2,0.2,0.3,0.2C3,9.5,4,10.3,4,11.6C4,12,4,12.5,4,13c0,4.8,0,9.5,0,14.3c0,0.5,0,1,0,1.5c-0.1,0.7-0.5,1.3-1.4,1.6
	c-0.1,0-0.2,0.1-0.3,0.1c0.4,0.1,0.7,0.2,1,0.2c1.1,0.3,2,0.8,2.8,1.4c1,0.7,1.9,1.5,3,2.2c1.9,1.1,4.1,1.4,6.4,0.7
	c1.7-0.5,2.9-1.3,3.7-2.5c0.2-0.3,0.3-0.3,0.6-0.1c0.5,0.3,1,0.3,1.6,0c0.3-0.2,0.5-0.1,0.7,0.2c1.1,1.5,2.7,2.5,5,2.7
	c2,0.2,3.8-0.2,5.3-1.1c0.9-0.6,1.7-1.2,2.5-1.8c0.8-0.6,1.6-1.2,2.7-1.5c0.4-0.1,0.9-0.2,1.3-0.4c-0.1,0-0.1-0.1-0.1-0.1
	c-1.1-0.4-1.6-1-1.6-1.9c0-5.7,0-11.3,0-17c0-0.3,0.1-0.7,0.3-1c0.4-0.8,1.3-1.1,2.3-1.3c0.1,0,0.2-0.1,0.3-0.2
	c-0.1-0.1-0.2-0.2-0.3-0.2C39.4,8.8,39.2,8.8,39.1,8.8z M52.7,19.2c0,0,0.1,0.1,0.2,0.1h0.5c0.1,0,0.2,0,0.2-0.1l0-0.1
	c0.9-3.3,1.6-5.4,1.8-6.3l0-0.1c0.3-0.9,0.3-1,1.1-1.1c0,0,0,0,0.1,0s0.1-0.1,0.1-0.2V11c0-0.1-0.1-0.2-0.2-0.2h-2.7
	c-0.1,0-0.2,0.1-0.2,0.2v0.4c0,0.1,0,0.2,0.1,0.2l0.1,0c0.4,0,0.6,0.1,0.7,0.2c0.1,0.1,0,0.3,0,0.7c-0.1,0.7-0.5,2.2-0.9,3.4
	c0,0.1-0.1,0.1-0.1,0c-0.2-0.6-0.4-1.1-0.6-1.7c-0.3-1-0.7-2.1-1-3.2c0,0,0,0,0-0.1c0,0-0.1-0.1-0.2-0.1h-0.5c-0.1,0-0.2,0-0.2,0.1
	l0,0.1c-0.4,1.4-0.9,3.1-1.4,4.7c0,0.1-0.1,0.1-0.1,0c-0.3-1.2-0.6-2.4-0.9-3.5c-0.1-0.2-0.1-0.4-0.1-0.5c0.1-0.1,0.3-0.1,0.6-0.2
	c0,0,0,0,0.1,0c0,0,0.1-0.1,0.1-0.2V11c0-0.1-0.1-0.2-0.2-0.2h-3.4c-0.1,0-0.2,0.1-0.2,0.2v0.4c0,0.1,0,0.2,0.1,0.2l0.1,0
	c0.6,0.1,0.7,0.1,1,1.1c0.6,2.3,1.2,4.3,1.8,6.5c0,0,0,0,0,0.1c0,0,0.1,0.1,0.2,0.1h0.5c0.1,0,0.2,0,0.2-0.1l0-0.1
	c0.5-1.7,1-3.3,1.4-4.7c0-0.1,0.1-0.1,0.1,0c0.2,0.7,0.5,1.4,0.7,2.1C52.1,17.4,52.4,18.3,52.7,19.2C52.7,19.2,52.7,19.2,52.7,19.2z
	 M57.9,19.1h3.4c0.1,0,0.2-0.1,0.2-0.2v-0.4c0-0.1,0-0.2-0.1-0.2l-0.1,0c-0.7-0.1-0.8-0.1-0.8-1v-4.8c0-0.5,0-0.7,0.1-0.9
	c0.1-0.1,0.3-0.1,0.7-0.2c0,0,0,0,0.1,0c0,0,0.1-0.1,0.1-0.2V11c0-0.1-0.1-0.2-0.2-0.2h-3.4c-0.1,0-0.2,0.1-0.2,0.2v0.4
	c0,0.1,0,0.2,0.1,0.2l0.1,0c0.4,0,0.6,0.1,0.7,0.2c0.1,0.1,0.1,0.4,0.1,0.9v4.8c0,0.9-0.1,1-0.8,1c0,0,0,0-0.1,0
	c0,0-0.1,0.1-0.1,0.2V19C57.7,19.1,57.8,19.1,57.9,19.1z M68.5,16.8l-0.4-0.1c-0.1,0-0.2,0-0.2,0l0,0.1c-0.2,0.5-0.4,0.9-0.6,1.2
	c-0.2,0.2-0.5,0.3-1,0.3c-0.3,0-0.6,0-0.8-0.1c-0.1-0.1-0.2-0.2-0.2-0.8v-4.8c0-0.5,0-0.7,0.1-0.9c0.1-0.1,0.3-0.1,0.7-0.2
	c0,0,0,0,0.1,0c0,0,0.1-0.1,0.1-0.2V11c0-0.1-0.1-0.2-0.2-0.2h-3.5c-0.1,0-0.2,0.1-0.2,0.2v0.4c0,0.1,0,0.2,0.1,0.2l0.1,0
	c0.7,0.1,0.8,0.1,0.8,1v4.8c0,0.4,0,0.7-0.1,0.8c-0.1,0.1-0.3,0.2-0.8,0.2c0,0,0,0-0.1,0c0,0-0.1,0.1-0.1,0.2V19
	c0,0.1,0.1,0.2,0.2,0.2H68c0.1,0,0.2,0,0.2-0.1l0-0.1c0.1-0.3,0.3-1.5,0.4-2c0,0,0,0,0-0.1C68.7,16.9,68.6,16.8,68.5,16.8z M69.2,19
	v-0.4c0-0.1,0-0.2,0.1-0.2c0,0,0.1,0,0.1,0c0.4,0,0.6-0.1,0.7-0.2c0.1-0.1,0.1-0.4,0.1-0.9v-4.7c0-1,0-1-0.8-1.1l-0.1,0
	c0,0-0.1-0.1-0.1-0.2V11c0-0.1,0.1-0.2,0.2-0.2h3.2c1.6,0,2.7,0.4,3.4,1.1c0.6,0.7,1,1.7,1,2.7c0,1.5-0.5,2.6-1.4,3.4
	c-0.8,0.7-2,1.1-3.5,1.1h-2.8C69.2,19.1,69.2,19.1,69.2,19z M72.1,17.3c0,0.8,0.2,1,0.7,1c1.3,0,2.1-1.3,2.1-3.4
	c0-1.1-0.3-2.1-0.7-2.6c-0.4-0.4-0.9-0.7-1.5-0.7c-0.1,0-0.2,0-0.3,0c-0.1,0-0.2,0.1-0.2,0.2c0,0.1,0,0.2,0,0.3L72.1,17.3L72.1,17.3
	z M51.5,22.2c0,0,0-0.1,0-0.1c0-0.1-0.1-0.1-0.2-0.1h-5.4c-0.1,0-0.2,0.1-0.2,0.2v0.4c0,0.1,0,0.2,0.1,0.2l0.1,0
	c0.7,0.1,0.8,0.1,0.8,1.1v4.7c0,1-0.1,1-0.8,1.1c0,0,0,0-0.1,0c0,0-0.1,0.1-0.1,0.2v0.4c0,0.1,0.1,0.2,0.2,0.2h3.5
	c0.1,0,0.2-0.1,0.2-0.2v-0.4c0-0.1,0-0.2-0.1-0.2l-0.1,0c-0.9-0.1-0.9-0.1-0.9-1.1v-1.7c0-0.1,0.1-0.2,0.2-0.2h0.6
	c0.9,0,0.9,0,1.1,0.8c0,0,0,0,0,0.1c0,0,0.1,0.1,0.2,0.1H51c0.1,0,0.2-0.1,0.2-0.2v-2.4c0-0.1-0.1-0.2-0.2-0.2h-0.4
	c-0.1,0-0.2,0-0.2,0.1l0,0.1c-0.1,0.7-0.2,0.7-1.1,0.7h-0.6c-0.1,0-0.2-0.1-0.2-0.2v-2.4c0-0.1,0-0.1,0-0.1c0-0.1,0.1-0.1,0.1-0.1
	c0,0,0.1,0,0.1,0h0.5c0.6,0,0.9,0.1,1.1,0.3c0.2,0.2,0.3,0.5,0.4,0.9c0,0,0,0,0,0.1c0,0,0.1,0.1,0.2,0l0.4-0.1
	c0.1,0,0.2-0.1,0.2-0.1l0-0.1C51.6,23.3,51.5,22.6,51.5,22.2z M59.1,23c0.7,0.8,1,1.8,1,3.1c0,1.3-0.4,2.4-1.1,3.2
	c-0.7,0.8-1.6,1.2-2.7,1.2c-2.2,0-3.8-1.8-3.8-4.3c0-1.1,0.3-2.2,0.9-3c0.7-0.9,1.7-1.4,2.9-1.4C57.5,21.8,58.4,22.2,59.1,23z
	 M58,26.4c0-2.4-0.6-3.8-1.7-3.8c-0.9,0-1.5,1.3-1.5,3.3c0,1.1,0.2,2,0.5,2.7c0.3,0.7,0.8,1.1,1.3,1.1C57.4,29.6,58,28.4,58,26.4z
	 M68.3,29.7c0,0,0.1,0.1,0,0.2l-0.1,0.3c0,0.1-0.1,0.2-0.1,0.2h-0.1c-0.1,0-0.1,0-0.2,0c-0.1,0-0.2,0-0.2,0h0
	c-1.5-0.1-2-0.4-2.5-1.3c-0.3-0.6-0.7-1.3-1-1.8c-0.2-0.4-0.3-0.5-0.6-0.5h0c0,0,0,0.1,0,0.2v1.5c0,0.5,0,0.7,0.1,0.9
	c0.1,0.1,0.2,0.1,0.7,0.2l0.1,0c0,0,0.1,0.1,0.1,0.2v0.4c0,0.1-0.1,0.2-0.2,0.2h-3.4c-0.1,0-0.2-0.1-0.2-0.2v-0.4
	c0-0.1,0-0.2,0.1-0.2c0,0,0.1,0,0.1,0c0.4,0,0.6-0.1,0.7-0.2c0.1-0.1,0.1-0.4,0.1-0.9v-4.8c0-0.9,0-0.9-0.8-1l-0.1,0
	c0,0-0.1-0.1-0.1-0.2v-0.4c0-0.1,0.1-0.2,0.2-0.2h3.3c0.9,0,1.5,0.1,2,0.5c0.6,0.4,0.9,1,0.9,1.8c0,0.9-0.4,1.6-1.2,2
	c-0.1,0-0.1,0.1-0.1,0.2c0.2,0.4,0.5,1,0.8,1.5c0.4,0.7,0.6,1,0.9,1.3l0,0C67.8,29.5,68,29.6,68.3,29.7L68.3,29.7z M65.2,24.4
	c0-1.2-0.6-1.6-1.2-1.6c-0.1,0-0.1,0-0.2,0c-0.1,0-0.2,0.1-0.2,0.2c0,0,0,0.1,0,0.2v2.7c0,0.1,0,0.2,0.1,0.2h0.1
	c0.4,0,0.7-0.1,0.9-0.3C65,25.5,65.2,25,65.2,24.4z M76.9,29.5L76.9,29.5c-0.5-0.1-0.7-0.2-1.1-0.8c-0.9-1.2-1.6-2.5-2.2-3.4
	c0-0.1-0.1-0.2-0.1-0.2l0,0c0.4-0.5,0.8-1,1.4-1.6c0.6-0.7,1-0.8,1.7-0.8c0,0,0,0,0.1,0c0,0,0.1-0.1,0.1-0.2v-0.4
	c0-0.1-0.1-0.2-0.2-0.2h-2.9c-0.1,0-0.2,0.1-0.2,0.2v0.4c0,0.1,0.1,0.2,0.2,0.2l0.2,0c0.1,0,0.1,0,0.2,0c0.1,0,0.1,0.1,0.1,0.2
	c0,0,0,0.1-0.1,0.1c-0.5,0.7-1,1.5-1.6,2.1c-0.1,0.1-0.2,0.2-0.3,0.3c-0.1,0.1-0.1,0-0.1-0.1v-1.7c0-1,0-1,0.7-1c0,0,0,0,0.1,0
	c0,0,0.1-0.1,0.1-0.2v-0.4c0-0.1-0.1-0.2-0.2-0.2h-3.4c-0.1,0-0.2,0.1-0.2,0.2v0.4c0,0.1,0,0.2,0.1,0.2l0.1,0c0.4,0,0.6,0.1,0.7,0.2
	c0.1,0.1,0.1,0.4,0.1,0.9v4.8c0,1-0.1,1-0.8,1c0,0,0,0-0.1,0c0,0-0.1,0.1-0.1,0.2v0.4c0,0.1,0.1,0.2,0.2,0.2h3.4
	c0.1,0,0.2-0.1,0.2-0.2v-0.4c0-0.1,0-0.2-0.1-0.2l-0.1,0c-0.7-0.1-0.8-0.1-0.8-1v-1.9c0-0.1,0.1-0.1,0.1-0.1c0,0,0.1,0.1,0.1,0.2
	c0.2,0.3,0.3,0.5,0.5,0.8c0.7,1.1,1.3,2.3,1.7,2.7c0,0,0,0,0,0c0,0,0.1,0,0.2,0h2.2c0.1,0,0.2-0.1,0.2-0.2v-0.4
	C76.9,29.6,76.9,29.6,76.9,29.5z"/>
</svg>
