<?xml version="1.0" encoding="utf-8"?>
<!-- Generator: Adobe Illustrator 26.0.2, SVG Export Plug-In . SVG Version: 6.00 Build 0)  -->
<svg version="1.1" id="Layer_1" xmlns="http://www.w3.org/2000/svg" xmlns:xlink="http://www.w3.org/1999/xlink" x="0px" y="0px"
	 width="56px" height="42px" viewBox="0 0 56 42" style="enable-background:new 0 0 56 42;" xml:space="preserve">
<style type="text/css">
	.st0{fill:#FFFFFF;}
</style>
<path class="st0" d="M10.5,20.9v-0.1C10.5,11.7,17.6,4,27.6,4s16.9,7.6,16.9,16.7v0.1c0,9.1-7.1,16.8-17.1,16.8
	C17.4,37.7,10.5,30.1,10.5,20.9z M38.5,21v-0.1c0-6.3-4.6-11.5-11-11.6c-6.4,0-11,5.2-11,11.5v0.1c0,6.3,4.6,11.5,11,11.5
	C34,32.4,38.5,27.3,38.5,21z M32.3,16.1h-9.9v3.3h9.9V16.1z M32.3,22.1h-9.9v3.3h9.9V22.1z"/>
</svg>
