<?xml version="1.0" encoding="UTF-8"?>
<svg id="Layer_1" xmlns="http://www.w3.org/2000/svg" version="1.1" viewBox="0 0 56 42">
  <!-- Generator: Adobe Illustrator 29.5.0, SVG Export Plug-In . SVG Version: 2.1.0 Build 137)  -->
  <defs>
    <style>
      .st0 {
        fill: #4f2c1d;
      }
    </style>
  </defs>
  <path class="st0" d="M10.5,20.9v-.1c0-9.1,7.1-16.8,17.1-16.8s16.9,7.6,16.9,16.7v.1c0,9.1-7.1,16.8-17.1,16.8-10,.1-16.9-7.5-16.9-16.7ZM38.5,21v-.1c0-6.3-4.6-11.5-11-11.6-6.4,0-11,5.2-11,11.5v.1c0,6.3,4.6,11.5,11,11.5,6.5,0,11-5.1,11-11.4ZM32.3,16.1h-9.9v3.3h9.9v-3.3ZM32.3,22.1h-9.9v3.3h9.9v-3.3Z"/>
</svg>