<?xml version="1.0" standalone="no"?>
<!DOCTYPE svg PUBLIC "-//W3C//DTD SVG 1.1//EN" "http://www.w3.org/Graphics/SVG/1.1/DTD/svg11.dtd" >
<svg xmlns="http://www.w3.org/2000/svg" xmlns:xlink="http://www.w3.org/1999/xlink" version="1.1">
<metadata></metadata>
<defs>
<font id="acreregular" horiz-adv-x="1189" >
<font-face units-per-em="2048" ascent="1638" descent="-410" />
<missing-glyph horiz-adv-x="618" />
<glyph unicode="&#xfb01;" horiz-adv-x="1452" d="M37 629v395h133v193q0 207 94 324.5t291 117.5q76 0 146 -15.5t108 -41.5v-445q-76 35 -129 35q-35 0 -56.5 -22.5t-21.5 -63.5v-82h727v-1024h-434v629h-293v-629h-432v629h-133zM860 1366q0 105 73.5 177.5t176.5 72.5q106 0 178 -72t72 -178q0 -103 -72.5 -176.5 t-177.5 -73.5q-103 0 -176.5 73.5t-73.5 176.5z" />
<glyph unicode="&#xfb02;" horiz-adv-x="1445" d="M37 629v395h133v193q0 207 94 324.5t291 117.5q76 0 146 -15.5t108 -41.5v-445q-76 35 -129 35q-35 0 -56.5 -22.5t-21.5 -63.5v-82h207v-395h-207v-629h-432v629h-133zM920 0v1638h432v-1638h-432z" />
<glyph horiz-adv-x="0" />
<glyph horiz-adv-x="682" />
<glyph unicode=" "  horiz-adv-x="618" />
<glyph unicode="&#x09;" horiz-adv-x="618" />
<glyph unicode="&#xa0;" horiz-adv-x="618" />
<glyph unicode="!" horiz-adv-x="653" d="M74 1434h504l-95 -928h-315zM98 205q0 94 67 161.5t163 67.5q94 0 160.5 -67.5t66.5 -161.5q0 -95 -66.5 -162.5t-160.5 -67.5q-96 0 -163 67t-67 163z" />
<glyph unicode="&#x22;" horiz-adv-x="837" d="M25 1434h790l-49 -572h-305l-41 498l-43 -498h-305z" />
<glyph unicode="#" horiz-adv-x="1282" d="M61 272v324h177l26 176h-203v324h254l54 338h313l-53 -338h151l54 338h315l-53 -338h125v-324h-177l-26 -176h203v-324h-254l-43 -272h-316l43 272h-151l-43 -272h-314l43 272h-125zM551 596h151l27 176h-151z" />
<glyph unicode="$" horiz-adv-x="1187" d="M51 154l211 387q72 -48 163.5 -84.5t145.5 -36.5q30 0 47 12t17 33t-30 41t-77.5 39t-105 43t-114.5 61t-104 84t-75.5 121t-26.5 164q3 172 121.5 293t317.5 145v123h145v-121q235 -18 447 -160l-209 -385q-59 36 -136 65.5t-129 29.5q-53 0 -53 -39q0 -19 29.5 -37.5 t76.5 -38.5t104 -44.5t114 -62t103.5 -85t75.5 -120t28 -159.5q-2 -181 -121 -303t-330 -142v-116h-145v114q-134 12 -265.5 61t-224.5 118z" />
<glyph unicode="%" horiz-adv-x="1464" d="M37 1130q0 136 96 231t229 95q138 0 232 -94.5t94 -231.5q0 -133 -94.5 -229t-231.5 -96q-132 0 -228.5 96.5t-96.5 228.5zM133 0l916 1434h292l-917 -1434h-291zM305 1133q0 -25 17.5 -42.5t42.5 -17.5t42 17.5t17 42.5t-17 42t-42 17t-42.5 -17t-17.5 -42zM776 301 q0 136 97 231t229 95q138 0 233 -94t95 -232q0 -132 -96 -229t-232 -97q-130 0 -228 97.5t-98 228.5zM1044 303q0 -25 17.5 -42t42.5 -17q26 0 43.5 17t17.5 42t-17.5 42t-43.5 17q-25 0 -42.5 -17t-17.5 -42z" />
<glyph unicode="&#x26;" horiz-adv-x="1351" d="M61 391q0 68 21 127.5t60 105.5t82 80.5t100 67.5q-62 79 -94.5 153.5t-32.5 164.5q0 70 27.5 135.5t78 118t129 84.5t172.5 32q178 0 289 -111.5t111 -265.5q0 -71 -19 -131.5t-54.5 -109t-72.5 -83.5t-88 -73q11 -12 40.5 -47.5t47.5 -56.5q24 68 27 127h385 q0 -268 -135 -461q39 -45 108.5 -129t99.5 -119h-382q-13 17 -43 51q-146 -78 -314 -78q-156 0 -278 48t-193.5 143.5t-71.5 226.5zM518 432q0 -34 23.5 -56t62.5 -22q18 0 55 11l-116 141q-25 -36 -25 -74zM545 997q0 -36 41 -90q78 45 78 90q0 26 -16 44t-44 18t-43.5 -18 t-15.5 -44z" />
<glyph unicode="'" horiz-adv-x="448" d="M25 1434h401l-49 -572h-305z" />
<glyph unicode="(" horiz-adv-x="632" d="M82 659q0 278 31.5 488t103.5 487h375q-98 -493 -98 -975q0 -483 98 -976h-375q-69 266 -102 492.5t-33 483.5z" />
<glyph unicode=")" horiz-adv-x="632" d="M41 -317q98 493 98 976q0 482 -98 975h375q72 -277 103.5 -487t31.5 -488q0 -257 -33 -483.5t-102 -492.5h-375z" />
<glyph unicode="*" horiz-adv-x="663" d="M25 1217l190 36l-190 37l120 211l127 -143l-63 180h246l-64 -180l127 143l121 -211l-190 -37l190 -36l-121 -211l-127 143l64 -180h-246l63 180l-127 -143z" />
<glyph unicode="+" horiz-adv-x="897" d="M51 477v279h246v256h285v-256h264v-279h-264v-252h-285v252h-246z" />
<glyph unicode="," horiz-adv-x="501" d="M31 -201l59 662h383l-186 -662h-256z" />
<glyph unicode="-" horiz-adv-x="765" d="M51 436v357h664v-357h-664z" />
<glyph unicode="." horiz-adv-x="518" d="M31 205q0 94 66.5 161.5t162.5 67.5q94 0 160.5 -67.5t66.5 -161.5q0 -95 -66.5 -162.5t-160.5 -67.5q-96 0 -162.5 67t-66.5 163z" />
<glyph unicode="/" horiz-adv-x="843" d="M0 -246l432 1884h412l-434 -1884h-410z" />
<glyph unicode="0" horiz-adv-x="1204" d="M55 715q0 127 20 237t63 204t106.5 160.5t155 104t204.5 37.5q141 0 247.5 -57t170.5 -159.5t95.5 -234.5t31.5 -292q0 -161 -31.5 -293t-95.5 -234t-170.5 -158.5t-247.5 -56.5q-113 0 -204.5 37t-155 103.5t-106.5 160t-63 203.5t-20 238zM524 715q0 -269 78 -269 q82 0 82 269q0 272 -82 272q-78 0 -78 -272z" />
<glyph unicode="1" horiz-adv-x="823" d="M37 1274l360 162h334v-1436h-450v905l-117 -39z" />
<glyph unicode="2" horiz-adv-x="1179" d="M51 963q4 92 44.5 180.5t108.5 158.5t168.5 113t215.5 43q118 0 220 -38.5t171 -103.5t108 -150t39 -177q0 -139 -64 -249.5t-188 -221.5q-87 -81 -92 -86h334v-432h-1003v317q327 296 465 426q48 48 73 87.5t25 80.5q0 37 -25.5 63.5t-58.5 26.5q-55 0 -82.5 -47.5 t-24.5 -109.5z" />
<glyph unicode="3" horiz-adv-x="1181" d="M53 350l371 207q23 -58 66.5 -95.5t97.5 -37.5q42 0 71 26.5t29 65.5q0 38 -29 63t-67 25q-45 0 -90 -29l-148 216l250 208h-454v435h892v-420l-180 -164q127 -58 196.5 -167t69.5 -232q0 -199 -149.5 -338.5t-376.5 -139.5q-110 0 -203.5 30.5t-159.5 84t-112 119 t-74 143.5z" />
<glyph unicode="4" horiz-adv-x="1107" d="M4 186v357l422 891h532v-873h119v-375h-119v-186h-413v186h-541zM391 561h154v400z" />
<glyph unicode="5" horiz-adv-x="1144" d="M53 350l398 166q35 -90 112 -90q36 0 63 26t27 66q0 42 -32 70t-78 28q-82 0 -146 -55l-307 115l184 758h715v-430l-428 -3l-26 -83q32 4 49 4q120 0 218.5 -40t160.5 -107t95.5 -150.5t33.5 -173.5q0 -201 -141.5 -339.5t-366.5 -138.5q-88 0 -164 20.5t-133 55 t-103.5 83t-77.5 102.5t-53 116z" />
<glyph unicode="6" horiz-adv-x="1173" d="M53 489q0 77 20.5 162.5t41 138.5t55.5 130q30 65 120.5 254.5t123.5 259.5h473l-223 -461q140 -17 245 -90.5t157 -178.5t52 -227q0 -97 -36.5 -186.5t-103 -160t-168.5 -113t-224 -42.5q-235 0 -384 146t-149 368zM496 516q0 -37 26 -63.5t64 -26.5t64 26.5t26 63.5 t-26 63.5t-64 26.5t-64 -26.5t-26 -63.5z" />
<glyph unicode="7" horiz-adv-x="954" d="M14 1004v432l936 -2v-304l-307 -1130h-471l311 1004h-469z" />
<glyph unicode="8" horiz-adv-x="1185" d="M55 459q0 91 41 175t111 144q-90 114 -90 262q0 81 34.5 156.5t95 133.5t151.5 93t196 35t196 -35t151.5 -93t95 -133.5t34.5 -156.5q0 -152 -94 -264q70 -60 111.5 -143.5t41.5 -173.5q0 -214 -145.5 -350t-390.5 -136t-392 136t-147 350zM502 514q0 -36 26.5 -62 t65.5 -26q40 0 65 26t25 62t-25 62t-65 26q-39 0 -65.5 -26t-26.5 -62zM522 913q0 -28 20 -48.5t52 -20.5q31 0 51.5 21t20.5 48q0 30 -20 51t-52 21q-33 0 -52.5 -21t-19.5 -51z" />
<glyph unicode="9" horiz-adv-x="1124" d="M55 956q0 97 36.5 186.5t103 160t169 113t224.5 42.5q235 0 383.5 -146t148.5 -368q0 -77 -20 -162t-41 -138.5t-55 -129.5q-30 -65 -120.5 -254.5t-123.5 -259.5h-473l223 461q-140 17 -245 90t-157.5 178.5t-52.5 226.5zM498 918q0 -37 26 -64t64 -27t64 27t26 64 t-26 63.5t-64 26.5t-64 -26.5t-26 -63.5z" />
<glyph unicode=":" horiz-adv-x="634" d="M92 205q0 94 67 161.5t163 67.5q94 0 160.5 -67.5t66.5 -161.5q0 -95 -66.5 -162.5t-160.5 -67.5q-96 0 -163 67t-67 163zM92 825q0 94 67 162t163 68q93 0 160 -68t67 -162q0 -95 -66.5 -162t-160.5 -67q-96 0 -163 67t-67 162z" />
<glyph unicode=";" horiz-adv-x="518" d="M31 815q0 94 66.5 161.5t162.5 67.5q94 0 160.5 -67.5t66.5 -161.5q0 -95 -66.5 -162t-160.5 -67q-96 0 -162.5 66.5t-66.5 162.5zM45 -201l59 662h383l-186 -662h-256z" />
<glyph unicode="&#x3c;" horiz-adv-x="815" d="M51 455v448l713 314v-400l-418 -147l418 -148v-381z" />
<glyph unicode="=" horiz-adv-x="897" d="M51 289v278h795v-278h-795zM51 653v279h795v-279h-795z" />
<glyph unicode="&#x3e;" horiz-adv-x="815" d="M51 141v381l418 148l-418 147v400l713 -314v-448z" />
<glyph unicode="?" horiz-adv-x="1028" d="M14 946q3 104 39.5 196.5t100.5 163t160 111.5t210 41q150 0 263 -64t170 -169.5t57 -235.5q0 -148 -88 -263t-230 -157l-8 -84h-317l-19 258q109 22 170.5 63.5t61.5 94.5q0 29 -19 49.5t-47 20.5q-40 0 -62 -38.5t-20 -86.5zM299 205q0 94 66.5 161.5t162.5 67.5 q94 0 161 -67.5t67 -161.5q0 -95 -67 -162.5t-161 -67.5q-96 0 -162.5 67t-66.5 163z" />
<glyph unicode="@" horiz-adv-x="2011" d="M74 651q0 125 30.5 243.5t87 221.5t140 189.5t185 147.5t227 95.5t262.5 34.5q204 0 379.5 -75t295.5 -202.5t188 -297.5t68 -357q0 -211 -104.5 -342t-290.5 -131q-107 0 -189 43t-124 127q-96 -168 -303 -168q-114 0 -206.5 62.5t-143 166.5t-50.5 226t50.5 226.5 t143.5 168.5t206 64q173 0 268 -119v78h268l-4 -439q-1 -88 28.5 -132t78.5 -44q110 0 110 213q0 136 -49.5 259t-136 215t-212.5 146t-271 54t-271.5 -54.5t-213.5 -146.5t-137 -215t-50 -258t50 -258t137 -215t213.5 -146.5t271.5 -54.5q249 0 442 138v-295 q-95 -46 -213 -73.5t-229 -27.5q-204 0 -380 75t-296 202t-188 297t-68 358zM813 641q0 -79 54 -137t137 -58t136.5 57t53.5 138q0 80 -53.5 135t-136.5 55q-82 0 -136.5 -57t-54.5 -133z" />
<glyph unicode="A" horiz-adv-x="1394" d="M4 0l420 1436h555l412 -1436h-484l-37 168h-342l-36 -168h-488zM606 526h189l-95 435z" />
<glyph unicode="B" horiz-adv-x="1341" d="M102 0v1434h662q107 0 192 -32t137.5 -86.5t79.5 -123t27 -145.5q0 -180 -143 -291q106 -45 164.5 -135.5t58.5 -217.5q0 -81 -30 -153t-86 -128t-144 -89t-195 -33h-723zM555 426h145q41 0 63.5 21t22.5 53q0 30 -22.5 51.5t-63.5 21.5h-145v-147zM555 874h109 q37 0 59 18.5t22 45.5q0 30 -21 48t-58 18h-111v-130z" />
<glyph unicode="C" horiz-adv-x="1169" d="M74 715q0 167 58 306t160 233t241.5 146t300.5 52q162 0 282 -47l2 -469q-113 65 -260 65q-133 0 -223 -80t-90 -206q0 -122 90.5 -203.5t222.5 -81.5q145 0 260 66l-2 -469q-120 -47 -282 -47q-161 0 -300.5 51.5t-241.5 145.5t-160 232.5t-58 305.5z" />
<glyph unicode="D" horiz-adv-x="1392" d="M102 0v1434h484q166 0 305 -55.5t232 -151t144.5 -225.5t51.5 -279q0 -200 -87.5 -363.5t-256 -261.5t-389.5 -98h-484zM555 432h39q120 0 187 82.5t67 208.5q0 124 -66.5 201t-187.5 77h-39v-569z" />
<glyph unicode="E" horiz-adv-x="1116" d="M102 0v1434h951v-433h-498v-96h375v-370h-375v-103h498v-432h-951z" />
<glyph unicode="F" horiz-adv-x="1019" d="M102 0v1434h908v-433h-455v-174h311v-413h-311v-414h-453z" />
<glyph unicode="G" horiz-adv-x="1474" d="M74 717q0 149 52 283.5t147.5 237t240.5 162.5t320 60q162 0 297 -56.5t233 -158.5l-313 -323q-97 86 -224 86q-125 0 -203.5 -84t-78.5 -207q0 -128 79.5 -209.5t206.5 -81.5q80 0 154 29v90h-197v313h605v-670q-98 -99 -244 -157t-315 -58q-175 0 -320 60.5t-240.5 163 t-147.5 236.5t-52 284z" />
<glyph unicode="H" horiz-adv-x="1421" d="M102 0v1434h453v-512h311v512h453v-1434h-453v489h-311v-489h-453z" />
<glyph unicode="I" horiz-adv-x="657" d="M102 0v1434h453v-1434h-453z" />
<glyph unicode="J" horiz-adv-x="985" d="M14 141l246 348q65 -61 121 -61q70 0 70 80v926h452v-998q0 -210 -118.5 -335.5t-333.5 -125.5q-136 0 -241 41.5t-196 124.5z" />
<glyph unicode="K" horiz-adv-x="1366" d="M102 0v1434h453v-535l268 535h525l-418 -727l424 -707h-520l-279 526v-526h-453z" />
<glyph unicode="L" horiz-adv-x="972" d="M102 0v1434h453v-1002h403v-432h-856z" />
<glyph unicode="M" horiz-adv-x="1818" d="M20 0l295 1436h365l229 -582l228 582h366l295 -1436h-481l-100 590l-261 -596h-96l-256 590l-96 -584h-488z" />
<glyph unicode="N" horiz-adv-x="1490" d="M102 0v1436h463l371 -615v613h450v-1436h-462l-369 600v-598h-453z" />
<glyph unicode="O" horiz-adv-x="1654" d="M74 717q0 149 53.5 283.5t149.5 236t239 161.5t311 60t311 -60t239 -161.5t150 -236t54 -283.5t-54 -284t-150 -236.5t-239 -161.5t-311 -60t-311 60t-239 161.5t-149.5 236.5t-53.5 284zM545 717q0 -116 78.5 -202.5t203.5 -86.5t204 86.5t79 202.5q0 115 -79 202 t-204 87t-203.5 -87t-78.5 -202z" />
<glyph unicode="P" horiz-adv-x="1249" d="M102 0v1434h580q159 0 284.5 -74t193 -197.5t67.5 -271.5q0 -232 -150.5 -381.5t-390.5 -149.5h-131v-360h-453zM555 782h86q55 0 88 30.5t33 78.5q0 45 -33.5 77.5t-87.5 32.5h-86v-219z" />
<glyph unicode="Q" horiz-adv-x="1708" d="M74 717q0 149 53.5 283.5t149.5 236t239 161.5t311 60t311 -60t239 -161.5t150 -236t54 -283.5q0 -256 -145 -449l192 -268h-385l-43 63q-170 -88 -373 -88q-168 0 -311 60t-239 161.5t-149.5 236.5t-53.5 284zM545 717q0 -116 78.5 -202.5t203.5 -86.5q61 0 107 21 l-160 231h334q2 12 2 37q0 115 -79 202t-204 87t-203.5 -87t-78.5 -202z" />
<glyph unicode="R" horiz-adv-x="1345" d="M102 0v1434h580q120 0 225.5 -42.5t178.5 -114.5t115 -170t42 -208q0 -130 -54.5 -238t-152.5 -180l279 -481h-520l-174 373h-66v-373h-453zM555 797h102q54 0 87.5 29t33.5 73q0 43 -33 72.5t-88 29.5h-102v-204z" />
<glyph unicode="S" horiz-adv-x="1187" d="M51 154l211 387q72 -48 163.5 -84.5t145.5 -36.5q30 0 47 12t17 33t-30 41t-77.5 39t-105 43t-114.5 61t-104 84q-48 47 -76 121q-27 69 -26 152v12q3 191 147 316.5t380 125.5q261 0 504 -162l-209 -385q-59 36 -136 65.5t-129 29.5q-53 0 -53 -39q0 -19 29.5 -37.5 t76.5 -38.5t104 -44.5t114 -62t103.5 -85t75.5 -119.5q28 -70 28 -154v-6q-2 -197 -141.5 -323t-383.5 -126q-149 0 -302 51t-259 130z" />
<glyph unicode="T" horiz-adv-x="1083" d="M14 1001v433h1055v-433h-299v-1001h-453v1001h-303z" />
<glyph unicode="U" horiz-adv-x="1310" d="M82 506v928h453v-879q0 -62 34 -95.5t86 -33.5q54 0 88.5 33.5t34.5 95.5v879h451v-928q0 -248 -156 -390.5t-418 -142.5q-260 0 -416.5 142.5t-156.5 390.5z" />
<glyph unicode="V" horiz-adv-x="1331" d="M4 1434h463l197 -971l200 971h463l-375 -1436h-575z" />
<glyph unicode="W" horiz-adv-x="2256" d="M2 1434l481 2l363 -959l61 178l-276 779l393 2l102 -359l101 359l399 -2l-278 -781l61 -176l363 959l483 -2l-557 -1436h-469l-103 311l-104 -311h-467z" />
<glyph unicode="X" horiz-adv-x="1374" d="M10 0l336 702l-317 732h518l139 -396l141 396h516l-319 -732l338 -702h-526l-150 383l-147 -383h-529z" />
<glyph unicode="Y" horiz-adv-x="1335" d="M4 1434l500 2l164 -549l163 549l500 -2l-428 -1018v-416h-471v416z" />
<glyph unicode="Z" horiz-adv-x="1140" d="M41 0v20l430 981h-424v433h1053v-21l-416 -981h391v-432h-1034z" />
<glyph unicode="[" horiz-adv-x="708" d="M102 -317v1951h566v-374h-170v-1201h170v-376h-566z" />
<glyph unicode="\" horiz-adv-x="843" d="M0 1638h412l432 -1884h-410z" />
<glyph unicode="]" horiz-adv-x="708" d="M41 59h170v1201h-170v374h565v-1951h-565v376z" />
<glyph unicode="^" horiz-adv-x="1091" d="M25 784l282 650h477l285 -650h-395l-127 357l-127 -357h-395z" />
<glyph unicode="_" horiz-adv-x="956" d="M31 -61h897v-246h-897v246z" />
<glyph unicode="`" horiz-adv-x="593" d="M25 1573h432l114 -434h-303z" />
<glyph unicode="a" horiz-adv-x="1251" d="M53 516q0 147 46 264t142.5 189.5t229.5 72.5q161 0 256 -116v98h434v-1024h-434v104q-98 -116 -256 -116q-101 0 -181.5 42t-131.5 115t-78 168t-27 203zM512 516q0 -44 30 -75t76 -31t77.5 31t31.5 75q0 46 -31 78.5t-78 32.5q-46 0 -76 -32t-30 -79z" />
<glyph unicode="b" horiz-adv-x="1251" d="M92 0v1638h432v-714q100 118 258 118q101 0 181.5 -42t131.5 -115t78 -168t27 -203q0 -147 -46 -264t-142.5 -189.5t-229.5 -72.5q-158 0 -258 118v-106h-432zM526 514q0 -46 31 -78.5t78 -32.5q46 0 76 32t30 79q0 44 -30 75.5t-76 31.5t-77.5 -31.5t-31.5 -75.5z" />
<glyph unicode="c" horiz-adv-x="970" d="M53 512q0 149 68.5 270t196 191.5t290.5 70.5q161 0 297 -61v-432q-149 55 -276 55q-62 0 -97.5 -26t-35.5 -68t35.5 -68t97.5 -26q127 0 276 55v-432q-136 -61 -297 -61q-163 0 -290.5 70.5t-196 191.5t-68.5 270z" />
<glyph unicode="d" horiz-adv-x="1251" d="M53 516q0 147 46 264t142.5 189.5t229.5 72.5q161 0 256 -116v712h432v-1638h-432v104q-98 -116 -256 -116q-101 0 -181.5 42t-131.5 115t-78 168t-27 203zM512 516q0 -44 30 -75t76 -31t77.5 31t31.5 75q0 46 -31 78.5t-78 32.5q-46 0 -76 -32t-30 -79z" />
<glyph unicode="e" horiz-adv-x="1122" d="M53 512q0 107 36.5 203.5t102.5 169.5t165.5 116t217.5 43q167 0 285 -84q119 -84 172 -222q43 -113 43 -249q0 -31 -2 -63h-608q40 -86 172 -86q137 0 309 53l6 -344q-152 -65 -354 -65q-167 0 -292.5 71.5t-189 190.5t-63.5 266zM463 594h229q-15 39 -44.5 61.5 t-65.5 22.5q-86 0 -119 -84z" />
<glyph unicode="f" horiz-adv-x="827" d="M37 629v395h133v193q0 207 94 324.5t291 117.5q76 0 146 -15.5t108 -41.5v-445q-76 35 -129 35q-35 0 -56.5 -22.5t-21.5 -63.5v-82h207v-395h-207v-629h-432v629h-133z" />
<glyph unicode="g" horiz-adv-x="1251" d="M53 516q0 147 46 264t142.5 189.5t229.5 72.5q158 0 254 -114v96h432l2 -938q0 -240 -160 -381t-426 -141q-208 0 -397 65l2 365q79 -44 143 -63t142 -19q108 0 187 50t79 144q-100 -118 -258 -118q-101 0 -181.5 42t-131.5 115t-78 168t-27 203zM512 516q0 -44 30 -75 t76 -31t77.5 31t31.5 75q0 46 -31 78.5t-78 32.5q-46 0 -76 -32t-30 -79z" />
<glyph unicode="h" d="M92 0v1638h432v-745q129 149 301 149q144 0 213.5 -94.5t69.5 -261.5v-686h-434v535q0 38 -21.5 64t-52.5 26t-52.5 -25.5t-21.5 -64.5h-2v-535h-432z" />
<glyph unicode="i" horiz-adv-x="684" d="M92 1366q0 105 73.5 177.5t176.5 72.5q106 0 178 -72t72 -178q0 -103 -72.5 -176.5t-177.5 -73.5q-103 0 -176.5 73.5t-73.5 176.5zM127 0v1024h434v-1024h-434z" />
<glyph unicode="j" horiz-adv-x="684" d="M92 1364q0 105 73.5 177.5t176.5 72.5q106 0 178 -72t72 -178q0 -103 -72.5 -176.5t-177.5 -73.5q-103 0 -176.5 73.5t-73.5 176.5zM121 -410v1434h432v-1434h-432z" />
<glyph unicode="k" horiz-adv-x="1218" d="M92 0v1638h432v-999l164 385h496l-252 -512l278 -512h-510l-176 373v-373h-432z" />
<glyph unicode="l" horiz-adv-x="618" d="M92 0v1638h432v-1638h-432z" />
<glyph unicode="m" horiz-adv-x="1753" d="M92 0v1024h434v-133q127 151 287 151q176 0 246 -157q124 157 325 157q145 0 215 -101t70 -271v-670h-432v535q0 42 -20 66t-50 24q-29 0 -49 -24.5t-20 -65.5v-535h-432v535q0 42 -19.5 66t-50.5 24q-29 0 -49.5 -24.5t-20.5 -65.5v-535h-434z" />
<glyph unicode="n" d="M92 0v1024h434v-129q130 147 299 147q144 0 213.5 -94.5t69.5 -261.5v-686h-434v535q0 38 -21.5 64t-52.5 26t-52.5 -25.5t-21.5 -64.5v-535h-434z" />
<glyph unicode="o" d="M53 514q0 108 40.5 206.5t111 172t172 117t217.5 43.5q155 0 280.5 -74t194 -197t68.5 -268t-68.5 -268t-194 -197t-280.5 -74q-116 0 -217.5 43.5t-172 117t-111 172t-40.5 206.5zM494 516q0 -44 28 -74t72 -30t73 30t29 74q0 41 -29.5 70.5t-72.5 29.5t-71.5 -30 t-28.5 -70z" />
<glyph unicode="p" horiz-adv-x="1251" d="M92 -410v1434h432v-100q100 118 258 118q101 0 181.5 -42t131.5 -115t78 -168t27 -203q0 -147 -46 -264t-142.5 -189.5t-229.5 -72.5q-158 0 -258 118v-516h-432zM526 514q0 -46 31 -78.5t78 -32.5q46 0 76 32t30 79q0 44 -30 75.5t-76 31.5t-77.5 -31.5t-31.5 -75.5z " />
<glyph unicode="q" horiz-adv-x="1251" d="M51 514q0 108 27 203t78 168t131.5 115t181.5 42q158 0 258 -118v100h432v-1434h-432v516q-100 -118 -258 -118q-133 0 -229.5 72.5t-142.5 189.5t-46 264zM510 514q0 -47 30 -79t76 -32q47 0 78 32.5t31 78.5q0 44 -31.5 75.5t-77.5 31.5t-76 -31.5t-30 -75.5z" />
<glyph unicode="r" horiz-adv-x="802" d="M92 0v1024h434v-123q108 141 256 141v-475q-42 8 -76 10h-15q-26 -1 -53 -5q-35 -6 -58.5 -22.5t-38.5 -50.5t-15 -83v-416h-434z" />
<glyph unicode="s" horiz-adv-x="944" d="M49 125l137 285q60 -42 149 -74.5t138 -32.5q35 0 35 25q0 11 -23.5 22t-61 23t-83 27.5t-91 42t-83 61t-61 89t-23.5 122.5q0 146 108 238.5t289 95.5h6q106 -1 208 -35q105 -36 177 -86l-149 -289q-44 26 -113.5 49t-113.5 23q-14 0 -24.5 -7t-10.5 -18t24.5 -21 t63 -21.5t85.5 -26.5t93.5 -40.5t84.5 -60.5q38 -34 62 -90q23 -53 23 -117v-6q-2 -142 -112.5 -231.5t-293.5 -89.5q-115 0 -234 39t-206 104z" />
<glyph unicode="t" horiz-adv-x="806" d="M37 629v395h127v274h434v-274h188v-395h-188v-629h-434v629h-127z" />
<glyph unicode="u" d="M82 338v686h434v-535q0 -38 21.5 -64t52.5 -26t52.5 25.5t21.5 64.5v535h434v-1024h-434v129q-130 -147 -299 -147q-144 0 -213.5 94.5t-69.5 261.5z" />
<glyph unicode="v" horiz-adv-x="1085" d="M8 1024h438l97 -602l96 602h436l-254 -1028h-559z" />
<glyph unicode="w" horiz-adv-x="1859" d="M4 1024h453l205 -647l38 155l-145 492h309l66 -260l65 260h310l-146 -492l39 -155l205 647h452l-362 -1024h-492l-73 276l-70 -276h-491z" />
<glyph unicode="x" horiz-adv-x="1148" d="M8 0l268 506l-268 518h451l116 -295l115 295h451l-273 -518l273 -506h-467l-99 268l-98 -268h-469z" />
<glyph unicode="y" horiz-adv-x="1144" d="M8 1024h445l118 -539l119 539h445l-482 -1434h-434l141 402z" />
<glyph unicode="z" horiz-adv-x="968" d="M29 0v29l307 600h-291v395h895v-25l-305 -604h272v-395h-878z" />
<glyph unicode="{" horiz-adv-x="737" d="M49 651v13q48 33 76.5 82t28.5 102v311q0 126 40.5 218t117 147t178 81.5t231.5 26.5v-375q-86 -6 -129 -64t-43 -138v-166q0 -156 -94 -232q94 -76 94 -233v-166q0 -80 43 -138.5t129 -64.5v-374q-130 0 -231.5 26.5t-178 81.5t-117 147t-40.5 218v311q0 53 -28.5 103 t-76.5 83z" />
<glyph unicode="|" horiz-adv-x="657" d="M102 -205v1843h453v-1843h-453z" />
<glyph unicode="}" horiz-adv-x="737" d="M16 55q86 6 129 64.5t43 138.5v166q0 156 95 233q-95 77 -95 232v166q0 80 -43 138t-129 64v375q130 0 232 -26.5t178.5 -81.5t117 -147.5t40.5 -217.5v-311q0 -53 28 -102t76 -82v-13q-48 -33 -76 -82.5t-28 -103.5v-311q0 -125 -40.5 -217.5t-117 -147.5t-178.5 -81.5 t-232 -26.5v374z" />
<glyph unicode="~" horiz-adv-x="794" d="M51 424v356q84 58 205 58q62 0 142.5 -27t140.5 -27t104.5 13t97.5 41v-355q-77 -59 -204 -59q-61 0 -141 25.5t-140 25.5q-108 0 -205 -51z" />
<glyph unicode="&#xa1;" horiz-adv-x="653" d="M76 -322l94 928h315l95 -928h-504zM98 907q0 95 67 162.5t161 67.5q96 0 162.5 -67t66.5 -163q0 -94 -66.5 -161.5t-162.5 -67.5q-94 0 -161 67.5t-67 161.5z" />
<glyph unicode="&#xa2;" horiz-adv-x="970" d="M53 725q0 195 116 338.5t310 181.5v189h146v-177q149 -3 280 -61v-432q-149 55 -276 55q-62 0 -97.5 -26t-35.5 -68t35.5 -68t97.5 -26q127 0 276 55v-432q-131 -58 -280 -61v-193h-146v205q-194 38 -310 181.5t-116 338.5z" />
<glyph unicode="&#xa3;" horiz-adv-x="1110" d="M53 999q0 84 33.5 165t94.5 147t156.5 106.5t209.5 40.5q150 0 266.5 -70t178 -180.5t67.5 -240.5l-426 -127q2 50 -21.5 90.5t-64.5 40.5q-27 0 -46.5 -21t-19.5 -51t10 -59t30 -67.5t28 -59.5h252v-138h-230q-3 -82 -24 -143h477v-432h-936v217q59 58 92 131t33 135 q0 41 -14 92h-144v138h78q-25 49 -39.5 82t-27.5 89.5t-13 114.5z" />
<glyph unicode="&#xa4;" horiz-adv-x="1169" d="M41 283l117 116q-105 146 -105 324q0 182 105 321l-117 117l100 103l115 -115q145 113 338 113q180 0 324 -103l104 105l102 -103l-102 -102q115 -143 115 -336q0 -192 -115 -338l102 -102l-102 -101l-104 105q-144 -103 -324 -103q-193 0 -338 113l-115 -115zM494 725 q0 -44 28 -74t72 -30t73 30t29 74q0 41 -29.5 70.5t-72.5 29.5t-71.5 -30t-28.5 -70z" />
<glyph unicode="&#xa5;" horiz-adv-x="1335" d="M4 1434l500 2l164 -549l163 549l500 -2l-375 -891h166v-142h-219v-65h219v-141h-219v-195h-471v195h-207v141h207v65h-207v142h154z" />
<glyph unicode="&#xa6;" horiz-adv-x="657" d="M102 -205v744h453v-744h-453zM102 895v743h453v-743h-453z" />
<glyph unicode="&#xa7;" horiz-adv-x="1124" d="M51 -160l195 367q68 -42 150 -70t136 -28q23 0 36.5 9.5t13.5 24.5q0 19 -27 35.5t-70 32t-95.5 35t-105 50.5t-95.5 71.5t-70 106t-27 147.5q0 127 76 225q-70 83 -70 211q0 171 138.5 286t355.5 115q234 0 469 -147l-195 -355q-50 29 -124.5 51.5t-125.5 22.5 q-49 0 -49 -31q0 -15 28 -29.5t73 -30t99 -35.5t108 -52.5t98.5 -75t72 -108.5t27.5 -146q0 -59 -20.5 -120.5t-55.5 -108.5q68 -85 68 -207q0 -177 -134.5 -291t-363.5 -114q-138 0 -275 45t-241 114zM489 627q0 -48 43 -78t132 -66q4 20 4 31q0 49 -43 80.5t-129 64.5 q-7 -17 -7 -32z" />
<glyph unicode="&#xa8;" horiz-adv-x="985" d="M25 1364q0 105 73 177.5t176 72.5q71 0 129 -34t91 -93q32 59 91 93t128 34q105 0 177.5 -72.5t72.5 -177.5q0 -103 -73 -176.5t-177 -73.5q-69 0 -128 35t-91 94q-33 -59 -91 -94t-129 -35q-103 0 -176 73.5t-73 176.5z" />
<glyph unicode="&#xa9;" horiz-adv-x="1617" d="M74 717q0 149 52.5 283.5t146 236.5t233.5 162.5t305 60.5q163 0 302.5 -60.5t233 -162t146.5 -236.5t53 -284t-53 -284.5t-146.5 -238t-233 -163t-302.5 -60.5q-165 0 -305 60.5t-233.5 163t-146 238t-52.5 284.5zM295 717q0 -141 63.5 -261.5t183 -195t269.5 -74.5 t269 74.5t182 195t63 261.5t-63 261t-182 193.5t-269 73.5t-269.5 -73.5t-183 -193.5t-63.5 -261zM459 719q0 154 101 261t263 107q137 0 240 -88v-241q-124 88 -227 88q-60 0 -99 -37.5t-39 -89.5t39 -89.5t99 -37.5q104 0 227 88v-244q-40 -39 -104 -63.5t-136 -24.5 q-161 0 -262.5 108.5t-101.5 262.5z" />
<glyph unicode="&#xaa;" horiz-adv-x="655" d="M25 1184q0 111 63 186.5t170 75.5q90 0 152 -72v60h223v-502h-223v59q-62 -71 -152 -71q-107 0 -170 75.5t-63 188.5zM297 1184q0 -25 15 -42.5t40 -17.5q24 0 41 18t17 42t-17 41.5t-41 17.5q-25 0 -40 -17.5t-15 -41.5z" />
<glyph unicode="&#xab;" horiz-adv-x="1200" d="M51 590v8l271 426h376l-284 -430l284 -430h-376zM545 590v8l270 426h377l-285 -430l285 -430h-377z" />
<glyph unicode="&#xac;" horiz-adv-x="1001" d="M51 496v354h858v-666h-362v312h-496z" />
<glyph unicode="&#xad;" horiz-adv-x="765" d="M51 436v357h664v-357h-664z" />
<glyph unicode="&#xae;" horiz-adv-x="1617" d="M74 717q0 149 52.5 283.5t146 236.5t233.5 162.5t305 60.5q163 0 302.5 -60.5t233 -162t146.5 -236.5t53 -284t-53 -284.5t-146.5 -238t-233 -163t-302.5 -60.5q-165 0 -305 60.5t-233.5 163t-146 238t-52.5 284.5zM295 717q0 -141 63.5 -261.5t183 -195t269.5 -74.5 t269 74.5t182 195t63 261.5t-63 261t-182 193.5t-269 73.5t-269.5 -73.5t-183 -193.5t-63.5 -261zM545 356v731h297q134 0 214.5 -74.5t80.5 -189.5q0 -72 -34 -130.5t-95 -92.5l153 -240h-243l-105 201h-57v-205h-211zM756 758h82q31 0 52 18t21 47t-21 47.5t-52 18.5h-82 v-131z" />
<glyph unicode="&#xaf;" horiz-adv-x="716" d="M25 1235v278h669v-278h-669z" />
<glyph unicode="&#xb0;" horiz-adv-x="774" d="M25 1098q0 151 106.5 256.5t255.5 105.5q154 0 259.5 -105t105.5 -257q0 -149 -106.5 -257t-258.5 -108q-147 0 -254.5 108.5t-107.5 256.5zM313 1098q0 -30 22 -52t52 -22t52 22t22 52q0 31 -22 51t-52 20t-52 -20t-22 -51z" />
<glyph unicode="&#xb1;" horiz-adv-x="813" d="M51 119v260h711v-260h-711zM51 643v318h205v196h301v-196h205v-318h-205v-197h-301v197h-205z" />
<glyph unicode="&#xb2;" horiz-adv-x="569" d="M23 1489q13 87 83 148t175 61q114 0 187 -62t73 -163q0 -38 -11.5 -71t-35 -61.5t-42.5 -47t-49 -42.5l-10 -10h148v-217h-492l2 162q24 21 63 53.5t70 59t66 57.5q55 51 55 84q0 14 -8 23.5t-21 9.5q-30 0 -38 -50z" />
<glyph unicode="&#xb3;" horiz-adv-x="565" d="M23 1192l180 94q28 -55 76 -55q18 0 29 11.5t11 27.5q0 15 -10.5 26t-27.5 11q-19 0 -27 -4l-94 83l86 80h-185v217h435v-188l-84 -68q58 -28 92.5 -79.5t34.5 -114.5q0 -96 -71.5 -159.5t-184.5 -63.5q-90 0 -159 47.5t-101 134.5z" />
<glyph unicode="&#xb4;" horiz-adv-x="593" d="M25 1139l114 434h432l-243 -434h-303z" />
<glyph unicode="&#xb5;" horiz-adv-x="1191" d="M84 -410v1434h434v-535q0 -38 21.5 -64t52.5 -26t52.5 25.5t21.5 64.5v535h434v-1024h-434v129q-66 -75 -150 -115v-424h-432z" />
<glyph unicode="&#xb6;" horiz-adv-x="1658" d="M20 887q0 84 21.5 164t65.5 149.5t105.5 121.5t145.5 82t181 30h452v-1725h-452v664h-4q-152 0 -271 71t-181.5 187.5t-62.5 255.5zM1104 -291v1725h452v-1725h-452z" />
<glyph unicode="&#xb7;" horiz-adv-x="643" d="M92 651q0 94 67 162t163 68q93 0 160 -68t67 -162q0 -95 -66.5 -162t-160.5 -67q-96 0 -163 67t-67 162z" />
<glyph unicode="&#xb8;" horiz-adv-x="514" d="M25 -135q83 -45 170 -45q28 0 43.5 10t15.5 23q0 32 -59 32q-38 0 -80 -12l-9 4l41 135h203l-4 -55q62 -16 104 -64t42 -118q0 -96 -71 -153.5t-179 -57.5q-55 0 -116.5 13t-100.5 32v256z" />
<glyph unicode="&#xb9;" horiz-adv-x="452" d="M29 1585l196 98h170v-659h-227v391l-59 -26z" />
<glyph unicode="&#xba;" horiz-adv-x="581" d="M25 1184q0 109 72.5 185.5t193.5 76.5q123 0 195.5 -76.5t72.5 -185.5q0 -111 -72.5 -187.5t-195.5 -76.5q-122 0 -194 77t-72 187zM236 1184q0 -24 15.5 -41t39.5 -17q25 0 41 17t16 41t-15.5 40.5t-41.5 16.5q-24 0 -39.5 -16.5t-15.5 -40.5z" />
<glyph unicode="&#xbb;" horiz-adv-x="1200" d="M8 164l285 430l-285 430h377l270 -426v-8l-270 -426h-377zM502 164l284 430l-284 430h377l270 -426v-8l-270 -426h-377z" />
<glyph unicode="&#xbc;" horiz-adv-x="1241" d="M29 1335l196 99h170v-660h-227v391l-59 -26zM90 0l836 1434h198l-837 -1434h-197zM678 80v139l209 440h280v-403h54v-176h-54v-80h-209v80h-280zM895 256h63v178z" />
<glyph unicode="&#xbd;" horiz-adv-x="1306" d="M29 1335l196 99h170v-660h-227v391l-59 -26zM90 0l836 1434h198l-837 -1434h-197zM760 465q13 87 83 148t175 61q114 0 187 -62t73 -163q0 -49 -23.5 -94.5t-48 -70t-65.5 -57.5l-11 -10h148v-217h-492l2 162q24 21 63 53.5t70 59t66 57.5q55 51 55 84q0 14 -7.5 23.5 t-20.5 9.5q-31 0 -39 -50z" />
<glyph unicode="&#xbe;" horiz-adv-x="1333" d="M23 942l180 94q28 -55 76 -55q18 0 29 11.5t11 27.5q0 15 -10.5 26t-27.5 11q-19 0 -27 -4l-94 84l86 80h-185v217h435v-189l-84 -67q58 -28 92.5 -80t34.5 -115q0 -96 -71.5 -159.5t-184.5 -63.5q-90 0 -159 47.5t-101 134.5zM180 0l836 1434h198l-837 -1434h-197z M770 80v139l209 440h281v-403h53v-176h-53v-80h-209v80h-281zM987 256h64v178z" />
<glyph unicode="&#xbf;" horiz-adv-x="1044" d="M31 119q0 148 87.5 263t229.5 157l8 84h318l18 -258q-108 -22 -169.5 -63.5t-61.5 -94.5q0 -29 18.5 -49.5t46.5 -20.5q40 0 62 38.5t20 86.5l422 -100q-3 -104 -39.5 -196.5t-100.5 -163t-160 -111.5t-210 -41q-150 0 -262.5 64t-169.5 169.5t-57 235.5zM289 903 q0 95 66.5 162.5t160.5 67.5q96 0 162.5 -67t66.5 -163q0 -94 -66.5 -161.5t-162.5 -67.5q-94 0 -160.5 67.5t-66.5 161.5z" />
<glyph unicode="&#xc0;" horiz-adv-x="1394" d="M4 0l420 1436h555l412 -1436h-484l-37 168h-342l-36 -168h-488zM307 1982h432l115 -434h-303zM606 526h189l-95 435z" />
<glyph unicode="&#xc1;" horiz-adv-x="1394" d="M4 0l420 1436h555l412 -1436h-484l-37 168h-342l-36 -168h-488zM543 1548l114 434h433l-244 -434h-303zM606 526h189l-95 435z" />
<glyph unicode="&#xc2;" horiz-adv-x="1394" d="M4 0l420 1436h555l412 -1436h-484l-37 168h-342l-36 -168h-488zM260 1540l221 436h437l223 -436h-375l-66 219l-65 -219h-375zM606 526h189l-95 435z" />
<glyph unicode="&#xc3;" horiz-adv-x="1394" d="M4 0l420 1436h555l412 -1436h-484l-37 168h-342l-36 -168h-488zM354 1587v357q83 57 205 57q62 0 142.5 -26.5t140.5 -26.5q101 0 202 53v-354q-78 -60 -204 -60q-60 0 -140 25.5t-141 25.5q-108 0 -205 -51zM606 526h189l-95 435z" />
<glyph unicode="&#xc4;" horiz-adv-x="1394" d="M4 0l420 1436h555l412 -1436h-484l-37 168h-342l-36 -168h-488zM233 1774q0 105 73 177t177 72q71 0 128.5 -34t90.5 -93q32 58 91.5 92.5t128.5 34.5q105 0 177 -72t72 -177q0 -103 -72.5 -176.5t-176.5 -73.5q-69 0 -128.5 35t-91.5 94q-33 -60 -90.5 -94.5 t-128.5 -34.5q-103 0 -176.5 73.5t-73.5 176.5zM606 526h189l-95 435z" />
<glyph unicode="&#xc5;" horiz-adv-x="1394" d="M4 0l420 1436h555l412 -1436h-484l-37 168h-342l-36 -168h-488zM408 1792q0 122 85.5 207.5t206.5 85.5q123 0 208 -85t85 -208q0 -121 -85.5 -207t-207.5 -86q-120 0 -206 86.5t-86 206.5zM606 526h189l-95 435zM657 1792q0 -17 12 -29t31 -12t31 12t12 29q0 19 -12 31 t-31 12t-31 -12t-12 -31z" />
<glyph unicode="&#xc6;" horiz-adv-x="1839" d="M4 0l522 1434h1250v-433h-498v-96h375v-370h-375v-103h498v-432h-951v168h-268l-53 -168h-500zM672 526h153v484z" />
<glyph unicode="&#xc7;" horiz-adv-x="1169" d="M74 715q0 167 58 306t160 233t241.5 146t300.5 52q162 0 282 -47l2 -469q-113 65 -260 65q-133 0 -223 -80t-90 -206q0 -122 90.5 -203.5t222.5 -81.5q145 0 260 66l-2 -469q-102 -41 -242 -47l-2 -23q62 -16 104 -64t42 -118q0 -96 -71 -153.5t-179 -57.5 q-55 0 -116.5 13t-100.5 32v256q83 -45 170 -45q28 0 43.5 10t15.5 23q0 32 -59 32q-38 0 -80 -12l-8 4l35 117q-266 48 -430 240.5t-164 480.5z" />
<glyph unicode="&#xc8;" horiz-adv-x="1116" d="M102 0v1434h951v-433h-498v-96h375v-370h-375v-103h498v-432h-951zM186 1982h432l115 -434h-303z" />
<glyph unicode="&#xc9;" horiz-adv-x="1116" d="M102 0v1434h951v-433h-498v-96h375v-370h-375v-103h498v-432h-951zM422 1548l115 434h432l-244 -434h-303z" />
<glyph unicode="&#xca;" horiz-adv-x="1116" d="M102 0v1434h951v-433h-498v-96h375v-370h-375v-103h498v-432h-951zM139 1540l221 436h437l223 -436h-375l-65 219l-66 -219h-375z" />
<glyph unicode="&#xcb;" horiz-adv-x="1116" d="M102 0v1434h951v-433h-498v-96h375v-370h-375v-103h498v-432h-951zM113 1774q0 105 73 177t176 72q71 0 129 -34t91 -93q32 59 91 93t128 34q105 0 177.5 -72t72.5 -177q0 -103 -73 -176.5t-177 -73.5q-69 0 -128 35t-91 94q-33 -59 -91 -94t-129 -35q-103 0 -176 73.5 t-73 176.5z" />
<glyph unicode="&#xcc;" horiz-adv-x="657" d="M-63 1982h432l114 -434h-303zM102 0v1434h453v-1434h-453z" />
<glyph unicode="&#xcd;" horiz-adv-x="657" d="M102 0v1434h453v-1434h-453zM172 1548l115 434h432l-244 -434h-303z" />
<glyph unicode="&#xce;" horiz-adv-x="657" d="M-111 1540l222 436h436l223 -436h-375l-65 219l-66 -219h-375zM102 0v1434h453v-1434h-453z" />
<glyph unicode="&#xcf;" horiz-adv-x="657" d="M-137 1774q0 105 73 177t177 72q71 0 128.5 -34t90.5 -93q32 59 91 93t128 34q105 0 177.5 -72t72.5 -177q0 -103 -73 -176.5t-177 -73.5q-69 0 -128 35t-91 94q-33 -60 -90.5 -94.5t-128.5 -34.5q-103 0 -176.5 73.5t-73.5 176.5zM102 0v1434h453v-1434h-453z" />
<glyph unicode="&#xd0;" horiz-adv-x="1392" d="M-39 539v358h141v537h484q166 0 305 -55.5t232 -151t144.5 -225.5t51.5 -279q0 -200 -87.5 -363.5t-256 -261.5t-389.5 -98h-484v539h-141zM555 432h39q120 0 187 82.5t67 208.5q0 124 -66.5 201t-187.5 77h-39v-104h158v-358h-158v-107z" />
<glyph unicode="&#xd1;" horiz-adv-x="1490" d="M102 0v1436h463l371 -615v613h450v-1436h-462l-369 600v-598h-453zM401 1587v357q83 57 205 57q62 0 142.5 -26.5t140.5 -26.5q102 0 203 53v-354q-78 -60 -205 -60q-61 0 -141 25.5t-140 25.5q-108 0 -205 -51z" />
<glyph unicode="&#xd2;" horiz-adv-x="1654" d="M74 717q0 149 53.5 283.5t149.5 236t239 161.5t311 60t311 -60t239 -161.5t150 -236t54 -283.5t-54 -284t-150 -236.5t-239 -161.5t-311 -60t-311 60t-239 161.5t-149.5 236.5t-53.5 284zM434 1982h432l115 -434h-303zM545 717q0 -116 78.5 -202.5t203.5 -86.5t204 86.5 t79 202.5q0 115 -79 202t-204 87t-203.5 -87t-78.5 -202z" />
<glyph unicode="&#xd3;" horiz-adv-x="1654" d="M74 717q0 149 53.5 283.5t149.5 236t239 161.5t311 60t311 -60t239 -161.5t150 -236t54 -283.5t-54 -284t-150 -236.5t-239 -161.5t-311 -60t-311 60t-239 161.5t-149.5 236.5t-53.5 284zM545 717q0 -116 78.5 -202.5t203.5 -86.5t204 86.5t79 202.5q0 115 -79 202 t-204 87t-203.5 -87t-78.5 -202zM670 1548l114 434h433l-244 -434h-303z" />
<glyph unicode="&#xd4;" horiz-adv-x="1654" d="M74 717q0 149 53.5 283.5t149.5 236t239 161.5t311 60t311 -60t239 -161.5t150 -236t54 -283.5t-54 -284t-150 -236.5t-239 -161.5t-311 -60t-311 60t-239 161.5t-149.5 236.5t-53.5 284zM387 1540l221 436h436l224 -436h-375l-66 219l-65 -219h-375zM545 717 q0 -116 78.5 -202.5t203.5 -86.5t204 86.5t79 202.5q0 115 -79 202t-204 87t-203.5 -87t-78.5 -202z" />
<glyph unicode="&#xd5;" horiz-adv-x="1654" d="M74 717q0 149 53.5 283.5t149.5 236t239 161.5t311 60t311 -60t239 -161.5t150 -236t54 -283.5t-54 -284t-150 -236.5t-239 -161.5t-311 -60t-311 60t-239 161.5t-149.5 236.5t-53.5 284zM481 1587v357q83 57 205 57q62 0 142.5 -26.5t140.5 -26.5q101 0 202 53v-354 q-78 -60 -204 -60q-61 0 -141 25.5t-140 25.5q-108 0 -205 -51zM545 717q0 -116 78.5 -202.5t203.5 -86.5t204 86.5t79 202.5q0 115 -79 202t-204 87t-203.5 -87t-78.5 -202z" />
<glyph unicode="&#xd6;" horiz-adv-x="1654" d="M74 717q0 149 53.5 283.5t149.5 236t239 161.5t311 60t311 -60t239 -161.5t150 -236t54 -283.5t-54 -284t-150 -236.5t-239 -161.5t-311 -60t-311 60t-239 161.5t-149.5 236.5t-53.5 284zM360 1774q0 105 73 177t177 72q71 0 128.5 -34t90.5 -93q32 58 91.5 92.5 t128.5 34.5q105 0 177 -72t72 -177q0 -103 -72.5 -176.5t-176.5 -73.5q-69 0 -128.5 35t-91.5 94q-33 -60 -90.5 -94.5t-128.5 -34.5q-103 0 -176.5 73.5t-73.5 176.5zM545 717q0 -116 78.5 -202.5t203.5 -86.5t204 86.5t79 202.5q0 115 -79 202t-204 87t-203.5 -87 t-78.5 -202z" />
<glyph unicode="&#xd7;" horiz-adv-x="985" d="M51 401l223 205l-223 205l219 219l224 -221l221 221l219 -219l-223 -205l223 -205l-219 -221l-221 223l-224 -223z" />
<glyph unicode="&#xd8;" horiz-adv-x="1654" d="M74 717q0 149 53.5 283.5t149.5 236t239 161.5t311 60q182 0 324 -65l31 41h356l-154 -207q95 -101 146 -232.5t51 -277.5q0 -149 -54 -284t-150 -236.5t-239 -161.5t-311 -60q-179 0 -323 66l-31 -41h-352l149 203q-94 102 -145 234.5t-51 279.5zM545 717q0 -57 22 -115 l297 402q-12 2 -37 2q-125 0 -203.5 -87t-78.5 -202zM793 430q10 -2 34 -2q125 0 204 86.5t79 202.5q0 53 -23 110z" />
<glyph unicode="&#xd9;" horiz-adv-x="1310" d="M82 506v928h453v-879q0 -62 34 -95.5t86 -33.5q54 0 88.5 33.5t34.5 95.5v879h451v-928q0 -248 -156 -390.5t-418 -142.5q-260 0 -416.5 142.5t-156.5 390.5zM262 1982h432l115 -434h-303z" />
<glyph unicode="&#xda;" horiz-adv-x="1310" d="M82 506v928h453v-879q0 -62 34 -95.5t86 -33.5q54 0 88.5 33.5t34.5 95.5v879h451v-928q0 -248 -156 -390.5t-418 -142.5q-260 0 -416.5 142.5t-156.5 390.5zM498 1548l114 434h432l-243 -434h-303z" />
<glyph unicode="&#xdb;" horiz-adv-x="1310" d="M82 506v928h453v-879q0 -62 34 -95.5t86 -33.5q54 0 88.5 33.5t34.5 95.5v879h451v-928q0 -248 -156 -390.5t-418 -142.5q-260 0 -416.5 142.5t-156.5 390.5zM215 1540l221 436h436l224 -436h-375l-66 219l-65 -219h-375z" />
<glyph unicode="&#xdc;" horiz-adv-x="1310" d="M82 506v928h453v-879q0 -62 34 -95.5t86 -33.5q54 0 88.5 33.5t34.5 95.5v879h451v-928q0 -248 -156 -390.5t-418 -142.5q-260 0 -416.5 142.5t-156.5 390.5zM188 1774q0 105 73 177t177 72q71 0 128.5 -34t90.5 -93q32 58 91.5 92.5t128.5 34.5q105 0 177 -72t72 -177 q0 -103 -72.5 -176.5t-176.5 -73.5q-69 0 -128.5 35t-91.5 94q-33 -60 -90.5 -94.5t-128.5 -34.5q-103 0 -176.5 73.5t-73.5 176.5z" />
<glyph unicode="&#xdd;" horiz-adv-x="1335" d="M4 1434l500 2l164 -549l163 549l500 -2l-428 -1018v-416h-471v416zM508 1548l115 434h432l-244 -434h-303z" />
<glyph unicode="&#xde;" horiz-adv-x="1249" d="M102 0v1434h453v-146h129q159 0 284.5 -73.5t193 -196.5t67.5 -270q0 -233 -150.5 -383t-390.5 -150h-133v-215h-453zM555 639h88q55 0 88 30.5t33 78.5q0 43 -33.5 74.5t-87.5 31.5h-88v-215z" />
<glyph unicode="&#xdf;" horiz-adv-x="1286" d="M102 0v995q0 211 133.5 336t391.5 125q127 0 228.5 -33t164.5 -90t96 -130t33 -156q0 -181 -137 -293q102 -46 157.5 -136.5t55.5 -214.5q0 -81 -28 -153t-81.5 -128t-139 -89t-192.5 -33h-172v420h50q42 0 67 25t25 59q0 33 -25 57.5t-67 24.5h-50v266h23q33 0 54.5 23 t21.5 51q0 30 -21.5 51.5t-54.5 21.5q-47 0 -68.5 -34t-21.5 -84v-881h-443z" />
<glyph unicode="&#xe0;" horiz-adv-x="1251" d="M53 516q0 147 46 264t142.5 189.5t229.5 72.5q161 0 256 -116v98h434v-1024h-434v104q-98 -116 -256 -116q-101 0 -181.5 42t-131.5 115t-78 168t-27 203zM281 1573h432l114 -434h-303zM512 516q0 -44 30 -75t76 -31t77.5 31t31.5 75q0 46 -31 78.5t-78 32.5 q-46 0 -76 -32t-30 -79z" />
<glyph unicode="&#xe1;" horiz-adv-x="1251" d="M53 516q0 147 46 264t142.5 189.5t229.5 72.5q161 0 256 -116v98h434v-1024h-434v104q-98 -116 -256 -116q-101 0 -181.5 42t-131.5 115t-78 168t-27 203zM512 516q0 -44 30 -75t76 -31t77.5 31t31.5 75q0 46 -31 78.5t-78 32.5q-46 0 -76 -32t-30 -79zM516 1139l115 434 h432l-244 -434h-303z" />
<glyph unicode="&#xe2;" horiz-adv-x="1251" d="M53 516q0 147 46 264t142.5 189.5t229.5 72.5q161 0 256 -116v98h434v-1024h-434v104q-98 -116 -256 -116q-101 0 -181.5 42t-131.5 115t-78 168t-27 203zM233 1130l222 437h436l223 -437h-375l-65 220l-66 -220h-375zM512 516q0 -44 30 -75t76 -31t77.5 31t31.5 75 q0 46 -31 78.5t-78 32.5q-46 0 -76 -32t-30 -79z" />
<glyph unicode="&#xe3;" horiz-adv-x="1251" d="M53 516q0 147 46 264t142.5 189.5t229.5 72.5q161 0 256 -116v98h434v-1024h-434v104q-98 -116 -256 -116q-101 0 -181.5 42t-131.5 115t-78 168t-27 203zM328 1178v356q83 57 204 57q62 0 142.5 -26.5t140.5 -26.5q102 0 203 53v-354q-77 -59 -205 -59q-61 0 -141 25.5 t-140 25.5q-107 0 -204 -51zM512 516q0 -44 30 -75t76 -31t77.5 31t31.5 75q0 46 -31 78.5t-78 32.5q-46 0 -76 -32t-30 -79z" />
<glyph unicode="&#xe4;" horiz-adv-x="1251" d="M53 516q0 147 46 264t142.5 189.5t229.5 72.5q161 0 256 -116v98h434v-1024h-434v104q-98 -116 -256 -116q-101 0 -181.5 42t-131.5 115t-78 168t-27 203zM207 1364q0 105 73.5 177.5t176.5 72.5q71 0 128.5 -34t90.5 -93q32 59 91 93t128 34q105 0 177.5 -72.5 t72.5 -177.5q0 -103 -73 -176.5t-177 -73.5q-69 0 -128 35t-91 94q-33 -60 -90.5 -94.5t-128.5 -34.5q-103 0 -176.5 73.5t-73.5 176.5zM512 516q0 -44 30 -75t76 -31t77.5 31t31.5 75q0 46 -31 78.5t-78 32.5q-46 0 -76 -32t-30 -79z" />
<glyph unicode="&#xe5;" horiz-adv-x="1251" d="M53 516q0 147 46 264t142.5 189.5t229.5 72.5q161 0 256 -116v98h434v-1024h-434v104q-98 -116 -256 -116q-101 0 -181.5 42t-131.5 115t-78 168t-27 203zM381 1382q0 122 86 207.5t207 85.5q123 0 208 -85t85 -208q0 -121 -85.5 -206.5t-207.5 -85.5q-120 0 -206.5 86 t-86.5 206zM512 516q0 -44 30 -75t76 -31t77.5 31t31.5 75q0 46 -31 78.5t-78 32.5q-46 0 -76 -32t-30 -79zM631 1382q0 -17 12 -29t31 -12t31 12t12 29q0 19 -12 31t-31 12t-31 -12t-12 -31z" />
<glyph unicode="&#xe6;" horiz-adv-x="2082" d="M53 518q0 147 46 264t142.5 189.5t229.5 72.5q161 0 256 -116v96h416v-152q70 81 170.5 126.5t222.5 45.5q167 0 285.5 -83.5t171.5 -222t41 -312.5h-609q40 -86 172 -86q138 0 310 53l6 -344q-152 -65 -354 -65q-262 0 -416 170v-154h-416v106q-98 -116 -256 -116 q-101 0 -181.5 42t-131.5 115t-78 168t-27 203zM512 518q0 -44 30 -75t76 -31t77.5 31t31.5 75q0 46 -31 78.5t-78 32.5q-46 0 -76 -32t-30 -79zM1423 594h230q-15 39 -45 61.5t-66 22.5q-86 0 -119 -84z" />
<glyph unicode="&#xe7;" horiz-adv-x="970" d="M53 512q0 149 68.5 270t196 191.5t290.5 70.5q161 0 297 -61v-432q-149 55 -276 55q-62 0 -97.5 -26t-35.5 -68t35.5 -68t97.5 -26q127 0 276 55v-432q-110 -48 -235 -59l-2 -25q62 -16 103.5 -64t41.5 -118q0 -96 -71 -153.5t-179 -57.5q-55 0 -116.5 13t-100.5 32v256 q83 -45 170 -45q28 0 43.5 10t15.5 23q0 32 -59 32q-38 0 -80 -12l-8 4l35 119q-187 43 -298.5 184t-111.5 332z" />
<glyph unicode="&#xe8;" horiz-adv-x="1122" d="M53 512q0 107 36.5 203.5t102.5 169.5t165.5 116t217.5 43q167 0 285.5 -83.5t171.5 -222t41 -312.5h-608q40 -86 172 -86q137 0 309 53l6 -344q-152 -65 -354 -65q-167 0 -292.5 71.5t-189 190.5t-63.5 266zM176 1573h432l115 -434h-303zM463 594h229q-15 39 -44.5 61.5 t-65.5 22.5q-86 0 -119 -84z" />
<glyph unicode="&#xe9;" horiz-adv-x="1122" d="M53 512q0 107 36.5 203.5t102.5 169.5t165.5 116t217.5 43q167 0 285.5 -83.5t171.5 -222t41 -312.5h-608q40 -86 172 -86q137 0 309 53l6 -344q-152 -65 -354 -65q-167 0 -292.5 71.5t-189 190.5t-63.5 266zM412 1139l114 434h432l-243 -434h-303zM463 594h229 q-15 39 -44.5 61.5t-65.5 22.5q-86 0 -119 -84z" />
<glyph unicode="&#xea;" horiz-adv-x="1122" d="M53 512q0 107 36.5 203.5t102.5 169.5t165.5 116t217.5 43q167 0 285.5 -83.5t171.5 -222t41 -312.5h-608q40 -86 172 -86q137 0 309 53l6 -344q-152 -65 -354 -65q-167 0 -292.5 71.5t-189 190.5t-63.5 266zM129 1130l221 437h436l224 -437h-375l-66 220l-65 -220h-375z M463 594h229q-15 39 -44.5 61.5t-65.5 22.5q-86 0 -119 -84z" />
<glyph unicode="&#xeb;" horiz-adv-x="1122" d="M53 512q0 107 36.5 203.5t102.5 169.5t165.5 116t217.5 43q167 0 285.5 -83.5t171.5 -222t41 -312.5h-608q40 -86 172 -86q137 0 309 53l6 -344q-152 -65 -354 -65q-167 0 -292.5 71.5t-189 190.5t-63.5 266zM102 1364q0 105 73.5 177.5t176.5 72.5q71 0 128.5 -34 t90.5 -93q32 58 91.5 92.5t128.5 34.5q105 0 177 -72t72 -178q0 -103 -72.5 -176.5t-176.5 -73.5q-69 0 -128.5 35t-91.5 94q-33 -60 -90.5 -94.5t-128.5 -34.5q-103 0 -176.5 73.5t-73.5 176.5zM463 594h229q-15 39 -44.5 61.5t-65.5 22.5q-86 0 -119 -84z" />
<glyph unicode="&#xec;" horiz-adv-x="716" d="M14 1573h432l115 -434h-303zM193 0v1024h434v-1024h-434z" />
<glyph unicode="&#xed;" horiz-adv-x="550" d="M59 0v1024h435v-1024h-435zM117 1139l114 434h433l-244 -434h-303z" />
<glyph unicode="&#xee;" horiz-adv-x="909" d="M14 1130l222 437h436l223 -437h-375l-65 220l-66 -220h-375zM240 0v1024h434v-1024h-434z" />
<glyph unicode="&#xef;" horiz-adv-x="966" d="M14 1364q0 105 73.5 177.5t176.5 72.5q71 0 128.5 -34t90.5 -93q32 59 91 93t128 34q105 0 177.5 -72.5t72.5 -177.5q0 -103 -73 -176.5t-177 -73.5q-69 0 -128 35t-91 94q-33 -60 -90.5 -94.5t-128.5 -34.5q-103 0 -176.5 73.5t-73.5 176.5zM250 0v1024h434v-1024h-434z " />
<glyph unicode="&#xf0;" horiz-adv-x="1210" d="M53 514q0 108 40.5 206.5t111 172t172 117t217.5 43.5q36 0 74 -6q-43 51 -103 104l-235 -94v139l108 43q-95 59 -229 104l199 328q231 -87 413 -278l185 73v-141l-95 -37q116 -151 181 -329t65 -367q0 -84 -18 -166.5t-60.5 -165t-105 -145t-161 -101.5t-218.5 -39 q-116 0 -217.5 43.5t-172 117t-111 172t-40.5 206.5zM498 516q0 -42 27 -71t69 -29q43 0 70.5 28.5t27.5 71.5q0 39 -28 67.5t-70 28.5t-69 -28.5t-27 -67.5z" />
<glyph unicode="&#xf1;" d="M92 0v1024h434v-129q130 147 299 147q144 0 213.5 -94.5t69.5 -261.5v-686h-434v535q0 38 -21.5 64t-52.5 26t-52.5 -25.5t-21.5 -64.5v-535h-434zM238 1178v356q83 57 204 57q62 0 142.5 -26.5t140.5 -26.5q102 0 203 53v-354q-77 -59 -205 -59q-61 0 -140.5 25.5 t-140.5 25.5q-107 0 -204 -51z" />
<glyph unicode="&#xf2;" d="M53 514q0 108 40.5 206.5t111 172t172 117t217.5 43.5q155 0 280.5 -74t194 -197t68.5 -268t-68.5 -268t-194 -197t-280.5 -74q-116 0 -217.5 43.5t-172 117t-111 172t-40.5 206.5zM201 1573h432l115 -434h-304zM494 516q0 -44 28 -74t72 -30t73 30t29 74 q0 41 -29.5 70.5t-72.5 29.5t-71.5 -30t-28.5 -70z" />
<glyph unicode="&#xf3;" d="M53 514q0 108 40.5 206.5t111 172t172 117t217.5 43.5q155 0 280.5 -74t194 -197t68.5 -268t-68.5 -268t-194 -197t-280.5 -74q-116 0 -217.5 43.5t-172 117t-111 172t-40.5 206.5zM436 1139l115 434h432l-244 -434h-303zM494 516q0 -44 28 -74t72 -30t73 30t29 74 q0 41 -29.5 70.5t-72.5 29.5t-71.5 -30t-28.5 -70z" />
<glyph unicode="&#xf4;" d="M53 514q0 108 40.5 206.5t111 172t172 117t217.5 43.5q155 0 280.5 -74t194 -197t68.5 -268t-68.5 -268t-194 -197t-280.5 -74q-116 0 -217.5 43.5t-172 117t-111 172t-40.5 206.5zM154 1130l221 437h436l223 -437h-375l-65 220l-66 -220h-374zM494 516q0 -44 28 -74 t72 -30t73 30t29 74q0 41 -29.5 70.5t-72.5 29.5t-71.5 -30t-28.5 -70z" />
<glyph unicode="&#xf5;" d="M53 514q0 108 40.5 206.5t111 172t172 117t217.5 43.5q155 0 280.5 -74t194 -197t68.5 -268t-68.5 -268t-194 -197t-280.5 -74q-116 0 -217.5 43.5t-172 117t-111 172t-40.5 206.5zM248 1178v356q83 57 205 57q62 0 142 -26.5t140 -26.5q102 0 203 53v-354 q-77 -59 -205 -59q-61 0 -140 25.5t-140 25.5q-108 0 -205 -51zM494 516q0 -44 28 -74t72 -30t73 30t29 74q0 41 -29.5 70.5t-72.5 29.5t-71.5 -30t-28.5 -70z" />
<glyph unicode="&#xf6;" d="M53 514q0 108 40.5 206.5t111 172t172 117t217.5 43.5q155 0 280.5 -74t194 -197t68.5 -268t-68.5 -268t-194 -197t-280.5 -74q-116 0 -217.5 43.5t-172 117t-111 172t-40.5 206.5zM127 1364q0 105 73.5 177.5t176.5 72.5q71 0 128.5 -34t90.5 -93q32 59 91 93t128 34 q105 0 177.5 -72.5t72.5 -177.5q0 -103 -73 -176.5t-177 -73.5q-69 0 -128 35t-91 94q-33 -60 -90.5 -94.5t-128.5 -34.5q-103 0 -176.5 73.5t-73.5 176.5zM494 516q0 -44 28 -74t72 -30t73 30t29 74q0 41 -29.5 70.5t-72.5 29.5t-71.5 -30t-28.5 -70z" />
<glyph unicode="&#xf7;" horiz-adv-x="897" d="M51 475v279h795v-279h-795zM276 252q0 70 48 119t118 49q67 0 115.5 -49.5t48.5 -118.5q0 -68 -48.5 -117t-115.5 -49q-70 0 -118 49t-48 117zM276 979q0 70 48 119t118 49q67 0 115.5 -49.5t48.5 -118.5q0 -68 -48.5 -117t-115.5 -49q-70 0 -118 49t-48 117z" />
<glyph unicode="&#xf8;" horiz-adv-x="1193" d="M57 514q0 108 40.5 206.5t111 172t172 117t217.5 43.5q180 0 320 -99l63 70h129l-119 -133q71 -74 110.5 -172.5t39.5 -204.5q0 -145 -68.5 -268t-194 -197t-280.5 -74q-186 0 -326 105l-69 -80h-133l129 145q-142 155 -142 369zM498 516q0 -11 4 -31l114 129q-6 2 -18 2 q-43 0 -71.5 -30t-28.5 -70zM571 416q16 -4 27 -4q44 0 73 30t29 74q0 24 -8 37z" />
<glyph unicode="&#xf9;" d="M82 338v686h434v-535q0 -38 21.5 -64t52.5 -26t52.5 25.5t21.5 64.5v535h434v-1024h-434v129q-130 -147 -299 -147q-144 0 -213.5 94.5t-69.5 261.5zM188 1573h433l114 -434h-303z" />
<glyph unicode="&#xfa;" d="M82 338v686h434v-535q0 -38 21.5 -64t52.5 -26t52.5 25.5t21.5 64.5v535h434v-1024h-434v129q-130 -147 -299 -147q-144 0 -213.5 94.5t-69.5 261.5zM424 1139l115 434h432l-244 -434h-303z" />
<glyph unicode="&#xfb;" d="M82 338v686h434v-535q0 -38 21.5 -64t52.5 -26t52.5 25.5t21.5 64.5v535h434v-1024h-434v129q-130 -147 -299 -147q-144 0 -213.5 94.5t-69.5 261.5zM141 1130l221 437h437l223 -437h-375l-65 220l-66 -220h-375z" />
<glyph unicode="&#xfc;" d="M82 338v686h434v-535q0 -38 21.5 -64t52.5 -26t52.5 25.5t21.5 64.5v535h434v-1024h-434v129q-130 -147 -299 -147q-144 0 -213.5 94.5t-69.5 261.5zM115 1364q0 105 73.5 177.5t176.5 72.5q71 0 128.5 -34t90.5 -93q32 59 91 93t128 34q105 0 177.5 -72.5t72.5 -177.5 q0 -103 -73 -176.5t-177 -73.5q-69 0 -128 35t-91 94q-33 -60 -90.5 -94.5t-128.5 -34.5q-103 0 -176.5 73.5t-73.5 176.5z" />
<glyph unicode="&#xfd;" horiz-adv-x="1144" d="M8 1024h445l118 -539l119 539h445l-482 -1434h-434l141 402zM414 1139l114 434h433l-244 -434h-303z" />
<glyph unicode="&#xfe;" horiz-adv-x="1251" d="M92 -410v1844h434v-508q98 116 256 116q101 0 181.5 -42t131.5 -115t78 -168t27 -203q0 -147 -46 -264t-142.5 -189.5t-229.5 -72.5q-161 0 -256 116v-514h-434zM526 514q0 -46 31 -78.5t78 -32.5q46 0 76 32t30 79q0 44 -30 75.5t-76 31.5t-77.5 -31.5t-31.5 -75.5z" />
<glyph unicode="&#xff;" horiz-adv-x="1144" d="M8 1024h445l118 -539l119 539h445l-482 -1434h-434l141 402zM104 1364q0 105 73.5 177.5t176.5 72.5q71 0 128.5 -34t90.5 -93q32 58 91.5 92.5t128.5 34.5q105 0 177 -72t72 -178q0 -103 -72.5 -176.5t-176.5 -73.5q-69 0 -128.5 35t-91.5 94q-33 -60 -90.5 -94.5 t-128.5 -34.5q-103 0 -176.5 73.5t-73.5 176.5z" />
<glyph unicode="&#x152;" horiz-adv-x="2342" d="M74 717q0 149 53.5 283.5t149.5 236t239 161.5t311 60q300 0 504 -178v154h950v-433h-497v-96h375v-370h-375v-103h497v-432h-950v154q-205 -179 -504 -179q-168 0 -311 60t-239 161.5t-149.5 236.5t-53.5 284zM545 717q0 -116 78.5 -202.5t203.5 -86.5t204 86.5 t79 202.5q0 115 -79 202t-204 87t-203.5 -87t-78.5 -202z" />
<glyph unicode="&#x153;" horiz-adv-x="1832" d="M53 514q0 108 40.5 206.5t111 172t172 117t217.5 43.5q207 0 354 -125q139 116 338 116q167 0 285.5 -83.5t171.5 -222t41 -312.5h-608q40 -86 172 -86q137 0 309 53l6 -344q-152 -65 -354 -65q-216 0 -361 116q-147 -125 -354 -125q-116 0 -217.5 43.5t-172 117 t-111 172t-40.5 206.5zM494 516q0 -44 28 -74t72 -30t73 30t29 74q0 41 -29.5 70.5t-72.5 29.5t-71.5 -30t-28.5 -70zM1174 594h229q-15 39 -45 61.5t-66 22.5q-85 0 -118 -84z" />
<glyph unicode="&#x178;" horiz-adv-x="1335" d="M4 1434l500 2l164 -549l163 549l500 -2l-428 -1018v-416h-471v416zM199 1774q0 105 73 177t177 72q71 0 128.5 -34t90.5 -93q32 59 91 93t128 34q105 0 177.5 -72t72.5 -177q0 -103 -73 -176.5t-177 -73.5q-69 0 -128 35t-91 94q-33 -60 -90.5 -94.5t-128.5 -34.5 q-103 0 -176.5 73.5t-73.5 176.5z" />
<glyph unicode="&#x2c6;" horiz-adv-x="927" d="M25 1130l221 437h436l223 -437h-375l-65 220l-66 -220h-374z" />
<glyph unicode="&#x2dc;" horiz-adv-x="739" d="M25 1178v356q83 57 204 57q62 0 142.5 -26.5t140.5 -26.5q102 0 203 53v-354q-77 -59 -205 -59q-60 0 -140 25.5t-141 25.5q-107 0 -204 -51z" />
<glyph unicode="&#x2000;" horiz-adv-x="1042" />
<glyph unicode="&#x2001;" horiz-adv-x="2085" />
<glyph unicode="&#x2002;" horiz-adv-x="1042" />
<glyph unicode="&#x2003;" horiz-adv-x="2085" />
<glyph unicode="&#x2004;" horiz-adv-x="695" />
<glyph unicode="&#x2005;" horiz-adv-x="521" />
<glyph unicode="&#x2006;" horiz-adv-x="347" />
<glyph unicode="&#x2007;" horiz-adv-x="347" />
<glyph unicode="&#x2008;" horiz-adv-x="260" />
<glyph unicode="&#x2009;" horiz-adv-x="417" />
<glyph unicode="&#x200a;" horiz-adv-x="115" />
<glyph unicode="&#x2010;" horiz-adv-x="765" d="M51 436v357h664v-357h-664z" />
<glyph unicode="&#x2011;" horiz-adv-x="765" d="M51 436v357h664v-357h-664z" />
<glyph unicode="&#x2012;" horiz-adv-x="765" d="M51 436v357h664v-357h-664z" />
<glyph unicode="&#x2013;" horiz-adv-x="978" d="M51 457v356h877v-356h-877z" />
<glyph unicode="&#x2014;" horiz-adv-x="1536" d="M51 457v356h1434v-356h-1434z" />
<glyph unicode="&#x2018;" horiz-adv-x="501" d="M18 862l156 572h303l-53 -572h-406z" />
<glyph unicode="&#x2019;" horiz-adv-x="501" d="M25 862l53 572h405l-155 -572h-303z" />
<glyph unicode="&#x201a;" horiz-adv-x="501" d="M31 -201l59 662h383l-186 -662h-256z" />
<glyph unicode="&#x201c;" horiz-adv-x="901" d="M18 862l156 572h303l-49 -537l145 537h304l-54 -572h-805z" />
<glyph unicode="&#x201d;" horiz-adv-x="901" d="M25 862l53 572h805l-156 -572h-303l49 537l-145 -537h-303z" />
<glyph unicode="&#x201e;" horiz-adv-x="501" d="M31 -201l59 662h383l-186 -662h-256z" />
<glyph unicode="&#x2022;" horiz-adv-x="825" d="M92 659q0 135 95.5 231.5t232.5 96.5q133 0 228 -97t95 -231q0 -135 -94.5 -230t-228.5 -95q-138 0 -233 95t-95 230z" />
<glyph unicode="&#x2026;" horiz-adv-x="1767" d="M31 205q0 94 66.5 161.5t162.5 67.5q94 0 160.5 -67.5t66.5 -161.5q0 -95 -66.5 -162.5t-160.5 -67.5q-96 0 -162.5 67t-66.5 163zM653 205q0 94 67 161.5t163 67.5q94 0 160.5 -67.5t66.5 -161.5q0 -95 -66.5 -162.5t-160.5 -67.5q-96 0 -163 67t-67 163zM1280 205 q0 94 66.5 161.5t162.5 67.5q94 0 161 -67.5t67 -161.5q0 -95 -67 -162.5t-161 -67.5q-96 0 -162.5 67t-66.5 163z" />
<glyph unicode="&#x202f;" horiz-adv-x="417" />
<glyph unicode="&#x2039;" horiz-adv-x="706" d="M51 590v8l271 426h376l-284 -430l284 -430h-376z" />
<glyph unicode="&#x203a;" horiz-adv-x="706" d="M8 164l285 430l-285 430h377l270 -426v-8l-270 -426h-377z" />
<glyph unicode="&#x205f;" horiz-adv-x="521" />
<glyph unicode="&#x20ac;" horiz-adv-x="1142" d="M37 541v141h110v33v33h-110v143h127q52 259 236.5 410t435.5 151q147 0 254 -47l2 -485q-50 32 -95.5 47.5t-115.5 15.5q-129 0 -205 -92h258v-143h-313q-3 -15 -3 -33t3 -33h313v-141h-258q35 -45 89 -70t116 -25q69 0 114 16t97 50l-2 -485q-107 -47 -254 -47 q-165 0 -305 66.5t-237 194.5t-130 300h-127z" />
<glyph unicode="&#x2122;" horiz-adv-x="1155" d="M25 1260v174h454v-174h-137v-297h-182v297h-135zM467 963l84 471h137l111 -183l110 183h140l84 -471h-187l-33 190l-110 -195h-10l-107 195l-33 -190h-186z" />
<glyph unicode="&#x25fc;" horiz-adv-x="1024" d="M0 0v1024h1024v-1024h-1024z" />
</font>
</defs>
</svg>
