<?xml version="1.0" encoding="UTF-8"?>
<svg xmlns="http://www.w3.org/2000/svg" version="1.1" viewBox="0 0 498 361">
  <defs>
    <style>
      .cls-1 {
        fill: #fff;
      }
    </style>
  </defs>
  <!-- Generator: Adobe Illustrator 28.7.1, SVG Export Plug-In . SVG Version: 1.2.0 Build 142)  -->
  <g>
    <g id="Layer_1">
      <path class="cls-1" d="M49.6,209.6c-16.1.3-32.1.7-48.1,1-.8,0-1.5-.6-1.5-1.5v-6.9c0-.8.7-1.5,1.5-1.5,16-.2,32-.4,48.1-.6.5,0,.9.4.9.9v7.7c0,.5-.4.9-.9.9h0ZM36.3,145.5c4.4.2,8.9.4,13.3.6.5,0,.9-.4.9-.8v-7.7c0-.5-.4-.9-.9-.9-4.4-.2-8.9-.4-13.3-.7-.8,0-1.5.6-1.5,1.4v6.6c0,.8.7,1.5,1.5,1.5h0ZM20.1,176.3c9.8.1,19.7.2,29.5.4.5,0,.9-.4.9-.9v-7.7c0-.5-.4-.9-.9-.9-9.9-.2-19.7-.4-29.5-.6-.8,0-1.5.6-1.5,1.5v6.7c0,.8.7,1.5,1.5,1.5ZM55.9,260.7c-.4-2.5-.8-5-1.2-7.6,0-.5-.5-.8-1-.8-13.1.8-26.1,1.6-39.1,2.5-.8,0-1.5.8-1.5,1.6v6.8c0,.8.7,1.5,1.5,1.4,13.5-1.1,27.1-2.1,40.6-3,.5,0,.8-.4.7-.9h0ZM65.4,320.1c-.4-2.5-.8-4.9-1.2-7.4,0-.5-.5-.8-1-.8-5.2.6-10.5,1.2-15.7,1.8-.8.1-1.5.8-1.5,1.6v6.5c0,.8.7,1.4,1.5,1.3,5.7-.7,11.4-1.4,17.2-2.1.5,0,.8-.5.7-1ZM60.8,291.6c-.4-2.5-.8-5-1.2-7.5,0-.5-.5-.8-1-.8-8.8.7-17.6,1.5-26.5,2.4-.8,0-1.5.8-1.5,1.6v6.6c0,.8.7,1.4,1.5,1.3,9.3-1,18.6-1.9,27.9-2.8.5,0,.8-.5.7-.9h0ZM496,200.7c-16-.2-32-.4-48.1-.6-.5,0-.9.4-.9.9v7.7c0,.5.4.9.9.9,16.1.3,32.1.7,48.1,1,.8,0,1.5-.6,1.5-1.5v-6.9c0-.8-.7-1.5-1.5-1.5h0ZM447.9,146c4.4-.2,8.9-.4,13.3-.6.8,0,1.5-.7,1.5-1.5v-6.6c0-.8-.7-1.4-1.5-1.4-4.4.2-8.9.4-13.3.7-.5,0-.9.4-.9.9v7.7c0,.5.4.9.9.8h0ZM447.9,176.7c9.9-.1,19.7-.2,29.5-.4.8,0,1.5-.7,1.5-1.5v-6.7c0-.8-.7-1.5-1.5-1.5-9.8.2-19.7.4-29.5.6-.5,0-.9.4-.9.9v7.7c0,.5.4.9.9.9ZM483,254.9c-13-.9-26.1-1.8-39.1-2.5-.5,0-.9.3-1,.8-.4,2.5-.8,5-1.2,7.6,0,.5.2.9.7.9,13.6.9,27.1,1.9,40.6,3,.8,0,1.5-.5,1.5-1.4v-6.8c0-.8-.7-1.6-1.5-1.6h0ZM450,313.7c-5.2-.6-10.4-1.2-15.7-1.8-.5,0-.9.3-1,.8-.4,2.5-.8,4.9-1.2,7.4,0,.5.2.9.7,1,5.7.7,11.4,1.3,17.2,2.1.8.1,1.5-.5,1.5-1.3v-6.5c0-.8-.7-1.5-1.5-1.6ZM465.4,285.7c-8.8-.8-17.6-1.6-26.5-2.4-.5,0-.9.3-1,.8-.4,2.5-.8,5-1.2,7.5,0,.5.2.9.7.9,9.3.9,18.6,1.8,27.9,2.8.8,0,1.5-.5,1.5-1.3v-6.6c0-.8-.7-1.5-1.5-1.6h0ZM143.7,94.8c.1.8,1,1.5,2,1.6,4.8.2,9.7.4,14.5.5,1,0,1.7-.6,1.6-1.5-1.8-13.9-3.5-27.8-5.3-41.6-.1-.8-1-1.4-1.9-1.2-5.2.8-10.5,1.6-15.7,2.4-.9.1-1.6.9-1.5,1.7,2.1,12.7,4.3,25.4,6.4,38.1ZM196.6,18.7c2.6,24.4,6.2,53.3,8.8,77.8,0,.8.9,1.6,1.9,1.6,5.4,0,10.8.2,16.3.2,1,0,1.7-.7,1.7-1.5-1.4-26.3-3.7-57-5.1-83.3,0-.8-.9-1.4-1.8-1.2-6.8,1.5-13.7,3-20.5,4.5-.9.2-1.6.4-1.5.4s.2.7.3,1.5ZM173.2,95.8c0,.8,1,1.5,1.9,1.6,5.7.2,11.4.3,17.1.4,1,0,1.7-.7,1.6-1.5-2.5-23.6-5.1-47.2-7.7-70.8,0-.8-.9-1.4-1.9-1.2-5.9,1.3-11.9,2.6-17.8,3.9-.9.2-1.6,1.1-1.5,1.9,2.8,21.8,5.5,43.7,8.2,65.7h0ZM367.5,95.8c4.3-.2,8.6-.4,12.8-.6,1,0,1.9-.7,2.1-1.5,1.4-5.8,2.7-11.7,4.1-17.5.2-.8-.4-1.5-1.4-1.6-4.7-.5-9.5-1-14.2-1.6-1-.1-1.8.5-1.9,1.3-1,6.7-2,13.4-3,20.1-.1.8.6,1.4,1.5,1.4h0ZM115.7,93.7c.2.8,1.2,1.5,2.1,1.5,4.3.2,8.6.4,12.9.6,1,0,1.6-.6,1.5-1.4-1.1-6.7-2.3-13.5-3.4-20.2-.1-.8-1-1.4-2-1.3-4.8.5-9.7,1.1-14.5,1.6-1,.1-1.6.8-1.3,1.6,1.6,5.8,3.1,11.7,4.7,17.5h0ZM238.4,98.3c6.8,0,13.6,0,20.4,0,1,0,1.8-.7,1.8-1.6,1.3-27.1,2.5-64.7,3.8-91.8,0-.8-.7-1.7-1.6-1.9-4.4-1-8.8-1.9-13.3-2.9-.9-.2-2.5-.2-3.4,0-4,.9-8.1,1.8-12.1,2.7-.9.2-1.7,1.1-1.6,1.9,1.4,27.2,2.8,64.8,4.2,92,0,.8.9,1.6,1.8,1.6h0ZM305,97.7c6.1-.1,12.2-.3,18.3-.4,1,0,1.8-.7,1.9-1.6,2.4-21.9,4.8-43.8,7.2-65.6,0-.8-.6-1.7-1.5-1.9-6-1.3-11.9-2.6-17.9-3.9-1-.2-1.8.3-1.9,1.1-2.6,23.5-5.1,47.1-7.7,70.7,0,.8.6,1.5,1.6,1.5ZM273.8,98.2c5.4,0,10.9-.1,16.3-.2,1,0,1.8-.7,1.9-1.6,2.6-24.5,6.1-53.3,8.8-77.7,0-.8-.6-1.7-1.5-1.9-6.9-1.5-13.7-3-20.6-4.5-1-.2-1.8.3-1.8,1.2-1.3,26.2-3.4,56.9-4.7,83.1,0,.9.7,1.5,1.7,1.5ZM338.3,96.9c4.8-.2,9.5-.3,14.3-.5,1,0,1.9-.7,2-1.6,1.8-12.7,3.7-25.4,5.5-38,.1-.8-.6-1.6-1.5-1.7-5.1-.8-10.3-1.5-15.4-2.3-1-.1-1.8.4-1.9,1.2-1.5,13.8-3.1,27.6-4.6,41.4,0,.8.6,1.5,1.6,1.5h0ZM433,105.2v115.5c0,.5-.4.9-.9.9-121.6-3.5-245.3-3.5-366.8,0-.5,0-.9-.4-.9-.9v-115.5c0-.8.7-1.4,1.5-1.3,121.1,9,244.4,9,365.5,0,.8,0,1.5.5,1.5,1.3h0ZM423,210.3v-94.7c0-.6-.5-1-1-.9-57.2,4-115.5,6-173.3,6s-116-2-173.3-6c-.6,0-1,.4-1,.9v94.7c0,.6.4,1,1,1,57.2-1.6,115.5-2.3,173.3-2.3s116,.8,173.3,2.3c.5,0,1-.4,1-1ZM432,235.3c-6.9,41.9-13.8,83.1-20.7,123.6-.1.8-.9,1.3-1.8,1.2-8.3-1.1-16.6-2.1-24.9-3.1-.8-.1-1.7-.2-2-.2-.2,0-.3,0-.5,0-9.4-1-18.8-2-28.1-2.8-.6,0-1.4-.1-2.2,0-.5,0-1.3,0-1.7,0-68-5.7-136.3-5.7-204.2.1-.5,0-1.3,0-1.8,0-.7,0-1.6,0-2.2,0-11.6,1-23.2,2.2-34.9,3.6-.2,0-.3,0-.4,0-.2,0-1.1,0-2,.2-5.6.7-11.2,1.4-16.7,2.1-.8.1-1.6-.4-1.8-1.2-6.8-40.6-13.6-81.7-20.4-123.6,0-.5.2-.9.7-.9,120.8-4.8,243.8-4.8,364.6,0,.5,0,.8.4.7.9h0ZM402.9,348.1c5.9-34.7,11.7-69.3,17.3-103.1,0-.5-.3-1-.8-1-56.4-2.1-113.7-3.2-170.7-3.2s-114,1.1-170.3,3.2c-.6,0-.9.5-.8,1,5.5,33.9,11.2,68.5,17,103.1,0,.5.6.9,1.2.9,2.6-.3,5.2-.7,7.8-1,.8,0,1.9-.2,2.6-.2,11.6-1.4,23.3-2.6,35-3.6.5,0,1.6-.1,2.8-.1h1.2c34.3-2.9,69.1-4.4,103.6-4.4s68.3,1.4,102.2,4.3h1.2c1.2,0,2.3,0,2.8.1,9.4.8,18.8,1.8,28.2,2.8.8,0,1.8.1,2.6.2,5.3.6,10.7,1.2,16,1.9.5,0,1.1-.3,1.2-.9h0ZM174.6,251.8h-11.5c-.5,0-.9.4-.9.9v39.9c0,.5-.4.9-.9.9h-23c-.5,0-.9-.4-.9-.9v-39.9c0-.5-.4-.9-.9-.9h-11.5c-.5,0-.9.4-.9.9v75.5c0,.5.4.9.9.9h11.5c.5,0,.9-.4.9-.9v-20.6c0-.5.4-.9.9-.9h23c.5,0,.9.4.9.9v20.6c0,.5.4.9.9.9h11.5c.5,0,.9-.4.9-.9v-75.5c0-.5-.4-.9-.9-.9ZM101.6,188.8c3.6,2.9,7.9,5.2,13.1,6.9s11.1,2.6,17.6,2.6,8.9-.4,12.8-1.3c3.9-.9,7.4-2.1,10.6-3.7,3.2-1.6,5.9-3.5,8.2-5.6,2.1-1.9,3.9-4.1,5.3-6.3.2-.4,0-.9-.3-1.1l-12.1-6.1c-.4-.2-.9,0-1.2.4-.7,1.3-1.7,2.5-2.9,3.6-1.3,1.2-2.8,2.3-4.5,3.2-.4.2-1.1.6-1.6.8-1.9.8-4,1.5-6.2,2.1-2.6.6-5.5.9-8.6.9s-7.9-.5-11.1-1.5c-3.2-1-5.8-2.4-7.9-4.1-2.1-1.7-3.7-3.7-4.7-6-1.1-2.3-1.6-4.6-1.6-7.1s.5-4.9,1.6-7.2c.9-2,2.3-3.8,4.1-5.4.4-.3,1-.8,1.3-1.1,2-1.5,4.4-2.6,7.2-3.5,3.2-1,6.9-1.5,11.1-1.5s5.6.3,8.2.8c2.5.5,4.8,1.3,6.9,2.2s3.8,2,5.2,3.3c1.2,1,2.2,2.1,3,3.3.3.4.8.6,1.2.3l12-6.1c.4-.2.6-.7.3-1.1-1.5-2.1-3.2-4.1-5.4-5.9-2.4-2-5.1-3.8-8.1-5.3-3.1-1.5-6.5-2.7-10.3-3.5-3.8-.8-7.9-1.2-12.4-1.2-6.6,0-12.5.9-17.6,2.6-5.2,1.7-9.6,4-13.1,6.9-3.6,2.9-6.3,6.3-8.2,10.2-1.9,3.9-2.8,8-2.8,12.3s.9,8.4,2.8,12.3,4.6,7.2,8.2,10.2h0ZM194.6,196.3h13.4c.5,0,.9-.4.9-.9v-58.3c0-.5-.4-.9-.9-.9h-13.4c-.5,0-.9.4-.9.9v58.3c0,.5.4.9.9.9ZM234.6,149.2h25.3c.5,0,.9.4.9.9v45.4c0,.5.4.9.9.9h13.3c.5,0,.9-.4.9-.9v-45.4c0-.5.4-.9.9-.9h25.3c.5,0,.9-.4.9-.9v-11.2c0-.5-.4-.9-.9-.9h-67.3c-.5,0-.9.4-.9.9v11.2c0,.5.4.9.9.9h0ZM241.5,258.4c4.6,4.6,7,10.3,7,16.9v52.9c0,.5-.4.9-.9.9h-11.5c-.5,0-.9-.4-.9-.9v-20c0-.5-.4-.9-.9-.9h-19.5c-.5,0-.9.4-.9.9v20c0,.5-.4.9-.9.9h-11.5c-.5,0-.9-.4-.9-.9v-52.9c0-6.6,2.4-12.2,7-16.9,4.7-4.6,10.3-7,16.9-7s12.2,2.3,16.9,7h0ZM235.3,275.2c0-3-1-5.4-3.1-7.5-2.1-2.1-4.5-3.1-7.5-3.1s-5.4,1-7.5,3.1c-2.1,2.1-3.1,4.6-3.1,7.5v18c0,.5.4.9.9.9h19.5c.5,0,.9-.4.9-.9v-18h0ZM354,176.1c.3.4.6,1.1.6,1.5v17.8c0,.5.4.9.9.9h13.3c.5,0,.9-.4.9-.9v-18.5c0-.5.2-1.2.6-1.6l32.2-38.5c.3-.4.2-.7-.3-.7h-16.9c-.5,0-1.1.3-1.4.7l-21.2,25.8c-.3.4-.8.4-1.1,0l-21.5-25.8c-.3-.4-.9-.7-1.4-.7h-16.3c-.5,0-.6.3-.3.7l32.2,39.1h0ZM309.9,315.7h-21.9c-.5,0-.9-.4-.9-.9v-62.2c0-.5-.4-.9-.9-.9h-11.5c-.5,0-.9.4-.9.9v75.5c0,.5.4.9.9.9h35.2c.5,0,.9-.4.9-.9v-11.5c0-.5-.4-.9-.9-.9ZM372.1,315.7h-21.9c-.5,0-.9-.4-.9-.9v-62.2c0-.5-.4-.9-.9-.9h-11.5c-.5,0-.9.4-.9.9v75.5c0,.5.4.9.9.9h35.2c.5,0,.9-.4.9-.9v-11.5c0-.5-.4-.9-.9-.9Z"/>
    </g>
  </g>
</svg>